<svg width="20" height="20" viewBox="0 0 20 20" fill="none" xmlns="http://www.w3.org/2000/svg">
    <path d="M13.3337 17.5V15.8333C13.3337 14.9493 12.9825 14.1014 12.3573 13.4763C11.7322 12.8512 10.8844 12.5 10.0003 12.5H5.00033C4.11627 12.5 3.26842 12.8512 2.6433 13.4763C2.01818 14.1014 1.66699 14.9493 1.66699 15.8333V17.5" stroke="#142445" stroke-width="1.25" stroke-linecap="round" stroke-linejoin="round"/>
    <path d="M7.50033 9.16667C9.34127 9.16667 10.8337 7.67428 10.8337 5.83333C10.8337 3.99238 9.34127 2.5 7.50033 2.5C5.65938 2.5 4.16699 3.99238 4.16699 5.83333C4.16699 7.67428 5.65938 9.16667 7.50033 9.16667Z" stroke="#142445" stroke-width="1.25" stroke-linecap="round" stroke-linejoin="round"/>
    <path d="M18.333 17.5001V15.8334C18.3325 15.0948 18.0866 14.3774 17.6341 13.7937C17.1817 13.2099 16.5481 12.793 15.833 12.6084" stroke="#142445" stroke-width="1.25" stroke-linecap="round" stroke-linejoin="round"/>
    <path d="M13.333 2.6084C14.05 2.79198 14.6855 3.20898 15.1394 3.79366C15.5932 4.37833 15.8395 5.09742 15.8395 5.83757C15.8395 6.57771 15.5932 7.2968 15.1394 7.88147C14.6855 8.46615 14.05 8.88315 13.333 9.06673" stroke="#142445" stroke-width="1.25" stroke-linecap="round" stroke-linejoin="round"/>
    <circle cx="16" cy="4" r="2" fill="#F24D4D"/>
</svg>
