<svg width="30" height="30" viewBox="0 0 30 30" fill="none" xmlns="http://www.w3.org/2000/svg">
    <rect width="30" height="30" rx="8" fill="#FEEDED"/>
    <path d="M16.5874 22.87L16.578 22.866C16.342 22.7654 16.1815 22.6594 16.0822 22.5059C15.9831 22.3527 15.9501 22.16 15.95 21.8984M16.5874 22.87L22.1312 22.0767C22.1879 21.2497 21.8734 20.6353 21.0965 20.2894L21.1169 20.2438C21.1169 20.2437 21.1169 20.2437 21.1168 20.2437C21.1007 20.2365 21.0846 20.2283 21.0675 20.2193C21.0644 20.2177 21.0612 20.2161 21.058 20.2144C21.044 20.207 21.0292 20.1993 21.0143 20.192L21.0142 20.1919C20.3415 19.8654 19.6355 19.6655 18.8756 19.7062C18.1565 19.7447 17.4983 19.9858 16.873 20.317C16.5552 20.4853 16.3225 20.7031 16.1702 20.9692C16.018 21.2351 15.9479 21.5462 15.95 21.8984M16.5874 22.87L16.5976 22.87L21.5477 22.8687L21.5567 22.8687L21.5652 22.8656C21.7437 22.7988 21.8914 22.7032 21.9979 22.5725C22.1047 22.4414 22.1676 22.2779 22.1811 22.0801L16.5874 22.87ZM15.95 21.8984C15.95 21.8984 15.95 21.8985 15.95 21.8985L16 21.8982H15.95C15.95 21.8983 15.95 21.8983 15.95 21.8984ZM21.402 22.0369L21.402 22.0369C21.3975 22.0572 21.3915 22.0681 21.3866 22.074C21.3822 22.0795 21.3769 22.083 21.3695 22.0855C21.3613 22.0884 21.3503 22.0901 21.3349 22.0907C21.3243 22.0911 21.3141 22.091 21.3026 22.0909C21.2964 22.0908 21.2899 22.0907 21.2826 22.0907H19.0575C18.8687 22.0907 18.6799 22.0905 18.4912 22.0903C17.9483 22.0896 17.4054 22.089 16.8614 22.0937C16.7908 22.0943 16.7597 22.0812 16.7459 22.0669C16.7335 22.0541 16.7231 22.0274 16.7321 21.9642L16.7321 21.9641C16.7386 21.9177 16.7436 21.8708 16.7483 21.8246C16.7488 21.8196 16.7493 21.8146 16.7498 21.8096C16.754 21.7683 16.7581 21.7277 16.7632 21.6876C16.7747 21.5975 16.7907 21.5126 16.8212 21.4351C16.8756 21.3007 16.9693 21.1858 17.0902 21.1057C17.7842 20.6808 18.5248 20.4208 19.3473 20.4989L19.352 20.4491L19.3473 20.4989C19.9726 20.5582 20.5422 20.7841 21.0697 21.1198C21.1942 21.1994 21.2955 21.3481 21.3566 21.5209C21.4177 21.6933 21.436 21.8824 21.402 22.0369Z" fill="#F24D4D" stroke="#F24D4D" stroke-width="0.1"/>
    <path d="M6.95 21.5714L6.95189 21.5719C6.96147 21.5381 6.97068 21.5032 6.98002 21.468C7.00172 21.386 7.02409 21.3015 7.05327 21.2206L6.95 21.5714ZM6.95 21.5714V21.5855V21.5714ZM7.60637 20.4808L7.60643 20.4807C8.24748 20.0695 8.94253 19.796 9.70963 19.7178C10.5282 19.6342 11.2867 19.8372 12.011 20.1874C12.011 20.1874 12.0111 20.1874 12.0111 20.1875L11.9893 20.2325L7.60637 20.4808ZM7.60637 20.4808C7.33243 20.657 7.16078 20.9224 7.05327 21.2206L7.60637 20.4808ZM12.4007 21.8229L12.4007 21.8231C12.4008 21.8398 12.4009 21.8556 12.401 21.8704C12.4014 21.94 12.4018 21.9894 12.399 22.026C12.3955 22.0726 12.3877 22.0807 12.3861 22.082C12.3831 22.0846 12.3725 22.0901 12.3261 22.0903C12.3073 22.0904 12.2854 22.0897 12.2588 22.0889C12.2553 22.0888 12.2518 22.0887 12.2482 22.0886C12.2171 22.0877 12.1809 22.0867 12.1391 22.0867H12.1351H12.131H12.127H12.1229H12.1188H12.1148H12.1107H12.1067H12.1026H12.0985H12.0945H12.0904H12.0863H12.0823H12.0782H12.0742H12.0701H12.066H12.062H12.0579H12.0539H12.0498H12.0457H12.0417H12.0376H12.0335H12.0295H12.0254H12.0214H12.0173H12.0132H12.0092H12.0051H12.0011H11.997H11.9929H11.9889H11.9848H11.9808H11.9767H11.9726H11.9686H11.9645H11.9604H11.9564H11.9523H11.9483H11.9442H11.9401H11.9361H11.932H11.928H11.9239H11.9198H11.9158H11.9117H11.9077H11.9036H11.8995H11.8955H11.8914H11.8873H11.8833H11.8792H11.8752H11.8711H11.867H11.863H11.8589H11.8549H11.8508H11.8467H11.8427H11.8386H11.8346H11.8305H11.8264H11.8224H11.8183H11.8142H11.8102H11.8061H11.8021H11.798H11.7939H11.7899H11.7858H11.7818H11.7777H11.7736H11.7696H11.7655H11.7615H11.7574H11.7533H11.7493H11.7452H11.7412H11.7371H11.733H11.729H11.7249H11.7208H11.7168H11.7127H11.7087H11.7046H11.7005H11.6965H11.6924H11.6884H11.6843H11.6802H11.6762H11.6721H11.6681H11.664H11.6599H11.6559H11.6518H11.6478H11.6437H11.6396H11.6356H11.6315H11.6275H11.6234H11.6193H11.6153H11.6112H11.6072H11.6031H11.599H11.595H11.5909H11.5868H11.5828H11.5787H11.5747H11.5706H11.5665H11.5625H11.5584H11.5544H11.5503H11.5462H11.5422H11.5381H11.5341H11.53H11.5259H11.5219H11.5178H11.5138H11.5097H11.5056H11.5016H11.4975H11.4935H11.4894H11.4853H11.4813H11.4772H11.4732H11.4691H11.465H11.461H11.4569H11.4529H11.4488H11.4447H11.4407H11.4366H11.4326H11.4285H11.4244H11.4204H11.4163H11.4123H11.4082H11.4041H11.4001H11.396H11.392H11.3879H11.3838H11.3798H11.3757H11.3717H11.3676H11.3635H11.3595H11.3554H11.3514H11.3473H11.3432H11.3392H11.3351H11.331H11.327H11.3229H11.3189H11.3148H11.3107H11.3067H11.3026H11.2986H11.2945H11.2904H11.2864H11.2823H11.2783H11.2742H11.2701H11.2661H11.262H11.258H11.2539H11.2498H11.2458H11.2417H11.2377H11.2336H11.2295H11.2255H11.2214H11.2174H11.2133H11.2092H11.2052H11.2011H11.1971H11.193H11.189H11.1849H11.1808H11.1768H11.1727H11.1687H11.1646H11.1605H11.1565H11.1524H11.1484H11.1443H11.1402H11.1362H11.1321H11.1281H11.124H11.1199H11.1159H11.1118H11.1078H11.1037H11.0996H11.0956H11.0915H11.0875H11.0834H11.0793H11.0753H11.0712H11.0672H11.0631H11.059H11.055H11.0509H11.0469H11.0428H11.0387H11.0347H11.0306H11.0266H11.0225H11.0184H11.0144H11.0103H11.0063H11.0022H10.9981H10.9941H10.99H10.986H10.9819H10.9778H10.9738H10.9697H10.9657H10.9616H10.9575H10.9535H10.9494H10.9454H10.9413H10.9372H10.9332H10.9291H10.9251H10.921H10.9169H10.9129H10.9088H10.9048H10.9007H10.8967H10.8926H10.8885H10.8845H10.8804H10.8764H10.8723H10.8682H10.8642H10.8601H10.8561H10.852H10.8479H10.8439H10.8398H10.8358H10.8317H10.8276H10.8236H10.8195H10.8155H10.8114H10.8073H10.8033H10.7992H10.7952H10.7911H10.787H10.783H10.7789H10.7749H10.7708H10.7667H10.7627H10.7586H10.7546H10.7505H10.7465H10.7424H10.7383H10.7343H10.7302H10.7262H10.7221H10.718H10.714H10.7099H10.7059H10.7018H10.6977H10.6937H10.6896H10.6856H10.6815H10.6774H10.6734H10.6693H10.6653H10.6612H10.6571H10.6531H10.649H10.645H10.6409H10.6368H10.6328H10.6287H10.6247H10.6206H10.6166H10.6125H10.6084H10.6044H10.6003H10.5963H10.5922H10.5881H10.5841H10.58H10.576H10.5719H10.5678H10.5638H10.5597H10.5557H10.5516H10.5475H10.5435H10.5394H10.5354H10.5313H10.5272H10.5232H10.5191H10.5151H10.511H10.507H10.5029H10.4988H10.4948H10.4907H10.4867H10.4826H10.4785H10.4745H10.4704H10.4664H10.4623H10.4582H10.4542H10.4501H10.4461H10.442H10.4379H10.4339H10.4298H10.4258H10.4217H10.4176H10.4136H10.4095H10.4055H10.4014H10.3974H10.3933H10.3892H10.3852H10.3811H10.3771H10.373H10.3689H10.3649H10.3608H10.3568H10.3527H10.3486H10.3446H10.3405H10.3365H10.3324H10.3283H10.3243H10.3202H10.3162H10.3121H10.308H10.304H10.2999H10.2959H10.2918H10.2878H10.2837H10.2796H10.2756H10.2715H10.2675H10.2634H10.2593H10.2553H10.2512H10.2472H10.2431H10.239H10.235H10.2309H10.2269H10.2228H10.2187H10.2147H10.2106H10.2066H10.2025H10.1985H10.1944H10.1903H10.1863H10.1822H10.1782H10.1741H10.17H10.166H10.1619H10.1579H10.1538H10.1497H10.1457H10.1416H10.1376H10.1335H10.1294H10.1254H10.1213H10.1173H10.1132H10.1091H10.1051H10.101H10.097H10.0929H10.0889H10.0848H10.0807H10.0767H10.0726H10.0686H10.0645H10.0604C9.88311 22.0867 9.70574 22.0865 9.52832 22.0863C8.97364 22.0857 8.41853 22.0851 7.863 22.0906C7.79359 22.0912 7.76619 22.0787 7.75297 22.0649C7.73872 22.0501 7.72796 22.0209 7.72566 21.9544L7.67569 21.9561L7.72566 21.9545C7.7184 21.7258 7.75751 21.5326 7.84851 21.3713C7.93934 21.2104 8.08419 21.0772 8.29549 20.9724C8.93584 20.6546 9.58596 20.4324 10.3038 20.4924L10.3039 20.4924C10.9449 20.5458 11.53 20.7717 12.0691 21.1166L12.0691 21.1166C12.3115 21.2714 12.4007 21.5282 12.4007 21.8229Z" fill="#F24D4D" stroke="#F24D4D" stroke-width="0.1"/>
    <path d="M11.4274 14.0027C11.4415 14.5074 11.7544 14.8203 12.2589 14.8203H14.4985C14.7327 14.8203 14.9669 14.8205 15.2011 14.8206C15.7279 14.821 16.2547 14.8214 16.7812 14.8199C17.1927 14.8186 17.4889 14.5667 17.5496 14.1615C17.5681 14.0261 17.5729 13.8893 17.5641 13.7529M11.4274 14.0027L16.9199 12.4577C17.3894 12.7485 17.583 13.2193 17.614 13.7498C17.614 13.7499 17.614 13.7499 17.614 13.75L17.5641 13.7529M11.4274 14.0027C11.4103 13.3678 11.584 12.8162 12.153 12.4703L11.4274 14.0027ZM17.5641 13.7529C17.5338 13.2329 17.3451 12.7799 16.8935 12.5002L17.5641 13.7529ZM14.4985 14.1372H14.4986C15.2396 14.1372 15.981 14.1372 16.7219 14.1333C16.7748 14.1333 16.8632 14.0906 16.8739 14.0514M14.4985 14.1372L14.5297 14.0981L14.5276 14.0964L14.516 14.0872M14.4985 14.1372L14.4964 14.1355L14.4985 14.1372ZM14.516 14.0872C15.2512 14.0872 15.9867 14.0871 16.7217 14.0833L16.7219 14.0833C16.7377 14.0833 16.7649 14.0761 16.7907 14.0627C16.8031 14.0563 16.813 14.0495 16.8197 14.0435C16.8239 14.0398 16.8255 14.0374 16.826 14.0367M14.516 14.0872L14.5139 14.0855H14.4964C14.328 14.0855 14.1597 14.0853 13.9914 14.0851C13.4233 14.0845 12.8557 14.0839 12.2903 14.0902L12.2909 14.1402M14.516 14.0872L15.8631 12.732M16.826 14.0367C16.8259 14.0373 16.8257 14.0378 16.8256 14.0384L16.8739 14.0514M16.826 14.0367C16.8261 14.0366 16.8262 14.0365 16.8262 14.0365C16.8262 14.0365 16.8259 14.0371 16.8256 14.0382L16.8739 14.0514M16.826 14.0367C16.9211 13.6792 16.7377 13.2436 16.4139 13.0608L16.4137 13.0607C16.2294 12.9554 16.0391 12.861 15.8437 12.7781M16.8739 14.0514C16.9759 13.6714 16.7825 13.2115 16.4385 13.0173C16.2525 12.911 16.0603 12.8157 15.8631 12.732M15.8437 12.7781C15.8437 12.7781 15.8438 12.7781 15.8438 12.7782L15.8631 12.732M15.8437 12.7781C15.8437 12.7781 15.8436 12.7781 15.8436 12.7781L15.8631 12.732M15.8437 12.7781C15.3303 12.563 14.8022 12.4442 14.2458 12.4962C13.7219 12.5453 13.2438 12.7327 12.7655 12.9575L12.7654 12.9575C12.5446 13.061 12.3897 13.1938 12.2925 13.3572C12.1951 13.5207 12.1527 13.7193 12.1645 13.9592C12.1678 14.0234 12.177 14.0517 12.1899 14.0661C12.2007 14.0781 12.2241 14.0908 12.2904 14.0902L12.2909 14.1402M12.2909 14.1402C12.1509 14.1414 12.121 14.0898 12.1146 13.9617M12.2909 14.1402L12.1146 13.9617M12.1146 13.9617C12.0903 13.4673 12.2888 13.1257 12.7442 12.9122M12.1146 13.9617L12.7442 12.9122M12.7442 12.9122C13.224 12.6868 13.7084 12.4964 14.2411 12.4464L12.7442 12.9122ZM11.3774 14.004L11.3774 14.0041L16.9198 12.4577C15.7243 11.7156 14.4463 11.4471 13.0817 11.9697C12.7503 12.0929 12.4309 12.2461 12.1274 12.4274L12.1274 12.4274L12.1271 12.4276C11.5372 12.7861 11.3601 13.3588 11.3774 14.004Z" fill="#F24D4D" stroke="#F24D4D" stroke-width="0.1"/>
    <path d="M8.31572 17.7058L8.31572 17.706C8.31804 18.1709 8.50411 18.6161 8.83332 18.9443C9.16253 19.2725 9.60817 19.4572 10.073 19.458L10.0732 19.458C10.4199 19.4572 10.7586 19.3536 11.0465 19.1604C11.3344 18.9671 11.5585 18.6927 11.6906 18.3721C11.8226 18.0514 11.8567 17.6988 11.7885 17.3587C11.7202 17.0187 11.5527 16.7066 11.3071 16.4617C11.0616 16.2169 10.749 16.0504 10.4088 15.9832C10.0686 15.916 9.71622 15.9513 9.39607 16.0844C9.07591 16.2175 8.80241 16.4426 8.61011 16.7312C8.41782 17.0198 8.31538 17.3589 8.31572 17.7058ZM10.6103 18.5055C10.4515 18.6127 10.2644 18.6705 10.0728 18.6714C9.81555 18.6723 9.56845 18.571 9.38579 18.3897C9.20312 18.2084 9.09985 17.962 9.09867 17.7046L9.04867 17.7049L9.09867 17.7047C9.09811 17.513 9.15436 17.3255 9.26031 17.1658C9.36626 17.0061 9.51716 16.8813 9.69394 16.8074C9.87072 16.7334 10.0655 16.7135 10.2535 16.7502C10.4416 16.7869 10.6146 16.8786 10.7506 17.0136C10.8866 17.1485 10.9796 17.3209 11.0178 17.5087C11.056 17.6965 11.0377 17.8915 10.9651 18.0689C10.8926 18.2463 10.7691 18.3982 10.6103 18.5055Z" fill="#F24D4D" stroke="#F24D4D" stroke-width="0.1"/>
    <path d="M19.064 15.95H19.0639C18.7171 15.95 18.3781 16.0528 18.0898 16.2455C17.8015 16.4382 17.5767 16.7121 17.444 17.0325C17.3112 17.3529 17.2764 17.7055 17.3439 18.0457C17.4115 18.3859 17.5784 18.6984 17.8235 18.9438C18.0686 19.1892 18.3809 19.3563 18.721 19.4241C19.061 19.492 19.4136 19.4574 19.734 19.3249C20.0544 19.1923 20.3284 18.9677 20.5212 18.6794C20.7141 18.3912 20.8171 18.0522 20.8174 17.7053L20.8174 17.7052C20.8167 17.2401 20.6318 16.7943 20.3031 16.4653C19.9745 16.1364 19.5289 15.951 19.064 15.95ZM19.0602 18.6757H19.06H19.0592H19.0591C18.9312 18.6758 18.8046 18.6505 18.6866 18.6013C18.5685 18.552 18.4615 18.4797 18.3716 18.3887C18.2817 18.2977 18.2108 18.1897 18.1631 18.071C18.1153 17.9523 18.0916 17.8253 18.0933 17.6974L18.0933 17.6972C18.0951 17.5057 18.1535 17.3191 18.2611 17.1607C18.3688 17.0024 18.521 16.8795 18.6984 16.8076C18.8758 16.7356 19.0705 16.7179 19.258 16.7565C19.4455 16.7951 19.6174 16.8884 19.7519 17.0246C19.8865 17.1607 19.9777 17.3337 20.0141 17.5217C20.0506 17.7097 20.0305 17.9043 19.9565 18.0809C19.8825 18.2575 19.7579 18.4082 19.5984 18.5141C19.4389 18.62 19.2516 18.6762 19.0602 18.6757ZM19.0592 18.7257H19.06L18.0433 17.6967C18.0415 17.8313 18.0664 17.9649 18.1167 18.0897C18.1669 18.2145 18.2415 18.3281 18.336 18.4238C18.4305 18.5196 18.5431 18.5956 18.6673 18.6474C18.7914 18.6992 18.9246 18.7258 19.0592 18.7257Z" fill="#F24D4D" stroke="#F24D4D" stroke-width="0.1"/>
    <path d="M14.4913 11.4554C14.1447 11.4544 13.8061 11.3505 13.5185 11.1569C13.2308 10.9633 13.0071 10.6887 12.8755 10.3679C12.7439 10.047 12.7105 9.69434 12.7794 9.35447C12.8483 9.01461 13.0164 8.70281 13.2625 8.45855C13.5086 8.21429 13.8216 8.04855 14.1619 7.98229C14.5022 7.91603 14.8545 7.95224 15.1742 8.08634C15.4939 8.22043 15.7667 8.44638 15.958 8.7356C16.1493 9.02481 16.2505 9.36429 16.2489 9.71106L16.1989 9.71083L16.2489 9.71095C16.2483 9.94102 16.2024 10.1687 16.1137 10.381C16.025 10.5933 15.8953 10.786 15.732 10.948C15.5687 11.1101 15.3751 11.2383 15.1622 11.3254C14.9493 11.4124 14.7213 11.4566 14.4913 11.4554ZM14.4913 11.4554C14.4913 11.4554 14.4913 11.4554 14.4913 11.4554L14.4915 11.4054L14.4914 11.4554C14.4914 11.4554 14.4913 11.4554 14.4913 11.4554ZM15.0389 10.511C14.8786 10.6181 14.6902 10.6753 14.4975 10.6753C14.2391 10.6753 13.9912 10.5726 13.8085 10.3898C13.6258 10.207 13.5231 9.95909 13.5231 9.70058C13.5231 9.5078 13.5802 9.31935 13.6873 9.15906C13.7944 8.99877 13.9466 8.87384 14.1246 8.80007C14.3027 8.72629 14.4986 8.70699 14.6876 8.7446C14.8766 8.78221 15.0502 8.87504 15.1865 9.01135C15.3228 9.14767 15.4156 9.32134 15.4532 9.51042C15.4908 9.6995 15.4715 9.89548 15.3977 10.0736C15.324 10.2517 15.1991 10.4039 15.0389 10.511Z" fill="#F24D4D" stroke="#F24D4D" stroke-width="0.1"/>
    <path d="M14.8876 17.5592L14.8876 17.5593C14.8851 17.6162 14.8946 17.6581 14.9131 17.6934C14.932 17.7293 14.9621 17.762 15.0069 17.7975C15.0069 17.7975 15.0069 17.7975 15.0069 17.7975L14.9759 17.8367C15.2662 18.0646 15.5543 18.2952 15.8424 18.5259C16.0148 18.664 16.1873 18.8021 16.3602 18.9396L14.8876 17.5592ZM14.8876 17.5592C14.8958 17.3684 14.8941 17.1765 14.8924 16.986C14.8918 16.9078 14.8911 16.8299 14.8911 16.7524C14.8911 16.7524 14.8911 16.7523 14.8911 16.7523L14.8928 16.3276L14.8928 16.3273C14.8926 16.2794 14.8931 16.2308 14.8936 16.1819C14.8946 16.0693 14.8957 15.9549 14.8897 15.8419L14.8897 15.8418C14.8773 15.6114 14.705 15.4495 14.4941 15.453C14.2829 15.4564 14.1281 15.6162 14.1092 15.8373L14.1091 15.8373M14.8876 17.5592L14.1091 15.8373M16.5872 19.3072C16.6161 19.1214 16.514 18.9974 16.3913 18.9004L13.4073 18.3256C13.3336 18.3844 13.2598 18.4428 13.1861 18.5013C12.9881 18.6581 12.7904 18.8147 12.5963 18.9759L12.5644 18.9374C12.5644 18.9374 12.5644 18.9374 12.5644 18.9374C12.3199 19.14 12.3625 19.5081 12.6551 19.6154L12.6553 19.6155C12.8209 19.6752 12.9603 19.6212 13.0827 19.522L13.0514 19.4831L13.0828 19.522C13.3187 19.3315 13.5554 19.1425 13.7922 18.9534C13.944 18.8321 14.0958 18.7109 14.2475 18.5892L14.2475 18.5892C14.319 18.5318 14.3695 18.4913 14.4109 18.4646C14.4519 18.4381 14.4773 18.4298 14.4981 18.4297C14.5187 18.4295 14.5436 18.4374 14.5839 18.4632C14.6245 18.4892 14.6741 18.5289 14.7445 18.5854L14.7445 18.5854C14.8473 18.6678 14.9501 18.7504 15.0529 18.833C15.3455 19.0681 15.6383 19.3034 15.9331 19.536L15.9332 19.5361C16.0615 19.6366 16.2119 19.6603 16.3383 19.6166C16.4653 19.5726 16.563 19.4623 16.5872 19.3072ZM16.5872 19.3072L16.5378 19.2995L16.5872 19.3072C16.5872 19.3072 16.5872 19.3072 16.5872 19.3072ZM14.1091 15.8373L14.109 15.8391M14.1091 15.8373L14.109 15.8391M14.109 15.8391C14.1068 15.8839 14.1068 15.9302 14.1068 15.9725V15.973L14.109 15.8391ZM14.107 16.3965C14.1073 16.8012 14.1076 17.2055 14.1026 17.6102L14.107 16.3965Z" fill="#F24D4D" stroke="#F24D4D" stroke-width="0.1"/>
</svg>
