<svg width="230" height="167" viewBox="0 0 230 167" fill="none" xmlns="http://www.w3.org/2000/svg">
<path d="M39.2706 52.9491L36.03 52.9137C34.2062 54.77 31.754 55.8771 29.1555 56.0174C26.5569 56.1577 23.9998 55.321 21.9868 53.6718C19.9737 52.0226 18.6503 49.6801 18.2766 47.1048C17.9028 44.5294 18.5058 41.9074 19.967 39.754C21.4283 37.6006 23.6421 36.0716 26.1733 35.4674C28.7046 34.8633 31.3702 35.2277 33.6465 36.4891C35.9227 37.7505 37.6449 39.8176 38.4745 42.2841C39.3041 44.7507 39.1812 47.4384 38.13 49.8189L39.2706 52.9491Z" fill="white"/>
<path d="M39.2706 52.9492L39.1866 52.7414C39.1336 52.5955 39.0584 52.3966 38.9567 52.1402C38.7578 51.6052 38.466 50.8359 38.0725 49.8412H38.1565C38.153 49.8467 38.1485 49.8515 38.1432 49.8552C38.1378 49.859 38.1318 49.8617 38.1254 49.8631C38.1126 49.866 38.0991 49.8637 38.088 49.8567C38.0768 49.8496 38.069 49.8384 38.0661 49.8256C38.0631 49.8127 38.0655 49.7993 38.0725 49.7881C38.7595 48.2174 39.0465 46.501 38.9081 44.7923C38.8171 43.6875 38.5468 42.6049 38.1079 41.587C37.3906 39.8851 36.2285 38.4077 34.7435 37.3098C33.2584 36.2119 31.5052 35.5339 29.6679 35.3472C27.8305 35.1604 25.9767 35.4717 24.3011 36.2483C22.6256 37.0249 21.1899 38.2383 20.1449 39.761C20.0255 39.9379 19.9062 40.1103 19.7912 40.2916L19.4906 40.8442L19.3447 41.1227L19.2209 41.4101L18.9733 41.9849C18.6909 42.7573 18.4995 43.56 18.403 44.3767C18.2037 46.0777 18.4308 47.8015 19.0638 49.3929C19.6967 50.9842 20.7156 52.3931 22.0287 53.4926C23.3417 54.5921 24.9077 55.3477 26.5855 55.6912C28.2633 56.0347 30.0003 55.9554 31.6398 55.4604C33.2808 54.9687 34.773 54.0751 35.9813 52.8608H36.0167L38.4129 52.9183H39.0407H39.2574H36.03H36.0653C34.8558 54.161 33.354 55.0806 31.6973 55.593C29.1181 56.383 26.3341 56.1524 23.9202 54.9487C21.5062 53.745 19.6467 51.6603 18.7257 49.125C17.8999 46.7818 17.9171 44.2239 18.7744 41.892L19.0219 41.304L19.1502 41.0078L19.3005 40.7249L19.6099 40.159C19.7249 39.9777 19.8487 39.8008 19.9681 39.6196C20.855 38.3352 22.0174 37.2648 23.3705 36.4866C24.7236 35.7084 26.2333 35.242 27.7896 35.1213C29.3458 35.0005 30.9094 35.2286 32.3663 35.7888C33.8232 36.349 35.1368 37.2273 36.2112 38.3596C37.0911 39.2825 37.7926 40.3602 38.2803 41.5383C38.7232 42.573 38.9907 43.6742 39.0717 44.7967C39.2021 46.527 38.8981 48.2626 38.1875 49.8456L38.1035 49.797C38.1076 49.7923 38.1127 49.7885 38.1184 49.7859C38.1241 49.7833 38.1303 49.782 38.1366 49.782C38.1429 49.782 38.1491 49.7833 38.1548 49.7859C38.1605 49.7885 38.1656 49.7923 38.1698 49.797L38.9921 52.149L39.1955 52.7458C39.2249 52.8119 39.25 52.8799 39.2706 52.9492Z" fill="#263238"/>
<path d="M28.0899 47.8825C27.2801 47.8836 26.4967 47.5941 25.8823 47.0666C25.2678 46.5391 24.863 45.8086 24.7414 45.008C24.6199 44.2073 24.7897 43.3896 25.2199 42.7035C25.6501 42.0174 26.3122 41.5085 27.0859 41.2692C27.8596 41.0299 28.6934 41.0761 29.4359 41.3995C30.1783 41.7229 30.7801 42.302 31.1318 43.0314C31.4835 43.7609 31.5618 44.5923 31.3525 45.3746C31.1431 46.1569 30.66 46.8382 29.991 47.2945C29.4308 47.6772 28.7683 47.8821 28.0899 47.8825ZM28.0899 42.0068C27.5872 42.0078 27.0968 42.162 26.684 42.4489C26.1896 42.7894 25.8338 43.2959 25.6812 43.8765C25.5287 44.457 25.5895 45.0731 25.8527 45.6126C26.1159 46.1521 26.564 46.5792 27.1154 46.8164C27.6668 47.0535 28.2851 47.0849 28.8577 46.9048C29.4303 46.7248 29.9193 46.3452 30.2358 45.8351C30.5523 45.3251 30.6752 44.7183 30.5822 44.1253C30.4893 43.5323 30.1866 42.9923 29.7292 42.6035C29.2719 42.2148 28.6902 42.003 28.0899 42.0068Z" fill="#263238"/>
<path d="M31.6884 50.2223C31.616 50.2225 31.5446 50.2048 31.4807 50.1708C31.4167 50.1369 31.362 50.0878 31.3214 50.0278L29.3762 47.2027C29.3099 47.106 29.2848 46.9869 29.3064 46.8717C29.3279 46.7564 29.3944 46.6544 29.4911 46.5882C29.5392 46.5547 29.5934 46.5311 29.6506 46.5187C29.7079 46.5064 29.767 46.5055 29.8246 46.5162C29.8822 46.5269 29.9371 46.5489 29.9861 46.581C30.0351 46.6131 30.0772 46.6546 30.1101 46.7031L32.0509 49.5503C32.1172 49.6471 32.1423 49.7662 32.1207 49.8814C32.0992 49.9966 32.0327 50.0986 31.936 50.1649C31.8609 50.2078 31.7748 50.2278 31.6884 50.2223Z" fill="#263238"/>
<path d="M91.7886 0.22168L89.0166 16.4472V166.208H223.847V156.689L91.7886 0.22168Z" fill="#003FA4"/>
<path d="M91.7891 0.22168H221.513C222.944 0.22168 224.316 0.789948 225.327 1.80147C226.339 2.813 226.907 4.18492 226.907 5.61544V153.192C226.907 154.623 226.339 155.995 225.327 157.006C224.316 158.018 222.944 158.586 221.513 158.586H91.7891V0.22168Z" fill="#003FA4"/>
<path d="M221.981 159.802H92V1H221.981C223.469 1.00234 224.895 1.59479 225.947 2.64739C226.999 3.69999 227.59 5.1268 227.591 6.61481V154.191C227.59 155.679 226.998 157.105 225.947 158.157C224.895 159.209 223.468 159.801 221.981 159.802ZM92.4421 159.36H221.981C223.351 159.359 224.665 158.814 225.634 157.845C226.603 156.876 227.148 155.562 227.149 154.191V6.61481C227.148 5.24405 226.603 3.9297 225.634 2.96001C224.665 1.99032 223.351 1.44445 221.981 1.44211H92.4421V159.36Z" fill="#263238"/>
<path d="M212.33 4.75293L219.815 17.2337V153.886L103.169 152.723L96.7847 146.118L212.33 4.75293Z" fill="#E0E0E0"/>
<path d="M212.33 4.15234H96.7847V146.119H212.33V4.15234Z" fill="white"/>
<path d="M212.331 146.117C212.331 145.233 212.291 88.5853 212.229 4.15097L212.331 4.25266H96.7941L96.909 4.13771C96.909 56.6561 96.909 105.501 96.909 146.104L96.8162 146.007L212.362 146.104L96.7853 146.232H96.688V146.135C96.688 105.531 96.688 56.687 96.688 4.16866V4.05371H96.8118H212.349H212.45V4.15539C212.375 88.5854 212.331 145.22 212.331 146.117Z" fill="#263238"/>
<path d="M110.985 51.9573C110.985 53.5533 109.809 54.8487 108.363 54.8487C106.918 54.8487 105.742 53.5533 105.742 51.9573C105.742 50.3613 106.913 49.0703 108.363 49.0703C109.814 49.0703 110.985 50.3657 110.985 51.9573Z" fill="#263238"/>
<g opacity="0.3">
<path d="M91.7891 72.3369H96.7849L96.7717 68.0352H91.7891V72.3369Z" fill="black"/>
</g>
<path d="M94.1856 37.6543C85.4937 37.6543 78.4243 44.5335 78.4243 52.9911C78.4243 61.4487 85.5777 68.3324 94.2696 68.3324H96.7808L96.741 64.6938L94.2696 64.7955C87.3505 64.7955 81.634 59.4902 81.634 52.9911C81.634 46.4921 87.2621 41.1912 94.1856 41.1912C101.109 41.1912 106.737 46.4965 106.737 52.9911C106.713 53.216 106.737 53.4434 106.807 53.6585C106.877 53.8736 106.991 54.0715 107.143 54.2396C107.294 54.4077 107.479 54.542 107.686 54.634C107.892 54.726 108.116 54.7735 108.342 54.7735C108.568 54.7735 108.792 54.726 108.998 54.634C109.205 54.542 109.39 54.4077 109.541 54.2396C109.693 54.0715 109.807 53.8736 109.877 53.6585C109.947 53.4434 109.97 53.216 109.947 52.9911C109.951 44.5468 102.877 37.6543 94.1856 37.6543Z" fill="#E0E0E0"/>
<path d="M94.1852 37.6543C94.1852 37.6543 94.309 37.6543 94.5566 37.6543L95.653 37.6985C96.1349 37.7427 96.7229 37.8356 97.4214 37.9417C98.2173 38.1104 99.0003 38.3349 99.7646 38.6137C101.865 39.383 103.783 40.5798 105.397 42.1285L106.078 42.8579C106.193 42.9817 106.312 43.1011 106.423 43.2293L106.741 43.6405C106.949 43.9234 107.183 44.1931 107.378 44.4893L107.961 45.4178C108.744 46.7734 109.321 48.2381 109.672 49.7637C109.849 50.5873 109.955 51.4245 109.991 52.2661C110.055 52.7075 110.038 53.1569 109.942 53.5924C109.809 54.0432 109.506 54.425 109.098 54.6579C108.887 54.7731 108.653 54.839 108.413 54.8505C108.174 54.862 107.934 54.8188 107.714 54.7242C107.492 54.6249 107.293 54.481 107.13 54.3015C106.966 54.1219 106.842 53.9107 106.763 53.6808C106.682 53.4491 106.64 53.2056 106.639 52.9602L106.6 52.2616C106.575 51.7893 106.516 51.3194 106.423 50.8557C106.026 48.9158 105.135 47.1112 103.836 45.6167C102.797 44.4531 101.559 43.4831 100.18 42.7518C99.9459 42.6325 99.6983 42.5308 99.4551 42.4158C99.216 42.2994 98.9693 42.1989 98.7168 42.1152L97.952 41.8544C97.6955 41.7748 97.4259 41.7217 97.165 41.6554C96.6331 41.5307 96.0942 41.4377 95.5513 41.3769C94.4451 41.2695 93.3299 41.2991 92.2311 41.4653C91.6721 41.5475 91.1185 41.6626 90.5731 41.8101C90.3034 41.8897 90.0382 41.9914 89.7641 42.0798L89.3617 42.2213L88.9683 42.3981C87.9064 42.8552 86.915 43.4611 86.0238 44.1975C85.1083 44.9393 84.3107 45.8158 83.6585 46.7972C82.9849 47.7869 82.4814 48.8822 82.1686 50.0378C81.8195 51.2019 81.689 52.4206 81.784 53.6322C81.8441 54.8609 82.1225 56.069 82.6063 57.2C83.7739 59.9051 85.8815 62.096 88.5394 63.3675C89.8129 63.9953 91.1838 64.4019 92.5936 64.57C93.2829 64.6539 93.9773 64.6878 94.6715 64.6717L96.7362 64.5877H96.8555V64.7027C96.8555 65.9376 96.8673 67.1505 96.8909 68.3412V68.4518H96.7804C95.8475 68.4518 94.9235 68.4518 94.0083 68.4518L92.6334 68.381L91.2849 68.1776C89.5442 67.8432 87.8681 67.2327 86.32 66.3694C85.9487 66.1439 85.564 65.9494 85.2148 65.6974L84.1846 64.9502L83.2341 64.1191C83.0748 63.9841 82.9269 63.8362 82.792 63.677L82.3499 63.2348C81.2648 62.054 80.3699 60.7116 79.6972 59.2558C79.5159 58.9066 79.4098 58.5308 79.2551 58.1771L79.0517 57.6377L78.9014 57.0851C78.813 56.7181 78.6936 56.36 78.6273 55.9931C78.561 55.6261 78.5123 55.2547 78.4549 54.8922C78.2805 53.4836 78.3088 52.0573 78.5389 50.6568C78.6388 49.9927 78.7865 49.3366 78.981 48.6938C79.07 48.3811 79.1777 48.074 79.3037 47.7742C79.4231 47.478 79.5159 47.1685 79.6574 46.89C79.9182 46.3285 80.2135 45.7836 80.5416 45.2586C80.7008 45.0066 80.86 44.7546 81.0147 44.5026C81.1694 44.2506 81.3684 44.0384 81.5408 43.8085C82.8002 42.1942 84.3638 40.8424 86.1432 39.8295C86.3377 39.719 86.5234 39.5996 86.7135 39.5023L87.2927 39.2326C87.648 39.0525 88.0142 38.8945 88.3891 38.7596L89.4236 38.397C89.7552 38.2998 90.078 38.2335 90.3786 38.1539C90.9133 38.0172 91.457 37.9182 92.0056 37.8577C92.2399 37.8267 92.4477 37.7825 92.6599 37.7737L93.2037 37.7516L93.9376 37.7206H94.1852L93.9332 37.7427L93.1993 37.7869L92.6599 37.8179C92.4565 37.8179 92.2443 37.8798 92.0056 37.9107C91.4614 37.9803 90.9224 38.0851 90.3919 38.2246C90.0912 38.3042 89.7729 38.3749 89.4413 38.4766L88.4377 38.7994C88.0605 38.9237 87.6914 39.0714 87.3325 39.2415L86.7621 39.5156C86.572 39.6128 86.3908 39.7322 86.1962 39.8427C84.4369 40.8608 82.893 42.2124 81.6513 43.8217C81.4789 44.0472 81.2976 44.2639 81.1341 44.5114L80.6654 45.2586C80.3503 45.7813 80.0655 46.3215 79.8122 46.8767C79.6751 47.1553 79.5867 47.4603 79.4673 47.761C79.3441 48.0583 79.2378 48.3623 79.149 48.6717C78.9566 49.3076 78.8088 49.9561 78.7069 50.6126C78.4814 51.9974 78.4575 53.4077 78.6361 54.7994C78.6921 55.1589 78.7496 55.5215 78.8086 55.887C78.8749 56.2495 78.9898 56.6032 79.0827 56.9657L79.2286 57.5095L79.4319 58.04C79.5778 58.3937 79.6839 58.7651 79.874 59.1055C80.5465 60.5494 81.4417 61.8787 82.5267 63.0447L82.9688 63.4868C83.1035 63.6464 83.2514 63.7942 83.4109 63.929L84.3482 64.7469L85.3695 65.4852C85.7143 65.7283 86.0945 65.9273 86.4615 66.1484C87.9927 66.992 89.6474 67.5888 91.3645 67.9168L92.6908 68.1113L94.0481 68.1821C94.9589 68.2042 95.8829 68.1821 96.8157 68.1821L96.7052 68.2926C96.7052 67.0989 96.6787 65.8919 96.6654 64.6584L96.7804 64.769L94.7113 64.853C94.3609 64.875 94.0095 64.875 93.6591 64.853C93.3037 64.8464 92.9491 64.8154 92.598 64.7601C91.1528 64.5993 89.7458 64.1926 88.4377 63.5576C85.7292 62.2618 83.5821 60.0283 82.3941 57.2708C81.8998 56.116 81.6153 54.8824 81.5541 53.6278C81.4619 52.3909 81.5952 51.1475 81.9476 49.9582C82.2671 48.7804 82.7811 47.6642 83.4684 46.6557C84.1328 45.6547 84.9452 44.7603 85.8779 44.003C86.7867 43.2536 87.7975 42.6373 88.8798 42.1727L89.2777 41.9914L89.6933 41.8499C89.9674 41.7615 90.2371 41.6554 90.5157 41.5758C91.068 41.4252 91.6291 41.3085 92.1957 41.2266C93.3137 41.0575 94.4484 41.0293 95.5734 41.1426C96.1255 41.2027 96.6733 41.2972 97.2136 41.4255C97.4789 41.4918 97.7486 41.5493 98.0139 41.6245L98.7876 41.8941C99.0464 41.9797 99.299 42.0831 99.5436 42.2036C99.7867 42.3186 100.039 42.4203 100.277 42.544C100.75 42.7941 101.206 43.0732 101.644 43.3796C102.507 43.9746 103.294 44.674 103.987 45.462C105.307 46.9844 106.21 48.8229 106.609 50.7983C106.701 51.2696 106.762 51.7467 106.79 52.2263C106.79 52.465 106.812 52.7038 106.825 52.9381C106.826 53.1608 106.863 53.3819 106.936 53.5924C107.005 53.799 107.117 53.9892 107.263 54.1511C107.409 54.3131 107.586 54.4434 107.785 54.5341C107.979 54.6199 108.191 54.6598 108.403 54.6506C108.615 54.6414 108.823 54.5834 109.009 54.481C109.379 54.2726 109.653 53.9286 109.774 53.5217C109.866 53.108 109.882 52.6812 109.823 52.2616C109.788 51.4292 109.685 50.6011 109.513 49.7858C109.172 48.2745 108.605 46.823 107.833 45.4797L107.263 44.5557C107.064 44.2594 106.821 43.9897 106.631 43.7156L106.321 43.3045C106.211 43.1763 106.091 43.0569 105.976 42.9331L105.304 42.208C103.712 40.657 101.815 39.4527 99.7337 38.6712C98.975 38.389 98.198 38.1586 97.4082 37.9815C96.7141 37.8709 96.126 37.7692 95.6397 37.7162L94.5477 37.6543H94.1852Z" fill="#263238"/>
<path d="M110.985 93.6702C110.985 95.2662 109.809 96.5616 108.363 96.5616C106.918 96.5616 105.742 95.2662 105.742 93.6702C105.742 92.0742 106.913 90.7832 108.363 90.7832C109.814 90.7832 110.985 92.0742 110.985 93.6702Z" fill="#263238"/>
<path d="M203.931 39.958H114.92V43.685H203.931V39.958Z" fill="#142445"/>
<path d="M166.798 35.3916H114.92V39.1186H166.798V35.3916Z" fill="#142445"/>
<path d="M166.798 120.06H114.92V123.787H166.798V120.06Z" fill="#142445"/>
<path d="M204.425 27.3721H115.305V32.8056H204.425V27.3721Z" fill="#E0E0E0"/>
<path d="M203.466 77.1836H114.345V82.6171H203.466V77.1836Z" fill="#E0E0E0"/>
<path d="M150.846 50.418H115.305V55.8515H150.846V50.418Z" fill="#E0E0E0"/>
<path d="M203.466 50.418H159.029V55.8515H203.466V50.418Z" fill="#E0E0E0"/>
<path d="M166.797 37.611C166.797 37.6729 155.364 37.7216 141.257 37.7216C127.149 37.7216 115.711 37.6729 115.711 37.611C115.711 37.5491 127.149 37.4961 141.257 37.4961C155.364 37.4961 166.797 37.5447 166.797 37.611Z" fill="#263238"/>
<path d="M203.931 41.8942C203.931 41.9561 184.16 42.0092 159.777 42.0092C135.395 42.0092 115.619 41.9561 115.619 41.8942C115.619 41.8323 135.386 41.7793 159.777 41.7793C184.168 41.7793 203.931 41.8191 203.931 41.8942Z" fill="#263238"/>
<path d="M203.931 45.9353C203.931 45.9972 184.16 46.0502 159.777 46.0502C135.395 46.0502 115.619 45.9972 115.619 45.9353C115.619 45.8734 135.386 45.8203 159.777 45.8203C184.168 45.8203 203.931 45.8734 203.931 45.9353Z" fill="#263238"/>
<path d="M150.541 59.1677C150.541 59.2296 142.583 59.2826 132.782 59.2826C122.98 59.2826 115.026 59.2296 115.026 59.1677C115.026 59.1058 122.984 59.0527 132.782 59.0527C142.579 59.0527 150.541 59.1058 150.541 59.1677Z" fill="#263238"/>
<path d="M150.541 63.3415C150.541 63.4034 142.72 63.4565 133.078 63.4565C123.435 63.4565 115.614 63.4034 115.614 63.3415C115.614 63.2796 123.431 63.2266 133.078 63.2266C142.725 63.2266 150.541 63.2796 150.541 63.3415Z" fill="#263238"/>
<path d="M150.395 67.5856C150.395 67.6475 142.508 67.7006 132.782 67.7006C123.055 67.7006 115.172 67.6475 115.172 67.5856C115.172 67.5238 123.055 67.4707 132.782 67.4707C142.508 67.4707 150.395 67.537 150.395 67.5856Z" fill="#263238"/>
<path d="M150.395 71.7028C150.395 71.7647 142.508 71.8178 132.782 71.8178C123.055 71.8178 115.172 71.7647 115.172 71.7028C115.172 71.6409 123.055 71.5879 132.782 71.5879C142.508 71.5879 150.395 71.6409 150.395 71.7028Z" fill="#263238"/>
<path d="M202.781 60.1443C202.781 60.2106 194.549 60.2592 184.394 60.2592C174.239 60.2592 165.998 60.2106 165.998 60.1443C165.998 60.078 174.234 60.0205 184.376 60.0205C194.518 60.0205 202.781 60.0824 202.781 60.1443Z" fill="#263238"/>
<path d="M163.177 61.4757C163.142 61.2237 163.126 60.9696 163.128 60.7153C163.128 60.2422 163.088 59.5923 163.079 58.8142L163.177 58.9159H160.643L160.749 58.801V59.5083C160.749 59.7426 160.749 59.9504 160.749 60.1936C160.749 60.6357 160.749 61.0778 160.749 61.4492L160.657 61.3519C161.395 61.3519 162.014 61.3829 162.46 61.4006C162.704 61.4046 162.948 61.4208 163.19 61.4492C162.969 61.4876 162.746 61.5039 162.522 61.4978C162.08 61.4978 161.435 61.542 160.657 61.5509H160.559V61.4492C160.559 61.0601 160.559 60.6357 160.559 60.1936C160.559 59.9725 160.559 59.7515 160.559 59.5083V58.801C160.462 58.9071 160.692 58.6639 160.67 58.686H163.203H163.296V58.7833C163.296 59.6056 163.265 60.282 163.247 60.7462C163.243 60.9909 163.219 61.2348 163.177 61.4757Z" fill="#263238"/>
<path d="M202.781 65.2605C202.781 65.3224 194.549 65.3754 184.394 65.3754C174.239 65.3754 165.998 65.3224 165.998 65.2605C165.998 65.1986 174.234 65.1455 184.394 65.1455C194.554 65.1455 202.781 65.1941 202.781 65.2605Z" fill="#263238"/>
<path d="M163.176 66.59C163.142 66.3365 163.126 66.081 163.128 65.8252C163.128 65.3566 163.088 64.7022 163.079 63.9285L163.176 64.0258H160.643C160.617 64.0479 160.846 63.8092 160.749 63.9109V64.6182C160.749 64.8525 160.749 65.0603 160.749 65.3079C160.749 65.75 160.749 66.17 160.749 66.5635L160.656 66.4618C161.395 66.4618 162.014 66.4928 162.46 66.5149C162.704 66.5134 162.948 66.5297 163.19 66.5635C162.969 66.5961 162.745 66.6123 162.522 66.6122C162.08 66.6122 161.434 66.6519 160.656 66.6608H160.559V66.5635C160.559 66.17 160.559 65.75 160.559 65.3079C160.559 65.0824 160.559 64.8658 160.559 64.6182V63.9109L160.67 63.7959H163.203H163.296V63.8976C163.296 64.7155 163.265 65.3963 163.247 65.8561C163.242 66.1022 163.219 66.3476 163.176 66.59Z" fill="#263238"/>
<path d="M202.781 70.3708C202.781 70.4327 194.549 70.4858 184.394 70.4858C174.239 70.4858 165.998 70.4327 165.998 70.3708C165.998 70.3089 174.234 70.2559 184.394 70.2559C194.554 70.2559 202.781 70.3089 202.781 70.3708Z" fill="#263238"/>
<path d="M163.176 71.7018C163.142 71.4483 163.126 71.1927 163.128 70.9369C163.128 70.4683 163.088 69.8184 163.079 69.0403L163.176 69.1375H160.643L160.749 69.0226V69.7476C160.749 69.982 160.749 70.2119 160.749 70.4373C160.749 70.8794 160.749 71.2995 160.749 71.6929L160.656 71.5957C161.395 71.5957 162.014 71.6266 162.46 71.6443C162.704 71.6456 162.948 71.6618 163.19 71.6929C162.969 71.7284 162.746 71.7447 162.522 71.7416C162.08 71.7416 161.434 71.7814 160.656 71.7946H160.559V71.6929C160.559 71.2995 160.559 70.8794 160.559 70.4373C160.559 70.2119 160.559 69.9952 160.559 69.7476V69.0358L160.67 68.9209H163.203H163.296V69.0182C163.296 69.8405 163.265 70.5169 163.247 70.9811C163.242 71.2228 163.218 71.4637 163.176 71.7018Z" fill="#263238"/>
<path d="M202.78 112.633C202.78 112.633 202.78 112.482 202.78 112.19C202.78 111.899 202.78 111.474 202.78 110.917C202.78 109.794 202.78 108.136 202.78 105.983C202.78 101.681 202.758 95.3946 202.741 87.4499L202.807 87.5206L115.061 87.5648L115.172 87.4499C115.172 96.1108 115.172 104.555 115.172 112.624L115.066 112.513L177.735 112.562L196.144 112.597H201.092H202.378H201.105H196.18L177.797 112.628L115.052 112.677H114.946V112.633C114.946 104.564 114.946 96.1197 114.946 87.4587V87.3438H115.061L202.807 87.388H202.878V87.4587C202.878 95.4167 202.847 101.721 202.838 106.027C202.838 108.172 202.838 109.825 202.838 110.944C202.838 111.496 202.838 111.916 202.838 112.204C202.838 112.491 202.78 112.633 202.78 112.633Z" fill="#263238"/>
<path d="M202.781 93.8025C202.781 93.8643 183.191 93.9174 159.012 93.9174C134.833 93.9174 115.243 93.8643 115.243 93.8025C115.243 93.7406 134.833 93.6875 159.012 93.6875C183.191 93.6875 202.781 93.7406 202.781 93.8025Z" fill="#263238"/>
<path d="M202.781 100.053C202.781 100.115 183.191 100.168 159.012 100.168C134.833 100.168 115.243 100.115 115.243 100.053C115.243 99.9915 134.833 99.9385 159.012 99.9385C183.191 99.9385 202.781 99.9915 202.781 100.053Z" fill="#263238"/>
<path d="M202.781 106.372C202.781 106.438 183.191 106.487 159.012 106.487C134.833 106.487 115.243 106.438 115.243 106.372C115.243 106.305 134.833 106.257 159.012 106.257C183.191 106.257 202.781 106.31 202.781 106.372Z" fill="#263238"/>
<path d="M125.231 112.862C125.169 112.862 125.12 107.168 125.12 100.147C125.12 93.1266 125.169 87.4277 125.231 87.4277C125.293 87.4277 125.341 93.1221 125.341 100.147C125.341 107.172 125.293 112.862 125.231 112.862Z" fill="#263238"/>
<path d="M154.904 112.097C154.843 112.097 154.794 106.659 154.794 99.9524C154.794 93.2456 154.843 87.8076 154.904 87.8076C154.966 87.8076 155.015 93.2456 155.015 99.9524C155.015 106.659 154.966 112.097 154.904 112.097Z" fill="#263238"/>
<path d="M186.171 113.242C186.114 113.242 186.065 107.636 186.065 100.717C186.065 93.7983 186.114 88.1924 186.171 88.1924C186.229 88.1924 186.282 93.7983 186.282 100.717C186.282 107.636 186.233 113.242 186.171 113.242Z" fill="#263238"/>
<path d="M201.039 118.283C201.039 118.349 181.873 118.398 158.243 118.398C134.612 118.398 115.446 118.349 115.446 118.283C115.446 118.217 134.603 118.168 158.243 118.168C181.882 118.168 201.039 118.221 201.039 118.283Z" fill="#263238"/>
<path d="M201.039 121.918C201.039 121.984 181.873 122.033 158.243 122.033C134.612 122.033 115.446 121.984 115.446 121.918C115.446 121.851 134.603 121.803 158.243 121.803C181.882 121.803 201.039 121.86 201.039 121.918Z" fill="#263238"/>
<path d="M146.593 125.559C146.593 125.626 139.621 125.674 131.022 125.674C122.423 125.674 115.446 125.626 115.446 125.559C115.446 125.493 122.418 125.444 131.022 125.444C139.625 125.444 146.593 125.497 146.593 125.559Z" fill="#263238"/>
<g opacity="0.3">
<path d="M91.7891 112.751H96.7849L96.7717 108.449H91.7891V112.751Z" fill="black"/>
</g>
<path d="M94.1856 79.0312C85.4937 79.0312 78.4243 85.9105 78.4243 94.3681C78.4243 102.826 85.5777 109.709 94.2696 109.709H96.7808L96.741 106.071L94.2696 106.172C87.3505 106.172 81.634 100.867 81.634 94.3681C81.634 87.8691 87.2665 82.5681 94.1856 82.5681C101.105 82.5681 106.737 87.8735 106.737 94.3681C106.713 94.593 106.737 94.8204 106.807 95.0354C106.877 95.2505 106.991 95.4485 107.143 95.6166C107.294 95.7846 107.479 95.919 107.686 96.011C107.892 96.103 108.116 96.1505 108.342 96.1505C108.568 96.1505 108.792 96.103 108.998 96.011C109.205 95.919 109.39 95.7846 109.541 95.6166C109.693 95.4485 109.807 95.2505 109.877 95.0354C109.947 94.8204 109.97 94.593 109.947 94.3681C109.951 85.9282 102.877 79.0312 94.1856 79.0312Z" fill="#E0E0E0"/>
<path d="M94.1852 79.0312C94.1852 79.0312 94.3089 79.0312 94.5565 79.0312L95.653 79.0755C96.1349 79.1153 96.7229 79.2125 97.4214 79.3186C98.2167 79.4877 98.9996 79.7108 99.7646 79.9862C101.866 80.7643 103.783 81.9685 105.397 83.5231L106.078 84.2482C106.193 84.3719 106.312 84.4913 106.423 84.624L106.741 85.0351C106.949 85.3136 107.183 85.5833 107.378 85.884L107.961 86.8124C108.744 88.168 109.321 89.6328 109.672 91.1584C109.849 91.982 109.955 92.8191 109.991 93.6607C110.055 94.1021 110.038 94.5515 109.942 94.987C109.809 95.4379 109.506 95.8197 109.098 96.0525C108.887 96.1678 108.653 96.2336 108.413 96.2451C108.174 96.2566 107.934 96.2134 107.714 96.1188C107.492 96.019 107.293 95.8744 107.129 95.6941C106.966 95.5138 106.841 95.3017 106.763 95.071C106.683 94.8408 106.641 94.5988 106.639 94.3548L106.6 93.6563C106.575 93.1839 106.516 92.714 106.423 92.2504C106.031 90.303 105.142 88.4904 103.841 86.9892C103.159 86.214 102.384 85.5264 101.533 84.9423C101.1 84.6433 100.65 84.3702 100.185 84.1244C99.9503 84.0006 99.7027 83.9033 99.4595 83.7884C99.2212 83.67 98.9744 83.5695 98.7212 83.4877L97.9564 83.2225C97.6999 83.1473 97.4303 83.0943 97.1694 83.0279C96.6379 82.9011 96.0989 82.8081 95.5557 82.7494C93.8832 82.5921 92.1961 82.742 90.5775 83.1915C90.3078 83.2667 90.0426 83.3728 89.7685 83.4612L89.3661 83.6027L88.9727 83.7751C87.9115 84.2354 86.9203 84.8427 86.0282 85.5789C85.1117 86.3196 84.314 87.1963 83.6629 88.1785C82.9894 89.1667 82.4858 90.2605 82.173 91.4148C81.8239 92.5789 81.6934 93.7976 81.7884 95.0092C81.8475 96.238 82.126 97.4463 82.6107 98.577C83.7732 101.291 85.8816 103.49 88.5438 104.767C89.8175 105.393 91.1884 105.798 92.598 105.965C92.9415 106.021 93.2889 106.05 93.6369 106.053C93.9829 106.075 94.3299 106.075 94.6759 106.053L96.7406 105.969H96.8599V106.084C96.8599 107.319 96.8717 108.53 96.8953 109.718V109.833H96.7848C95.8519 109.833 94.9279 109.833 94.0127 109.833L92.6378 109.767L91.2893 109.563C89.5486 109.229 87.8725 108.619 86.3244 107.755C85.953 107.53 85.5684 107.313 85.2191 107.083L84.189 106.332L83.2385 105.5C83.0791 105.366 82.9312 105.218 82.7964 105.058L82.3543 104.616C81.2685 103.436 80.3735 102.093 79.7016 100.637C79.5203 100.292 79.4142 99.9166 79.2595 99.5585L79.0561 99.0235L78.9058 98.4709C78.8174 98.1039 78.698 97.7414 78.6317 97.3744L78.4593 96.278C78.2849 94.868 78.3132 93.4402 78.5433 92.0382C78.6437 91.3756 78.7914 90.7211 78.9854 90.0796C79.0744 89.7669 79.1821 89.4598 79.3081 89.16C79.4275 88.8594 79.5203 88.5543 79.6618 88.2758C79.9226 87.7157 80.2179 87.1723 80.546 86.6488L81.0191 85.8928C81.1871 85.6496 81.3728 85.4286 81.5452 85.1987C82.8025 83.5764 84.3662 82.217 86.1476 81.1976C86.3421 81.0871 86.5278 80.9677 86.7179 80.866L87.2971 80.6007C87.6516 80.4187 88.0179 80.2607 88.3935 80.1277L89.428 79.7652C89.7596 79.6679 90.0824 79.5971 90.383 79.522C90.9177 79.384 91.4613 79.2836 92.01 79.2214C92.2443 79.1948 92.4521 79.1506 92.6643 79.1374H93.2081L93.942 79.1108C94.11 79.1108 94.194 79.1108 94.194 79.1108H93.942L93.2081 79.1595L92.6687 79.1904C92.4653 79.1904 92.2531 79.2523 92.0144 79.2833C91.4699 79.3507 90.9307 79.4556 90.4007 79.5972C90.1001 79.6767 89.7817 79.7475 89.4501 79.8492L88.4289 80.2161C88.0554 80.3526 87.6907 80.5121 87.3369 80.6936L86.7665 80.9633C86.5764 81.065 86.3952 81.1843 86.2006 81.2949C84.441 82.3125 82.8971 83.6642 81.6557 85.2739C81.4833 85.5038 81.302 85.716 81.1385 85.9635L80.6698 86.7151C80.3548 87.2363 80.0699 87.7751 79.8165 88.3288C79.6795 88.6074 79.5911 88.9124 79.4717 89.2131C79.3504 89.4976 79.2442 89.7883 79.1534 90.084C78.5713 92.0727 78.3998 94.159 78.6494 96.2161L78.8218 97.2993C78.8881 97.6618 79.0031 98.0155 79.0959 98.3824L79.2418 98.9262L79.4452 99.4568C79.5911 99.8061 79.6972 100.177 79.8873 100.522C80.5598 101.966 81.4549 103.295 82.54 104.461L82.9821 104.904C83.1167 105.063 83.2646 105.211 83.4242 105.346L84.3614 106.164L85.3429 106.884C85.6878 107.132 86.068 107.326 86.435 107.547C87.9643 108.395 89.6196 108.992 91.338 109.316L92.6643 109.515L94.0216 109.581C94.9323 109.608 95.8563 109.581 96.7892 109.581L96.6787 109.692C96.6787 108.498 96.6654 107.285 96.6389 106.053L96.7538 106.164L94.6847 106.248C94.3343 106.27 93.9829 106.27 93.6325 106.248C93.2772 106.243 92.9227 106.213 92.5715 106.159C91.1369 105.991 89.7418 105.578 88.4466 104.939C85.7361 103.646 83.5882 101.411 82.4029 98.6521C81.9077 97.4977 81.6232 96.2639 81.5629 95.0092C81.5267 94.3903 81.537 93.7696 81.5938 93.1523C81.6699 92.54 81.7911 91.9341 81.9564 91.3396C82.2768 90.1621 82.7908 89.046 83.4772 88.0371C84.1428 87.037 84.955 86.1427 85.8867 85.3844C86.7955 84.635 87.8063 84.0187 88.8887 83.5541L89.2866 83.3772L89.7022 83.2357C89.9763 83.1429 90.2459 83.0368 90.5245 82.9616C91.0767 82.8095 91.6378 82.6914 92.2045 82.6079C93.3227 82.4411 94.4572 82.4129 95.5822 82.5239C96.1337 82.5884 96.6813 82.6829 97.2225 82.8069C97.4877 82.8776 97.7574 82.9307 98.0227 83.0102L98.7964 83.2799C99.0544 83.3659 99.3069 83.4678 99.5524 83.585C99.7955 83.6999 100.048 83.806 100.286 83.9298C100.758 84.1799 101.215 84.459 101.652 84.7654C102.518 85.3578 103.306 86.0575 103.996 86.8478C105.318 88.369 106.221 90.208 106.617 92.1841C106.71 92.6554 106.771 93.1325 106.799 93.6121C106.799 93.8508 106.821 94.0851 106.834 94.3239C106.835 94.5466 106.872 94.7676 106.944 94.9782C107.014 95.1848 107.125 95.375 107.271 95.537C107.417 95.6989 107.595 95.8292 107.793 95.9199C107.988 96.0047 108.2 96.0436 108.412 96.0337C108.625 96.0237 108.832 95.9651 109.018 95.8624C109.389 95.6551 109.663 95.3106 109.783 94.903C109.875 94.4908 109.891 94.0655 109.831 93.6474C109.797 92.815 109.694 91.9869 109.522 91.1716C109.18 89.6589 108.614 88.206 107.842 86.861L107.272 85.9414C107.073 85.6452 106.83 85.3755 106.639 85.097L106.33 84.6903C106.219 84.5576 106.1 84.4383 105.985 84.3145L105.313 83.5938C103.719 82.0448 101.823 80.8408 99.7425 80.057C98.9831 79.7781 98.2063 79.5492 97.417 79.3717C96.7229 79.2611 96.1349 79.155 95.6485 79.1064L94.5565 79.0401L94.1852 79.0312Z" fill="#263238"/>
<g opacity="0.3">
<path d="M91.7891 158.58L89.0171 166.206H223.848V158.58H91.7891Z" fill="black"/>
</g>
<path d="M100.101 149.548C100.101 149.548 100.3 149.548 100.689 149.548H102.422H109.098L133.786 149.672L216.46 150.172L216.345 150.287V138.973C216.345 103.71 216.367 71.7944 216.376 48.6896C216.376 37.1373 216.407 27.7911 216.416 21.3274C216.416 18.1 216.416 15.58 216.416 13.8911C216.416 15.5932 216.416 18.1 216.438 21.3274C216.438 27.7911 216.46 37.1373 216.474 48.6896C216.474 71.7944 216.496 103.71 216.509 138.973V150.415H216.394L133.741 149.845L109.049 149.646L102.378 149.584L100.645 149.562L100.101 149.548Z" fill="#263238"/>
<path d="M98.186 147.671H98.774H107.174L131.809 147.728L214.337 147.998L214.223 148.113C214.223 144.311 214.223 140.265 214.223 136.176C214.276 100.807 214.32 68.7848 214.351 45.6005C214.377 34.0172 214.399 24.64 214.417 18.1542C214.417 14.918 214.439 12.4068 214.444 10.6914C214.444 9.84256 214.444 9.19265 214.444 8.75054C214.444 8.30843 214.444 8.0918 214.444 8.0918C214.444 8.0918 214.444 8.31285 214.444 8.75054C214.444 9.18823 214.444 9.84256 214.444 10.6914C214.444 12.4024 214.444 14.918 214.444 18.1542C214.444 24.64 214.444 34.0172 214.444 45.6005C214.444 68.7848 214.408 100.802 214.386 136.176C214.386 140.265 214.386 144.311 214.386 148.113V148.228H214.271L131.742 147.883L107.108 147.759L100.45 147.71H98.721L98.186 147.671Z" fill="#263238"/>
<path d="M101.816 151.348H104.137L110.804 151.37L135.456 151.494L217.91 151.98L217.795 152.095C217.795 148.766 217.821 145.216 217.835 141.634C217.981 106.677 218.113 75.0393 218.211 52.1335C218.272 40.6828 218.321 31.4162 218.352 25.01C218.352 21.8091 218.392 19.3245 218.401 17.6356C218.401 16.7956 218.401 16.1545 218.423 15.7168C218.445 15.2791 218.423 15.0625 218.423 15.0625C218.423 15.0625 218.423 15.288 218.423 15.7168C218.423 16.1457 218.423 16.7956 218.423 17.6356C218.423 19.3245 218.423 21.8091 218.423 25.01C218.423 31.4162 218.383 40.6828 218.356 52.1335C218.277 75.0393 218.166 106.677 218.047 141.634C218.047 145.216 218.02 148.766 218.007 152.095V152.21H217.892L135.438 151.644L110.786 151.449L104.119 151.387L102.386 151.365L101.816 151.348Z" fill="#263238"/>
<path d="M214.453 20.5938H225.28L229.14 24.9264L225.784 30.0903H214.444L214.453 20.5938Z" fill="#455A64"/>
<path d="M1.2885 92.4865C1.09387 92.4604 0.906341 92.3961 0.73675 92.2971C0.567159 92.1981 0.418872 92.0665 0.300466 91.9099C0.18206 91.7532 0.0958842 91.5747 0.0469221 91.3845C-0.00203995 91.1943 -0.0128167 90.9964 0.0152156 90.802L1.8544 78.0162C1.88215 77.8566 1.94116 77.7041 2.02804 77.5674C2.11493 77.4307 2.22797 77.3125 2.36068 77.2197C2.49338 77.1268 2.64313 77.0611 2.80132 77.0263C2.9595 76.9916 3.123 76.9884 3.28242 77.017L4.48496 77.1894C4.71942 77.2265 4.95957 77.1973 5.17831 77.1051C5.39705 77.0129 5.58567 76.8614 5.72287 76.6677L6.05887 76.1814C6.19697 75.9889 6.38587 75.8386 6.60447 75.7472C6.82308 75.6559 7.06278 75.6271 7.29679 75.6641L13.0044 76.482C13.219 76.5131 13.4226 76.5962 13.5976 76.7241C13.7725 76.8521 13.9134 77.0209 14.008 77.216L14.2247 77.7023C14.3156 77.8991 14.4549 78.0697 14.6296 78.198C14.8044 78.3264 15.0088 78.4083 15.2238 78.4362L22.5142 79.4751C22.6748 79.4927 22.8303 79.5418 22.9719 79.6196C23.1135 79.6974 23.2384 79.8023 23.3394 79.9283C23.4404 80.0544 23.5156 80.1991 23.5606 80.3542C23.6056 80.5094 23.6197 80.6719 23.6018 80.8324L21.7184 93.9145C21.6626 94.3043 21.4543 94.656 21.1393 94.8922C20.8242 95.1285 20.4283 95.23 20.0384 95.1745L1.2885 92.4865Z" fill="#455A64"/>
<g opacity="0.3">
<path d="M1.28898 92.4845C1.09436 92.4585 0.90683 92.3941 0.737238 92.2951C0.567647 92.1962 0.41936 92.0645 0.300954 91.9079C0.182548 91.7513 0.0963725 91.5727 0.0474104 91.3825C-0.00155167 91.1924 -0.0123284 90.9944 0.0157038 90.8001L1.85489 78.0142C1.88263 77.8547 1.94165 77.7021 2.02853 77.5654C2.11542 77.4288 2.22846 77.3106 2.36117 77.2177C2.49387 77.1249 2.64362 77.0592 2.80181 77.0244C2.95999 76.9896 3.12349 76.9864 3.2829 77.015L4.48545 77.1875C4.7199 77.2245 4.96006 77.1953 5.1788 77.1032C5.39754 77.011 5.58616 76.8595 5.72336 76.6658L6.05936 76.1794C6.19746 75.9869 6.38636 75.8366 6.60496 75.7453C6.82357 75.6539 7.06326 75.6252 7.29727 75.6622L13.0049 76.4801C13.2194 76.5111 13.4231 76.5942 13.598 76.7222C13.773 76.8501 13.9139 77.019 14.0085 77.214L14.2252 77.7003C14.3161 77.8971 14.4554 78.0677 14.6301 78.1961C14.8049 78.3244 15.0093 78.4063 15.2243 78.4342L22.5147 79.4732C22.6753 79.4908 22.8308 79.5399 22.9724 79.6176C23.114 79.6954 23.2389 79.8003 23.3399 79.9264C23.4409 80.0524 23.5161 80.1972 23.5611 80.3523C23.6061 80.5074 23.6201 80.6699 23.6023 80.8305L21.7189 93.9125C21.6631 94.3023 21.4548 94.654 21.1397 94.8903C20.8247 95.1266 20.4288 95.2281 20.0389 95.1725L1.28898 92.4845Z" fill="black"/>
</g>
<path d="M14.5168 78.3342L9.89233 77.6578L9.58727 76.8222C9.48383 76.5503 9.30884 76.3115 9.08081 76.131C8.85278 75.9504 8.5802 75.8348 8.29188 75.7965L3.76467 75.1466C3.39181 75.081 3.00819 75.1662 2.69813 75.3834C2.38807 75.6007 2.17695 75.9321 2.11117 76.3049L2.03601 76.8222L0.0376703 90.7089C-0.00706443 91.1364 0.118776 91.5644 0.387836 91.8997C0.656897 92.235 1.04743 92.4505 1.47453 92.4994L19.8531 95.1521C20.2781 95.2252 20.7148 95.1266 21.0671 94.8778C21.4194 94.6291 21.6586 94.2507 21.7321 93.8258L23.6199 80.7083C23.6607 80.4308 23.5909 80.1483 23.4255 79.9218C23.2602 79.6952 23.0124 79.5426 22.7357 79.4969L14.5168 78.3342Z" fill="#36BC6C"/>
<path d="M18.2352 84.0453L7.29492 82.4727L6.63316 87.0763L17.5735 88.649L18.2352 84.0453Z" fill="white"/>
<path d="M16.2498 85.8322C16.2498 85.872 14.5565 85.6642 12.483 85.3636C10.4095 85.0629 8.72947 84.7888 8.7339 84.749C8.73832 84.7092 10.4272 84.917 12.5051 85.2177C14.583 85.5183 16.2586 85.788 16.2498 85.8322Z" fill="#263238"/>
<path d="M16.1087 86.8105C16.1087 86.8548 14.4154 86.6425 12.3419 86.3684C10.2684 86.0943 8.58836 85.7937 8.59278 85.7539C8.5972 85.7141 10.2861 85.9219 12.364 86.2181C14.4419 86.5143 16.1175 86.7708 16.1087 86.8105Z" fill="#263238"/>
<path d="M24.774 75.4514C24.6442 75.4733 24.5113 75.4688 24.3833 75.438C24.2553 75.4073 24.1348 75.351 24.0291 75.2726C23.9234 75.1941 23.8347 75.0951 23.7682 74.9815C23.7017 74.8679 23.6588 74.742 23.6422 74.6114L22.4308 66.2113C22.4109 65.9996 22.4747 65.7884 22.6086 65.6231C22.7425 65.4579 22.9358 65.3516 23.147 65.3271L23.934 65.2166C24.0896 65.1959 24.2365 65.1325 24.3583 65.0334C24.48 64.9343 24.5719 64.8033 24.6237 64.6551L24.7431 64.2881C24.7929 64.14 24.8838 64.009 25.0051 63.9104C25.1264 63.8118 25.2731 63.7496 25.4283 63.7311L29.1951 63.1829C29.3357 63.1623 29.4792 63.177 29.6127 63.2256C29.7462 63.2742 29.8655 63.3552 29.96 63.4614L30.1855 63.7267C30.2817 63.8341 30.4034 63.9155 30.5394 63.9634C30.6754 64.0113 30.8213 64.0242 30.9636 64.0008L35.7472 63.3111C35.9582 63.2738 36.1755 63.3217 36.3512 63.4444C36.5269 63.567 36.6468 63.7544 36.6845 63.9654L37.9268 72.5644C37.9622 72.8211 37.8947 73.0813 37.739 73.2883C37.5833 73.4954 37.352 73.6325 37.0956 73.6697L24.774 75.4514Z" fill="#F24D4D"/>
<path d="M30.468 64.0719L27.4263 64.514L27.0815 64.0454C26.9655 63.8934 26.8106 63.7758 26.6331 63.7049C26.4555 63.6341 26.2621 63.6127 26.0734 63.6431L23.098 64.0852C22.9755 64.0984 22.8567 64.1356 22.7486 64.1948C22.6404 64.254 22.545 64.3339 22.4678 64.43C22.3906 64.5261 22.3331 64.6365 22.2987 64.7548C22.2642 64.8732 22.2534 64.9972 22.2669 65.1197L22.3199 65.4646L23.6463 74.5941C23.6703 74.7319 23.7213 74.8636 23.7963 74.9816C23.8714 75.0996 23.9691 75.2016 24.0837 75.2817C24.1984 75.3618 24.3277 75.4185 24.4643 75.4485C24.6009 75.4784 24.7421 75.4811 24.8797 75.4563L36.9626 73.7143C37.243 73.6821 37.4992 73.5404 37.6756 73.3202C37.8519 73.0999 37.9342 72.8189 37.9043 72.5383L36.6576 63.9127C36.6446 63.8214 36.6137 63.7336 36.5666 63.6543C36.5195 63.575 36.4571 63.5058 36.3831 63.4507C36.3091 63.3956 36.225 63.3558 36.1355 63.3334C36.046 63.311 35.953 63.3066 35.8618 63.3203L30.468 64.0719Z" fill="#F24D4D"/>
<path d="M33.8642 66.9881L26.6748 68.0254L27.1111 71.0491L34.3005 70.0118L33.8642 66.9881Z" fill="white"/>
<path d="M32.9531 68.4798C32.9531 68.5063 31.8522 68.6876 30.4905 68.8865C29.1288 69.0855 28.0147 69.2181 28.0103 69.1916C28.0058 69.165 29.1111 68.9838 30.4772 68.7892C31.8434 68.5947 32.9486 68.4532 32.9531 68.4798Z" fill="#263238"/>
<path d="M33.0454 69.1253C33.0454 69.1518 31.9445 69.3331 30.5828 69.5276C29.2211 69.7221 28.107 69.8636 28.1026 69.8371C28.0981 69.8105 29.2034 69.6293 30.5695 69.4347C31.9357 69.2402 33.0409 69.0987 33.0454 69.1253Z" fill="#263238"/>
<path d="M63.393 55.7061L57.6455 59.9459C58.235 61.6524 58.8245 63.3605 59.414 65.07C60.7014 63.8791 61.7217 62.4288 62.4076 60.8147C63.0934 59.2006 63.4293 57.4594 63.393 55.7061Z" fill="#263238"/>
<path d="M50.0551 45.5113C51.6161 44.7274 53.4013 44.5117 55.1041 44.9012C56.794 45.2958 58.4082 45.9633 59.8833 46.8774C60.7476 47.3191 61.5214 47.9189 62.1646 48.6458C63.2698 50.0297 64.3751 52.3109 64.4635 54.0794C64.552 55.5118 64.0214 59.0929 63.3981 60.3927C62.8454 61.582 60.2458 62.4928 58.9769 62.7846L47.2168 49.1056C47.4286 48.3485 47.7885 47.641 48.2758 47.024C48.763 46.407 49.3678 45.8928 50.0551 45.5113Z" fill="#564F52"/>
<path d="M48.0258 47.3546L50.8465 46.8506C49.3035 50.5201 48.888 58.9158 48.0037 62.7975C46.9648 61.2899 44.5508 56.6964 44.6835 54.8705C44.8161 53.0446 44.6702 47.0451 48.0258 47.3546Z" fill="#564F52"/>
<path d="M61.395 53.4651C61.3431 52.4373 60.963 51.4533 60.3105 50.6575C59.6579 49.8617 58.7674 49.2962 57.7697 49.044L51.3016 47.3728C48.4942 47.0722 46.6196 50.5251 46.4384 53.3413C46.2306 56.4715 46.1068 59.7696 46.4737 62.1084C47.2076 66.8036 50.8064 67.4137 50.8064 67.4137V71.0214L52.9816 80.0139L60.2234 72.2018L61.4348 53.527C61.4127 53.443 61.4038 53.5712 61.395 53.4651Z" fill="#FFBF9D"/>
<path d="M47.8267 56.8857C47.8243 57.0429 47.8836 57.1948 47.9919 57.3089C48.1001 57.4229 48.2487 57.49 48.4059 57.4958C48.4825 57.5018 48.5595 57.4924 48.6323 57.4681C48.7052 57.4439 48.7725 57.4053 48.8302 57.3546C48.8879 57.3039 48.9348 57.2421 48.9683 57.173C49.0017 57.1038 49.021 57.0287 49.0249 56.952C49.0261 56.7962 48.967 56.6461 48.8598 56.5331C48.7526 56.4201 48.6057 56.3532 48.4501 56.3463C48.3734 56.339 48.296 56.3474 48.2227 56.3708C48.1493 56.3943 48.0814 56.4324 48.0232 56.4828C47.9649 56.5332 47.9175 56.5949 47.8837 56.6641C47.85 56.7334 47.8306 56.8087 47.8267 56.8857Z" fill="#263238"/>
<path d="M47.1189 55.1791C47.1941 55.2587 47.6495 54.9227 48.2994 54.9227C48.9493 54.9227 49.4223 55.2498 49.4931 55.1747C49.5638 55.0995 49.4489 54.9978 49.2455 54.8431C48.9647 54.6495 48.6316 54.5461 48.2905 54.5469C47.953 54.5464 47.6237 54.6515 47.3488 54.8475C47.1499 55.0023 47.0836 55.157 47.1189 55.1791Z" fill="#263238"/>
<path d="M53.4722 56.8872C53.4709 57.0441 53.5305 57.1954 53.6386 57.3092C53.7466 57.423 53.8946 57.4905 54.0514 57.4973C54.1282 57.5033 54.2054 57.494 54.2785 57.4698C54.3516 57.4456 54.4192 57.407 54.4773 57.3564C54.5353 57.3057 54.5827 57.244 54.6166 57.1749C54.6505 57.1057 54.6703 57.0304 54.6747 56.9535C54.676 56.7971 54.6162 56.6463 54.508 56.5332C54.3999 56.4201 54.2519 56.3536 54.0956 56.3478C54.019 56.3412 53.9419 56.35 53.8688 56.3737C53.7956 56.3974 53.728 56.4355 53.6699 56.4858C53.6118 56.5361 53.5643 56.5975 53.5304 56.6665C53.4964 56.7354 53.4766 56.8105 53.4722 56.8872Z" fill="#263238"/>
<path d="M53.2732 55.1791C53.3484 55.2587 53.8038 54.9227 54.4537 54.9227C55.1036 54.9227 55.5766 55.2543 55.6474 55.1747C55.7181 55.0951 55.6032 54.9978 55.3998 54.8431C55.119 54.6495 54.7859 54.5461 54.4448 54.5469C54.1072 54.5464 53.778 54.6515 53.5031 54.8475C53.3042 55.0023 53.2379 55.157 53.2732 55.1791Z" fill="#263238"/>
<path d="M51.2482 60.2677C50.9063 60.1626 50.553 60.0988 50.196 60.0776C50.028 60.0776 49.8732 60.0245 49.8467 59.914C49.832 59.7429 49.8706 59.5715 49.9572 59.4232C50.1134 59.0224 50.277 58.6024 50.448 58.1632C51.1332 56.3683 51.6284 54.896 51.5577 54.8695C51.4869 54.843 50.8724 56.2754 50.1871 58.066C50.0235 58.5081 49.8644 58.9281 49.7141 59.3304C49.6114 59.5307 49.5817 59.7605 49.6301 59.9803C49.6531 60.039 49.6895 60.0915 49.7363 60.1337C49.7831 60.1758 49.839 60.2066 49.8998 60.2235C49.9902 60.25 50.084 60.2634 50.1783 60.2633C50.5333 60.3106 50.8928 60.3121 51.2482 60.2677Z" fill="#263238"/>
<path d="M57.0091 65.7383C57.0091 65.7383 55.4838 68.9657 50.7842 68.5147V67.4095C52.9739 67.4402 55.1291 66.8616 57.0091 65.7383Z" fill="#FF9A6C"/>
<path d="M53.4768 52.8365C53.5387 53.0133 54.1886 52.9337 54.949 53.0266C55.7095 53.1194 56.324 53.3272 56.4213 53.168C56.4699 53.0929 56.3638 52.9293 56.1162 52.7569C55.7853 52.5476 55.4113 52.4162 55.0222 52.3726C54.6332 52.3289 54.2393 52.3742 53.8703 52.5049C53.5917 52.6154 53.4503 52.7525 53.4768 52.8365Z" fill="#263238"/>
<path d="M47.3226 53.1997C47.4376 53.3456 47.8841 53.1997 48.4191 53.1997C48.954 53.1997 49.4094 53.3014 49.5155 53.1466C49.5597 53.0715 49.489 52.9256 49.29 52.7841C49.0268 52.6151 48.7184 52.5302 48.4058 52.5409C48.0873 52.5447 47.778 52.6483 47.5216 52.8372C47.3447 52.9742 47.2828 53.1245 47.3226 53.1997Z" fill="#263238"/>
<path d="M47.6897 49.0526C47.8558 48.7075 48.1144 48.4152 48.4368 48.2083C48.7591 48.0015 49.1326 47.8882 49.5156 47.881C50.2829 47.883 51.034 48.1022 51.6819 48.5132C54.4761 50.1314 55.9129 54.0352 58.6761 55.7064C59.357 56.1176 60.2412 55.7418 60.8204 56.2856C61.3995 56.8294 61.7709 57.7003 61.4526 58.4298C61.848 57.9374 62.1711 57.391 62.412 56.8072C62.5303 56.5142 62.5845 56.1992 62.5707 55.8834C62.557 55.5677 62.4757 55.2586 62.3324 54.9769C62.0937 54.5613 61.6736 54.2474 61.5587 53.7832C61.5279 53.3644 61.5412 52.9436 61.5985 52.5276C61.5469 52.0992 61.3954 51.6888 61.1564 51.3295C60.1159 49.3767 58.563 47.7443 56.6645 46.6077C55.4132 45.8851 53.9888 45.5167 52.5441 45.5423C51.0929 45.5754 49.7016 46.1275 48.6225 47.0985C48.008 47.6732 47.3581 48.2701 47.6764 49.0526" fill="#564F52"/>
<path d="M60.7539 56.8688C60.8025 56.7317 63.2518 55.8475 63.2828 58.4515C63.3137 60.9804 60.7627 60.4852 60.7583 60.4101C60.7539 60.3349 60.7539 56.8688 60.7539 56.8688Z" fill="#FFBF9D"/>
<path d="M61.5273 59.4471C61.5273 59.4471 61.5715 59.478 61.6466 59.509C61.753 59.552 61.8719 59.552 61.9782 59.509C62.1402 59.4038 62.2713 59.2575 62.3583 59.0851C62.4453 58.9127 62.485 58.7203 62.4734 58.5275C62.477 58.3095 62.4317 58.0935 62.3408 57.8953C62.3168 57.8171 62.2741 57.746 62.2163 57.6882C62.1585 57.6304 62.0874 57.5876 62.0092 57.5637C61.9586 57.5502 61.9049 57.5548 61.8573 57.5765C61.8097 57.5983 61.7712 57.636 61.7483 57.6831C61.7174 57.7582 61.7483 57.8069 61.7174 57.8113C61.6864 57.8157 61.6643 57.7671 61.682 57.6654C61.6963 57.6021 61.7323 57.5458 61.7837 57.5062C61.8175 57.479 61.8565 57.459 61.8983 57.4476C61.9402 57.4362 61.9839 57.4336 62.0269 57.4399C62.1306 57.4591 62.2277 57.5046 62.309 57.5719C62.3902 57.6392 62.4529 57.7262 62.4911 57.8245C62.6005 58.044 62.6552 58.2867 62.6502 58.5319C62.6637 58.7565 62.611 58.9801 62.4986 59.175C62.3862 59.3699 62.2191 59.5275 62.018 59.6284C61.9499 59.6487 61.878 59.6537 61.8077 59.643C61.7374 59.6323 61.6703 59.6062 61.6113 59.5665C61.5317 59.509 61.5184 59.4515 61.5273 59.4471Z" fill="#FF9A6C"/>
<path d="M61.7576 55.5688C61.7049 55.544 61.6546 55.5144 61.6072 55.4804C61.4552 55.3985 61.3076 55.3085 61.1651 55.2107C60.6657 54.8478 60.2076 54.4312 59.799 53.9684C59.2024 53.2777 58.6445 52.5545 58.1278 51.8021C57.5062 50.8787 56.8082 50.0091 56.0411 49.2024C55.6403 48.7987 55.1954 48.4413 54.7147 48.137C54.2586 47.8588 53.7701 47.6376 53.2602 47.4782C52.3961 47.1996 51.487 47.0871 50.581 47.1466C49.9695 47.1834 49.3658 47.3024 48.786 47.5003C48.5782 47.5622 48.4235 47.633 48.3174 47.6727C48.2654 47.6986 48.2105 47.7179 48.1538 47.7302L48.3086 47.6506C48.4147 47.6064 48.565 47.5268 48.7507 47.4561C49.3307 47.2423 49.9379 47.1113 50.5545 47.067C51.4723 46.9928 52.3958 47.0979 53.2735 47.3765C53.7917 47.538 54.2889 47.7606 54.7545 48.0397C55.2478 48.3485 55.7059 48.7102 56.1206 49.1184C56.894 49.9298 57.5952 50.807 58.2163 51.7402C58.7247 52.4944 59.2737 53.2206 59.8609 53.9153C60.2605 54.378 60.7047 54.8 61.1872 55.1754C61.3597 55.308 61.5011 55.3964 61.594 55.4627C61.6533 55.4901 61.7084 55.5258 61.7576 55.5688Z" fill="#455A64"/>
<path d="M61.8148 59.8935C61.939 59.8713 62.0669 59.8973 62.1725 59.9662C62.2781 60.0352 62.3535 60.1418 62.3832 60.2643C62.4128 60.3869 62.3946 60.5162 62.3323 60.6258C62.2699 60.7354 62.1681 60.8171 62.0475 60.8542C61.927 60.8913 61.7968 60.881 61.6836 60.8254C61.5704 60.7698 61.4827 60.6731 61.4384 60.555C61.394 60.437 61.3964 60.3065 61.445 60.1901C61.4936 60.0737 61.5847 59.9803 61.6999 59.9288" fill="white"/>
<path d="M61.6998 59.9294C61.5901 60.0167 61.5099 60.1355 61.4699 60.2698C61.4528 60.3391 61.4527 60.4114 61.4697 60.4807C61.4866 60.55 61.52 60.6141 61.5671 60.6677C61.6235 60.7344 61.6984 60.7829 61.7824 60.8071C61.8663 60.8313 61.9556 60.8301 62.0388 60.8036C62.1221 60.7771 62.1956 60.7265 62.2501 60.6583C62.3047 60.59 62.3378 60.5072 62.3453 60.4201C62.3532 60.3497 62.3441 60.2784 62.3187 60.2122C62.2933 60.146 62.2524 60.0869 62.1994 60.0399C62.0883 59.9545 61.9545 59.9037 61.8147 59.894C61.8504 59.8719 61.8925 59.8626 61.9341 59.8675C62.0059 59.8685 62.0768 59.8842 62.1423 59.9136C62.2078 59.943 62.2666 59.9856 62.3151 60.0386C62.3636 60.0916 62.4006 60.154 62.4241 60.2219C62.4475 60.2898 62.4568 60.3618 62.4514 60.4334C62.4449 60.5422 62.4056 60.6465 62.3386 60.7325C62.2717 60.8185 62.1803 60.8822 62.0764 60.9152C61.9725 60.9483 61.8611 60.9491 61.7568 60.9175C61.6524 60.8859 61.5601 60.8235 61.492 60.7384C61.4448 60.6838 61.4096 60.62 61.3886 60.5509C61.3676 60.4819 61.3613 60.4093 61.37 60.3377C61.3788 60.2661 61.4024 60.1971 61.4394 60.1351C61.4764 60.0732 61.5259 60.0197 61.5848 59.978C61.6511 59.9338 61.6954 59.925 61.6998 59.9294Z" fill="#263238"/>
<path d="M61.1209 56.2844C61.2209 56.9722 61.1354 57.6743 60.8733 58.3181C60.555 58.9326 59.7503 59.3482 59.1491 59.0034C58.6583 58.7248 58.5124 58.1191 58.4284 57.54C58.1897 55.9263 58.0792 54.2993 57.8271 52.6768L61.1209 56.2844Z" fill="#564F52"/>
<path d="M48.313 47.8503C48.313 47.8503 48.534 47.8061 48.9408 47.7928C49.5138 47.785 50.0829 47.8886 50.6164 48.0979C50.9836 48.2406 51.3347 48.4213 51.6642 48.6373C52.0407 48.8921 52.4023 49.1681 52.7474 49.464C53.5418 50.1389 54.2527 50.9062 54.8651 51.7497C55.1834 52.1918 55.4708 52.6649 55.7758 53.0761C56.0701 53.4939 56.4112 53.8766 56.7927 54.2167C57.4482 54.7719 58.1646 55.251 58.9281 55.6447C59.578 55.9896 60.1174 56.2283 60.4887 56.3919L60.9308 56.5776C60.9803 56.6009 61.0322 56.6186 61.0856 56.6306C61.0424 56.5976 60.9948 56.5708 60.9441 56.5511L60.5241 56.3433C60.1571 56.162 59.6399 55.9012 58.9856 55.5563C58.2359 55.1544 57.5318 54.6726 56.8855 54.1195C56.5154 53.7837 56.1846 53.4069 55.8996 52.9965C55.599 52.5544 55.3116 52.1123 54.9889 51.6481C54.3708 50.7955 53.649 50.0233 52.8402 49.3491C52.4932 49.0512 52.1269 48.7765 51.7438 48.5267C51.4062 48.3099 51.0459 48.1305 50.6694 47.9918C50.1243 47.7835 49.5411 47.693 48.9585 47.7265C48.801 47.7359 48.6444 47.7566 48.4898 47.7884C48.4284 47.8012 48.369 47.822 48.313 47.8503Z" fill="#455A64"/>
<path d="M61.1914 54.7158C61.2591 54.7762 61.3351 54.8268 61.4169 54.8661L62.0535 55.2419L62.2702 55.3657C62.3553 55.4162 62.4503 55.4478 62.5487 55.4585C62.6091 55.4662 62.6702 55.4521 62.7211 55.4188C62.748 55.3993 62.7703 55.3742 62.7863 55.3451C62.8024 55.3161 62.8118 55.2839 62.814 55.2508C62.8077 55.1349 62.7661 55.0238 62.6946 54.9324L61.9518 53.7432L61.8502 53.836C62.0955 54.0169 62.3709 54.1531 62.6636 54.2383C62.9567 54.3291 63.2637 54.3665 63.57 54.3488C63.648 54.3458 63.7253 54.3324 63.7999 54.3091C63.8425 54.2954 63.8818 54.273 63.9153 54.2433C63.9487 54.2136 63.9757 54.1773 63.9944 54.1366C64.0101 54.0938 64.0143 54.0475 64.0065 54.0025C63.9988 53.9575 63.9794 53.9153 63.9502 53.8802C63.9075 53.8233 63.8602 53.7701 63.8087 53.721C63.475 53.3994 63.1851 53.0352 62.9466 52.6379C62.736 52.2625 62.5527 51.8725 62.3984 51.4707C62.4086 51.5874 62.4354 51.702 62.478 51.8111C62.5763 52.1173 62.7037 52.4133 62.8582 52.6953C63.0913 53.1098 63.3799 53.4906 63.7159 53.8272C63.8087 53.9156 63.906 54.0173 63.8662 54.0968C63.8264 54.1764 63.6938 54.2162 63.5611 54.2162C63.2716 54.23 62.9817 54.1956 62.7034 54.1145C62.4264 54.0324 62.166 53.9022 61.9342 53.7299L61.6335 53.5133L61.8325 53.8272L62.5929 55.0076C62.6523 55.0759 62.6894 55.1607 62.699 55.2508C62.6975 55.2679 62.6923 55.2846 62.684 55.2996C62.6756 55.3147 62.6642 55.3278 62.6505 55.3382C62.6367 55.3486 62.621 55.3561 62.6042 55.36C62.5875 55.364 62.57 55.3644 62.5531 55.3613C62.3959 55.3261 62.2462 55.2632 62.111 55.1756L61.4523 54.8352C61.3702 54.7854 61.2827 54.7453 61.1914 54.7158Z" fill="#455A64"/>
<path d="M53.7106 61.4631C53.6638 61.2684 53.549 61.0968 53.3869 60.9793C53.2248 60.8617 53.026 60.806 52.8264 60.822C52.682 60.8402 52.5443 60.8936 52.4255 60.9777C52.3068 61.0617 52.2106 61.1738 52.1455 61.3039C52.0822 61.4355 52.0461 61.5785 52.0393 61.7243C52.0324 61.8702 52.055 62.0159 52.1057 62.1528V62.2103C52.2398 62.3566 52.4161 62.4577 52.6101 62.4997C52.804 62.5416 53.0063 62.5224 53.1889 62.4446C53.375 62.3653 53.5283 62.2247 53.6232 62.0461C53.7182 61.8675 53.749 61.6617 53.7106 61.4631Z" fill="#FF9A6C"/>
<path d="M51.6637 62.2309C51.6637 62.1292 52.318 62.1602 52.8131 61.6252C53.3083 61.0903 53.2553 60.3873 53.3569 60.3829C53.4586 60.3785 53.4763 60.5465 53.4719 60.825C53.4576 61.2084 53.3089 61.5746 53.0519 61.8595C52.8046 62.1331 52.4605 62.2995 52.0925 62.3238C51.8184 62.3503 51.6592 62.2707 51.6637 62.2309Z" fill="#263238"/>
<path d="M41.6769 112.452C42.2649 109.406 44.1527 99.1532 44.1527 97.0797C44.1527 96.7393 43.6222 95.6738 43.5249 95.3422C42.9723 93.4942 41.0535 86.6857 41.4824 83.0957C41.8272 80.2264 44.2544 76.5569 44.9839 74.5939C45.3243 73.6699 48.0521 72.7194 48.9629 72.3391L50.8949 69.6113C50.8949 69.6113 50.4528 70.8802 52.1814 72.0208C53.1006 72.6143 54.1837 72.9021 55.2762 72.8432C56.3655 72.7933 57.4328 72.519 58.4112 72.0374C59.3895 71.5559 60.2579 70.8774 60.9618 70.0446L61.2801 70.2922C67.5227 72.3038 67.4696 72.3171 68.6545 72.8211C70.1975 73.471 65.3077 89.3074 65.3077 89.3074C65.3077 89.3074 62.4207 100.002 63.9814 103.318C64.8656 105.184 67.8101 108.265 68.5572 109.998C68.5572 109.998 69.857 111.815 69.8836 112.271C69.9101 112.726 62.1953 116.068 56.1074 116.409C44.8601 117.054 41.6769 112.452 41.6769 112.452Z" fill="#F5F5F5"/>
<path d="M88.5761 140.251H42.4109C41.4928 140.251 40.7485 140.995 40.7485 141.913V151.476C40.7485 152.394 41.4928 153.139 42.4109 153.139H88.5761C89.4942 153.139 90.2385 152.394 90.2385 151.476V141.913C90.2385 140.995 89.4942 140.251 88.5761 140.251Z" fill="#8F969A"/>
<path d="M84.654 143.329H63.3354C63.162 143.329 63.0215 143.47 63.0215 143.643V150.292C63.0215 150.466 63.162 150.606 63.3354 150.606H84.654C84.8273 150.606 84.9679 150.466 84.9679 150.292V143.643C84.9679 143.47 84.8273 143.329 84.654 143.329Z" fill="white"/>
<path d="M52.031 149.602C53.4862 149.602 54.666 148.422 54.666 146.967C54.666 145.512 53.4862 144.332 52.031 144.332C50.5757 144.332 49.396 145.512 49.396 146.967C49.396 148.422 50.5757 149.602 52.031 149.602Z" fill="#263238"/>
<path d="M52.0313 150.044C51.4192 150.044 50.8209 149.863 50.3119 149.522C49.803 149.182 49.4063 148.699 49.1721 148.134C48.9379 147.568 48.8766 146.946 48.996 146.346C49.1154 145.745 49.4102 145.194 49.843 144.761C50.2758 144.328 50.8272 144.033 51.4275 143.914C52.0279 143.795 52.6501 143.856 53.2156 144.09C53.7811 144.324 54.2645 144.721 54.6045 145.23C54.9446 145.739 55.1261 146.337 55.1261 146.949C55.1261 147.77 54.8 148.557 54.2196 149.138C53.6393 149.718 52.8521 150.044 52.0313 150.044ZM52.0313 144.774C51.5941 144.774 51.1667 144.904 50.8032 145.147C50.4397 145.39 50.1563 145.735 49.989 146.139C49.8217 146.543 49.7779 146.987 49.8632 147.416C49.9485 147.845 50.1591 148.239 50.4682 148.548C50.7774 148.857 51.1712 149.067 51.6 149.153C52.0288 149.238 52.4733 149.194 52.8772 149.027C53.2812 148.86 53.6264 148.576 53.8693 148.213C54.1122 147.849 54.2419 147.422 54.2419 146.985C54.2419 146.398 54.009 145.836 53.5944 145.422C53.1798 145.007 52.6176 144.774 52.0313 144.774Z" fill="#E0E0E0"/>
<path d="M65.3163 144.57C65.4684 146.188 65.4684 147.816 65.3163 149.434C65.1641 147.816 65.1641 146.188 65.3163 144.57Z" fill="#E0E0E0"/>
<path d="M67.452 144.57C67.6041 146.188 67.6041 147.816 67.452 149.434C67.2999 147.816 67.2999 146.188 67.452 144.57Z" fill="#E0E0E0"/>
<path d="M69.5873 144.57C69.7394 146.188 69.7394 147.816 69.5873 149.434C69.4351 147.816 69.4351 146.188 69.5873 144.57Z" fill="#E0E0E0"/>
<path d="M71.7225 144.57C71.8747 146.188 71.8747 147.816 71.7225 149.434C71.5704 147.816 71.5704 146.188 71.7225 144.57Z" fill="#E0E0E0"/>
<path d="M73.849 144.57C74.0011 146.188 74.0011 147.816 73.849 149.434C73.6968 147.816 73.6968 146.188 73.849 144.57Z" fill="#E0E0E0"/>
<path d="M75.9935 144.57C76.1457 146.188 76.1457 147.816 75.9935 149.434C75.8414 147.816 75.8414 146.188 75.9935 144.57Z" fill="#E0E0E0"/>
<path d="M78.1288 144.57C78.2809 146.188 78.2809 147.816 78.1288 149.434C77.9766 147.816 77.9766 146.188 78.1288 144.57Z" fill="#E0E0E0"/>
<path d="M80.2596 144.57C80.4118 146.188 80.4118 147.816 80.2596 149.434C80.1075 147.816 80.1075 146.188 80.2596 144.57Z" fill="#E0E0E0"/>
<path d="M82.3949 144.57C82.547 146.188 82.547 147.816 82.3949 149.434C82.2427 147.816 82.2427 146.188 82.3949 144.57Z" fill="#E0E0E0"/>
<path d="M88.5761 127.846H42.4109C41.4928 127.846 40.7485 128.59 40.7485 129.508V139.071C40.7485 139.989 41.4928 140.733 42.4109 140.733H88.5761C89.4942 140.733 90.2385 139.989 90.2385 139.071V129.508C90.2385 128.59 89.4942 127.846 88.5761 127.846Z" fill="#36BC6C"/>
<path d="M84.654 130.919H63.3354C63.162 130.919 63.0215 131.059 63.0215 131.233V137.882C63.0215 138.056 63.162 138.196 63.3354 138.196H84.654C84.8273 138.196 84.9679 138.056 84.9679 137.882V131.233C84.9679 131.059 84.8273 130.919 84.654 130.919Z" fill="white"/>
<path d="M52.031 137.192C53.4862 137.192 54.666 136.012 54.666 134.557C54.666 133.102 53.4862 131.922 52.031 131.922C50.5757 131.922 49.396 133.102 49.396 134.557C49.396 136.012 50.5757 137.192 52.031 137.192Z" fill="#263238"/>
<path d="M52.0313 137.635C51.4192 137.635 50.8209 137.453 50.3119 137.113C49.803 136.773 49.4063 136.29 49.1721 135.724C48.9379 135.159 48.8766 134.537 48.996 133.936C49.1154 133.336 49.4102 132.785 49.843 132.352C50.2758 131.919 50.8272 131.624 51.4275 131.505C52.0279 131.385 52.6501 131.447 53.2156 131.681C53.7811 131.915 54.2645 132.312 54.6045 132.821C54.9446 133.33 55.1261 133.928 55.1261 134.54C55.1261 135.361 54.8 136.148 54.2196 136.728C53.6393 137.309 52.8521 137.635 52.0313 137.635ZM52.0313 132.369C51.5932 132.369 51.1649 132.5 50.8009 132.743C50.4369 132.987 50.1536 133.334 49.987 133.739C49.8203 134.144 49.7779 134.59 49.865 135.019C49.9521 135.449 50.1648 135.843 50.4762 136.151C50.7876 136.459 51.1835 136.668 51.6138 136.751C52.044 136.833 52.4892 136.786 52.8927 136.616C53.2962 136.445 53.6399 136.158 53.8801 135.792C54.1203 135.425 54.2462 134.996 54.2419 134.558C54.236 133.975 54.0006 133.419 53.5866 133.009C53.1727 132.599 52.6138 132.369 52.0313 132.369Z" fill="#E0E0E0"/>
<path d="M65.3165 132.165C65.4689 133.783 65.4689 135.411 65.3165 137.028C65.164 135.411 65.164 133.783 65.3165 132.165Z" fill="#E0E0E0"/>
<path d="M67.4522 132.165C67.6046 133.783 67.6046 135.411 67.4522 137.028C67.2998 135.411 67.2998 133.783 67.4522 132.165Z" fill="#E0E0E0"/>
<path d="M69.5875 132.165C69.7399 133.783 69.7399 135.411 69.5875 137.028C69.435 135.411 69.435 133.783 69.5875 132.165Z" fill="#E0E0E0"/>
<path d="M71.7227 132.165C71.8752 133.783 71.8752 135.411 71.7227 137.028C71.5703 135.411 71.5703 133.783 71.7227 132.165Z" fill="#E0E0E0"/>
<path d="M73.8492 132.165C74.0016 133.783 74.0016 135.411 73.8492 137.028C73.6968 135.411 73.6968 133.783 73.8492 132.165Z" fill="#E0E0E0"/>
<path d="M75.9937 132.165C76.1462 133.783 76.1462 135.411 75.9937 137.028C75.8413 135.411 75.8413 133.783 75.9937 132.165Z" fill="#E0E0E0"/>
<path d="M78.129 132.165C78.2814 133.783 78.2814 135.411 78.129 137.028C77.9765 135.411 77.9765 133.783 78.129 132.165Z" fill="#E0E0E0"/>
<path d="M80.2598 132.165C80.4123 133.783 80.4123 135.411 80.2598 137.028C80.1074 135.411 80.1074 133.783 80.2598 132.165Z" fill="#E0E0E0"/>
<path d="M82.3951 132.165C82.5475 133.783 82.5475 135.411 82.3951 137.028C82.2427 135.411 82.2427 133.783 82.3951 132.165Z" fill="#E0E0E0"/>
<path d="M88.5761 153.21H42.4109C41.4928 153.21 40.7485 153.954 40.7485 154.872V164.435C40.7485 165.353 41.4928 166.097 42.4109 166.097H88.5761C89.4942 166.097 90.2385 165.353 90.2385 164.435V154.872C90.2385 153.954 89.4942 153.21 88.5761 153.21Z" fill="#263238"/>
<path d="M84.654 156.287H63.3354C63.162 156.287 63.0215 156.428 63.0215 156.601V163.25C63.0215 163.424 63.162 163.564 63.3354 163.564H84.654C84.8273 163.564 84.9679 163.424 84.9679 163.25V156.601C84.9679 156.428 84.8273 156.287 84.654 156.287Z" fill="white"/>
<path d="M54.6662 159.939C54.6662 159.414 54.5106 158.901 54.2191 158.465C53.9276 158.029 53.5134 157.689 53.0286 157.488C52.5439 157.287 52.0106 157.235 51.496 157.337C50.9814 157.439 50.5088 157.692 50.1378 158.063C49.7668 158.434 49.5142 158.907 49.4118 159.421C49.3095 159.936 49.362 160.469 49.5628 160.954C49.7635 161.439 50.1035 161.853 50.5398 162.144C50.976 162.436 51.4889 162.591 52.0135 162.591C52.717 162.591 53.3918 162.312 53.8892 161.815C54.3867 161.317 54.6662 160.642 54.6662 159.939Z" fill="#263238"/>
<path d="M52.0313 163.003C51.4192 163.003 50.8209 162.822 50.3119 162.481C49.803 162.141 49.4063 161.658 49.1721 161.093C48.9379 160.527 48.8766 159.905 48.996 159.304C49.1154 158.704 49.4102 158.153 49.843 157.72C50.2758 157.287 50.8272 156.992 51.4275 156.873C52.0279 156.754 52.6501 156.815 53.2156 157.049C53.7811 157.283 54.2645 157.68 54.6045 158.189C54.9446 158.698 55.1261 159.296 55.1261 159.908C55.1261 160.729 54.8 161.516 54.2196 162.097C53.6393 162.677 52.8521 163.003 52.0313 163.003ZM52.0313 157.733C51.5941 157.733 51.1667 157.863 50.8032 158.106C50.4397 158.349 50.1563 158.694 49.989 159.098C49.8217 159.502 49.7779 159.946 49.8632 160.375C49.9485 160.804 50.1591 161.198 50.4682 161.507C50.7774 161.816 51.1712 162.026 51.6 162.112C52.0288 162.197 52.4733 162.153 52.8772 161.986C53.2812 161.819 53.6264 161.535 53.8693 161.172C54.1122 160.808 54.2419 160.381 54.2419 159.944C54.2424 159.653 54.1857 159.365 54.0749 159.096C53.964 158.828 53.8013 158.583 53.596 158.378C53.3906 158.172 53.1468 158.009 52.8783 157.897C52.6098 157.786 52.322 157.729 52.0313 157.729V157.733Z" fill="#F5F5F5"/>
<path d="M65.3165 157.528C65.4689 159.146 65.4689 160.774 65.3165 162.392C65.164 160.774 65.164 159.146 65.3165 157.528Z" fill="#E0E0E0"/>
<path d="M67.4522 157.528C67.6046 159.146 67.6046 160.774 67.4522 162.392C67.2998 160.774 67.2998 159.146 67.4522 157.528Z" fill="#E0E0E0"/>
<path d="M69.5875 157.528C69.7399 159.146 69.7399 160.774 69.5875 162.392C69.435 160.774 69.435 159.146 69.5875 157.528Z" fill="#E0E0E0"/>
<path d="M71.7227 157.528C71.8752 159.146 71.8752 160.774 71.7227 162.392C71.5703 160.774 71.5703 159.146 71.7227 157.528Z" fill="#E0E0E0"/>
<path d="M73.8492 157.528C74.0016 159.146 74.0016 160.774 73.8492 162.392C73.6968 160.774 73.6968 159.146 73.8492 157.528Z" fill="#E0E0E0"/>
<path d="M75.9937 157.528C76.1462 159.146 76.1462 160.774 75.9937 162.392C75.8413 160.774 75.8413 159.146 75.9937 157.528Z" fill="#E0E0E0"/>
<path d="M78.129 157.528C78.2814 159.146 78.2814 160.774 78.129 162.392C77.9765 160.774 77.9765 159.146 78.129 157.528Z" fill="#E0E0E0"/>
<path d="M80.2598 157.528C80.4123 159.146 80.4123 160.774 80.2598 162.392C80.1074 160.774 80.1074 159.146 80.2598 157.528Z" fill="#E0E0E0"/>
<path d="M82.3951 157.528C82.5475 159.146 82.5475 160.774 82.3951 162.392C82.2427 160.774 82.2427 159.146 82.3951 157.528Z" fill="#E0E0E0"/>
<path d="M17.0068 140.097L13.3417 148.002C13.3417 148.002 4.19 146.79 3.36768 148.187L18.3331 155.986L24.5492 143.894L17.0068 140.097Z" fill="#003FA4"/>
<path d="M18.2229 149.699C18.3459 149.819 18.421 149.979 18.434 150.15C18.447 150.321 18.3971 150.491 18.2936 150.628C18.1789 150.755 18.0197 150.834 17.8487 150.848C17.6778 150.862 17.5079 150.81 17.374 150.703C17.2434 150.577 17.1643 150.406 17.1521 150.225C17.1398 150.044 17.1953 149.864 17.3077 149.722C17.4402 149.602 17.614 149.537 17.7927 149.542C17.9714 149.547 18.1414 149.621 18.2671 149.748" fill="#E0E0E0"/>
<path d="M18.3332 155.995L18.8284 155.031L4.15473 147.754C3.98245 147.77 3.81529 147.822 3.66333 147.904C3.51136 147.987 3.37774 148.1 3.27051 148.236L18.3332 155.995Z" fill="#263238"/>
<path d="M13.1787 148.002C13.1434 148.077 13.4971 148.303 13.7402 148.723C13.9834 149.143 14.0232 149.558 14.1027 149.563C14.1823 149.567 14.2929 149.085 13.9922 148.577C13.6916 148.068 13.1964 147.914 13.1787 148.002Z" fill="#263238"/>
<path d="M11.2508 147.838C11.1978 147.905 11.4542 148.192 11.547 148.634C11.6399 149.076 11.547 149.443 11.6178 149.478C11.6885 149.514 11.9538 149.116 11.83 148.594C11.7062 148.073 11.2862 147.772 11.2508 147.838Z" fill="#263238"/>
<path d="M9.37635 149.288C9.43825 149.337 9.73004 149.019 9.7433 148.515C9.75657 148.011 9.49572 147.675 9.43383 147.723C9.37193 147.772 9.47362 148.095 9.45593 148.506C9.43825 148.917 9.30119 149.244 9.37635 149.288Z" fill="#263238"/>
<path d="M14.2213 146.269C14.2213 146.353 14.6104 146.419 15.0171 146.662C15.4239 146.905 15.6803 147.201 15.751 147.157C15.8218 147.113 15.6405 146.689 15.1586 146.41C14.6767 146.132 14.2125 146.189 14.2213 146.269Z" fill="#263238"/>
<path d="M14.8007 144.464C14.8007 144.495 15.0527 144.689 15.5655 144.848C15.8651 144.936 16.1736 144.989 16.4851 145.007C16.6691 145.02 16.8538 145.02 17.0378 145.007C17.1479 145.003 17.2567 144.982 17.3605 144.945C17.4352 144.917 17.4984 144.865 17.5407 144.797C17.583 144.729 17.602 144.649 17.5948 144.57C17.5826 144.499 17.5549 144.433 17.5136 144.375C17.4723 144.316 17.4184 144.268 17.3561 144.234C17.2581 144.185 17.154 144.149 17.0466 144.128C16.865 144.086 16.6801 144.061 16.494 144.052C16.1781 144.037 15.8618 144.071 15.5567 144.154C15.0394 144.304 14.7786 144.521 14.7963 144.548C14.8139 144.574 15.1057 144.441 15.6009 144.357C15.8927 144.306 16.1899 144.293 16.4851 144.318C16.6553 144.333 16.8239 144.362 16.9891 144.406C17.1704 144.446 17.3074 144.512 17.3163 144.605C17.3251 144.698 17.3163 144.654 17.2544 144.68C17.179 144.707 17.1 144.722 17.0201 144.724C16.8485 144.746 16.6756 144.755 16.5028 144.751C16.2059 144.75 15.9097 144.721 15.6186 144.663C15.3509 144.577 15.0776 144.511 14.8007 144.464Z" fill="#263238"/>
<path d="M31.2429 152.812L31.7071 161.517C31.7071 161.517 23.055 164.731 23.0063 166.349L39.8773 166.238L39.7137 152.644L31.2429 152.812Z" fill="#003FA4"/>
<path d="M36.8137 160.729C36.9781 160.776 37.1195 160.881 37.2109 161.026C37.3022 161.17 37.3371 161.343 37.3089 161.512C37.2688 161.678 37.166 161.823 37.022 161.916C36.8779 162.009 36.7036 162.043 36.5352 162.011C36.3601 161.961 36.2097 161.848 36.1133 161.694C36.0169 161.54 35.9813 161.355 36.0135 161.176C36.042 161.088 36.0875 161.007 36.1476 160.937C36.2076 160.868 36.2809 160.811 36.3631 160.77C36.4454 160.728 36.535 160.704 36.6268 160.698C36.7186 160.692 36.8107 160.704 36.8977 160.733" fill="#E0E0E0"/>
<path d="M39.8552 166.238V165.155L23.4971 165.597C23.3493 165.692 23.2228 165.817 23.1254 165.963C23.028 166.109 22.9619 166.273 22.9312 166.446L39.8552 166.238Z" fill="#263238"/>
<path d="M31.5522 161.578C31.5522 161.658 31.9943 161.689 32.3878 161.95C32.7813 162.21 33.0289 162.555 33.104 162.524C33.1792 162.493 33.0466 162.011 32.5381 161.702C32.0297 161.393 31.5345 161.499 31.5522 161.578Z" fill="#263238"/>
<path d="M29.7793 162.347C29.7793 162.427 30.1241 162.564 30.4159 162.909C30.7077 163.254 30.7917 163.625 30.858 163.621C30.9244 163.616 30.9863 163.143 30.6193 162.736C30.2524 162.33 29.7793 162.268 29.7793 162.347Z" fill="#263238"/>
<path d="M28.8029 164.502C28.8781 164.502 28.9886 164.104 28.7676 163.648C28.5465 163.193 28.153 163.025 28.1177 163.096C28.0823 163.166 28.3299 163.401 28.5067 163.776C28.6836 164.152 28.7189 164.497 28.8029 164.502Z" fill="#263238"/>
<path d="M31.6716 159.567C31.707 159.642 32.0872 159.519 32.5558 159.545C33.0245 159.572 33.3958 159.709 33.4401 159.638C33.4843 159.567 33.1217 159.275 32.5558 159.253C31.9899 159.231 31.6274 159.496 31.6716 159.567Z" fill="#263238"/>
<path d="M31.3359 157.692C31.6147 157.772 31.9104 157.772 32.1892 157.692C32.4945 157.633 32.7914 157.536 33.0734 157.405C33.2424 157.328 33.405 157.238 33.5598 157.135C33.6547 157.081 33.7411 157.012 33.8162 156.932C33.8675 156.871 33.8982 156.796 33.9038 156.716C33.9093 156.637 33.8895 156.557 33.8471 156.49C33.8034 156.433 33.7472 156.387 33.6827 156.356C33.6183 156.324 33.5475 156.308 33.4758 156.309C33.3677 156.307 33.2601 156.324 33.1574 156.357C32.9769 156.405 32.8008 156.469 32.6313 156.547C32.3459 156.683 32.0833 156.862 31.8532 157.078C31.4642 157.449 31.3359 157.763 31.3625 157.781C31.389 157.799 31.5879 157.542 31.9858 157.233C32.2174 157.053 32.4715 156.904 32.7419 156.791C32.9001 156.726 33.0626 156.673 33.2282 156.631C33.405 156.583 33.5598 156.578 33.6084 156.658C33.657 156.738 33.6084 156.698 33.6084 156.755C33.5536 156.812 33.4911 156.861 33.4227 156.901C33.2807 156.998 33.133 157.087 32.9806 157.166C32.7192 157.303 32.4453 157.414 32.1627 157.498C31.883 157.544 31.6068 157.609 31.3359 157.692Z" fill="#263238"/>
<path d="M69.8304 111.011C69.8304 111.011 35.2794 106.917 33.2899 106.917C28.6124 106.917 26.4195 110.343 25.721 113.107C25.2037 115.14 14.7964 144.541 14.7964 144.541L22.4759 148.52L33.763 128.457L39.5104 118.447L69.1628 123.028L69.8304 111.011Z" fill="#BBBBBB"/>
<path d="M38.1222 117.495C38.1222 117.495 33.4889 117.495 30.9865 121.2C29.5143 123.38 30.0316 127.275 30.0006 130.215C29.9608 134.216 30.929 158.594 30.929 158.594L40.4079 158.748L42.393 133.345L42.2736 128.645L61.196 127.107C61.196 127.107 62.9202 121.359 58.6848 116.845C58.1366 116.275 38.1222 117.495 38.1222 117.495Z" fill="#BBBBBB"/>
<path d="M69.8217 111.482C69.8217 111.482 72.7706 118.295 68.7871 124.126C66.1345 127.973 61.1077 127.093 61.1077 127.093L54.4053 118.693L59.7548 110.337L69.8217 111.482Z" fill="#263238"/>
<path d="M30.9292 158.611C30.985 158.604 31.0414 158.604 31.0972 158.611H31.5879H33.4758L40.4081 158.686L40.3241 158.766C40.691 153.664 41.1818 146.802 41.7255 139.264C41.9068 136.811 42.0837 134.428 42.2517 132.164C42.2192 130.962 42.1912 129.794 42.1677 128.663V128.548H42.2693C47.6498 128.106 52.2345 127.73 55.4708 127.433C57.0933 127.283 58.3755 127.164 59.2508 127.067C59.6929 127.022 60.0245 126.969 60.2544 126.943C60.3668 126.916 60.4804 126.896 60.5949 126.881C60.4851 126.921 60.3729 126.953 60.2588 126.978C60.0334 127.018 59.6974 127.08 59.2597 127.133C58.3755 127.257 57.1022 127.398 55.4841 127.575C52.2478 127.911 47.6631 128.327 42.287 128.778L42.3843 128.667C42.4167 129.799 42.4477 130.966 42.4771 132.169C42.3136 134.432 42.1367 136.815 41.9599 139.269C41.394 146.785 40.8767 153.664 40.4965 158.766V158.845H40.4169L33.489 158.691L31.6012 158.638L31.0972 158.611H30.9292Z" fill="#455A64"/>
<path d="M61.1074 127.094C61.1074 127.094 61.0676 127.067 60.9836 127.027L60.6078 126.851L59.1488 126.192L53.7683 123.796L45.7838 120.259L41.0665 118.181C40.6553 118.004 40.2574 117.805 39.8153 117.655C39.3843 117.5 38.9405 117.385 38.489 117.31C37.553 117.171 36.6023 117.162 35.6639 117.283C34.7221 117.395 33.8042 117.656 32.9449 118.057C32.5121 118.25 32.1112 118.508 31.7556 118.822C31.4136 119.131 31.1239 119.494 30.8979 119.896C30.4508 120.67 30.1806 121.534 30.1065 122.425C30.0712 122.867 30.1065 123.287 30.1065 123.707C30.1065 124.127 30.1065 124.547 30.1065 124.958C30.1463 128.239 30.1773 131.201 30.2082 133.686C30.2392 136.17 30.2701 138.173 30.2922 139.575C30.2922 140.26 30.2922 140.795 30.3232 141.175V141.591C30.3175 141.638 30.3175 141.685 30.3232 141.732C30.3232 141.732 30.3232 141.683 30.3232 141.591C30.3232 141.498 30.3232 141.347 30.3232 141.171C30.3232 140.795 30.3232 140.26 30.3232 139.57C30.3232 138.173 30.3232 136.161 30.2966 133.686C30.2701 131.21 30.2613 128.239 30.2392 124.954C30.2392 124.547 30.2392 124.132 30.2392 123.707C30.2392 123.283 30.2392 122.858 30.2392 122.443C30.3129 121.578 30.5755 120.741 31.0084 119.989C31.2282 119.604 31.5072 119.257 31.8352 118.959C32.1724 118.662 32.5506 118.415 32.9582 118.225C33.7976 117.837 34.6927 117.584 35.6108 117.473C36.5314 117.352 37.4643 117.36 38.3829 117.496C38.8346 117.565 39.2787 117.678 39.7092 117.832C40.1513 117.973 40.5404 118.181 40.9515 118.353L45.6733 120.418L53.6711 123.915L59.0737 126.254L60.5459 126.882L60.9305 127.041L61.1074 127.094Z" fill="#455A64"/>
<path d="M44.0112 93.0733C44.0035 92.8871 43.9784 92.7021 43.936 92.5206C43.8741 92.1714 43.799 91.6585 43.7282 91.0219C43.6575 90.3852 43.6089 89.6292 43.5956 88.7848C43.5757 86.9512 43.7881 85.1226 44.2278 83.3424C44.4047 82.6152 44.6201 81.898 44.8733 81.1938C45.0855 80.5925 45.28 80.1106 45.4215 79.7834C45.5048 79.6165 45.5714 79.4417 45.6205 79.2617C45.5188 79.4178 45.4301 79.5819 45.3552 79.7525C45.1916 80.0708 44.9794 80.5483 44.7451 81.1495C44.4763 81.8527 44.2461 82.57 44.0554 83.2982C43.5925 85.0893 43.3768 86.9353 43.4143 88.7848C43.4294 89.5392 43.4885 90.2921 43.5912 91.0396C43.6555 91.5434 43.7455 92.0437 43.8609 92.5383C43.8924 92.7213 43.9428 92.9006 44.0112 93.0733Z" fill="#263238"/>
<path d="M50.8948 69.6109V68.2139L49.259 70.8665L45.9167 72.1C44.8689 73.307 41.469 86.924 42.1587 89.1744L43.3436 102.504L39.9614 107.597L45.9962 108.247C45.9962 108.247 47.3005 106.956 46.9777 103.547C46.151 94.913 47.0043 85.0583 47.128 82.8787C47.3226 79.5938 50.8948 69.6109 50.8948 69.6109Z" fill="#003FA4"/>
<path d="M49.241 70.8838C49.241 70.8838 43.7589 72.6788 43.0515 73.7089C41.0973 76.5163 29.346 95.7127 35.0935 101.443C38.8735 105.192 44.1833 97.2778 44.1833 97.2778L49.241 70.8838Z" fill="#003FA4"/>
<path d="M35.8281 93.8113C35.9969 93.7966 36.1641 93.7671 36.3277 93.7229L37.6938 93.4311C38.8522 93.1836 40.4791 92.8387 42.3448 92.5469L42.2476 92.4894C42.4244 92.9315 42.6145 93.4311 42.8046 93.9219C43.2821 95.1377 43.7375 96.2872 44.131 97.2952V97.2112L42.0663 99.8108L41.496 100.545C41.4218 100.628 41.3579 100.72 41.3059 100.819C41.3906 100.747 41.4677 100.667 41.5358 100.58L42.1459 99.8727L44.2592 97.3438L44.2901 97.3084V97.2598C43.9011 96.2474 43.4545 95.0979 42.9638 93.8821C42.7693 93.3913 42.5836 92.9094 42.4023 92.4496L42.3758 92.3789H42.3006C40.4261 92.6707 38.8035 93.0376 37.6496 93.3162C37.0705 93.4532 36.6107 93.577 36.2923 93.6655C36.1337 93.7007 35.9784 93.7495 35.8281 93.8113Z" fill="#263238"/>
<path d="M41.442 92.2954C41.4361 92.091 41.4169 91.8872 41.3845 91.6853C41.3314 91.2432 41.2651 90.6994 41.1811 90.023C40.9302 88.2039 40.8694 86.3636 40.9999 84.532C41.1815 82.7049 41.6954 80.9264 42.5163 79.2841C42.8258 78.6475 43.1043 78.1479 43.2988 77.8075C43.4098 77.6339 43.5074 77.4521 43.5906 77.2637C43.5532 77.3008 43.5205 77.3423 43.4934 77.3875C43.4315 77.4759 43.3431 77.5997 43.2369 77.7677C43.0203 78.0993 42.7241 78.59 42.3969 79.2222C41.5296 80.8713 40.9906 82.6731 40.8098 84.5276C40.6739 86.3727 40.754 88.2274 41.0485 90.0539C41.1458 90.7525 41.243 91.3184 41.3093 91.7074C41.336 91.907 41.3804 92.1038 41.442 92.2954Z" fill="#263238"/>
<path d="M46.3764 89.9916C46.388 89.9184 46.388 89.8438 46.3764 89.7705C46.3764 89.607 46.3454 89.3992 46.3277 89.1427C46.2791 88.5768 46.2084 87.7943 46.1244 86.8394C46.0404 85.8844 45.9166 84.7039 45.7928 83.4218C45.7309 82.7808 45.6646 82.0955 45.5938 81.4058C45.5545 81.058 45.5412 80.7078 45.5541 80.358C45.5587 80.0052 45.658 79.6602 45.8414 79.3588C45.9415 79.1907 46.0831 79.0512 46.2527 78.9537C46.4222 78.8561 46.614 78.8038 46.8096 78.8018H47.1545L46.8671 78.6117L45.4258 77.639L45.4524 77.7584L48.2686 72.9305L49.0688 71.5202L49.2766 71.14C49.303 71.0971 49.3238 71.051 49.3385 71.0029C49.3043 71.0406 49.2746 71.0821 49.2501 71.1267C49.1838 71.224 49.1086 71.3434 49.0158 71.4893L48.1669 72.8731L45.2976 77.6655L45.2534 77.7407L45.3242 77.7893L46.761 78.7664L46.8185 78.594C46.5895 78.5943 46.3645 78.654 46.1654 78.7671C45.9663 78.8802 45.7998 79.0429 45.6823 79.2395C45.4796 79.5681 45.3696 79.9454 45.3639 80.3315C45.3596 80.6935 45.3802 81.0555 45.4258 81.4147C45.501 82.1132 45.5717 82.7896 45.6381 83.4307C45.7751 84.7084 45.9033 85.8667 46.0094 86.8438C46.1155 87.8208 46.2084 88.5768 46.2747 89.1427C46.3056 89.3992 46.3322 89.5849 46.3543 89.7661C46.356 89.8417 46.3634 89.9171 46.3764 89.9916Z" fill="#003FA4"/>
<path d="M60.3871 68.541L62.0229 70.3095L68.1019 72.2282C67.8984 76.6924 67.4186 81.1398 66.6651 85.5446C65.3387 93.0605 64.6048 100.687 64.565 100.806C64.2732 100.249 67.6244 104.852 69.4725 109.37C70.9314 112.907 71.7272 120.334 71.7272 120.334L56.4213 125.012L53.8306 97.265L54.5026 84.4437L60.3871 68.541Z" fill="#003FA4"/>
<path d="M54.5068 91.3143C54.5522 91.2414 54.5906 91.1644 54.6218 91.0844L54.918 90.4168C55.1744 89.8376 55.5502 88.9932 56.0321 87.9675C57.2837 85.2874 58.6708 82.6726 60.188 80.1333L60.6301 79.4392L60.6875 79.3463L60.5859 79.3021L58.8616 78.5903V78.7495C59.417 78.2851 60.0721 77.9552 60.776 77.7857H60.8379V77.7061C60.9458 76.6808 61.1261 75.6643 61.3772 74.6644C61.5895 73.7581 61.7751 72.9578 61.8812 72.2858C61.9691 71.7639 62.0208 71.2366 62.036 70.7075C62.036 70.5218 62.036 70.3803 62.036 70.2875C62.0418 70.239 62.0418 70.1901 62.036 70.1416C62.0117 70.3293 61.9984 70.5183 61.9962 70.7075C61.9599 71.2313 61.892 71.7525 61.7928 72.2682C61.6735 72.9313 61.4789 73.7271 61.2534 74.6334C60.9851 75.6371 60.7944 76.6599 60.6831 77.6929L60.7494 77.6133C60.0187 77.7854 59.3378 78.1244 58.7599 78.6036L58.6406 78.7053L58.782 78.7628L60.5063 79.479L60.4577 79.3419L60.0155 80.036C58.4941 82.5798 57.1198 85.2088 55.8995 87.91C55.4574 88.949 55.0772 89.7978 54.8428 90.3859L54.5776 91.0711C54.5474 91.1501 54.5238 91.2315 54.5068 91.3143Z" fill="#263238"/>
<path d="M67.0722 110.342C67.1117 110.409 67.1576 110.473 67.2093 110.532L67.6116 111.04L69.1104 112.871L69.1502 112.76L61.8774 114.126L61.9747 114.166C61.9349 114.117 61.8951 114.06 61.8597 114.007L59.8305 111.182L59.7686 111.323L65.0076 110.647L66.5284 110.435L66.9352 110.373L67.0811 110.342C67.0811 110.342 67.0369 110.342 66.944 110.342L66.5461 110.377L65.0341 110.536L59.7553 111.146H59.605L59.6934 111.27L61.7139 114.1C61.7536 114.153 61.789 114.21 61.8288 114.259L61.8642 114.308H61.9216L69.1811 112.884H69.2961L69.2209 112.795L67.6602 110.974L67.2181 110.492C67.1253 110.386 67.0722 110.333 67.0722 110.342Z" fill="#263238"/>
<g opacity="0.3">
<path d="M68.2256 113.008L68.7075 113.945L61.8857 115.413L60.1792 111.827L61.8946 114.223L68.2256 113.008Z" fill="black"/>
</g>
<path d="M17.4049 90.9027L21.1408 109.228H53.5387C53.7099 109.228 53.8741 109.16 53.9951 109.039C54.1162 108.918 54.1842 108.754 54.1842 108.583C54.1847 108.498 54.1685 108.413 54.1363 108.334C54.1041 108.256 54.0567 108.184 53.9967 108.123C53.9367 108.063 53.8653 108.015 53.7867 107.982C53.7081 107.95 53.6238 107.933 53.5387 107.933H47.0175L43.5558 90.8939C43.5236 90.735 43.4381 90.5918 43.3135 90.4881C43.1889 90.3844 43.0326 90.3264 42.8705 90.3236L18.1123 90.0539C18.0062 90.0517 17.901 90.0735 17.8045 90.1175C17.7079 90.1615 17.6225 90.2267 17.5546 90.3082C17.4866 90.3898 17.4379 90.4855 17.412 90.5884C17.3861 90.6913 17.3837 90.7987 17.4049 90.9027Z" fill="#E0E0E0"/>
<path d="M17.4055 90.9025C17.4045 90.8848 17.4045 90.8671 17.4055 90.8494C17.4005 90.7935 17.4005 90.7373 17.4055 90.6814C17.4178 90.5717 17.4554 90.4663 17.5152 90.3735C17.575 90.2807 17.6555 90.203 17.7503 90.1465C17.8155 90.1061 17.8874 90.0776 17.9625 90.0625C18.0478 90.0534 18.1337 90.0534 18.219 90.0625H18.8025H20.2615L29.621 90.1509L36.151 90.2172L39.8072 90.2526L41.726 90.2747H42.7031C42.7871 90.2747 42.8666 90.2747 42.9551 90.2747C43.0427 90.2826 43.1281 90.3066 43.2071 90.3454C43.3644 90.4245 43.4894 90.5558 43.5608 90.7168C43.5926 90.7979 43.6149 90.8825 43.6271 90.9688L43.6801 91.2119C43.7111 91.3799 43.7464 91.5435 43.7818 91.7071C43.8481 92.0387 43.9144 92.3747 43.9852 92.7107C44.1178 93.3827 44.2593 94.037 44.3964 94.7488C44.6793 96.1238 44.9623 97.5297 45.2806 98.9666C45.8642 101.84 46.4699 104.829 47.0977 107.906L47.0534 107.871H53.4685C53.5521 107.86 53.6368 107.86 53.7205 107.871C53.8588 107.9 53.9849 107.971 54.0817 108.074C54.1785 108.177 54.2412 108.307 54.2615 108.447C54.2817 108.587 54.2585 108.73 54.195 108.856C54.1314 108.982 54.0306 109.086 53.9062 109.153C53.8124 109.204 53.708 109.233 53.6011 109.237H36.3544H21.1413H21.1104V109.21C19.9653 103.604 19.028 99.0196 18.3958 95.832C18.0775 94.2448 17.8255 93.0113 17.6575 92.1713C17.5735 91.7513 17.5116 91.433 17.4674 91.2164C17.4232 90.9997 17.4055 90.8892 17.4055 90.8892C17.4055 90.8892 17.432 90.9997 17.4806 91.2164C17.5293 91.433 17.5912 91.7513 17.6796 92.1669C17.852 93.0069 18.1217 94.2404 18.4312 95.8232L21.1723 109.21L21.1413 109.179H53.5613C53.6536 109.174 53.7439 109.15 53.8266 109.109C53.9086 109.064 53.9792 109 54.0329 108.924C54.0865 108.847 54.1218 108.759 54.1361 108.666C54.1612 108.512 54.1247 108.353 54.0344 108.224C53.9915 108.161 53.9366 108.108 53.8729 108.066C53.8092 108.024 53.7379 107.995 53.663 107.981C53.5866 107.972 53.5095 107.972 53.4331 107.981H46.9827V107.946L45.17 99.0064C44.8753 97.571 44.5894 96.1636 44.3124 94.7842C44.1753 94.0989 44.0382 93.4181 43.9012 92.7461C43.8305 92.4101 43.7641 92.0785 43.6978 91.7469L43.5961 91.2517L43.5475 91.0042C43.5342 90.9243 43.5135 90.8458 43.4856 90.7698C43.4376 90.6618 43.3622 90.5682 43.2668 90.4984C43.1714 90.4285 43.0593 90.385 42.9418 90.3719H42.6986H41.7172L39.8028 90.3498L36.1466 90.31L29.6166 90.2305L20.2482 90.0846H18.7893H18.2057C18.1221 90.0733 18.0373 90.0733 17.9537 90.0846C17.881 90.101 17.811 90.1278 17.7459 90.1641C17.6531 90.2199 17.574 90.2956 17.5143 90.3859C17.4547 90.4762 17.416 90.5787 17.401 90.6858C17.3979 90.7581 17.3993 90.8304 17.4055 90.9025Z" fill="#263238"/>
<path d="M31.2652 100.361C31.8561 100.361 32.3351 99.8815 32.3351 99.2906C32.3351 98.6997 31.8561 98.2207 31.2652 98.2207C30.6743 98.2207 30.1953 98.6997 30.1953 99.2906C30.1953 99.8815 30.6743 100.361 31.2652 100.361Z" fill="white"/>
<path d="M17.436 91.0527H19.1382L23.7671 91.0748L39.0508 91.181H41.2614H41.8052C41.8978 91.1724 41.9911 91.1724 42.0837 91.181C42.1763 91.2004 42.2647 91.2364 42.3446 91.2871C42.5063 91.3879 42.6246 91.5456 42.6762 91.7292C42.7159 91.9104 42.7469 92.0784 42.7823 92.2509C43.0564 93.6347 43.3172 94.9654 43.5692 96.2299C44.0732 98.7631 44.5242 101.049 44.8956 102.968C45.2669 104.886 45.572 106.438 45.7798 107.517C45.8815 108.052 45.9655 108.467 46.0185 108.75C46.045 108.892 46.0627 108.998 46.076 109.073C46.0893 109.148 46.076 109.184 46.076 109.184L46.0495 109.078C46.0495 109.002 46.0141 108.896 45.9831 108.755C45.9257 108.472 45.8372 108.056 45.7267 107.521C45.5101 106.447 45.1962 104.895 44.8116 102.981C44.4269 101.067 43.9671 98.7808 43.4587 96.2431C43.2067 94.9743 42.9414 93.6435 42.6629 92.2641C42.6275 92.0961 42.5966 91.9149 42.5568 91.7469C42.5144 91.584 42.4117 91.4433 42.2694 91.3534C42.1974 91.3089 42.118 91.2775 42.0351 91.2605C41.9483 91.2535 41.8611 91.2535 41.7742 91.2605H41.2305H39.0199L23.7361 91.1235L19.1028 91.0748H17.8472H17.5156L17.436 91.0527Z" fill="#263238"/>
<path d="M44.4886 103.747C45.0899 102.862 49.2192 100.882 49.2192 100.882L48.2067 100.519L47.0042 100.869C46.8705 101.248 46.6581 101.594 46.3808 101.885C45.8901 102.434 45.2446 101.726 45.2446 101.726L46.005 99.4626L48.4411 98.3662C49.2612 98.5815 50.0686 98.8428 50.8594 99.1487L51.6729 100.09C52.0354 100.449 53.0434 101.824 53.3529 101.899C53.4502 101.899 56.3195 100.984 56.3195 100.984L57.5043 106.245L53.1274 106.62L50.4748 107.027C49.7488 107.233 49.0104 107.392 48.2642 107.505C47.38 107.584 46.8406 107.239 46.876 106.762C46.9113 106.284 47.5789 106.32 47.5789 106.32C48.1803 106.185 48.7713 106.008 49.3474 105.789C49.7681 105.574 50.1305 105.26 50.404 104.874H49.4446C49.4446 104.874 47.3314 105.997 46.5488 106.311C45.7663 106.625 45.7088 105.869 45.6646 105.643C45.6204 105.418 48.1448 103.477 48.1448 103.477C48.1448 103.477 45.8459 104.543 45.4214 104.83C44.997 105.117 44.4134 105.153 44.3162 104.914C44.2189 104.675 43.8873 104.618 44.4886 103.747Z" fill="#FFBF9D"/>
<path d="M55.0335 105.213C55.0335 105.213 55.0335 105.16 55.0645 105.063C55.0695 105.004 55.0695 104.945 55.0645 104.886C55.0707 104.808 55.0707 104.73 55.0645 104.652C54.9933 104.197 54.8293 103.762 54.5826 103.374C54.3433 102.988 54.068 102.625 53.7602 102.291C53.6407 102.146 53.5058 102.014 53.3579 101.897C53.4683 102.051 53.5863 102.198 53.7116 102.34C54.0035 102.681 54.2682 103.044 54.503 103.427C54.745 103.805 54.9131 104.225 54.9981 104.665C55.0196 104.847 55.0314 105.03 55.0335 105.213Z" fill="#FF9A6C"/>
<path d="M49.3169 100.819C49.5328 100.887 49.7642 100.887 49.9801 100.819C50.2035 100.789 50.4121 100.69 50.5769 100.536C50.5769 100.514 50.3072 100.66 49.9624 100.731C49.6175 100.802 49.3213 100.793 49.3169 100.819Z" fill="#FF9A6C"/>
<path d="M48.3745 103.286C48.7218 103.24 49.0638 103.16 49.3958 103.047C49.7358 102.968 50.0686 102.86 50.3905 102.725C50.0442 102.776 49.7026 102.856 49.3693 102.963C49.0297 103.045 48.6971 103.152 48.3745 103.286Z" fill="#FF9A6C"/>
<path d="M50.2803 104.83C50.6315 104.766 50.9773 104.676 51.3148 104.56C51.1338 104.545 50.9518 104.568 50.7799 104.626C50.6012 104.659 50.4311 104.728 50.2803 104.83Z" fill="#FF9A6C"/>
<path d="M48.6714 103.495C48.8019 103.603 48.9165 103.73 49.0118 103.871C49.086 104.022 49.1409 104.183 49.1754 104.348C49.1754 104.348 49.2063 104.291 49.2019 104.193C49.1945 104.063 49.1562 103.937 49.0901 103.824C49.0239 103.712 48.9319 103.617 48.8217 103.548C48.7377 103.499 48.6758 103.486 48.6714 103.495Z" fill="#FF9A6C"/>
<path d="M47.9419 101.969C47.9419 101.991 48.0834 102.101 48.1718 102.309C48.2137 102.439 48.2448 102.572 48.2646 102.707C48.3034 102.64 48.3239 102.564 48.3239 102.486C48.3239 102.408 48.3034 102.332 48.2646 102.265C48.1497 102.022 47.9463 101.942 47.9419 101.969Z" fill="#FF9A6C"/>
<path d="M48.5475 99.4672C48.5475 99.4672 48.5961 99.4363 48.6315 99.3567C48.68 99.2502 48.6969 99.1321 48.6801 99.0163C48.6672 98.9018 48.6228 98.7931 48.5519 98.7024C48.4989 98.6316 48.4502 98.6051 48.4458 98.6139C48.5103 98.7464 48.5593 98.8858 48.5917 99.0295C48.5931 99.1766 48.5783 99.3234 48.5475 99.4672Z" fill="#FF9A6C"/>
<path d="M68.1018 72.2275C68.9883 72.6211 69.7746 73.2094 70.4023 73.9488C71.0299 74.6883 71.4828 75.5597 71.7271 76.4983C71.7271 76.4983 72.3726 78.5055 72.8589 80.7515C74.0305 86.2071 76.1349 95.5047 76.2322 98.2193C76.4179 103.131 72.8633 104.528 70.8694 104.957C68.8755 105.386 56.5052 106.916 56.5052 106.916L54.3389 100.806L66.9523 95.3146C66.9523 95.3146 64.5472 87.0559 63.9902 84.474" fill="#003FA4"/>
<path d="M63.9947 84.475C63.9947 84.475 63.9947 84.5414 64.0521 84.6651C64.1096 84.7889 64.1317 84.9879 64.1936 85.2222C64.3263 85.7262 64.5208 86.4469 64.7684 87.3709C65.2812 89.2366 66.0505 91.9423 67.032 95.2935V95.3598L66.9701 95.3863L54.3964 100.904L54.4539 100.771C55.1466 102.731 55.8687 104.768 56.6203 106.881L56.5009 106.806C59.7195 106.404 63.1326 105.966 66.6694 105.48C68.093 105.276 69.5122 105.095 70.8783 104.834C72.2206 104.575 73.463 103.944 74.4639 103.013C75.3935 102.073 75.9645 100.837 76.0776 99.5201C76.0776 99.3609 76.1174 99.2018 76.1262 99.0426V98.5607C76.1307 98.2434 76.1174 97.926 76.0864 97.6102C76.0157 96.9779 75.9317 96.3546 75.83 95.7356C75.4277 93.2775 74.9458 90.952 74.5037 88.7812C74.0615 86.6104 73.6194 84.5856 73.2215 82.7376C73.0226 81.818 72.8325 80.9382 72.6512 80.107C72.4699 79.2758 72.2621 78.5021 72.0588 77.7815C71.8554 77.0609 71.6609 76.3888 71.4531 75.7876C71.2501 75.2426 70.9686 74.7302 70.6175 74.2667C70.1321 73.6187 69.5329 73.0644 68.8491 72.6309C68.6147 72.485 68.4069 72.3833 68.3008 72.317C68.2348 72.2902 68.1711 72.2576 68.1107 72.2197C68.1793 72.2401 68.2459 72.2668 68.3097 72.2993C68.5027 72.3848 68.6902 72.4823 68.8712 72.5911C69.5705 73.0133 70.1852 73.562 70.6838 74.2092C71.0524 74.6759 71.3504 75.1943 71.568 75.7478C71.7891 76.3579 71.9836 77.0255 72.1958 77.7461C72.408 78.4668 72.6114 79.2449 72.8104 80.0716C73.0093 80.8984 73.1862 81.7826 73.394 82.7243C73.7919 84.5679 74.234 86.5883 74.7203 88.7591C75.2066 90.9299 75.6178 93.2465 76.0599 95.7135C76.1616 96.328 76.2544 96.9558 76.3252 97.5969C76.3562 97.9201 76.3694 98.2449 76.3649 98.5695V99.0603C76.3649 99.2239 76.334 99.3919 76.3163 99.5555C76.2012 100.922 75.6098 102.205 74.6451 103.181C73.6163 104.146 72.3346 104.799 70.9491 105.064C69.5564 105.329 68.1505 105.506 66.7225 105.714C63.1856 106.196 59.7637 106.629 56.5539 107.04H56.4611L56.4346 106.956L54.2771 100.842L54.2417 100.749L54.3345 100.709L66.9568 95.2449L66.9126 95.3377C65.9532 91.9777 65.2061 89.2675 64.702 87.3797C64.4633 86.4424 64.2599 85.7174 64.1671 85.2222C64.1096 84.9746 64.0743 84.7801 64.0477 84.6563C64.0212 84.5325 63.9947 84.475 63.9947 84.475Z" fill="#263238"/>
<path d="M63.4727 82.1258C63.4289 81.9976 63.4051 81.8634 63.402 81.7279C63.3609 81.3654 63.3447 81.0006 63.3533 80.6359C63.3909 78.1964 64.197 75.8309 65.6567 73.876C65.8746 73.5815 66.1124 73.3023 66.3685 73.0404C66.5498 72.8547 66.6515 72.7575 66.6647 72.7707C66.678 72.784 66.3111 73.2128 65.7805 73.9688C65.1095 74.9528 64.5728 76.0218 64.1845 77.1476C63.8014 78.2759 63.5724 79.4508 63.5037 80.6403C63.4639 81.5687 63.5125 82.1258 63.4727 82.1258Z" fill="#263238"/>
</svg>
