<svg width="262" height="172" viewBox="0 0 262 172" fill="none" xmlns="http://www.w3.org/2000/svg">
    <path d="M0 3.817C0.00320555 2.80565 0.406382 1.83664 1.12151 1.12151C1.83665 0.406379 2.80565 0.00320555 3.817 0H174.135C175.147 0.00320555 176.116 0.406379 176.831 1.12151C177.546 1.83664 177.949 2.80565 177.952 3.817V16.1007H0V3.817Z" fill="#676F74"/>
    <path d="M30.8581 11.2689C30.2209 11.2689 29.5981 11.0799 29.0684 10.726C28.5386 10.372 28.1257 9.8689 27.8819 9.28028C27.6381 8.69165 27.5743 8.04395 27.6986 7.41907C27.8229 6.79419 28.1297 6.2202 28.5802 5.76968C29.0307 5.31917 29.6047 5.01237 30.2296 4.88807C30.8545 4.76377 31.5022 4.82757 32.0908 5.07138C32.6795 5.3152 33.1826 5.72809 33.5365 6.25784C33.8905 6.78759 34.0794 7.4104 34.0794 8.04752C34.0794 8.90188 33.74 9.72124 33.1359 10.3254C32.5318 10.9295 31.7124 11.2689 30.8581 11.2689ZM30.8581 5.50083C30.3544 5.50083 29.862 5.65019 29.4432 5.93003C29.0244 6.20986 28.698 6.6076 28.5052 7.07295C28.3125 7.5383 28.262 8.05035 28.3603 8.54436C28.4586 9.03837 28.7011 9.49214 29.0573 9.8483C29.4134 10.2045 29.8672 10.447 30.3612 10.5453C30.8552 10.6435 31.3673 10.5931 31.8326 10.4004C32.298 10.2076 32.6957 9.88119 32.9756 9.46239C33.2554 9.04359 33.4048 8.55121 33.4048 8.04752C33.4032 7.37259 33.1343 6.72576 32.6571 6.24851C32.1798 5.77126 31.533 5.50244 30.8581 5.50083Z" fill="#F0F0F0"/>
    <path d="M20.6284 11.2689C19.9915 11.2677 19.3693 11.0777 18.8403 10.723C18.3114 10.3683 17.8994 9.8648 17.6566 9.27607C17.4137 8.68734 17.3507 8.03983 17.4757 7.41535C17.6007 6.79087 17.908 6.21745 18.3587 5.76754C18.8095 5.31764 19.3835 5.01143 20.0082 4.88763C20.6329 4.76382 21.2803 4.82797 21.8686 5.07197C22.4569 5.31596 22.9596 5.72885 23.3133 6.25846C23.667 6.78808 23.8558 7.41065 23.8558 8.04752C23.8558 8.47106 23.7723 8.89046 23.61 9.28168C23.4477 9.67291 23.2099 10.0283 22.9101 10.3275C22.6104 10.6267 22.2545 10.8639 21.863 11.0254C21.4714 11.1869 21.0519 11.2697 20.6284 11.2689ZM20.6284 5.50083C20.1249 5.50203 19.6332 5.65241 19.2152 5.93298C18.7972 6.21354 18.4717 6.61169 18.2799 7.07715C18.088 7.5426 18.0385 8.05446 18.1374 8.54807C18.2364 9.04168 18.4794 9.49488 18.8358 9.85044C19.1922 10.206 19.646 10.4479 20.1398 10.5457C20.6337 10.6435 21.1454 10.5927 21.6104 10.3998C22.0754 10.2068 22.4728 9.88042 22.7523 9.46175C23.0319 9.04308 23.1811 8.55095 23.1811 8.04752C23.1795 7.37154 22.9099 6.72379 22.4313 6.24637C21.9527 5.76894 21.3043 5.50083 20.6284 5.50083Z" fill="#F0F0F0"/>
    <path d="M10.4047 11.2689C9.76786 11.2677 9.14565 11.0777 8.6167 10.723C8.08775 10.3683 7.67581 9.8648 7.43292 9.27607C7.19004 8.68734 7.12711 8.03983 7.2521 7.41535C7.37708 6.79087 7.68436 6.21745 8.13511 5.76754C8.58587 5.31764 9.15987 5.01143 9.78458 4.88763C10.4093 4.76382 11.0567 4.82797 11.645 5.07197C12.2332 5.31596 12.736 5.72885 13.0897 6.25846C13.4434 6.78808 13.6322 7.41065 13.6322 8.04752C13.6322 8.47106 13.5486 8.89046 13.3864 9.28168C13.2241 9.67291 12.9863 10.0283 12.6865 10.3275C12.3867 10.6267 12.0309 10.8639 11.6394 11.0254C11.2478 11.1869 10.8283 11.2697 10.4047 11.2689ZM10.4047 5.50083C9.90104 5.50083 9.40866 5.65019 8.98986 5.93002C8.57106 6.20986 8.24464 6.6076 8.05189 7.07294C7.85914 7.53829 7.8087 8.05034 7.90697 8.54435C8.00523 9.03836 8.24778 9.49214 8.60394 9.8483C8.96011 10.2045 9.41388 10.447 9.90789 10.5453C10.4019 10.6435 10.914 10.5931 11.3793 10.4004C11.8447 10.2076 12.2424 9.88119 12.5222 9.46239C12.8021 9.04358 12.9514 8.55121 12.9514 8.04752C12.9498 7.37259 12.681 6.72576 12.2037 6.24851C11.7265 5.77126 11.0797 5.50244 10.4047 5.50083Z" fill="#F0F0F0"/>
    <path d="M174.135 133.304H3.817C2.80565 133.301 1.83665 132.898 1.12151 132.183C0.406382 131.467 0.00320555 130.498 0 129.487V16.1016H177.952V129.487C177.949 130.498 177.546 131.467 176.831 132.183C176.116 132.898 175.147 133.301 174.135 133.304Z" fill="#3C464C"/>
    <path d="M176.871 19.3652H1.08203V119.853H176.871V19.3652Z" fill="white"/>
    <path d="M78.9726 27.9775H12.011C10.7321 27.9775 9.69531 29.0143 9.69531 30.2933V39.234C9.69531 40.513 10.7321 41.5498 12.011 41.5498H78.9726C80.2515 41.5498 81.2883 40.513 81.2883 39.234V30.2933C81.2883 29.0143 80.2515 27.9775 78.9726 27.9775Z" fill="#003FA4"/>
    <path d="M165.942 28.5853C166.395 28.5853 166.83 28.7653 167.15 29.0856C167.47 29.4059 167.65 29.8403 167.65 30.2933V39.234C167.65 39.687 167.47 40.1214 167.15 40.4417C166.83 40.762 166.395 40.942 165.942 40.942H98.9808C98.5278 40.942 98.0934 40.762 97.7731 40.4417C97.4528 40.1214 97.2728 39.687 97.2728 39.234V30.2933C97.2728 29.8403 97.4528 29.4059 97.7731 29.0856C98.0934 28.7653 98.5278 28.5853 98.9808 28.5853H165.942ZM165.942 27.9775H98.9808C98.3671 27.9791 97.779 28.2236 97.3451 28.6576C96.9111 29.0915 96.6666 29.6796 96.665 30.2933V39.234C96.665 39.8482 96.909 40.4372 97.3433 40.8715C97.7776 41.3058 98.3666 41.5498 98.9808 41.5498H165.942C166.556 41.5498 167.145 41.3058 167.58 40.8715C168.014 40.4372 168.258 39.8482 168.258 39.234V30.2933C168.256 29.6796 168.012 29.0915 167.578 28.6576C167.144 28.2236 166.556 27.9791 165.942 27.9775Z" fill="#003FA4"/>
    <path d="M21.5961 47.6283C23.8296 47.6283 26.013 48.2906 27.8701 49.5315C29.7272 50.7724 31.1747 52.5361 32.0294 54.5996C32.8842 56.6632 33.1078 58.9338 32.6721 61.1244C32.2363 63.315 31.1608 65.3273 29.5814 66.9066C28.0021 68.486 25.9899 69.5615 23.7992 69.9972C21.6086 70.433 19.338 70.2093 17.2745 69.3546C15.2109 68.4999 13.4472 67.0524 12.2063 65.1953C10.9654 63.3382 10.3031 61.1548 10.3031 58.9213C10.3063 55.9272 11.4972 53.0566 13.6143 50.9395C15.7314 48.8223 18.602 47.6315 21.5961 47.6283ZM21.5961 47.0205C19.2423 47.0205 16.9414 47.7185 14.9844 49.0261C13.0273 50.3338 11.502 52.1925 10.6012 54.367C9.70047 56.5416 9.46479 58.9345 9.92399 61.243C10.3832 63.5515 11.5166 65.672 13.181 67.3364C14.8453 69.0007 16.9658 70.1342 19.2744 70.5934C21.5829 71.0526 23.9757 70.8169 26.1503 69.9161C28.3249 69.0154 30.1835 67.4901 31.4912 65.533C32.7989 63.5759 33.4969 61.275 33.4969 58.9213C33.4969 55.765 32.243 52.738 30.0112 50.5062C27.7794 48.2743 24.7524 47.0205 21.5961 47.0205Z" fill="#36BC6C"/>
    <path opacity="0.4" d="M30.2071 63.6005C29.3639 65.1551 28.1167 66.4531 26.5971 67.3576C25.0774 68.2622 23.3418 68.7396 21.5733 68.7396C19.8048 68.7396 18.0691 68.2622 16.5495 67.3576C15.0299 66.4531 13.7826 65.1551 12.9395 63.6005C15.4948 61.8923 18.4995 60.9805 21.5733 60.9805C24.6471 60.9805 27.6517 61.8923 30.2071 63.6005Z" fill="#36BC6C"/>
    <path opacity="0.4" d="M21.5959 59.935C24.0128 59.935 25.9721 57.9757 25.9721 55.5588C25.9721 53.1419 24.0128 51.1826 21.5959 51.1826C19.179 51.1826 17.2197 53.1419 17.2197 55.5588C17.2197 57.9757 19.179 59.935 21.5959 59.935Z" fill="#36BC6C"/>
    <path opacity="0.4" d="M162.138 65.0417H46.3032C44.6799 65.0417 43.1231 64.3969 41.9753 63.249C40.8275 62.1012 40.1826 60.5444 40.1826 58.9211C40.1826 58.1177 40.341 57.322 40.6486 56.5798C40.9563 55.8376 41.4072 55.1632 41.9757 54.5954C42.5441 54.0275 43.2189 53.5773 43.9614 53.2703C44.7039 52.9634 45.4997 52.8058 46.3032 52.8066H162.138C162.942 52.8058 163.737 52.9634 164.48 53.2703C165.222 53.5773 165.897 54.0275 166.466 54.5954C167.034 55.1632 167.485 55.8376 167.793 56.5798C168.1 57.322 168.259 58.1177 168.259 58.9211C168.259 60.5444 167.614 62.1012 166.466 63.249C165.318 64.3969 163.761 65.0417 162.138 65.0417Z" fill="#BBBBBB"/>
    <path d="M21.5961 80.0775C23.8296 80.0775 26.013 80.7399 27.8701 81.9807C29.7272 83.2216 31.1747 84.9853 32.0294 87.0489C32.8842 89.1124 33.1078 91.383 32.6721 93.5736C32.2363 95.7643 31.1608 97.7765 29.5814 99.3558C28.0021 100.935 25.9899 102.011 23.7992 102.446C21.6086 102.882 19.338 102.659 17.2745 101.804C15.2109 100.949 13.4472 99.5016 12.2063 97.6445C10.9654 95.7874 10.3031 93.604 10.3031 91.3705C10.3047 88.3759 11.495 85.5044 13.6125 83.3869C15.73 81.2694 18.6015 80.0791 21.5961 80.0775ZM21.5961 79.4697C19.2423 79.4697 16.9414 80.1677 14.9844 81.4754C13.0273 82.783 11.502 84.6417 10.6012 86.8163C9.70047 88.9908 9.46479 91.3837 9.92399 93.6922C10.3832 96.0007 11.5166 98.1212 13.181 99.7856C14.8453 101.45 16.9658 102.583 19.2744 103.043C21.5829 103.502 23.9757 103.266 26.1503 102.365C28.3249 101.465 30.1835 99.9393 31.4912 97.9822C32.7989 96.0251 33.4969 93.7242 33.4969 91.3705C33.4969 88.2142 32.243 85.1872 30.0112 82.9554C27.7794 80.7236 24.7524 79.4697 21.5961 79.4697Z" fill="#36BC6C"/>
    <path opacity="0.4" d="M30.2071 96.0143C29.3639 97.5688 28.1167 98.8669 26.5971 99.7714C25.0774 100.676 23.3418 101.153 21.5733 101.153C19.8048 101.153 18.0691 100.676 16.5495 99.7714C15.0299 98.8669 13.7826 97.5688 12.9395 96.0143C15.4963 94.3099 18.5004 93.4004 21.5733 93.4004C24.6461 93.4004 27.6503 94.3099 30.2071 96.0143Z" fill="#36BC6C"/>
    <path opacity="0.4" d="M21.5959 92.3568C24.0128 92.3568 25.9721 90.3976 25.9721 87.9807C25.9721 85.5638 24.0128 83.6045 21.5959 83.6045C19.179 83.6045 17.2197 85.5638 17.2197 87.9807C17.2197 90.3976 19.179 92.3568 21.5959 92.3568Z" fill="#36BC6C"/>
    <path opacity="0.4" d="M46.3032 85.2197H162.138C163.761 85.2197 165.318 85.8646 166.466 87.0124C167.614 88.1602 168.259 89.717 168.259 91.3403C168.259 92.9636 167.614 94.5204 166.466 95.6682C165.318 96.816 163.761 97.4609 162.138 97.4609H46.3032C44.6799 97.4609 43.1231 96.816 41.9753 95.6682C40.8275 94.5204 40.1826 92.9636 40.1826 91.3403C40.1826 89.7186 40.8268 88.1634 41.9735 87.0167C43.1202 85.87 44.6754 85.2258 46.2971 85.2258L46.3032 85.2197Z" fill="#BBBBBB"/>
    <path opacity="0.1" d="M133.607 97.2789C133.606 100.997 133.97 104.706 134.695 108.353C131.296 110.372 128.479 113.238 126.519 116.672C124.56 120.106 123.526 123.989 123.517 127.943C123.505 129.747 123.709 131.547 124.125 133.303H174.135C175.146 133.3 176.115 132.897 176.83 132.182C177.545 131.467 177.949 130.498 177.952 129.486V41.9629C165.376 44.7754 154.133 51.7857 146.073 61.8399C138.013 71.894 133.616 84.3928 133.607 97.2789Z" fill="black"/>
    <path d="M226 135.423C245.746 115.677 245.746 83.6625 226 63.9164C206.254 44.1703 174.239 44.1703 154.493 63.9164C134.747 83.6625 134.747 115.677 154.493 135.423C174.239 155.169 206.254 155.169 226 135.423Z" fill="#003FA4"/>
    <path d="M223.075 132.202C241.076 114.201 241.076 85.0143 223.075 67.0128C205.073 49.0113 175.887 49.0113 157.886 67.0128C139.884 85.0143 139.884 114.201 157.886 132.202C175.887 150.204 205.073 150.203 223.075 132.202Z" fill="#142445"/>
    <path d="M174.929 68.6826L171.987 72.451C171.987 72.451 169.404 74.4081 168.426 76.0978C167.283 77.2283 166.238 78.3892 165.204 79.6109C164.02 81.0078 162.916 82.4709 161.898 83.9932C160.783 85.621 159.861 87.3731 159.151 89.2142C158.701 90.3794 158.452 91.6125 158.415 92.861C158.399 93.7439 158.556 94.6215 158.877 95.4441C159.28 96.4518 159.945 97.3333 160.804 97.9969L161.448 98.4832L162.415 98.6655C164.322 99.028 166.259 99.2193 168.201 99.2368L168.967 99.17L168.176 91.463C167.526 91.463 166.128 91.5907 165.49 91.5785C165.49 91.457 165.539 91.3354 165.569 91.2138C165.954 89.747 166.483 88.3218 167.149 86.9592C167.83 85.4823 168.614 84.0053 169.429 82.5344C170.146 81.2337 170.918 79.927 171.665 78.6506L175.312 76.3531L177.445 72.5665L174.929 68.6826ZM165.441 92.6908C165.436 92.6322 165.436 92.5732 165.441 92.5145C165.467 92.5578 165.486 92.6051 165.496 92.6543C165.514 92.8002 165.472 92.8063 165.441 92.6908Z" fill="#EEC1BB"/>
    <path d="M195.644 76.8272C195.736 76.3592 192.538 74.7546 190.338 76.0614C188.436 77.1919 188.193 78.7357 188.886 80.5774C188.886 80.705 188.934 80.8326 188.952 80.9603C188.995 81.2581 189.031 81.5681 189.05 81.8477C189.189 83.7866 188.679 85.5917 186.497 86.6189C186.497 86.7405 186.199 86.8681 186.102 86.9532C185.294 87.6641 184.778 88.6495 184.655 89.7187C184.655 90.5088 185.403 91.1349 186.272 91.8885L187.488 92.7091L189.153 92.551C194.265 91.0498 196.653 86.3819 196.544 86.0354C195.231 83.8716 195.249 80.079 195.644 76.8272Z" fill="#EEC1BB"/>
    <path d="M206.695 87.9011L205.771 87.7431C204.555 87.5486 199.134 86.3208 196.514 86.0898C195.906 87.3845 193.913 90.545 188.801 92.0463L187.537 92.3441L186.321 91.7363C185.946 91.4654 185.633 91.1167 185.404 90.7139C185.176 90.3111 185.036 89.8638 184.996 89.4024C185.038 88.9277 185.177 88.4667 185.405 88.0484C185.633 87.63 185.945 87.2633 186.321 86.9712C186.366 86.9327 186.401 86.885 186.425 86.8314C186.425 86.6855 186.425 86.5882 186.425 86.5761C186.042 86.6247 181.192 87.3601 180.784 87.427C176.212 88.2718 171.723 89.5186 167.37 91.1528L167.419 91.5905L168.3 99.2427L168.628 102.142C168.628 102.142 171.059 101.868 174.25 101.309C173.381 109.053 173.211 120.273 175.867 134.696L186.242 134.501L204.27 134.167C204.343 132.951 204.209 130.435 204.081 126.995L203.917 121.683C203.82 116.991 203.838 111.35 204.258 105.321C204.324 104.366 204.403 103.406 204.489 102.434C208.172 106.415 211.861 110.22 211.861 110.22L213.606 108.542C215.836 107.466 217.593 105.54 219.124 103.224L221.173 101.248C221.173 101.248 211.679 88.7399 206.695 87.9011Z" fill="#003FA4"/>
    <path opacity="0.3" d="M201.704 99.3096C201.843 100.575 202.247 101.797 202.889 102.896L204.287 105.29C204.354 104.336 204.433 103.376 204.518 102.403C203.558 101.352 202.598 100.312 201.704 99.3096Z" fill="black"/>
    <path opacity="0.3" d="M204.524 102.409C204.439 103.382 204.36 104.342 204.293 105.296C204.354 104.342 204.439 103.376 204.524 102.409Z" fill="black"/>
    <path d="M188.885 80.5781C188.885 80.7058 188.927 80.8334 188.952 80.961C188.952 80.8334 188.909 80.7058 188.885 80.5781Z" fill="#7F3E3B"/>
    <path opacity="0.2" d="M189.05 81.8483C189.05 81.5566 188.996 81.2405 188.953 80.9609C188.996 81.2588 189.032 81.5566 189.05 81.8483Z" fill="black"/>
    <path d="M192.829 79.1377C192.708 79.2228 192.592 79.314 192.465 79.3991C191.401 80.1114 190.163 80.5191 188.885 80.5782C188.885 80.7058 188.927 80.8335 188.952 80.9611C188.994 81.2589 189.031 81.5689 189.049 81.8485C189.049 81.8485 189.049 81.885 189.049 81.9032C190.626 81.5185 191.985 80.5239 192.829 79.1377Z" fill="#7F3E3B"/>
    <path d="M199.655 87.0135C199.602 86.7637 199.478 86.5341 199.3 86.3513C199.121 86.1685 198.895 86.0399 198.646 85.9802L197.382 85.6763C197.224 85.6391 197.058 85.6539 196.909 85.7185C196.76 85.7831 196.636 85.8941 196.556 86.0349L196.513 86.0896C195.905 87.3843 193.912 90.5448 188.8 92.0461L188.405 92.1373L187.536 92.3439L186.32 91.7361C185.945 91.4652 185.632 91.1165 185.403 90.7137C185.174 90.3109 185.035 89.8636 184.995 89.4022C185.037 88.9275 185.176 88.4665 185.404 88.0482C185.632 87.6298 185.944 87.2631 186.32 86.971C186.387 86.9026 186.446 86.8272 186.496 86.7461C186.551 86.6063 186.539 86.5394 186.442 86.4786C185.098 85.5122 182.096 87.0013 181.974 87.2566C181.847 87.3843 181.719 87.518 181.591 87.6699C181.217 88.1112 180.937 88.625 180.77 89.1793C180.602 89.7335 180.551 90.3163 180.619 90.8913C180.746 91.8583 181.089 92.7844 181.622 93.6009C182.155 94.4174 182.866 95.1033 183.701 95.6078C183.728 95.6167 183.758 95.6167 183.786 95.6078C183.817 95.6169 183.851 95.6169 183.883 95.6078C183.909 95.5893 183.931 95.5647 183.945 95.5362C183.96 95.5076 183.968 95.4759 183.968 95.4437C183.971 94.7251 184.185 94.0233 184.586 93.4264C184.986 92.8295 185.553 92.3641 186.217 92.0887L187.281 92.66C182.71 111.417 185.81 133.899 185.895 134.507H186.247C186.247 134.276 183.026 111.599 187.633 92.739L188.745 92.4716C190.04 94.0519 189.426 96.398 189.42 96.4223C189.411 96.4548 189.412 96.489 189.422 96.5211C189.431 96.5533 189.45 96.5822 189.475 96.6046C189.509 96.6326 189.552 96.6477 189.596 96.6472C189.618 96.6534 189.641 96.6534 189.663 96.6472C189.906 96.5378 195.656 94.0215 197.668 91.6206C198.618 90.4733 199.288 89.1208 199.625 87.6699C199.692 87.4574 199.702 87.2313 199.655 87.0135Z" fill="white"/>
    <path opacity="0.2" d="M192.829 79.1377C192.708 79.2228 192.592 79.314 192.465 79.3991C191.401 80.1114 190.163 80.5191 188.885 80.5782C188.885 80.7058 188.927 80.8335 188.952 80.9611C188.994 81.2589 189.031 81.5689 189.049 81.8485C189.049 81.8485 189.049 81.885 189.049 81.9032C190.626 81.5185 191.985 80.5239 192.829 79.1377Z" fill="black"/>
    <path d="M185.323 65.7169C187.699 62.6779 186.192 60.8544 185.183 61.0246C184.229 61.4744 183.323 62.7447 182.855 65.5892C182.743 66.2602 182.727 66.9437 182.807 67.6193C183.785 67.5707 185.323 65.7169 185.323 65.7169Z" fill="#263238"/>
    <path d="M195.285 72.4211C201.868 60.8425 188.867 59.4932 186.217 62.0885C185.323 62.9178 184.57 63.8867 183.986 64.9573L183.433 66.0453C183.204 66.5594 183.001 67.0848 182.825 67.6195C182.157 69.5412 181.808 71.5595 181.792 73.5942C181.788 74.5233 181.97 75.4439 182.327 76.3015C182.685 77.1591 183.21 77.9364 183.873 78.5874C184.536 79.2384 185.323 79.7499 186.187 80.0918C187.051 80.4337 187.974 80.5989 188.903 80.5778C190.182 80.5188 191.42 80.111 192.483 79.3987C192.611 79.3136 192.726 79.2224 192.848 79.1373C193.716 78.5187 194.457 77.7386 195.03 76.8398C196.379 74.6578 196.027 73.5577 195.285 72.4211Z" fill="#EEC1BB"/>
    <path d="M183.099 65.6845C183.059 65.7373 183.041 65.8035 183.049 65.8693C183.057 65.9351 183.09 65.9952 183.141 66.037C183.187 66.072 183.242 66.0913 183.299 66.0917C183.348 66.0904 183.395 66.0733 183.433 66.0431C183.457 66.0324 183.478 66.0156 183.494 65.9944C183.688 65.7379 183.939 65.5294 184.227 65.3851C184.514 65.2407 184.831 65.1643 185.153 65.1618C185.22 65.1651 185.285 65.1421 185.335 65.0978C185.385 65.0535 185.416 64.9914 185.421 64.9247C185.423 64.892 185.419 64.859 185.409 64.8279C185.398 64.7967 185.382 64.7678 185.361 64.743C185.339 64.7181 185.313 64.6978 185.284 64.683C185.254 64.6683 185.222 64.6596 185.19 64.6573C184.766 64.6547 184.348 64.757 183.974 64.9551C183.635 65.1353 183.337 65.3836 183.099 65.6845Z" fill="#263238"/>
    <path d="M189.676 72.967C189.652 72.9443 189.62 72.9316 189.587 72.9316C189.555 72.9316 189.523 72.9443 189.499 72.967C189.083 73.3154 188.594 73.5644 188.067 73.695C187.54 73.8256 186.991 73.8343 186.46 73.7206C186.428 73.7151 186.395 73.7222 186.368 73.7403C186.341 73.7583 186.322 73.7861 186.314 73.8179C186.309 73.8508 186.316 73.8846 186.334 73.9127C186.352 73.9408 186.379 73.9612 186.412 73.9698C186.702 74.0274 186.997 74.0539 187.293 74.0488C188.163 74.0407 189.002 73.7216 189.657 73.1493C189.671 73.1387 189.682 73.1255 189.69 73.1105C189.698 73.0955 189.703 73.079 189.705 73.062C189.707 73.045 189.705 73.0278 189.7 73.0115C189.695 72.9952 189.687 72.98 189.676 72.967Z" fill="#263238"/>
    <path d="M186.41 68.6279C185.605 69.8059 184.647 70.8709 183.56 71.7946C184.167 72.6333 185.48 72.5726 185.48 72.5726L186.41 68.6279Z" fill="#D4827D"/>
    <path d="M184.261 68.7737C184.534 68.8284 184.869 68.5367 184.935 68.1173C185.002 67.6979 184.893 67.3211 184.619 67.2664C184.346 67.2117 184.042 67.5034 183.945 67.9228C183.847 68.3422 183.981 68.719 184.261 68.7737Z" fill="#263238"/>
    <path d="M189.013 69.7454C189.287 69.8001 189.584 69.5083 189.688 69.089C189.791 68.6696 189.639 68.2927 189.366 68.238C189.092 68.1833 188.788 68.4751 188.691 68.8945C188.594 69.3138 188.734 69.6664 189.013 69.7454Z" fill="#263238"/>
    <path d="M199.45 63.1214C202.021 60.9211 196.162 56.4355 196.162 56.4355C196.162 56.4355 196.818 58.0401 195.456 58.4838C194.095 58.9275 184.516 55.3537 184.656 59.4077C184.682 59.979 184.865 60.5321 185.185 61.0062C185.47 61.4141 185.818 61.7733 186.218 62.0699C188.442 63.7596 192.49 64.2762 194.678 64.2762C194.331 65.1228 194.088 66.0087 193.955 66.914C193.788 67.8683 193.819 68.847 194.048 69.7884C194.277 70.7299 194.699 71.6137 195.286 72.3843C196.502 74.4994 198.125 74.4386 199.51 72.828C201.735 70.725 203.881 66.4643 199.45 63.1214Z" fill="#263238"/>
    <path d="M198.33 71.6105C197.321 71.1972 196.184 71.6834 195.291 72.4188C194.8 72.8088 194.376 73.2746 194.032 73.7986C193.175 75.1418 193.479 76.7039 195.017 76.8376H195.284H195.649C196.86 76.7143 197.991 76.1777 198.852 75.3181C199.172 75.0101 199.402 74.6216 199.518 74.1937C199.635 73.7657 199.634 73.3142 199.515 72.8869C199.428 72.5977 199.276 72.3322 199.07 72.111C198.865 71.8897 198.612 71.7185 198.33 71.6105Z" fill="#EEC1BB"/>
    <path d="M175.898 134.666C175.898 134.666 175.734 136.088 175.479 138.477C184.787 141.624 194.856 141.718 204.221 138.744C204.282 135.857 204.325 134.131 204.325 134.131L186.273 134.471H185.921L175.898 134.666Z" fill="#BEC1C3"/>
    <path d="M222.88 110.189C222.828 109.672 222.71 109.163 222.527 108.676C222.44 108.434 222.337 108.198 222.217 107.971L222.041 107.643L221.944 107.472C221.075 105.977 220.12 104.561 219.148 103.218L213.629 108.536C214.358 109.448 215.069 110.359 215.726 111.295C215.604 111.606 215.447 111.902 215.258 112.177C214.374 113.404 213.355 114.528 212.219 115.526C209.839 117.67 207.345 119.684 204.749 121.561L203.904 121.671L200.513 122.133L197.176 124.388L199.37 128.849L202.129 127.439C202.789 127.348 203.438 127.195 204.068 126.983C205.043 126.729 205.893 126.128 206.457 125.293C208.071 124.654 209.652 123.931 211.192 123.129C212.847 122.275 214.451 121.323 215.993 120.279C216.775 119.744 217.549 119.158 218.315 118.522C219.128 117.855 219.881 117.116 220.564 116.316C221.439 115.327 222.112 114.177 222.545 112.93C222.851 112.051 222.965 111.116 222.88 110.189ZM215.775 111.15C215.775 111.119 215.775 111.083 215.775 111.058C215.775 110.913 215.829 110.858 215.829 110.943C215.826 111.014 215.812 111.083 215.787 111.15H215.775Z" fill="#EEC1BB"/>
    <path d="M162.759 128.159C164.235 119.064 158.059 110.494 148.964 109.017C139.868 107.541 131.298 113.717 129.822 122.813C128.345 131.908 134.522 140.478 143.617 141.954C152.712 143.431 161.283 137.254 162.759 128.159Z" fill="#F24E4E"/>
    <path d="M155.449 123.915H147.84V116.305C147.84 115.891 147.675 115.494 147.382 115.201C147.089 114.908 146.692 114.743 146.278 114.743C145.863 114.743 145.466 114.908 145.173 115.201C144.88 115.494 144.716 115.891 144.716 116.305V123.915H137.106C136.692 123.915 136.294 124.079 136.001 124.372C135.709 124.665 135.544 125.063 135.544 125.477C135.544 125.891 135.709 126.289 136.001 126.581C136.294 126.874 136.692 127.039 137.106 127.039H144.716V134.649C144.716 134.854 144.756 135.057 144.835 135.246C144.913 135.436 145.028 135.608 145.173 135.753C145.318 135.898 145.49 136.013 145.68 136.092C145.869 136.17 146.073 136.211 146.278 136.211C146.483 136.211 146.686 136.17 146.875 136.092C147.065 136.013 147.237 135.898 147.382 135.753C147.527 135.608 147.642 135.436 147.721 135.246C147.799 135.057 147.84 134.854 147.84 134.649V127.039H155.449C155.864 127.039 156.261 126.874 156.554 126.581C156.847 126.289 157.012 125.891 157.012 125.477C157.012 125.063 156.847 124.665 156.554 124.372C156.261 124.079 155.864 123.915 155.449 123.915Z" fill="white"/>
    <path d="M189.919 66.5613C190.225 66.6232 190.51 66.7584 190.752 66.9554C190.993 67.1524 191.183 67.4051 191.305 67.6918C191.326 67.7355 191.358 67.7724 191.399 67.7982C191.44 67.824 191.488 67.8377 191.536 67.8377C191.57 67.8462 191.605 67.8462 191.639 67.8377C191.669 67.8239 191.696 67.8043 191.719 67.78C191.741 67.7557 191.759 67.7272 191.77 67.696C191.782 67.6649 191.787 67.6318 191.785 67.5988C191.783 67.5657 191.775 67.5333 191.761 67.5034C191.603 67.1407 191.358 66.8222 191.049 66.5754C190.74 66.3286 190.375 66.161 189.986 66.0872C189.92 66.0783 189.853 66.0961 189.8 66.1365C189.747 66.177 189.712 66.2369 189.703 66.303C189.695 66.3691 189.712 66.436 189.753 66.489C189.793 66.542 189.853 66.5767 189.919 66.5856V66.5613Z" fill="#263238"/>
</svg>
