<svg width="265" height="222" viewBox="0 0 265 222" fill="none" xmlns="http://www.w3.org/2000/svg">
<path d="M202.901 49.9219H165.819V59.3712H220.117V49.9219H202.901ZM172.871 57.868H167.752V51.4581H172.871V57.868ZM179.903 57.868H174.785V51.4581H179.903V57.868ZM186.929 57.868H181.81V51.4581H186.929V57.868ZM193.961 57.868H188.843V51.4581H193.988L193.961 57.868ZM200.987 57.868H195.875V51.4581H200.987V57.868ZM206.165 57.868H203.788V51.4581H206.165V57.868ZM209.43 57.868H207.053V51.4581H209.43V57.868ZM212.694 57.868H210.317V51.4581H212.694V57.868ZM215.959 57.868H213.588V51.4581H215.959V57.868ZM219.23 57.868H216.853V51.4581H219.23V57.868Z" fill="#142445"/>
<path opacity="0.4" d="M202.901 49.9219H165.819V59.3712H220.117V49.9219H202.901ZM172.871 57.868H167.752V51.4581H172.871V57.868ZM179.903 57.868H174.785V51.4581H179.903V57.868ZM186.929 57.868H181.81V51.4581H186.929V57.868ZM193.961 57.868H188.843V51.4581H193.988L193.961 57.868ZM200.987 57.868H195.875V51.4581H200.987V57.868ZM206.165 57.868H203.788V51.4581H206.165V57.868ZM209.43 57.868H207.053V51.4581H209.43V57.868ZM212.694 57.868H210.317V51.4581H212.694V57.868ZM215.959 57.868H213.588V51.4581H215.959V57.868ZM219.23 57.868H216.853V51.4581H219.23V57.868Z" fill="black"/>
<path d="M199.365 59.8223H186.591V66.2851H199.365V59.8223Z" fill="#263238"/>
<path d="M201.603 141.27H184.168V216.023H201.934V141.27H201.603ZM186.081 143.077H194.398L186.081 151.95V143.077ZM186.081 156.718L194.398 165.585H186.081V156.718ZM186.081 167.393H194.398L186.081 176.266V167.393ZM186.081 181.027L194.398 189.9H186.081V181.027ZM186.081 191.708H194.398L186.081 200.594V191.708ZM186.081 214.222V205.349L194.398 214.222H186.081ZM195.57 212.739L187.253 203.872H195.57V212.739ZM195.57 202.064H187.253L195.57 193.191V202.064ZM195.57 188.423L187.253 179.557H195.57V188.423ZM195.57 177.749H187.253L195.57 168.876V177.749ZM195.57 164.115L187.253 155.242H195.57V164.115ZM195.57 153.434H187.253L195.57 144.567V153.434ZM198.12 144.567L200.894 153.434H198.12V144.567ZM198.12 155.242H200.894L198.12 164.115V155.242ZM198.12 168.876L200.894 177.749H198.12V168.876ZM198.12 179.557H200.894L198.12 188.423V179.557ZM198.12 193.191L200.894 202.064H198.12V193.191ZM198.12 203.872H200.894L198.12 212.739V203.872ZM201.272 214.215H198.497L201.272 205.342V214.215ZM201.272 200.574L198.497 191.708H201.272V200.574ZM201.272 189.9H198.497L201.272 181.027V189.9ZM201.272 176.266L198.497 167.393H201.272V176.266ZM201.272 165.585H198.497L201.272 156.718V165.585ZM201.272 151.95L198.497 143.077H201.272V151.95Z" fill="#142445"/>
<path opacity="0.4" d="M201.603 141.27H184.168V216.023H201.934V141.27H201.603ZM186.081 143.077H194.398L186.081 151.95V143.077ZM186.081 156.718L194.398 165.585H186.081V156.718ZM186.081 167.393H194.398L186.081 176.266V167.393ZM186.081 181.027L194.398 189.9H186.081V181.027ZM186.081 191.708H194.398L186.081 200.594V191.708ZM186.081 214.222V205.349L194.398 214.222H186.081ZM195.57 212.739L187.253 203.872H195.57V212.739ZM195.57 202.064H187.253L195.57 193.191V202.064ZM195.57 188.423L187.253 179.557H195.57V188.423ZM195.57 177.749H187.253L195.57 168.876V177.749ZM195.57 164.115L187.253 155.242H195.57V164.115ZM195.57 153.434H187.253L195.57 144.567V153.434ZM198.12 144.567L200.894 153.434H198.12V144.567ZM198.12 155.242H200.894L198.12 164.115V155.242ZM198.12 168.876L200.894 177.749H198.12V168.876ZM198.12 179.557H200.894L198.12 188.423V179.557ZM198.12 193.191L200.894 202.064H198.12V193.191ZM198.12 203.872H200.894L198.12 212.739V203.872ZM201.272 214.215H198.497L201.272 205.342V214.215ZM201.272 200.574L198.497 191.708H201.272V200.574ZM201.272 189.9H198.497L201.272 181.027V189.9ZM201.272 176.266L198.497 167.393H201.272V176.266ZM201.272 165.585H198.497L201.272 156.718V165.585ZM201.272 151.95L198.497 143.077H201.272V151.95Z" fill="black"/>
<path d="M200.967 141.27H188.611V216.023H201.934V141.27H200.967ZM190.525 168.869L198.842 177.742H190.525V168.869ZM190.525 179.55H198.842L190.525 188.417V179.55ZM190.525 193.184L198.842 202.058H190.525V193.184ZM191.697 191.708H200.014V200.594L191.697 191.708ZM200.014 189.9H191.697L200.014 181.027V189.9ZM191.697 167.386H200.014V176.259L191.697 167.386ZM200.014 165.578H191.697L200.014 156.712V165.578ZM190.525 164.101V155.235H198.842L190.525 164.101ZM190.525 153.421V144.561L198.842 153.427L190.525 153.421ZM190.525 203.859H198.842L190.525 212.725V203.859ZM200.014 143.071V151.944L191.697 143.071H200.014ZM191.697 214.215L200.014 205.342V214.215H191.697Z" fill="#142445"/>
<path d="M184.492 141.27H188.611V216.023H184.168V141.27H184.492ZM187.975 168.869L185.201 177.742H187.975V168.869ZM187.975 179.55H185.201L187.975 188.417V179.55ZM187.975 193.184L185.201 202.058H187.975V193.184ZM187.585 191.708H184.81V200.594L187.585 191.708ZM184.81 189.9H187.585L184.81 181.027V189.9ZM187.585 167.386H184.81V176.259L187.585 167.386ZM184.81 165.578H187.585L184.81 156.712V165.578ZM187.975 164.101V155.235H185.201L187.975 164.101ZM187.975 153.421V144.561L185.201 153.427L187.975 153.421ZM187.975 203.859H185.201L187.975 212.725V203.859ZM184.81 143.071V151.944L187.585 143.071H184.81ZM187.585 214.209L184.81 205.335V214.209H187.585Z" fill="#142445"/>
<path opacity="0.3" d="M200.967 141.27H188.611V216.023H201.934V141.27H200.967ZM190.525 168.869L198.842 177.742H190.525V168.869ZM190.525 179.55H198.842L190.525 188.417V179.55ZM190.525 193.184L198.842 202.058H190.525V193.184ZM191.697 191.708H200.014V200.594L191.697 191.708ZM200.014 189.9H191.697L200.014 181.027V189.9ZM191.697 167.386H200.014V176.259L191.697 167.386ZM200.014 165.578H191.697L200.014 156.712V165.578ZM190.525 164.101V155.235H198.842L190.525 164.101ZM190.525 153.421V144.561L198.842 153.427L190.525 153.421ZM190.525 203.859H198.842L190.525 212.725V203.859ZM200.014 143.071V151.944L191.697 143.071H200.014ZM191.697 214.215L200.014 205.342V214.215H191.697Z" fill="white"/>
<path d="M201.537 68.1191H184.102V142.873H201.855V68.1191H201.537ZM186.042 69.9335H194.359L186.042 78.8001V69.9335ZM186.042 83.5678L194.359 92.4344H186.042V83.5678ZM186.042 94.2487H194.359L186.042 103.115V94.2487ZM186.042 107.89L194.359 116.756H186.042V107.89ZM186.042 118.564H194.359L186.042 127.431V118.564ZM186.042 141.078V132.198L194.359 141.065L186.042 141.078ZM195.531 139.601L187.214 130.728H195.531V139.601ZM195.531 128.92H187.187L195.504 120.054L195.531 128.92ZM195.531 115.286L187.214 106.42H195.531V115.286ZM195.531 104.605H187.187L195.504 95.7387L195.531 104.605ZM195.531 90.971L187.187 82.0646H195.504L195.531 90.971ZM195.531 80.29H187.187L195.504 71.4234L195.531 80.29ZM198.08 71.4234L200.855 80.29H198.08V71.4234ZM198.08 82.1044H200.855L198.08 90.971V82.1044ZM198.08 95.7387L200.828 104.579H198.054L198.08 95.7387ZM198.08 106.42H200.855L198.08 115.286V106.42ZM198.08 120.054L200.855 128.92H198.08V120.054ZM198.08 130.728H200.855L198.08 139.601V130.728ZM201.245 141.078H198.471L201.245 132.212V141.078ZM201.245 127.444L198.471 118.571H201.245V127.444ZM201.245 116.763H198.471L201.219 107.89L201.245 116.763ZM201.245 103.129L198.471 94.262H201.245V103.129ZM201.245 92.4476H198.471L201.245 83.581V92.4476ZM201.245 78.8133L198.471 69.9468H201.245V78.8133Z" fill="#142445"/>
<path opacity="0.4" d="M201.537 68.1191H184.102V142.873H201.855V68.1191H201.537ZM186.042 69.9335H194.359L186.042 78.8001V69.9335ZM186.042 83.5678L194.359 92.4344H186.042V83.5678ZM186.042 94.2487H194.359L186.042 103.115V94.2487ZM186.042 107.89L194.359 116.756H186.042V107.89ZM186.042 118.564H194.359L186.042 127.431V118.564ZM186.042 141.078V132.198L194.359 141.065L186.042 141.078ZM195.531 139.601L187.214 130.728H195.531V139.601ZM195.531 128.92H187.187L195.504 120.054L195.531 128.92ZM195.531 115.286L187.214 106.42H195.531V115.286ZM195.531 104.605H187.187L195.504 95.7387L195.531 104.605ZM195.531 90.971L187.187 82.0646H195.504L195.531 90.971ZM195.531 80.29H187.187L195.504 71.4234L195.531 80.29ZM198.08 71.4234L200.855 80.29H198.08V71.4234ZM198.08 82.1044H200.855L198.08 90.971V82.1044ZM198.08 95.7387L200.828 104.579H198.054L198.08 95.7387ZM198.08 106.42H200.855L198.08 115.286V106.42ZM198.08 120.054L200.855 128.92H198.08V120.054ZM198.08 130.728H200.855L198.08 139.601V130.728ZM201.245 141.078H198.471L201.245 132.212V141.078ZM201.245 127.444L198.471 118.571H201.245V127.444ZM201.245 116.763H198.471L201.219 107.89L201.245 116.763ZM201.245 103.129L198.471 94.262H201.245V103.129ZM201.245 92.4476H198.471L201.245 83.581V92.4476ZM201.245 78.8133L198.471 69.9468H201.245V78.8133Z" fill="black"/>
<path d="M200.901 68.1191H188.545V142.873H201.854V68.1191H200.901ZM190.452 95.7254L198.769 104.579H190.452V95.7254ZM190.452 106.406H198.769L190.452 115.273V106.406ZM190.452 120.041L198.769 128.907H190.452V120.041ZM191.624 118.557H199.947V127.431L191.624 118.557ZM199.947 116.75H191.624L199.947 107.89V116.75ZM191.63 94.2355H199.947V103.102L191.63 94.2355ZM199.947 92.4344H191.624L199.947 83.5678V92.4344ZM190.458 90.9577V82.0646H198.775L190.458 90.9577ZM190.458 80.2768V71.4102L198.775 80.2768H190.458ZM190.458 130.715H198.775L190.458 139.588V130.715ZM199.947 69.9335V78.8001L191.63 69.9335H199.947ZM191.624 141.065L199.947 132.198V141.065H191.624Z" fill="#142445"/>
<path d="M184.419 68.1191H188.545V142.873H184.102V68.1191H184.419ZM187.902 95.7254L185.128 104.579H187.902V95.7254ZM187.902 106.406H185.128L187.902 115.273V106.406ZM187.902 120.041L185.128 128.907H187.902V120.041ZM187.512 118.557H184.717V127.431L187.512 118.557ZM184.717 116.75H187.492L184.717 107.89V116.75ZM187.492 94.2355H184.717V103.102L187.492 94.2355ZM184.717 92.4344H187.492L184.717 83.5678V92.4344ZM187.883 90.9577V82.0646H185.108L187.883 90.9577ZM187.883 80.2768V71.4102L185.108 80.2768H187.883ZM187.883 130.715H185.108L187.883 139.588V130.715ZM184.717 69.9335V78.8001L187.492 69.9335H184.717ZM187.492 141.065L184.717 132.198V141.065H187.492Z" fill="#142445"/>
<path opacity="0.3" d="M200.901 68.1191H188.545V142.873H201.854V68.1191H200.901ZM190.452 95.7254L198.769 104.579H190.452V95.7254ZM190.452 106.406H198.769L190.452 115.273V106.406ZM190.452 120.041L198.769 128.907H190.452V120.041ZM191.624 118.557H199.947V127.431L191.624 118.557ZM199.947 116.75H191.624L199.947 107.89V116.75ZM191.63 94.2355H199.947V103.102L191.63 94.2355ZM199.947 92.4344H191.624L199.947 83.5678V92.4344ZM190.458 90.9577V82.0646H198.775L190.458 90.9577ZM190.458 80.2768V71.4102L198.775 80.2768H190.458ZM190.458 130.715H198.775L190.458 139.588V130.715ZM199.947 69.9335V78.8001L191.63 69.9335H199.947ZM191.624 141.065L199.947 132.198V141.065H191.624Z" fill="white"/>
<path d="M201.855 64.4434H184.102V68.1251H201.855V64.4434Z" fill="#263238"/>
<path opacity="0.3" d="M201.854 64.4434H188.545V68.1251H201.854V64.4434Z" fill="white"/>
<path d="M191.246 4.09961L184.102 33.2355V58.458H201.855V33.2488L194.65 4.09961H191.246ZM192.121 7.58267L192.882 13.3503H190.756L192.121 7.58267ZM190.326 15.1845H192.081L189.545 18.4954L190.326 15.1845ZM193.312 16.6545L193.975 21.6143H189.485L193.312 16.6545ZM194.2 23.4286L195.08 30.1233L189.565 23.4286H194.2ZM188.095 24.5874L194.498 32.3681H186.254L188.095 24.5874ZM186.042 34.1559H194.359L186.042 42.996V34.1559ZM186.042 56.6701V47.7902L194.359 56.6568L186.042 56.6701ZM195.531 55.1934L187.187 46.3069H195.504L195.531 55.1934ZM195.531 44.5124H187.187L195.504 35.6458L195.531 44.5124ZM200.828 46.3268L198.054 55.1934V46.3069L200.828 46.3268ZM198.054 44.5124V35.6326L200.828 44.4992L198.054 44.5124ZM201.219 56.6701H198.444L201.219 47.8035V56.6701ZM201.219 43.0358L198.444 34.1692H201.219V43.0358ZM200.981 32.3614H198.232L199.02 24.6338L200.981 32.3614ZM197.67 30.1365L196.802 23.475H198.352L197.67 30.1365ZM196.57 21.6739L195.908 16.7472L198.04 21.6739H196.57ZM197.497 18.5484L196.08 15.2838H196.637L197.497 18.5484ZM195.511 13.4827L194.763 7.7416L196.219 13.4827H195.511Z" fill="#142445"/>
<path opacity="0.4" d="M191.246 4.09961L184.102 33.2355V58.458H201.855V33.2488L194.65 4.09961H191.246ZM192.121 7.58267L192.882 13.3503H190.756L192.121 7.58267ZM190.326 15.1845H192.081L189.545 18.4954L190.326 15.1845ZM193.312 16.6545L193.975 21.6143H189.485L193.312 16.6545ZM194.2 23.4286L195.08 30.1233L189.565 23.4286H194.2ZM188.095 24.5874L194.498 32.3681H186.254L188.095 24.5874ZM186.042 34.1559H194.359L186.042 42.996V34.1559ZM186.042 56.6701V47.7902L194.359 56.6568L186.042 56.6701ZM195.531 55.1934L187.187 46.3069H195.504L195.531 55.1934ZM195.531 44.5124H187.187L195.504 35.6458L195.531 44.5124ZM200.828 46.3268L198.054 55.1934V46.3069L200.828 46.3268ZM198.054 44.5124V35.6326L200.828 44.4992L198.054 44.5124ZM201.219 56.6701H198.444L201.219 47.8035V56.6701ZM201.219 43.0358L198.444 34.1692H201.219V43.0358ZM200.981 32.3614H198.232L199.02 24.6338L200.981 32.3614ZM197.67 30.1365L196.802 23.475H198.352L197.67 30.1365ZM196.57 21.6739L195.908 16.7472L198.04 21.6739H196.57ZM197.497 18.5484L196.08 15.2838H196.637L197.497 18.5484ZM195.511 13.4827L194.763 7.7416L196.219 13.4827H195.511Z" fill="black"/>
<path d="M191.286 4.09961L184.102 33.2355V58.458H201.855V33.2488L194.71 4.11285L191.286 4.09961ZM193.836 7.58267L195.2 13.3503H193.074L193.836 7.58267ZM191.22 7.72835L190.472 13.4695H189.763L191.22 7.72835ZM191.756 23.4088H196.392L190.876 30.1034L191.756 23.4088ZM198.769 44.4992H190.452V35.6326L198.769 44.4992ZM189.306 15.2706H189.896L188.479 18.5351L189.306 15.2706ZM186.936 24.6206L187.73 32.3482H184.976L186.936 24.6206ZM184.717 34.1559H187.492L184.717 42.996V34.1559ZM184.717 56.6701V47.7902L187.492 56.6568L184.717 56.6701ZM187.883 55.1934L185.128 46.3069H187.902L187.883 55.1934ZM187.883 44.5124H185.108L187.883 35.6458V44.5124ZM188.287 30.1365L187.624 23.475H189.174L188.287 30.1365ZM189.386 21.6739H187.896L190.028 16.7472L189.386 21.6739ZM190.452 46.3069H198.769L190.452 55.1802V46.3069ZM199.948 56.6568H191.624L199.948 47.7902V56.6568ZM199.948 42.996L191.631 34.1295H199.948V42.996ZM199.709 32.3217H191.458L197.862 24.5411L199.709 32.3217ZM192.001 21.5944L192.664 16.6347L196.491 21.5944H192.001ZM196.418 18.449L193.882 15.1381H195.637L196.418 18.449Z" fill="#142445"/>
<path opacity="0.3" d="M192.134 4.09961L188.545 33.2355V58.458H201.854V33.2488L194.71 4.11285L192.134 4.09961ZM193.835 7.58267L195.2 13.3503H193.074L193.835 7.58267ZM191.756 23.4088H196.392L190.876 30.1034L191.756 23.4088ZM190.432 35.6326L198.749 44.4992H190.452L190.432 35.6326ZM190.432 46.3136H198.749L190.452 55.1802L190.432 46.3136ZM199.947 56.6568H191.624L199.947 47.7902V56.6568ZM199.947 42.996L191.63 34.1295H199.947V42.996ZM199.709 32.3217H191.458L197.862 24.5411L199.709 32.3217ZM192.001 21.5944L192.663 16.6347L196.491 21.5944H192.001ZM196.418 18.449L193.882 15.1381H195.637L196.418 18.449Z" fill="white"/>
<path d="M201.855 58.4707H184.102V60.2917H201.855V58.4707Z" fill="#263238"/>
<path d="M183.055 49.9219V59.3712H220.137V49.9219H183.055ZM199.027 51.4449H204.146V57.8548H199.027V51.4449ZM197.113 57.8548H192.001V51.4449H197.12L197.113 57.8548ZM206.053 51.4449H211.204V57.8548H206.086L206.053 51.4449ZM184.969 51.4449H190.081V57.8548H184.969V51.4449ZM218.204 57.8548H213.085V51.4449H218.204V57.8548Z" fill="#142445"/>
<path d="M165.839 49.9219V59.3712H183.055V49.9219H165.839ZM173.262 51.4449H175.639V57.8548H173.262V51.4449ZM172.368 57.8548H169.997V51.4449H172.368V57.8548ZM176.526 51.4449H178.903V57.8548H176.526V51.4449ZM166.733 51.4449H169.103V57.8548H166.733V51.4449ZM182.168 57.8548H179.791V51.4449H182.168V57.8548Z" fill="#142445"/>
<path opacity="0.2" d="M165.839 49.9219V59.3712H183.055V49.9219H165.839ZM173.262 51.4449H175.639V57.8548H173.262V51.4449ZM172.368 57.8548H169.997V51.4449H172.368V57.8548ZM176.526 51.4449H178.903V57.8548H176.526V51.4449ZM166.733 51.4449H169.103V57.8548H166.733V51.4449ZM182.168 57.8548H179.791V51.4449H182.168V57.8548Z" fill="black"/>
<path d="M219.959 216.023H166.137L160.336 221.261H225.766L219.959 216.023Z" fill="#263238"/>
<path opacity="0.3" d="M219.959 216.023H186.797L185.452 221.261H225.766L219.959 216.023Z" fill="white"/>
<path d="M52.7599 164H22.2442C22.2005 164.002 22.1574 163.983 22.1199 163.947C22.0823 163.911 22.0518 163.858 22.0319 163.795C22.011 163.734 22 163.665 22 163.596C22 163.526 22.011 163.457 22.0319 163.396L46.8624 101.173C46.8887 101.107 46.9272 101.055 46.9724 101.026C47.0177 100.997 47.0674 100.992 47.1145 101.011C47.1613 101.031 47.2036 101.072 47.2366 101.129C47.2695 101.186 47.2916 101.258 47.3003 101.335L52.9987 163.515C53.0022 163.571 52.9986 163.627 52.9884 163.681C52.9781 163.735 52.9613 163.784 52.939 163.827C52.9191 163.876 52.8927 163.917 52.8616 163.947C52.8306 163.977 52.7958 163.995 52.7599 164ZM22.7085 163.224H52.4813L46.9487 102.467L22.7085 163.224Z" fill="#263238"/>
<path d="M198.736 0.74873V4.21856C198.736 4.31909 198.716 4.4186 198.676 4.51115C198.637 4.60371 198.58 4.6874 198.507 4.75724C198.435 4.82708 198.349 4.88164 198.255 4.91765C198.162 4.95365 198.061 4.97038 197.961 4.96682H186.042C185.843 4.96683 185.652 4.8882 185.51 4.74806C185.369 4.60793 185.289 4.41761 185.287 4.21856V0.74873C185.289 0.549672 185.369 0.359361 185.51 0.219222C185.652 0.0790825 185.843 0.000461333 186.042 0.000468991H197.961C198.061 -0.0030897 198.162 0.0136332 198.255 0.0496404C198.349 0.0856476 198.435 0.140202 198.507 0.210042C198.58 0.279883 198.637 0.363578 198.676 0.456132C198.716 0.548686 198.736 0.648198 198.736 0.74873Z" fill="#142445"/>
<path opacity="0.3" d="M198.736 0.74873V4.21856C198.736 4.31909 198.716 4.4186 198.676 4.51115C198.637 4.60371 198.58 4.6874 198.507 4.75724C198.435 4.82708 198.349 4.88164 198.255 4.91765C198.162 4.95365 198.061 4.97038 197.961 4.96682H186.704C186.506 4.96509 186.317 4.8857 186.177 4.74575C186.037 4.60579 185.957 4.41647 185.956 4.21856V0.74873C185.957 0.550814 186.037 0.361494 186.177 0.221541C186.317 0.0815872 186.506 0.00219762 186.704 0.000468991H197.961C198.061 -0.0030897 198.162 0.0136332 198.255 0.0496404C198.349 0.0856476 198.435 0.140202 198.507 0.210042C198.58 0.279883 198.637 0.363578 198.676 0.456132C198.716 0.548686 198.736 0.648198 198.736 0.74873Z" fill="white"/>
<path d="M189.306 2.48289C189.242 2.75356 189.102 3.00059 188.904 3.19577C188.705 3.39095 188.456 3.5264 188.185 3.58664C187.913 3.64689 187.63 3.6295 187.367 3.53646C187.105 3.44343 186.874 3.27849 186.701 3.06051C186.529 2.84253 186.42 2.58029 186.389 2.30375C186.358 2.02722 186.406 1.74754 186.526 1.49667C186.647 1.24581 186.835 1.03388 187.07 0.88509C187.305 0.736304 187.578 0.656665 187.856 0.655273C188.288 0.711649 188.681 0.933991 188.952 1.27516C189.222 1.61633 189.349 2.04952 189.306 2.48289Z" fill="#263238"/>
<path d="M45.6596 85.7987C45.5819 85.7975 45.5073 85.7679 45.45 85.7154C45.3926 85.663 45.3565 85.5913 45.3484 85.514L41.3157 45.2336C41.3083 45.1496 41.3338 45.0659 41.387 45.0004C41.4401 44.9349 41.5167 44.8926 41.6005 44.8826C41.6842 44.8768 41.7669 44.903 41.8321 44.9558C41.8972 45.0087 41.9399 45.0843 41.9514 45.1674L45.9775 85.4478C45.9821 85.4895 45.9783 85.5318 45.9664 85.5721C45.9546 85.6125 45.9348 85.65 45.9084 85.6827C45.8819 85.7153 45.8492 85.7424 45.8122 85.7623C45.7752 85.7822 45.7346 85.7946 45.6927 85.7987H45.6596Z" fill="#263238"/>
<path d="M47.9773 85.7987C47.9355 85.7946 47.8949 85.7822 47.8579 85.7623C47.8209 85.7424 47.7882 85.7153 47.7617 85.6827C47.7352 85.65 47.7155 85.6125 47.7036 85.5721C47.6917 85.5318 47.688 85.4895 47.6926 85.4478L51.7186 45.1674C51.7302 45.0843 51.7728 45.0087 51.838 44.9558C51.9031 44.903 51.9859 44.8768 52.0696 44.8826C52.1534 44.8926 52.2299 44.9349 52.2831 45.0004C52.3363 45.0659 52.3618 45.1496 52.3543 45.2336L48.3084 85.514C48.3 85.5948 48.2611 85.6693 48.1995 85.7222C48.1379 85.7752 48.0584 85.8025 47.9773 85.7987Z" fill="#263238"/>
<path d="M46.7985 102.002C46.0436 102.002 45.5536 101.783 45.3483 101.34C44.9378 100.492 45.8913 99.2406 46.0105 99.1016C46.0632 99.0357 46.1399 98.9935 46.2237 98.9842C46.3075 98.9749 46.3916 98.9992 46.4575 99.0519C46.5233 99.1046 46.5656 99.1813 46.5749 99.2651C46.5842 99.3489 46.5598 99.433 46.5071 99.4989C46.2423 99.8432 45.739 100.678 45.9244 101.062C46.0502 101.313 46.5336 101.353 46.8051 101.353C47.0766 101.353 47.4276 101.307 47.5269 101.101C47.7388 100.651 47.0899 99.5121 46.5601 98.85C46.5139 98.794 46.4882 98.7239 46.4873 98.6513V94.9034C46.4873 94.8155 46.5222 94.7313 46.5843 94.6692C46.6463 94.6072 46.7306 94.5723 46.8184 94.5723C46.9062 94.5723 46.9904 94.6072 47.0525 94.6692C47.1146 94.7313 47.1495 94.8155 47.1495 94.9034V98.5387C47.507 99.0023 48.5467 100.479 48.1162 101.379C47.9815 101.601 47.7849 101.778 47.5507 101.888C47.3165 101.999 47.055 102.038 46.7985 102.002Z" fill="#263238"/>
<path d="M44.5868 84.3223H49.0102C49.1647 84.3223 49.313 84.3837 49.4222 84.4929C49.5315 84.6022 49.5929 84.7504 49.5929 84.905V87.9179H44.0107V84.905C44.0107 84.7516 44.0712 84.6043 44.1791 84.4953C44.2869 84.3862 44.4334 84.324 44.5868 84.3223Z" fill="#263238"/>
<path d="M51.4008 87.799V88.991C51.404 89.0372 51.404 89.0837 51.4008 89.13L50.2949 96.4868C50.2601 96.715 50.1449 96.9232 49.97 97.0737C49.7951 97.2243 49.5722 97.3074 49.3414 97.3079H44.2823C44.0515 97.3074 43.8286 97.2243 43.6537 97.0737C43.4788 96.9232 43.3636 96.715 43.3288 96.4868L42.2163 89.13C42.213 89.0837 42.213 89.0372 42.2163 88.991V87.799C42.2163 87.5444 42.3175 87.3001 42.4975 87.1201C42.6776 86.94 42.9218 86.8389 43.1765 86.8389H50.4605C50.7116 86.8441 50.9508 86.9475 51.1266 87.127C51.3024 87.3065 51.4008 87.5478 51.4008 87.799Z" fill="#263238"/>
<path opacity="0.3" d="M51.4006 87.799V88.991C51.4039 89.0373 51.4039 89.0837 51.4006 89.13L50.2948 96.4868C50.26 96.715 50.1448 96.9232 49.9699 97.0738C49.795 97.2244 49.572 97.3074 49.3413 97.308H47.4938C47.2626 97.3088 47.0389 97.2262 46.8638 97.0754C46.6886 96.9245 46.5737 96.7156 46.5402 96.4868L45.4212 89.13C45.4179 89.0837 45.4179 89.0373 45.4212 88.991V87.799C45.422 87.6721 45.4479 87.5465 45.4973 87.4296C45.5467 87.3126 45.6186 87.2065 45.709 87.1174C45.7994 87.0282 45.9064 86.9577 46.0241 86.9099C46.1417 86.8622 46.2676 86.838 46.3946 86.8389H50.4736C50.7225 86.8475 50.9583 86.9524 51.1312 87.1316C51.3042 87.3107 51.4008 87.55 51.4006 87.799Z" fill="white"/>
<path d="M57.5788 46.3061C57.5367 46.3061 57.4963 46.2894 57.4665 46.2596C57.4367 46.2298 57.4199 46.1893 57.4199 46.1472C57.4199 46.105 57.4367 46.0646 57.4665 46.0348C57.4963 46.005 57.5367 45.9883 57.5788 45.9883L185.002 45.0215C185.044 45.0215 185.085 45.0382 185.114 45.068C185.144 45.0978 185.161 45.1383 185.161 45.1804C185.161 45.2226 185.144 45.263 185.114 45.2928C185.085 45.3226 185.044 45.3393 185.002 45.3393L57.5788 46.3061Z" fill="#263238"/>
<path d="M42.3488 46.459H39.4021L39.6405 47.4456C39.6578 47.5081 39.6949 47.5631 39.7463 47.6026C39.7976 47.642 39.8605 47.6636 39.9252 47.6642H43.7659C43.8298 47.6633 43.8916 47.6414 43.9419 47.6019C43.9921 47.5624 44.028 47.5075 44.044 47.4456L44.289 46.459H42.3488Z" fill="#263238"/>
<path opacity="0.3" d="M43.7658 47.6642H41.8388C41.7738 47.6647 41.7104 47.6435 41.6588 47.6039C41.6072 47.5643 41.5703 47.5086 41.5541 47.4456L41.3091 46.459H44.2889L44.0439 47.4456C44.0279 47.5075 43.992 47.5624 43.9418 47.6019C43.8915 47.6414 43.8297 47.6633 43.7658 47.6642Z" fill="white"/>
<path d="M52.5793 46.459H49.6326L49.8776 47.4456C49.8935 47.5075 49.9294 47.5624 49.9797 47.6019C50.0299 47.6414 50.0918 47.6633 50.1557 47.6642H53.9963C54.0611 47.6636 54.1239 47.642 54.1753 47.6026C54.2267 47.5631 54.2638 47.5081 54.2811 47.4456L54.5195 46.459H52.5793Z" fill="#263238"/>
<path opacity="0.3" d="M53.9633 47.6642H52.0363C51.9721 47.6644 51.9097 47.643 51.8592 47.6033C51.8087 47.5636 51.7731 47.5081 51.7582 47.4456L51.5132 46.459H54.4864L54.248 47.4456C54.2307 47.5081 54.1936 47.5631 54.1422 47.6026C54.0908 47.642 54.028 47.6636 53.9633 47.6642Z" fill="white"/>
<path d="M50.2884 44.4326H28.2577C28.0382 44.4326 27.8604 44.6105 27.8604 44.8299V46.3463C27.8604 46.5657 28.0382 46.7436 28.2577 46.7436H50.2884C50.5078 46.7436 50.6857 46.5657 50.6857 46.3463V44.8299C50.6857 44.6105 50.5078 44.4326 50.2884 44.4326Z" fill="#263238"/>
<path opacity="0.3" d="M50.2882 44.4326H28.8932C28.6737 44.4326 28.4958 44.6105 28.4958 44.8299V46.3463C28.4958 46.5657 28.6737 46.7436 28.8932 46.7436H50.2882C50.5076 46.7436 50.6855 46.5657 50.6855 46.3463V44.8299C50.6855 44.6105 50.5076 44.4326 50.2882 44.4326Z" fill="white"/>
<path d="M50.6857 45.5918V46.3467C50.6857 46.4509 50.6448 46.551 50.5717 46.6253C50.4986 46.6996 50.3992 46.7423 50.295 46.744H28.2577C28.1523 46.744 28.0512 46.7021 27.9767 46.6276C27.9022 46.5531 27.8604 46.4521 27.8604 46.3467V45.5918H50.6857Z" fill="#263238"/>
<path d="M126.306 33.778C126.234 33.779 126.164 33.7555 126.107 33.7113C126.05 33.6671 126.01 33.6049 125.993 33.5348C125.976 33.4648 125.983 33.391 126.014 33.3257C126.044 33.2604 126.096 33.2074 126.161 33.1754L188.253 0.887499C188.328 0.849579 188.415 0.842188 188.495 0.866887C188.576 0.891585 188.643 0.946446 188.684 1.01993C188.703 1.05727 188.715 1.09809 188.719 1.14002C188.722 1.18195 188.717 1.22416 188.704 1.2642C188.691 1.30424 188.671 1.34131 188.643 1.37326C188.616 1.40522 188.582 1.43142 188.545 1.45035L126.446 33.725C126.403 33.7522 126.356 33.7703 126.306 33.778Z" fill="#263238"/>
<path d="M198.674 0.952089L198.235 1.41113L243.398 44.6761L243.838 44.2171L198.674 0.952089Z" fill="#263238"/>
<path d="M256.233 44.4325H255.571V39.4993C255.569 39.1099 255.413 38.737 255.138 38.4617C254.863 38.1864 254.49 38.031 254.1 38.0293H206.198C205.809 38.031 205.436 38.1864 205.161 38.4617C204.886 38.737 204.73 39.1099 204.728 39.4993V44.4325H204.066V39.4993C204.066 38.9408 204.288 38.4052 204.683 38.0103C205.078 37.6154 205.613 37.3936 206.172 37.3936H254.081C254.639 37.3936 255.175 37.6154 255.57 38.0103C255.964 38.4052 256.186 38.9408 256.186 39.4993L256.233 44.4325Z" fill="#263238"/>
<path d="M211.165 37.7119H210.529V44.433H211.165V37.7119Z" fill="#263238"/>
<path d="M217.601 37.7119H216.965V44.433H217.601V37.7119Z" fill="#263238"/>
<path d="M224.031 37.7119H223.395V44.433H224.031V37.7119Z" fill="#263238"/>
<path d="M230.467 37.7119H229.832V44.433H230.467V37.7119Z" fill="#263238"/>
<path d="M236.904 37.7119H236.268V44.433H236.904V37.7119Z" fill="#263238"/>
<path d="M243.34 37.7119H242.704V44.433H243.34V37.7119Z" fill="#263238"/>
<path d="M249.777 37.7119H249.141V44.433H249.777V37.7119Z" fill="#263238"/>
<path d="M255.895 41.1084H204.411V41.7441H255.895V41.1084Z" fill="#263238"/>
<path d="M262.623 36.6784C262.66 35.7215 262.317 34.7888 261.668 34.0849C261.018 33.381 260.116 32.9634 259.159 32.9238H256.815C255.957 32.954 255.138 33.2926 254.509 33.8777C253.881 34.4627 253.484 35.2549 253.392 36.1089H242.214C242.123 36.1087 242.033 36.1272 241.95 36.1634C241.866 36.1995 241.791 36.2525 241.729 36.319C241.667 36.3854 241.619 36.464 241.589 36.5498C241.558 36.6356 241.546 36.7267 241.552 36.8174V44.5318H233.871V52.1734C233.871 52.3806 233.953 52.5794 234.1 52.7259C234.246 52.8724 234.445 52.9548 234.652 52.9548H237.877V61.2055C237.877 61.5006 237.994 61.7835 238.203 61.9922C238.411 62.2008 238.694 62.318 238.989 62.318H257.266C257.56 62.3162 257.841 62.1983 258.048 61.9898C258.255 61.7814 258.372 61.4994 258.372 61.2055V52.9283H261.815C262.022 52.9283 262.221 52.846 262.367 52.6994C262.514 52.5529 262.596 52.3542 262.596 52.1469V44.5451L262.623 36.6784Z" fill="#263238"/>
<path opacity="0.2" d="M262.623 36.6784C262.66 35.7215 262.317 34.7888 261.668 34.0849C261.018 33.381 260.116 32.9634 259.159 32.9238H256.815C255.957 32.954 255.138 33.2926 254.509 33.8777C253.881 34.4627 253.484 35.2549 253.392 36.1089H242.214C242.123 36.1087 242.033 36.1272 241.95 36.1634C241.866 36.1995 241.791 36.2525 241.729 36.319C241.667 36.3854 241.619 36.464 241.589 36.5498C241.558 36.6356 241.546 36.7267 241.552 36.8174V44.5318H233.871V52.1734C233.871 52.3806 233.953 52.5794 234.1 52.7259C234.246 52.8724 234.445 52.9548 234.652 52.9548H237.877V61.2055C237.877 61.5006 237.994 61.7835 238.203 61.9922C238.411 62.2008 238.694 62.318 238.989 62.318H257.266C257.56 62.3162 257.841 62.1983 258.048 61.9898C258.255 61.7814 258.372 61.4994 258.372 61.2055V52.9283H261.815C262.022 52.9283 262.221 52.846 262.367 52.6994C262.514 52.5529 262.596 52.3542 262.596 52.1469V44.5451L262.623 36.6784Z" fill="white"/>
<path opacity="0.3" d="M262.623 36.6784C262.66 35.7215 262.317 34.7888 261.668 34.0849C261.018 33.381 260.116 32.9634 259.159 32.9238C258.204 32.9651 257.303 33.3834 256.656 34.0871C256.008 34.7909 255.665 35.7226 255.703 36.6784V44.5318H255.464V36.8174C255.471 36.7267 255.458 36.6356 255.428 36.5498C255.398 36.464 255.35 36.3854 255.288 36.319C255.226 36.2525 255.15 36.1995 255.067 36.1634C254.983 36.1272 254.893 36.1087 254.802 36.1089H245.048C244.957 36.1087 244.867 36.1272 244.784 36.1634C244.7 36.1995 244.625 36.2525 244.563 36.319C244.501 36.3854 244.453 36.464 244.423 36.5498C244.392 36.6356 244.38 36.7267 244.386 36.8174V44.5318H241.969V61.2055C241.969 61.5006 242.086 61.7835 242.295 61.9922C242.504 62.2008 242.787 62.318 243.082 62.318H257.252C257.546 62.3162 257.828 62.1983 258.035 61.9898C258.242 61.7814 258.358 61.4994 258.358 61.2055V44.5451H259.087V52.1734C259.087 52.3806 259.169 52.5794 259.315 52.7259C259.462 52.8724 259.661 52.9548 259.868 52.9548H261.802C262.009 52.9548 262.208 52.8724 262.354 52.7259C262.501 52.5794 262.583 52.3806 262.583 52.1734V44.5451L262.623 36.6784Z" fill="white"/>
<path opacity="0.3" d="M237.361 52.1738C237.361 52.381 237.443 52.5798 237.589 52.7263C237.736 52.8728 237.935 52.9551 238.142 52.9551H240.076C240.283 52.9551 240.482 52.8728 240.628 52.7263C240.775 52.5798 240.857 52.381 240.857 52.1738V44.5322H237.361V52.1738Z" fill="white"/>
<path d="M264.503 44.4325H263.841V39.4993C263.841 39.3057 263.803 39.114 263.729 38.9352C263.654 38.7564 263.546 38.5941 263.408 38.4575C263.271 38.3209 263.108 38.2127 262.929 38.1393C262.75 38.0658 262.558 38.0284 262.365 38.0293H214.516C214.322 38.0284 214.131 38.0658 213.952 38.1394C213.773 38.2129 213.611 38.3212 213.474 38.4579C213.337 38.5946 213.229 38.757 213.156 38.9357C213.082 39.1145 213.045 39.306 213.045 39.4993V44.4325H212.383V39.4993C212.383 39.2222 212.438 38.9478 212.544 38.6919C212.65 38.436 212.806 38.2036 213.002 38.008C213.199 37.8124 213.432 37.6574 213.688 37.552C213.944 37.4465 214.219 37.3927 214.496 37.3936H262.391C262.668 37.3927 262.943 37.4465 263.199 37.552C263.455 37.6574 263.688 37.8124 263.884 38.008C264.081 38.2036 264.236 38.436 264.343 38.6919C264.449 38.9478 264.503 39.2222 264.503 39.4993V44.4325Z" fill="#263238"/>
<path d="M219.449 37.7119H218.813V44.433H219.449V37.7119Z" fill="#263238"/>
<path d="M225.885 37.7119H225.249V44.433H225.885V37.7119Z" fill="#263238"/>
<path d="M232.321 37.7119H231.686V44.433H232.321V37.7119Z" fill="#263238"/>
<path d="M238.758 37.7119H238.122V44.433H238.758V37.7119Z" fill="#263238"/>
<path d="M245.194 37.7119H244.559V44.433H245.194V37.7119Z" fill="#263238"/>
<path d="M251.631 37.7119H250.995V44.433H251.631V37.7119Z" fill="#263238"/>
<path d="M258.067 37.7119H257.431V44.433H258.067V37.7119Z" fill="#263238"/>
<path d="M264.179 41.1084H212.694V41.7441H264.179V41.1084Z" fill="#263238"/>
<g opacity="0.3">
<path d="M264.503 44.4335H263.841V39.5003C263.841 39.3067 263.803 39.115 263.729 38.9362C263.654 38.7574 263.545 38.5951 263.408 38.4585C263.271 38.3219 263.108 38.2137 262.929 38.1402C262.75 38.0667 262.558 38.0294 262.364 38.0302H214.515C214.322 38.0294 214.13 38.0668 213.952 38.1404C213.773 38.2139 213.611 38.3222 213.474 38.4589C213.337 38.5955 213.229 38.7579 213.155 38.9367C213.082 39.1154 213.044 39.307 213.045 39.5003V44.4335H212.383V39.5003C212.383 39.2232 212.438 38.9488 212.544 38.6929C212.65 38.437 212.806 38.2046 213.002 38.009C213.198 37.8133 213.431 37.6584 213.688 37.5529C213.944 37.4475 214.218 37.3937 214.495 37.3945H262.391C262.668 37.3937 262.943 37.4475 263.199 37.5529C263.455 37.6584 263.688 37.8133 263.884 38.009C264.08 38.2046 264.236 38.437 264.342 38.6929C264.449 38.9488 264.503 39.2232 264.503 39.5003V44.4335Z" fill="white"/>
<path d="M219.448 37.7129H218.813V44.434H219.448V37.7129Z" fill="white"/>
<path d="M225.885 37.7129H225.249V44.434H225.885V37.7129Z" fill="white"/>
<path d="M232.321 37.7129H231.686V44.434H232.321V37.7129Z" fill="white"/>
<path d="M238.758 37.7129H238.122V44.434H238.758V37.7129Z" fill="white"/>
<path d="M245.194 37.7129H244.558V44.434H245.194V37.7129Z" fill="white"/>
<path d="M251.631 37.7129H250.995V44.434H251.631V37.7129Z" fill="white"/>
<path d="M258.067 37.7129H257.431V44.434H258.067V37.7129Z" fill="white"/>
<path d="M264.179 41.1094H212.694V41.7451H264.179V41.1094Z" fill="white"/>
</g>
<path d="M204.867 43.5254H203.953C203.884 43.5254 203.828 43.5817 203.828 43.6512V45.353C203.828 45.4225 203.884 45.4788 203.953 45.4788H204.867C204.937 45.4788 204.993 45.4225 204.993 45.353V43.6512C204.993 43.5817 204.937 43.5254 204.867 43.5254Z" fill="#142445"/>
<path d="M211.304 43.5254H210.39C210.32 43.5254 210.264 43.5817 210.264 43.6512V45.353C210.264 45.4225 210.32 45.4788 210.39 45.4788H211.304C211.373 45.4788 211.43 45.4225 211.43 45.353V43.6512C211.43 43.5817 211.373 43.5254 211.304 43.5254Z" fill="#142445"/>
<path d="M217.74 43.5254H216.826C216.757 43.5254 216.701 43.5817 216.701 43.6512V45.353C216.701 45.4225 216.757 45.4788 216.826 45.4788H217.74C217.81 45.4788 217.866 45.4225 217.866 45.353V43.6512C217.866 43.5817 217.81 43.5254 217.74 43.5254Z" fill="#142445"/>
<path d="M224.17 43.5254H223.256C223.187 43.5254 223.13 43.5817 223.13 43.6512V45.353C223.13 45.4225 223.187 45.4788 223.256 45.4788H224.17C224.239 45.4788 224.296 45.4225 224.296 45.353V43.6512C224.296 43.5817 224.239 43.5254 224.17 43.5254Z" fill="#142445"/>
<path d="M230.606 43.5254H229.692C229.623 43.5254 229.567 43.5817 229.567 43.6512V45.353C229.567 45.4225 229.623 45.4788 229.692 45.4788H230.606C230.676 45.4788 230.732 45.4225 230.732 45.353V43.6512C230.732 43.5817 230.676 43.5254 230.606 43.5254Z" fill="#142445"/>
<path d="M237.043 43.5254H236.129C236.06 43.5254 236.003 43.5817 236.003 43.6512V45.353C236.003 45.4225 236.06 45.4788 236.129 45.4788H237.043C237.112 45.4788 237.169 45.4225 237.169 45.353V43.6512C237.169 43.5817 237.112 43.5254 237.043 43.5254Z" fill="#142445"/>
<path d="M243.479 43.5254H242.565C242.496 43.5254 242.439 43.5817 242.439 43.6512V45.353C242.439 45.4225 242.496 45.4788 242.565 45.4788H243.479C243.549 45.4788 243.605 45.4225 243.605 45.353V43.6512C243.605 43.5817 243.549 43.5254 243.479 43.5254Z" fill="#142445"/>
<path d="M249.916 43.5254H249.002C248.932 43.5254 248.876 43.5817 248.876 43.6512V45.353C248.876 45.4225 248.932 45.4788 249.002 45.4788H249.916C249.985 45.4788 250.041 45.4225 250.041 45.353V43.6512C250.041 43.5817 249.985 43.5254 249.916 43.5254Z" fill="#142445"/>
<path d="M256.352 43.5254H255.438C255.369 43.5254 255.312 43.5817 255.312 43.6512V45.353C255.312 45.4225 255.369 45.4788 255.438 45.4788H256.352C256.421 45.4788 256.478 45.4225 256.478 45.353V43.6512C256.478 43.5817 256.421 43.5254 256.352 43.5254Z" fill="#142445"/>
<path d="M265 43.8037H178.903V45.2009H265V43.8037Z" fill="#142445"/>
<path opacity="0.3" d="M265 43.8037H178.903V45.2009H265V43.8037Z" fill="white"/>
<path d="M213.151 43.5254H212.238C212.168 43.5254 212.112 43.5817 212.112 43.6512V45.353C212.112 45.4225 212.168 45.4788 212.238 45.4788H213.151C213.221 45.4788 213.277 45.4225 213.277 45.353V43.6512C213.277 43.5817 213.221 43.5254 213.151 43.5254Z" fill="#142445"/>
<path d="M219.588 43.5254H218.674C218.604 43.5254 218.548 43.5817 218.548 43.6512V45.353C218.548 45.4225 218.604 45.4788 218.674 45.4788H219.588C219.657 45.4788 219.714 45.4225 219.714 45.353V43.6512C219.714 43.5817 219.657 43.5254 219.588 43.5254Z" fill="#142445"/>
<path d="M226.024 43.5254H225.11C225.041 43.5254 224.985 43.5817 224.985 43.6512V45.353C224.985 45.4225 225.041 45.4788 225.11 45.4788H226.024C226.094 45.4788 226.15 45.4225 226.15 45.353V43.6512C226.15 43.5817 226.094 43.5254 226.024 43.5254Z" fill="#142445"/>
<path d="M232.461 43.5254H231.547C231.477 43.5254 231.421 43.5817 231.421 43.6512V45.353C231.421 45.4225 231.477 45.4788 231.547 45.4788H232.461C232.53 45.4788 232.586 45.4225 232.586 45.353V43.6512C232.586 43.5817 232.53 43.5254 232.461 43.5254Z" fill="#142445"/>
<path d="M238.897 43.5254H237.983C237.914 43.5254 237.857 43.5817 237.857 43.6512V45.353C237.857 45.4225 237.914 45.4788 237.983 45.4788H238.897C238.966 45.4788 239.023 45.4225 239.023 45.353V43.6512C239.023 43.5817 238.966 43.5254 238.897 43.5254Z" fill="#142445"/>
<path d="M245.333 43.5254H244.42C244.35 43.5254 244.294 43.5817 244.294 43.6512V45.353C244.294 45.4225 244.35 45.4788 244.42 45.4788H245.333C245.403 45.4788 245.459 45.4225 245.459 45.353V43.6512C245.459 43.5817 245.403 43.5254 245.333 43.5254Z" fill="#142445"/>
<path d="M251.77 43.5254H250.856C250.786 43.5254 250.73 43.5817 250.73 43.6512V45.353C250.73 45.4225 250.786 45.4788 250.856 45.4788H251.77C251.839 45.4788 251.895 45.4225 251.895 45.353V43.6512C251.895 43.5817 251.839 43.5254 251.77 43.5254Z" fill="#142445"/>
<path d="M258.206 43.5254H257.292C257.223 43.5254 257.166 43.5817 257.166 43.6512V45.353C257.166 45.4225 257.223 45.4788 257.292 45.4788H258.206C258.275 45.4788 258.332 45.4225 258.332 45.353V43.6512C258.332 43.5817 258.275 43.5254 258.206 43.5254Z" fill="#142445"/>
<path d="M264.642 43.5254H263.729C263.659 43.5254 263.603 43.5817 263.603 43.6512V45.353C263.603 45.4225 263.659 45.4788 263.729 45.4788H264.642C264.712 45.4788 264.768 45.4225 264.768 45.353V43.6512C264.768 43.5817 264.712 43.5254 264.642 43.5254Z" fill="#142445"/>
<g opacity="0.5">
<path d="M213.151 43.5254H212.238C212.168 43.5254 212.112 43.5817 212.112 43.6512V45.353C212.112 45.4225 212.168 45.4788 212.238 45.4788H213.151C213.221 45.4788 213.277 45.4225 213.277 45.353V43.6512C213.277 43.5817 213.221 43.5254 213.151 43.5254Z" fill="white"/>
<path d="M219.588 43.5254H218.674C218.604 43.5254 218.548 43.5817 218.548 43.6512V45.353C218.548 45.4225 218.604 45.4788 218.674 45.4788H219.588C219.657 45.4788 219.714 45.4225 219.714 45.353V43.6512C219.714 43.5817 219.657 43.5254 219.588 43.5254Z" fill="white"/>
<path d="M226.024 43.5254H225.11C225.041 43.5254 224.985 43.5817 224.985 43.6512V45.353C224.985 45.4225 225.041 45.4788 225.11 45.4788H226.024C226.094 45.4788 226.15 45.4225 226.15 45.353V43.6512C226.15 43.5817 226.094 43.5254 226.024 43.5254Z" fill="white"/>
<path d="M232.461 43.5254H231.547C231.477 43.5254 231.421 43.5817 231.421 43.6512V45.353C231.421 45.4225 231.477 45.4788 231.547 45.4788H232.461C232.53 45.4788 232.586 45.4225 232.586 45.353V43.6512C232.586 43.5817 232.53 43.5254 232.461 43.5254Z" fill="white"/>
<path d="M238.897 43.5254H237.983C237.914 43.5254 237.857 43.5817 237.857 43.6512V45.353C237.857 45.4225 237.914 45.4788 237.983 45.4788H238.897C238.966 45.4788 239.023 45.4225 239.023 45.353V43.6512C239.023 43.5817 238.966 43.5254 238.897 43.5254Z" fill="white"/>
<path d="M245.333 43.5254H244.42C244.35 43.5254 244.294 43.5817 244.294 43.6512V45.353C244.294 45.4225 244.35 45.4788 244.42 45.4788H245.333C245.403 45.4788 245.459 45.4225 245.459 45.353V43.6512C245.459 43.5817 245.403 43.5254 245.333 43.5254Z" fill="white"/>
<path d="M251.77 43.5254H250.856C250.787 43.5254 250.73 43.5817 250.73 43.6512V45.353C250.73 45.4225 250.787 45.4788 250.856 45.4788H251.77C251.839 45.4788 251.896 45.4225 251.896 45.353V43.6512C251.896 43.5817 251.839 43.5254 251.77 43.5254Z" fill="white"/>
<path d="M258.206 43.5254H257.292C257.223 43.5254 257.167 43.5817 257.167 43.6512V45.353C257.167 45.4225 257.223 45.4788 257.292 45.4788H258.206C258.276 45.4788 258.332 45.4225 258.332 45.353V43.6512C258.332 43.5817 258.276 43.5254 258.206 43.5254Z" fill="white"/>
<path d="M264.643 43.5254H263.729C263.659 43.5254 263.603 43.5817 263.603 43.6512V45.353C263.603 45.4225 263.659 45.4788 263.729 45.4788H264.643C264.712 45.4788 264.768 45.4225 264.768 45.353V43.6512C264.768 43.5817 264.712 43.5254 264.643 43.5254Z" fill="white"/>
</g>
<path d="M33.9124 33.4074C33.8872 33.0473 33.7261 32.7102 33.4618 32.4643C33.1975 32.2184 32.8497 32.0821 32.4887 32.083H31.8265C31.4655 32.0821 31.1177 32.2184 30.8534 32.4643C30.589 32.7102 30.428 33.0473 30.4028 33.4074L30.1909 35.8641H34.1044L33.9124 33.4074ZM32.3761 33.4603C32.3764 33.5391 32.3579 33.6168 32.3222 33.6871C32.2865 33.7573 32.2346 33.8181 32.1708 33.8643C32.1082 33.817 32.0571 33.756 32.0215 33.686C31.986 33.616 31.9668 33.5388 31.9656 33.4603C31.9677 33.3811 31.9872 33.3032 32.0227 33.2323C32.0581 33.1614 32.1087 33.0991 32.1708 33.0498C32.234 33.0981 32.2853 33.1602 32.3209 33.2313C32.3565 33.3025 32.3754 33.3808 32.3761 33.4603Z" fill="#142445"/>
<path opacity="0.3" d="M33.9125 33.4077C33.888 33.0478 33.7276 32.7106 33.464 32.4643C33.2003 32.218 32.853 32.0811 32.4922 32.0811C32.1314 32.0811 31.784 32.218 31.5204 32.4643C31.2567 32.7106 31.0964 33.0478 31.0718 33.4077L30.8533 35.8644H34.1642L33.9125 33.4077ZM32.4889 33.9838C32.3501 33.9838 32.2171 33.9287 32.119 33.8306C32.0208 33.7325 31.9657 33.5994 31.9657 33.4607C31.9657 33.3219 32.0208 33.1889 32.119 33.0908C32.2171 32.9927 32.3501 32.9376 32.4889 32.9376C32.6276 32.9376 32.7607 32.9927 32.8588 33.0908C32.9569 33.1889 33.012 33.3219 33.012 33.4607C33.012 33.5994 32.9569 33.7325 32.8588 33.8306C32.7607 33.9287 32.6276 33.9838 32.4889 33.9838Z" fill="white"/>
<path d="M80.8742 33.4074C80.8491 33.0484 80.689 32.7122 80.4261 32.4665C80.1632 32.2208 79.817 32.0838 79.4572 32.083H78.795C78.4352 32.0838 78.089 32.2208 77.8261 32.4665C77.5632 32.7122 77.403 33.0484 77.3779 33.4074L77.1594 35.864H81.0729L80.8742 33.4074ZM79.3446 33.4603C79.3436 33.5396 79.3239 33.6175 79.2871 33.6877C79.2502 33.7579 79.1974 33.8184 79.1327 33.8643C79.0701 33.817 79.019 33.756 78.9834 33.686C78.9478 33.616 78.9287 33.5388 78.9274 33.4603C78.9296 33.3811 78.9491 33.3032 78.9846 33.2323C79.02 33.1614 79.0706 33.0991 79.1327 33.0498C79.1968 33.0978 79.2491 33.1596 79.2858 33.2307C79.3225 33.3019 79.3426 33.3804 79.3446 33.4603Z" fill="#142445"/>
<path opacity="0.3" d="M80.8742 33.4077C80.8496 33.0478 80.6893 32.7106 80.4256 32.4643C80.162 32.218 79.8146 32.0811 79.4538 32.0811C79.0931 32.0811 78.7457 32.218 78.4821 32.4643C78.2184 32.7106 78.0581 33.0478 78.0335 33.4077L77.8149 35.8644H81.0927L80.8742 33.4077ZM79.4571 33.9838C79.3537 33.9838 79.2525 33.9531 79.1665 33.8956C79.0805 33.8382 79.0134 33.7565 78.9738 33.6609C78.9343 33.5653 78.9239 33.4601 78.9441 33.3586C78.9643 33.2571 79.0141 33.1639 79.0872 33.0908C79.1604 33.0176 79.2536 32.9678 79.3551 32.9476C79.4566 32.9274 79.5617 32.9378 79.6573 32.9774C79.7529 33.017 79.8346 33.084 79.8921 33.1701C79.9496 33.2561 79.9803 33.3572 79.9803 33.4607C79.9804 33.5317 79.966 33.6019 79.9381 33.6672C79.9101 33.7324 79.8692 33.7913 79.8178 33.8403C79.7664 33.8892 79.7056 33.9272 79.639 33.9519C79.5724 33.9765 79.5016 33.9874 79.4307 33.9838H79.4571Z" fill="white"/>
<path d="M127.843 33.4074C127.817 33.0473 127.656 32.7102 127.392 32.4643C127.128 32.2184 126.78 32.0821 126.419 32.083H125.757C125.396 32.0821 125.048 32.2184 124.784 32.4643C124.519 32.7102 124.358 33.0473 124.333 33.4074L124.115 35.8641H128.028L127.843 33.4074ZM126.306 33.4603C126.305 33.5388 126.286 33.616 126.25 33.686C126.215 33.756 126.164 33.817 126.101 33.8643C126.037 33.8181 125.985 33.7573 125.95 33.6871C125.914 33.6168 125.895 33.5391 125.896 33.4603C125.897 33.3808 125.915 33.3025 125.951 33.2313C125.987 33.1602 126.038 33.0981 126.101 33.0498C126.163 33.0991 126.214 33.1614 126.249 33.2323C126.285 33.3032 126.304 33.3811 126.306 33.4603Z" fill="#142445"/>
<path opacity="0.3" d="M127.843 33.4071C127.809 33.0532 127.644 32.7247 127.381 32.4857C127.117 32.2467 126.775 32.1143 126.419 32.1143C126.064 32.1143 125.721 32.2467 125.458 32.4857C125.194 32.7247 125.03 33.0532 124.995 33.4071L124.777 35.8638H128.088L127.843 33.4071ZM126.419 33.9832C126.316 33.9832 126.214 33.9525 126.128 33.895C126.042 33.8375 125.975 33.7558 125.936 33.6602C125.896 33.5647 125.886 33.4595 125.906 33.358C125.926 33.2565 125.976 33.1633 126.049 33.0902C126.122 33.017 126.216 32.9672 126.317 32.947C126.418 32.9268 126.524 32.9372 126.619 32.9768C126.715 33.0164 126.797 33.0834 126.854 33.1694C126.912 33.2555 126.942 33.3566 126.942 33.4601C126.942 33.5943 126.891 33.7235 126.798 33.8209C126.706 33.9183 126.58 33.9764 126.446 33.9832H126.419Z" fill="white"/>
<path d="M174.785 33.4074C174.76 33.0473 174.598 32.7102 174.334 32.4643C174.07 32.2184 173.722 32.0821 173.361 32.083H172.699C172.338 32.0821 171.99 32.2184 171.726 32.4643C171.461 32.7102 171.3 33.0473 171.275 33.4074L171.057 35.8641H174.977L174.785 33.4074ZM173.248 33.4603C173.249 33.5391 173.23 33.6168 173.195 33.6871C173.159 33.7573 173.107 33.8181 173.043 33.8643C172.981 33.817 172.929 33.756 172.894 33.686C172.858 33.616 172.839 33.5388 172.838 33.4603C172.84 33.3811 172.86 33.3032 172.895 33.2323C172.93 33.1614 172.981 33.0991 173.043 33.0498C173.11 33.096 173.165 33.1572 173.204 33.2285C173.243 33.2997 173.265 33.3791 173.268 33.4603H173.248Z" fill="#142445"/>
<path opacity="0.3" d="M174.785 33.4077C174.76 33.0478 174.6 32.7106 174.336 32.4643C174.072 32.218 173.725 32.0811 173.364 32.0811C173.003 32.0811 172.656 32.218 172.392 32.4643C172.129 32.7106 171.968 33.0478 171.944 33.4077L171.725 35.8644H175.003L174.785 33.4077ZM173.361 33.9838C173.222 33.9838 173.089 33.9287 172.991 33.8306C172.893 33.7325 172.838 33.5994 172.838 33.4607C172.838 33.3219 172.893 33.1889 172.991 33.0908C173.089 32.9927 173.222 32.9376 173.361 32.9376C173.5 32.9376 173.633 32.9927 173.731 33.0908C173.829 33.1889 173.884 33.3219 173.884 33.4607C173.884 33.5994 173.829 33.7325 173.731 33.8306C173.633 33.9287 173.5 33.9838 173.361 33.9838Z" fill="white"/>
<path d="M174.785 34.5195H30.2837L21.7615 45.1806H77.6097H183.181L174.785 34.5195ZM51.394 36.0558H58.9031L49.136 42.7306L51.394 36.0558ZM47.613 42.7306L42.3486 36.0558H49.8445L47.613 42.7306ZM30.8267 36.0558H38.3226L28.5753 42.7306L30.8267 36.0558ZM39.2563 36.9961L37.0115 43.6576H29.509L39.2563 36.9961ZM40.7859 36.9961L46.037 43.6576H38.5411L40.7859 36.9961ZM59.8169 36.9961L57.5788 43.6576H50.0697L59.8169 36.9961ZM61.3466 36.9961L66.5977 43.6576H59.1018L61.3466 36.9961ZM62.9159 36.0558H70.4118L68.1737 42.7306L62.9159 36.0558ZM71.9415 36.0558H79.4307L69.6967 42.7306L71.9415 36.0558ZM113.063 36.0558H120.559L110.811 42.7306L113.063 36.0558ZM109.282 42.7306L104.031 36.0558H111.527L109.282 42.7306ZM92.5021 36.0558H99.998L90.2507 42.7306L92.5021 36.0558ZM88.7012 42.7306L83.4501 36.0558H90.9526L88.7012 42.7306ZM100.912 36.9961L98.6869 43.6576H91.1844L100.912 36.9961ZM102.441 36.9961L107.712 43.6576H100.217L102.441 36.9961ZM121.473 36.9961L119.241 43.6576H111.745L121.473 36.9961ZM123.002 36.9961L128.273 43.6576H120.777L123.002 36.9961ZM124.572 36.0558H132.067L129.823 42.7306L124.572 36.0558ZM133.597 36.0558H141.1L131.372 42.7306L133.597 36.0558ZM154.125 36.0558H161.673L151.926 42.7306L154.125 36.0558ZM150.344 42.7306L145.092 36.0558H152.595L150.344 42.7306ZM162.554 36.9961L160.362 43.6576H152.86L162.554 36.9961ZM164.084 36.9961L169.388 43.6576H161.892L164.084 36.9961ZM165.653 36.0558H173.149L170.904 42.7306L165.653 36.0558ZM27.7807 40.5255L26.7278 43.6576H25.2909L27.7807 40.5255ZM70.6237 43.6709L80.371 36.9961L78.1063 43.6576L70.6237 43.6709ZM81.8808 36.9961L87.1583 43.6576H79.6558L81.8808 36.9961ZM132.306 43.6576L142.053 36.9828L139.802 43.6576H132.306ZM143.563 36.9828L148.834 43.6576H141.331L143.563 36.9828ZM172.169 43.6576L174.42 36.9828L179.671 43.6576H172.169Z" fill="#142445"/>
<path opacity="0.4" d="M174.785 34.5195H30.2837L21.7615 45.1806H77.6097H183.181L174.785 34.5195ZM51.394 36.0558H58.9031L49.136 42.7306L51.394 36.0558ZM47.613 42.7306L42.3486 36.0558H49.8445L47.613 42.7306ZM30.8267 36.0558H38.3226L28.5753 42.7306L30.8267 36.0558ZM39.2563 36.9961L37.0115 43.6576H29.509L39.2563 36.9961ZM40.7859 36.9961L46.037 43.6576H38.5411L40.7859 36.9961ZM59.8169 36.9961L57.5788 43.6576H50.0697L59.8169 36.9961ZM61.3466 36.9961L66.5977 43.6576H59.1018L61.3466 36.9961ZM62.9159 36.0558H70.4118L68.1737 42.7306L62.9159 36.0558ZM71.9415 36.0558H79.4307L69.6967 42.7306L71.9415 36.0558ZM113.063 36.0558H120.559L110.811 42.7306L113.063 36.0558ZM109.282 42.7306L104.031 36.0558H111.527L109.282 42.7306ZM92.5021 36.0558H99.998L90.2507 42.7306L92.5021 36.0558ZM88.7012 42.7306L83.4501 36.0558H90.9526L88.7012 42.7306ZM100.912 36.9961L98.6869 43.6576H91.1844L100.912 36.9961ZM102.441 36.9961L107.712 43.6576H100.217L102.441 36.9961ZM121.473 36.9961L119.241 43.6576H111.745L121.473 36.9961ZM123.002 36.9961L128.273 43.6576H120.777L123.002 36.9961ZM124.572 36.0558H132.067L129.823 42.7306L124.572 36.0558ZM133.597 36.0558H141.1L131.372 42.7306L133.597 36.0558ZM154.125 36.0558H161.673L151.926 42.7306L154.125 36.0558ZM150.344 42.7306L145.092 36.0558H152.595L150.344 42.7306ZM162.554 36.9961L160.362 43.6576H152.86L162.554 36.9961ZM164.084 36.9961L169.388 43.6576H161.892L164.084 36.9961ZM165.653 36.0558H173.149L170.904 42.7306L165.653 36.0558ZM27.7807 40.5255L26.7278 43.6576H25.2909L27.7807 40.5255ZM70.6237 43.6709L80.371 36.9961L78.1063 43.6576L70.6237 43.6709ZM81.8808 36.9961L87.1583 43.6576H79.6558L81.8808 36.9961ZM132.306 43.6576L142.053 36.9828L139.802 43.6576H132.306ZM143.563 36.9828L148.834 43.6576H141.331L143.563 36.9828ZM172.169 43.6576L174.42 36.9828L179.671 43.6576H172.169Z" fill="black"/>
<path d="M175.056 34.7116L174.778 34.5195H30.2837L30.1314 34.7116L21.7615 45.1806H127.333H183.181L175.056 34.7116ZM135.584 43.6576H128.088L133.385 37.0358L135.584 43.6576ZM134.921 37.0358L144.596 43.6576H137.113L134.921 37.0358ZM135.868 36.0955H143.364L145.536 42.757L135.868 36.0955ZM144.894 36.0955H152.396L147.066 42.757L144.894 36.0955ZM153.946 37.0358L156.124 43.6576H148.642L153.946 37.0358ZM155.482 37.0358L165.15 43.6576H157.674L155.482 37.0358ZM156.422 36.0955H163.925L166.097 42.757L156.422 36.0955ZM165.454 36.0955H172.95L167.653 42.757L165.454 36.0955ZM174.506 37.0358L176.678 43.6576H169.202L174.506 37.0358ZM177.202 40.605L179.652 43.7172H178.215L177.202 40.605ZM131.836 36.0955L126.538 42.757L124.36 36.0955H131.836ZM73.9081 43.6576H66.4123L71.7097 37.0358L73.9081 43.6576ZM73.246 37.0358L82.9204 43.6576H75.4576L73.246 37.0358ZM74.1929 36.0955H81.6887L83.8607 42.757L74.1929 36.0955ZM83.2184 36.0955H90.7209L85.3903 42.7107L83.2184 36.0955ZM92.277 37.0358L94.4489 43.6576H86.9663L92.277 37.0358ZM93.8066 37.0358L103.474 43.6576H95.9852L93.8066 37.0358ZM94.7469 36.0955H102.249L104.421 42.757L94.7469 36.0955ZM103.779 36.0955H111.275L105.977 42.757L103.779 36.0955ZM112.831 37.0358L115.003 43.6576H107.527L112.831 37.0358ZM114.361 37.0358L124.035 43.6576H116.559L114.361 37.0358ZM124.956 42.757L115.288 36.0955H122.784L124.956 42.757ZM70.1602 36.0492L64.8628 42.7107L62.6842 36.0492H70.1602ZM30.6016 36.9895L32.7735 43.6113H25.2909L30.6016 36.9895ZM32.1312 36.9895L41.799 43.6113H34.323L32.1312 36.9895ZM33.0781 36.0492H40.5939L42.7658 42.7107L33.0781 36.0492ZM42.1103 36.0492H49.6326L44.3352 42.7107L42.1103 36.0492ZM51.1623 36.9895L53.3342 43.6113H45.8516L51.1623 36.9895ZM52.6919 36.9895L62.3663 43.6113H54.8837L52.6919 36.9895ZM63.2868 42.7107L53.6189 36.0492H61.1148L63.2868 42.7107Z" fill="#142445"/>
<path opacity="0.3" d="M175.056 34.7116L174.778 34.5195H30.2839L33.9921 45.1806H127.359H183.208L175.056 34.7116ZM135.584 43.6576H128.088L133.385 37.0358L135.584 43.6576ZM134.921 37.0358L144.596 43.6576H137.113L134.921 37.0358ZM135.868 36.0955H143.364L145.536 42.757L135.868 36.0955ZM144.894 36.0955H152.396L147.066 42.757L144.894 36.0955ZM153.946 37.0358L156.125 43.6576H148.642L153.946 37.0358ZM155.482 37.0358L165.15 43.6576H157.674L155.482 37.0358ZM156.422 36.0955H163.925L166.097 42.757L156.422 36.0955ZM165.455 36.0955H172.951L167.653 42.757L165.455 36.0955ZM174.507 37.0358L176.679 43.6576H169.203L174.507 37.0358ZM177.202 40.605L179.652 43.7172H178.215L177.202 40.605ZM131.836 36.0955L126.538 42.757L124.36 36.0955H131.836ZM73.9083 43.6576H66.4124L71.7098 37.0358L73.9083 43.6576ZM73.2461 37.0358L82.9205 43.6576H75.4578L73.2461 37.0358ZM74.193 36.0955H81.6889L83.8608 42.757L74.193 36.0955ZM83.2185 36.0955H90.721L85.3905 42.7107L83.2185 36.0955ZM92.2771 37.0358L94.4491 43.6576H86.9664L92.2771 37.0358ZM93.8068 37.0358L103.475 43.6576H95.9853L93.8068 37.0358ZM94.7471 36.0955H102.25L104.422 42.757L94.7471 36.0955ZM103.779 36.0955H111.275L105.978 42.757L103.779 36.0955ZM112.831 37.0358L115.003 43.6576H107.527L112.831 37.0358ZM114.361 37.0358L124.035 43.6576H116.559L114.361 37.0358ZM124.956 42.757L115.288 36.0955H122.784L124.956 42.757ZM70.1603 36.0492L64.8629 42.7107L62.6843 36.0492H70.1603ZM30.6017 36.9895L32.7736 43.6113H25.291L30.6017 36.9895ZM32.1313 36.9895L41.7992 43.6113H34.3231L32.1313 36.9895ZM33.0783 36.0492H40.594L42.7659 42.7107L33.0783 36.0492ZM42.1104 36.0492H49.6327L44.3353 42.7107L42.1104 36.0492ZM51.1624 36.9895L53.3343 43.6113H45.8517L51.1624 36.9895ZM52.692 36.9895L62.3665 43.6113H54.8838L52.692 36.9895ZM63.2869 42.7107L53.6191 36.0492H61.1149L63.2869 42.7107Z" fill="white"/>
<path d="M132.011 29.4047L128.122 31.4268L129.005 33.1247L132.894 31.1026L132.011 29.4047Z" fill="#263238"/>
<path d="M126.247 33.8241C126.205 33.825 126.162 33.8175 126.123 33.8019C126.084 33.7863 126.048 33.763 126.018 33.7334C125.988 33.7038 125.964 33.6685 125.947 33.6295C125.931 33.5905 125.922 33.5486 125.922 33.5063C125.924 33.4214 125.959 33.3406 126.02 33.2811C126.08 33.2217 126.162 33.1884 126.247 33.1885C126.593 33.1936 126.935 33.1188 127.247 32.9699C127.32 32.9278 127.408 32.9167 127.49 32.939C127.572 32.9614 127.642 33.0154 127.684 33.0891C127.726 33.1629 127.737 33.2504 127.715 33.3323C127.692 33.4143 127.638 33.484 127.565 33.5262C127.154 33.7264 126.703 33.8285 126.247 33.8241Z" fill="#263238"/>
<path d="M59.2144 44.4326H37.1837C36.9643 44.4326 36.7864 44.6105 36.7864 44.8299V46.3463C36.7864 46.5657 36.9643 46.7436 37.1837 46.7436H59.2144C59.4338 46.7436 59.6117 46.5657 59.6117 46.3463V44.8299C59.6117 44.6105 59.4338 44.4326 59.2144 44.4326Z" fill="#263238"/>
<path opacity="0.3" d="M59.2145 44.4326H37.8194C37.6 44.4326 37.4221 44.6105 37.4221 44.8299V46.3463C37.4221 46.5657 37.6 46.7436 37.8194 46.7436H59.2145C59.4339 46.7436 59.6118 46.5657 59.6118 46.3463V44.8299C59.6118 44.6105 59.4339 44.4326 59.2145 44.4326Z" fill="white"/>
<path d="M71.7922 164H41.2404C41.2063 164.002 41.1724 163.992 41.1413 163.969C41.1102 163.947 41.0827 163.913 41.061 163.87C41.0387 163.827 41.0219 163.777 41.0116 163.724C41.0014 163.67 40.9978 163.614 41.0013 163.558L46.6733 101.335C46.6803 101.257 46.7019 101.184 46.7351 101.126C46.7683 101.068 46.8116 101.028 46.8592 101.011C46.9064 100.992 46.9562 100.997 47.0015 101.026C47.0468 101.055 47.0853 101.107 47.1116 101.173L71.9649 163.396C71.9878 163.456 72 163.525 72 163.595C72 163.666 71.9878 163.735 71.9649 163.795C71.9475 163.848 71.9229 163.894 71.893 163.929C71.8631 163.965 71.8286 163.989 71.7922 164ZM41.5459 163.223H71.3538L47.0851 102.467L41.5459 163.223Z" fill="#263238"/>
<path d="M102 164H5V166H102V164Z" fill="#263238"/>
<path opacity="0.3" d="M102 164H40V166H102V164Z" fill="white"/>
<path d="M200.649 0.749238V4.21906C200.649 4.41752 200.571 4.60784 200.43 4.74816C200.29 4.88849 200.1 4.96733 199.901 4.96733H187.982C187.783 4.96733 187.592 4.88871 187.45 4.74857C187.309 4.60843 187.229 4.41812 187.227 4.21906V0.749238C187.229 0.55018 187.309 0.359869 187.45 0.21973C187.592 0.0795901 187.783 0.000968904 187.982 0.000976563H199.901C200.1 0.000976563 200.29 0.0798122 200.43 0.220139C200.571 0.360465 200.649 0.550786 200.649 0.749238Z" fill="#142445"/>
<path opacity="0.3" d="M200.649 0.749238V4.21906C200.649 4.41752 200.57 4.60784 200.43 4.74816C200.29 4.88849 200.099 4.96733 199.901 4.96733H188.611C188.412 4.96733 188.221 4.88871 188.079 4.74857C187.938 4.60843 187.858 4.41812 187.856 4.21906V0.749238C187.858 0.55018 187.938 0.359869 188.079 0.21973C188.221 0.0795901 188.412 0.000968904 188.611 0.000976563H199.901C200.099 0.000976563 200.29 0.0798122 200.43 0.220139C200.57 0.360465 200.649 0.550786 200.649 0.749238Z" fill="white"/>
<path d="M210.609 27.2158H194.054C193.583 27.2166 193.127 27.3777 192.76 27.6726C192.393 27.9675 192.137 28.3785 192.035 28.8382L189.79 38.943C189.761 39.0914 189.745 39.2421 189.743 39.3933V43.7836C189.743 44.3333 189.962 44.8604 190.35 45.2491C190.739 45.6378 191.266 45.8562 191.816 45.8562H210.609C211.157 45.8544 211.683 45.6353 212.07 45.2468C212.457 44.8583 212.675 44.3321 212.675 43.7836V29.2884C212.675 28.7399 212.457 28.2137 212.07 27.8252C211.683 27.4367 211.157 27.2176 210.609 27.2158Z" fill="#142445"/>
<path opacity="0.2" d="M200.696 27.2158C200.225 27.2166 199.768 27.3777 199.401 27.6726C199.034 27.9675 198.778 28.3785 198.676 28.8382L196.438 38.943C196.404 39.0907 196.386 39.2417 196.385 39.3933V43.7836C196.385 44.3333 196.603 44.8604 196.992 45.2491C197.381 45.6378 197.908 45.8562 198.458 45.8562H191.836C191.286 45.8562 190.759 45.6378 190.37 45.2491C189.982 44.8604 189.763 44.3333 189.763 43.7836V39.3933C189.764 39.2417 189.782 39.0907 189.816 38.943L192.054 28.8382C192.157 28.3785 192.412 27.9675 192.779 27.6726C193.147 27.3777 193.603 27.2166 194.074 27.2158H200.696Z" fill="black"/>
<path d="M198.789 27.6397C198.396 27.9345 198.122 28.3593 198.014 28.8382L195.776 38.9431C195.741 39.0907 195.724 39.2418 195.723 39.3933V42.9956H190.174V39.8171C190.172 39.6658 190.188 39.5148 190.22 39.3669L192.538 28.9044C192.618 28.5447 192.818 28.2232 193.106 27.9932C193.394 27.7632 193.752 27.6384 194.12 27.6397H198.789Z" fill="#263238"/>
<path d="M203.921 27.8779H200.709C200.388 27.8779 200.076 27.9875 199.826 28.1886C199.575 28.3896 199.401 28.6702 199.332 28.9838L197.166 38.7708H203.921V27.8779Z" fill="#263238"/>
<path d="M207.549 27.8779H204.444V38.7708L207.496 37.0756C207.655 36.9864 207.787 36.8565 207.879 36.6995C207.971 36.5424 208.019 36.3637 208.019 36.1817V28.3481C208.019 28.2863 208.007 28.2252 207.984 28.1682C207.96 28.1111 207.925 28.0593 207.882 28.0156C207.838 27.972 207.786 27.9373 207.729 27.9137C207.672 27.8901 207.611 27.8779 207.549 27.8779Z" fill="#263238"/>
<path d="M6.72 181.176C5.472 181.176 4.4 180.936 3.504 180.456C2.608 179.976 1.92 179.299 1.44 178.424C0.970667 177.549 0.736 176.525 0.736 175.352C0.736 174.477 0.869333 173.683 1.136 172.968C1.41333 172.253 1.808 171.64 2.32 171.128C2.84267 170.616 3.472 170.227 4.208 169.96C4.95467 169.683 5.792 169.544 6.72 169.544C7.21067 169.544 7.71733 169.603 8.24 169.72C8.77333 169.827 9.24267 169.992 9.648 170.216C9.94667 170.376 10.1547 170.579 10.272 170.824C10.3893 171.069 10.4267 171.32 10.384 171.576C10.352 171.832 10.2613 172.061 10.112 172.264C9.96267 172.467 9.77067 172.605 9.536 172.68C9.30133 172.744 9.04533 172.707 8.768 172.568C8.448 172.419 8.128 172.307 7.808 172.232C7.49867 172.147 7.17333 172.104 6.832 172.104C6.17067 172.104 5.616 172.232 5.168 172.488C4.73067 172.733 4.4 173.096 4.176 173.576C3.952 174.056 3.84 174.648 3.84 175.352C3.84 176.056 3.952 176.653 4.176 177.144C4.4 177.624 4.73067 177.992 5.168 178.248C5.616 178.493 6.17067 178.616 6.832 178.616C7.10933 178.616 7.408 178.584 7.728 178.52C8.048 178.445 8.36267 178.333 8.672 178.184C8.992 178.045 9.27467 178.008 9.52 178.072C9.776 178.136 9.97867 178.264 10.128 178.456C10.288 178.648 10.3893 178.872 10.432 179.128C10.4747 179.373 10.4373 179.619 10.32 179.864C10.2133 180.109 10.0213 180.307 9.744 180.456C9.37067 180.68 8.90667 180.856 8.352 180.984C7.808 181.112 7.264 181.176 6.72 181.176ZM15.2691 181.176C14.3945 181.176 13.6318 181.011 12.9811 180.68C12.3305 180.349 11.8238 179.875 11.4611 179.256C11.0985 178.637 10.9171 177.907 10.9171 177.064C10.9171 176.424 11.0185 175.853 11.2211 175.352C11.4238 174.84 11.7171 174.408 12.1011 174.056C12.4851 173.693 12.9438 173.421 13.4771 173.24C14.0105 173.048 14.6078 172.952 15.2691 172.952C16.1438 172.952 16.9065 173.117 17.5571 173.448C18.2078 173.779 18.7091 174.253 19.0611 174.872C19.4238 175.48 19.6051 176.211 19.6051 177.064C19.6051 177.693 19.5038 178.264 19.3011 178.776C19.0985 179.288 18.8051 179.725 18.4211 180.088C18.0478 180.44 17.5891 180.712 17.0451 180.904C16.5118 181.085 15.9198 181.176 15.2691 181.176ZM15.2691 179.08C15.5571 179.08 15.8131 179.011 16.0371 178.872C16.2611 178.723 16.4318 178.504 16.5491 178.216C16.6771 177.917 16.7411 177.533 16.7411 177.064C16.7411 176.349 16.6025 175.837 16.3251 175.528C16.0478 175.208 15.6958 175.048 15.2691 175.048C14.9811 175.048 14.7251 175.117 14.5011 175.256C14.2771 175.395 14.1011 175.613 13.9731 175.912C13.8451 176.2 13.7811 176.584 13.7811 177.064C13.7811 177.768 13.9198 178.28 14.1971 178.6C14.4745 178.92 14.8318 179.08 15.2691 179.08ZM22.3501 181.144C21.9021 181.144 21.5555 181.021 21.3101 180.776C21.0648 180.531 20.9421 180.173 20.9421 179.704V174.408C20.9421 173.949 21.0595 173.597 21.2941 173.352C21.5395 173.107 21.8861 172.984 22.3341 172.984C22.7821 172.984 23.1235 173.107 23.3581 173.352C23.5928 173.597 23.7101 173.949 23.7101 174.408V175.288L23.5341 174.504C23.7581 174.035 24.0888 173.661 24.5261 173.384C24.9741 173.096 25.5021 172.952 26.1101 172.952C26.6861 172.952 27.1768 173.091 27.5821 173.368C27.9981 173.645 28.2968 174.067 28.4781 174.632H28.2541C28.4995 174.109 28.8675 173.699 29.3581 173.4C29.8488 173.101 30.3928 172.952 30.9901 172.952C31.6088 172.952 32.1155 173.075 32.5101 173.32C32.9048 173.555 33.1981 173.928 33.3901 174.44C33.5928 174.941 33.6941 175.576 33.6941 176.344V179.704C33.6941 180.173 33.5661 180.531 33.3101 180.776C33.0648 181.021 32.7128 181.144 32.2541 181.144C31.8061 181.144 31.4595 181.021 31.2141 180.776C30.9688 180.531 30.8461 180.173 30.8461 179.704V176.424C30.8461 175.965 30.7768 175.635 30.6381 175.432C30.4995 175.229 30.2701 175.128 29.9501 175.128C29.5555 175.128 29.2515 175.267 29.0381 175.544C28.8355 175.821 28.7341 176.216 28.7341 176.728V179.704C28.7341 180.173 28.6115 180.531 28.3661 180.776C28.1208 181.021 27.7688 181.144 27.3101 181.144C26.8515 181.144 26.4995 181.021 26.2541 180.776C26.0088 180.531 25.8861 180.173 25.8861 179.704V176.424C25.8861 175.965 25.8168 175.635 25.6781 175.432C25.5395 175.229 25.3101 175.128 24.9901 175.128C24.6061 175.128 24.3075 175.267 24.0941 175.544C23.8915 175.821 23.7901 176.216 23.7901 176.728V179.704C23.7901 180.664 23.3101 181.144 22.3501 181.144ZM36.7556 181.144C36.3076 181.144 35.961 181.011 35.7156 180.744C35.4703 180.477 35.3476 180.093 35.3476 179.592V174.536C35.3476 174.035 35.4703 173.651 35.7156 173.384C35.961 173.117 36.3076 172.984 36.7556 172.984C37.2143 172.984 37.5663 173.117 37.8116 173.384C38.0676 173.651 38.1956 174.035 38.1956 174.536V179.592C38.1956 180.093 38.073 180.477 37.8276 180.744C37.5823 181.011 37.225 181.144 36.7556 181.144ZM36.7556 171.848C36.2543 171.848 35.865 171.731 35.5876 171.496C35.321 171.261 35.1876 170.92 35.1876 170.472C35.1876 170.035 35.321 169.699 35.5876 169.464C35.865 169.229 36.2543 169.112 36.7556 169.112C37.2783 169.112 37.673 169.229 37.9396 169.464C38.2063 169.699 38.3396 170.035 38.3396 170.472C38.3396 170.92 38.2063 171.261 37.9396 171.496C37.673 171.731 37.2783 171.848 36.7556 171.848ZM41.2556 181.144C40.8076 181.144 40.461 181.021 40.2156 180.776C39.9703 180.531 39.8476 180.173 39.8476 179.704V174.408C39.8476 173.949 39.965 173.597 40.1996 173.352C40.445 173.107 40.7916 172.984 41.2396 172.984C41.6876 172.984 42.029 173.107 42.2636 173.352C42.4983 173.597 42.6156 173.949 42.6156 174.408V175.16L42.4396 174.504C42.6956 174.003 43.0583 173.619 43.5276 173.352C44.0076 173.085 44.5516 172.952 45.1596 172.952C45.789 172.952 46.3063 173.075 46.7116 173.32C47.117 173.555 47.421 173.928 47.6236 174.44C47.8263 174.941 47.9276 175.576 47.9276 176.344V179.704C47.9276 180.173 47.805 180.531 47.5596 180.776C47.3143 181.021 46.9623 181.144 46.5036 181.144C46.045 181.144 45.693 181.021 45.4476 180.776C45.2023 180.531 45.0796 180.173 45.0796 179.704V176.456C45.0796 175.976 44.9943 175.635 44.8236 175.432C44.6636 175.229 44.4236 175.128 44.1036 175.128C43.677 175.128 43.3356 175.267 43.0796 175.544C42.8236 175.811 42.6956 176.173 42.6956 176.632V179.704C42.6956 180.664 42.2156 181.144 41.2556 181.144ZM53.4548 184.056C52.8681 184.056 52.3188 184.013 51.8068 183.928C51.2948 183.853 50.8521 183.741 50.4788 183.592C50.1694 183.485 49.9508 183.331 49.8228 183.128C49.6948 182.925 49.6361 182.712 49.6468 182.488C49.6574 182.264 49.7161 182.061 49.8228 181.88C49.9401 181.699 50.0948 181.565 50.2868 181.48C50.4788 181.405 50.6921 181.411 50.9268 181.496C51.3961 181.688 51.8228 181.811 52.2068 181.864C52.5908 181.928 52.9161 181.96 53.1828 181.96C53.8334 181.96 54.3188 181.821 54.6388 181.544C54.9694 181.277 55.1348 180.856 55.1348 180.28V179.272H55.2628C55.1028 179.72 54.7774 180.088 54.2868 180.376C53.7961 180.653 53.2628 180.792 52.6868 180.792C51.9828 180.792 51.3694 180.632 50.8468 180.312C50.3241 179.981 49.9134 179.523 49.6148 178.936C49.3268 178.349 49.1828 177.661 49.1828 176.872C49.1828 176.275 49.2681 175.736 49.4388 175.256C49.6094 174.776 49.8441 174.365 50.1428 174.024C50.4521 173.683 50.8201 173.421 51.2468 173.24C51.6841 173.048 52.1641 172.952 52.6868 172.952C53.2841 172.952 53.8174 173.091 54.2868 173.368C54.7668 173.645 55.0868 174.008 55.2468 174.456L55.0868 175.112V174.408C55.0868 173.949 55.2094 173.597 55.4548 173.352C55.7108 173.107 56.0628 172.984 56.5108 172.984C56.9588 172.984 57.3001 173.107 57.5347 173.352C57.7801 173.597 57.9028 173.949 57.9028 174.408V179.944C57.9028 181.309 57.5188 182.333 56.7508 183.016C55.9828 183.709 54.8841 184.056 53.4548 184.056ZM53.5668 178.696C53.8868 178.696 54.1588 178.627 54.3828 178.488C54.6068 178.339 54.7828 178.131 54.9108 177.864C55.0388 177.587 55.1028 177.256 55.1028 176.872C55.1028 176.296 54.9641 175.848 54.6868 175.528C54.4094 175.208 54.0361 175.048 53.5668 175.048C53.2681 175.048 53.0014 175.123 52.7668 175.272C52.5321 175.411 52.3508 175.619 52.2228 175.896C52.1054 176.163 52.0468 176.488 52.0468 176.872C52.0468 177.448 52.1854 177.896 52.4628 178.216C52.7401 178.536 53.1081 178.696 53.5668 178.696ZM68.5285 181.176C68.1018 181.176 67.6538 181.144 67.1845 181.08C66.7258 181.027 66.2885 180.941 65.8725 180.824C65.4565 180.707 65.0832 180.568 64.7525 180.408C64.4645 180.269 64.2618 180.088 64.1445 179.864C64.0272 179.629 63.9845 179.384 64.0165 179.128C64.0485 178.872 64.1392 178.648 64.2885 178.456C64.4378 178.253 64.6352 178.12 64.8805 178.056C65.1258 177.981 65.4032 178.013 65.7125 178.152C66.1178 178.344 66.5765 178.493 67.0885 178.6C67.6005 178.707 68.0805 178.76 68.5285 178.76C69.2325 178.76 69.7232 178.669 70.0005 178.488C70.2885 178.296 70.4325 178.061 70.4325 177.784C70.4325 177.539 70.3312 177.341 70.1285 177.192C69.9365 177.043 69.5898 176.915 69.0885 176.808L67.2165 176.408C66.1925 176.195 65.4298 175.821 64.9285 175.288C64.4272 174.755 64.1765 174.067 64.1765 173.224C64.1765 172.669 64.2885 172.168 64.5125 171.72C64.7472 171.261 65.0725 170.872 65.4885 170.552C65.9152 170.232 66.4165 169.987 66.9925 169.816C67.5792 169.635 68.2298 169.544 68.9445 169.544C69.4992 169.544 70.0592 169.608 70.6245 169.736C71.2005 169.853 71.6965 170.035 72.1125 170.28C72.3578 170.408 72.5338 170.584 72.6405 170.808C72.7472 171.032 72.7898 171.267 72.7685 171.512C72.7472 171.747 72.6618 171.955 72.5125 172.136C72.3738 172.317 72.1818 172.44 71.9365 172.504C71.7018 172.557 71.4192 172.515 71.0885 172.376C70.7792 172.237 70.4272 172.136 70.0325 172.072C69.6485 171.997 69.2752 171.96 68.9125 171.96C68.5178 171.96 68.1818 172.008 67.9045 172.104C67.6272 172.189 67.4138 172.317 67.2645 172.488C67.1258 172.659 67.0565 172.856 67.0565 173.08C67.0565 173.304 67.1472 173.496 67.3285 173.656C67.5205 173.805 67.8672 173.933 68.3685 174.04L70.2245 174.44C71.2592 174.664 72.0325 175.032 72.5445 175.544C73.0565 176.056 73.3125 176.723 73.3125 177.544C73.3125 178.099 73.2005 178.6 72.9765 179.048C72.7525 179.496 72.4325 179.88 72.0165 180.2C71.6005 180.509 71.0992 180.749 70.5125 180.92C69.9258 181.091 69.2645 181.176 68.5285 181.176ZM78.5504 181.176C77.6757 181.176 76.913 181.011 76.2624 180.68C75.6117 180.349 75.105 179.875 74.7424 179.256C74.3797 178.637 74.1984 177.907 74.1984 177.064C74.1984 176.424 74.2997 175.853 74.5024 175.352C74.705 174.84 74.9984 174.408 75.3824 174.056C75.7664 173.693 76.225 173.421 76.7584 173.24C77.2917 173.048 77.889 172.952 78.5504 172.952C79.425 172.952 80.1877 173.117 80.8384 173.448C81.489 173.779 81.9904 174.253 82.3424 174.872C82.705 175.48 82.8864 176.211 82.8864 177.064C82.8864 177.693 82.785 178.264 82.5824 178.776C82.3797 179.288 82.0864 179.725 81.7024 180.088C81.329 180.44 80.8704 180.712 80.3264 180.904C79.793 181.085 79.201 181.176 78.5504 181.176ZM78.5504 179.08C78.8384 179.08 79.0944 179.011 79.3184 178.872C79.5424 178.723 79.713 178.504 79.8304 178.216C79.9584 177.917 80.0224 177.533 80.0224 177.064C80.0224 176.349 79.8837 175.837 79.6064 175.528C79.329 175.208 78.977 175.048 78.5504 175.048C78.2624 175.048 78.0064 175.117 77.7824 175.256C77.5584 175.395 77.3824 175.613 77.2544 175.912C77.1264 176.2 77.0624 176.584 77.0624 177.064C77.0624 177.768 77.201 178.28 77.4784 178.6C77.7557 178.92 78.113 179.08 78.5504 179.08ZM88.1754 181.176C87.3007 181.176 86.538 181.011 85.8874 180.68C85.2367 180.349 84.73 179.875 84.3674 179.256C84.0047 178.637 83.8234 177.907 83.8234 177.064C83.8234 176.424 83.9247 175.853 84.1274 175.352C84.33 174.84 84.6234 174.408 85.0074 174.056C85.3914 173.693 85.85 173.421 86.3834 173.24C86.9167 173.048 87.514 172.952 88.1754 172.952C89.05 172.952 89.8127 173.117 90.4634 173.448C91.114 173.779 91.6154 174.253 91.9674 174.872C92.33 175.48 92.5114 176.211 92.5114 177.064C92.5114 177.693 92.41 178.264 92.2074 178.776C92.0047 179.288 91.7114 179.725 91.3274 180.088C90.954 180.44 90.4954 180.712 89.9514 180.904C89.418 181.085 88.826 181.176 88.1754 181.176ZM88.1754 179.08C88.4634 179.08 88.7194 179.011 88.9434 178.872C89.1674 178.723 89.338 178.504 89.4554 178.216C89.5834 177.917 89.6474 177.533 89.6474 177.064C89.6474 176.349 89.5087 175.837 89.2314 175.528C88.954 175.208 88.602 175.048 88.1754 175.048C87.8874 175.048 87.6314 175.117 87.4074 175.256C87.1834 175.395 87.0074 175.613 86.8794 175.912C86.7514 176.2 86.6874 176.584 86.6874 177.064C86.6874 177.768 86.826 178.28 87.1034 178.6C87.3807 178.92 87.738 179.08 88.1754 179.08ZM95.2244 181.144C94.7764 181.144 94.4297 181.021 94.1844 180.776C93.939 180.531 93.8164 180.173 93.8164 179.704V174.408C93.8164 173.949 93.9337 173.597 94.1684 173.352C94.4137 173.107 94.7604 172.984 95.2084 172.984C95.6564 172.984 95.9977 173.107 96.2324 173.352C96.467 173.597 96.5844 173.949 96.5844 174.408V175.16L96.4084 174.504C96.6644 174.003 97.027 173.619 97.4964 173.352C97.9764 173.085 98.5204 172.952 99.1284 172.952C99.7577 172.952 100.275 173.075 100.68 173.32C101.086 173.555 101.39 173.928 101.592 174.44C101.795 174.941 101.896 175.576 101.896 176.344V179.704C101.896 180.173 101.774 180.531 101.528 180.776C101.283 181.021 100.931 181.144 100.472 181.144C100.014 181.144 99.6617 181.021 99.4164 180.776C99.171 180.531 99.0484 180.173 99.0484 179.704V176.456C99.0484 175.976 98.963 175.635 98.7924 175.432C98.6324 175.229 98.3924 175.128 98.0724 175.128C97.6457 175.128 97.3044 175.267 97.0484 175.544C96.7924 175.811 96.6644 176.173 96.6644 176.632V179.704C96.6644 180.664 96.1844 181.144 95.2244 181.144Z" fill="#F24D4D"/>
</svg>
