<svg width="230" height="56" viewBox="0 0 230 56" fill="none" xmlns="http://www.w3.org/2000/svg">
    <g clip-path="url(#clip0_499_1763)">
        <path d="M8.82882 29.1391V5.08597C8.82882 3.9 8.36373 2.7626 7.53587 1.92399C6.70801 1.08538 5.58518 0.614258 4.41441 0.614258C3.24363 0.614258 2.12081 1.08538 1.29295 1.92399C0.465088 2.7626 0 3.9 0 5.08597L0 30.2688L8.82882 29.1391Z" fill="white"/>
        <path d="M39.1837 29.6145V5.08597C39.1837 3.9 38.7186 2.7626 37.8907 1.92399C37.0629 1.08538 35.94 0.614258 34.7693 0.614258C33.5985 0.614258 32.4757 1.08538 31.6478 1.92399C30.8199 2.7626 30.3549 3.9 30.3549 5.08597V30.2688L39.1837 29.6145Z" fill="white"/>
        <path d="M24.0004 30.5628V21.1628C23.9424 20.018 23.4526 18.9396 22.6322 18.1501C21.8118 17.3606 20.7234 16.9204 19.5918 16.9204C18.4602 16.9204 17.3719 17.3606 16.5515 18.1501C15.731 18.9396 15.2413 20.018 15.1832 21.1628V30.278L24.0004 30.5628Z" fill="white"/>
        <path d="M0 26.3857V35.4563C0 36.6422 0.465088 37.7796 1.29295 38.6182C2.12081 39.4569 3.24363 39.928 4.41441 39.928C5.58518 39.928 6.70801 39.4569 7.53587 38.6182C8.36373 37.7796 8.82882 36.6422 8.82882 35.4563V26.3857H0Z" fill="white"/>
        <path d="M30.3665 26.3857V35.4563C30.3665 36.6422 30.8315 37.7796 31.6594 38.6182C32.4873 39.4569 33.6101 39.928 34.7809 39.928C35.9516 39.928 37.0745 39.4569 37.9023 38.6182C38.7302 37.7796 39.1953 36.6422 39.1953 35.4563V26.3857H30.3665Z" fill="white"/>
        <path d="M15.1832 26.3857V51.5427C15.1832 52.7286 15.6483 53.866 16.4762 54.7047C17.304 55.5433 18.4269 56.0144 19.5976 56.0144C20.7684 56.0144 21.8912 55.5433 22.7191 54.7047C23.547 53.866 24.012 52.7286 24.012 51.5427V26.3857H15.1832Z" fill="white"/>
        <path d="M72.8099 11.1841H81.8571L64.7385 51.9614H55.7401L61.9993 37.892L50.8982 11.1841H60.2405L66.5484 28.4779L72.8099 11.1841Z" fill="white"/>
        <path d="M95.2583 10.7886C99.3173 10.7886 102.203 12.6714 103.671 15.1003V11.184H112.035V38.8333H103.671V34.917C102.154 37.3459 99.2685 39.2287 95.2095 39.2287C88.5577 39.2287 83.2256 33.6791 83.2256 24.9592C83.2256 16.2394 88.5577 10.7886 95.2583 10.7886ZM97.7025 18.1716C94.5729 18.1716 91.7361 20.5487 91.7361 24.9592C91.7361 29.3697 94.5729 31.8456 97.7025 31.8456C100.883 31.8456 103.671 29.4192 103.671 25.0204C103.671 20.6216 100.883 18.1716 97.7025 18.1716Z" fill="white"/>
        <path d="M118.929 18.2213H115.897V11.1842H118.929V10.3935C118.929 3.15869 123.343 -0.409271 131.647 0.0379003V7.22089C128.418 7.02319 127.293 8.01403 127.293 10.9371V11.1842H131.793V18.2213H127.293V38.8336H118.929V18.2213Z" fill="white"/>
        <path d="M152.481 10.7886C159.181 10.7886 164.513 16.2394 164.513 24.9592C164.513 33.6791 159.17 39.2287 152.481 39.2287C148.471 39.2287 145.585 37.2964 144.068 34.9664V52.0131H135.704V11.184H144.068V15.1003C145.585 12.6714 148.464 10.7886 152.481 10.7886ZM149.985 18.1716C146.856 18.1716 144.019 20.5981 144.019 25.0086C144.019 29.4192 146.856 31.8456 149.985 31.8456C153.166 31.8456 156.003 29.3674 156.003 24.9592C156.003 20.551 153.166 18.1716 149.985 18.1716Z" fill="white"/>
        <path d="M179.281 10.7886C183.342 10.7886 186.228 12.6714 187.694 15.1003V11.184H196.058V38.8333H187.694V34.917C186.179 37.3459 183.293 39.2287 179.232 39.2287C172.58 39.2287 167.25 33.6791 167.25 24.9592C167.25 16.2394 172.58 10.7886 179.281 10.7886ZM181.727 18.1716C178.598 18.1716 175.761 20.5487 175.761 24.9592C175.761 29.3697 178.598 31.8456 181.727 31.8456C184.906 31.8456 187.694 29.4192 187.694 25.0204C187.694 20.6216 184.906 18.1716 181.727 18.1716Z" fill="white"/>
        <path d="M220.953 11.1841H230L212.881 51.9614H203.881L210.154 37.8896L199.039 11.1841H208.381L214.691 28.4779L220.953 11.1841Z" fill="white"/>
    </g>
    <defs>
        <clipPath id="clip0_499_1763">
            <rect width="230" height="56" fill="white"/>
        </clipPath>
    </defs>
</svg>
