<svg width="15" height="15" viewBox="0 0 15 15" fill="none" xmlns="http://www.w3.org/2000/svg">
    <path d="M7.5 8.125C7.84518 8.125 8.125 7.84518 8.125 7.5C8.125 7.15482 7.84518 6.875 7.5 6.875C7.15482 6.875 6.875 7.15482 6.875 7.5C6.875 7.84518 7.15482 8.125 7.5 8.125Z" stroke="#848484" stroke-width="0.833333" stroke-linecap="round" stroke-linejoin="round"/>
    <path d="M7.5 3.75C7.84518 3.75 8.125 3.47018 8.125 3.125C8.125 2.77982 7.84518 2.5 7.5 2.5C7.15482 2.5 6.875 2.77982 6.875 3.125C6.875 3.47018 7.15482 3.75 7.5 3.75Z" stroke="#848484" stroke-width="0.833333" stroke-linecap="round" stroke-linejoin="round"/>
    <path d="M7.5 12.5C7.84518 12.5 8.125 12.2202 8.125 11.875C8.125 11.5298 7.84518 11.25 7.5 11.25C7.15482 11.25 6.875 11.5298 6.875 11.875C6.875 12.2202 7.15482 12.5 7.5 12.5Z" stroke="#848484" stroke-width="0.833333" stroke-linecap="round" stroke-linejoin="round"/>
</svg>
