<svg width="221" height="52" viewBox="0 0 221 52" fill="none" xmlns="http://www.w3.org/2000/svg">
    <g clip-path="url(#clip0_314_59)">
        <path d="M8.48334 27.0579V4.72286C8.48334 3.6216 8.03645 2.56545 7.24099 1.78674C6.44552 1.00803 5.36663 0.570557 4.24167 0.570557C3.11671 0.570557 2.03782 1.00803 1.24236 1.78674C0.446889 2.56545 0 3.6216 0 4.72286L0 28.1069L8.48334 27.0579Z" fill="#F48916"/>
        <path d="M37.6504 27.4994V4.72286C37.6504 3.6216 37.2035 2.56545 36.408 1.78674C35.6126 1.00803 34.5337 0.570557 33.4087 0.570557C32.2838 0.570557 31.2049 1.00803 30.4094 1.78674C29.6139 2.56545 29.1671 3.6216 29.1671 4.72286V28.1069L37.6504 27.4994Z" fill="#F48916"/>
        <path d="M23.0613 28.3799V19.6513C23.0055 18.5883 22.5349 17.5868 21.7466 16.8538C20.9583 16.1207 19.9125 15.7119 18.8252 15.7119C17.7379 15.7119 16.6921 16.1207 15.9038 16.8538C15.1155 17.5868 14.6449 18.5883 14.5891 19.6513V28.1154L23.0613 28.3799Z" fill="#F48916"/>
        <path d="M0 24.5007V32.9234C0 34.0246 0.446889 35.0808 1.24236 35.8595C2.03782 36.6382 3.11671 37.0757 4.24167 37.0757C5.36663 37.0757 6.44552 36.6382 7.24099 35.8595C8.03645 35.0808 8.48334 34.0246 8.48334 32.9234V24.5007H0Z" fill="#F48916"/>
        <path d="M29.1782 24.5007V32.9234C29.1782 34.0246 29.6251 35.0808 30.4206 35.8595C31.216 36.6382 32.2949 37.0757 33.4199 37.0757C34.5449 37.0757 35.6237 36.6382 36.4192 35.8595C37.2147 35.0808 37.6616 34.0246 37.6616 32.9234V24.5007H29.1782Z" fill="#F48916"/>
        <path d="M14.5891 24.5007V47.8607C14.5891 48.962 15.036 50.0182 15.8315 50.7969C16.6269 51.5756 17.7058 52.013 18.8308 52.013C19.9557 52.013 21.0346 51.5756 21.8301 50.7969C22.6256 50.0182 23.0725 48.962 23.0725 47.8607V24.5007H14.5891Z" fill="#F48916"/>
        <path d="M69.9608 10.3853H78.654L62.2053 48.2499H53.5589L59.5732 35.1855L48.9065 10.3853H57.8832L63.9443 26.4438L69.9608 10.3853Z" fill="white"/>
        <path d="M91.5308 10.0181C95.4309 10.0181 98.2036 11.7664 99.6145 14.0218V10.3852H107.651V36.0596H99.6145V32.423C98.1567 34.6784 95.384 36.4267 91.4839 36.4267C85.0924 36.4267 79.9689 31.2735 79.9689 23.1765C79.9689 15.0795 85.0924 10.0181 91.5308 10.0181ZM93.8793 16.8737C90.8722 16.8737 88.1464 19.081 88.1464 23.1765C88.1464 27.272 90.8722 29.5711 93.8793 29.5711C96.9356 29.5711 99.6145 27.3179 99.6145 23.2333C99.6145 19.1488 96.9356 16.8737 93.8793 16.8737Z" fill="white"/>
        <path d="M114.275 16.9196H111.362V10.3852H114.275V9.65085C114.275 2.93286 118.517 -0.380247 126.496 0.0349839V6.7049C123.392 6.52132 122.312 7.44139 122.312 10.1557V10.3852H126.636V16.9196H122.312V36.0595H114.275V16.9196Z" fill="white"/>
        <path d="M146.514 10.0181C152.952 10.0181 158.076 15.0795 158.076 23.1765C158.076 31.2735 152.941 36.4267 146.514 36.4267C142.661 36.4267 139.888 34.6325 138.43 32.4689V48.298H130.393V10.3852H138.43V14.0218C139.888 11.7664 142.654 10.0181 146.514 10.0181ZM144.116 16.8737C141.109 16.8737 138.383 19.1269 138.383 23.2224C138.383 27.3179 141.109 29.5711 144.116 29.5711C147.173 29.5711 149.898 27.2698 149.898 23.1765C149.898 19.0832 147.173 16.8737 144.116 16.8737Z" fill="white"/>
        <path d="M172.265 10.0181C176.168 10.0181 178.94 11.7664 180.349 14.0218V10.3852H188.386V36.0596H180.349V32.423C178.894 34.6784 176.121 36.4267 172.219 36.4267C165.827 36.4267 160.706 31.2735 160.706 23.1765C160.706 15.0795 165.827 10.0181 172.265 10.0181ZM174.616 16.8737C171.609 16.8737 168.883 19.081 168.883 23.1765C168.883 27.272 171.609 29.5711 174.616 29.5711C177.67 29.5711 180.349 27.3179 180.349 23.2333C180.349 19.1488 177.67 16.8737 174.616 16.8737Z" fill="white"/>
        <path d="M212.307 10.3853H221L204.551 48.2499H195.903L201.93 35.1833L191.25 10.3853H200.227L206.29 26.4438L212.307 10.3853Z" fill="white"/>
    </g>
    <defs>
        <clipPath id="clip0_314_59">
            <rect width="221" height="52" fill="white"/>
        </clipPath>
    </defs>
</svg>
