<svg width="230" height="167" viewBox="0 0 230 167" fill="none" xmlns="http://www.w3.org/2000/svg">
    <path d="M39.2706 52.7274L36.03 52.692C34.2062 54.5484 31.754 55.6555 29.1555 55.7958C26.5569 55.936 23.9998 55.0994 21.9868 53.4502C19.9737 51.8009 18.6503 49.4585 18.2766 46.8831C17.9028 44.3077 18.5058 41.6857 19.967 39.5323C21.4283 37.3789 23.6421 35.8499 26.1733 35.2458C28.7046 34.6416 31.3702 35.0061 33.6465 36.2674C35.9227 37.5288 37.6449 39.5959 38.4745 42.0624C39.3041 44.529 39.1812 47.2167 38.13 49.5972L39.2706 52.7274Z" fill="white"/>
    <path d="M39.2706 52.7275L39.1866 52.5197C39.1336 52.3739 39.0584 52.1749 38.9567 51.9185C38.7578 51.3835 38.466 50.6143 38.0725 49.6195H38.1565C38.153 49.625 38.1485 49.6298 38.1432 49.6336C38.1378 49.6373 38.1318 49.64 38.1254 49.6414C38.1126 49.6443 38.0991 49.642 38.088 49.635C38.0768 49.6279 38.069 49.6168 38.0661 49.6039C38.0631 49.5911 38.0655 49.5776 38.0725 49.5665C38.7595 47.9958 39.0465 46.2793 38.9081 44.5706C38.8171 43.4658 38.5468 42.3832 38.1079 41.3653C37.3906 39.6634 36.2285 38.186 34.7435 37.0881C33.2584 35.9902 31.5052 35.3123 29.6679 35.1255C27.8305 34.9387 25.9767 35.25 24.3011 36.0266C22.6256 36.8033 21.1899 38.0166 20.1449 39.5394C20.0255 39.7162 19.9062 39.8886 19.7912 40.0699L19.4906 40.6225L19.3447 40.9011L19.2209 41.1884L18.9733 41.7632C18.6909 42.5356 18.4995 43.3383 18.403 44.155C18.2037 45.856 18.4308 47.5798 19.0638 49.1712C19.6967 50.7626 20.7156 52.1715 22.0287 53.2709C23.3417 54.3704 24.9077 55.126 26.5855 55.4695C28.2633 55.813 30.0003 55.7337 31.6398 55.2387C33.2808 54.747 34.773 53.8535 35.9813 52.6391H36.0167L38.4129 52.6966H39.0407H39.2574H36.03H36.0653C34.8558 53.9393 33.354 54.859 31.6973 55.3714C29.1181 56.1614 26.3341 55.9307 23.9202 54.727C21.5062 53.5233 19.6467 51.4386 18.7257 48.9033C17.8999 46.5601 17.9171 44.0022 18.7744 41.6703L19.0219 41.0823L19.1502 40.7861L19.3005 40.5032L19.6099 39.9373C19.7249 39.756 19.8487 39.5792 19.9681 39.3979C20.855 38.1135 22.0174 37.0432 23.3705 36.265C24.7236 35.4868 26.2333 35.0203 27.7896 34.8996C29.3458 34.7789 30.9094 35.0069 32.3663 35.5671C33.8232 36.1274 35.1368 37.0056 36.2112 38.1379C37.0911 39.0608 37.7926 40.1385 38.2803 41.3167C38.7232 42.3513 38.9907 43.4525 39.0717 44.575C39.2021 46.3054 38.8981 48.0409 38.1875 49.6239L38.1035 49.5753C38.1076 49.5706 38.1127 49.5668 38.1184 49.5642C38.1241 49.5617 38.1303 49.5603 38.1366 49.5603C38.1429 49.5603 38.1491 49.5617 38.1548 49.5642C38.1605 49.5668 38.1656 49.5706 38.1698 49.5753L38.9921 51.9273L39.1955 52.5242C39.2249 52.5902 39.25 52.6582 39.2706 52.7275Z" fill="#263238"/>
    <path d="M28.0899 47.6608C27.2801 47.6619 26.4967 47.3724 25.8823 46.8449C25.2678 46.3174 24.863 45.5869 24.7414 44.7863C24.6199 43.9856 24.7897 43.168 25.2199 42.4819C25.6501 41.7958 26.3122 41.2868 27.0859 41.0475C27.8596 40.8082 28.6934 40.8545 29.4359 41.1778C30.1783 41.5012 30.7801 42.0803 31.1318 42.8097C31.4835 43.5392 31.5618 44.3707 31.3525 45.153C31.1431 45.9353 30.66 46.6165 29.991 47.0728C29.4308 47.4555 28.7683 47.6604 28.0899 47.6608ZM28.0899 41.7851C27.5872 41.7861 27.0968 41.9403 26.684 42.2272C26.1896 42.5677 25.8338 43.0742 25.6812 43.6548C25.5287 44.2354 25.5895 44.8514 25.8527 45.3909C26.1159 45.9304 26.564 46.3576 27.1154 46.5947C27.6668 46.8318 28.2851 46.8632 28.8577 46.6832C29.4303 46.5031 29.9193 46.1235 30.2358 45.6134C30.5523 45.1034 30.6752 44.4967 30.5822 43.9036C30.4893 43.3106 30.1866 42.7706 29.7292 42.3818C29.2719 41.9931 28.6902 41.7813 28.0899 41.7851Z" fill="#263238"/>
    <path d="M31.6884 50.0007C31.616 50.0008 31.5446 49.9831 31.4807 49.9492C31.4167 49.9152 31.362 49.8661 31.3214 49.8061L29.3762 46.981C29.3099 46.8843 29.2848 46.7652 29.3064 46.65C29.3279 46.5347 29.3944 46.4328 29.4911 46.3665C29.5392 46.333 29.5934 46.3094 29.6506 46.2971C29.7079 46.2847 29.767 46.2838 29.8246 46.2945C29.8822 46.3052 29.9371 46.3273 29.9861 46.3594C30.0351 46.3914 30.0772 46.4329 30.1101 46.4815L32.0509 49.3287C32.1172 49.4254 32.1423 49.5445 32.1207 49.6597C32.0992 49.775 32.0327 49.8769 31.936 49.9432C31.8609 49.9862 31.7748 50.0061 31.6884 50.0007Z" fill="#263238"/>
    <path d="M91.7886 0L89.0166 16.2255V165.986H223.847V156.468L91.7886 0Z" fill="#003FA4"/>
    <path d="M91.7891 0H221.513C222.944 0 224.316 0.568268 225.327 1.57979C226.339 2.59132 226.907 3.96324 226.907 5.39376V152.97C226.907 154.401 226.339 155.773 225.327 156.784C224.316 157.796 222.944 158.364 221.513 158.364H91.7891V0Z" fill="#003FA4"/>
    <path d="M221.981 159.58H92V0.77832H221.981C223.469 0.780661 224.895 1.37311 225.947 2.42571C226.999 3.47831 227.59 4.90512 227.591 6.39313V153.97C227.59 155.457 226.998 156.884 225.947 157.936C224.895 158.988 223.468 159.579 221.981 159.58ZM92.4421 159.138H221.981C223.351 159.137 224.665 158.592 225.634 157.623C226.603 156.654 227.148 155.34 227.149 153.97V6.39313C227.148 5.02237 226.603 3.70802 225.634 2.73833C224.665 1.76864 223.351 1.22277 221.981 1.22043H92.4421V159.138Z" fill="#263238"/>
    <path d="M212.33 4.53125L219.815 17.012V153.664L103.169 152.501L96.7847 145.896L212.33 4.53125Z" fill="#E0E0E0"/>
    <path d="M212.33 3.93066H96.7847V145.897H212.33V3.93066Z" fill="white"/>
    <path d="M212.331 145.896C212.331 145.011 212.291 88.3637 212.229 3.92929L212.331 4.03098H96.7941L96.909 3.91603C96.909 56.4344 96.909 105.279 96.909 145.882L96.8162 145.785L212.362 145.882L96.7853 146.011H96.688V145.913C96.688 105.31 96.688 56.4654 96.688 3.94698V3.83203H96.8118H212.349H212.45V3.93371C212.375 88.3637 212.331 144.998 212.331 145.896Z" fill="#263238"/>
    <path d="M110.985 51.7356C110.985 53.3316 109.809 54.627 108.363 54.627C106.918 54.627 105.742 53.3316 105.742 51.7356C105.742 50.1396 106.913 48.8486 108.363 48.8486C109.814 48.8486 110.985 50.144 110.985 51.7356Z" fill="#263238"/>
    <g opacity="0.3">
        <path d="M91.7891 72.1152H96.7849L96.7717 67.8135H91.7891V72.1152Z" fill="black"/>
    </g>
    <path d="M94.1856 37.4326C85.4937 37.4326 78.4243 44.3119 78.4243 52.7695C78.4243 61.227 85.5777 68.1107 94.2696 68.1107H96.7808L96.741 64.4721L94.2696 64.5738C87.3505 64.5738 81.634 59.2685 81.634 52.7695C81.634 46.2704 87.2621 40.9695 94.1856 40.9695C101.109 40.9695 106.737 46.2748 106.737 52.7695C106.713 52.9944 106.737 53.2217 106.807 53.4368C106.877 53.6519 106.991 53.8499 107.143 54.0179C107.294 54.186 107.479 54.3204 107.686 54.4123C107.892 54.5043 108.116 54.5519 108.342 54.5519C108.568 54.5519 108.792 54.5043 108.998 54.4123C109.205 54.3204 109.39 54.186 109.541 54.0179C109.693 53.8499 109.807 53.6519 109.877 53.4368C109.947 53.2217 109.97 52.9944 109.947 52.7695C109.951 44.3251 102.877 37.4326 94.1856 37.4326Z" fill="#E0E0E0"/>
    <path d="M94.1852 37.4326C94.1852 37.4326 94.309 37.4326 94.5566 37.4326L95.653 37.4768C96.1349 37.521 96.7229 37.6139 97.4214 37.72C98.2173 37.8887 99.0003 38.1133 99.7646 38.392C101.865 39.1613 103.783 40.3582 105.397 41.9068L106.078 42.6363C106.193 42.7601 106.312 42.8794 106.423 43.0076L106.741 43.4188C106.949 43.7017 107.183 43.9714 107.378 44.2677L107.961 45.1961C108.744 46.5517 109.321 48.0164 109.672 49.542C109.849 50.3657 109.955 51.2028 109.991 52.0444C110.055 52.4858 110.038 52.9352 109.942 53.3707C109.809 53.8216 109.506 54.2033 109.098 54.4362C108.887 54.5515 108.653 54.6173 108.413 54.6288C108.174 54.6403 107.934 54.5971 107.714 54.5025C107.492 54.4032 107.293 54.2593 107.13 54.0798C106.966 53.9003 106.842 53.689 106.763 53.4591C106.682 53.2275 106.64 52.9839 106.639 52.7385L106.6 52.04C106.575 51.5676 106.516 51.0977 106.423 50.6341C106.026 48.6941 105.135 46.8895 103.836 45.395C102.797 44.2314 101.559 43.2614 100.18 42.5302C99.9459 42.4108 99.6983 42.3091 99.4551 42.1941C99.216 42.0777 98.9693 41.9773 98.7168 41.8935L97.952 41.6327C97.6955 41.5531 97.4259 41.5 97.165 41.4337C96.6331 41.3091 96.0942 41.216 95.5513 41.1552C94.4451 41.0478 93.3299 41.0775 92.2311 41.2436C91.6721 41.3258 91.1185 41.4409 90.5731 41.5885C90.3034 41.668 90.0382 41.7697 89.7641 41.8581L89.3617 41.9996L88.9683 42.1765C87.9064 42.6335 86.915 43.2394 86.0238 43.9759C85.1083 44.7176 84.3107 45.5941 83.6585 46.5755C82.9849 47.5652 82.4814 48.6605 82.1686 49.8161C81.8195 50.9802 81.689 52.1989 81.784 53.4105C81.8441 54.6392 82.1225 55.8473 82.6063 56.9783C83.7739 59.6835 85.8815 61.8743 88.5394 63.1458C89.8129 63.7736 91.1838 64.1802 92.5936 64.3483C93.2829 64.4322 93.9773 64.4662 94.6715 64.45L96.7362 64.366H96.8555V64.481C96.8555 65.7159 96.8673 66.9288 96.8909 68.1195V68.2301H96.7804C95.8475 68.2301 94.9235 68.2301 94.0083 68.2301L92.6334 68.1593L91.2849 67.956C89.5442 67.6215 87.8681 67.0111 86.32 66.1477C85.9487 65.9223 85.564 65.7277 85.2148 65.4757L84.1846 64.7285L83.2341 63.8974C83.0748 63.7624 82.9269 63.6145 82.792 63.4553L82.3499 63.0132C81.2648 61.8323 80.3699 60.4899 79.6972 59.0342C79.5159 58.6849 79.4098 58.3091 79.2551 57.9554L79.0517 57.416L78.9014 56.8634C78.813 56.4964 78.6936 56.1383 78.6273 55.7714C78.561 55.4044 78.5123 55.0331 78.4549 54.6705C78.2805 53.2619 78.3088 51.8357 78.5389 50.4351C78.6388 49.771 78.7865 49.115 78.981 48.4721C79.07 48.1594 79.1777 47.8523 79.3037 47.5525C79.4231 47.2563 79.5159 46.9468 79.6574 46.6683C79.9182 46.1068 80.2135 45.562 80.5416 45.0369C80.7008 44.7849 80.86 44.5329 81.0147 44.2809C81.1694 44.0289 81.3684 43.8167 81.5408 43.5868C82.8002 41.9725 84.3638 40.6207 86.1432 39.6078C86.3377 39.4973 86.5234 39.3779 86.7135 39.2806L87.2927 39.011C87.648 38.8308 88.0142 38.6728 88.3891 38.5379L89.4236 38.1754C89.7552 38.0781 90.078 38.0118 90.3786 37.9322C90.9133 37.7955 91.457 37.6965 92.0056 37.636C92.2399 37.605 92.4477 37.5608 92.6599 37.552L93.2037 37.5299L93.9376 37.4989H94.1852L93.9332 37.521L93.1993 37.5653L92.6599 37.5962C92.4565 37.5962 92.2443 37.6581 92.0056 37.689C91.4614 37.7586 90.9224 37.8634 90.3919 38.0029C90.0912 38.0825 89.7729 38.1533 89.4413 38.2549L88.4377 38.5777C88.0605 38.702 87.6914 38.8497 87.3325 39.0198L86.7621 39.2939C86.572 39.3912 86.3908 39.5105 86.1962 39.6211C84.4369 40.6391 82.893 41.9907 81.6513 43.6001C81.4789 43.8255 81.2976 44.0422 81.1341 44.2898L80.6654 45.0369C80.3503 45.5596 80.0655 46.0998 79.8122 46.6551C79.6751 46.9336 79.5867 47.2386 79.4673 47.5393C79.3441 47.8366 79.2378 48.1407 79.149 48.45C78.9566 49.0859 78.8088 49.7344 78.7069 50.3909C78.4814 51.7758 78.4575 53.186 78.6361 54.5777C78.6921 54.9373 78.7496 55.2998 78.8086 55.6653C78.8749 56.0278 78.9898 56.3815 79.0827 56.744L79.2286 57.2878L79.4319 57.8184C79.5778 58.172 79.6839 58.5434 79.874 58.8838C80.5465 60.3277 81.4417 61.657 82.5267 62.8231L82.9688 63.2652C83.1035 63.4247 83.2514 63.5726 83.4109 63.7073L84.3482 64.5252L85.3695 65.2635C85.7143 65.5067 86.0945 65.7056 86.4615 65.9267C87.9927 66.7703 89.6474 67.3671 91.3645 67.6951L92.6908 67.8896L94.0481 67.9604C94.9589 67.9825 95.8829 67.9604 96.8157 67.9604L96.7052 68.0709C96.7052 66.8772 96.6787 65.6703 96.6654 64.4368L96.7804 64.5473L94.7113 64.6313C94.3609 64.6533 94.0095 64.6533 93.6591 64.6313C93.3037 64.6247 92.9491 64.5937 92.598 64.5384C91.1528 64.3777 89.7458 63.971 88.4377 63.3359C85.7292 62.0401 83.5821 59.8066 82.3941 57.0491C81.8998 55.8943 81.6153 54.6607 81.5541 53.4061C81.4619 52.1692 81.5952 50.9258 81.9476 49.7366C82.2671 48.5587 82.7811 47.4425 83.4684 46.434C84.1328 45.433 84.9452 44.5386 85.8779 43.7813C86.7867 43.0319 87.7975 42.4157 88.8798 41.951L89.2777 41.7697L89.6933 41.6282C89.9674 41.5398 90.2371 41.4337 90.5157 41.3541C91.068 41.2035 91.6291 41.0868 92.1957 41.0049C93.3137 40.8358 94.4484 40.8076 95.5734 40.9209C96.1255 40.981 96.6733 41.0755 97.2136 41.2038C97.4789 41.2701 97.7486 41.3276 98.0139 41.4028L98.7876 41.6725C99.0464 41.758 99.299 41.8614 99.5436 41.9819C99.7867 42.0969 100.039 42.1986 100.277 42.3224C100.75 42.5725 101.206 42.8515 101.644 43.158C102.507 43.7529 103.294 44.4524 103.987 45.2403C105.307 46.7627 106.21 48.6012 106.609 50.5766C106.701 51.0479 106.762 51.525 106.79 52.0046C106.79 52.2433 106.812 52.4821 106.825 52.7164C106.826 52.9391 106.863 53.1602 106.936 53.3707C107.005 53.5773 107.117 53.7675 107.263 53.9295C107.409 54.0914 107.586 54.2218 107.785 54.3124C107.979 54.3982 108.191 54.4381 108.403 54.4289C108.615 54.4197 108.823 54.3617 109.009 54.2594C109.379 54.0509 109.653 53.7069 109.774 53.3C109.866 52.8863 109.882 52.4595 109.823 52.04C109.788 51.2075 109.685 50.3794 109.513 49.5641C109.172 48.0529 108.605 46.6013 107.833 45.258L107.263 44.334C107.064 44.0378 106.821 43.7681 106.631 43.494L106.321 43.0828C106.211 42.9546 106.091 42.8352 105.976 42.7114L105.304 41.9864C103.712 40.4353 101.815 39.231 99.7337 38.4495C98.975 38.1673 98.198 37.9369 97.4082 37.7598C96.7141 37.6492 96.126 37.5476 95.6397 37.4945L94.5477 37.4326H94.1852Z" fill="#263238"/>
    <path d="M110.985 93.4485C110.985 95.0445 109.809 96.3399 108.363 96.3399C106.918 96.3399 105.742 95.0445 105.742 93.4485C105.742 91.8525 106.913 90.5615 108.363 90.5615C109.814 90.5615 110.985 91.8525 110.985 93.4485Z" fill="#263238"/>
    <path d="M203.931 39.7363H114.92V43.4633H203.931V39.7363Z" fill="#142445"/>
    <path d="M166.798 35.1699H114.92V38.8969H166.798V35.1699Z" fill="#142445"/>
    <path d="M166.798 119.838H114.92V123.565H166.798V119.838Z" fill="#142445"/>
    <path d="M204.425 27.1504H115.305V32.5839H204.425V27.1504Z" fill="#E0E0E0"/>
    <path d="M203.466 76.9619H114.345V82.3954H203.466V76.9619Z" fill="#E0E0E0"/>
    <path d="M150.846 50.1963H115.305V55.6298H150.846V50.1963Z" fill="#E0E0E0"/>
    <path d="M203.466 50.1963H159.029V55.6298H203.466V50.1963Z" fill="#E0E0E0"/>
    <path d="M166.797 37.3894C166.797 37.4513 155.364 37.4999 141.257 37.4999C127.149 37.4999 115.711 37.4513 115.711 37.3894C115.711 37.3275 127.149 37.2744 141.257 37.2744C155.364 37.2744 166.797 37.323 166.797 37.3894Z" fill="#263238"/>
    <path d="M203.931 41.6726C203.931 41.7345 184.16 41.7875 159.777 41.7875C135.395 41.7875 115.619 41.7345 115.619 41.6726C115.619 41.6107 135.386 41.5576 159.777 41.5576C184.168 41.5576 203.931 41.5974 203.931 41.6726Z" fill="#263238"/>
    <path d="M203.931 45.7136C203.931 45.7755 184.16 45.8285 159.777 45.8285C135.395 45.8285 115.619 45.7755 115.619 45.7136C115.619 45.6517 135.386 45.5986 159.777 45.5986C184.168 45.5986 203.931 45.6517 203.931 45.7136Z" fill="#263238"/>
    <path d="M150.541 58.946C150.541 59.0079 142.583 59.061 132.782 59.061C122.98 59.061 115.026 59.0079 115.026 58.946C115.026 58.8841 122.984 58.8311 132.782 58.8311C142.579 58.8311 150.541 58.8841 150.541 58.946Z" fill="#263238"/>
    <path d="M150.541 63.1198C150.541 63.1817 142.72 63.2348 133.078 63.2348C123.435 63.2348 115.614 63.1817 115.614 63.1198C115.614 63.0579 123.431 63.0049 133.078 63.0049C142.725 63.0049 150.541 63.0579 150.541 63.1198Z" fill="#263238"/>
    <path d="M150.395 67.3649C150.395 67.4268 142.508 67.4799 132.782 67.4799C123.055 67.4799 115.172 67.4268 115.172 67.3649C115.172 67.3031 123.055 67.25 132.782 67.25C142.508 67.25 150.395 67.3163 150.395 67.3649Z" fill="#263238"/>
    <path d="M150.395 71.4812C150.395 71.5431 142.508 71.5961 132.782 71.5961C123.055 71.5961 115.172 71.5431 115.172 71.4812C115.172 71.4193 123.055 71.3662 132.782 71.3662C142.508 71.3662 150.395 71.4193 150.395 71.4812Z" fill="#263238"/>
    <path d="M202.781 59.9226C202.781 59.9889 194.549 60.0376 184.394 60.0376C174.239 60.0376 165.998 59.9889 165.998 59.9226C165.998 59.8563 174.234 59.7988 184.376 59.7988C194.518 59.7988 202.781 59.8607 202.781 59.9226Z" fill="#263238"/>
    <path d="M163.177 61.254C163.142 61.002 163.126 60.7479 163.128 60.4936C163.128 60.0206 163.088 59.3707 163.079 58.5925L163.177 58.6942H160.643L160.749 58.5793V59.2866C160.749 59.521 160.749 59.7288 160.749 59.9719C160.749 60.414 160.749 60.8561 160.749 61.2275L160.657 61.1302C161.395 61.1302 162.014 61.1612 162.46 61.1789C162.704 61.1829 162.948 61.1991 163.19 61.2275C162.969 61.2659 162.746 61.2822 162.522 61.2761C162.08 61.2761 161.435 61.3204 160.657 61.3292H160.559V61.2275C160.559 60.8385 160.559 60.414 160.559 59.9719C160.559 59.7509 160.559 59.5298 160.559 59.2866V58.5793C160.462 58.6854 160.692 58.4422 160.67 58.4643H163.203H163.296V58.5616C163.296 59.3839 163.265 60.0603 163.247 60.5246C163.243 60.7692 163.219 61.0131 163.177 61.254Z" fill="#263238"/>
    <path d="M202.781 65.0388C202.781 65.1007 194.549 65.1537 184.394 65.1537C174.239 65.1537 165.998 65.1007 165.998 65.0388C165.998 64.9769 174.234 64.9238 184.394 64.9238C194.554 64.9238 202.781 64.9725 202.781 65.0388Z" fill="#263238"/>
    <path d="M163.176 66.3684C163.142 66.1148 163.126 65.8593 163.128 65.6035C163.128 65.1349 163.088 64.4805 163.079 63.7069L163.176 63.8041H160.643C160.617 63.8262 160.846 63.5875 160.749 63.6892V64.3965C160.749 64.6309 160.749 64.8387 160.749 65.0862C160.749 65.5284 160.749 65.9484 160.749 66.3418L160.656 66.2402C161.395 66.2402 162.014 66.2711 162.46 66.2932C162.704 66.2918 162.948 66.308 163.19 66.3418C162.969 66.3744 162.745 66.3906 162.522 66.3905C162.08 66.3905 161.434 66.4303 160.656 66.4391H160.559V66.3418C160.559 65.9484 160.559 65.5284 160.559 65.0862C160.559 64.8608 160.559 64.6441 160.559 64.3965V63.6892L160.67 63.5742H163.203H163.296V63.6759C163.296 64.4938 163.265 65.1747 163.247 65.6345C163.242 65.8805 163.219 66.1259 163.176 66.3684Z" fill="#263238"/>
    <path d="M202.781 70.1491C202.781 70.211 194.549 70.2641 184.394 70.2641C174.239 70.2641 165.998 70.211 165.998 70.1491C165.998 70.0872 174.234 70.0342 184.394 70.0342C194.554 70.0342 202.781 70.0872 202.781 70.1491Z" fill="#263238"/>
    <path d="M163.176 71.4801C163.142 71.2266 163.126 70.971 163.128 70.7152C163.128 70.2466 163.088 69.5967 163.079 68.8186L163.176 68.9158H160.643L160.749 68.8009V69.526C160.749 69.7603 160.749 69.9902 160.749 70.2157C160.749 70.6578 160.749 71.0778 160.749 71.4713L160.656 71.374C161.395 71.374 162.014 71.4049 162.46 71.4226C162.704 71.4239 162.948 71.4401 163.19 71.4713C162.969 71.5067 162.746 71.523 162.522 71.5199C162.08 71.5199 161.434 71.5597 160.656 71.5729H160.559V71.4713C160.559 71.0778 160.559 70.6578 160.559 70.2157C160.559 69.9902 160.559 69.7735 160.559 69.526V68.8142L160.67 68.6992H163.203H163.296V68.7965C163.296 69.6188 163.265 70.2952 163.247 70.7595C163.242 71.0011 163.218 71.242 163.176 71.4801Z" fill="#263238"/>
    <path d="M202.78 112.411C202.78 112.411 202.78 112.261 202.78 111.969C202.78 111.677 202.78 111.252 202.78 110.695C202.78 109.572 202.78 107.915 202.78 105.761C202.78 101.46 202.758 95.1729 202.741 87.2282L202.807 87.2989L115.061 87.3431L115.172 87.2282C115.172 95.8891 115.172 104.333 115.172 112.402L115.066 112.291L177.735 112.34L196.144 112.375H201.092H202.378H201.105H196.18L177.797 112.406L115.052 112.455H114.946V112.411C114.946 104.342 114.946 95.898 114.946 87.237V87.1221H115.061L202.807 87.1663H202.878V87.237C202.878 95.195 202.847 101.5 202.838 105.806C202.838 107.95 202.838 109.603 202.838 110.722C202.838 111.275 202.838 111.695 202.838 111.982C202.838 112.269 202.78 112.411 202.78 112.411Z" fill="#263238"/>
    <path d="M202.781 93.5808C202.781 93.6427 183.191 93.6957 159.012 93.6957C134.833 93.6957 115.243 93.6427 115.243 93.5808C115.243 93.5189 134.833 93.4658 159.012 93.4658C183.191 93.4658 202.781 93.5189 202.781 93.5808Z" fill="#263238"/>
    <path d="M202.781 99.8317C202.781 99.8936 183.191 99.9467 159.012 99.9467C134.833 99.9467 115.243 99.8936 115.243 99.8317C115.243 99.7698 134.833 99.7168 159.012 99.7168C183.191 99.7168 202.781 99.7698 202.781 99.8317Z" fill="#263238"/>
    <path d="M202.781 106.15C202.781 106.216 183.191 106.265 159.012 106.265C134.833 106.265 115.243 106.216 115.243 106.15C115.243 106.084 134.833 106.035 159.012 106.035C183.191 106.035 202.781 106.088 202.781 106.15Z" fill="#263238"/>
    <path d="M125.231 112.641C125.169 112.641 125.12 106.946 125.12 99.9256C125.12 92.9049 125.169 87.2061 125.231 87.2061C125.293 87.2061 125.341 92.9005 125.341 99.9256C125.341 106.951 125.293 112.641 125.231 112.641Z" fill="#263238"/>
    <path d="M154.904 111.876C154.843 111.876 154.794 106.438 154.794 99.7307C154.794 93.0239 154.843 87.5859 154.904 87.5859C154.966 87.5859 155.015 93.0239 155.015 99.7307C155.015 106.438 154.966 111.876 154.904 111.876Z" fill="#263238"/>
    <path d="M186.171 113.021C186.114 113.021 186.065 107.415 186.065 100.496C186.065 93.5767 186.114 87.9707 186.171 87.9707C186.229 87.9707 186.282 93.5767 186.282 100.496C186.282 107.415 186.233 113.021 186.171 113.021Z" fill="#263238"/>
    <path d="M201.039 118.061C201.039 118.128 181.873 118.176 158.243 118.176C134.612 118.176 115.446 118.128 115.446 118.061C115.446 117.995 134.603 117.946 158.243 117.946C181.882 117.946 201.039 117.999 201.039 118.061Z" fill="#263238"/>
    <path d="M201.039 121.696C201.039 121.762 181.873 121.811 158.243 121.811C134.612 121.811 115.446 121.762 115.446 121.696C115.446 121.63 134.603 121.581 158.243 121.581C181.882 121.581 201.039 121.639 201.039 121.696Z" fill="#263238"/>
    <path d="M146.593 125.338C146.593 125.404 139.621 125.453 131.022 125.453C122.423 125.453 115.446 125.404 115.446 125.338C115.446 125.271 122.418 125.223 131.022 125.223C139.625 125.223 146.593 125.276 146.593 125.338Z" fill="#263238"/>
    <g opacity="0.3">
        <path d="M91.7891 112.529H96.7849L96.7717 108.228H91.7891V112.529Z" fill="black"/>
    </g>
    <path d="M94.1856 78.8096C85.4937 78.8096 78.4243 85.6888 78.4243 94.1464C78.4243 102.604 85.5777 109.488 94.2696 109.488H96.7808L96.741 105.849L94.2696 105.951C87.3505 105.951 81.634 100.645 81.634 94.1464C81.634 87.6474 87.2665 82.3465 94.1856 82.3465C101.105 82.3465 106.737 87.6518 106.737 94.1464C106.713 94.3713 106.737 94.5987 106.807 94.8138C106.877 95.0288 106.991 95.2268 107.143 95.3949C107.294 95.5629 107.479 95.6973 107.686 95.7893C107.892 95.8813 108.116 95.9288 108.342 95.9288C108.568 95.9288 108.792 95.8813 108.998 95.7893C109.205 95.6973 109.39 95.5629 109.541 95.3949C109.693 95.2268 109.807 95.0288 109.877 94.8138C109.947 94.5987 109.97 94.3713 109.947 94.1464C109.951 85.7065 102.877 78.8096 94.1856 78.8096Z" fill="#E0E0E0"/>
    <path d="M94.1852 78.8096C94.1852 78.8096 94.3089 78.8096 94.5565 78.8096L95.653 78.8538C96.1349 78.8936 96.7229 78.9908 97.4214 79.0969C98.2167 79.2661 98.9996 79.4891 99.7646 79.7645C101.866 80.5426 103.783 81.7468 105.397 83.3014L106.078 84.0265C106.193 84.1503 106.312 84.2696 106.423 84.4023L106.741 84.8134C106.949 85.092 107.183 85.3617 107.378 85.6623L107.961 86.5907C108.744 87.9463 109.321 89.4111 109.672 90.9367C109.849 91.7603 109.955 92.5974 109.991 93.439C110.055 93.8804 110.038 94.3298 109.942 94.7654C109.809 95.2162 109.506 95.598 109.098 95.8308C108.887 95.9461 108.653 96.012 108.413 96.0234C108.174 96.0349 107.934 95.9918 107.714 95.8972C107.492 95.7973 107.293 95.6528 107.129 95.4725C106.966 95.2922 106.841 95.08 106.763 94.8494C106.683 94.6191 106.641 94.3771 106.639 94.1331L106.6 93.4346C106.575 92.9623 106.516 92.4923 106.423 92.0287C106.031 90.0814 105.142 88.2687 103.841 86.7676C103.159 85.9923 102.384 85.3047 101.533 84.7206C101.1 84.4216 100.65 84.1485 100.185 83.9027C99.9503 83.7789 99.7027 83.6816 99.4595 83.5667C99.2212 83.4484 98.9744 83.3479 98.7212 83.266L97.9564 83.0008C97.6999 82.9256 97.4303 82.8726 97.1694 82.8063C96.6379 82.6795 96.0989 82.5864 95.5557 82.5277C93.8832 82.3704 92.1961 82.5203 90.5775 82.9698C90.3078 83.045 90.0426 83.1511 89.7685 83.2395L89.3661 83.381L88.9727 83.5534C87.9115 84.0138 86.9203 84.621 86.0282 85.3572C85.1117 86.0979 84.314 86.9746 83.6629 87.9568C82.9894 88.945 82.4858 90.0389 82.173 91.1931C81.8239 92.3572 81.6934 93.5759 81.7884 94.7875C81.8475 96.0163 82.126 97.2246 82.6107 98.3553C83.7732 101.069 85.8816 103.269 88.5438 104.545C89.8175 105.171 91.1884 105.576 92.598 105.743C92.9415 105.799 93.2889 105.828 93.6369 105.831C93.9829 105.854 94.3299 105.854 94.6759 105.831L96.7406 105.747H96.8599V105.862C96.8599 107.097 96.8717 108.309 96.8953 109.497V109.611H96.7848C95.8519 109.611 94.9279 109.611 94.0127 109.611L92.6378 109.545L91.2893 109.342C89.5486 109.007 87.8725 108.397 86.3244 107.534C85.953 107.308 85.5684 107.091 85.2191 106.862L84.189 106.11L83.2385 105.279C83.0791 105.144 82.9312 104.996 82.7964 104.837L82.3543 104.395C81.2685 103.214 80.3735 101.872 79.7016 100.416C79.5203 100.071 79.4142 99.6949 79.2595 99.3368L79.0561 98.8018L78.9058 98.2492C78.8174 97.8822 78.698 97.5197 78.6317 97.1528L78.4593 96.0563C78.2849 94.6463 78.3132 93.2185 78.5433 91.8165C78.6437 91.1539 78.7914 90.4994 78.9854 89.8579C79.0744 89.5452 79.1821 89.2381 79.3081 88.9383C79.4275 88.6377 79.5203 88.3326 79.6618 88.0541C79.9226 87.494 80.2179 86.9507 80.546 86.4271L81.0191 85.6711C81.1871 85.428 81.3728 85.2069 81.5452 84.977C82.8025 83.3548 84.3662 81.9953 86.1476 80.9759C86.3421 80.8654 86.5278 80.746 86.7179 80.6443L87.2971 80.3791C87.6516 80.1971 88.0179 80.039 88.3935 79.906L89.428 79.5435C89.7596 79.4462 90.0824 79.3755 90.383 79.3003C90.9177 79.1623 91.4613 79.0619 92.01 78.9997C92.2443 78.9731 92.4521 78.9289 92.6643 78.9157H93.2081L93.942 78.8891C94.11 78.8891 94.194 78.8891 94.194 78.8891H93.942L93.2081 78.9378L92.6687 78.9687C92.4653 78.9687 92.2531 79.0306 92.0144 79.0616C91.4699 79.129 90.9307 79.2339 90.4007 79.3755C90.1001 79.4551 89.7817 79.5258 89.4501 79.6275L88.4289 79.9944C88.0554 80.1309 87.6907 80.2904 87.3369 80.4719L86.7665 80.7416C86.5764 80.8433 86.3952 80.9626 86.2006 81.0732C84.441 82.0909 82.8971 83.4425 81.6557 85.0522C81.4833 85.2821 81.302 85.4943 81.1385 85.7419L80.6698 86.4935C80.3548 87.0146 80.0699 87.5534 79.8165 88.1072C79.6795 88.3857 79.5911 88.6908 79.4717 88.9914C79.3504 89.2759 79.2442 89.5667 79.1534 89.8623C78.5713 91.8511 78.3998 93.9374 78.6494 95.9944L78.8218 97.0776C78.8881 97.4401 79.0031 97.7938 79.0959 98.1608L79.2418 98.7046L79.4452 99.2351C79.5911 99.5844 79.6972 99.9557 79.8873 100.301C80.5598 101.744 81.4549 103.074 82.54 104.24L82.9821 104.682C83.1167 104.842 83.2646 104.989 83.4242 105.124L84.3614 105.942L85.3429 106.663C85.6878 106.91 86.068 107.105 86.435 107.326C87.9643 108.173 89.6196 108.771 91.338 109.094L92.6643 109.293L94.0216 109.359C94.9323 109.386 95.8563 109.359 96.7892 109.359L96.6787 109.47C96.6787 108.276 96.6654 107.063 96.6389 105.831L96.7538 105.942L94.6847 106.026C94.3343 106.048 93.9829 106.048 93.6325 106.026C93.2772 106.021 92.9227 105.991 92.5715 105.938C91.1369 105.769 89.7418 105.356 88.4466 104.717C85.7361 103.424 83.5882 101.19 82.4029 98.4305C81.9077 97.276 81.6232 96.0422 81.5629 94.7875C81.5267 94.1686 81.537 93.5479 81.5938 92.9306C81.6699 92.3183 81.7911 91.7124 81.9564 91.1179C82.2768 89.9404 82.7908 88.8244 83.4772 87.8154C84.1428 86.8153 84.955 85.921 85.8867 85.1627C86.7955 84.4133 87.8063 83.797 88.8887 83.3324L89.2866 83.1555L89.7022 83.0141C89.9763 82.9212 90.2459 82.8151 90.5245 82.7399C91.0767 82.5878 91.6378 82.4697 92.2045 82.3862C93.3227 82.2194 94.4572 82.1912 95.5822 82.3022C96.1337 82.3667 96.6813 82.4612 97.2225 82.5852C97.4877 82.6559 97.7574 82.709 98.0227 82.7886L98.7964 83.0583C99.0544 83.1442 99.3069 83.2461 99.5524 83.3633C99.7955 83.4783 100.048 83.5844 100.286 83.7082C100.758 83.9583 101.215 84.2373 101.652 84.5438C102.518 85.1361 103.306 85.8358 103.996 86.6261C105.318 88.1474 106.221 89.9863 106.617 91.9624C106.71 92.4337 106.771 92.9108 106.799 93.3904C106.799 93.6291 106.821 93.8635 106.834 94.1022C106.835 94.3249 106.872 94.5459 106.944 94.7565C107.014 94.9631 107.125 95.1533 107.271 95.3153C107.417 95.4772 107.595 95.6076 107.793 95.6982C107.988 95.783 108.2 95.8219 108.412 95.812C108.625 95.802 108.832 95.7434 109.018 95.6407C109.389 95.4334 109.663 95.0889 109.783 94.6814C109.875 94.2692 109.891 93.8438 109.831 93.4258C109.797 92.5933 109.694 91.7652 109.522 90.9499C109.18 89.4373 108.614 87.9843 107.842 86.6394L107.272 85.7198C107.073 85.4236 106.83 85.1539 106.639 84.8753L106.33 84.4686C106.219 84.336 106.1 84.2166 105.985 84.0928L105.313 83.3722C103.719 81.8231 101.823 80.6191 99.7425 79.8353C98.9831 79.5564 98.2063 79.3275 97.417 79.15C96.7229 79.0395 96.1349 78.9334 95.6485 78.8847L94.5565 78.8184L94.1852 78.8096Z" fill="#263238"/>
    <g opacity="0.3">
        <path d="M91.7891 158.358L89.0171 165.985H223.848V158.358H91.7891Z" fill="black"/>
    </g>
    <path d="M100.101 149.327C100.101 149.327 100.3 149.327 100.689 149.327H102.422H109.098L133.786 149.451L216.46 149.95L216.345 150.065V138.751C216.345 103.489 216.367 71.5727 216.376 48.468C216.376 36.9156 216.407 27.5694 216.416 21.1057C216.416 17.8783 216.416 15.3583 216.416 13.6694C216.416 15.3715 216.416 17.8783 216.438 21.1057C216.438 27.5694 216.46 36.9156 216.474 48.468C216.474 71.5727 216.496 103.489 216.509 138.751V150.193H216.394L133.741 149.623L109.049 149.424L102.378 149.362L100.645 149.34L100.101 149.327Z" fill="#263238"/>
    <path d="M98.186 147.449H98.774H107.174L131.809 147.506L214.337 147.776L214.223 147.891C214.223 144.089 214.223 140.044 214.223 135.954C214.276 100.585 214.32 68.5631 214.351 45.3788C214.377 33.7955 214.399 24.4183 214.417 17.9326C214.417 14.6963 214.439 12.1851 214.444 10.4697C214.444 9.62088 214.444 8.97097 214.444 8.52886C214.444 8.08675 214.444 7.87012 214.444 7.87012C214.444 7.87012 214.444 8.09117 214.444 8.52886C214.444 8.96655 214.444 9.62088 214.444 10.4697C214.444 12.1807 214.444 14.6963 214.444 17.9326C214.444 24.4183 214.444 33.7955 214.444 45.3788C214.444 68.5631 214.408 100.581 214.386 135.954C214.386 140.044 214.386 144.089 214.386 147.891V148.006H214.271L131.742 147.661L107.108 147.537L100.45 147.489H98.721L98.186 147.449Z" fill="#263238"/>
    <path d="M101.816 151.126H104.137L110.804 151.148L135.456 151.272L217.91 151.758L217.795 151.873C217.795 148.544 217.821 144.994 217.835 141.413C217.981 106.455 218.113 74.8176 218.211 51.9118C218.272 40.4612 218.321 31.1945 218.352 24.7883C218.352 21.5874 218.392 19.1028 218.401 17.4139C218.401 16.5739 218.401 15.9328 218.423 15.4951C218.445 15.0575 218.423 14.8408 218.423 14.8408C218.423 14.8408 218.423 15.0663 218.423 15.4951C218.423 15.924 218.423 16.5739 218.423 17.4139C218.423 19.1028 218.423 21.5874 218.423 24.7883C218.423 31.1945 218.383 40.4612 218.356 51.9118C218.277 74.8176 218.166 106.455 218.047 141.413C218.047 144.994 218.02 148.544 218.007 151.873V151.988H217.892L135.438 151.422L110.786 151.228L104.119 151.166L102.386 151.144L101.816 151.126Z" fill="#263238"/>
    <path d="M214.453 20.3721H225.28L229.14 24.7048L225.784 29.8686H214.444L214.453 20.3721Z" fill="#455A64"/>
    <path d="M1.2885 92.2648C1.09387 92.2387 0.906341 92.1744 0.73675 92.0754C0.567159 91.9764 0.418872 91.8448 0.300466 91.6882C0.18206 91.5315 0.0958842 91.353 0.0469221 91.1628C-0.00203995 90.9727 -0.0128167 90.7747 0.0152156 90.5803L1.8544 77.7945C1.88215 77.6349 1.94116 77.4824 2.02804 77.3457C2.11493 77.209 2.22797 77.0909 2.36068 76.998C2.49338 76.9052 2.64313 76.8395 2.80132 76.8047C2.9595 76.7699 3.123 76.7667 3.28242 76.7953L4.48496 76.9677C4.71942 77.0048 4.95957 76.9756 5.17831 76.8834C5.39705 76.7913 5.58567 76.6397 5.72287 76.446L6.05887 75.9597C6.19697 75.7672 6.38587 75.6169 6.60447 75.5255C6.82308 75.4342 7.06278 75.4054 7.29679 75.4425L13.0044 76.2604C13.219 76.2914 13.4226 76.3745 13.5976 76.5024C13.7725 76.6304 13.9134 76.7993 14.008 76.9943L14.2247 77.4806C14.3156 77.6774 14.4549 77.848 14.6296 77.9763C14.8044 78.1047 15.0088 78.1866 15.2238 78.2145L22.5142 79.2535C22.6748 79.2711 22.8303 79.3202 22.9719 79.3979C23.1135 79.4757 23.2384 79.5806 23.3394 79.7066C23.4404 79.8327 23.5156 79.9774 23.5606 80.1326C23.6056 80.2877 23.6197 80.4502 23.6018 80.6107L21.7184 93.6928C21.6626 94.0826 21.4543 94.4343 21.1393 94.6706C20.8242 94.9068 20.4283 95.0084 20.0384 94.9528L1.2885 92.2648Z" fill="#455A64"/>
    <g opacity="0.3">
        <path d="M1.28898 92.2628C1.09436 92.2368 0.90683 92.1724 0.737238 92.0735C0.567647 91.9745 0.41936 91.8429 0.300954 91.6862C0.182548 91.5296 0.0963725 91.351 0.0474104 91.1609C-0.00155167 90.9707 -0.0123284 90.7727 0.0157038 90.5784L1.85489 77.7925C1.88263 77.633 1.94165 77.4805 2.02853 77.3438C2.11542 77.2071 2.22846 77.0889 2.36117 76.9961C2.49387 76.9032 2.64362 76.8375 2.80181 76.8027C2.95999 76.7679 3.12349 76.7648 3.2829 76.7934L4.48545 76.9658C4.7199 77.0029 4.96006 76.9737 5.1788 76.8815C5.39754 76.7893 5.58616 76.6378 5.72336 76.4441L6.05936 75.9578C6.19746 75.7653 6.38636 75.6149 6.60496 75.5236C6.82357 75.4322 7.06326 75.4035 7.29727 75.4405L13.0049 76.2584C13.2194 76.2894 13.4231 76.3725 13.598 76.5005C13.773 76.6284 13.9139 76.7973 14.0085 76.9923L14.2252 77.4786C14.3161 77.6755 14.4554 77.846 14.6301 77.9744C14.8049 78.1027 15.0093 78.1847 15.2243 78.2125L22.5147 79.2515C22.6753 79.2691 22.8308 79.3182 22.9724 79.396C23.114 79.4737 23.2389 79.5786 23.3399 79.7047C23.4409 79.8307 23.5161 79.9755 23.5611 80.1306C23.6061 80.2857 23.6201 80.4482 23.6023 80.6088L21.7189 93.6908C21.6631 94.0807 21.4548 94.4323 21.1397 94.6686C20.8247 94.9049 20.4288 95.0064 20.0389 94.9509L1.28898 92.2628Z" fill="black"/>
    </g>
    <path d="M14.5168 78.1125L9.89233 77.4361L9.58727 76.6005C9.48383 76.3287 9.30884 76.0898 9.08081 75.9093C8.85278 75.7287 8.5802 75.6131 8.29188 75.5748L3.76467 74.9249C3.39181 74.8594 3.00819 74.9446 2.69813 75.1618C2.38807 75.379 2.17695 75.7104 2.11117 76.0832L2.03601 76.6005L0.0376703 90.4872C-0.00706443 90.9148 0.118776 91.3427 0.387836 91.678C0.656897 92.0133 1.04743 92.2288 1.47453 92.2777L19.8531 94.9304C20.2781 95.0035 20.7148 94.9049 21.0671 94.6562C21.4194 94.4075 21.6586 94.029 21.7321 93.6041L23.6199 80.4866C23.6607 80.2091 23.5909 79.9267 23.4255 79.7001C23.2602 79.4735 23.0124 79.321 22.7357 79.2753L14.5168 78.1125Z" fill="#36BC6C"/>
    <path d="M18.2352 83.8236L7.29492 82.251L6.63316 86.8547L17.5735 88.4273L18.2352 83.8236Z" fill="white"/>
    <path d="M16.2498 85.6105C16.2498 85.6503 14.5565 85.4425 12.483 85.1419C10.4095 84.8412 8.72947 84.5671 8.7339 84.5273C8.73832 84.4876 10.4272 84.6953 12.5051 84.996C14.583 85.2966 16.2586 85.5663 16.2498 85.6105Z" fill="#263238"/>
    <path d="M16.1087 86.5889C16.1087 86.6331 14.4154 86.4209 12.3419 86.1468C10.2684 85.8726 8.58836 85.572 8.59278 85.5322C8.5972 85.4924 10.2861 85.7002 12.364 85.9964C14.4419 86.2927 16.1175 86.5491 16.1087 86.5889Z" fill="#263238"/>
    <path d="M24.774 75.2298C24.6442 75.2517 24.5113 75.2471 24.3833 75.2164C24.2553 75.1856 24.1348 75.1293 24.0291 75.0509C23.9234 74.9724 23.8347 74.8734 23.7682 74.7598C23.7017 74.6462 23.6588 74.5203 23.6422 74.3897L22.4308 65.9896C22.4109 65.7779 22.4747 65.5667 22.6086 65.4015C22.7425 65.2362 22.9358 65.1299 23.147 65.1054L23.934 64.9949C24.0896 64.9742 24.2365 64.9108 24.3583 64.8117C24.48 64.7126 24.5719 64.5816 24.6237 64.4334L24.7431 64.0664C24.7929 63.9183 24.8838 63.7874 25.0051 63.6888C25.1264 63.5902 25.2731 63.528 25.4283 63.5094L29.1951 62.9612C29.3357 62.9406 29.4792 62.9553 29.6127 63.0039C29.7462 63.0525 29.8655 63.1336 29.96 63.2397L30.1855 63.505C30.2817 63.6124 30.4034 63.6938 30.5394 63.7417C30.6754 63.7896 30.8213 63.8025 30.9636 63.7791L35.7472 63.0894C35.9582 63.0521 36.1755 63.1 36.3512 63.2227C36.5269 63.3454 36.6468 63.5327 36.6845 63.7437L37.9268 72.3428C37.9622 72.5994 37.8947 72.8596 37.739 73.0667C37.5833 73.2737 37.352 73.4108 37.0956 73.448L24.774 75.2298Z" fill="#F24D4D"/>
    <path d="M30.468 63.8502L27.4263 64.2923L27.0815 63.8237C26.9655 63.6717 26.8106 63.5541 26.6331 63.4832C26.4555 63.4124 26.2621 63.391 26.0734 63.4214L23.098 63.8635C22.9755 63.8767 22.8567 63.914 22.7486 63.9731C22.6404 64.0323 22.545 64.1122 22.4678 64.2083C22.3906 64.3044 22.3331 64.4148 22.2987 64.5332C22.2642 64.6515 22.2534 64.7755 22.2669 64.898L22.3199 65.2429L23.6463 74.3725C23.6703 74.5102 23.7213 74.6419 23.7963 74.7599C23.8714 74.8779 23.9691 74.9799 24.0837 75.06C24.1984 75.1402 24.3277 75.1968 24.4643 75.2268C24.6009 75.2567 24.7421 75.2594 24.8797 75.2346L36.9626 73.4927C37.243 73.4604 37.4992 73.3188 37.6756 73.0985C37.8519 72.8783 37.9342 72.5972 37.9043 72.3167L36.6576 63.6911C36.6446 63.5997 36.6137 63.5119 36.5666 63.4326C36.5195 63.3533 36.4571 63.2841 36.3831 63.229C36.3091 63.174 36.225 63.1341 36.1355 63.1117C36.046 63.0893 35.953 63.0849 35.8618 63.0986L30.468 63.8502Z" fill="#F24D4D"/>
    <path d="M33.8642 66.7664L26.6748 67.8037L27.1111 70.8274L34.3005 69.7901L33.8642 66.7664Z" fill="white"/>
    <path d="M32.9531 68.2581C32.9531 68.2846 31.8522 68.4659 30.4905 68.6648C29.1288 68.8638 28.0147 68.9964 28.0103 68.9699C28.0058 68.9434 29.1111 68.7621 30.4772 68.5676C31.8434 68.373 32.9486 68.2316 32.9531 68.2581Z" fill="#263238"/>
    <path d="M33.0454 68.9036C33.0454 68.9301 31.9445 69.1114 30.5828 69.3059C29.2211 69.5004 28.107 69.6419 28.1026 69.6154C28.0981 69.5889 29.2034 69.4076 30.5695 69.2131C31.9357 69.0185 33.0409 68.8771 33.0454 68.9036Z" fill="#263238"/>
    <path d="M63.393 55.4844L57.6455 59.7242C58.235 61.4308 58.8245 63.1388 59.414 64.8483C60.7014 63.6574 61.7217 62.2071 62.4076 60.593C63.0934 58.9789 63.4293 57.2378 63.393 55.4844Z" fill="#263238"/>
    <path d="M50.0551 45.2896C51.6161 44.5057 53.4013 44.29 55.1041 44.6795C56.794 45.0741 58.4082 45.7416 59.8833 46.6557C60.7476 47.0974 61.5214 47.6973 62.1646 48.4242C63.2698 49.808 64.3751 52.0893 64.4635 53.8577C64.552 55.2902 64.0214 58.8713 63.3981 60.1711C62.8454 61.3603 60.2458 62.2711 58.9769 62.5629L47.2168 48.884C47.4286 48.1269 47.7885 47.4193 48.2758 46.8023C48.763 46.1853 49.3678 45.6712 50.0551 45.2896Z" fill="#564F52"/>
    <path d="M48.0258 47.1329L50.8465 46.6289C49.3035 50.2984 48.888 58.6941 48.0037 62.5758C46.9648 61.0682 44.5508 56.4747 44.6835 54.6488C44.8161 52.8229 44.6702 46.8234 48.0258 47.1329Z" fill="#564F52"/>
    <path d="M61.395 53.2435C61.3431 52.2157 60.963 51.2316 60.3105 50.4358C59.6579 49.64 58.7674 49.0745 57.7697 48.8223L51.3016 47.1512C48.4942 46.8505 46.6196 50.3034 46.4384 53.1197C46.2306 56.2498 46.1068 59.548 46.4737 61.8867C47.2076 66.5819 50.8064 67.1921 50.8064 67.1921V70.7997L52.9816 79.7922L60.2234 71.9801L61.4348 53.3053C61.4127 53.2213 61.4038 53.3496 61.395 53.2435Z" fill="#FFBF9D"/>
    <path d="M47.8267 56.664C47.8243 56.8212 47.8836 56.9731 47.9919 57.0872C48.1001 57.2012 48.2487 57.2683 48.4059 57.2741C48.4825 57.2801 48.5595 57.2707 48.6323 57.2464C48.7052 57.2222 48.7725 57.1836 48.8302 57.1329C48.8879 57.0822 48.9348 57.0204 48.9683 56.9513C49.0017 56.8822 49.021 56.807 49.0249 56.7303C49.0261 56.5746 48.967 56.4244 48.8598 56.3114C48.7526 56.1984 48.6057 56.1315 48.4501 56.1246C48.3734 56.1173 48.296 56.1257 48.2227 56.1492C48.1493 56.1726 48.0814 56.2107 48.0232 56.2611C47.9649 56.3115 47.9175 56.3732 47.8837 56.4424C47.85 56.5117 47.8306 56.587 47.8267 56.664Z" fill="#263238"/>
    <path d="M47.1189 54.9574C47.1941 55.037 47.6495 54.701 48.2994 54.701C48.9493 54.701 49.4223 55.0282 49.4931 54.953C49.5638 54.8778 49.4489 54.7762 49.2455 54.6214C48.9647 54.4278 48.6316 54.3245 48.2905 54.3252C47.953 54.3247 47.6237 54.4299 47.3488 54.6258C47.1499 54.7806 47.0836 54.9353 47.1189 54.9574Z" fill="#263238"/>
    <path d="M53.4722 56.6655C53.4709 56.8225 53.5305 56.9737 53.6386 57.0875C53.7466 57.2013 53.8946 57.2688 54.0514 57.2757C54.1282 57.2817 54.2054 57.2723 54.2785 57.2481C54.3516 57.2239 54.4192 57.1853 54.4773 57.1347C54.5353 57.0841 54.5827 57.0223 54.6166 56.9532C54.6505 56.884 54.6703 56.8088 54.6747 56.7319C54.676 56.5754 54.6162 56.4246 54.508 56.3115C54.3999 56.1984 54.2519 56.1319 54.0956 56.1262C54.019 56.1195 53.9419 56.1283 53.8688 56.152C53.7956 56.1757 53.728 56.2138 53.6699 56.2641C53.6118 56.3144 53.5643 56.3759 53.5304 56.4448C53.4964 56.5138 53.4766 56.5888 53.4722 56.6655Z" fill="#263238"/>
    <path d="M53.2732 54.9574C53.3484 55.037 53.8038 54.701 54.4537 54.701C55.1036 54.701 55.5766 55.0326 55.6474 54.953C55.7181 54.8734 55.6032 54.7762 55.3998 54.6214C55.119 54.4278 54.7859 54.3245 54.4448 54.3252C54.1072 54.3247 53.778 54.4299 53.5031 54.6258C53.3042 54.7806 53.2379 54.9353 53.2732 54.9574Z" fill="#263238"/>
    <path d="M51.2482 60.046C50.9063 59.9409 50.553 59.8771 50.196 59.8559C50.028 59.8559 49.8732 59.8028 49.8467 59.6923C49.832 59.5212 49.8706 59.3498 49.9572 59.2016C50.1134 58.8007 50.277 58.3807 50.448 57.9415C51.1332 56.1466 51.6284 54.6744 51.5577 54.6478C51.4869 54.6213 50.8724 56.0537 50.1871 57.8443C50.0235 58.2864 49.8644 58.7064 49.7141 59.1087C49.6114 59.309 49.5817 59.5388 49.6301 59.7586C49.6531 59.8173 49.6895 59.8698 49.7363 59.912C49.7831 59.9542 49.839 59.9849 49.8998 60.0018C49.9902 60.0284 50.084 60.0418 50.1783 60.0416C50.5333 60.0889 50.8928 60.0904 51.2482 60.046Z" fill="#263238"/>
    <path d="M57.0091 65.5166C57.0091 65.5166 55.4838 68.744 50.7842 68.2931V67.1878C52.9739 67.2185 55.1291 66.6399 57.0091 65.5166Z" fill="#FF9A6C"/>
    <path d="M53.4768 52.6148C53.5387 52.7916 54.1886 52.712 54.949 52.8049C55.7095 52.8977 56.324 53.1055 56.4213 52.9464C56.4699 52.8712 56.3638 52.7076 56.1162 52.5352C55.7853 52.326 55.4113 52.1945 55.0222 52.1509C54.6332 52.1072 54.2393 52.1525 53.8703 52.2832C53.5917 52.3937 53.4503 52.5308 53.4768 52.6148Z" fill="#263238"/>
    <path d="M47.3226 52.978C47.4376 53.1239 47.8841 52.978 48.4191 52.978C48.954 52.978 49.4094 53.0797 49.5155 52.925C49.5597 52.8498 49.489 52.7039 49.29 52.5624C49.0268 52.3934 48.7184 52.3085 48.4058 52.3193C48.0873 52.323 47.778 52.4266 47.5216 52.6155C47.3447 52.7525 47.2828 52.9029 47.3226 52.978Z" fill="#263238"/>
    <path d="M47.6897 48.8309C47.8558 48.4858 48.1144 48.1935 48.4368 47.9866C48.7591 47.7798 49.1326 47.6665 49.5156 47.6593C50.2829 47.6613 51.034 47.8805 51.6819 48.2916C54.4761 49.9097 55.9129 53.8135 58.6761 55.4847C59.357 55.8959 60.2412 55.5201 60.8204 56.0639C61.3995 56.6077 61.7709 57.4786 61.4526 58.2081C61.848 57.7157 62.1711 57.1693 62.412 56.5856C62.5303 56.2925 62.5845 55.9775 62.5707 55.6618C62.557 55.346 62.4757 55.0369 62.3324 54.7552C62.0937 54.3396 61.6736 54.0257 61.5587 53.5615C61.5279 53.1428 61.5412 52.7219 61.5985 52.3059C61.5469 51.8775 61.3954 51.4671 61.1564 51.1078C60.1159 49.155 58.563 47.5226 56.6645 46.3861C55.4132 45.6634 53.9888 45.2951 52.5441 45.3206C51.0929 45.3538 49.7016 45.9059 48.6225 46.8768C48.008 47.4516 47.3581 48.0484 47.6764 48.8309" fill="#564F52"/>
    <path d="M60.7539 56.6471C60.8025 56.51 63.2518 55.6258 63.2828 58.2299C63.3137 60.7587 60.7627 60.2636 60.7583 60.1884C60.7539 60.1132 60.7539 56.6471 60.7539 56.6471Z" fill="#FFBF9D"/>
    <path d="M61.5273 59.2254C61.5273 59.2254 61.5715 59.2564 61.6466 59.2873C61.753 59.3303 61.8719 59.3303 61.9782 59.2873C62.1402 59.1821 62.2713 59.0358 62.3583 58.8634C62.4453 58.691 62.485 58.4986 62.4734 58.3058C62.477 58.0878 62.4317 57.8718 62.3408 57.6736C62.3168 57.5954 62.2741 57.5243 62.2163 57.4665C62.1585 57.4087 62.0874 57.3659 62.0092 57.342C61.9586 57.3285 61.9049 57.3331 61.8573 57.3549C61.8097 57.3766 61.7712 57.4143 61.7483 57.4614C61.7174 57.5365 61.7483 57.5852 61.7174 57.5896C61.6864 57.594 61.6643 57.5454 61.682 57.4437C61.6963 57.3804 61.7323 57.3241 61.7837 57.2845C61.8175 57.2573 61.8565 57.2373 61.8983 57.2259C61.9402 57.2145 61.9839 57.2119 62.0269 57.2182C62.1306 57.2375 62.2277 57.2829 62.309 57.3502C62.3902 57.4175 62.4529 57.5045 62.4911 57.6029C62.6005 57.8223 62.6552 58.065 62.6502 58.3102C62.6637 58.5348 62.611 58.7584 62.4986 58.9533C62.3862 59.1482 62.2191 59.3058 62.018 59.4067C61.9499 59.427 61.878 59.432 61.8077 59.4213C61.7374 59.4106 61.6703 59.3845 61.6113 59.3448C61.5317 59.2873 61.5184 59.2298 61.5273 59.2254Z" fill="#FF9A6C"/>
    <path d="M61.7576 55.3472C61.7049 55.3223 61.6546 55.2927 61.6072 55.2587C61.4552 55.1768 61.3076 55.0868 61.1651 54.989C60.6657 54.6261 60.2076 54.2095 59.799 53.7467C59.2024 53.056 58.6445 52.3328 58.1278 51.5804C57.5062 50.657 56.8082 49.7874 56.0411 48.9808C55.6403 48.577 55.1954 48.2196 54.7147 47.9153C54.2586 47.6371 53.7701 47.4159 53.2602 47.2565C52.3961 46.9779 51.487 46.8654 50.581 46.9249C49.9695 46.9617 49.3658 47.0807 48.786 47.2786C48.5782 47.3405 48.4235 47.4113 48.3174 47.4511C48.2654 47.4769 48.2105 47.4962 48.1538 47.5085L48.3086 47.429C48.4147 47.3847 48.565 47.3052 48.7507 47.2344C49.3307 47.0206 49.9379 46.8897 50.5545 46.8454C51.4723 46.7711 52.3958 46.8762 53.2735 47.1548C53.7917 47.3163 54.2889 47.539 54.7545 47.818C55.2478 48.1268 55.7059 48.4886 56.1206 48.8968C56.894 49.7081 57.5952 50.5853 58.2163 51.5185C58.7247 52.2728 59.2737 52.9989 59.8609 53.6937C60.2605 54.1563 60.7047 54.5784 61.1872 54.9537C61.3597 55.0863 61.5011 55.1747 61.594 55.2411C61.6533 55.2684 61.7084 55.3041 61.7576 55.3472Z" fill="#455A64"/>
    <path d="M61.8148 59.6718C61.939 59.6496 62.0669 59.6756 62.1725 59.7446C62.2781 59.8135 62.3535 59.9201 62.3832 60.0427C62.4128 60.1652 62.3946 60.2945 62.3323 60.4041C62.2699 60.5137 62.1681 60.5954 62.0475 60.6325C61.927 60.6696 61.7968 60.6593 61.6836 60.6037C61.5704 60.5481 61.4827 60.4514 61.4384 60.3334C61.394 60.2153 61.3964 60.0848 61.445 59.9684C61.4936 59.852 61.5847 59.7586 61.6999 59.7071" fill="white"/>
    <path d="M61.6998 59.7077C61.5901 59.795 61.5099 59.9138 61.4699 60.0481C61.4528 60.1174 61.4527 60.1897 61.4697 60.259C61.4866 60.3283 61.52 60.3925 61.5671 60.446C61.6235 60.5127 61.6984 60.5612 61.7824 60.5854C61.8663 60.6096 61.9556 60.6084 62.0388 60.5819C62.1221 60.5554 62.1956 60.5048 62.2501 60.4366C62.3047 60.3684 62.3378 60.2855 62.3453 60.1984C62.3532 60.128 62.3441 60.0567 62.3187 59.9905C62.2933 59.9244 62.2524 59.8653 62.1994 59.8182C62.0883 59.7328 61.9545 59.682 61.8147 59.6723C61.8504 59.6503 61.8925 59.6409 61.9341 59.6458C62.0059 59.6468 62.0768 59.6625 62.1423 59.6919C62.2078 59.7214 62.2666 59.7639 62.3151 59.8169C62.3636 59.8699 62.4006 59.9323 62.4241 60.0002C62.4475 60.0681 62.4568 60.1401 62.4514 60.2117C62.4449 60.3205 62.4056 60.4248 62.3386 60.5108C62.2717 60.5968 62.1803 60.6605 62.0764 60.6936C61.9725 60.7266 61.8611 60.7274 61.7568 60.6958C61.6524 60.6643 61.5601 60.6018 61.492 60.5168C61.4448 60.4622 61.4096 60.3983 61.3886 60.3293C61.3676 60.2602 61.3613 60.1876 61.37 60.116C61.3788 60.0444 61.4024 59.9754 61.4394 59.9134C61.4764 59.8515 61.5259 59.798 61.5848 59.7563C61.6511 59.7121 61.6954 59.7033 61.6998 59.7077Z" fill="#263238"/>
    <path d="M61.1209 56.0627C61.2209 56.7506 61.1354 57.4526 60.8733 58.0964C60.555 58.7109 59.7503 59.1265 59.1491 58.7817C58.6583 58.5032 58.5124 57.8975 58.4284 57.3183C58.1897 55.7046 58.0792 54.0776 57.8271 52.4551L61.1209 56.0627Z" fill="#564F52"/>
    <path d="M48.313 47.6286C48.313 47.6286 48.534 47.5844 48.9408 47.5712C49.5138 47.5633 50.0829 47.6669 50.6164 47.8762C50.9836 48.0189 51.3347 48.1997 51.6642 48.4156C52.0407 48.6704 52.4023 48.9464 52.7474 49.2423C53.5418 49.9172 54.2527 50.6845 54.8651 51.5281C55.1834 51.9702 55.4708 52.4432 55.7758 52.8544C56.0701 53.2722 56.4112 53.6549 56.7927 53.995C57.4482 54.5503 58.1646 55.0293 58.9281 55.4231C59.578 55.7679 60.1174 56.0066 60.4887 56.1702L60.9308 56.3559C60.9803 56.3792 61.0322 56.397 61.0856 56.409C61.0424 56.3759 60.9948 56.3491 60.9441 56.3294L60.5241 56.1216C60.1571 55.9403 59.6399 55.6795 58.9856 55.3346C58.2359 54.9327 57.5318 54.4509 56.8855 53.8978C56.5154 53.562 56.1846 53.1853 55.8996 52.7748C55.599 52.3327 55.3116 51.8906 54.9889 51.4264C54.3708 50.5739 53.649 49.8016 52.8402 49.1274C52.4932 48.8295 52.1269 48.5548 51.7438 48.3051C51.4062 48.0882 51.0459 47.9089 50.6694 47.7701C50.1243 47.5618 49.5411 47.4714 48.9585 47.5048C48.801 47.5142 48.6444 47.5349 48.4898 47.5667C48.4284 47.5795 48.369 47.6004 48.313 47.6286Z" fill="#455A64"/>
    <path d="M61.1914 54.4941C61.2591 54.5545 61.3351 54.6051 61.4169 54.6444L62.0535 55.0202L62.2702 55.144C62.3553 55.1945 62.4503 55.2261 62.5487 55.2369C62.6091 55.2445 62.6702 55.2304 62.7211 55.1971C62.748 55.1776 62.7703 55.1525 62.7863 55.1234C62.8024 55.0944 62.8118 55.0622 62.814 55.0291C62.8077 54.9132 62.7661 54.8021 62.6946 54.7108L61.9518 53.5215L61.8502 53.6143C62.0955 53.7952 62.3709 53.9314 62.6636 54.0166C62.9567 54.1074 63.2637 54.1448 63.57 54.1272C63.648 54.1241 63.7253 54.1107 63.7999 54.0874C63.8425 54.0737 63.8818 54.0513 63.9153 54.0216C63.9487 53.9919 63.9757 53.9556 63.9944 53.915C64.0101 53.8721 64.0143 53.8258 64.0065 53.7808C63.9988 53.7358 63.9794 53.6937 63.9502 53.6585C63.9075 53.6017 63.8602 53.5484 63.8087 53.4994C63.475 53.1778 63.1851 52.8136 62.9466 52.4162C62.736 52.0409 62.5527 51.6508 62.3984 51.249C62.4086 51.3657 62.4354 51.4803 62.478 51.5894C62.5763 51.8956 62.7037 52.1917 62.8582 52.4737C63.0913 52.8881 63.3799 53.2689 63.7159 53.6055C63.8087 53.6939 63.906 53.7956 63.8662 53.8752C63.8264 53.9547 63.6938 53.9945 63.5611 53.9945C63.2716 54.0083 62.9817 53.9739 62.7034 53.8928C62.4264 53.8108 62.166 53.6806 61.9342 53.5082L61.6335 53.2916L61.8325 53.6055L62.5929 54.7859C62.6523 54.8542 62.6894 54.9391 62.699 55.0291C62.6975 55.0462 62.6923 55.0629 62.684 55.0779C62.6756 55.093 62.6642 55.1062 62.6505 55.1166C62.6367 55.127 62.621 55.1344 62.6042 55.1384C62.5875 55.1423 62.57 55.1427 62.5531 55.1396C62.3959 55.1044 62.2462 55.0416 62.111 54.9539L61.4523 54.6135C61.3702 54.5637 61.2827 54.5236 61.1914 54.4941Z" fill="#455A64"/>
    <path d="M53.7106 61.2414C53.6638 61.0467 53.549 60.8751 53.3869 60.7576C53.2248 60.64 53.026 60.5843 52.8264 60.6004C52.682 60.6185 52.5443 60.6719 52.4255 60.756C52.3068 60.8401 52.2106 60.9521 52.1455 61.0823C52.0822 61.2138 52.0461 61.3568 52.0393 61.5027C52.0324 61.6485 52.055 61.7942 52.1057 61.9311V61.9886C52.2398 62.1349 52.4161 62.236 52.6101 62.278C52.804 62.3199 53.0063 62.3007 53.1889 62.2229C53.375 62.1437 53.5283 62.003 53.6232 61.8244C53.7182 61.6458 53.749 61.44 53.7106 61.2414Z" fill="#FF9A6C"/>
    <path d="M51.6637 62.0092C51.6637 61.9076 52.318 61.9385 52.8131 61.4035C53.3083 60.8686 53.2553 60.1656 53.3569 60.1612C53.4586 60.1568 53.4763 60.3248 53.4719 60.6033C53.4576 60.9868 53.3089 61.353 53.0519 61.6379C52.8046 61.9114 52.4605 62.0779 52.0925 62.1021C51.8184 62.1286 51.6592 62.049 51.6637 62.0092Z" fill="#263238"/>
    <path d="M41.6769 112.23C42.2649 109.184 44.1527 98.9315 44.1527 96.858C44.1527 96.5176 43.6222 95.4521 43.5249 95.1205C42.9723 93.2725 41.0535 86.464 41.4824 82.874C41.8272 80.0047 44.2544 76.3352 44.9839 74.3722C45.3243 73.4482 48.0521 72.4977 48.9629 72.1175L50.8949 69.3896C50.8949 69.3896 50.4528 70.6585 52.1814 71.7992C53.1006 72.3926 54.1837 72.6804 55.2762 72.6215C56.3655 72.5716 57.4328 72.2973 58.4112 71.8158C59.3895 71.3342 60.2579 70.6557 60.9618 69.8229L61.2801 70.0705C67.5227 72.0821 67.4696 72.0954 68.6545 72.5994C70.1975 73.2493 65.3077 89.0857 65.3077 89.0857C65.3077 89.0857 62.4207 99.7804 63.9814 103.096C64.8656 104.962 67.8101 108.043 68.5572 109.776C68.5572 109.776 69.857 111.594 69.8836 112.049C69.9101 112.504 62.1953 115.847 56.1074 116.187C44.8601 116.833 41.6769 112.23 41.6769 112.23Z" fill="#F5F5F5"/>
    <path d="M88.5761 140.029H42.4109C41.4928 140.029 40.7485 140.774 40.7485 141.692V151.254C40.7485 152.173 41.4928 152.917 42.4109 152.917H88.5761C89.4942 152.917 90.2385 152.173 90.2385 151.254V141.692C90.2385 140.774 89.4942 140.029 88.5761 140.029Z" fill="#8F969A"/>
    <path d="M84.654 143.107H63.3354C63.162 143.107 63.0215 143.248 63.0215 143.421V150.071C63.0215 150.244 63.162 150.385 63.3354 150.385H84.654C84.8273 150.385 84.9679 150.244 84.9679 150.071V143.421C84.9679 143.248 84.8273 143.107 84.654 143.107Z" fill="white"/>
    <path d="M52.031 149.38C53.4862 149.38 54.666 148.201 54.666 146.745C54.666 145.29 53.4862 144.11 52.031 144.11C50.5757 144.11 49.396 145.29 49.396 146.745C49.396 148.201 50.5757 149.38 52.031 149.38Z" fill="#263238"/>
    <path d="M52.0313 149.822C51.4192 149.822 50.8209 149.641 50.3119 149.301C49.803 148.961 49.4063 148.477 49.1721 147.912C48.9379 147.346 48.8766 146.724 48.996 146.124C49.1154 145.523 49.4102 144.972 49.843 144.539C50.2758 144.106 50.8272 143.812 51.4275 143.692C52.0279 143.573 52.6501 143.634 53.2156 143.868C53.7811 144.103 54.2645 144.499 54.6045 145.008C54.9446 145.517 55.1261 146.115 55.1261 146.728C55.1261 147.548 54.8 148.336 54.2196 148.916C53.6393 149.496 52.8521 149.822 52.0313 149.822ZM52.0313 144.552C51.5941 144.552 51.1667 144.682 50.8032 144.925C50.4397 145.168 50.1563 145.513 49.989 145.917C49.8217 146.321 49.7779 146.765 49.8632 147.194C49.9485 147.623 50.1591 148.017 50.4682 148.326C50.7774 148.635 51.1712 148.846 51.6 148.931C52.0288 149.016 52.4733 148.973 52.8772 148.805C53.2812 148.638 53.6264 148.355 53.8693 147.991C54.1122 147.628 54.2419 147.2 54.2419 146.763C54.2419 146.177 54.009 145.614 53.5944 145.2C53.1798 144.785 52.6176 144.552 52.0313 144.552Z" fill="#E0E0E0"/>
    <path d="M65.3163 144.349C65.4684 145.966 65.4684 147.594 65.3163 149.212C65.1641 147.594 65.1641 145.966 65.3163 144.349Z" fill="#E0E0E0"/>
    <path d="M67.452 144.349C67.6041 145.966 67.6041 147.594 67.452 149.212C67.2999 147.594 67.2999 145.966 67.452 144.349Z" fill="#E0E0E0"/>
    <path d="M69.5873 144.349C69.7394 145.966 69.7394 147.594 69.5873 149.212C69.4351 147.594 69.4351 145.966 69.5873 144.349Z" fill="#E0E0E0"/>
    <path d="M71.7225 144.349C71.8747 145.966 71.8747 147.594 71.7225 149.212C71.5704 147.594 71.5704 145.966 71.7225 144.349Z" fill="#E0E0E0"/>
    <path d="M73.849 144.349C74.0011 145.966 74.0011 147.594 73.849 149.212C73.6968 147.594 73.6968 145.966 73.849 144.349Z" fill="#E0E0E0"/>
    <path d="M75.9935 144.349C76.1457 145.966 76.1457 147.594 75.9935 149.212C75.8414 147.594 75.8414 145.966 75.9935 144.349Z" fill="#E0E0E0"/>
    <path d="M78.1288 144.349C78.2809 145.966 78.2809 147.594 78.1288 149.212C77.9766 147.594 77.9766 145.966 78.1288 144.349Z" fill="#E0E0E0"/>
    <path d="M80.2596 144.349C80.4118 145.966 80.4118 147.594 80.2596 149.212C80.1075 147.594 80.1075 145.966 80.2596 144.349Z" fill="#E0E0E0"/>
    <path d="M82.3949 144.349C82.547 145.966 82.547 147.594 82.3949 149.212C82.2427 147.594 82.2427 145.966 82.3949 144.349Z" fill="#E0E0E0"/>
    <path d="M88.5761 127.624H42.4109C41.4928 127.624 40.7485 128.368 40.7485 129.286V138.849C40.7485 139.767 41.4928 140.512 42.4109 140.512H88.5761C89.4942 140.512 90.2385 139.767 90.2385 138.849V129.286C90.2385 128.368 89.4942 127.624 88.5761 127.624Z" fill="#36BC6C"/>
    <path d="M84.654 130.697H63.3354C63.162 130.697 63.0215 130.838 63.0215 131.011V137.661C63.0215 137.834 63.162 137.974 63.3354 137.974H84.654C84.8273 137.974 84.9679 137.834 84.9679 137.661V131.011C84.9679 130.838 84.8273 130.697 84.654 130.697Z" fill="white"/>
    <path d="M52.031 136.97C53.4862 136.97 54.666 135.79 54.666 134.335C54.666 132.88 53.4862 131.7 52.031 131.7C50.5757 131.7 49.396 132.88 49.396 134.335C49.396 135.79 50.5757 136.97 52.031 136.97Z" fill="#263238"/>
    <path d="M52.0313 137.413C51.4192 137.413 50.8209 137.232 50.3119 136.892C49.803 136.552 49.4063 136.068 49.1721 135.503C48.9379 134.937 48.8766 134.315 48.996 133.715C49.1154 133.114 49.4102 132.563 49.843 132.13C50.2758 131.697 50.8272 131.403 51.4275 131.283C52.0279 131.164 52.6501 131.225 53.2156 131.459C53.7811 131.693 54.2645 132.09 54.6045 132.599C54.9446 133.108 55.1261 133.706 55.1261 134.318C55.1261 135.139 54.8 135.926 54.2196 136.507C53.6393 137.087 52.8521 137.413 52.0313 137.413ZM52.0313 132.148C51.5932 132.148 51.1649 132.278 50.8009 132.522C50.4369 132.766 50.1536 133.112 49.987 133.517C49.8203 133.923 49.7779 134.368 49.865 134.798C49.9521 135.227 50.1648 135.621 50.4762 135.929C50.7876 136.237 51.1835 136.446 51.6138 136.529C52.044 136.612 52.4892 136.565 52.8927 136.394C53.2962 136.223 53.6399 135.937 53.8801 135.57C54.1203 135.204 54.2462 134.774 54.2419 134.336C54.236 133.754 54.0006 133.197 53.5866 132.787C53.1727 132.377 52.6138 132.148 52.0313 132.148Z" fill="#E0E0E0"/>
    <path d="M65.3165 131.943C65.4689 133.561 65.4689 135.189 65.3165 136.807C65.164 135.189 65.164 133.561 65.3165 131.943Z" fill="#E0E0E0"/>
    <path d="M67.4522 131.943C67.6046 133.561 67.6046 135.189 67.4522 136.807C67.2998 135.189 67.2998 133.561 67.4522 131.943Z" fill="#E0E0E0"/>
    <path d="M69.5875 131.943C69.7399 133.561 69.7399 135.189 69.5875 136.807C69.435 135.189 69.435 133.561 69.5875 131.943Z" fill="#E0E0E0"/>
    <path d="M71.7227 131.943C71.8752 133.561 71.8752 135.189 71.7227 136.807C71.5703 135.189 71.5703 133.561 71.7227 131.943Z" fill="#E0E0E0"/>
    <path d="M73.8492 131.943C74.0016 133.561 74.0016 135.189 73.8492 136.807C73.6968 135.189 73.6968 133.561 73.8492 131.943Z" fill="#E0E0E0"/>
    <path d="M75.9937 131.943C76.1462 133.561 76.1462 135.189 75.9937 136.807C75.8413 135.189 75.8413 133.561 75.9937 131.943Z" fill="#E0E0E0"/>
    <path d="M78.129 131.943C78.2814 133.561 78.2814 135.189 78.129 136.807C77.9765 135.189 77.9765 133.561 78.129 131.943Z" fill="#E0E0E0"/>
    <path d="M80.2598 131.943C80.4123 133.561 80.4123 135.189 80.2598 136.807C80.1074 135.189 80.1074 133.561 80.2598 131.943Z" fill="#E0E0E0"/>
    <path d="M82.3951 131.943C82.5475 133.561 82.5475 135.189 82.3951 136.807C82.2427 135.189 82.2427 133.561 82.3951 131.943Z" fill="#E0E0E0"/>
    <path d="M88.5761 152.988H42.4109C41.4928 152.988 40.7485 153.733 40.7485 154.651V164.213C40.7485 165.132 41.4928 165.876 42.4109 165.876H88.5761C89.4942 165.876 90.2385 165.132 90.2385 164.213V154.651C90.2385 153.733 89.4942 152.988 88.5761 152.988Z" fill="#263238"/>
    <path d="M84.654 156.064H63.3354C63.162 156.064 63.0215 156.205 63.0215 156.378V163.028C63.0215 163.201 63.162 163.342 63.3354 163.342H84.654C84.8273 163.342 84.9679 163.201 84.9679 163.028V156.378C84.9679 156.205 84.8273 156.064 84.654 156.064Z" fill="white"/>
    <path d="M54.6662 159.717C54.6662 159.192 54.5106 158.68 54.2191 158.243C53.9276 157.807 53.5134 157.467 53.0286 157.266C52.5439 157.066 52.0106 157.013 51.496 157.115C50.9814 157.218 50.5088 157.47 50.1378 157.841C49.7668 158.212 49.5142 158.685 49.4118 159.2C49.3095 159.714 49.362 160.248 49.5628 160.732C49.7635 161.217 50.1035 161.631 50.5398 161.923C50.976 162.214 51.4889 162.37 52.0135 162.37C52.717 162.37 53.3918 162.09 53.8892 161.593C54.3867 161.095 54.6662 160.421 54.6662 159.717Z" fill="#263238"/>
    <path d="M52.0313 162.781C51.4192 162.781 50.8209 162.6 50.3119 162.26C49.803 161.92 49.4063 161.436 49.1721 160.871C48.9379 160.305 48.8766 159.683 48.996 159.083C49.1154 158.482 49.4102 157.931 49.843 157.498C50.2758 157.065 50.8272 156.771 51.4275 156.651C52.0279 156.532 52.6501 156.593 53.2156 156.827C53.7811 157.062 54.2645 157.458 54.6045 157.967C54.9446 158.476 55.1261 159.074 55.1261 159.687C55.1261 160.507 54.8 161.295 54.2196 161.875C53.6393 162.455 52.8521 162.781 52.0313 162.781ZM52.0313 157.511C51.5941 157.511 51.1667 157.641 50.8032 157.884C50.4397 158.127 50.1563 158.472 49.989 158.876C49.8217 159.28 49.7779 159.724 49.8632 160.153C49.9485 160.582 50.1591 160.976 50.4682 161.285C50.7774 161.594 51.1712 161.805 51.6 161.89C52.0288 161.975 52.4733 161.932 52.8772 161.764C53.2812 161.597 53.6264 161.314 53.8693 160.95C54.1122 160.587 54.2419 160.159 54.2419 159.722C54.2424 159.431 54.1857 159.143 54.0749 158.875C53.964 158.606 53.8013 158.362 53.596 158.156C53.3906 157.95 53.1468 157.787 52.8783 157.676C52.6098 157.564 52.322 157.507 52.0313 157.507V157.511Z" fill="#F5F5F5"/>
    <path d="M65.3165 157.307C65.4689 158.924 65.4689 160.552 65.3165 162.17C65.164 160.552 65.164 158.924 65.3165 157.307Z" fill="#E0E0E0"/>
    <path d="M67.4522 157.307C67.6046 158.924 67.6046 160.552 67.4522 162.17C67.2998 160.552 67.2998 158.924 67.4522 157.307Z" fill="#E0E0E0"/>
    <path d="M69.5875 157.307C69.7399 158.924 69.7399 160.552 69.5875 162.17C69.435 160.552 69.435 158.924 69.5875 157.307Z" fill="#E0E0E0"/>
    <path d="M71.7227 157.307C71.8752 158.924 71.8752 160.552 71.7227 162.17C71.5703 160.552 71.5703 158.924 71.7227 157.307Z" fill="#E0E0E0"/>
    <path d="M73.8492 157.307C74.0016 158.924 74.0016 160.552 73.8492 162.17C73.6968 160.552 73.6968 158.924 73.8492 157.307Z" fill="#E0E0E0"/>
    <path d="M75.9937 157.307C76.1462 158.924 76.1462 160.552 75.9937 162.17C75.8413 160.552 75.8413 158.924 75.9937 157.307Z" fill="#E0E0E0"/>
    <path d="M78.129 157.307C78.2814 158.924 78.2814 160.552 78.129 162.17C77.9765 160.552 77.9765 158.924 78.129 157.307Z" fill="#E0E0E0"/>
    <path d="M80.2598 157.307C80.4123 158.924 80.4123 160.552 80.2598 162.17C80.1074 160.552 80.1074 158.924 80.2598 157.307Z" fill="#E0E0E0"/>
    <path d="M82.3951 157.307C82.5475 158.924 82.5475 160.552 82.3951 162.17C82.2427 160.552 82.2427 158.924 82.3951 157.307Z" fill="#E0E0E0"/>
    <path d="M17.0068 139.875L13.3417 147.78C13.3417 147.78 4.19 146.569 3.36768 147.966L18.3331 155.764L24.5492 143.673L17.0068 139.875Z" fill="#003FA4"/>
    <path d="M18.2229 149.478C18.3459 149.597 18.421 149.758 18.434 149.929C18.447 150.1 18.3971 150.269 18.2936 150.406C18.1789 150.534 18.0197 150.613 17.8487 150.627C17.6778 150.64 17.5079 150.589 17.374 150.481C17.2434 150.355 17.1643 150.185 17.1521 150.003C17.1398 149.822 17.1953 149.643 17.3077 149.5C17.4402 149.38 17.614 149.316 17.7927 149.321C17.9714 149.326 18.1414 149.399 18.2671 149.526" fill="#E0E0E0"/>
    <path d="M18.3332 155.773L18.8284 154.809L4.15473 147.532C3.98245 147.549 3.81529 147.6 3.66333 147.683C3.51136 147.766 3.37774 147.878 3.27051 148.014L18.3332 155.773Z" fill="#263238"/>
    <path d="M13.1787 147.78C13.1434 147.855 13.4971 148.081 13.7402 148.501C13.9834 148.921 14.0232 149.337 14.1027 149.341C14.1823 149.345 14.2929 148.863 13.9922 148.355C13.6916 147.847 13.1964 147.692 13.1787 147.78Z" fill="#263238"/>
    <path d="M11.2508 147.617C11.1978 147.683 11.4542 147.97 11.547 148.412C11.6399 148.854 11.547 149.221 11.6178 149.257C11.6885 149.292 11.9538 148.894 11.83 148.373C11.7062 147.851 11.2862 147.55 11.2508 147.617Z" fill="#263238"/>
    <path d="M9.37635 149.067C9.43825 149.115 9.73004 148.797 9.7433 148.293C9.75657 147.789 9.49572 147.453 9.43383 147.502C9.37193 147.55 9.47362 147.873 9.45593 148.284C9.43825 148.695 9.30119 149.023 9.37635 149.067Z" fill="#263238"/>
    <path d="M14.2213 146.047C14.2213 146.131 14.6104 146.197 15.0171 146.44C15.4239 146.684 15.6803 146.98 15.751 146.936C15.8218 146.891 15.6405 146.467 15.1586 146.188C14.6767 145.91 14.2125 145.967 14.2213 146.047Z" fill="#263238"/>
    <path d="M14.8007 144.242C14.8007 144.273 15.0527 144.467 15.5655 144.627C15.8651 144.714 16.1736 144.767 16.4851 144.786C16.6691 144.799 16.8538 144.799 17.0378 144.786C17.1479 144.782 17.2567 144.761 17.3605 144.724C17.4352 144.695 17.4984 144.643 17.5407 144.575C17.583 144.507 17.602 144.428 17.5948 144.348C17.5826 144.278 17.5549 144.211 17.5136 144.153C17.4723 144.095 17.4184 144.047 17.3561 144.012C17.2581 143.963 17.154 143.927 17.0466 143.906C16.865 143.864 16.6801 143.839 16.494 143.831C16.1781 143.815 15.8618 143.85 15.5567 143.932C15.0394 144.083 14.7786 144.299 14.7963 144.326C14.8139 144.352 15.1057 144.22 15.6009 144.136C15.8927 144.085 16.1899 144.071 16.4851 144.096C16.6553 144.111 16.8239 144.141 16.9891 144.184C17.1704 144.224 17.3074 144.291 17.3163 144.383C17.3251 144.476 17.3163 144.432 17.2544 144.459C17.179 144.485 17.1 144.5 17.0201 144.503C16.8485 144.524 16.6756 144.533 16.5028 144.529C16.2059 144.529 15.9097 144.499 15.6186 144.441C15.3509 144.356 15.0776 144.289 14.8007 144.242Z" fill="#263238"/>
    <path d="M31.2429 152.59L31.7071 161.295C31.7071 161.295 23.055 164.509 23.0063 166.127L39.8773 166.017L39.7137 152.422L31.2429 152.59Z" fill="#003FA4"/>
    <path d="M36.8137 160.507C36.9781 160.554 37.1195 160.66 37.2109 160.804C37.3022 160.948 37.3371 161.121 37.3089 161.29C37.2688 161.457 37.166 161.601 37.022 161.695C36.8779 161.788 36.7036 161.822 36.5352 161.79C36.3601 161.74 36.2097 161.627 36.1133 161.472C36.0169 161.318 35.9813 161.133 36.0135 160.954C36.042 160.866 36.0875 160.786 36.1476 160.716C36.2076 160.646 36.2809 160.589 36.3631 160.548C36.4454 160.507 36.535 160.482 36.6268 160.476C36.7186 160.47 36.8107 160.482 36.8977 160.512" fill="#E0E0E0"/>
    <path d="M39.8552 166.017V164.934L23.4971 165.376C23.3493 165.471 23.2228 165.595 23.1254 165.741C23.028 165.887 22.9619 166.052 22.9312 166.225L39.8552 166.017Z" fill="#263238"/>
    <path d="M31.5522 161.357C31.5522 161.436 31.9943 161.467 32.3878 161.728C32.7813 161.989 33.0289 162.334 33.104 162.303C33.1792 162.272 33.0466 161.79 32.5381 161.48C32.0297 161.171 31.5345 161.277 31.5522 161.357Z" fill="#263238"/>
    <path d="M29.7793 162.126C29.7793 162.205 30.1241 162.342 30.4159 162.687C30.7077 163.032 30.7917 163.403 30.858 163.399C30.9244 163.395 30.9863 162.922 30.6193 162.515C30.2524 162.108 29.7793 162.046 29.7793 162.126Z" fill="#263238"/>
    <path d="M28.8029 164.28C28.8781 164.28 28.9886 163.882 28.7676 163.427C28.5465 162.971 28.153 162.803 28.1177 162.874C28.0823 162.945 28.3299 163.179 28.5067 163.555C28.6836 163.931 28.7189 164.275 28.8029 164.28Z" fill="#263238"/>
    <path d="M31.6716 159.345C31.707 159.421 32.0872 159.297 32.5558 159.323C33.0245 159.35 33.3958 159.487 33.4401 159.416C33.4843 159.345 33.1217 159.054 32.5558 159.032C31.9899 159.009 31.6274 159.275 31.6716 159.345Z" fill="#263238"/>
    <path d="M31.3359 157.471C31.6147 157.551 31.9104 157.551 32.1892 157.471C32.4945 157.411 32.7914 157.315 33.0734 157.183C33.2424 157.106 33.405 157.016 33.5598 156.914C33.6547 156.859 33.7411 156.79 33.8162 156.71C33.8675 156.649 33.8982 156.574 33.9038 156.494C33.9093 156.415 33.8895 156.336 33.8471 156.268C33.8034 156.211 33.7472 156.165 33.6827 156.134C33.6183 156.103 33.5475 156.086 33.4758 156.087C33.3677 156.086 33.2601 156.102 33.1574 156.136C32.9769 156.184 32.8008 156.247 32.6313 156.326C32.3459 156.461 32.0833 156.64 31.8532 156.856C31.4642 157.228 31.3359 157.542 31.3625 157.559C31.389 157.577 31.5879 157.32 31.9858 157.011C32.2174 156.831 32.4715 156.682 32.7419 156.569C32.9001 156.505 33.0626 156.451 33.2282 156.41C33.405 156.361 33.5598 156.357 33.6084 156.436C33.657 156.516 33.6084 156.476 33.6084 156.534C33.5536 156.591 33.4911 156.64 33.4227 156.679C33.2807 156.776 33.133 156.865 32.9806 156.945C32.7192 157.081 32.4453 157.192 32.1627 157.276C31.883 157.322 31.6068 157.387 31.3359 157.471Z" fill="#263238"/>
    <path d="M69.8304 110.789C69.8304 110.789 35.2794 106.695 33.2899 106.695C28.6124 106.695 26.4195 110.122 25.721 112.885C25.2037 114.919 14.7964 144.319 14.7964 144.319L22.4759 148.298L33.763 128.235L39.5104 118.226L69.1628 122.806L69.8304 110.789Z" fill="#BBBBBB"/>
    <path d="M38.1222 117.273C38.1222 117.273 33.4889 117.273 30.9865 120.978C29.5143 123.158 30.0316 127.053 30.0006 129.993C29.9608 133.994 30.929 158.372 30.929 158.372L40.4079 158.527L42.393 133.123L42.2736 128.423L61.196 126.885C61.196 126.885 62.9202 121.137 58.6848 116.623C58.1366 116.053 38.1222 117.273 38.1222 117.273Z" fill="#BBBBBB"/>
    <path d="M69.8217 111.26C69.8217 111.26 72.7706 118.073 68.7871 123.905C66.1345 127.751 61.1077 126.871 61.1077 126.871L54.4053 118.471L59.7548 110.115L69.8217 111.26Z" fill="#263238"/>
    <path d="M30.9292 158.389C30.985 158.383 31.0414 158.383 31.0972 158.389H31.5879H33.4758L40.4081 158.465L40.3241 158.544C40.691 153.442 41.1818 146.581 41.7255 139.043C41.9068 136.589 42.0837 134.206 42.2517 131.942C42.2192 130.74 42.1912 129.573 42.1677 128.441V128.326H42.2693C47.6498 127.884 52.2345 127.508 55.4708 127.212C57.0933 127.062 58.3755 126.942 59.2508 126.845C59.6929 126.801 60.0245 126.748 60.2544 126.721C60.3668 126.695 60.4804 126.674 60.5949 126.659C60.4851 126.699 60.3729 126.732 60.2588 126.756C60.0334 126.796 59.6974 126.858 59.2597 126.911C58.3755 127.035 57.1022 127.176 55.4841 127.353C52.2478 127.689 47.6631 128.105 42.287 128.556L42.3843 128.445C42.4167 129.577 42.4477 130.744 42.4771 131.947C42.3136 134.21 42.1367 136.593 41.9599 139.047C41.394 146.563 40.8767 153.442 40.4965 158.544V158.624H40.4169L33.489 158.469L31.6012 158.416L31.0972 158.389H30.9292Z" fill="#455A64"/>
    <path d="M61.1074 126.872C61.1074 126.872 61.0676 126.846 60.9836 126.806L60.6078 126.629L59.1488 125.97L53.7683 123.574L45.7838 120.037L41.0665 117.959C40.6553 117.782 40.2574 117.583 39.8153 117.433C39.3843 117.279 38.9405 117.163 38.489 117.088C37.553 116.949 36.6023 116.94 35.6639 117.062C34.7221 117.173 33.8042 117.434 32.9449 117.835C32.5121 118.029 32.1112 118.287 31.7556 118.6C31.4136 118.91 31.1239 119.272 30.8979 119.675C30.4508 120.449 30.1806 121.312 30.1065 122.203C30.0712 122.646 30.1065 123.066 30.1065 123.486C30.1065 123.906 30.1065 124.326 30.1065 124.737C30.1463 128.017 30.1773 130.979 30.2082 133.464C30.2392 135.949 30.2701 137.951 30.2922 139.353C30.2922 140.038 30.2922 140.573 30.3232 140.953V141.369C30.3175 141.416 30.3175 141.463 30.3232 141.51C30.3232 141.51 30.3232 141.462 30.3232 141.369C30.3232 141.276 30.3232 141.126 30.3232 140.949C30.3232 140.573 30.3232 140.038 30.3232 139.348C30.3232 137.951 30.3232 135.94 30.2966 133.464C30.2701 130.988 30.2613 128.017 30.2392 124.732C30.2392 124.326 30.2392 123.91 30.2392 123.486C30.2392 123.061 30.2392 122.637 30.2392 122.221C30.3129 121.357 30.5755 120.519 31.0084 119.767C31.2282 119.383 31.5072 119.035 31.8352 118.737C32.1724 118.44 32.5506 118.193 32.9582 118.003C33.7976 117.616 34.6927 117.362 35.6108 117.252C36.5314 117.131 37.4643 117.138 38.3829 117.274C38.8346 117.344 39.2787 117.456 39.7092 117.61C40.1513 117.751 40.5404 117.959 40.9515 118.132L45.6733 120.196L53.6711 123.693L59.0737 126.032L60.5459 126.66L60.9305 126.819L61.1074 126.872Z" fill="#455A64"/>
    <path d="M44.0112 92.8516C44.0035 92.6654 43.9784 92.4804 43.936 92.299C43.8741 91.9497 43.799 91.4368 43.7282 90.8002C43.6575 90.1636 43.6089 89.4075 43.5956 88.5631C43.5757 86.7296 43.7881 84.9009 44.2278 83.1207C44.4047 82.3936 44.6201 81.6763 44.8733 80.9721C45.0855 80.3708 45.28 79.8889 45.4215 79.5617C45.5048 79.3948 45.5714 79.22 45.6205 79.04C45.5188 79.1961 45.4301 79.3602 45.3552 79.5308C45.1916 79.8491 44.9794 80.3266 44.7451 80.9279C44.4763 81.631 44.2461 82.3483 44.0554 83.0765C43.5925 84.8676 43.3768 86.7136 43.4143 88.5631C43.4294 89.3175 43.4885 90.0704 43.5912 90.8179C43.6555 91.3217 43.7455 91.822 43.8609 92.3166C43.8924 92.4996 43.9428 92.6789 44.0112 92.8516Z" fill="#263238"/>
    <path d="M50.8948 69.3893V67.9922L49.259 70.6449L45.9167 71.8783C44.8689 73.0853 41.469 86.7023 42.1587 88.9527L43.3436 102.282L39.9614 107.375L45.9962 108.025C45.9962 108.025 47.3005 106.734 46.9777 103.326C46.151 94.6913 47.0043 84.8366 47.128 82.657C47.3226 79.3721 50.8948 69.3893 50.8948 69.3893Z" fill="#003FA4"/>
    <path d="M49.241 70.6621C49.241 70.6621 43.7589 72.4571 43.0515 73.4872C41.0973 76.2946 29.346 95.4911 35.0935 101.221C38.8735 104.97 44.1833 97.0561 44.1833 97.0561L49.241 70.6621Z" fill="#003FA4"/>
    <path d="M35.8281 93.5897C35.9969 93.575 36.1641 93.5454 36.3277 93.5012L37.6938 93.2095C38.8522 92.9619 40.4791 92.617 42.3448 92.3252L42.2476 92.2678C42.4244 92.7099 42.6145 93.2094 42.8046 93.7002C43.2821 94.916 43.7375 96.0655 44.131 97.0735V96.9895L42.0663 99.5891L41.496 100.323C41.4218 100.406 41.3579 100.498 41.3059 100.597C41.3906 100.526 41.4677 100.446 41.5358 100.358L42.1459 99.651L44.2592 97.1221L44.2901 97.0868V97.0381C43.9011 96.0257 43.4545 94.8762 42.9638 93.6604C42.7693 93.1697 42.5836 92.6878 42.4023 92.228L42.3758 92.1572H42.3006C40.4261 92.449 38.8035 92.816 37.6496 93.0945C37.0705 93.2316 36.6107 93.3553 36.2923 93.4438C36.1337 93.479 35.9784 93.5278 35.8281 93.5897Z" fill="#263238"/>
    <path d="M41.442 92.0738C41.4361 91.8694 41.4169 91.6656 41.3845 91.4637C41.3314 91.0215 41.2651 90.4777 41.1811 89.8013C40.9302 87.9822 40.8694 86.142 40.9999 84.3103C41.1815 82.4832 41.6954 80.7048 42.5163 79.0624C42.8258 78.4258 43.1043 77.9262 43.2988 77.5858C43.4098 77.4122 43.5074 77.2304 43.5906 77.042C43.5532 77.0791 43.5205 77.1207 43.4934 77.1658C43.4315 77.2542 43.3431 77.378 43.2369 77.546C43.0203 77.8776 42.7241 78.3683 42.3969 79.0005C41.5296 80.6496 40.9906 82.4514 40.8098 84.3059C40.6739 86.151 40.754 88.0057 41.0485 89.8323C41.1458 90.5308 41.243 91.0967 41.3093 91.4858C41.336 91.6853 41.3804 91.8821 41.442 92.0738Z" fill="#263238"/>
    <path d="M46.3764 89.7699C46.388 89.6967 46.388 89.6221 46.3764 89.5489C46.3764 89.3853 46.3454 89.1775 46.3277 88.9211C46.2791 88.3552 46.2084 87.5726 46.1244 86.6177C46.0404 85.6627 45.9166 84.4823 45.7928 83.2001C45.7309 82.5591 45.6646 81.8738 45.5938 81.1841C45.5545 80.8363 45.5412 80.4861 45.5541 80.1363C45.5587 79.7836 45.658 79.4385 45.8414 79.1371C45.9415 78.9691 46.0831 78.8295 46.2527 78.732C46.4222 78.6344 46.614 78.5821 46.8096 78.5801H47.1545L46.8671 78.39L45.4258 77.4173L45.4524 77.5367L48.2686 72.7089L49.0688 71.2985L49.2766 70.9183C49.303 70.8754 49.3238 70.8294 49.3385 70.7812C49.3043 70.8189 49.2746 70.8604 49.2501 70.905C49.1838 71.0023 49.1086 71.1217 49.0158 71.2676L48.1669 72.6514L45.2976 77.4439L45.2534 77.519L45.3242 77.5677L46.761 78.5447L46.8185 78.3723C46.5895 78.3727 46.3645 78.4323 46.1654 78.5454C45.9663 78.6585 45.7998 78.8213 45.6823 79.0178C45.4796 79.3464 45.3696 79.7237 45.3639 80.1098C45.3596 80.4718 45.3802 80.8338 45.4258 81.193C45.501 81.8915 45.5717 82.5679 45.6381 83.209C45.7751 84.4867 45.9033 85.645 46.0094 86.6221C46.1155 87.5992 46.2084 88.3552 46.2747 88.9211C46.3056 89.1775 46.3322 89.3632 46.3543 89.5444C46.356 89.6201 46.3634 89.6954 46.3764 89.7699Z" fill="#003FA4"/>
    <path d="M60.3871 68.3193L62.0229 70.0878L68.1019 72.0065C67.8984 76.4707 67.4186 80.9181 66.6651 85.3229C65.3387 92.8388 64.6048 100.465 64.565 100.585C64.2732 100.028 67.6244 104.63 69.4725 109.148C70.9314 112.685 71.7272 120.113 71.7272 120.113L56.4213 124.79L53.8306 97.0433L54.5026 84.2221L60.3871 68.3193Z" fill="#003FA4"/>
    <path d="M54.5068 91.0926C54.5522 91.0197 54.5906 90.9427 54.6218 90.8627L54.918 90.1951C55.1744 89.616 55.5502 88.7715 56.0321 87.7458C57.2837 85.0657 58.6708 82.4509 60.188 79.9116L60.6301 79.2175L60.6875 79.1247L60.5859 79.0805L58.8616 78.3687V78.5278C59.417 78.0634 60.0721 77.7335 60.776 77.564H60.8379V77.4844C60.9458 76.4591 61.1261 75.4427 61.3772 74.4427C61.5895 73.5364 61.7751 72.7362 61.8812 72.0641C61.9691 71.5422 62.0208 71.0149 62.036 70.4858C62.036 70.3001 62.036 70.1587 62.036 70.0658C62.0418 70.0174 62.0418 69.9684 62.036 69.9199C62.0117 70.1076 61.9984 70.2966 61.9962 70.4858C61.9599 71.0097 61.892 71.5308 61.7928 72.0465C61.6735 72.7096 61.4789 73.5054 61.2534 74.4118C60.9851 75.4154 60.7944 76.4382 60.6831 77.4712L60.7494 77.3916C60.0187 77.5637 59.3378 77.9027 58.7599 78.3819L58.6406 78.4836L58.782 78.5411L60.5063 79.2573L60.4577 79.1203L60.0155 79.8144C58.4941 82.3582 57.1198 84.9871 55.8995 87.6884C55.4574 88.7273 55.0772 89.5762 54.8428 90.1642L54.5776 90.8495C54.5474 90.9285 54.5238 91.0098 54.5068 91.0926Z" fill="#263238"/>
    <path d="M67.0722 110.12C67.1117 110.188 67.1576 110.251 67.2093 110.31L67.6116 110.819L69.1104 112.649L69.1502 112.538L61.8774 113.905L61.9747 113.944C61.9349 113.896 61.8951 113.838 61.8597 113.785L59.8305 110.96L59.7686 111.102L65.0076 110.425L66.5284 110.213L66.9352 110.151L67.0811 110.12C67.0811 110.12 67.0369 110.12 66.944 110.12L66.5461 110.155L65.0341 110.315L59.7553 110.925H59.605L59.6934 111.049L61.7139 113.878C61.7536 113.931 61.789 113.989 61.8288 114.037L61.8642 114.086H61.9216L69.1811 112.662H69.2961L69.2209 112.574L67.6602 110.752L67.2181 110.27C67.1253 110.164 67.0722 110.111 67.0722 110.12Z" fill="#263238"/>
    <g opacity="0.3">
        <path d="M68.2256 112.786L68.7075 113.723L61.8857 115.191L60.1792 111.605L61.8946 114.002L68.2256 112.786Z" fill="black"/>
    </g>
    <path d="M17.4049 90.681L21.1408 109.007H53.5387C53.7099 109.007 53.8741 108.939 53.9951 108.817C54.1162 108.696 54.1842 108.532 54.1842 108.361C54.1847 108.276 54.1685 108.191 54.1363 108.113C54.1041 108.034 54.0567 107.962 53.9967 107.902C53.9367 107.841 53.8653 107.793 53.7867 107.761C53.7081 107.728 53.6238 107.711 53.5387 107.711H47.0175L43.5558 90.6722C43.5236 90.5133 43.4381 90.3702 43.3135 90.2664C43.1889 90.1627 43.0326 90.1047 42.8705 90.1019L18.1123 89.8322C18.0062 89.83 17.901 89.8518 17.8045 89.8958C17.7079 89.9399 17.6225 90.005 17.5546 90.0866C17.4866 90.1681 17.4379 90.2638 17.412 90.3667C17.3861 90.4697 17.3837 90.5771 17.4049 90.681Z" fill="#E0E0E0"/>
    <path d="M17.4055 90.6808C17.4045 90.6631 17.4045 90.6454 17.4055 90.6277C17.4005 90.5719 17.4005 90.5156 17.4055 90.4597C17.4178 90.35 17.4554 90.2446 17.5152 90.1519C17.575 90.0591 17.6555 89.9813 17.7503 89.9248C17.8155 89.8844 17.8874 89.856 17.9625 89.8408C18.0478 89.8317 18.1337 89.8317 18.219 89.8408H18.8025H20.2615L29.621 89.9292L36.151 89.9955L39.8072 90.0309L41.726 90.053H42.7031C42.7871 90.053 42.8666 90.053 42.9551 90.053C43.0427 90.0609 43.1281 90.0849 43.2071 90.1237C43.3644 90.2028 43.4894 90.3341 43.5608 90.4951C43.5926 90.5762 43.6149 90.6608 43.6271 90.7471L43.6801 90.9903C43.7111 91.1583 43.7464 91.3219 43.7818 91.4854C43.8481 91.817 43.9144 92.153 43.9852 92.489C44.1178 93.161 44.2593 93.8154 44.3964 94.5272C44.6793 95.9021 44.9623 97.308 45.2806 98.7449C45.8642 101.619 46.4699 104.607 47.0977 107.684L47.0534 107.649H53.4685C53.5521 107.638 53.6368 107.638 53.7205 107.649C53.8588 107.678 53.9849 107.749 54.0817 107.852C54.1785 107.955 54.2412 108.085 54.2615 108.225C54.2817 108.365 54.2585 108.508 54.195 108.634C54.1314 108.76 54.0306 108.864 53.9062 108.931C53.8124 108.983 53.708 109.011 53.6011 109.015H36.3544H21.1413H21.1104V108.989C19.9653 103.383 19.028 98.798 18.3958 95.6103C18.0775 94.0232 17.8255 92.7897 17.6575 91.9497C17.5735 91.5296 17.5116 91.2113 17.4674 90.9947C17.4232 90.7781 17.4055 90.6675 17.4055 90.6675C17.4055 90.6675 17.432 90.7781 17.4806 90.9947C17.5293 91.2113 17.5912 91.5296 17.6796 91.9452C17.852 92.7852 18.1217 94.0187 18.4312 95.6015L21.1723 108.989L21.1413 108.958H53.5613C53.6536 108.952 53.7439 108.928 53.8266 108.887C53.9086 108.842 53.9792 108.779 54.0329 108.702C54.0865 108.625 54.1218 108.537 54.1361 108.445C54.1612 108.29 54.1247 108.131 54.0344 108.003C53.9915 107.94 53.9366 107.886 53.8729 107.844C53.8092 107.802 53.7379 107.774 53.663 107.76C53.5866 107.751 53.5095 107.751 53.4331 107.76H46.9827V107.724L45.17 98.7847C44.8753 97.3493 44.5894 95.9419 44.3124 94.5625C44.1753 93.8773 44.0382 93.1964 43.9012 92.5244C43.8305 92.1884 43.7641 91.8568 43.6978 91.5252L43.5961 91.0301L43.5475 90.7825C43.5342 90.7026 43.5135 90.6242 43.4856 90.5482C43.4376 90.4401 43.3622 90.3465 43.2668 90.2767C43.1714 90.2069 43.0593 90.1633 42.9418 90.1503H42.6986H41.7172L39.8028 90.1282L36.1466 90.0884L29.6166 90.0088L20.2482 89.8629H18.7893H18.2057C18.1221 89.8517 18.0373 89.8517 17.9537 89.8629C17.881 89.8793 17.811 89.9061 17.7459 89.9425C17.6531 89.9982 17.574 90.074 17.5143 90.1642C17.4547 90.2545 17.416 90.357 17.401 90.4642C17.3979 90.5364 17.3993 90.6088 17.4055 90.6808Z" fill="#263238"/>
    <path d="M31.2652 100.139C31.8561 100.139 32.3351 99.6598 32.3351 99.0689C32.3351 98.478 31.8561 97.999 31.2652 97.999C30.6743 97.999 30.1953 98.478 30.1953 99.0689C30.1953 99.6598 30.6743 100.139 31.2652 100.139Z" fill="white"/>
    <path d="M17.436 90.8311H19.1382L23.7671 90.8532L39.0508 90.9593H41.2614H41.8052C41.8978 90.9508 41.9911 90.9508 42.0837 90.9593C42.1763 90.9788 42.2647 91.0147 42.3446 91.0654C42.5063 91.1663 42.6246 91.3239 42.6762 91.5075C42.7159 91.6887 42.7469 91.8567 42.7823 92.0292C43.0564 93.413 43.3172 94.7437 43.5692 96.0082C44.0732 98.5415 44.5242 100.827 44.8956 102.746C45.2669 104.665 45.572 106.217 45.7798 107.295C45.8815 107.83 45.9655 108.246 46.0185 108.529C46.045 108.67 46.0627 108.776 46.076 108.852C46.0893 108.927 46.076 108.962 46.076 108.962L46.0495 108.856C46.0495 108.781 46.0141 108.675 45.9831 108.533C45.9257 108.25 45.8372 107.835 45.7267 107.3C45.5101 106.225 45.1962 104.674 44.8116 102.759C44.4269 100.845 43.9671 98.5592 43.4587 96.0214C43.2067 94.7526 42.9414 93.4218 42.6629 92.0424C42.6275 91.8744 42.5966 91.6932 42.5568 91.5252C42.5144 91.3623 42.4117 91.2216 42.2694 91.1317C42.1974 91.0872 42.118 91.0558 42.0351 91.0388C41.9483 91.0318 41.8611 91.0318 41.7742 91.0388H41.2305H39.0199L23.7361 90.9018L19.1028 90.8532H17.8472H17.5156L17.436 90.8311Z" fill="#263238"/>
    <path d="M44.4886 103.525C45.0899 102.641 49.2192 100.66 49.2192 100.66L48.2067 100.298L47.0042 100.647C46.8705 101.026 46.6581 101.373 46.3808 101.664C45.8901 102.212 45.2446 101.505 45.2446 101.505L46.005 99.241L48.4411 98.1445C49.2612 98.3598 50.0686 98.6211 50.8594 98.9271L51.6729 99.8688C52.0354 100.227 53.0434 101.602 53.3529 101.677C53.4502 101.677 56.3195 100.762 56.3195 100.762L57.5043 106.023L53.1274 106.399L50.4748 106.805C49.7488 107.011 49.0104 107.171 48.2642 107.283C47.38 107.363 46.8406 107.018 46.876 106.54C46.9113 106.063 47.5789 106.098 47.5789 106.098C48.1803 105.964 48.7713 105.786 49.3474 105.568C49.7681 105.352 50.1305 105.038 50.404 104.652H49.4446C49.4446 104.652 47.3314 105.775 46.5488 106.089C45.7663 106.403 45.7088 105.647 45.6646 105.422C45.6204 105.196 48.1448 103.255 48.1448 103.255C48.1448 103.255 45.8459 104.321 45.4214 104.608C44.997 104.896 44.4134 104.931 44.3162 104.692C44.2189 104.453 43.8873 104.396 44.4886 103.525Z" fill="#FFBF9D"/>
    <path d="M55.0335 104.992C55.0335 104.992 55.0335 104.939 55.0645 104.841C55.0695 104.782 55.0695 104.723 55.0645 104.664C55.0707 104.586 55.0707 104.508 55.0645 104.43C54.9933 103.976 54.8293 103.541 54.5826 103.152C54.3433 102.766 54.068 102.403 53.7602 102.069C53.6407 101.924 53.5058 101.792 53.3579 101.676C53.4683 101.829 53.5863 101.977 53.7116 102.118C54.0035 102.459 54.2682 102.823 54.503 103.205C54.745 103.583 54.9131 104.003 54.9981 104.443C55.0196 104.625 55.0314 104.808 55.0335 104.992Z" fill="#FF9A6C"/>
    <path d="M49.3169 100.598C49.5328 100.665 49.7642 100.665 49.9801 100.598C50.2035 100.568 50.4121 100.469 50.5769 100.315C50.5769 100.293 50.3072 100.439 49.9624 100.509C49.6175 100.58 49.3213 100.571 49.3169 100.598Z" fill="#FF9A6C"/>
    <path d="M48.3745 103.064C48.7218 103.018 49.0638 102.938 49.3958 102.826C49.7358 102.746 50.0686 102.638 50.3905 102.503C50.0442 102.555 49.7026 102.634 49.3693 102.742C49.0297 102.823 48.6971 102.931 48.3745 103.064Z" fill="#FF9A6C"/>
    <path d="M50.2803 104.608C50.6315 104.545 50.9773 104.454 51.3148 104.338C51.1338 104.324 50.9518 104.346 50.7799 104.405C50.6012 104.438 50.4311 104.507 50.2803 104.608Z" fill="#FF9A6C"/>
    <path d="M48.6714 103.273C48.8019 103.382 48.9165 103.508 49.0118 103.649C49.086 103.801 49.1409 103.961 49.1754 104.126C49.1754 104.126 49.2063 104.069 49.2019 103.972C49.1945 103.842 49.1562 103.715 49.0901 103.603C49.0239 103.49 48.9319 103.396 48.8217 103.326C48.7377 103.277 48.6758 103.264 48.6714 103.273Z" fill="#FF9A6C"/>
    <path d="M47.9419 101.747C47.9419 101.769 48.0834 101.88 48.1718 102.087C48.2137 102.217 48.2448 102.35 48.2646 102.485C48.3034 102.418 48.3239 102.342 48.3239 102.264C48.3239 102.187 48.3034 102.11 48.2646 102.043C48.1497 101.8 47.9463 101.721 47.9419 101.747Z" fill="#FF9A6C"/>
    <path d="M48.5475 99.2455C48.5475 99.2455 48.5961 99.2146 48.6315 99.135C48.68 99.0285 48.6969 98.9104 48.6801 98.7946C48.6672 98.6801 48.6228 98.5715 48.5519 98.4807C48.4989 98.4099 48.4502 98.3834 48.4458 98.3923C48.5103 98.5247 48.5593 98.6642 48.5917 98.8079C48.5931 98.9549 48.5783 99.1017 48.5475 99.2455Z" fill="#FF9A6C"/>
    <path d="M68.1018 72.0059C68.9883 72.3994 69.7746 72.9877 70.4023 73.7272C71.0299 74.4666 71.4828 75.338 71.7271 76.2767C71.7271 76.2767 72.3726 78.2838 72.8589 80.5298C74.0305 85.9854 76.1349 95.283 76.2322 97.9976C76.4179 102.909 72.8633 104.307 70.8694 104.735C68.8755 105.164 56.5052 106.694 56.5052 106.694L54.3389 100.584L66.9523 95.0929C66.9523 95.0929 64.5472 86.8343 63.9902 84.2523" fill="#003FA4"/>
    <path d="M63.9947 84.2534C63.9947 84.2534 63.9947 84.3197 64.0521 84.4435C64.1096 84.5673 64.1317 84.7662 64.1936 85.0005C64.3263 85.5045 64.5208 86.2252 64.7684 87.1492C65.2812 89.0149 66.0505 91.7206 67.032 95.0718V95.1381L66.9701 95.1647L54.3964 100.682L54.4539 100.55C55.1466 102.51 55.8687 104.546 56.6203 106.66L56.5009 106.584C59.7195 106.182 63.1326 105.744 66.6694 105.258C68.093 105.055 69.5122 104.873 70.8783 104.613C72.2206 104.353 73.463 103.722 74.4639 102.791C75.3935 101.851 75.9645 100.615 76.0776 99.2984C76.0776 99.1392 76.1174 98.9801 76.1262 98.8209V98.339C76.1307 98.0217 76.1174 97.7043 76.0864 97.3885C76.0157 96.7563 75.9317 96.1329 75.83 95.5139C75.4277 93.0558 74.9458 90.7303 74.5037 88.5595C74.0615 86.3888 73.6194 84.3639 73.2215 82.5159C73.0226 81.5963 72.8325 80.7165 72.6512 79.8853C72.4699 79.0541 72.2621 78.2805 72.0588 77.5598C71.8554 76.8392 71.6609 76.1672 71.4531 75.5659C71.2501 75.0209 70.9686 74.5086 70.6175 74.045C70.1321 73.397 69.5329 72.8427 68.8491 72.4092C68.6147 72.2633 68.4069 72.1616 68.3008 72.0953C68.2348 72.0685 68.1711 72.0359 68.1107 71.998C68.1793 72.0184 68.2459 72.0451 68.3097 72.0776C68.5027 72.1631 68.6902 72.2606 68.8712 72.3694C69.5705 72.7916 70.1852 73.3404 70.6838 73.9875C71.0524 74.4542 71.3504 74.9726 71.568 75.5261C71.7891 76.1362 71.9836 76.8038 72.1958 77.5244C72.408 78.2451 72.6114 79.0232 72.8104 79.8499C73.0093 80.6767 73.1862 81.5609 73.394 82.5026C73.7919 84.3462 74.234 86.3667 74.7203 88.5374C75.2066 90.7082 75.6178 93.0249 76.0599 95.4918C76.1616 96.1064 76.2544 96.7342 76.3252 97.3752C76.3562 97.6985 76.3694 98.0232 76.3649 98.3479V98.8386C76.3649 99.0022 76.334 99.1702 76.3163 99.3338C76.2012 100.701 75.6098 101.984 74.6451 102.959C73.6163 103.924 72.3346 104.577 70.9491 104.842C69.5564 105.108 68.1505 105.285 66.7225 105.492C63.1856 105.974 59.7637 106.408 56.5539 106.819H56.4611L56.4346 106.735L54.2771 100.62L54.2417 100.527L54.3345 100.488L66.9568 95.0232L66.9126 95.116C65.9532 91.756 65.2061 89.0459 64.702 87.158C64.4633 86.2208 64.2599 85.4957 64.1671 85.0005C64.1096 84.753 64.0743 84.5584 64.0477 84.4346C64.0212 84.3108 63.9947 84.2534 63.9947 84.2534Z" fill="#263238"/>
    <path d="M63.4727 81.9041C63.4289 81.7759 63.4051 81.6417 63.402 81.5062C63.3609 81.1438 63.3447 80.7789 63.3533 80.4142C63.3909 77.9747 64.197 75.6092 65.6567 73.6543C65.8746 73.3598 66.1124 73.0807 66.3685 72.8187C66.5498 72.6331 66.6515 72.5358 66.6647 72.5491C66.678 72.5623 66.3111 72.9912 65.7805 73.7472C65.1095 74.7311 64.5728 75.8001 64.1845 76.9259C63.8014 78.0542 63.5724 79.2291 63.5037 80.4186C63.4639 81.3471 63.5125 81.9041 63.4727 81.9041Z" fill="#263238"/>
</svg>
