<svg width="35" height="35" viewBox="0 0 35 35" fill="none" xmlns="http://www.w3.org/2000/svg">
    <circle cx="17.5" cy="17.5" r="16.875" fill="white" stroke="#142445" stroke-width="1.25"/>
    <circle cx="17.5" cy="17.5" r="13.125" fill="#142445"/>
    <path fill-rule="evenodd" clip-rule="evenodd" d="M14.1084 12.9062C14.1084 11.0941 15.5775 9.625 17.3897 9.625C19.2018 9.625 20.6709 11.0941 20.6709 12.9062C20.6709 14.7184 19.2018 16.1875 17.3897 16.1875C15.5775 16.1875 14.1084 14.7184 14.1084 12.9062Z" fill="white"/>
    <path fill-rule="evenodd" clip-rule="evenodd" d="M11.3751 23.1914C11.4315 19.9176 14.1027 17.2812 17.3898 17.2812C20.677 17.2812 23.3483 19.9177 23.4045 23.1916C23.4082 23.4087 23.2832 23.6075 23.0858 23.6981C21.3512 24.494 19.4216 24.9375 17.39 24.9375C15.3582 24.9375 13.4286 24.4939 11.6938 23.6978C11.4964 23.6073 11.3713 23.4085 11.3751 23.1914Z" fill="white"/>
</svg>
