<svg width="35" height="35" viewBox="0 0 35 35" fill="none" xmlns="http://www.w3.org/2000/svg">
    <circle cx="17.5" cy="17.5" r="16.875" fill="white" stroke="#142445" stroke-width="1.25"/>
    <circle cx="17.5" cy="17.5" r="13.125" fill="#142445"/>
    <path d="M24.7918 15.0265V20.9634C24.7919 21.5687 24.5603 22.1511 24.1446 22.591C23.7289 23.031 23.1605 23.2953 22.5562 23.3295L22.422 23.3332H12.5783C11.973 23.3332 11.3906 23.1016 10.9506 22.6859C10.5106 22.2702 10.2464 21.7019 10.2121 21.0975L10.2085 20.9634V15.0265L17.2464 18.7132C17.3247 18.7542 17.4118 18.7756 17.5002 18.7756C17.5885 18.7756 17.6756 18.7542 17.7539 18.7132L24.7918 15.0265ZM12.5783 11.6665H22.422C23.0094 11.6664 23.5759 11.8845 24.0117 12.2785C24.4474 12.6724 24.7212 13.2141 24.7802 13.7986L17.5002 17.6121L10.2202 13.7986C10.2767 13.2374 10.5316 12.7147 10.9389 12.3245C11.3463 11.9344 11.8795 11.7024 12.4427 11.6701L12.5783 11.6665Z" fill="white"/>
</svg>
