<svg width="146" height="186" viewBox="0 0 146 186" fill="none" xmlns="http://www.w3.org/2000/svg">
<path d="M78.1402 50.4198C77.0086 53.1692 70.3475 52.9798 63.3689 50.1024C56.3904 47.2249 51.6441 42.663 52.7757 39.9136C53.0419 39.2787 53.7997 36.8979 54.5574 36.5702C57.1584 35.4694 62.1094 37.9424 67.4701 40.1542C72.4621 42.2022 78.1709 43.5385 79.0566 46.247C79.5891 47.8956 78.4627 49.6364 78.1402 50.4198Z" fill="#C49206"/>
<g opacity="0.2">
<path d="M58.9985 35.2726L58.7507 35.7495L54.3757 44C54.241 43.841 54.1171 43.6877 53.9985 43.5287L58.2011 35.6133L58.5298 35L58.9985 35.2726Z" fill="#E5B323"/>
</g>
<g opacity="0.2">
<path d="M61.9985 38.2678L57.4447 47L56.9985 46.6624L61.5252 38L61.9985 38.2678Z" fill="#E5B323"/>
</g>
<g opacity="0.2">
<path d="M69.9985 43.2884L65.5597 51L64.9985 50.815L69.4879 43L69.9985 43.2884Z" fill="#E5B323"/>
</g>
<g opacity="0.2">
<path d="M65.9985 41.2718L61.4916 49L60.9985 48.7744L65.5323 41L65.9985 41.2718Z" fill="#E5B323"/>
</g>
<g opacity="0.2">
<path d="M73.9985 45.2451L70.482 52C70.3224 52 70.1627 51.9461 69.9985 51.9167L73.5972 45L73.9985 45.2451Z" fill="#E5B323"/>
</g>
<path d="M79.0261 48.0238C77.8945 50.7733 71.3153 50.6657 64.3317 47.7832C57.348 44.9006 52.6069 40.3438 53.7435 37.5944C54.8801 34.8449 61.4542 34.9576 68.4379 37.835C75.4216 40.7125 80.1576 45.259 79.0261 48.0238Z" fill="#FFC727"/>
<path opacity="0.2" d="M77.1128 46.5989C76.3141 48.5393 71.1839 48.268 65.6594 45.9896C60.1349 43.7112 56.3052 40.2859 57.1039 38.3454C57.9026 36.4049 63.0328 36.6763 68.5624 38.9547C74.092 41.2331 77.9167 44.6584 77.1128 46.5989Z" fill="#FFC727"/>
<path d="M113.427 25.5675C115.25 27.9176 111.779 33.6059 105.804 38.2292C99.8285 42.8526 93.5156 44.6958 91.698 42.3252C91.2781 41.7825 89.5783 39.9649 89.6807 39.115C90.0237 36.3144 94.6266 33.2526 99.2141 29.6993C103.484 26.3918 107.473 22.1013 110.263 22.6798C111.958 23.0536 112.91 24.9019 113.427 25.5675Z" fill="#C49206"/>
<g opacity="0.2">
<path d="M91.4274 35L91.6797 35.4293L95.9985 42.9005C95.8169 42.9424 95.6403 42.9738 95.4637 43L91.3214 35.8168L90.9985 35.2932L91.4274 35Z" fill="#E5B323"/>
</g>
<g opacity="0.2">
<path d="M95.4423 33L99.998 41.7442C99.8379 41.8394 99.683 41.9167 99.5332 42L94.998 33.3034L95.4423 33Z" fill="#E5B323"/>
</g>
<g opacity="0.2">
<path d="M103.465 29L107.998 35.6785L107.58 36L102.998 29.2447L103.465 29Z" fill="#E5B323"/>
</g>
<g opacity="0.2">
<path d="M99.4447 31L103.999 38.6981C103.86 38.8022 103.711 38.9011 103.573 39L98.9985 31.2655L99.4447 31Z" fill="#E5B323"/>
</g>
<g opacity="0.2">
<path d="M107.381 25L110.998 32.5383C110.905 32.694 110.802 32.8442 110.7 33L106.998 25.2893L107.381 25Z" fill="#E5B323"/>
</g>
<path d="M104.254 36.2191C110.225 31.5941 113.59 25.9402 111.77 23.5906C109.95 21.2411 103.634 23.0857 97.6632 27.7107C91.6921 32.3357 88.3269 37.9896 90.1467 40.3392C91.9666 42.6887 98.2824 40.8441 104.254 36.2191Z" fill="#FFC727"/>
<path opacity="0.2" d="M103.975 34.3685C108.701 30.708 111.489 26.3941 110.203 24.7331C108.916 23.0721 104.042 24.693 99.3163 28.3535C94.5904 32.014 91.8022 36.328 93.0888 37.9889C94.3753 39.6499 99.2494 38.029 103.975 34.3685Z" fill="#FFC727"/>
<path d="M88.7131 14.5591C88.1294 17.928 80.5723 19.3514 72.0116 17.8154C63.451 16.2794 56.9947 12.3216 57.5937 8.95268C57.7319 8.16932 57.9726 5.31748 58.7764 4.74916C61.4337 2.87524 67.6084 4.44196 74.1825 5.60932C80.3265 6.69988 87.0491 6.78692 88.7131 9.61828C89.7217 11.3591 88.882 13.5965 88.7131 14.5591Z" fill="#C49206"/>
<g opacity="0.2">
<path d="M63.277 3.41798L63.1131 3.95558L60.2664 13.3457C60.0872 13.2177 59.9234 13.0897 59.7544 12.9565L62.4885 3.95046L62.7035 3.24902L63.277 3.41798Z" fill="#E5B323"/>
</g>
<g opacity="0.2">
<path d="M67.5573 6.03955L64.6235 15.7112C64.4341 15.6396 64.2549 15.5576 64.0757 15.4859L66.9941 5.86035L67.5573 6.03955Z" fill="#E5B323"/>
</g>
<g opacity="0.2">
<path d="M77.5052 9.07056L74.725 18.2302L74.126 18.1534L76.9369 8.89648L77.5052 9.07056Z" fill="#E5B323"/>
</g>
<g opacity="0.2">
<path d="M72.8817 7.66772L69.9274 17.3957C69.7329 17.3548 69.5383 17.3036 69.3438 17.2575L72.3134 7.4834L72.8817 7.66772Z" fill="#E5B323"/>
</g>
<g opacity="0.2">
<path d="M83.2245 9.46974L80.516 18.3837C80.3061 18.3837 80.1013 18.3837 79.8862 18.4195L82.6562 9.30078L83.2245 9.46974Z" fill="#E5B323"/>
</g>
<path d="M89.1116 11.6182C89.711 8.24956 83.2549 4.28345 74.6914 2.75961C66.1279 1.23576 58.6999 2.73123 58.1005 6.09983C57.5011 9.46843 63.9572 13.4345 72.5207 14.9584C81.0841 16.4822 88.5122 14.9868 89.1116 11.6182Z" fill="#FFC727"/>
<path opacity="0.2" d="M86.6601 10.6768C87.0837 8.29652 81.9339 5.38942 75.1577 4.18362C68.3815 2.97782 62.545 3.92993 62.1214 6.31022C61.6979 8.69051 66.8477 11.5976 73.6238 12.8034C80.4 14.0092 86.2365 13.0571 86.6601 10.6768Z" fill="#FFC727"/>
<path d="M133.41 100.57L80.7203 103.642C78.859 103.752 77.0328 104.196 75.3289 104.953L18.0976 130.553C17.0934 130.995 16.2711 131.767 15.7679 132.742C15.2647 133.716 15.1111 134.834 15.3328 135.909L24.7894 180.632C24.9493 181.352 25.2717 182.026 25.7321 182.603C26.1924 183.179 26.7785 183.643 27.4455 183.958C28.1124 184.273 28.8427 184.431 29.5803 184.421C30.318 184.411 31.0435 184.232 31.7014 183.898L88.1904 155.697L140.353 153.951C140.995 153.934 141.626 153.781 142.204 153.501C142.781 153.221 143.293 152.821 143.704 152.328C144.115 151.835 144.417 151.26 144.589 150.641C144.76 150.022 144.798 149.374 144.7 148.739L137.721 105.916C137.358 103.704 135.678 100.504 133.41 100.57Z" fill="#407BFF"/>
<path opacity="0.1" d="M133.41 100.57L80.7203 103.642C78.859 103.752 77.0328 104.196 75.3289 104.953L18.0976 130.553C17.0934 130.995 16.2711 131.767 15.7679 132.742C15.2647 133.716 15.1111 134.834 15.3328 135.909L24.7894 180.632C24.9493 181.352 25.2717 182.026 25.7321 182.603C26.1924 183.179 26.7785 183.643 27.4455 183.958C28.1124 184.273 28.8427 184.431 29.5803 184.421C30.318 184.411 31.0435 184.232 31.7014 183.898L88.1904 155.697L140.353 153.951C140.995 153.934 141.626 153.781 142.204 153.501C142.781 153.221 143.293 152.821 143.704 152.328C144.115 151.835 144.417 151.26 144.589 150.641C144.76 150.022 144.798 149.374 144.7 148.739L137.721 105.916C137.358 103.704 135.678 100.504 133.41 100.57Z" fill="black"/>
<path d="M27.6508 71.4508L0 96.9395L49.6205 150.769L77.2713 125.281L27.6508 71.4508Z" fill="#36BC6C"/>
<path opacity="0.5" d="M78.264 125.923L50.6109 151.411L0.998047 97.5843L19.1433 80.8572L28.6512 72.0918L30.2332 73.8121L78.264 125.923Z" fill="#FAFAFA"/>
<path d="M25.3963 74.9998L0.998047 97.4902L47.4121 147.841L71.8103 125.351L25.3963 74.9998Z" stroke="#36BC6C" stroke-miterlimit="10"/>
<path d="M41.8939 117.382C44.6924 114.802 44.3384 109.866 41.1033 106.357C37.8682 102.847 32.9769 102.093 30.1785 104.673C27.38 107.253 27.7339 112.189 30.969 115.698C34.2042 119.208 39.0954 119.962 41.8939 117.382Z" fill="#36BC6C"/>
<path opacity="0.1" d="M52.1737 128.472L42.3484 131.867L20.998 79.7654L30.5059 71L32.088 72.7203L52.1737 128.472Z" fill="black"/>
<path d="M51.2335 50.3617L15.8794 63.1807L40.8349 132.007L76.1891 119.188L51.2335 50.3617Z" fill="#36BC6C"/>
<path opacity="0.5" d="M52.2335 51.0004L16.8794 63.8193L41.8349 132.646L77.1891 119.827L52.2335 51.0004Z" fill="#FAFAFA"/>
<path d="M50.1222 53.4653L18.9268 64.7764L42.2697 129.155L73.4651 117.844L50.1222 53.4653Z" stroke="#36BC6C" stroke-miterlimit="10"/>
<path d="M48.9616 98.9252C52.5398 97.6278 54.1214 92.9384 52.4944 88.4511C50.8674 83.9638 46.6477 81.3779 43.0696 82.6753C39.4915 83.9727 37.9098 88.6621 39.5368 93.1494C41.1639 97.6367 45.3835 100.223 48.9616 98.9252Z" fill="#36BC6C"/>
<path d="M133.753 102.389L81.7853 105.317C79.943 105.418 78.1357 105.861 76.4553 106.623L20.0636 132.079C19.0704 132.528 18.26 133.303 17.7666 134.275C17.2732 135.247 17.1262 136.358 17.3501 137.425L26.8067 182.168C26.959 182.884 27.2734 183.555 27.7257 184.131C28.1779 184.706 28.7561 185.17 29.4157 185.487C30.0753 185.804 30.7987 185.965 31.5305 185.959C32.2622 185.953 32.9828 185.779 33.6368 185.45L89.2912 157.408L140.737 155.78C141.374 155.76 141.999 155.604 142.571 155.323C143.143 155.042 143.648 154.642 144.053 154.15C144.459 153.659 144.754 153.086 144.92 152.471C145.086 151.856 145.12 151.212 145.017 150.583L138.018 107.765C137.655 105.532 135.996 102.327 133.753 102.389Z" fill="#003FA4"/>
<path opacity="0.2" d="M83.8999 113.151L128.49 110.406" stroke="black" stroke-width="2" stroke-linecap="round" stroke-linejoin="round"/>
<path opacity="0.2" d="M78.5596 114.303L86.7055 151.72" stroke="black" stroke-width="2" stroke-linecap="round" stroke-linejoin="round"/>
<path opacity="0.2" d="M24.2466 148.084L29.9912 176.864C29.9912 176.864 34.3944 165.446 24.2466 148.084Z" fill="#FAFAFA"/>
<path opacity="0.2" d="M24.999 148.422C25.1987 148.934 76.0249 127.123 76.0249 127.123C76.1627 132.068 74.9263 136.954 72.4533 141.239C69.9803 145.523 66.3675 149.038 62.0166 151.392C46.7181 159.968 24.999 148.422 24.999 148.422Z" fill="#FAFAFA"/>
<path d="M58.7607 149.272C59.9766 149.272 60.9623 148.287 60.9623 147.071C60.9623 145.855 59.9766 144.869 58.7607 144.869C57.5448 144.869 56.5591 145.855 56.5591 147.071C56.5591 148.287 57.5448 149.272 58.7607 149.272Z" fill="#407BFF"/>
<path opacity="0.2" d="M76.0508 127.123C76.0508 127.123 82.3535 136.61 80.8277 152.769L76.0508 127.123Z" fill="black"/>
<g opacity="0.2">
<path d="M21.8145 136.779L22.9869 136.262" stroke="#FAFAFA" stroke-linecap="round" stroke-linejoin="round"/>
<path d="M25.4189 135.187L72.8813 114.205" stroke="#FAFAFA" stroke-linecap="round" stroke-linejoin="round" stroke-dasharray="5.2 5.2"/>
<path d="M74.1001 113.667L75.2675 113.15" stroke="#FAFAFA" stroke-linecap="round" stroke-linejoin="round"/>
</g>
<path opacity="0.2" d="M85.3945 121.563L129.985 118.813" stroke="black" stroke-width="2" stroke-linecap="round" stroke-linejoin="round"/>
<path opacity="0.2" d="M87.4019 132.053L131.992 129.304" stroke="black" stroke-width="2" stroke-linecap="round" stroke-linejoin="round"/>
<path d="M125.331 67.3127L114.517 104.924C114.158 106.184 113.429 107.307 112.425 108.148C111.421 108.99 110.188 109.511 108.885 109.645C108.056 109.724 107.219 109.648 106.417 109.42L85.7479 103.475C84.077 102.993 82.6654 101.868 81.8227 100.347C80.9801 98.8256 80.775 97.0322 81.2525 95.36L92.0711 57.7383C92.5542 56.0696 93.6791 54.6606 95.1993 53.8199C96.7195 52.9792 98.511 52.7754 100.181 53.2531L120.866 59.1923C122.533 59.6797 123.939 60.808 124.776 62.3301C125.613 63.8521 125.812 65.6438 125.331 67.3127Z" fill="#FF3A3A"/>
<path d="M123.354 67.8901L112.541 105.507C112.267 106.464 111.779 107.347 111.112 108.087C110.446 108.827 109.619 109.405 108.696 109.777C107.866 109.856 107.029 109.78 106.228 109.552L85.5687 103.607C83.8978 103.125 82.4862 102 81.6435 100.479C80.8009 98.9576 80.5958 97.1643 81.0733 95.4921L91.8919 57.8703C92.1656 56.9141 92.6544 56.0331 93.3208 55.2948C93.9872 54.5565 94.8137 53.9804 95.737 53.6105C96.5664 53.526 97.4044 53.6025 98.2048 53.8357L118.849 59.8005C120.516 60.2796 121.927 61.3995 122.771 62.9155C123.615 64.4314 123.825 66.22 123.354 67.8901Z" fill="#F24D4D"/>
<path d="M94.2835 71.0885L92.0708 70.4648L84.1068 98.7221L86.3194 99.3457L94.2835 71.0885Z" fill="#FAFAFA"/>
<path d="M89.4955 100.243L87.2837 99.6035L95.2453 71.3564L97.452 71.9913L89.4955 100.243Z" fill="#FAFAFA"/>
<path d="M92.7109 101.165L90.499 100.53L98.4606 72.2832L100.672 72.9181L92.7109 101.165Z" fill="#FAFAFA"/>
<path opacity="0.5" d="M113.548 76.6197L111.335 75.9961L103.371 104.253L105.584 104.877L113.548 76.6197Z" fill="black"/>
<path d="M113.268 68.6326L112.193 72.4674L110.882 72.0988C110.247 71.9187 109.709 71.4942 109.387 70.9183C109.064 70.3425 108.983 69.6623 109.161 69.0268L109.878 66.4668L112.525 67.2246C112.81 67.313 113.049 67.511 113.188 67.775C113.327 68.039 113.356 68.3474 113.268 68.6326Z" fill="#FAFAFA"/>
<path d="M112.638 66.7536L109.991 65.9959L110.785 63.1901C110.873 62.8753 111.023 62.5811 111.226 62.3243C111.428 62.0674 111.679 61.853 111.964 61.6932C112.25 61.5335 112.564 61.4315 112.888 61.3931C113.213 61.3548 113.542 61.3808 113.857 61.4698L115.219 61.8538L114.031 65.9856C113.991 66.1285 113.924 66.262 113.832 66.3783C113.74 66.4947 113.626 66.5915 113.496 66.663C113.367 66.7346 113.224 66.7795 113.076 66.795C112.929 66.8106 112.78 66.7965 112.638 66.7536Z" fill="#FAFAFA"/>
<path d="M115.147 67.9927L117.809 68.7556L117.103 71.2593C117.015 71.5748 116.866 71.8698 116.664 72.1274C116.462 72.3849 116.211 72.5999 115.925 72.7599C115.64 72.9198 115.325 73.0216 115 73.0593C114.675 73.097 114.345 73.0699 114.031 72.9796L112.648 72.5905L113.749 68.7607C113.79 68.618 113.858 68.4848 113.951 68.3688C114.043 68.2528 114.158 68.1563 114.288 68.0849C114.418 68.0134 114.561 67.9685 114.708 67.9527C114.856 67.9369 115.005 67.9505 115.147 67.9927Z" fill="#FAFAFA"/>
<path d="M118.751 65.4326L117.947 68.2793L115.285 67.5164C115 67.4331 114.759 67.2406 114.616 66.9807C114.472 66.7209 114.436 66.4147 114.517 66.1289L115.705 61.9971L117.031 62.3708C117.345 62.4589 117.639 62.608 117.895 62.8095C118.151 63.011 118.366 63.2611 118.525 63.5454C118.685 63.8297 118.787 64.1427 118.826 64.4665C118.865 64.7903 118.839 65.1186 118.751 65.4326Z" fill="#FAFAFA"/>
</svg>
