<svg width="35" height="35" viewBox="0 0 35 35" fill="none" xmlns="http://www.w3.org/2000/svg">
    <path d="M17.5 35C27.165 35 35 27.165 35 17.5C35 7.83502 27.165 0 17.5 0C7.83502 0 0 7.83502 0 17.5C0 27.165 7.83502 35 17.5 35Z" fill="#3AC672"/>
    <path d="M14.8251 23.8333C14.3883 23.8249 13.9724 23.6453 13.6667 23.3333L9.17505 18.725C8.86674 18.4078 8.69704 17.9812 8.70329 17.5389C8.70954 17.0966 8.89123 16.675 9.20838 16.3666C9.52554 16.0583 9.95218 15.8886 10.3945 15.8949C10.8367 15.9011 11.2584 16.0828 11.5667 16.4L14.9001 19.8333L22.5501 12.625C22.875 12.3421 23.2968 12.196 23.727 12.2174C24.1573 12.2387 24.5625 12.4258 24.8579 12.7395C25.1532 13.0531 25.3156 13.4689 25.311 13.8996C25.3064 14.3304 25.1353 14.7427 24.8334 15.05L15.9917 23.3833C15.676 23.679 15.2576 23.8404 14.8251 23.8333Z" fill="white"/>
</svg>
