<svg width="192" height="161" viewBox="0 0 192 161" fill="none" xmlns="http://www.w3.org/2000/svg">
    <path d="M106 152C141.899 152 171 122.899 171 87C171 51.1015 141.899 22 106 22C70.1015 22 41 51.1015 41 87C41 122.899 70.1015 152 106 152Z" fill="#2FAA60" fill-opacity="0.42"/>
    <path d="M179 87C179 127.317 146.317 160 106 160C65.6832 160 33 127.317 33 87C33 46.6832 65.6832 14 106 14C146.317 14 179 46.6832 179 87Z" stroke="#2FAA60" stroke-opacity="0.42" stroke-width="2"/>
    <path d="M106.191 139.391C135.02 139.391 158.391 116.02 158.391 87.1912C158.391 58.3619 135.02 34.9912 106.191 34.9912C77.3619 34.9912 53.9912 58.3619 53.9912 87.1912C53.9912 116.02 77.3619 139.391 106.191 139.391Z" fill="#2FAA60"/>
    <path d="M99.5123 104.4C98.2096 104.375 96.9689 103.839 96.0572 102.908L82.6592 89.1625C81.7395 88.2164 81.2333 86.9438 81.252 85.6246C81.2706 84.3053 81.8126 83.0475 82.7586 82.1279C83.7046 81.2082 84.9772 80.702 86.2965 80.7207C87.6157 80.7393 88.8735 81.2813 89.7932 82.2273L99.736 92.4685L122.555 70.967C123.524 70.1233 124.782 69.6876 126.066 69.7512C127.349 69.8149 128.558 70.373 129.439 71.3085C130.32 72.2441 130.804 73.4843 130.79 74.7692C130.777 76.0541 130.266 77.2838 129.366 78.2004L102.992 103.058C102.05 103.94 100.803 104.421 99.5123 104.4Z" fill="white"/>
    <path d="M8.5 13L9.59389 20.4061L17 21.5L9.59389 22.5939L8.5 30L7.40611 22.5939L0 21.5L7.40611 20.4061L8.5 13Z" fill="#2FAA60"/>
    <path d="M184.5 137L185.465 143.535L192 144.5L185.465 145.465L184.5 152L183.535 145.465L177 144.5L183.535 143.535L184.5 137Z" fill="#2FAA60"/>
    <path d="M176.5 11L177.208 6.20781L182 5.5L177.208 4.79219L176.5 0L175.792 4.79219L171 5.5L175.792 6.20781L176.5 11Z" fill="#2FAA60"/>
</svg>
