<svg width="20" height="20" viewBox="0 0 20 20" fill="none" xmlns="http://www.w3.org/2000/svg">
<path d="M11.9579 1.53803L4.87465 1.57444C4.43263 1.57671 4.00962 1.75448 3.69867 2.06865C3.38772 2.38281 3.2143 2.80763 3.21657 3.24965L3.28511 16.5828C3.28738 17.0248 3.46515 17.4478 3.77931 17.7588C4.09348 18.0697 4.5183 18.2432 4.96032 18.2409L14.9602 18.1895C15.4022 18.1872 15.8252 18.0094 16.1362 17.6953C16.4471 17.3811 16.6205 16.9563 16.6183 16.5143L16.5647 6.09775L11.9579 1.53803Z" stroke="#F24D4D" stroke-linecap="round" stroke-linejoin="round"/>
<path d="M11.542 1.54102L11.5677 6.54095L16.5676 6.51525" stroke="#F24D4D" stroke-linecap="round" stroke-linejoin="round"/>
<path d="M13.2554 10.6982L6.58887 10.7324" stroke="#F24D4D" stroke-linecap="round" stroke-linejoin="round"/>
<path d="M13.272 14.0321L6.60547 14.0664" stroke="#F24D4D" stroke-linecap="round" stroke-linejoin="round"/>
<path d="M8.23793 7.39085L6.57129 7.39941" stroke="#F24D4D" stroke-linecap="round" stroke-linejoin="round"/>
</svg>
