<svg width="21" height="20" viewBox="0 0 21 20" fill="none" xmlns="http://www.w3.org/2000/svg">
<path d="M3.65186 1.66699V18.3337L5.33725 17.5003L7.02264 18.3337L8.70804 17.5003L10.3934 18.3337L12.0788 17.5003L13.7642 18.3337L15.4496 17.5003L17.135 18.3337V1.66699L15.4496 2.50033L13.7642 1.66699L12.0788 2.50033L10.3934 1.66699L8.70804 2.50033L7.02264 1.66699L5.33725 2.50033L3.65186 1.66699Z" stroke="#F24D4D" stroke-linecap="round" stroke-linejoin="round"/>
<path d="M13.764 6.66699H8.70785C8.26086 6.66699 7.83217 6.84259 7.5161 7.15515C7.20003 7.46771 7.02246 7.89163 7.02246 8.33366C7.02246 8.77569 7.20003 9.19961 7.5161 9.51217C7.83217 9.82473 8.26086 10.0003 8.70785 10.0003H12.0786C12.5256 10.0003 12.9543 10.1759 13.2704 10.4885C13.5865 10.801 13.764 11.225 13.764 11.667C13.764 12.109 13.5865 12.5329 13.2704 12.8455C12.9543 13.1581 12.5256 13.3337 12.0786 13.3337H7.02246" stroke="#F24D4D" stroke-linecap="round" stroke-linejoin="round"/>
<path d="M10.3933 14.1663V5.83301" stroke="#F24D4D" stroke-linecap="round" stroke-linejoin="round"/>
</svg>
