<svg width="40" height="40" viewBox="0 0 40 40" fill="none" xmlns="http://www.w3.org/2000/svg">
<rect width="40" height="40" rx="8" fill="#F24D4D" fill-opacity="0.1"/>
<path d="M14.8432 30C14.4629 29.8466 14.3142 29.5675 14.3288 29.1579C14.3497 28.5793 14.3319 27.9997 14.3361 27.42C14.3361 27.31 14.3194 27.2286 14.2234 27.1534C14.0465 27.0152 13.9965 26.8133 13.997 26.5957C13.997 26.1987 13.997 25.8011 13.997 25.4041C14.0011 24.9319 14.2636 24.6684 14.7394 24.6669C15.5856 24.6632 16.4314 24.6669 17.2776 24.6669H17.4795C15.4797 21.9763 15.4886 19.3207 17.504 16.6401C17.1957 16.3328 16.8712 16.0056 16.5394 15.6858C16.5147 15.6701 16.487 15.6601 16.458 15.6564C16.4291 15.6527 16.3997 15.6554 16.3719 15.6644C15.1578 16.0818 13.9829 16.0145 12.8471 15.3968C12.7659 15.3572 12.6765 15.3374 12.5862 15.3389C12.0916 15.3336 11.5949 15.3389 11.1024 15.3389C10.4033 15.3316 10 14.9283 10 14.2312C10 13.1843 10 12.1361 10 11.0868C10 10.4174 10.4122 10 11.081 10C13.5088 10 15.9366 10 18.3644 10C19.1198 10 19.7376 10.288 20.2332 10.8567C21.381 12.1721 22.5304 13.4843 23.6813 14.7931C23.767 14.8873 23.8745 14.9589 23.9944 15.0018C26.6218 15.931 28.2892 18.5825 27.9595 21.3304C27.8278 22.4958 27.3561 23.5967 26.603 24.4957C26.5701 24.5359 26.5383 24.5771 26.507 24.6184C26.5044 24.6215 26.5101 24.6304 26.5195 24.6632H26.7162C27.5103 24.6632 28.3044 24.6768 29.0979 24.658C29.5101 24.6481 29.821 24.7624 29.9943 25.1542V26.8341C29.9223 26.9385 29.8659 27.0616 29.7741 27.1446C29.7334 27.18 29.7016 27.2245 29.6815 27.2746C29.6613 27.3247 29.6534 27.3788 29.6583 27.4326C29.6619 28.0112 29.6478 28.5908 29.664 29.1689C29.676 29.5774 29.5273 29.8591 29.135 29.9979L14.8432 30ZM22.678 14.6606C21.6554 13.4956 20.6355 12.3238 19.5998 11.1635C19.3009 10.828 18.896 10.6699 18.4484 10.6694C15.9813 10.6642 13.5154 10.6633 11.0508 10.6668C10.793 10.6668 10.6694 10.7946 10.6668 11.0539C10.6631 11.3669 10.6668 11.68 10.6668 11.993C10.6668 12.7481 10.6668 13.5031 10.6668 14.2578C10.6668 14.4911 10.7518 14.6413 10.9313 14.6507C11.2725 14.669 11.6153 14.6559 11.9669 14.6559C11.8746 14.478 11.7791 14.3168 11.7061 14.1462C11.6241 13.9547 11.6951 13.781 11.8652 13.7032C12.0447 13.6219 12.222 13.6902 12.3107 13.8916C12.4374 14.1785 12.6389 14.4261 12.894 14.6084C13.8968 15.3352 14.9919 15.4223 16.1371 15.031C16.4961 14.9079 16.7731 14.959 17.0381 15.2277C17.7873 15.9884 18.5454 16.7408 19.3004 17.4941C19.5852 17.7795 19.8643 18.0717 20.1586 18.3477C20.4789 18.6482 20.8619 18.7343 21.2793 18.5955C21.6716 18.4645 21.9007 18.1781 21.9727 17.7743C22.0447 17.3705 21.9027 17.0381 21.6158 16.7517C20.2593 15.4008 18.9059 14.0483 17.5557 12.6942C17.5098 12.6478 17.4613 12.604 17.42 12.5539C17.3605 12.4912 17.3279 12.4077 17.3293 12.3213C17.3307 12.2348 17.3658 12.1524 17.4273 12.0916C17.4888 12.0308 17.5716 11.9966 17.658 11.9962C17.7445 11.9958 17.8276 12.0293 17.8896 12.0895C17.934 12.1278 17.9761 12.1686 18.0159 12.2116C18.7614 12.9572 19.5195 13.6912 20.2463 14.4551C20.5029 14.7248 20.7429 14.8902 21.1134 14.7337C21.1384 14.7264 21.1645 14.7234 21.1906 14.7248L22.678 14.6606ZM22.4026 18.4285C22.3754 18.5585 22.3389 18.6555 22.3379 18.7531C22.3316 19.2226 22.3431 19.6922 22.3306 20.1586C22.3269 20.3151 22.377 20.3783 22.5262 20.4263C22.8578 20.5352 23.1465 20.7459 23.3514 21.0285C23.5562 21.3111 23.6667 21.651 23.6671 22C23.6675 22.349 23.5578 22.6893 23.3536 22.9723C23.1494 23.2553 22.8612 23.4668 22.5299 23.5765C22.476 23.589 22.4261 23.6146 22.3846 23.651C22.343 23.6874 22.311 23.7335 22.2914 23.7852C22.2609 23.8379 22.2183 23.8827 22.1672 23.916C22.116 23.9493 22.0578 23.97 21.9972 23.9766C21.8928 23.9766 21.7363 23.8754 21.7045 23.7841C21.6586 23.6448 21.5808 23.6119 21.4666 23.5754C20.7962 23.3506 20.3235 22.6979 20.3365 22.0243C20.3402 21.824 20.4523 21.6899 20.6297 21.6732C20.8207 21.6554 20.96 21.7676 20.9949 21.9716C21.0049 22.029 21.0054 22.088 21.0127 22.1464C21.0596 22.5116 21.3685 22.869 21.6685 22.8982V22.7824C21.6685 22.2226 21.6685 21.6628 21.6685 21.1029C21.6685 20.9986 21.6314 20.9615 21.5328 20.9302C20.7956 20.6923 20.361 20.1184 20.337 19.3515C20.3391 19.3114 20.3289 19.2716 20.3079 19.2374C20.2868 19.2032 20.2559 19.1762 20.2191 19.16C19.9914 19.0249 19.7747 18.8719 19.5711 18.7025C19.3562 18.5167 19.1694 18.2976 18.9706 18.0931C17.9647 19.1449 17.5651 21.1781 18.6367 22.8346C19.1613 23.6479 19.9631 24.2435 20.8933 24.5107C21.8235 24.778 22.8191 24.6989 23.6955 24.2881C24.5718 23.8773 25.2695 23.1626 25.6591 22.2766C26.0487 21.3907 26.1038 20.3934 25.8142 19.4699C25.3524 17.9778 23.5921 16.5415 22.4991 16.7225C22.5513 17.0199 22.6165 17.3152 22.6478 17.6147C22.6608 17.7425 22.6801 17.8171 22.8043 17.8849C23.3401 18.1833 23.6187 18.6539 23.6646 19.2607C23.6845 19.5216 23.5139 19.6932 23.2812 19.6551C23.0907 19.6238 23.014 19.4986 22.9999 19.3118C22.9692 18.9294 22.7986 18.6341 22.402 18.4285H22.4026ZM28.9847 27.3501H15.0149V29.3191H28.9842L28.9847 27.3501ZM29.3212 26.6573V25.3514H14.6778V26.6588L29.3212 26.6573ZM21.1916 15.3947C21.3847 15.5851 21.5344 15.7479 21.7008 15.8909C21.778 15.9515 21.8705 15.9896 21.968 16.0009C22.2382 16.0322 22.5153 16.0218 22.7829 16.0677C24.6585 16.3886 26.1564 17.8171 26.5534 19.6499C26.7567 20.5642 26.6798 21.5186 26.3329 22.3886C25.9859 23.2586 25.385 24.004 24.6084 24.5276L24.4723 24.6225C24.7243 24.6653 24.9684 24.6481 25.2095 24.6705C25.4505 24.693 25.6096 24.5964 25.7698 24.4342C26.3389 23.8654 26.7718 23.175 27.0359 22.4149C27.2999 21.6549 27.3884 20.8449 27.2945 20.0457C27.2007 19.2466 26.927 18.4791 26.4941 17.8008C26.0611 17.1226 25.4801 16.5513 24.7947 16.1298C23.7012 15.4521 22.5116 15.2241 21.1916 15.3947ZM18.0054 17.1576C17.9819 17.1774 17.971 17.1847 17.9621 17.1941C16.0839 19.2889 16.2827 22.7302 18.3899 24.5818C18.4233 24.611 18.463 24.6549 18.5 24.6559C18.8386 24.6611 19.1783 24.659 19.5164 24.659C18.3404 23.8457 17.6016 22.7688 17.3898 21.368C17.178 19.9671 17.5635 18.7072 18.4599 17.6246L18.0054 17.1576ZM22.3493 21.0857V22.918C22.5394 22.8517 22.7041 22.7278 22.8207 22.5637C22.9372 22.3995 22.9998 22.2032 22.9998 22.0019C22.9998 21.8006 22.9372 21.6042 22.8207 21.4401C22.7041 21.2759 22.5394 21.1521 22.3493 21.0857ZM21.02 19.3426C20.9929 19.76 21.3184 20.2056 21.6508 20.2296V19.1924L21.02 19.3426Z" fill="#F24D4D" stroke="#F24D4D" stroke-width="0.15"/>
</svg>
