<svg width="15" height="15" viewBox="0 0 15 15" fill="none" xmlns="http://www.w3.org/2000/svg">
    <g clip-path="url(#clip0_16_198)">
        <path d="M6.17499 6.1748C5.99077 6.34646 5.84302 6.55346 5.74054 6.78346C5.63806 7.01346 5.58295 7.26174 5.57851 7.5135C5.57407 7.76526 5.62038 8.01533 5.71468 8.2488C5.80898 8.48227 5.94934 8.69435 6.12739 8.8724C6.30544 9.05045 6.51752 9.19081 6.75099 9.28511C6.98446 9.37941 7.23454 9.42573 7.48629 9.42128C7.73805 9.41684 7.98633 9.36174 8.21633 9.25926C8.44633 9.15678 8.65333 9.00902 8.82499 8.8248" stroke="#D3D3D3" stroke-linecap="round" stroke-linejoin="round"/>
        <path d="M6.70624 3.175C6.96956 3.14219 7.23463 3.1255 7.49999 3.125C11.875 3.125 13.75 7.5 13.75 7.5C13.4706 8.0982 13.1201 8.66058 12.7062 9.175" stroke="#D3D3D3" stroke-linecap="round" stroke-linejoin="round"/>
        <path d="M4.13125 4.13135C2.88828 4.97799 1.89367 6.14088 1.25 7.5001C1.25 7.5001 3.125 11.8751 7.5 11.8751C8.69744 11.8783 9.86924 11.5283 10.8687 10.8688" stroke="#D3D3D3" stroke-linecap="round" stroke-linejoin="round"/>
        <path d="M1.25 1.25L13.75 13.75" stroke="#D3D3D3" stroke-linecap="round" stroke-linejoin="round"/>
    </g>
    <defs>
        <clipPath id="clip0_16_198">
            <rect width="15" height="15" fill="white"/>
        </clipPath>
    </defs>
</svg>
