<svg width="35" height="35" viewBox="0 0 35 35" fill="none" xmlns="http://www.w3.org/2000/svg">
    <circle cx="17.5" cy="17.5" r="16.5" fill="white" stroke="#142445" stroke-width="2"/>
    <circle cx="17.5" cy="17.5" r="13.125" fill="#142445"/>
    <path d="M15.2425 20.7814H19.7575C19.3054 23.168 18.3998 24.7918 17.5 24.7918C16.6272 24.7918 15.75 23.265 15.2848 20.9973L15.2425 20.7829V20.7814ZM10.9856 20.7821H14.124C14.3901 22.3003 14.8407 23.5924 15.4314 24.4958C13.5775 23.9456 12.017 22.6835 11.0914 20.9856L10.9856 20.7821ZM20.8753 20.7821H24.0144C23.5654 21.6713 22.9394 22.4594 22.1749 23.098C21.4105 23.7366 20.5236 24.2122 19.5686 24.4958C20.1192 23.6514 20.5486 22.4702 20.8192 21.0826L20.8753 20.7821ZM21.0955 16.0426H24.6466C24.8925 17.2542 24.828 18.5084 24.4592 19.6884H21.0292C21.1412 18.6365 21.1729 17.5776 21.124 16.5209L21.0948 16.0418L21.0955 16.0426ZM10.3527 16.0418H13.9038C13.8277 17.1151 13.836 18.1927 13.9285 19.2648L13.9701 19.6877H10.5408C10.1715 18.5077 10.1068 17.2535 10.3527 16.0418ZM15.0026 16.0418H19.9974C20.0807 17.1161 20.0717 18.1956 19.9704 19.2684L19.9252 19.6877H15.0748C14.9473 18.5959 14.9151 17.4951 14.9785 16.3977L15.0026 16.0418ZM19.6474 10.6285L19.5679 10.5045C20.6518 10.8263 21.6463 11.395 22.4732 12.166C23.3002 12.9371 23.937 13.8894 24.3338 14.9481H20.9854C20.755 13.1864 20.2883 11.6727 19.6459 10.6292L19.6474 10.6285ZM15.3431 10.5315L15.4321 10.5045C14.7897 11.4896 14.3121 12.9327 14.0583 14.6273L14.0139 14.9481H10.6663C11.0575 13.9041 11.6823 12.9634 12.4929 12.1979C13.3035 11.4324 14.2784 10.8624 15.3431 10.5315ZM17.5 10.21C18.4618 10.21 19.4294 12.0635 19.8435 14.7184L19.8778 14.9481H15.1222C15.5167 12.1707 16.5105 10.21 17.5 10.21Z" fill="white"/>
</svg>
