<svg width="185" height="180" viewBox="0 0 185 180" fill="none" xmlns="http://www.w3.org/2000/svg">
    <path d="M166.931 155.481H78.9106C78.0454 155.491 77.1876 155.32 76.3929 154.978C75.5982 154.636 74.8841 154.13 74.2971 153.495C73.71 152.859 73.263 152.107 72.9849 151.288C72.7069 150.469 72.604 149.6 72.683 148.738L83.4633 7.40213C83.6312 5.58118 84.4652 3.88623 85.8053 2.64206C87.1455 1.3979 88.8977 0.692025 90.7261 0.659705H178.746C179.612 0.648414 180.47 0.819225 181.265 1.16106C182.06 1.50289 182.774 2.0081 183.362 2.6439C183.949 3.2797 184.396 4.03188 184.674 4.85161C184.951 5.67135 185.054 6.54032 184.974 7.40213L174.193 148.738C174.024 150.559 173.19 152.253 171.85 153.497C170.51 154.741 168.759 155.447 166.931 155.481Z" fill="#003FA4"/>
    <path opacity="0.5" d="M166.931 155.481H78.9106C78.0454 155.491 77.1876 155.32 76.3929 154.978C75.5982 154.636 74.8841 154.13 74.2971 153.495C73.71 152.859 73.263 152.107 72.9849 151.288C72.7069 150.469 72.604 149.6 72.683 148.738L83.4633 7.40213C83.6312 5.58118 84.4652 3.88623 85.8053 2.64206C87.1455 1.3979 88.8977 0.692025 90.7261 0.659705H178.746C179.612 0.648414 180.47 0.819225 181.265 1.16106C182.06 1.50289 182.774 2.0081 183.362 2.6439C183.949 3.2797 184.396 4.03188 184.674 4.85161C184.951 5.67135 185.054 6.54032 184.974 7.40213L174.193 148.738C174.024 150.559 173.19 152.253 171.85 153.497C170.51 154.741 168.759 155.447 166.931 155.481Z" fill="white"/>
    <path d="M165.624 155.481H77.5981C76.7329 155.491 75.8751 155.32 75.0804 154.978C74.2857 154.636 73.5716 154.13 72.9846 153.495C72.3975 152.859 71.9505 152.107 71.6724 151.288C71.3944 150.469 71.2915 149.6 71.3705 148.738L82.1562 7.40213C82.3243 5.58027 83.159 3.88458 84.5003 2.64028C85.8416 1.39599 87.5951 0.690704 89.4244 0.659705H177.444C178.31 0.648414 179.168 0.819225 179.963 1.16106C180.758 1.50289 181.473 2.0081 182.06 2.6439C182.647 3.2797 183.094 4.03188 183.372 4.85161C183.65 5.67135 183.752 6.54032 183.672 7.40213L172.892 148.738C172.724 150.56 171.889 152.256 170.548 153.5C169.206 154.744 167.453 155.45 165.624 155.481Z" fill="#003FA4"/>
    <path opacity="0.7" d="M165.624 155.481H77.5981C76.7329 155.491 75.8751 155.32 75.0804 154.978C74.2857 154.636 73.5716 154.13 72.9846 153.495C72.3975 152.859 71.9505 152.107 71.6724 151.288C71.3944 150.469 71.2915 149.6 71.3705 148.738L82.1562 7.40213C82.3243 5.58027 83.159 3.88458 84.5003 2.64028C85.8416 1.39599 87.5951 0.690704 89.4244 0.659705H177.444C178.31 0.648414 179.168 0.819225 179.963 1.16106C180.758 1.50289 181.473 2.0081 182.06 2.6439C182.647 3.2797 183.094 4.03188 183.372 4.85161C183.65 5.67135 183.752 6.54032 183.672 7.40213L172.892 148.738C172.724 150.56 171.889 152.256 170.548 153.5C169.206 154.744 167.453 155.45 165.624 155.481Z" fill="white"/>
    <path d="M77.7714 153.231C77.1942 153.24 76.6218 153.126 76.0913 152.899C75.5608 152.672 75.0842 152.335 74.6925 151.911C74.3008 151.487 74.0028 150.986 73.8179 150.439C73.6331 149.892 73.5655 149.312 73.6197 148.738L84.259 9.2768C84.3686 8.06242 84.9237 6.93154 85.8173 6.10197C86.7109 5.2724 87.8799 4.80282 89.0991 4.78366H177.119C177.696 4.77503 178.269 4.88809 178.799 5.11549C179.33 5.34288 179.806 5.67951 180.198 6.10342C180.59 6.52734 180.888 7.02903 181.073 7.57581C181.257 8.12258 181.325 8.70217 181.271 9.2768L170.631 148.738C170.522 149.951 169.968 151.081 169.075 151.911C168.183 152.74 167.015 153.21 165.797 153.231H77.7714Z" fill="#003FA4"/>
    <path opacity="0.2" d="M165.174 28.2422H102.183C101.841 28.2467 101.502 28.1792 101.187 28.044C100.873 27.9088 100.591 27.7089 100.358 27.4574C100.126 27.2059 99.9498 26.9084 99.8402 26.5841C99.7307 26.2599 99.6906 25.9163 99.7226 25.5756C99.7903 24.8573 100.12 24.1891 100.649 23.6983C101.178 23.2075 101.868 22.9285 102.59 22.9144H165.58C165.922 22.909 166.262 22.9759 166.576 23.1105C166.89 23.245 167.173 23.4444 167.405 23.6955C167.637 23.9466 167.814 24.2438 167.923 24.5677C168.033 24.8917 168.073 25.2351 168.041 25.5756C167.977 26.2957 167.649 26.9666 167.119 27.4589C166.59 27.9513 165.897 28.2303 165.174 28.2422Z" fill="black"/>
    <path opacity="0.3" d="M138.302 3.40832H128.129C128.045 3.40942 127.961 3.39282 127.884 3.35959C127.806 3.32636 127.737 3.27725 127.68 3.21542C127.622 3.1536 127.579 3.08045 127.552 3.0007C127.524 2.92096 127.514 2.8364 127.522 2.7525C127.539 2.57602 127.62 2.41191 127.75 2.2911C127.88 2.1703 128.049 2.10115 128.227 2.09668H138.405C138.489 2.09634 138.572 2.11351 138.649 2.14707C138.725 2.18064 138.794 2.22987 138.851 2.2916C138.908 2.35334 138.951 2.42623 138.978 2.5056C139.004 2.58496 139.014 2.66906 139.007 2.7525C138.992 2.92988 138.912 3.09535 138.781 3.21662C138.651 3.33789 138.48 3.40624 138.302 3.40832Z" fill="#003FA4"/>
    <path d="M101.89 25.5751C101.981 24.6324 101.871 23.6814 101.568 22.784C101.266 21.8867 100.777 21.0633 100.135 20.3676C99.4922 19.6719 98.7102 19.1196 97.8397 18.7468C96.9692 18.374 96.0299 18.189 95.083 18.204H159.039C159.985 18.189 160.925 18.374 161.795 18.7468C162.666 19.1196 163.448 19.6719 164.09 20.3676C164.733 21.0633 165.221 21.8867 165.524 22.784C165.826 23.6814 165.936 24.6324 165.846 25.5751H101.89Z" fill="#F0F0F0"/>
    <path d="M95.0987 18.2041C93.0984 18.2349 91.1803 19.005 89.7142 20.3661C88.248 21.7272 87.3376 23.5828 87.1585 25.5752L80.6057 111.465C80.4278 113.457 79.5185 115.313 78.0533 116.674C76.588 118.035 74.6706 118.806 72.6709 118.836H136.626C138.627 118.806 140.545 118.035 142.011 116.674C143.477 115.313 144.387 113.458 144.567 111.465L151.119 25.5752C151.297 23.5832 152.207 21.7277 153.672 20.3665C155.137 19.0054 157.054 18.235 159.054 18.2041H95.0987Z" fill="white"/>
    <path d="M129.814 111.466C129.724 112.408 129.834 113.36 130.136 114.257C130.439 115.154 130.927 115.978 131.57 116.673C132.212 117.369 132.994 117.921 133.865 118.294C134.735 118.667 135.675 118.852 136.622 118.837H72.6661C71.7193 118.852 70.7799 118.667 69.9094 118.294C69.0389 117.921 68.2569 117.369 67.6144 116.673C66.972 115.978 66.4835 115.154 66.1809 114.257C65.8784 113.36 65.7686 112.408 65.8587 111.466H129.814Z" fill="#F0F0F0"/>
    <path d="M92.3782 109.768C92.6221 106.63 91.6357 104.094 88.5029 104.094H137.749C140.881 104.094 143.239 106.961 141.629 109.768H92.3782Z" fill="#E0E0E0"/>
    <path d="M129.814 111.466C129.988 109.471 130.896 107.611 132.361 106.247C133.827 104.882 135.746 104.109 137.749 104.078H73.7932C71.7935 104.109 69.8761 104.879 68.4109 106.241C66.9456 107.602 66.0363 109.457 65.8584 111.449L129.814 111.466Z" fill="#F0F0F0"/>
    <path d="M160.052 132.761H86.6389C86.3904 132.764 86.144 132.715 85.9157 132.617C85.6874 132.519 85.4823 132.374 85.3136 132.191C85.145 132.009 85.0166 131.793 84.9367 131.558C84.8569 131.323 84.8274 131.073 84.8503 130.826C84.8982 130.304 85.137 129.817 85.5211 129.46C85.9051 129.103 86.4073 128.901 86.9315 128.891H160.35C160.598 128.888 160.844 128.938 161.072 129.036C161.299 129.134 161.504 129.28 161.672 129.462C161.84 129.644 161.968 129.86 162.047 130.095C162.127 130.33 162.156 130.579 162.133 130.826C162.086 131.348 161.847 131.834 161.463 132.191C161.079 132.548 160.576 132.751 160.052 132.761Z" fill="white"/>
    <path d="M122.98 142.06H85.9294C85.6807 142.065 85.434 142.016 85.2053 141.918C84.9766 141.821 84.7711 141.676 84.6022 141.493C84.4334 141.31 84.305 141.094 84.2255 140.859C84.146 140.623 84.1172 140.373 84.1408 140.126C84.1888 139.603 84.4276 139.117 84.8116 138.76C85.1957 138.403 85.6979 138.2 86.2221 138.191H123.273C123.521 138.187 123.768 138.236 123.996 138.334C124.224 138.432 124.429 138.577 124.598 138.76C124.767 138.942 124.895 139.158 124.975 139.393C125.055 139.629 125.084 139.878 125.062 140.126C125.014 140.648 124.775 141.134 124.391 141.491C124.007 141.848 123.504 142.051 122.98 142.06Z" fill="white"/>
    <path d="M148.633 142.06H133.625C133.376 142.065 133.129 142.016 132.901 141.918C132.672 141.821 132.466 141.676 132.298 141.493C132.129 141.31 132 141.094 131.921 140.859C131.841 140.623 131.812 140.373 131.836 140.125C131.884 139.603 132.123 139.117 132.507 138.76C132.891 138.403 133.393 138.2 133.917 138.191H148.925C149.173 138.188 149.419 138.238 149.647 138.336C149.875 138.434 150.08 138.579 150.249 138.761C150.417 138.944 150.545 139.159 150.626 139.394C150.706 139.629 150.736 139.878 150.714 140.125C150.666 140.648 150.427 141.134 150.043 141.491C149.659 141.848 149.157 142.051 148.633 142.06Z" fill="white"/>
    <path d="M163.64 105.26L159.808 105.861C159.715 105.506 159.567 105.168 159.369 104.859C159.174 104.623 158.932 104.429 158.659 104.29L158.432 107.233C160.455 107.785 161.789 108.367 162.432 108.978C162.85 109.375 163.169 109.863 163.366 110.405C163.563 110.947 163.631 111.527 163.564 112.1C163.517 112.822 163.293 113.521 162.914 114.138C162.557 114.735 162.09 115.259 161.537 115.682C161.027 116.081 160.451 116.387 159.836 116.587C159.13 116.79 158.401 116.901 157.668 116.918L157.521 118.837H156.09L156.237 116.918C155.422 116.865 154.618 116.702 153.846 116.436C153.268 116.22 152.741 115.888 152.296 115.46C151.899 115.079 151.581 114.625 151.359 114.121C151.13 113.569 150.989 112.983 150.941 112.387L155.088 111.91C155.111 112.417 155.24 112.914 155.467 113.368C155.709 113.716 156.043 113.99 156.432 114.159L156.703 110.566C155.73 110.316 154.78 109.986 153.863 109.579C153.285 109.271 152.804 108.807 152.475 108.241C152.087 107.559 151.928 106.771 152.02 105.991C152.056 105.413 152.207 104.848 152.464 104.329C152.721 103.81 153.078 103.347 153.516 102.967C154.611 102.084 155.979 101.607 157.386 101.617L157.462 100.609H158.947L158.871 101.617C160.091 101.615 161.281 101.994 162.275 102.701C163.037 103.351 163.525 104.265 163.64 105.26ZM157.174 104.241C156.818 104.336 156.493 104.523 156.231 104.783C156.045 104.989 155.934 105.253 155.917 105.531C155.888 105.806 155.959 106.083 156.117 106.311C156.343 106.573 156.641 106.761 156.974 106.853L157.174 104.241ZM157.895 114.262C158.387 114.18 158.844 113.958 159.212 113.623C159.486 113.36 159.655 113.008 159.689 112.631C159.717 112.312 159.619 111.996 159.418 111.747C159.07 111.387 158.629 111.128 158.145 110.999L157.895 114.262Z" fill="white"/>
    <path d="M91.4405 42.1123H93.2671L92.8172 47.9984H90.9961L91.4405 42.1123Z" fill="#003FA4"/>
    <path d="M94.5836 42.1123H96.2801L98.2475 45.3643L98.4968 42.1123H100.21L99.7597 47.9984H98.047L96.0904 44.7464L95.8411 47.9984H94.1338L94.5836 42.1123Z" fill="#003FA4"/>
    <path d="M100.839 42.1123H102.741L103.744 46.3507L105.37 42.1123H107.213L104.6 47.9984H102.633L100.839 42.1123Z" fill="#003FA4"/>
    <path d="M107.077 45.0594C107.102 44.2139 107.451 43.4105 108.052 42.8155C108.686 42.2607 109.51 41.9732 110.351 42.0134C110.753 41.9824 111.157 42.0364 111.537 42.1718C111.917 42.3072 112.264 42.521 112.556 42.7992C112.812 43.1023 112.999 43.4563 113.107 43.8377C113.214 44.219 113.239 44.6189 113.18 45.0106C113.157 45.604 112.993 46.1836 112.703 46.7016C112.442 47.1376 112.068 47.4938 111.619 47.7314C111.103 47.9896 110.531 48.1163 109.955 48.1C109.395 48.1213 108.839 48.0118 108.329 47.7802C107.902 47.5603 107.558 47.2086 107.348 46.7775C107.103 46.24 107.01 45.6461 107.077 45.0594ZM108.898 45.0594C108.819 45.5016 108.902 45.9576 109.131 46.3439C109.235 46.4733 109.369 46.5758 109.52 46.6428C109.672 46.7098 109.838 46.7392 110.004 46.7287C110.177 46.7369 110.351 46.7072 110.512 46.6417C110.673 46.5762 110.817 46.4764 110.936 46.3493C111.223 45.9525 111.373 45.4731 111.364 44.9835C111.437 44.5608 111.35 44.126 111.12 43.764C111.015 43.6355 110.88 43.534 110.727 43.4681C110.574 43.4021 110.408 43.3735 110.242 43.3846C110.07 43.3802 109.9 43.4127 109.742 43.48C109.584 43.5474 109.442 43.6479 109.326 43.7748C109.045 44.146 108.895 44.5994 108.898 45.0648V45.0594Z" fill="#003FA4"/>
    <path d="M114.454 42.1123H116.275L115.83 47.9984H114.004L114.454 42.1123Z" fill="#003FA4"/>
    <path d="M121.234 45.591L122.79 46.0734C122.67 46.4814 122.469 46.8612 122.199 47.1899C121.957 47.4858 121.646 47.7183 121.294 47.8674C120.874 48.0354 120.424 48.1147 119.971 48.1005C119.442 48.12 118.915 48.0238 118.427 47.8186C118.003 47.607 117.66 47.2624 117.451 46.8376C117.174 46.283 117.068 45.6585 117.148 45.0436C117.163 44.1999 117.503 43.3944 118.096 42.7943C118.717 42.2495 119.526 41.9694 120.351 42.0139C120.955 41.974 121.557 42.1319 122.064 42.4637C122.496 42.8105 122.793 43.2975 122.904 43.8404L121.278 44.1981C121.251 44.0609 121.201 43.9291 121.131 43.8079C121.047 43.672 120.927 43.5615 120.784 43.4881C120.634 43.4106 120.466 43.3715 120.297 43.3743C120.104 43.3683 119.912 43.4108 119.74 43.4979C119.568 43.585 119.42 43.7139 119.31 43.8729C119.093 44.219 118.977 44.6188 118.974 45.0274C118.89 45.4847 118.959 45.9569 119.169 46.3715C119.264 46.4932 119.387 46.5898 119.528 46.6531C119.669 46.7164 119.823 46.7444 119.977 46.7347C120.125 46.7442 120.274 46.7232 120.414 46.6728C120.554 46.6225 120.682 46.5439 120.79 46.442C121.004 46.1979 121.156 45.9061 121.234 45.591Z" fill="#003FA4"/>
    <path d="M123.971 42.1123H128.849L128.757 43.3697H125.706L125.635 44.3074H128.448L128.356 45.5052H125.527L125.435 46.6651H128.578L128.475 47.9984H123.511L123.971 42.1123Z" fill="#003FA4"/>
    <path d="M143.278 55.5962H90.417L90.5254 54.1328H143.392L143.278 55.5962Z" fill="#003FA4"/>
    <path d="M143.277 55.5967H90.4162L90.0693 60.0898H142.936L143.277 55.5967Z" fill="#F0F0F0"/>
    <path d="M142.594 64.5771H89.7282L89.3867 69.0649H142.253L142.594 64.5771Z" fill="#F0F0F0"/>
    <path d="M141.906 73.5527H89.0456L88.7041 78.0459H141.565L141.906 73.5527Z" fill="#F0F0F0"/>
    <path d="M141.223 82.5332H88.3571L88.0156 87.0209H140.882L141.223 82.5332Z" fill="#F0F0F0"/>
    <path d="M140.426 92.9776H87.5596L87.6734 91.5088H140.54L140.426 92.9776Z" fill="#003FA4"/>
    <path d="M134.378 28.2412H145.364L144.865 34.7939H133.879L134.378 28.2412Z" fill="#F0F0F0"/>
    <path d="M26.6514 69.9322L28.6135 70.7181C29.3297 71.006 29.9576 71.477 30.4346 72.0839L31.3343 73.2221C31.6247 73.5876 31.7774 74.0436 31.7655 74.5103C31.7536 74.977 31.5779 75.4247 31.2692 75.7749L30.3153 76.8589C30.1408 77.0578 29.9285 77.22 29.6907 77.3363C29.453 77.4525 29.1946 77.5204 28.9304 77.536C28.6662 77.5517 28.4016 77.5147 28.1518 77.4273C27.902 77.3399 27.6721 77.2038 27.4753 77.0269L26.5539 76.2139C26.5539 76.2139 23.7355 74.2357 22.9062 71.6178L23.4482 71.0758C23.854 70.6459 24.3558 70.3182 24.9125 70.1194C25.4693 69.9207 26.0651 69.8565 26.6514 69.9322Z" fill="#FFB573"/>
    <path d="M32.028 50.9189L31.3885 51.3416L30.6784 51.8294C30.2069 52.1655 29.73 52.5123 29.2693 52.8646C28.3424 53.5855 27.4427 54.328 26.6081 55.1193C24.96 56.5997 23.5456 58.321 22.413 60.2249C22.2775 60.4526 22.1583 60.6802 22.0445 60.9133L21.9577 61.0867C21.9796 61.0136 21.9977 60.9394 22.0119 60.8645C22.0303 60.7751 22.0303 60.6829 22.0119 60.5935C21.9632 60.4363 21.9577 60.8428 22.0824 61.2439C22.4147 62.2848 22.8486 63.2906 23.3778 64.2465C24.4943 66.382 25.8926 68.5825 27.2151 70.7505L27.2476 70.8101C27.5098 71.2416 27.5903 71.7594 27.4714 72.2501C27.3526 72.7408 27.0441 73.1643 26.6135 73.428C26.2813 73.6272 25.8969 73.7218 25.5103 73.6996C25.1236 73.6773 24.7526 73.5393 24.4455 73.3033C23.3624 72.4606 22.329 71.5557 21.3507 70.5933C20.3499 69.6199 19.4053 68.5902 18.5215 67.5094C17.5371 66.328 16.7015 65.0301 16.0337 63.6449C15.8336 63.2127 15.6634 62.7672 15.5242 62.3116C15.3455 61.7189 15.2507 61.1041 15.2424 60.4851C15.2386 60.0657 15.2841 59.6473 15.3779 59.2385C15.4326 59.0051 15.5014 58.7752 15.5839 58.5502L15.6868 58.2738C15.8223 57.8998 15.9741 57.5366 16.1313 57.1898C17.3975 54.4273 19.1487 51.9142 21.3019 49.7698C22.3204 48.7288 23.4067 47.7565 24.5539 46.8593C25.1284 46.4149 25.7083 45.9813 26.31 45.5748C26.6135 45.3688 26.917 45.1629 27.2314 44.9678L27.7137 44.6751L28.2557 44.3607C29.1067 43.9013 30.101 43.7842 31.0355 44.0333C31.9699 44.2825 32.7739 44.8791 33.2833 45.7012C33.7926 46.5233 33.9687 47.5088 33.7757 48.4565C33.5827 49.4041 33.0351 50.2422 32.2448 50.7996L32.028 50.9189Z" fill="#FFB573"/>
    <path d="M32.093 42.3174C28.9278 42.3174 25.459 43.6887 21.0146 49.2008C21.0146 52.4907 27.9576 56.8646 27.9576 56.8646C27.9576 56.8646 39.3395 42.2903 32.093 42.3174Z" fill="#BBBBBB"/>
    <path d="M8.57595 172.607C8.51899 172.606 8.46248 172.596 8.40793 172.58C7.75211 172.347 7.13424 170.678 7.0963 169.745C7.09362 169.716 7.1 169.687 7.11456 169.662C7.12912 169.637 7.15114 169.617 7.1776 169.604C7.20274 169.589 7.23187 169.58 7.26161 169.58C7.29135 169.58 7.32048 169.589 7.34562 169.604C7.41608 169.664 9.04748 171.003 9.12336 171.902C9.13401 171.989 9.1265 172.078 9.10131 172.162C9.07613 172.246 9.03381 172.323 8.97703 172.39C8.92993 172.453 8.86966 172.505 8.80039 172.543C8.73113 172.58 8.65454 172.602 8.57595 172.607ZM7.44318 170.108C7.58952 170.992 8.09357 172.141 8.52717 172.276C8.57011 172.29 8.61647 172.289 8.65876 172.274C8.70106 172.258 8.7368 172.228 8.76023 172.19C8.79053 172.154 8.81297 172.113 8.82605 172.068C8.83913 172.023 8.84255 171.976 8.83611 171.93C8.77649 171.415 7.97433 170.585 7.44318 170.108Z" fill="#263238"/>
    <path d="M9.59505 170.618C8.73499 170.571 7.89951 170.315 7.16149 169.87C7.13764 169.854 7.11892 169.831 7.10744 169.804C7.09595 169.777 7.09214 169.747 7.09645 169.719C7.1016 169.689 7.11504 169.662 7.1352 169.64C7.15536 169.618 7.1814 169.602 7.21027 169.594C7.29698 169.594 9.34031 169.052 10.1099 169.507C10.1872 169.549 10.2547 169.607 10.3079 169.677C10.3612 169.747 10.399 169.828 10.4189 169.914C10.4464 170.013 10.4424 170.119 10.4075 170.216C10.3726 170.313 10.3084 170.397 10.2238 170.456C10.0349 170.571 9.8161 170.628 9.59505 170.618ZM7.66012 169.8C8.45686 170.201 9.68719 170.472 10.0503 170.223C10.1045 170.185 10.1533 170.131 10.1208 169.984C10.111 169.938 10.0908 169.894 10.0617 169.857C10.0326 169.819 9.99533 169.789 9.95277 169.767C9.50291 169.491 8.3593 169.659 7.66012 169.8Z" fill="#263238"/>
    <path d="M1.48152 169.382C3.08709 167.664 4.44771 165.733 5.5248 163.643C5.5248 163.643 10.5545 164.878 9.5681 166.353C7.77409 168.981 6.90147 174.385 9.21038 177.279C10.5274 178.932 8.44616 179.209 7.04239 178.499C4.87441 177.377 4.94487 176.954 3.79042 175.095C2.81483 173.507 2.43001 172.884 1.08044 172.201C-0.0035505 171.61 0.538444 170.504 1.48152 169.382Z" fill="#003FA4"/>
    <path d="M44.1364 74.9883C44.1364 74.9883 36.852 110.543 31.5079 125.757C25.9037 141.703 10.4297 166.315 9.82811 167.371C7.62761 166.781 5.66558 166.011 4.35938 164.737C4.35938 164.737 11.6221 138.044 18.7006 120.727C21.4106 84.5762 27.3129 75.0154 27.3129 75.0154L44.1364 74.9883Z" fill="#BBBBBB"/>
    <path opacity="0.2" d="M33.0095 94.0116C32.6789 100.889 32.4675 110.347 32.7764 121.859C35.004 114.683 37.4267 104.954 39.4646 96.2229C38.1042 94.4072 35.9905 93.5346 33.0095 94.0116Z" fill="black"/>
    <path d="M33.4482 31.3896C34.2125 34.4844 34.9604 39.5196 33.7409 42.2296C33.7409 42.2296 38.3045 42.4355 44.1364 47.1075C46.8843 43.0751 43.7028 42.2838 43.7028 42.2838C41.2801 41.7418 41.3993 38.4898 41.4047 36.1863L33.4482 31.3896Z" fill="#FFB573"/>
    <path d="M32.2997 43.6124C30.0233 43.3631 31.5951 39.0379 32.7767 39.4607C35.7685 40.5447 42.4784 39.3415 44.5543 40.4851C46.6301 41.6287 46.1044 43.9755 46.1044 43.9755C46.1044 43.9755 34.7495 43.8834 32.2997 43.6124Z" fill="#003FA4"/>
    <path opacity="0.7" d="M32.2997 43.6124C30.0233 43.3631 31.5951 39.0379 32.7767 39.4607C35.7685 40.5447 42.4784 39.3415 44.5543 40.4851C46.6301 41.6287 46.1044 43.9755 46.1044 43.9755C46.1044 43.9755 34.7495 43.8834 32.2997 43.6124Z" fill="white"/>
    <path d="M45.5789 25.9327C45.6547 26.3446 45.9311 26.6427 46.2021 26.5939C46.4731 26.5451 46.6303 26.1712 46.5599 25.7592C46.4894 25.3473 46.2076 25.0492 45.9366 25.098C45.6656 25.1468 45.5247 25.5208 45.5789 25.9327Z" fill="#263238"/>
    <path d="M45.8223 25.1414L46.7653 24.6807C46.7653 24.6807 46.3914 25.5479 45.8223 25.1414Z" fill="#263238"/>
    <path d="M46.1306 22.6257C46.1428 22.5965 46.1491 22.5652 46.1491 22.5336C46.1491 22.5019 46.1428 22.4706 46.1306 22.4414C46.1129 22.3785 46.0711 22.3251 46.0143 22.2926C45.9576 22.2602 45.8903 22.2513 45.8271 22.268C45.4468 22.361 45.094 22.5432 44.7981 22.7996C44.5021 23.0559 44.2715 23.379 44.1252 23.7422C44.1074 23.8048 44.1136 23.8718 44.1427 23.93C44.1718 23.9882 44.2216 24.0333 44.2824 24.0566C44.3449 24.0772 44.4131 24.0723 44.472 24.0428C44.5309 24.0134 44.5757 23.9618 44.5968 23.8994C44.7146 23.6122 44.8997 23.3574 45.1364 23.1565C45.3731 22.9557 45.6546 22.8145 45.9572 22.745C45.9928 22.7383 46.0266 22.7242 46.0565 22.7037C46.0864 22.6831 46.1116 22.6566 46.1306 22.6257Z" fill="#263238"/>
    <path d="M46.0654 26.9404C46.5385 27.8541 47.1349 28.6985 47.8378 29.4499C47.6405 29.625 47.4072 29.7546 47.1543 29.8295C46.9014 29.9044 46.6352 29.9229 46.3744 29.8835L46.0654 26.9404Z" fill="#ED893E"/>
    <path d="M31.4313 25.7211C32.64 30.7508 33.0573 32.9025 36.022 35.0651C40.5043 38.3171 46.2929 35.748 46.5855 30.469C46.8457 25.7103 44.8295 18.2903 39.5938 17.1305C34.3581 15.9706 30.2227 20.6914 31.4313 25.7211Z" fill="#FFB573"/>
    <path d="M41.1887 26.6477C44.148 22.7345 46.0667 19.5692 44.6195 16.1059C43.4 13.2116 40.0234 14.0571 39.5519 15.5043C30.5764 14.7401 27.3515 17.992 29.2052 23.3686C30.3867 26.7995 25.8014 24.9946 26.9179 29.3739C27.7689 32.7126 24.75 33.9863 26.2838 35.905C28.4951 38.6746 33.0588 35.0649 38.2673 37.1407C42.5166 38.8426 48.923 36.2681 41.1887 26.6477Z" fill="#564F52"/>
    <path d="M40.6949 27.439C40.9393 27.8408 41.2662 28.1862 41.6539 28.4525C42.0416 28.7187 42.4814 28.8998 42.9441 28.9837C44.1203 29.1571 44.5268 27.8347 44.0281 26.6097C43.5945 25.5258 42.4618 24.0895 41.3507 24.4851C40.2396 24.8808 40.0282 26.3821 40.6949 27.439Z" fill="#FFB573"/>
    <path d="M42.445 175.924C41.4992 175.808 40.608 175.418 39.8813 174.802C39.8604 174.782 39.8453 174.757 39.8377 174.729C39.83 174.701 39.8301 174.672 39.838 174.644C39.8471 174.616 39.8641 174.59 39.8872 174.571C39.9102 174.552 39.9383 174.54 39.9681 174.536C40.0548 174.536 42.1361 174.303 42.8515 174.877C42.9227 174.93 42.9815 174.997 43.0236 175.075C43.0658 175.153 43.0903 175.239 43.0954 175.327C43.1179 175.435 43.1034 175.547 43.0542 175.646C43.0051 175.744 42.9241 175.823 42.8244 175.869C42.7033 175.915 42.5739 175.933 42.445 175.924ZM40.38 174.807C41.1171 175.322 42.2932 175.772 42.6889 175.577C42.7485 175.544 42.8027 175.495 42.7919 175.349C42.7884 175.302 42.7744 175.256 42.751 175.215C42.7275 175.173 42.6952 175.138 42.6564 175.111C42.2716 174.774 41.0954 174.764 40.38 174.807Z" fill="#263238"/>
    <path d="M39.9849 174.846C39.9607 174.845 39.937 174.838 39.9155 174.827C39.894 174.816 39.8751 174.8 39.8603 174.781C39.8444 174.756 39.8359 174.726 39.8359 174.697C39.8359 174.667 39.8444 174.638 39.8603 174.613C39.9036 174.537 40.9443 172.705 41.8277 172.483C41.9127 172.457 42.0022 172.45 42.0902 172.462C42.1782 172.474 42.2625 172.505 42.3372 172.553C42.4342 172.602 42.5124 172.682 42.5594 172.78C42.6065 172.878 42.6198 172.989 42.5974 173.095C42.4781 173.783 40.928 174.667 40.0229 174.857L39.9849 174.846ZM42.0066 172.765H41.8982C41.3887 172.895 40.7004 173.821 40.3156 174.423C41.1611 174.13 42.218 173.447 42.2938 173.014C42.2938 172.949 42.2938 172.873 42.1692 172.792C42.1181 172.769 42.0622 172.76 42.0066 172.765Z" fill="#263238"/>
    <path d="M46.4731 177.826C42.0829 177.485 39.1236 174.471 39.4271 171.279C39.5951 169.518 33.9692 169.36 33.9692 169.36C34.8581 174.818 33.7416 175.599 33.373 177.008C33.0045 178.417 33.0966 179.978 34.2619 180.005C35.6548 180.043 36.3052 179.778 38.0559 179.843C40.0829 179.924 42.2726 180 45.8769 180.005C47.3023 180.011 48.4242 177.978 46.4731 177.826Z" fill="#003FA4"/>
    <path d="M51.7245 74.9883C51.7245 74.9883 51.3397 101.92 49.2151 119.616C47.0904 137.312 39.7843 172.022 39.7843 172.022C37.8628 172.475 35.8599 172.457 33.947 171.968C33.947 171.968 31.6381 144.868 35.5134 118.651C32.6679 91.1885 30.8848 74.9883 30.8848 74.9883H51.7245Z" fill="#BBBBBB"/>
    <path d="M52.7217 50.0787C52.6296 52.16 55.9141 56.9729 51.8599 59.7587C52.6187 61.4552 53.2583 72.9401 51.7244 74.9888C49.486 76.6148 37.3724 76.3167 27.3346 74.9888C26.9064 70.8371 29.1937 62.2357 26.3915 48.8267C26.238 48.0925 26.2406 47.3343 26.3992 46.6012C26.5577 45.8681 26.8686 45.1766 27.3118 44.5714C27.7549 43.9663 28.3203 43.4611 28.9713 43.0886C29.6223 42.7162 30.3444 42.4848 31.0906 42.4095C31.9362 42.3282 32.8305 42.2523 33.7464 42.2089C36.9457 41.9837 40.1568 41.9837 43.356 42.2089C44.3912 42.3065 45.4644 42.4366 46.4887 42.5829C48.2734 42.8344 49.9004 43.7415 51.0527 45.1272C52.2049 46.513 52.7999 48.2782 52.7217 50.0787Z" fill="#003FA4"/>
    <g opacity="0.3">
        <path d="M26.6407 48.1005L26.4185 48.2252C26.3986 48.2312 26.3802 48.2416 26.3647 48.2556C26.3493 48.2695 26.3371 48.2868 26.3291 48.306C26.3211 48.3253 26.3175 48.346 26.3185 48.3669C26.3195 48.3877 26.3251 48.408 26.3349 48.4264C26.3447 48.4448 26.3585 48.4608 26.3752 48.4732C26.392 48.4856 26.4112 48.4942 26.4317 48.4983C26.4521 48.5023 26.4732 48.5018 26.4934 48.4968C26.5136 48.4918 26.5325 48.4823 26.5486 48.4691L26.7979 48.3336C27.8819 48.7292 29.0363 49.629 29.703 49.7211C28.619 48.7726 27.8548 48.0951 26.993 48.2143C27.2478 48.0626 27.4971 47.9108 27.7464 47.7482C28.7328 48.1168 29.806 48.9406 30.4184 49.0219C29.4212 48.1439 28.7057 47.5152 27.9198 47.6344L28.4618 47.2604L28.7654 47.0382C29.6596 47.423 30.6027 48.2414 31.1664 48.3553C30.2667 47.4664 29.6325 46.8377 28.8737 46.9623C29.1122 46.7835 29.3453 46.6046 29.5729 46.4203C30.3913 46.7781 31.2585 47.5043 31.7734 47.629C30.9496 46.8106 30.3697 46.2361 29.6705 46.3445L30.2558 45.8567L30.3968 45.7374C31.1176 46.1168 31.833 46.8648 32.3046 47.0003C31.6217 46.1819 31.1447 45.6128 30.4293 45.7049C30.6136 45.5477 30.7978 45.3851 30.9713 45.2171C31.6379 45.5694 32.2937 46.2577 32.7273 46.3824C32.0986 45.629 31.6434 45.1087 31.0038 45.19L31.5783 44.648C32.1582 45.0057 32.7111 45.6561 33.0959 45.7916C32.5539 45.0762 32.207 44.583 31.6162 44.6101C31.7192 44.5071 31.8222 44.4095 31.9198 44.3066L32.0932 44.1277C32.6352 44.4583 33.1393 45.0599 33.4916 45.1846C33.0146 44.5288 32.6731 44.0681 32.1311 44.1006C32.2883 43.938 32.4455 43.77 32.5973 43.602C33.0851 43.8675 33.5458 44.3716 33.871 44.4692C33.4428 43.9272 33.1393 43.5261 32.6189 43.5803L32.7057 43.4881L33.0309 43.1087C33.4036 43.3907 33.7907 43.653 34.1907 43.8946C33.8005 43.3906 33.5241 43.0383 33.058 43.0762C33.1826 42.9245 33.3073 42.7619 33.4157 42.5993C33.4203 42.5952 33.424 42.5902 33.4265 42.5846C33.429 42.579 33.4304 42.5729 33.4304 42.5667C33.4304 42.5606 33.429 42.5545 33.4265 42.5489C33.424 42.5433 33.4203 42.5383 33.4157 42.5342C33.4071 42.5276 33.3966 42.5241 33.3859 42.5241C33.3751 42.5241 33.3646 42.5276 33.3561 42.5342C33.2477 42.686 33.1338 42.8323 33.0146 42.9732C33.0396 42.7181 32.9681 42.4628 32.8141 42.2578H32.6298C32.7454 42.5189 32.8449 42.7868 32.9279 43.06C32.8303 43.1738 32.7273 43.2822 32.6298 43.3906L32.5593 43.4665C32.6623 43.0708 32.4563 42.7293 32.142 42.2957H32.039C32.1257 42.6318 32.3805 43.0925 32.4834 43.5369L32.0498 43.9759C32.1908 43.4773 31.8439 43.0383 31.3615 42.415C31.3615 42.789 31.8168 43.4339 31.9902 44.041L31.8385 44.1927L31.5404 44.4746C31.6759 43.9326 31.3073 43.461 30.7816 42.7944C30.7816 43.1955 31.2748 43.8784 31.4645 44.545L30.9225 45.0166C31.0363 44.4746 30.6732 43.9326 30.18 43.228C30.18 43.6562 30.619 44.415 30.7978 45.125L30.3697 45.4881C30.4943 44.9027 30.1041 44.3282 29.5675 43.5423C29.5675 44.0085 30.0445 44.8323 30.2342 45.6019L30.1203 45.6941C29.9252 45.8567 29.7247 46.0138 29.5241 46.171C29.6813 45.5694 29.3073 44.8919 28.7925 43.9705C28.7545 44.4692 29.199 45.4447 29.3344 46.3065C29.1068 46.48 28.8792 46.6426 28.6461 46.8106C28.9063 46.1277 28.4835 45.3634 27.8982 44.3011C27.8494 44.8431 28.3589 45.9596 28.5052 46.9081L28.2992 47.0491L27.6543 47.4664C27.9524 46.7781 27.5892 45.9651 27.0581 44.8594C27.031 44.8973 27.0039 44.9353 26.9822 44.9732C27.0201 45.6236 27.3995 46.6642 27.4808 47.5694C27.2423 47.7211 26.993 47.862 26.7491 47.9975C27.031 47.423 26.8684 46.7726 26.5215 45.9596C26.4418 46.1898 26.3784 46.4252 26.3318 46.6642C26.4717 47.1343 26.575 47.6145 26.6407 48.1005Z" fill="#263238"/>
        <path d="M40.4884 44.3442C39.67 43.8022 38.8624 42.8646 38.3204 42.664C39.0629 43.683 39.5941 44.4038 40.3637 44.4038C40.0981 44.5393 39.8217 44.6802 39.5832 44.8266C38.8353 44.3442 38.0982 43.4662 37.6049 43.2819C38.2879 44.2195 38.7757 44.8808 39.4803 44.9079C39.258 45.0325 39.0412 45.1626 38.8244 45.2927L38.6673 45.3903C38.0115 44.9025 37.4261 44.0515 36.9817 43.8401C37.5237 44.7615 37.9085 45.3957 38.6076 45.4174C38.3963 45.542 38.1903 45.6775 37.9843 45.813C37.3881 45.3632 36.8462 44.5773 36.4397 44.3876C36.9383 45.2277 37.2852 45.813 37.9518 45.8347L37.3014 46.2737C36.7865 45.8293 36.3421 45.0976 35.9844 44.9025C36.3855 45.6884 36.6673 46.2412 37.2581 46.3062L36.9058 46.5555L36.7107 46.7019C36.2337 46.2954 35.8218 45.6179 35.4912 45.439C35.8651 46.1653 36.1253 46.6694 36.6673 46.7344C36.483 46.8699 36.3042 47.0054 36.1253 47.1463C35.6809 46.8103 35.3069 46.2412 34.998 46.0948C35.3394 46.7127 35.5725 47.1409 36.0819 47.1788L35.9844 47.2547L35.5996 47.5799C35.1985 47.2656 34.857 46.7507 34.5752 46.6152C34.8841 47.1572 35.1172 47.5691 35.567 47.607C35.4207 47.7371 35.2744 47.878 35.1335 48.0244C35.1289 48.0279 35.1253 48.0324 35.1228 48.0376C35.1203 48.0428 35.119 48.0484 35.119 48.0542C35.119 48.0599 35.1203 48.0656 35.1228 48.0707C35.1253 48.0759 35.1289 48.0804 35.1335 48.084C35.1415 48.0916 35.1522 48.0958 35.1633 48.0958C35.1743 48.0958 35.185 48.0916 35.1931 48.084C35.3206 47.9492 35.4564 47.8225 35.5996 47.7046C35.4641 48.0731 35.6592 48.4471 35.9193 48.9566C35.8748 48.5077 35.8005 48.0623 35.6971 47.6233C35.8109 47.5257 35.9248 47.439 36.044 47.3469L36.1253 47.2818C35.941 47.6992 36.1524 48.1165 36.4505 48.7018C36.3975 48.2044 36.3161 47.7104 36.2066 47.2222C36.3746 47.0921 36.5372 46.9729 36.7107 46.8536C36.4939 47.3198 36.7649 47.813 37.1442 48.4796C37.1822 48.1111 36.8516 47.3956 36.7811 46.7778L36.9546 46.6531L37.2906 46.4255C37.0738 46.9295 37.3611 47.4607 37.773 48.2032C37.8109 47.8021 37.4586 47.0379 37.3773 46.3658L37.9681 45.9865C37.7675 46.5013 38.0385 47.0704 38.4125 47.8672C38.4776 47.4444 38.1686 46.626 38.1036 45.8997L38.586 45.607C38.3692 46.149 38.6618 46.794 39.0738 47.6558C39.1442 47.1951 38.8028 46.3008 38.7377 45.5149L38.8624 45.4445L39.529 45.0651C39.2797 45.6341 39.529 46.3604 39.8976 47.3577C40.0168 46.8699 39.735 45.8347 39.7242 44.9621C39.9789 44.8266 40.2282 44.6965 40.4884 44.5718C40.1198 45.206 40.4125 46.0244 40.8298 47.168C40.9599 46.626 40.6347 45.4607 40.6401 44.5014L40.8623 44.393L41.5724 44.0786C41.1496 44.7399 41.4152 45.6504 41.7946 46.9133C41.968 46.3279 41.6862 45.0488 41.7566 44.0027C42.0168 43.8943 42.2986 43.7968 42.5479 43.6992C42.0385 44.4201 42.3312 45.4228 42.7485 46.8211C42.9436 46.187 42.6292 44.7778 42.7105 43.645L42.9544 43.5583C42.9723 43.5529 42.9888 43.5438 43.003 43.5317C43.0172 43.5195 43.0287 43.5046 43.0369 43.4878C43.045 43.471 43.0496 43.4527 43.0503 43.4341C43.0511 43.4154 43.0479 43.3968 43.0412 43.3794C43.0277 43.3451 43.0019 43.3171 42.9687 43.3011C42.9356 43.285 42.8976 43.282 42.8623 43.2927L42.5967 43.3903C41.9692 42.9905 41.3681 42.5506 40.7973 42.0732H40.3637C41.0683 42.9133 41.6482 43.477 42.3691 43.4879C42.0927 43.5908 41.8271 43.7101 41.5507 43.8293C40.6347 43.2873 39.7079 42.328 39.1171 42.1437C39.9626 43.1735 40.5697 43.9052 41.3664 43.9106L40.7594 44.1924L40.4884 44.3442Z" fill="#263238"/>
        <path d="M33.7194 54.4793C33.1232 53.8289 32.7058 53.3953 32.1205 53.4657L32.3915 53.1351L32.5432 52.94C33.0852 53.2056 33.6814 53.7476 34.05 53.8289C33.508 53.2327 33.1123 52.8099 32.5704 52.8966C32.7113 52.7178 32.8468 52.5389 32.9823 52.3547C33.4972 52.5606 34.0121 53.0105 34.3481 53.0701C33.8549 52.566 33.5134 52.2137 32.9985 52.3275C33.0268 52.2955 33.0522 52.2611 33.0744 52.2246C33.172 52.0891 33.2641 51.9536 33.3562 51.8127C33.7599 52.0531 34.176 52.272 34.6028 52.4685C34.153 52.0078 33.844 51.688 33.3833 51.7801C33.4917 51.6121 33.5947 51.4387 33.6869 51.2381C33.6919 51.2274 33.6924 51.215 33.6884 51.2038C33.6843 51.1927 33.676 51.1835 33.6652 51.1785C33.6544 51.1735 33.6421 51.1729 33.6309 51.177C33.6197 51.1811 33.6106 51.1894 33.6056 51.2002C33.5183 51.3636 33.4206 51.5211 33.3129 51.6717C33.3454 51.2815 33.0581 50.9726 32.6679 50.5498C32.8321 50.9721 33.0241 51.3831 33.2424 51.7801L32.9823 52.1378L32.9172 52.2192C32.9877 51.7693 32.6679 51.4224 32.2289 50.94C32.4103 51.4078 32.6203 51.8639 32.8576 52.3059L32.4728 52.7937C32.5541 52.2788 32.1639 51.8831 31.611 51.314C31.6761 51.6826 32.153 52.2788 32.4186 52.8587L32.2831 53.0267L32.0175 53.3357C32.0934 52.7937 31.6761 52.3601 31.0799 51.753C31.1503 52.1487 31.6923 52.7937 31.9525 53.417L31.4864 53.959C31.5406 53.417 31.1232 52.9237 30.5487 52.2625C30.6029 52.6907 31.1232 53.3953 31.378 54.0782L30.9931 54.4901C31.0528 53.8939 30.5975 53.3682 29.9742 52.6473C30.0284 53.108 30.5921 53.8777 30.8685 54.6148L30.7655 54.7232C30.5921 54.9074 30.4078 55.0863 30.2235 55.2652C30.3156 54.6527 29.8712 54.024 29.2588 53.1622C29.2588 53.6609 29.8007 54.5822 30.0663 55.4223C29.8604 55.6175 29.649 55.8126 29.4376 55.9969C29.6219 55.2923 29.1178 54.5823 28.4132 53.5904C28.4132 54.1324 29.0582 55.1839 29.3075 56.1107L29.1178 56.2733C28.9227 56.4413 28.7222 56.6039 28.5216 56.7665C28.7547 56.0131 28.2506 55.211 27.5515 54.0945C27.5515 54.7015 28.1531 55.8614 28.3645 56.8857C28.144 57.0592 27.9164 57.2272 27.6815 57.3898C27.7534 57.1354 27.7722 56.8689 27.7367 56.6069C27.7013 56.3449 27.6124 56.093 27.4756 55.8668C27.5406 56.5118 27.5948 57.1405 27.6382 57.7583L27.7141 57.7041C28.8252 57.9806 30.0826 58.7394 30.7547 58.7556C29.584 57.9318 28.7384 57.3464 27.9092 57.5632C28.1477 57.3844 28.3807 57.2001 28.6084 57.0212C29.6327 57.276 30.7763 57.9751 31.4051 57.9914C30.3211 57.2272 29.5352 56.6798 28.7655 56.9074C28.939 56.7611 29.107 56.6202 29.275 56.4684L29.5514 56.2137C30.4837 56.5009 31.5135 57.2109 32.0825 57.2543C31.0961 56.4738 30.3915 55.921 29.649 56.1269C29.8658 55.9264 30.0772 55.7204 30.2885 55.5091C31.1395 55.7746 32.088 56.425 32.6083 56.4684C31.6977 55.7475 31.0528 55.2381 30.3698 55.4278C30.5487 55.2435 30.7276 55.0646 30.9118 54.8858L31.0365 54.7503C31.7953 55.0484 32.592 55.7096 33.0744 55.7963C32.3048 55.0592 31.7682 54.5443 31.069 54.7123C31.2316 54.5335 31.3996 54.3492 31.5568 54.1703C32.256 54.4467 32.9877 55.0538 33.4321 55.1297C32.7275 54.4522 32.2343 53.9861 31.5893 54.1378C31.7628 53.9427 31.9308 53.7422 32.0934 53.5416C32.7004 53.8018 33.3237 54.3871 33.7194 54.4793Z" fill="#263238"/>
        <path d="M43.156 54.084C42.7658 54.2575 42.24 54.9567 41.6601 55.4011L41.1561 55.1518C41.7468 55.038 42.1154 54.4526 42.6249 53.645C42.1967 53.8293 41.6276 54.5935 40.9989 55.0759L40.8688 55.0054C40.6412 54.8916 40.4189 54.767 40.1967 54.6477C40.8092 54.5556 41.2807 53.9431 41.9257 53.103C41.4487 53.2656 40.7333 54.0624 40.0016 54.5393C39.7523 54.3984 39.5084 54.2575 39.2645 54.1057C39.9908 54.0786 40.5273 53.3849 41.2699 52.4201C40.7279 52.6044 39.9311 53.5041 39.1019 54.0136L38.8905 53.8835L38.251 53.4553C39.0314 53.4553 39.6547 52.7453 40.5165 51.748C39.9311 51.9106 39.0043 52.832 38.0884 53.3415C37.8535 53.1789 37.6259 53.0109 37.4054 52.8375C38.2835 52.8808 38.9718 52.0949 39.9311 50.9893C39.2862 51.1627 38.2672 52.1871 37.2645 52.7291L37.064 52.5665C37.0368 52.5409 37.001 52.5267 36.9637 52.5267C36.9265 52.5267 36.8906 52.5409 36.8635 52.5665C36.8383 52.5927 36.8242 52.6277 36.8242 52.664C36.8242 52.7004 36.8383 52.7353 36.8635 52.7616L37.0857 52.935C37.1507 54.0786 36.7876 55.5041 36.9664 56.1545C37.4109 54.7886 37.7306 53.8076 37.2808 53.0814C37.5193 53.2548 37.7632 53.4228 38.0071 53.5854C38.0613 54.6694 37.7306 55.9485 37.8987 56.5447C38.3106 55.2819 38.6033 54.3767 38.1751 53.6992L38.7171 54.057L39.0423 54.2521C39.0423 55.2222 38.6629 56.4201 38.7821 56.9621C39.2428 55.7913 39.568 54.9567 39.1561 54.3117C39.4108 54.458 39.6981 54.5989 39.9311 54.7399C39.9311 55.6342 39.5843 56.7236 39.6927 57.2385C40.1154 56.1545 40.4135 55.3903 40.0341 54.7941L40.717 55.1409L40.8796 55.2222C40.82 56.0298 40.4189 56.9891 40.4786 57.4715C40.9609 56.523 41.2916 55.8455 40.923 55.2385L41.5897 55.5474C41.53 56.2954 41.1615 57.1734 41.2211 57.6233C41.6601 56.7452 41.9636 56.1382 41.6276 55.5691C41.8661 55.6775 42.1045 55.7805 42.3484 55.8781C42.2509 56.5501 41.8715 57.3198 41.8986 57.7263C42.3484 56.962 42.6574 56.4309 42.3972 55.8997L42.7983 56.0623L43.0259 56.1491C42.9392 56.7724 42.5923 57.4769 42.614 57.8509C43.0259 57.1518 43.3132 56.6585 43.0747 56.1653C43.2861 56.2466 43.4975 56.3279 43.7143 56.3984C43.6709 56.9404 43.3891 57.5745 43.4324 57.916C43.7685 57.2981 43.9744 56.8645 43.7468 56.4092L43.866 56.4526C44.0232 56.5014 44.1804 56.5555 44.343 56.5989C44.2324 57.0548 44.1456 57.5161 44.0828 57.981C44.3863 57.439 44.6248 57.0271 44.3809 56.6098C44.5726 56.6701 44.7682 56.7172 44.9663 56.7507C44.977 56.7523 44.988 56.7499 44.997 56.7439C45.006 56.7379 45.0125 56.7287 45.0151 56.7181C45.017 56.7067 45.0147 56.695 45.0088 56.6851C45.0028 56.6751 44.9935 56.6677 44.9825 56.664C44.7983 56.626 44.6194 56.5772 44.4406 56.523C44.8199 56.4363 45.0313 56.0786 45.3186 55.58C45.0476 55.6992 44.7061 56.1816 44.3159 56.4851L43.8986 56.3442L43.801 56.3062C44.2509 56.2412 44.4893 55.8347 44.8199 55.271C44.511 55.4065 44.137 55.9431 43.698 56.2683C43.5083 56.1978 43.3132 56.1274 43.1235 56.0461C43.633 55.9756 43.904 55.5041 44.2779 54.7941C43.9473 54.9621 43.5246 55.6179 43.0422 56.0136L42.8417 55.9323L42.4677 55.7697C43.0097 55.6884 43.3024 55.1572 43.7089 54.4147C43.3511 54.5935 42.8959 55.2981 42.3755 55.7317C42.1587 55.6396 41.9474 55.542 41.736 55.439C42.3484 55.3632 42.6899 54.8266 43.156 54.084Z" fill="#263238"/>
        <path d="M40.0285 61.3083C40.4447 61.5216 40.8716 61.7134 41.3076 61.8828C40.836 61.4546 40.5 61.1565 40.0501 61.2703C40.1477 61.0969 40.2398 60.9234 40.3211 60.7283C40.3236 60.723 40.325 60.7172 40.3253 60.7113C40.3256 60.7054 40.3247 60.6996 40.3226 60.694C40.3206 60.6885 40.3175 60.6834 40.3136 60.6791C40.3096 60.6747 40.3048 60.6712 40.2995 60.6687C40.2941 60.6662 40.2883 60.6648 40.2825 60.6645C40.2766 60.6643 40.2707 60.6652 40.2652 60.6672C40.2596 60.6692 40.2545 60.6723 40.2502 60.6763C40.2459 60.6803 40.2423 60.685 40.2398 60.6904C40.1585 60.8584 40.0718 61.021 39.9797 61.1836C39.9797 60.7934 39.6762 60.5007 39.2642 60.0996C39.453 60.509 39.6685 60.9055 39.9092 61.2866L39.6762 61.6606L39.6165 61.7473C39.6545 61.292 39.3184 60.9668 38.8469 60.5169C39.0584 60.9691 39.2955 61.4088 39.5569 61.834L39.2101 62.3489C39.2588 61.834 38.8415 61.4546 38.2561 60.9289C38.3429 61.292 38.8849 61.8557 39.1558 62.4194L39.0312 62.5928C38.9553 62.7012 38.8686 62.8096 38.7873 62.918C38.8307 62.376 38.3862 61.9641 37.7521 61.4004C37.8496 61.7906 38.4296 62.3977 38.7277 63.0264C38.5868 63.2161 38.4404 63.4004 38.2941 63.5684C38.2941 63.0264 37.8713 62.5603 37.2534 61.9424C37.3347 62.3597 37.8984 63.0264 38.1911 63.6985C38.0755 63.8466 37.9562 63.9929 37.8334 64.1375C37.8334 63.5359 37.3727 63.0535 36.706 62.3597C36.7873 62.815 37.3998 63.5467 37.725 64.2676L37.6274 64.3814C37.4594 64.5765 37.2914 64.7662 37.1179 64.9505C37.1721 64.338 36.6844 63.731 36.034 62.9126C36.0773 63.4112 36.6898 64.2947 36.9824 65.1185C36.7873 65.3244 36.5922 65.5304 36.3917 65.7309C36.5272 65.0209 35.9798 64.338 35.2155 63.3949C35.2697 63.9369 35.9635 64.945 36.267 65.8556L36.0936 66.029L35.5245 66.571C35.7088 65.8068 35.1559 65.0372 34.3917 63.9695C34.3917 64.5765 35.1017 65.6984 35.3781 66.6794C35.1668 66.8691 34.95 67.0534 34.7277 67.2214C34.9716 66.3759 34.37 65.525 33.5137 64.338C33.5137 65.0047 34.2941 66.2296 34.5977 67.3298L34.3917 67.4924C34.3771 67.5038 34.3649 67.518 34.3558 67.5341C34.3467 67.5502 34.3408 67.5679 34.3385 67.5863C34.3363 67.6047 34.3376 67.6233 34.3426 67.6411C34.3475 67.659 34.3559 67.6757 34.3673 67.6903C34.3787 67.7049 34.3929 67.7171 34.409 67.7262C34.4251 67.7353 34.4428 67.7412 34.4612 67.7434C34.4796 67.7457 34.4982 67.7443 34.516 67.7394C34.5339 67.7344 34.5506 67.726 34.5651 67.7147L34.7819 67.5358C35.9093 67.7363 37.2155 68.4192 37.8876 68.3921C36.6627 67.6442 35.7846 67.1076 34.9716 67.3786C35.1939 67.1889 35.4161 66.9884 35.6329 66.7878C36.6681 66.9775 37.8659 67.6008 38.4838 67.5792C37.351 66.8854 36.5326 66.3922 35.7738 66.6523C35.9364 66.4952 36.099 66.3434 36.2562 66.1808L36.5217 65.9098C37.4648 66.1374 38.538 66.777 39.1071 66.7878C38.0719 66.0724 37.3402 65.5629 36.6085 65.8177C36.8144 65.6009 37.0095 65.3841 37.2047 65.1618C38.0773 65.3678 39.0583 65.9586 39.584 65.9694C38.6301 65.3082 37.958 64.8421 37.286 65.0697C37.454 64.88 37.6166 64.6849 37.7792 64.4898L37.893 64.3434C38.6735 64.5928 39.519 65.2052 39.9959 65.2594C39.1775 64.5711 38.6139 64.0941 37.9255 64.3109L38.3808 63.7364C39.0962 63.964 39.8604 64.5223 40.3103 64.5711C39.5623 63.9424 39.042 63.4871 38.4079 63.6985C38.5651 63.4925 38.7223 63.2811 38.874 63.0697C39.5081 63.3191 40.1694 63.8665 40.5705 63.9315C39.9309 63.3245 39.4865 62.8963 38.9065 63.0264C38.9932 62.9126 39.0745 62.7933 39.1558 62.6795C39.2371 62.5657 39.248 62.5386 39.2968 62.4736C39.8767 62.7012 40.4837 63.2052 40.8577 63.2649C40.2669 62.7229 39.855 62.311 39.3239 62.4302C39.4539 62.2423 39.5786 62.0526 39.6978 61.8611C40.2398 62.0345 40.7818 62.4519 41.107 62.4898C40.565 62.0183 40.2182 61.6877 39.7141 61.834L39.7846 61.7256L40.0285 61.3083Z" fill="#263238"/>
        <path d="M43.3124 67.3566C43.428 67.2085 43.5473 67.0676 43.6701 66.9339C43.5888 67.3133 43.8219 67.6602 44.1471 68.1371C44.044 67.6964 43.9155 67.2621 43.7623 66.8363L44.0712 66.522L44.1417 66.4461C44.0116 66.8851 44.2717 67.2753 44.6403 67.8119C44.5268 67.3255 44.3857 66.8459 44.2175 66.3756L44.6674 65.9474C44.5156 66.4407 44.8408 66.8959 45.307 67.5355C45.307 67.1615 44.8842 66.4949 44.7324 65.9095L44.895 65.7686L45.1986 65.4976C45.0414 66.0396 45.3937 66.5165 45.8923 67.2049C45.8923 66.7984 45.4424 66.0829 45.2744 65.4325C45.4533 65.2754 45.6321 65.129 45.8164 64.9773C45.6809 65.5193 46.0224 66.0613 46.4885 66.793C46.4885 66.3648 46.0928 65.5843 45.9465 64.8743L46.3909 64.5274C46.2392 65.1074 46.6132 65.6927 47.1226 66.5003C47.1226 66.0342 46.689 65.1887 46.5264 64.419L46.6457 64.3269L47.2581 63.877C47.0793 64.4678 47.4262 65.1561 47.9085 66.0992C47.9627 65.6006 47.5562 64.6087 47.4424 63.7469C47.6755 63.5843 47.9085 63.4217 48.147 63.2646C47.8598 63.9366 48.2554 64.7171 48.8082 65.8011C48.8733 65.2591 48.4017 64.1263 48.2662 63.1724L48.4722 63.0423C48.6944 62.9068 48.9166 62.7713 49.1389 62.6467C48.7974 63.3513 49.1768 64.2185 49.6809 65.4271C49.7838 64.8255 49.3502 63.5898 49.2906 62.5491C49.5345 62.4082 49.7838 62.2727 50.0386 62.1481C49.6212 62.9231 50.0386 63.8824 50.6239 65.2212C50.7378 64.5654 50.2554 63.2049 50.1958 62.0722L50.4234 61.9584C50.44 61.9508 50.4549 61.94 50.4673 61.9265C50.4796 61.9131 50.4891 61.8973 50.4952 61.8801C50.5012 61.8629 50.5038 61.8446 50.5026 61.8264C50.5015 61.8082 50.4966 61.7904 50.4884 61.7741C50.4803 61.7573 50.469 61.7422 50.455 61.7298C50.4411 61.7175 50.4248 61.708 50.4072 61.7019C50.3895 61.6959 50.3709 61.6934 50.3522 61.6946C50.3336 61.6958 50.3154 61.7007 50.2987 61.709L50.0494 61.8391C48.9925 61.4055 47.8543 60.4625 47.1931 60.3486C48.2337 61.3351 48.9817 62.0451 49.8326 61.9746C49.5725 62.1101 49.3177 62.2619 49.063 62.4082C48.0874 62.0071 47.0468 61.1454 46.4397 61.0424C47.4045 61.9584 48.0982 62.6088 48.8895 62.5166L48.3205 62.8743L48.0061 63.0857C47.1281 62.6629 46.2121 61.812 45.6593 61.6819C46.521 62.6033 47.1335 63.2537 47.8977 63.1562C47.6538 63.3242 47.4153 63.4976 47.1768 63.6982C46.3693 63.3133 45.5509 62.5329 45.0089 62.4136C45.8056 63.2591 46.3693 63.8553 47.0684 63.774C46.8679 63.9258 46.6619 64.0776 46.4668 64.2347L46.3205 64.354C45.6159 63.9475 44.9276 63.1724 44.4614 63.0207C45.1118 63.8662 45.5454 64.4461 46.288 64.3811L45.7189 64.8472C45.0685 64.4786 44.4343 63.7632 44.0062 63.6223C44.6078 64.3973 45.0251 64.9339 45.6864 64.8797C45.4858 65.0477 45.2907 65.2157 45.0956 65.4217C44.5536 65.0423 44.0116 64.3702 43.6214 64.2239C44.1146 64.9556 44.4669 65.4651 45.0576 65.4596L44.7379 65.7469L44.559 65.9203C44.017 65.5681 43.5509 64.9502 43.1986 64.8364C43.6593 65.5084 43.9791 65.98 44.5265 65.9745C44.3585 66.1317 44.1959 66.2889 44.0387 66.4515C43.5617 66.1751 43.1173 65.6548 42.7921 65.5464C43.204 66.0884 43.4913 66.5111 44.017 66.4786L43.9303 66.5653C43.8165 66.6846 43.6972 66.8092 43.5888 66.9339C43.1498 66.6737 42.7487 66.2022 42.4561 66.1046C42.83 66.6195 43.0902 66.9827 43.54 66.9664C43.4049 67.1126 43.2782 67.2664 43.1607 67.4271C43.156 67.4312 43.1523 67.4362 43.1498 67.4418C43.1473 67.4474 43.146 67.4535 43.146 67.4596C43.146 67.4658 43.1473 67.4718 43.1498 67.4775C43.1523 67.4831 43.156 67.4881 43.1607 67.4921C43.1642 67.4966 43.1687 67.5003 43.1739 67.5028C43.1791 67.5053 43.1847 67.5066 43.1905 67.5066C43.1962 67.5066 43.2019 67.5053 43.207 67.5028C43.2122 67.5003 43.2167 67.4966 43.2203 67.4921L43.3124 67.3566Z" fill="#263238"/>
        <path d="M36.9608 75.0807C37.1775 74.8783 37.3889 74.6724 37.5949 74.4628C38.4512 74.7284 39.3943 75.3788 39.9201 75.4221C39.0095 74.7013 38.3645 74.1918 37.6816 74.3761C37.8605 74.1972 38.0393 74.0129 38.2236 73.8341L38.3483 73.6986C39.1071 73.9967 39.8984 74.6579 40.3862 74.7446C39.6165 74.0021 39.08 73.4926 38.3754 73.6606C38.5434 73.4818 38.706 73.2975 38.8686 73.1186C39.5678 73.3951 40.2994 74.0021 40.7439 74.078C40.0339 73.4005 39.5407 72.9289 38.9011 73.0861L39.4052 72.4899C40.023 72.7772 40.6463 73.3625 41.0311 73.4547C40.4349 72.8097 40.0122 72.3707 39.4052 72.4466L39.6762 72.1159L39.8279 71.9208C40.397 72.1864 40.9715 72.723 41.3401 72.8097C40.7981 72.2081 40.4024 71.7907 39.8604 71.8775C40.0014 71.6986 40.1368 71.5197 40.2669 71.3355C40.8089 71.5414 41.2967 71.9913 41.6328 72.0509C41.145 71.5468 40.8035 71.1945 40.2886 71.3084L40.3645 71.2054C40.4566 71.0699 40.5542 70.9344 40.6463 70.7935C41.0488 71.0311 41.463 71.2482 41.8875 71.4439C41.4431 70.9886 41.1287 70.6688 40.668 70.7555C40.7787 70.5897 40.88 70.4178 40.9715 70.2406C40.9744 70.2357 40.9762 70.2302 40.9769 70.2245C40.9777 70.2188 40.9773 70.213 40.9757 70.2075C40.9742 70.2019 40.9716 70.1967 40.9681 70.1922C40.9646 70.1877 40.9602 70.1839 40.9553 70.181C40.9503 70.1782 40.9448 70.1763 40.9391 70.1756C40.9334 70.1749 40.9276 70.1753 40.9221 70.1768C40.9165 70.1783 40.9114 70.1809 40.9068 70.1844C40.9023 70.1879 40.8985 70.1923 40.8956 70.1973C40.8053 70.3599 40.7077 70.5171 40.603 70.6688C40.603 70.2786 40.3482 69.9696 39.958 69.5469C40.1146 69.9672 40.2955 70.378 40.5 70.7772L40.2452 71.1349L40.1802 71.2162C40.2507 70.7664 39.9309 70.4195 39.4865 69.9371C39.6716 70.4015 39.8815 70.8556 40.1152 71.2975C39.9905 71.4655 39.8659 71.6281 39.7358 71.7853C39.8171 71.2758 39.4268 70.8748 38.874 70.3111C38.939 70.6796 39.4431 71.2758 39.6816 71.8558C39.6328 71.91 39.5894 71.9696 39.5461 72.0238L39.2805 72.3327C39.3564 71.7907 38.939 71.3571 38.3428 70.7501C38.4133 71.1458 38.9553 71.7853 39.2155 72.414L38.7493 72.956C38.8035 72.414 38.3862 71.9208 37.8117 71.2596C37.8605 71.6823 38.3537 72.3924 38.6355 73.0753L38.2507 73.4872C38.3103 72.8856 37.8605 72.3653 37.2372 71.6444C37.2914 72.1051 37.855 72.8747 38.1315 73.6118L38.0285 73.7202L37.4865 74.2622C37.5786 73.6498 37.1288 73.0157 36.5163 72.1593C36.5163 72.6579 37.0854 73.5793 37.3239 74.4194L36.7006 74.9939C36.8795 74.2893 36.3808 73.5793 35.6708 72.5875C35.6708 73.1295 36.3212 74.1809 36.5705 75.1078L36.3808 75.2704C36.1857 75.4384 35.9852 75.601 35.7846 75.7581C36.0177 75.0102 35.5136 74.208 34.8145 73.0915C34.8145 73.6931 35.3998 74.8313 35.6166 75.8449H36.0339C36.202 75.704 36.37 75.563 36.5326 75.4167C36.6952 75.2704 36.7223 75.2487 36.8144 75.162C37.4552 75.4035 38.0814 75.6822 38.6897 75.9966H39.1016C38.2886 75.3517 37.6382 74.891 36.9608 75.0807Z" fill="#263238"/>
        <path d="M33.9639 73.4111C33.9639 73.9531 34.3704 74.842 34.6576 75.7471L35.0695 75.7797C35.0208 75.1076 34.5601 74.365 33.9639 73.4111Z" fill="#263238"/>
        <path d="M36.1143 75.8558L36.9327 75.9046C36.67 75.811 36.3862 75.7941 36.1143 75.8558Z" fill="#263238"/>
        <path d="M51.8872 74.7175C51.9039 74.686 51.9184 74.6534 51.9306 74.6199L51.7354 74.5494L51.6379 74.5169C51.7906 74.4914 51.9332 74.4238 52.0498 74.3218C52.0986 74.1809 52.1473 74.0291 52.1907 73.8611C51.9881 74.0834 51.7689 74.29 51.5349 74.479L50.9441 74.2676C51.4536 74.1917 51.7246 73.7256 52.0986 73.0102C51.768 73.1782 51.3452 73.834 50.8628 74.2351L50.6623 74.1538L50.2883 73.9912C50.8303 73.9045 51.123 73.3787 51.5295 72.6308C51.1718 72.8151 50.7165 73.5197 50.1962 73.9532L49.5566 73.6606C50.0986 73.5468 50.4346 73.0102 50.9008 72.2676C50.5105 72.4411 49.9848 73.1457 49.4048 73.5901L48.9008 73.3408C49.4916 73.2216 49.8601 72.6362 50.3696 71.8286C49.9414 72.0183 49.3723 72.7825 48.7436 73.2595L48.6135 73.1945L47.9415 72.8313C48.5539 72.7392 49.0254 72.1267 49.6704 71.292C49.1935 71.4546 48.478 72.2514 47.7463 72.7229C47.497 72.5874 47.2531 72.4411 47.0092 72.2947C47.7355 72.2622 48.2721 71.5739 49.0146 70.6091C48.4726 70.788 47.6759 71.6931 46.8466 72.2026L46.6352 72.0725C46.4185 71.9316 46.2071 71.7907 45.9957 71.6389C46.7762 71.6389 47.3995 70.9289 48.2612 69.9371C47.6759 70.0997 46.7491 71.0211 45.8331 71.5305L45.1448 71.0211C46.0282 71.0644 46.7165 70.2785 47.6759 69.1729C47.0309 69.3517 46.012 70.3707 45.0093 70.9127L44.8087 70.7555C44.7941 70.7441 44.7774 70.7357 44.7596 70.7308C44.7418 70.7258 44.7231 70.7244 44.7048 70.7267C44.6677 70.7313 44.6339 70.7504 44.6109 70.7799C44.5879 70.8093 44.5775 70.8467 44.5821 70.8838C44.5867 70.9209 44.6058 70.9547 44.6353 70.9777L44.8575 71.1457C44.9225 72.2893 44.5594 73.7202 44.7383 74.3652C45.1827 73.0048 45.5025 72.0237 45.0526 71.292C45.2911 71.4709 45.535 71.6389 45.7789 71.8015C45.8331 72.853 45.5025 74.1646 45.6705 74.7608C46.0824 73.4926 46.3751 72.5928 45.9469 71.9153C46.1366 72.0346 46.3209 72.1592 46.4889 72.2731L46.8141 72.4682C46.8141 73.4384 46.4347 74.6362 46.5539 75.1782C47.0146 74.002 47.3398 73.1728 46.9279 72.5224C47.1827 72.6741 47.4699 72.8151 47.703 72.9506C47.703 73.8449 47.3561 74.9397 47.4645 75.4492C47.8873 74.3652 48.1854 73.6064 47.806 73.0102L48.4889 73.3516L48.6515 73.4329C48.5919 74.2459 48.1908 75.1998 48.2504 75.6876C48.7328 74.7337 49.0634 74.0617 48.6948 73.4546L49.3615 73.7636C49.3073 74.4898 48.9604 75.3299 48.9875 75.7906H49.0146C49.4428 74.9451 49.73 74.3489 49.3994 73.7852L50.1203 74.0996C50.039 74.6416 49.7788 75.2486 49.6975 75.6768L49.8439 75.6497C50.1907 75.0427 50.3859 74.5657 50.1691 74.1213L50.5647 74.2785L50.7978 74.3706C50.7229 74.753 50.6214 75.1297 50.4943 75.4979L50.7436 75.4221C50.843 75.2706 50.9044 75.0974 50.9223 74.9171C50.9402 74.7368 50.9143 74.5549 50.8466 74.3868L51.4861 74.6199C51.4672 74.8032 51.4327 74.9845 51.3831 75.1619C51.4658 75.1206 51.5455 75.0735 51.6216 75.021C51.6241 74.8822 51.5885 74.7453 51.5186 74.6253L51.6379 74.6633L51.8872 74.7175Z" fill="#263238"/>
        <path d="M31.0312 63.427C31.0663 63.4157 31.0959 63.3915 31.114 63.3594C31.1321 63.3272 31.1373 63.2894 31.1287 63.2535C31.1186 63.2176 31.0947 63.1872 31.0622 63.1689C31.0297 63.1506 30.9912 63.146 30.9553 63.156L30.6843 63.2373C29.725 62.614 28.7873 61.4758 28.1586 61.2373C28.9933 62.4026 29.5949 63.2373 30.4512 63.3077C30.1694 63.3944 29.9092 63.492 29.6111 63.595C28.9608 63.1668 28.3212 62.511 27.7955 62.0774C27.7955 62.2021 27.7955 62.3213 27.7955 62.446C28.3375 63.1505 28.809 63.6221 29.4214 63.6654C29.2101 63.7413 29.0041 63.8226 28.7982 63.9093L28.4459 64.0557C28.2145 63.8813 27.9953 63.6911 27.79 63.4866C27.79 63.6383 27.79 63.7847 27.79 63.9364C27.9553 64.0344 28.1406 64.0937 28.332 64.1099L27.79 64.3646C27.79 64.4405 27.79 64.5164 27.79 64.5923L28.5217 64.2779C28.1152 64.8849 28.3591 65.725 28.6952 66.8903C28.8632 66.3483 28.6085 65.1722 28.6952 64.2129L28.9228 64.1207L29.6491 63.8551C29.183 64.4893 29.3889 65.4161 29.687 66.6952C29.8984 66.1261 29.687 64.8307 29.8334 63.7955C30.1044 63.7034 30.3754 63.6167 30.6464 63.5408C30.1044 64.2291 30.3212 65.2427 30.6464 66.6735C30.8794 66.0502 30.6464 64.6248 30.8144 63.4974L31.0312 63.427Z" fill="#263238"/>
        <path d="M27.6816 66.805C27.6816 66.87 27.7142 66.9296 27.7358 67.0001C27.8051 66.5293 27.8051 66.0509 27.7358 65.5801C27.7196 65.9974 27.7033 66.4093 27.6816 66.805Z" fill="#263238"/>
        <path d="M29.6006 74.7338L29.4001 74.414C29.8391 73.5468 30.7171 72.6525 30.858 72.0997C29.915 72.9398 29.232 73.536 29.3296 74.3002C29.167 74.0509 28.999 73.8124 28.831 73.5685C29.2375 72.7717 30.0396 71.9425 30.1751 71.4493C29.3079 72.2189 28.6955 72.7663 28.7605 73.4709L28.3107 72.853L28.2022 72.7067C28.6196 72.0129 29.4109 71.3409 29.5789 70.8802C28.7171 71.5089 28.121 71.9642 28.1752 72.6742L27.7199 72.0943C28.1101 71.4547 28.8364 70.8368 28.9881 70.4141C28.1968 70.994 27.6494 71.3951 27.6928 72.04L27.3567 71.639V71.8666L27.5519 72.1051C27.4841 72.089 27.4153 72.0781 27.3459 72.0726C27.3459 72.1539 27.3459 72.2297 27.3459 72.311L27.6603 72.2352L28.0017 72.6904C27.7824 72.6257 27.549 72.6257 27.3296 72.6904V73.0265C27.5876 72.9359 27.8522 72.8652 28.121 72.8151L28.2077 72.9289L28.6467 73.5576C28.1985 73.46 27.7303 73.5233 27.3242 73.7365C27.3242 73.8341 27.3242 73.937 27.3242 74.0346C27.8028 73.911 28.2877 73.8133 28.7768 73.7419C28.934 73.9804 29.0857 74.2189 29.232 74.4628C28.7171 74.2243 28.1481 74.4031 27.3622 74.7392C27.3622 74.8096 27.3622 74.8909 27.3622 74.956H27.4814C28.0832 74.8017 28.6929 74.6805 29.3079 74.5929L29.438 74.8042L29.6711 75.2216L29.9746 75.2595C29.8337 75.1132 29.7198 74.9235 29.6006 74.7338Z" fill="#263238"/>
        <path d="M27.4805 69.8127V70.0674C27.6331 69.9249 27.7612 69.7583 27.8599 69.5742L27.4805 69.8127Z" fill="#263238"/>
        <path d="M30.668 75.3846L31.1503 75.4388C31.5571 74.8978 31.8872 74.3032 32.1314 73.6719C31.5676 74.1732 31.0752 74.7495 30.668 75.3846Z" fill="#263238"/>
        <path d="M30.1199 75.3515C30.5697 74.4356 31.3665 73.4925 31.4803 72.918C30.5372 73.861 29.8543 74.544 29.941 75.3299L30.1199 75.3515Z" fill="#263238"/>
        <path d="M27.4099 70.7823C27.4099 70.9287 27.4099 71.0696 27.3828 71.2105C27.7672 70.8455 28.1157 70.4444 28.4234 70.0127C28.053 70.2232 27.7122 70.482 27.4099 70.7823Z" fill="#263238"/>
    </g>
    <path d="M65.0363 57.5302L67.4319 54.9883L70.7544 59.6657C70.7544 59.6657 67.9522 61.6494 65.2694 61.5735L64.9604 60.8852C64.7125 60.3583 64.5903 59.781 64.6035 59.1988C64.6167 58.6166 64.7648 58.0454 65.0363 57.5302Z" fill="#FFB573"/>
    <path d="M71.2959 55.2387L72.2335 57.0002C72.4392 57.3871 72.4834 57.8397 72.3565 58.2592C72.2295 58.6786 71.9418 59.0307 71.556 59.2386L70.7756 59.6668L67.4531 54.9894L69.3555 54.4474C69.7206 54.3358 70.113 54.3536 70.4665 54.4978C70.82 54.642 71.1129 54.9037 71.2959 55.2387Z" fill="#FFB573"/>
    <path d="M52.3972 48.4089L52.6031 49.4441L52.8308 50.5281C52.9934 51.2598 53.1506 51.9969 53.3348 52.6961C53.6871 54.1486 54.1099 55.5741 54.5597 56.9507C55.0085 58.2727 55.5519 59.5605 56.1857 60.8043C56.6925 61.8273 57.3625 62.7609 58.1694 63.5685L57.0204 63.0265C56.6844 62.9832 56.6193 63.0861 56.7982 63.0807C57.0829 63.0501 57.36 62.9694 57.6166 62.8422C58.4288 62.4695 59.2022 62.0174 59.9255 61.4927C60.7331 60.9507 61.5515 60.3111 62.3591 59.6553C63.1666 58.9995 63.985 58.3003 64.7764 57.6553L64.8631 57.5903C65.2024 57.3132 65.6267 57.1613 66.0648 57.1602C66.5028 57.159 66.928 57.3086 67.2687 57.5839C67.6095 57.8592 67.8451 58.2434 67.9361 58.6719C68.027 59.1004 67.9677 59.5472 67.7682 59.9371C67.224 60.9754 66.6177 61.98 65.9525 62.9452C65.2747 63.9228 64.5361 64.8569 63.7411 65.7419C62.8738 66.7185 61.8931 67.5882 60.8198 68.3327C60.1472 68.7865 59.4184 69.1509 58.6518 69.4166C58.1575 69.5892 57.6444 69.702 57.1234 69.7527C56.4768 69.81 55.8252 69.7624 55.1939 69.6118C54.8249 69.523 54.4769 69.3628 54.1695 69.1402L54.0394 69.0427C52.3746 67.7958 50.9728 66.2319 49.9148 64.4411C49.4198 63.6354 48.9754 62.8224 48.5815 62.0021C48.1877 61.1819 47.8263 60.3617 47.4975 59.5415C46.8703 57.9226 46.3383 56.2685 45.9041 54.5876C45.6927 53.753 45.4922 52.9237 45.3241 52.0836C45.2428 51.6609 45.1561 51.2435 45.0857 50.8153C45.0152 50.3872 44.9502 49.9861 44.8797 49.4766C44.7543 48.5028 45.0114 47.5183 45.5968 46.7301C46.1822 45.9419 47.0504 45.4113 48.0189 45.2499C48.9874 45.0885 49.9807 45.3088 50.7901 45.8645C51.5995 46.4203 52.162 47.2682 52.3592 48.23L52.3972 48.4089Z" fill="#FFB573"/>
    <path d="M47.1998 42.7177C50.3542 43.0429 52.8745 45.135 54.636 51.7962C53.281 53.6715 44.7446 57.7852 44.7446 57.7852C44.7446 57.7852 39.9913 41.9752 47.1998 42.7177Z" fill="#BBBBBB"/>
</svg>
