<svg width="288" height="192" viewBox="0 0 288 192" fill="none" xmlns="http://www.w3.org/2000/svg">
<path d="M269.038 180.058C269.038 180.112 213.055 180.158 144.008 180.158C74.9606 180.158 18.9619 180.096 18.9619 180.058C18.9619 180.019 74.9337 179.958 144.008 179.958C213.082 179.958 269.038 180 269.038 180.058Z" fill="#263238"/>
<path d="M158.592 103.008H112.37V180.023H158.592V103.008Z" fill="#36BC6C"/>
<g opacity="0.3">
<path d="M158.592 103.008H112.37V180.023H158.592V103.008Z" fill="black"/>
</g>
<path d="M168.184 103.008H121.962V180.023H168.184V103.008Z" fill="#36BC6C"/>
<path d="M121.82 140.77C121.855 140.816 119.789 142.479 117.212 144.484C114.636 146.488 112.512 148.082 112.477 148.039C112.443 147.997 114.509 146.335 117.085 144.326C119.662 142.318 121.786 140.728 121.82 140.77Z" fill="#36BC6C"/>
<path d="M121.82 136.432C121.855 136.474 119.789 138.137 117.212 140.141C114.636 142.146 112.512 143.743 112.477 143.697C112.443 143.651 114.509 141.992 117.085 139.984C119.662 137.975 121.786 136.386 121.82 136.432Z" fill="#36BC6C"/>
<path d="M121.82 132.096C121.855 132.138 119.789 133.801 117.212 135.809C114.636 137.817 112.512 139.392 112.474 139.357C112.435 139.323 114.505 137.652 117.082 135.644C119.658 133.636 121.786 132.046 121.82 132.096Z" fill="#36BC6C"/>
<path d="M121.82 127.745C121.855 127.791 119.789 129.454 117.212 131.458C114.636 133.463 112.512 135.056 112.474 135.014C112.435 134.972 114.505 133.309 117.082 131.301C119.658 129.292 121.786 127.703 121.82 127.745Z" fill="#36BC6C"/>
<path d="M121.82 123.406C121.855 123.448 119.789 125.111 117.212 127.12C114.636 129.128 112.512 130.718 112.477 130.672C112.443 130.625 114.509 128.967 117.085 126.958C119.662 124.95 121.786 123.36 121.82 123.406Z" fill="#36BC6C"/>
<path d="M121.82 119.063C121.855 119.105 119.789 120.768 117.212 122.776C114.636 124.784 112.512 126.374 112.474 126.336C112.435 126.297 114.505 124.631 117.082 122.622C119.658 120.614 121.786 119.04 121.82 119.063Z" fill="#36BC6C"/>
<path d="M121.82 114.72C121.855 114.766 119.789 116.428 117.212 118.433C114.636 120.437 112.512 122.031 112.477 121.989C112.443 121.946 114.509 120.284 117.085 118.275C119.662 116.267 121.786 114.677 121.82 114.72Z" fill="#36BC6C"/>
<path d="M121.82 110.381C121.855 110.423 119.789 112.086 117.212 114.094C114.636 116.102 112.512 117.692 112.477 117.646C112.443 117.6 114.509 115.941 117.085 113.933C119.662 111.925 121.786 110.335 121.82 110.381Z" fill="#36BC6C"/>
<path d="M121.82 106.037C121.855 106.08 119.789 107.742 117.212 109.751C114.636 111.759 112.512 113.349 112.477 113.307C112.443 113.264 114.509 111.602 117.085 109.593C119.662 107.585 121.786 105.984 121.82 106.037Z" fill="#36BC6C"/>
<path d="M119.923 103.169C119.958 103.215 118.318 104.548 116.26 106.145C114.202 107.742 112.508 109.01 112.474 108.964C112.439 108.917 114.079 107.589 116.137 105.988C118.195 104.386 119.889 103.127 119.923 103.169Z" fill="#36BC6C"/>
<path d="M114.432 103.089C114.172 103.418 113.861 103.703 113.511 103.934C113.201 104.219 112.847 104.451 112.462 104.621C113.034 104.008 113.699 103.49 114.432 103.085V103.089Z" fill="#36BC6C"/>
<path d="M112.451 153.55C112.416 153.504 114.482 151.842 117.059 149.837C119.635 147.833 121.759 146.235 121.79 146.281C121.82 146.327 119.762 147.986 117.182 149.995C114.601 152.003 112.485 153.6 112.451 153.55Z" fill="#36BC6C"/>
<path d="M112.735 159.041C112.704 158.999 114.766 157.336 117.343 155.328C119.919 153.32 122.043 151.73 122.077 151.772C122.112 151.815 120.046 153.477 117.469 155.486C114.893 157.494 112.769 159.084 112.735 159.041Z" fill="#36BC6C"/>
<path d="M112.474 164.083C112.439 164.041 114.505 162.378 117.082 160.37C119.658 158.362 121.782 156.772 121.816 156.814C121.851 156.857 119.785 158.523 117.208 160.528C114.632 162.532 112.512 164.129 112.474 164.083Z" fill="#36BC6C"/>
<path d="M112.474 168.426C112.439 168.384 114.505 166.721 117.082 164.713C119.658 162.705 121.782 161.115 121.816 161.157C121.851 161.199 119.785 162.862 117.208 164.87C114.632 166.879 112.512 168.468 112.474 168.426Z" fill="#36BC6C"/>
<path d="M112.474 172.769C112.439 172.723 114.505 171.06 117.082 169.056C119.658 167.051 121.782 165.454 121.816 165.5C121.851 165.546 119.785 167.205 117.208 169.213C114.632 171.222 112.512 172.8 112.474 172.769Z" fill="#36BC6C"/>
<path d="M112.474 177.108C112.439 177.066 114.505 175.403 117.082 173.395C119.658 171.386 121.782 169.796 121.816 169.839C121.851 169.881 119.785 171.548 117.208 173.552C114.632 175.556 112.512 177.154 112.474 177.108Z" fill="#36BC6C"/>
<path d="M114.371 179.977C114.336 179.931 115.976 178.599 118.034 177.001C120.092 175.404 121.786 174.14 121.82 174.183C121.855 174.225 120.215 175.557 118.157 177.159C116.099 178.76 114.405 180.019 114.371 179.977Z" fill="#36BC6C"/>
<path d="M119.851 180.057C120.42 179.442 121.085 178.924 121.821 178.521C121.559 178.85 121.246 179.135 120.895 179.366C120.584 179.648 120.232 179.881 119.851 180.057Z" fill="#36BC6C"/>
<path d="M222.521 125.549H181.801V180.008H222.521V125.549Z" fill="#36BC6C"/>
<g opacity="0.3">
<path d="M222.521 125.549H181.801V180.008H222.521V125.549Z" fill="black"/>
</g>
<path d="M230.684 125.549H189.965V180.008H230.684V125.549Z" fill="#36BC6C"/>
<path d="M189.965 158.761C189.999 158.803 188.195 160.262 185.937 162.021C183.679 163.78 181.82 165.166 181.786 165.124C181.751 165.082 183.556 163.618 185.814 161.864C188.072 160.109 189.93 158.715 189.965 158.761Z" fill="#36BC6C"/>
<path d="M189.965 154.959C189.999 155.001 188.195 156.464 185.937 158.219C183.679 159.974 181.82 161.364 181.786 161.322C181.751 161.28 183.556 159.817 185.814 158.062C188.072 156.307 189.93 154.917 189.965 154.959Z" fill="#36BC6C"/>
<path d="M189.965 151.157C189.999 151.203 188.195 152.662 185.937 154.417C183.679 156.172 181.82 157.566 181.786 157.52C181.751 157.474 183.556 156.019 185.814 154.26C188.072 152.501 189.93 151.115 189.965 151.157Z" fill="#36BC6C"/>
<path d="M189.965 147.36C189.999 147.402 188.195 148.861 185.937 150.62C183.679 152.378 181.82 153.765 181.786 153.722C181.751 153.68 183.556 152.217 185.814 150.462C188.072 148.707 189.93 147.313 189.965 147.36Z" fill="#36BC6C"/>
<path d="M189.965 143.559C189.999 143.601 188.195 145.064 185.937 146.819C183.679 148.574 181.82 149.964 181.786 149.921C181.751 149.879 183.556 148.42 185.814 146.661C188.072 144.903 189.93 143.516 189.965 143.559Z" fill="#36BC6C"/>
<path d="M189.965 139.775C189.999 139.821 188.195 141.281 185.937 143.036C183.679 144.79 181.82 146.184 181.786 146.138C181.751 146.092 183.556 144.637 185.814 142.878C188.072 141.119 189.93 139.714 189.965 139.775Z" fill="#36BC6C"/>
<path d="M189.965 135.959C189.999 136.001 188.195 137.461 185.937 139.219C183.679 140.978 181.82 142.364 181.786 142.322C181.751 142.28 183.556 140.817 185.814 139.062C188.072 137.307 189.93 135.913 189.965 135.959Z" fill="#36BC6C"/>
<path d="M189.965 132.157C189.999 132.203 188.195 133.662 185.937 135.417C183.679 137.172 181.82 138.562 181.786 138.52C181.751 138.478 183.556 137.019 185.814 135.26C188.072 133.501 189.93 132.115 189.965 132.157Z" fill="#36BC6C"/>
<path d="M189.965 128.36C189.999 128.402 188.195 129.861 185.937 131.616C183.679 133.371 181.82 134.765 181.786 134.719C181.751 134.672 183.556 133.217 185.814 131.458C188.072 129.7 189.93 128.313 189.965 128.36Z" fill="#36BC6C"/>
<path d="M188.306 125.848C188.341 125.89 186.908 127.061 185.107 128.463C183.306 129.864 181.82 130.963 181.786 130.92C181.751 130.878 183.184 129.707 184.984 128.305C186.785 126.904 188.272 125.806 188.306 125.848Z" fill="#36BC6C"/>
<path d="M183.51 125.779C183.545 125.822 183.188 126.163 182.711 126.528C182.438 126.772 182.125 126.967 181.786 127.104C181.751 127.062 182.112 126.72 182.589 126.336C182.859 126.096 183.171 125.907 183.51 125.779Z" fill="#36BC6C"/>
<path d="M189.965 173.694C189.999 173.737 188.195 175.196 185.937 176.954C183.679 178.713 181.82 180.096 181.786 180.057C181.751 180.019 183.556 178.552 185.814 176.797C188.072 175.042 189.93 173.652 189.965 173.694Z" fill="#36BC6C"/>
<path d="M189.965 169.893C189.999 169.939 188.195 171.398 185.937 173.153C183.679 174.908 181.82 176.298 181.786 176.255C181.751 176.213 183.556 174.754 185.814 172.995C188.072 171.237 189.93 169.85 189.965 169.893Z" fill="#36BC6C"/>
<path d="M189.965 166.095C189.999 166.137 188.195 167.596 185.937 169.355C183.679 171.114 181.82 172.5 181.786 172.454C181.751 172.408 183.556 170.952 185.814 169.194C188.072 167.435 189.93 166.049 189.965 166.095Z" fill="#36BC6C"/>
<path d="M189.965 162.294C189.999 162.336 188.195 163.795 185.937 165.554C183.679 167.313 181.82 168.699 181.786 168.657C181.751 168.615 183.556 167.152 185.814 165.397C188.072 163.642 189.93 162.252 189.965 162.294Z" fill="#36BC6C"/>
<path d="M94.5832 142.975H50.9263V180.057H94.5832V142.975Z" fill="#36BC6C"/>
<g opacity="0.3">
<path d="M94.5832 142.975H50.9263V180.057H94.5832V142.975Z" fill="black"/>
</g>
<path d="M102.44 142.975H58.7827V180.057H102.44V142.975Z" fill="#36BC6C"/>
<path d="M58.637 174.06C58.6677 174.106 56.9705 175.48 54.8431 177.132C52.7157 178.783 50.9609 180.092 50.9263 180.05C50.8917 180.008 52.589 178.629 54.7202 176.978C56.8514 175.327 58.6025 174.017 58.637 174.06Z" fill="#36BC6C"/>
<path d="M58.637 170.496C58.6677 170.542 56.9705 171.921 54.8431 173.568C52.7157 175.216 50.9609 176.529 50.9263 176.487C50.8917 176.444 52.589 175.066 54.7202 173.415C56.8514 171.763 58.6025 170.435 58.637 170.496Z" fill="#36BC6C"/>
<path d="M58.637 166.898C58.6677 166.94 56.9705 168.318 54.8431 169.97C52.7157 171.621 50.9609 172.934 50.9263 172.888C50.8917 172.842 52.589 171.467 54.7202 169.816C56.8514 168.165 58.6025 166.852 58.637 166.898Z" fill="#36BC6C"/>
<path d="M58.637 163.315C58.6677 163.358 56.9705 164.736 54.8431 166.387C52.7157 168.039 50.9609 169.352 50.9263 169.31C50.8917 169.267 52.589 167.885 54.7202 166.238C56.8514 164.59 58.6025 163.273 58.637 163.315Z" fill="#36BC6C"/>
<path d="M58.637 159.744C58.6677 159.79 56.9705 161.165 54.8431 162.816C52.7157 164.467 50.9609 165.776 50.9263 165.734C50.8917 165.692 52.589 164.313 54.7202 162.662C56.8514 161.011 58.6025 159.69 58.637 159.744Z" fill="#36BC6C"/>
<path d="M58.637 156.154C58.6677 156.196 56.9705 157.574 54.8431 159.226C52.7157 160.877 50.9609 162.186 50.9263 162.144C50.8917 162.102 52.589 160.723 54.7202 159.072C56.8514 157.421 58.6025 156.107 58.637 156.154Z" fill="#36BC6C"/>
<path d="M58.637 152.571C58.6677 152.613 56.9705 153.991 54.8431 155.643C52.7157 157.294 50.9609 158.607 50.9263 158.561C50.8917 158.515 52.589 157.14 54.7202 155.489C56.8514 153.838 58.6025 152.524 58.637 152.571Z" fill="#36BC6C"/>
<path d="M58.637 148.991C58.6677 149.034 56.9705 150.412 54.8431 152.063C52.7157 153.715 50.9609 155.028 50.9263 154.986C50.8917 154.943 52.589 153.565 54.7202 151.914C56.8514 150.262 58.6025 148.945 58.637 148.991Z" fill="#36BC6C"/>
<path d="M58.637 145.405C58.6677 145.451 56.9705 146.826 54.8431 148.477C52.7157 150.128 50.9609 151.438 50.9263 151.396C50.8917 151.353 52.589 149.975 54.7202 148.324C56.8514 146.672 58.6025 145.363 58.637 145.405Z" fill="#36BC6C"/>
<path d="M57.0703 143.039C56.1116 143.916 55.1067 144.74 54.0597 145.508C53.0551 146.329 52.0092 147.098 50.9263 147.812C51.8872 146.939 52.8921 146.115 53.9368 145.343C55.6341 144.034 57.0357 142.997 57.0703 143.039Z" fill="#36BC6C"/>
<path d="M52.5506 142.975C52.5851 143.017 52.2511 143.336 51.8018 143.685C51.5485 143.924 51.2512 144.112 50.9263 144.238C50.8917 144.196 51.2296 143.877 51.6943 143.528C51.9428 143.292 52.2333 143.104 52.5506 142.975Z" fill="#36BC6C"/>
<g opacity="0.3">
<path d="M160.7 99.7436C160.336 99.6304 159.949 99.6092 159.575 99.6822C147.84 100.984 134.841 101.867 123.095 103.169V103.296C130.631 105.462 138.472 106.37 146.304 105.984C147.037 105.949 147.874 105.941 148.373 106.483C148.873 107.024 148.757 107.996 148.592 108.787C146.941 115.968 145.291 123.147 143.643 130.325C143.385 131.454 143.205 132.841 144.088 133.586C145.309 134.619 147.106 133.394 148.135 132.172C155.124 123.882 158.296 113.122 161.287 102.7C161.602 101.644 161.729 100.166 160.7 99.7436Z" fill="black"/>
</g>
<path d="M175.676 96.2419C174.45 95.1937 172.861 94.6696 171.252 94.7827L168.564 103.38C170.546 103.465 172.523 104.49 174.436 103.964C175.202 103.728 175.885 103.277 176.402 102.664C176.919 102.052 177.25 101.303 177.354 100.508C177.436 99.7147 177.326 98.9133 177.034 98.171C176.742 97.4287 176.276 96.7672 175.676 96.2419Z" fill="#003FA4"/>
<path d="M171.302 94.5831C171.302 94.514 171.594 94.4602 172.12 94.4641C172.877 94.4764 173.626 94.6179 174.336 94.8826C175.415 95.3058 176.349 96.0327 177.024 96.9754C177.437 97.5346 177.742 98.1663 177.922 98.8378C178.117 99.5742 178.14 100.346 177.988 101.092C177.839 101.849 177.5 102.555 177.005 103.146C176.535 103.69 175.935 104.106 175.261 104.356C174.17 104.744 172.991 104.82 171.859 104.575C171.131 104.43 170.421 104.21 169.739 103.918C169.259 103.711 169.01 103.561 169.033 103.492C169.056 103.423 169.344 103.442 169.851 103.526C170.358 103.611 171.079 103.765 171.963 103.845C172.959 103.964 173.968 103.832 174.9 103.461C175.413 103.247 175.866 102.912 176.221 102.486C176.598 102.02 176.853 101.469 176.966 100.881C177.076 100.304 177.069 99.7112 176.947 99.137C176.825 98.5627 176.59 98.0185 176.256 97.5361C175.703 96.7006 174.944 96.022 174.052 95.5661C173.42 95.2677 172.758 95.0373 172.078 94.8788C171.575 94.7405 171.294 94.6561 171.302 94.5831Z" fill="#E0E0E0"/>
<path d="M146.807 126.19L141.358 141.458L160.324 148.34C160.869 146.485 152.375 139.293 152.375 139.293L156.288 129.65L146.807 126.19Z" fill="#003FA4"/>
<g opacity="0.6">
<path d="M146.811 136.343C146.608 136.331 146.409 136.395 146.251 136.522C146.093 136.649 145.987 136.83 145.954 137.03C145.936 137.232 145.996 137.433 146.122 137.592C146.248 137.752 146.429 137.857 146.63 137.886C146.845 137.897 147.057 137.828 147.223 137.692C147.39 137.555 147.5 137.362 147.533 137.149C147.533 136.746 147.148 136.281 146.73 136.339" fill="white"/>
</g>
<path d="M141.358 141.458L141.907 139.922L159.92 147.107C159.92 147.107 160.635 147.782 160.324 148.343L141.358 141.458Z" fill="#F5F5F5"/>
<path d="M152.716 139.307C152.682 139.396 152.202 139.273 151.641 139.403C151.081 139.534 150.693 139.837 150.62 139.787C150.547 139.737 150.881 139.238 151.564 139.088C152.248 138.939 152.77 139.227 152.716 139.307Z" fill="#263238"/>
<path d="M154.41 140.852C154.41 140.948 153.938 140.959 153.485 141.236C153.031 141.512 152.786 141.896 152.694 141.858C152.601 141.819 152.736 141.278 153.308 140.94C153.88 140.602 154.441 140.759 154.41 140.852Z" fill="#263238"/>
<path d="M154.675 143.64C154.583 143.64 154.621 143.121 155.059 142.699C155.497 142.276 155.988 142.234 156 142.315C156.011 142.395 155.643 142.58 155.305 142.929C154.967 143.279 154.771 143.666 154.675 143.64Z" fill="#263238"/>
<path d="M153.362 137.011C153.293 137.08 152.913 136.8 152.379 136.627C151.845 136.454 151.373 136.493 151.354 136.393C151.334 136.293 151.845 136.109 152.475 136.301C153.105 136.493 153.435 136.953 153.362 137.011Z" fill="#263238"/>
<path d="M153.727 134.596C153.385 134.566 153.058 134.445 152.778 134.246C152.459 134.06 152.162 133.837 151.895 133.582C151.737 133.429 151.59 133.266 151.453 133.094C151.37 132.996 151.301 132.886 151.25 132.768C151.212 132.68 151.205 132.582 151.229 132.489C151.254 132.397 151.308 132.315 151.384 132.257C151.455 132.21 151.535 132.179 151.619 132.168C151.703 132.157 151.788 132.165 151.868 132.192C151.988 132.237 152.102 132.297 152.206 132.372C152.391 132.495 152.564 132.634 152.724 132.787C152.992 133.049 153.217 133.351 153.393 133.682C153.583 133.969 153.679 134.309 153.669 134.653C153.615 134.653 153.508 134.304 153.181 133.805C152.992 133.52 152.766 133.262 152.509 133.037C152.358 132.895 152.195 132.767 152.022 132.653C151.841 132.53 151.672 132.464 151.588 132.537C151.503 132.61 151.549 132.576 151.569 132.649C151.61 132.735 151.662 132.816 151.722 132.891C151.841 133.054 151.97 133.21 152.106 133.359C152.348 133.611 152.613 133.84 152.897 134.043C153.186 134.208 153.463 134.393 153.727 134.596Z" fill="#263238"/>
<path d="M153.558 134.684C153.476 134.349 153.505 133.996 153.638 133.678C153.751 133.321 153.922 132.985 154.145 132.684C154.281 132.507 154.432 132.344 154.598 132.196C154.694 132.091 154.814 132.012 154.949 131.967C155.083 131.921 155.227 131.91 155.366 131.935C155.45 131.968 155.522 132.024 155.575 132.097C155.628 132.17 155.66 132.256 155.666 132.346C155.673 132.474 155.664 132.603 155.639 132.73C155.593 132.953 155.515 133.168 155.405 133.367C155.223 133.705 154.959 133.992 154.637 134.2C154.088 134.558 153.661 134.531 153.665 134.496C153.951 134.348 154.228 134.184 154.495 134.005C154.756 133.797 154.968 133.535 155.117 133.237C155.205 133.062 155.267 132.876 155.301 132.684C155.343 132.472 155.328 132.28 155.243 132.273C155.16 132.271 155.077 132.287 155 132.32C154.923 132.353 154.854 132.403 154.798 132.465C154.645 132.595 154.503 132.739 154.375 132.895C154.159 133.161 153.982 133.457 153.849 133.774C153.642 134.308 153.6 134.688 153.558 134.684Z" fill="#263238"/>
<path d="M126.401 82.7938C123.294 82.8668 120.349 83.3045 118.21 85.5548C115.373 88.5423 111.867 92.8009 111.682 95.75C111.36 100.162 114.048 101.472 115.968 102.551C116.832 103.019 117.808 103.243 118.79 103.2L154.683 102.927L155.812 96.8482L132.595 91.1266L133.559 82.3906L126.401 82.7938Z" fill="#BBBBBB"/>
<path d="M133.563 82.3914L144.856 81.8691C144.856 81.8691 164.352 82.9443 168.522 86.7843C172.692 90.6243 172.162 94.9328 170.776 99.0723C169.39 103.212 157.167 129.846 157.167 129.846C157.167 129.846 158.158 131.54 157.601 133.225C157.378 133.964 156.966 134.632 156.408 135.164C155.849 135.696 155.162 136.075 154.414 136.263L143.558 132.273C143.558 132.273 142.084 131.755 143.124 130.353C144.165 128.951 144.856 128.709 144.856 128.709V125.952C144.856 125.952 148.673 119.017 149.019 118.065C149.364 117.113 153.02 102.997 153.02 102.997L155.451 98.8227C155.451 98.8227 149.575 96.0618 144.487 94.0611L132.583 91.1312L133.563 82.3914Z" fill="#BBBBBB"/>
<path d="M151.88 131.774C151.857 131.801 151.515 131.528 150.927 131.152C149.394 130.157 147.666 129.503 145.858 129.232C145.48 129.195 145.103 129.138 144.729 129.063C145.113 129.018 145.5 129.026 145.881 129.086C146.802 129.184 147.705 129.401 148.569 129.731C149.436 130.058 150.256 130.497 151.008 131.037C151.33 131.242 151.623 131.49 151.88 131.774Z" fill="#455A64"/>
<path d="M157.302 129.869C157.067 129.672 156.855 129.449 156.672 129.204C156.307 128.774 155.819 128.164 155.309 127.472C154.798 126.781 154.36 126.128 154.061 125.652C153.877 125.407 153.728 125.138 153.615 124.854C153.829 125.073 154.019 125.313 154.184 125.572L155.478 127.35L156.787 129.112C156.987 129.344 157.159 129.598 157.302 129.869Z" fill="#455A64"/>
<path d="M161.28 95.0098C161.28 95.0443 160.896 95.1288 160.254 95.34C159.435 95.6122 158.65 95.9796 157.916 96.4344C157.185 96.895 156.509 97.4387 155.904 98.0549C155.439 98.5272 155.186 98.8536 155.159 98.8229C155.327 98.4999 155.541 98.2035 155.796 97.9435C156.38 97.284 157.057 96.7123 157.804 96.2462C158.552 95.7811 159.361 95.4242 160.208 95.1864C160.555 95.0752 160.916 95.0157 161.28 95.0098Z" fill="#455A64"/>
<path d="M150.178 113.852C150.183 113.773 150.197 113.694 150.22 113.618C150.267 113.445 150.32 113.234 150.389 112.958L151.038 110.535L153.262 102.567C153.711 101.011 154.099 99.5291 154.533 98.1851C154.992 97.0162 155.687 95.9547 156.576 95.067C157.162 94.4656 157.812 93.9299 158.515 93.4696C158.768 93.3083 158.964 93.1893 159.102 93.1163C159.17 93.0735 159.242 93.0375 159.317 93.0088C159.317 93.0088 159.045 93.1931 158.549 93.5349C157.873 94.0197 157.245 94.5674 156.672 95.1707C155.815 96.0515 155.145 97.0964 154.702 98.2427C154.283 99.5637 153.899 101.065 153.45 102.613L151.18 110.592L150.466 112.996C150.382 113.261 150.316 113.476 150.263 113.645C150.243 113.717 150.214 113.787 150.178 113.852Z" fill="#455A64"/>
<path d="M140.191 93.5274C140.133 93.5274 139.895 91.4192 139.661 88.8119C139.426 86.2045 139.277 84.081 139.338 84.0772C139.399 84.0733 139.634 86.1815 139.868 88.7927C140.102 91.4039 140.248 93.5197 140.191 93.5274Z" fill="#455A64"/>
<path d="M121.398 99.1603C121.363 99.1603 121.19 98.8339 120.837 98.3347C120.374 97.6855 119.822 97.105 119.197 96.6105C118.567 96.1228 117.87 95.7283 117.128 95.4393C116.555 95.2166 116.183 95.1283 116.191 95.0938C116.528 95.1092 116.861 95.1778 117.177 95.2973C118.741 95.818 120.077 96.8624 120.96 98.2541C121.155 98.53 121.302 98.8362 121.398 99.1603Z" fill="#455A64"/>
<path d="M128.313 91.4958C128.313 91.5303 127.814 91.2231 126.985 90.8468C124.814 89.8604 122.407 89.514 120.046 89.8484C119.143 89.979 118.598 90.1403 118.59 90.1019C118.71 90.0345 118.84 89.9866 118.974 89.9598C119.322 89.8517 119.676 89.7658 120.034 89.7025C122.424 89.2805 124.887 89.6344 127.061 90.7124C127.389 90.8719 127.704 91.0541 128.006 91.2577C128.119 91.3226 128.222 91.4027 128.313 91.4958Z" fill="#455A64"/>
<path d="M155.351 96.8452C155.257 96.8351 155.163 96.8197 155.07 96.7992L154.272 96.6225L151.346 95.9659C148.876 95.4129 145.459 94.6718 141.669 93.9192C137.879 93.1665 134.438 92.5444 131.942 92.1259L128.985 91.619L128.183 91.4731C128.089 91.4585 127.997 91.4379 127.906 91.4116C128.002 91.409 128.097 91.4167 128.19 91.4347L128.997 91.5384C129.7 91.6344 130.713 91.7841 131.965 91.98C134.469 92.364 137.917 92.9668 141.711 93.7156C145.505 94.4644 148.919 95.2324 151.38 95.8238C152.613 96.1195 153.607 96.3652 154.291 96.5457L155.082 96.7569C155.175 96.7761 155.265 96.8058 155.351 96.8452Z" fill="#455A64"/>
<path d="M132.599 92.1596C132.455 91.7669 132.289 91.3823 132.103 91.0076C131.879 90.6176 131.602 90.2598 131.282 89.9439C130.885 89.5574 130.465 89.1946 130.026 88.8572C129.212 88.257 128.352 87.7228 127.453 87.2598C127.071 87.0817 126.704 86.8737 126.355 86.6377C126.753 86.7655 127.139 86.93 127.507 87.1292C128.436 87.5586 129.319 88.0823 130.141 88.6921C130.59 89.0342 131.013 89.4076 131.408 89.8095C131.733 90.1449 132.007 90.5251 132.222 90.9385C132.363 91.2168 132.47 91.5107 132.541 91.814C132.579 91.9253 132.599 92.042 132.599 92.1596Z" fill="#455A64"/>
<path d="M172.577 97.5859C172.623 97.632 172.024 98.2387 171.556 99.1603C171.087 100.082 170.937 100.919 170.872 100.908C170.907 100.265 171.077 99.6375 171.371 99.0652C171.665 98.4929 172.076 97.9889 172.577 97.5859Z" fill="#263238"/>
<path d="M201.623 45.6657C201.613 45.6845 201.601 45.7025 201.588 45.7194L201.485 45.873L201.062 46.4644L199.434 48.657C198.021 50.5502 196.009 53.2305 193.609 56.433L193.559 56.5022L193.49 56.4522L188.409 52.8618L188.544 52.8388C187.338 54.4708 186.052 56.2103 184.723 57.9998C183.283 59.939 181.889 61.8398 180.568 63.5946L180.518 63.6676L180.445 63.6215L174.205 59.9697L174.313 59.9466L168.937 66.6666L167.424 68.5214L167.021 69.009C166.977 69.066 166.929 69.1198 166.878 69.1703C166.914 69.1082 166.956 69.0491 167.001 68.9937L167.385 68.4906L168.86 66.5975L174.186 59.8314L174.232 59.7738L174.293 59.8122L180.545 63.4449L180.418 63.4718L184.565 57.8692L188.405 52.7121L188.463 52.6353L188.54 52.6929L193.605 56.2986H193.486L199.369 48.5649L201.031 46.403L201.477 45.8385C201.523 45.777 201.561 45.731 201.596 45.6926C201.63 45.6542 201.619 45.6657 201.623 45.6657Z" fill="#FF1212"/>
<path d="M201.077 51.3641C201.061 51.2147 201.061 51.0641 201.077 50.9148C201.1 50.5846 201.131 50.1775 201.162 49.6975C201.242 48.6684 201.365 47.2476 201.515 45.6847V45.6578L201.649 45.7615C200.171 46.2876 198.831 46.7561 197.859 47.0863L196.707 47.4703C196.569 47.5257 196.425 47.5631 196.277 47.5817C196.406 47.5056 196.542 47.4438 196.684 47.3974L197.817 46.9558C198.777 46.5948 200.121 46.1033 201.584 45.5772L201.734 45.5234V45.6809V45.6962C201.584 47.2591 201.438 48.6761 201.323 49.7014C201.266 50.1814 201.216 50.5884 201.173 50.9148C201.161 51.0682 201.129 51.2192 201.077 51.3641Z" fill="#FF1212"/>
<path d="M157.029 68.0566C156.852 66.8816 153.342 62.9955 153.342 62.9955C153.342 62.9955 150.29 55.5229 149.764 53.4454C149.368 52.1357 148.889 50.853 148.327 49.6054C147.099 47.528 146.492 47.4896 144.388 46.3069L140.31 44.5059L139.81 43.3961C139.381 42.4397 138.639 41.6582 137.706 41.1805L127.488 35.9043L124.324 41.4915C124.324 41.4915 118.249 44.36 117.895 44.8131C116.647 46.4029 117.511 71.935 117.511 71.935C117.511 71.935 116.901 81.8845 116.221 84.6761C115.542 87.4678 115.146 89.5299 115.146 89.5299L118.18 86.0432C119.961 83.8121 123.867 82.783 126.674 82.8253L150.651 82.9289L149.191 75.7789L169.086 79.9837C169.086 79.9837 172.423 73.4787 172.688 73.3481C172.953 73.2176 157.029 68.0566 157.029 68.0566Z" fill="#003FA4"/>
<path d="M126.97 43.6839C126.801 43.5149 128.89 48.4915 130.237 53.8983C131.09 57.2698 131.27 62.7303 131.27 65.7639L131.785 74.2656V81.7037L143.282 80.9357L141.562 68.4403C141.562 68.4403 140.16 60.3763 139.768 57.3043C139.411 54.4973 137.702 43.2461 137.702 43.2461C137.702 43.2461 131.785 48.5875 126.97 43.6839Z" fill="white"/>
<path d="M152.482 72.7723C152.465 72.6758 152.465 72.577 152.482 72.4805C152.51 72.2206 152.56 71.9636 152.632 71.7125C152.879 70.8709 153.331 70.1041 153.949 69.4815C154.569 68.8619 155.335 68.4088 156.176 68.1643C156.427 68.0893 156.684 68.0379 156.944 68.0107C157.129 68.0107 157.232 68.0107 157.236 68.0107C157.24 68.0107 156.833 68.0875 156.219 68.3026C155.415 68.574 154.686 69.027 154.086 69.6265C153.487 70.2259 153.034 70.9555 152.763 71.7586C152.563 72.3691 152.521 72.7762 152.482 72.7723Z" fill="#263238"/>
<path d="M153.078 68.2181C153.61 67.9035 154.214 67.7291 154.833 67.7112C155.445 67.6258 156.069 67.6998 156.645 67.9263C156.645 67.9877 155.835 67.8341 154.848 67.9263C153.861 68.0184 153.097 68.2796 153.078 68.2181Z" fill="#263238"/>
<path d="M118.187 44.582C116.573 45.2839 115.146 46.356 114.023 47.7115C112.899 49.0671 112.111 50.6681 111.721 52.3849C110.646 56.7702 106.034 74.6992 106.982 77.3795C107.931 80.0598 126.363 82.694 126.363 82.694L128.548 73.478L119.186 70.9167C119.186 70.9167 119.305 62.3843 119.424 58.8476C119.543 55.311 118.187 44.582 118.187 44.582Z" fill="#003FA4"/>
<path d="M128.306 74.7725L131.585 75.6326L129.638 82.7366L126.413 82.5945L128.306 74.7725Z" fill="white"/>
<path d="M150.877 80.9321L147.924 77.7948L141.842 76.2588C141.842 76.2588 136.27 77.9292 136.135 77.9253C136.001 77.9215 131.286 76.6351 131.286 76.6351L129.638 82.6754L138.132 83.2591L147.832 82.8751C147.832 82.8751 148.335 82.4028 148.036 82.0802C147.736 81.7577 149.66 82.6255 149.886 82.637C150.113 82.6485 150.551 82.8213 150.85 82.4565C151.054 82.2069 151.33 81.4082 150.877 80.9321Z" fill="#FFBF9D"/>
<path d="M148.036 82.0762C147.706 82.0124 147.383 81.9172 147.072 81.7921C146.48 81.6039 145.666 81.3543 144.768 81.1201C143.869 80.8858 143.02 80.713 142.414 80.5902C142.081 80.5466 141.753 80.4707 141.435 80.3636C141.772 80.3484 142.11 80.3742 142.441 80.4404C143.243 80.5508 144.037 80.7072 144.821 80.9089C145.603 81.1085 146.373 81.3547 147.125 81.6462C147.446 81.7497 147.752 81.8942 148.036 82.0762Z" fill="#8B5D54"/>
<path d="M150.877 80.9316C150.42 80.8123 149.97 80.6675 149.53 80.4977C148.704 80.2174 147.544 79.8756 146.258 79.5185C144.971 79.1614 143.831 78.7505 142.963 78.7044C142.495 78.6822 142.026 78.7002 141.562 78.7582C141.681 78.6939 141.811 78.6522 141.946 78.6353C142.289 78.5619 142.64 78.5335 142.99 78.5508C143.889 78.5508 145.067 78.9348 146.338 79.3188C147.61 79.7028 148.781 80.0446 149.602 80.3633C150.01 80.5207 150.34 80.659 150.562 80.7473C150.676 80.7936 150.782 80.8556 150.877 80.9316Z" fill="#8B5D54"/>
<path d="M106.913 76.4161C106.913 76.4161 106.913 76.5697 106.959 76.85C107.06 77.257 107.284 77.6231 107.601 77.8983C108.403 78.6433 109.931 79.2653 111.871 79.6148C112.758 79.9066 113.768 80.137 114.847 80.3828C115.926 80.6285 117.089 80.8743 118.303 81.1239C120.756 81.6231 123.471 82.153 126.344 82.6906L126.221 82.7713L126.87 80.0833C127.388 77.9713 127.891 75.9207 128.363 73.9815L128.436 74.1082L120.119 71.7313C118.973 71.248 117.732 71.0314 116.49 71.0977C115.547 71.1494 114.62 71.3665 113.752 71.7389C113.2 71.9773 112.673 72.2692 112.178 72.6106L111.794 72.8909L111.659 72.9793C111.659 72.9793 111.694 72.937 111.778 72.8679C111.863 72.7988 111.978 72.6951 112.162 72.5722C112.651 72.2106 113.176 71.9017 113.729 71.6506C114.603 71.256 115.541 71.0218 116.498 70.9594C117.762 70.8809 119.028 71.091 120.2 71.5738L128.529 73.9124L128.628 73.9393L128.605 74.0391C128.129 75.9821 127.634 78.0289 127.119 80.1447C126.893 81.0625 126.674 81.9649 126.466 82.8327L126.44 82.9325H126.34C123.464 82.3873 120.753 81.8535 118.299 81.3389C117.074 81.0855 115.914 80.8321 114.843 80.5709C113.771 80.3098 112.758 80.0794 111.855 79.7722C109.897 79.3882 108.361 78.7508 107.554 77.9674C107.233 77.6779 107.012 77.2931 106.925 76.8692C106.893 76.7201 106.89 76.5665 106.913 76.4161Z" fill="#263238"/>
<path d="M119.693 71.5314C119.666 71.5583 119.355 71.2703 118.79 70.894C117.315 69.9082 115.572 69.4014 113.798 69.4425C113.123 69.4425 112.704 69.5308 112.696 69.4962C113.047 69.3662 113.417 69.2961 113.791 69.2889C115.606 69.1593 117.408 69.6837 118.871 70.7673C119.185 70.9755 119.462 71.2337 119.693 71.5314Z" fill="#263238"/>
<path d="M120.918 56.5176C120.938 56.7039 120.938 56.8919 120.918 57.0782C120.918 57.4392 120.879 57.9614 120.829 58.6142C120.726 59.9006 120.534 61.6862 120.196 63.6062C119.93 65.2713 119.545 66.9151 119.044 68.5253C118.94 68.8286 118.833 69.1051 118.744 69.347L118.475 69.9499C118.397 70.1212 118.301 70.2835 118.188 70.4337C118.242 70.2551 118.313 70.0816 118.399 69.9153C118.468 69.7349 118.545 69.5313 118.629 69.3009C118.714 69.0705 118.802 68.7825 118.894 68.4753C119.355 66.8637 119.72 65.2263 119.988 63.5717C120.326 61.6517 120.541 59.8661 120.683 58.5797C120.745 57.9729 120.799 57.4622 120.841 57.0437C120.849 56.8662 120.874 56.6899 120.918 56.5176Z" fill="#263238"/>
<path d="M129.373 52.1818C129.373 52.1818 129.331 52.0742 129.235 51.8861C129.093 51.6195 128.886 51.3935 128.632 51.2295C128.444 51.1004 128.229 51.0161 128.004 50.9828C127.778 50.9495 127.548 50.9682 127.33 51.0375C127.056 51.1325 126.81 51.297 126.618 51.515C126.425 51.733 126.292 51.9971 126.232 52.2816L126.178 52.5658L126.056 52.3047C125.586 51.2994 125.177 50.2672 124.831 49.2135C124.219 47.4584 123.914 45.6114 123.928 43.753C123.928 43.3959 123.978 43.0771 123.997 42.793C124.017 42.5088 124.082 42.2746 124.124 42.0826C124.165 41.8802 124.226 41.6822 124.305 41.4912C124.165 42.2386 124.087 42.9965 124.074 43.7568C124.107 45.588 124.43 47.4024 125.03 49.1328C125.374 50.1776 125.774 51.2031 126.228 52.2048L126.048 52.2278C126.117 51.9127 126.267 51.6213 126.484 51.3827C126.701 51.1441 126.977 50.9668 127.284 50.8685C127.523 50.7982 127.775 50.7842 128.02 50.8275C128.265 50.8708 128.497 50.9702 128.697 51.1181C128.957 51.3002 129.161 51.5499 129.289 51.84C129.321 51.917 129.347 51.9967 129.366 52.0781C129.377 52.151 129.377 52.1818 129.373 52.1818Z" fill="#263238"/>
<path d="M139.315 53.0844C139.277 52.9277 139.249 52.7686 139.231 52.6083C139.145 52.1658 139.117 51.7139 139.15 51.2643C139.232 50.5835 139.557 49.9551 140.064 49.494C140.367 49.2252 140.757 49.0763 141.162 49.0755C141.383 49.0737 141.602 49.1223 141.801 49.2174C142.001 49.3125 142.176 49.4518 142.314 49.6246L142.149 49.7244L141.788 48.7683C141.082 46.8828 140.452 45.1702 140.006 43.9299C139.799 43.3347 139.622 42.8393 139.488 42.4553C139.416 42.2764 139.361 42.0913 139.323 41.9023C139.416 42.07 139.495 42.2446 139.561 42.4246C139.711 42.8086 139.903 43.2924 140.137 43.8761C140.617 45.1049 141.266 46.8099 141.972 48.6953L142.33 49.6515L142.56 50.2697L142.176 49.7551C142.054 49.6042 141.901 49.4824 141.726 49.3987C141.551 49.315 141.36 49.2714 141.166 49.2713C140.802 49.2711 140.449 49.4004 140.172 49.6361C139.694 50.0663 139.379 50.6481 139.281 51.2835C139.241 51.7208 139.249 52.1611 139.304 52.5967C139.329 52.7581 139.332 52.9221 139.315 53.0844Z" fill="#263238"/>
<path d="M146.119 54.0752C146.173 54.0752 147.029 59.6739 148.039 66.5936C149.049 73.5133 149.81 79.1312 149.756 79.1389C149.702 79.1466 148.846 73.544 147.836 66.6205C146.826 59.697 146.066 54.0829 146.119 54.0752Z" fill="#263238"/>
<g opacity="0.3">
<path d="M124.953 49.2783C125.004 50.8336 125.343 52.3659 125.952 53.798C126.385 53.2604 126.869 52.6921 127.534 52.5308C128.359 52.335 129.196 52.8457 129.792 53.4639C129.688 52.841 129.441 52.2508 129.07 51.7398C128.887 51.4885 128.649 51.2829 128.374 51.139C128.099 50.9951 127.794 50.9168 127.484 50.9103C127.172 50.9169 126.871 51.0273 126.629 51.2242C126.387 51.421 126.217 51.693 126.147 51.997L124.995 49.309" fill="black"/>
</g>
<path d="M120.887 51.702C120.848 51.702 120.86 51.2834 120.741 50.6306C120.578 49.7798 120.246 48.9702 119.765 48.2498C119.5 47.8562 119.194 47.4919 118.851 47.1631C118.57 46.8953 118.262 46.6561 117.934 46.4489C117.373 46.0917 116.977 45.9573 116.989 45.9189C117.088 45.9255 117.186 45.9489 117.277 45.9881C117.388 46.0221 117.495 46.0645 117.6 46.1148C117.741 46.1747 117.878 46.244 118.01 46.3221C118.359 46.5191 118.685 46.7534 118.982 47.021C119.343 47.3544 119.665 47.7281 119.942 48.1346C120.438 48.8777 120.761 49.7229 120.887 50.6076C120.925 50.8733 120.938 51.142 120.925 51.4101C120.913 51.5983 120.902 51.702 120.887 51.702Z" fill="#263238"/>
<g opacity="0.3">
<path d="M146.465 56.5674L149.034 74.6691L149.161 74.9571C149.766 68.6993 148.841 62.3882 146.465 56.5674Z" fill="black"/>
</g>
<path d="M160.723 66.9701L152.371 81.5621L131.785 82.0114L131.735 82.9407L151.664 82.7948L152.298 82.7717L173.345 82.814L177.6 75.4796L183.033 67.692C183.115 67.5766 183.162 67.4411 183.171 67.3004C183.181 67.1596 183.151 67.019 183.085 66.8941C183.02 66.7691 182.921 66.6646 182.8 66.592C182.679 66.5194 182.541 66.4815 182.4 66.4824L161.387 66.5631C161.25 66.5655 161.117 66.6045 161 66.6761C160.883 66.7477 160.787 66.8492 160.723 66.9701Z" fill="#003FA4"/>
<path d="M177.6 75.498C177.6 75.498 178.679 76.4888 178.51 77.3297C178.341 78.1707 178.395 78.8004 177.6 78.8657C177.611 79.1727 177.506 79.4726 177.305 79.7049C177.104 79.9373 176.823 80.0847 176.517 80.1176C176.517 80.1176 176.763 81.4385 175.223 81.6536C175.223 81.6536 174.755 83.0667 173.783 82.7249C173.228 82.5335 172.694 82.2851 172.189 81.9838L171.905 81.4692C171.905 81.4692 170.481 80.9355 170.83 80.1291C171.045 79.6414 171.782 79.5147 171.782 79.5147C171.698 79.3136 171.662 79.0953 171.678 78.8777C171.694 78.6601 171.762 78.4494 171.875 78.2628C172.216 77.802 173.33 78.1822 173.33 78.1822C173.306 77.7878 173.431 77.3988 173.679 77.0916C174.063 76.6424 175.834 77.8596 175.834 77.8596L176.797 76.7076L177.6 75.498Z" fill="#FFBF9D"/>
<path d="M175.223 81.6575C174.599 81.3918 174.005 81.0624 173.449 80.6745C172.854 80.3501 172.296 79.9639 171.782 79.5225C173.007 80.1111 174.165 80.8281 175.238 81.6613L175.223 81.6575Z" fill="#FF9A6C"/>
<path d="M176.517 80.1104C175.938 79.8802 175.385 79.588 174.869 79.2387C174.32 78.9454 173.805 78.5926 173.333 78.1865C173.913 78.4156 174.465 78.708 174.981 79.0582C175.531 79.3499 176.046 79.7028 176.517 80.1104Z" fill="#FF9A6C"/>
<path d="M174.754 77.2114C174.789 77.1538 175.449 77.4994 176.217 77.9794C176.695 78.2539 177.154 78.5592 177.592 78.8933C177.561 78.9585 176.874 78.6475 176.106 78.156C175.625 77.8879 175.172 77.5713 174.754 77.2114Z" fill="#FF9A6C"/>
<path d="M183.034 67.054C183 67.0593 182.967 67.0593 182.934 67.054H182.638H181.486L177.308 67.0885L163.519 67.1192H162.513C162.364 67.1034 162.213 67.1287 162.078 67.1923C161.943 67.256 161.827 67.3555 161.745 67.4802C161.426 68.0485 161.115 68.613 160.808 69.166L159.034 72.3685L156.019 77.7868C155.159 79.3228 154.464 80.5554 153.972 81.4309L153.404 82.4139L153.254 82.6674C153.237 82.6977 153.216 82.7261 153.193 82.7519C153.204 82.7187 153.218 82.6865 153.235 82.6559C153.27 82.5868 153.312 82.5023 153.37 82.3948C153.496 82.149 153.677 81.8149 153.899 81.3887L155.892 77.7138C156.741 76.1778 157.747 74.3192 158.868 72.2764C159.429 71.2511 160.02 70.1797 160.631 69.0661L161.572 67.365C161.674 67.2129 161.814 67.0905 161.979 67.0102C162.143 66.9299 162.326 66.8947 162.509 66.908H163.515L177.304 66.9388L181.482 66.9733H182.634H182.93L183.034 67.054Z" fill="#263238"/>
<path d="M168.223 74.4001C168.126 74.5405 168.072 74.7056 168.067 74.8758C168.062 75.046 168.106 75.214 168.194 75.3599C168.282 75.5057 168.41 75.6232 168.563 75.6983C168.715 75.7734 168.887 75.8029 169.056 75.7834C169.225 75.7638 169.385 75.696 169.517 75.588C169.648 75.48 169.746 75.3365 169.798 75.1744C169.85 75.0124 169.855 74.8387 169.811 74.6742C169.767 74.5096 169.677 74.3612 169.551 74.2465C169.354 74.0914 169.104 74.0205 168.855 74.0492C168.606 74.078 168.379 74.2042 168.223 74.4001Z" fill="white"/>
<path d="M137.909 42.4782L137.794 39.1643C137.794 39.1643 142.195 38.2004 141.976 33.7537C141.872 31.6033 141.292 27.1988 140.724 23.2206C140.425 21.1592 139.362 19.2855 137.746 17.9716C136.13 16.6576 134.079 15.9996 132 16.1281L131.573 16.155C126.965 16.708 124.865 20.932 125.545 25.5208L126.624 43.0081C126.715 44.4721 127.371 45.8434 128.455 46.8322C129.538 47.8211 130.963 48.35 132.43 48.3073C133.172 48.2845 133.903 48.1156 134.58 47.8103C135.258 47.5049 135.868 47.0692 136.377 46.5279C136.886 45.9866 137.283 45.3503 137.546 44.6555C137.809 43.9606 137.932 43.2208 137.909 42.4782Z" fill="#FFBF9D"/>
<path d="M137.794 39.1681C135.742 39.29 133.698 38.8209 131.904 37.8164C131.904 37.8164 133.405 40.9652 137.817 40.2932L137.794 39.1681Z" fill="#FF9A6C"/>
<path d="M140.16 27.3948C140.172 27.5603 140.119 27.7239 140.012 27.8508C139.905 27.9777 139.753 28.0579 139.588 28.0745C139.507 28.0858 139.426 28.0808 139.347 28.0599C139.269 28.0391 139.195 28.0026 139.131 27.9529C139.067 27.9031 139.014 27.841 138.974 27.7702C138.934 27.6994 138.909 27.6214 138.9 27.5407C138.894 27.3767 138.951 27.2164 139.06 27.0934C139.168 26.9703 139.32 26.894 139.484 26.8803C139.641 26.8615 139.8 26.9047 139.926 27.0008C140.052 27.0968 140.136 27.2381 140.16 27.3948Z" fill="#263238"/>
<path d="M139.902 25.4516C139.829 25.54 139.326 25.2136 138.643 25.2558C137.959 25.298 137.491 25.6744 137.402 25.5937C137.314 25.5131 137.433 25.4056 137.644 25.2328C137.925 25.011 138.267 24.8809 138.625 24.8603C138.982 24.8397 139.337 24.9295 139.641 25.1176C139.86 25.2673 139.941 25.4132 139.902 25.4516Z" fill="#263238"/>
<path d="M133.513 27.6671C133.523 27.8325 133.469 27.9957 133.362 28.1218C133.254 28.248 133.102 28.3273 132.937 28.3429C132.856 28.3548 132.775 28.3504 132.696 28.3299C132.618 28.3095 132.544 28.2735 132.48 28.224C132.416 28.1745 132.363 28.1127 132.323 28.042C132.283 27.9714 132.258 27.8935 132.249 27.813C132.237 27.6476 132.291 27.484 132.397 27.3571C132.504 27.2302 132.656 27.1499 132.821 27.1333C132.902 27.1226 132.984 27.1279 133.062 27.1489C133.141 27.17 133.214 27.2064 133.278 27.256C133.343 27.3057 133.396 27.3676 133.437 27.4381C133.477 27.5087 133.503 27.5865 133.513 27.6671Z" fill="#263238"/>
<path d="M133.198 25.993C133.125 26.0813 132.622 25.7549 131.938 25.7971C131.255 25.8394 130.786 26.2157 130.698 26.1351C130.61 26.0544 130.729 25.9469 130.94 25.7741C131.22 25.5453 131.565 25.4109 131.927 25.3901C132.281 25.3676 132.633 25.4577 132.933 25.6474C133.155 25.8087 133.248 25.9546 133.198 25.993Z" fill="#263238"/>
<path d="M135.99 30.9047C136.342 30.7697 136.709 30.6794 137.084 30.6359C137.261 30.609 137.422 30.5629 137.445 30.4439C137.447 30.2626 137.394 30.0849 137.295 29.9332L136.704 28.6353C135.871 26.7882 135.256 25.2676 135.329 25.233C135.402 25.1985 136.139 26.673 136.973 28.5162C137.172 28.9732 137.357 29.4071 137.549 29.8218C137.671 30.0259 137.718 30.2662 137.683 30.5015C137.661 30.5647 137.626 30.6222 137.578 30.6695C137.531 30.7167 137.474 30.7525 137.41 30.7741C137.316 30.8066 137.218 30.8273 137.119 30.8356C136.746 30.9049 136.367 30.9281 135.99 30.9047Z" fill="#263238"/>
<path d="M134.016 31.4883C134.127 31.4883 134.173 32.2179 134.842 32.7056C135.51 33.1932 136.293 33.0627 136.305 33.1664C136.305 33.2124 136.136 33.32 135.805 33.3507C135.371 33.3824 134.939 33.2616 134.584 33.0089C134.245 32.7629 134.014 32.3957 133.939 31.9836C133.885 31.688 133.958 31.4883 134.016 31.4883Z" fill="#263238"/>
<path d="M133.209 23.3053C133.156 23.4973 132.468 23.4512 131.673 23.5971C130.878 23.743 130.241 23.9811 130.137 23.839C130.084 23.7622 130.187 23.5818 130.437 23.3859C130.77 23.1393 131.157 22.976 131.566 22.9098C131.973 22.8365 132.391 22.8602 132.787 22.9789C133.075 23.0787 133.248 23.217 133.209 23.3053Z" fill="#263238"/>
<path d="M139.53 23.4889C139.419 23.654 138.939 23.5196 138.378 23.5465C137.817 23.5733 137.337 23.7154 137.226 23.5465C137.172 23.4697 137.226 23.3084 137.441 23.1625C137.708 22.9641 138.03 22.8552 138.363 22.8514C138.695 22.8356 139.024 22.9242 139.303 23.1049C139.503 23.2546 139.58 23.4236 139.53 23.4889Z" fill="#263238"/>
<path d="M140.16 21.2088C140.16 21.2088 138.816 18.4977 137.434 17.9294C135.763 17.242 135.172 19.0814 133.594 18.732C132.015 18.3825 130.422 17.7374 128.913 19.0315C127.261 20.4484 128.145 21.3163 128.145 23.2939C128.202 31.3156 126.881 33.6619 126.225 29.9256C126.152 29.5147 124.988 29.2574 124.712 27.5256C124.351 25.2792 124.093 22.5336 124.5 20.9054C124.842 19.5268 125.556 18.5476 126.874 17.4494C128.955 15.6907 131.95 15.4718 134.001 15.5294C136.051 15.587 140.16 17.7105 140.16 21.2088Z" fill="#564F52"/>
<path d="M126.524 29.7873C126.509 29.6247 126.461 29.4667 126.383 29.3231C126.305 29.1795 126.199 29.0532 126.071 28.952C125.943 28.8507 125.795 28.7765 125.637 28.734C125.48 28.6914 125.315 28.6814 125.153 28.7045C124.328 28.835 123.433 29.3611 123.594 31.0737C123.878 34.1035 126.866 33.1934 126.862 33.1051C126.858 33.0168 126.655 31.0545 126.524 29.7873Z" fill="#FFBF9D"/>
<path d="M126.094 32.0256C126.094 32.0256 126.044 32.0679 125.96 32.1178C125.842 32.1813 125.705 32.1978 125.576 32.1639C125.242 32.0755 124.927 31.5917 124.858 31.0464C124.827 30.7876 124.854 30.5251 124.938 30.2784C124.958 30.1809 125 30.0895 125.062 30.012C125.124 29.9345 125.204 29.873 125.295 29.833C125.355 29.8122 125.419 29.8122 125.479 29.8332C125.538 29.8541 125.589 29.8947 125.622 29.9482C125.668 30.0327 125.656 30.0941 125.672 30.0979C125.687 30.1018 125.733 30.0403 125.699 29.9175C125.672 29.8447 125.624 29.7818 125.56 29.737C125.471 29.6827 125.363 29.6648 125.261 29.687C125.139 29.7231 125.028 29.7902 124.939 29.8817C124.85 29.9732 124.786 30.086 124.754 30.2093C124.648 30.4843 124.613 30.7811 124.65 31.0733C124.727 31.68 125.092 32.2253 125.541 32.3098C125.625 32.3255 125.711 32.3222 125.794 32.3003C125.876 32.2784 125.952 32.2383 126.017 32.183C126.098 32.1024 126.106 32.0295 126.094 32.0256Z" fill="#8B5D54"/>
<path d="M126.224 23.8964C126.614 24.1763 127.069 24.3533 127.545 24.4109C127.785 24.4335 128.024 24.3679 128.218 24.2265C128.413 24.0851 128.549 23.8776 128.601 23.6429C128.624 23.4317 128.559 23.186 128.686 23.017C128.813 22.848 129.15 22.8519 129.408 22.8634C129.853 22.8692 130.286 22.7221 130.635 22.4467C130.985 22.1713 131.229 21.7843 131.328 21.3504C131.473 21.4923 131.667 21.5746 131.87 21.581C132.073 21.5873 132.272 21.5174 132.426 21.385C132.724 21.1101 132.983 20.7947 133.194 20.448C133.302 20.2759 133.451 20.1327 133.627 20.031C133.803 19.9292 134.001 19.872 134.204 19.8644C134.423 19.9232 134.649 19.958 134.876 19.968C135.26 19.9066 135.437 19.4304 135.475 19.0311C135.513 18.6317 135.529 18.1632 135.859 17.929C136.189 17.6948 136.573 17.7984 136.946 17.833C137.318 17.8676 137.787 17.7485 137.856 17.3837C137.866 17.2861 137.856 17.1875 137.827 17.0938C137.798 17.0001 137.75 16.9132 137.687 16.8384C137.417 16.4865 137.036 16.2358 136.606 16.1271C136.176 16.0184 135.722 16.058 135.317 16.2394C135.131 15.7491 134.804 15.3242 134.379 15.0171C133.953 14.71 133.447 14.5342 132.923 14.5113C132.399 14.4885 131.879 14.6196 131.429 14.8884C130.978 15.1573 130.616 15.5522 130.387 16.0244C130.046 15.7513 129.645 15.5645 129.217 15.48C128.789 15.3955 128.346 15.4158 127.928 15.5391C127.509 15.6625 127.127 15.8852 126.813 16.1883C126.499 16.4915 126.263 16.866 126.125 17.28C125.746 17.2053 125.354 17.2435 124.998 17.3898C124.641 17.5361 124.335 17.7841 124.118 18.1029C123.901 18.4217 123.783 18.7973 123.778 19.1828C123.773 19.5684 123.881 19.947 124.089 20.2714C123.816 20.4277 123.587 20.6505 123.424 20.919C123.26 21.1876 123.166 21.4932 123.152 21.8074C123.183 22.4372 123.832 23.0285 124.431 22.825C124.367 22.9526 124.328 23.0916 124.317 23.2342C124.306 23.3768 124.323 23.5201 124.368 23.6559C124.413 23.7918 124.484 23.9175 124.577 24.026C124.67 24.1345 124.783 24.2235 124.911 24.288C125.039 24.3526 125.178 24.3914 125.32 24.4022C125.463 24.413 125.606 24.3956 125.742 24.3511C125.878 24.3065 126.004 24.2356 126.112 24.1424C126.221 24.0492 126.31 23.9356 126.374 23.808" fill="#564F52"/>
<path d="M135.602 17.123C135.602 17.123 135.602 17.123 135.602 17.1768C135.605 17.2318 135.605 17.2869 135.602 17.3419C135.572 17.5501 135.51 17.7523 135.417 17.941C135.269 18.242 135.054 18.5048 134.788 18.709C134.437 18.981 134.007 19.1319 133.563 19.139L133.609 19.0699C133.665 19.203 133.694 19.346 133.694 19.4904C133.694 19.6348 133.665 19.7778 133.609 19.9109C133.49 20.1887 133.331 20.4475 133.136 20.6789C133.044 20.8179 132.937 20.9467 132.818 21.0629C132.68 21.1714 132.518 21.2439 132.345 21.2741C132.168 21.3107 131.984 21.3033 131.81 21.2524C131.636 21.2015 131.477 21.1088 131.347 20.9822L131.458 20.9438C131.435 21.2617 131.345 21.5712 131.196 21.8528C131.047 22.1344 130.84 22.3819 130.591 22.5797C130.314 22.8103 129.971 22.945 129.611 22.9637C129.272 22.9679 128.935 22.916 128.613 22.8101L128.694 22.7678C128.559 23.1454 128.332 23.4833 128.033 23.7509C127.896 23.8828 127.732 23.9828 127.552 24.0439C127.372 24.1049 127.181 24.1255 126.992 24.1042C126.669 24.0545 126.367 23.9114 126.123 23.6924C125.88 23.4734 125.705 23.1881 125.622 22.8715L125.695 22.9022C125.384 23.0921 125.018 23.1681 124.658 23.1173C124.382 23.0889 124.119 22.9926 123.89 22.837C123.751 22.7417 123.628 22.6236 123.529 22.4875C123.467 22.3915 123.44 22.3378 123.44 22.3378C123.572 22.5172 123.735 22.6719 123.92 22.7947C124.14 22.9333 124.388 23.0187 124.646 23.0443C124.987 23.086 125.332 23.0072 125.622 22.8216L125.679 22.787V22.8523C125.759 23.1496 125.924 23.4171 126.154 23.6218C126.384 23.8265 126.669 23.9594 126.973 24.0043C127.145 24.0239 127.32 24.0043 127.483 23.9471C127.647 23.89 127.795 23.7966 127.918 23.6741C128.198 23.4193 128.411 23.0986 128.536 22.741L128.559 22.6834H128.617C128.923 22.7869 129.245 22.8375 129.569 22.8331C129.901 22.8137 130.218 22.687 130.471 22.4722C130.708 22.2876 130.903 22.0556 131.045 21.7911C131.186 21.5266 131.271 21.2354 131.293 20.9362V20.7941L131.393 20.8978C131.567 21.0596 131.793 21.1558 132.03 21.1698C132.268 21.1838 132.503 21.1148 132.695 20.9746C132.806 20.8687 132.907 20.7516 132.994 20.6251C133.186 20.4016 133.343 20.1505 133.459 19.8802C133.513 19.7598 133.542 19.6299 133.545 19.4981C133.549 19.3663 133.526 19.2351 133.478 19.1122L133.451 19.043H133.524C133.947 19.0439 134.359 18.9093 134.699 18.659C134.959 18.4679 135.173 18.2213 135.325 17.9371C135.467 17.685 135.56 17.4091 135.602 17.123Z" fill="#455A64"/>
<path d="M137.119 27.9323C137.034 27.7008 136.968 27.4634 136.919 27.2219C136.807 26.5647 136.918 25.8889 137.234 25.3019C137.452 24.8962 137.762 24.5476 138.14 24.2843C138.572 23.9815 139.077 23.7987 139.603 23.7544C139.887 23.7304 140.173 23.7485 140.452 23.8081C140.742 23.867 141.021 23.972 141.277 24.1192C141.826 24.4234 142.263 24.8946 142.525 25.4643C142.788 26.034 142.862 26.6726 142.737 27.2872C142.679 27.5782 142.575 27.8582 142.429 28.1166C142.297 28.3672 142.126 28.5953 141.922 28.7925C141.546 29.1635 141.079 29.4285 140.567 29.5605C140.12 29.6712 139.654 29.6791 139.204 29.5835C138.547 29.44 137.957 29.0803 137.529 28.5621C137.378 28.3672 137.241 28.1619 137.119 27.9477C137.14 28.0083 137.166 28.0673 137.195 28.1243C137.228 28.1955 137.266 28.2636 137.311 28.3278C137.364 28.4194 137.424 28.5068 137.491 28.5889C137.85 29.0458 138.334 29.3892 138.884 29.5779C139.433 29.7665 140.026 29.7925 140.59 29.6526C141.119 29.526 141.606 29.261 141.999 28.8846C142.211 28.6793 142.39 28.4422 142.529 28.1819C142.683 27.915 142.79 27.6242 142.848 27.3217C142.978 26.6831 142.901 26.0197 142.629 25.4274C142.357 24.8351 141.904 24.3447 141.335 24.027C141.066 23.8771 140.776 23.7696 140.475 23.7083C140.186 23.6461 139.889 23.6293 139.595 23.6584C139.086 23.701 138.596 23.8716 138.171 24.1542C137.745 24.4368 137.398 24.8223 137.161 25.275C136.839 25.8839 136.737 26.5851 136.873 27.2603C136.892 27.3658 136.919 27.4697 136.953 27.5713C136.974 27.6466 137.001 27.7199 137.034 27.7902C137.058 27.8398 137.087 27.8873 137.119 27.9323Z" fill="#263238"/>
<path d="M129.281 28.3927C129.202 28.1596 129.135 27.9224 129.081 27.6823C128.973 27.0246 129.085 26.3495 129.4 25.7623C129.617 25.3568 129.926 25.0082 130.302 24.7447C130.733 24.4319 131.239 24.2409 131.769 24.1917C132.052 24.1658 132.337 24.1839 132.614 24.2455C132.905 24.305 133.185 24.4099 133.443 24.5565C133.992 24.8598 134.429 25.3304 134.691 25.8997C134.952 26.4689 135.025 27.107 134.899 27.7207C134.785 28.2939 134.501 28.8196 134.085 29.2298C133.735 29.5785 133.303 29.8337 132.828 29.9719C132.354 30.1101 131.852 30.127 131.37 30.0208C130.711 29.8804 130.119 29.5202 129.692 28.9994C129.541 28.8054 129.404 28.6014 129.281 28.3888C129.303 28.4499 129.33 28.509 129.362 28.5655C129.392 28.6366 129.43 28.7048 129.473 28.769C129.528 28.8606 129.589 28.9479 129.657 29.0301C130.081 29.5725 130.679 29.9522 131.351 30.1053C131.849 30.2196 132.367 30.2063 132.859 30.0667C133.35 29.9271 133.798 29.6656 134.162 29.3066C134.375 29.1028 134.555 28.867 134.695 28.6077C134.846 28.3379 134.953 28.0465 135.014 27.7437C135.145 27.103 135.066 26.4372 134.789 25.8446C134.513 25.2521 134.053 24.7641 133.478 24.4528C133.21 24.3013 132.92 24.1937 132.618 24.1341C132.329 24.0719 132.032 24.055 131.739 24.0842C131.194 24.1318 130.671 24.324 130.226 24.641C129.839 24.917 129.524 25.2801 129.304 25.7008C128.983 26.31 128.883 27.0114 129.02 27.6861C129.037 27.7907 129.064 27.8935 129.1 27.9933C129.12 28.07 129.147 28.1446 129.181 28.216C129.21 28.2774 129.243 28.3364 129.281 28.3927Z" fill="#263238"/>
<path d="M135.006 26.4958C135.287 26.3358 135.602 26.2438 135.924 26.2271C136.247 26.2105 136.569 26.2696 136.865 26.3998C136.865 26.3998 136.788 26.3115 136.619 26.2347C136.399 26.1372 136.158 26.093 135.917 26.1056C135.677 26.1183 135.442 26.1875 135.233 26.3077C135.072 26.3845 134.995 26.4689 135.006 26.4958Z" fill="#263238"/>
<path d="M126.248 28.9841C126.736 28.8016 127.209 28.5794 127.661 28.3198C128.133 28.0997 128.588 27.8429 129.02 27.5518C128.532 27.7362 128.06 27.9584 127.607 28.2161C127.136 28.439 126.682 28.6956 126.248 28.9841Z" fill="#263238"/>
<path d="M93.0207 168.587H66.2368V162.667H93.0207V168.587Z" fill="#FFC727"/>
<g opacity="0.1">
<path d="M67.3401 168.045C67.6035 166.478 67.6035 164.879 67.3401 163.312C67.0787 164.879 67.0787 166.478 67.3401 168.045Z" fill="black"/>
<path d="M69.3367 168.045C69.5981 166.478 69.5981 164.879 69.3367 163.312C69.0733 164.879 69.0733 166.478 69.3367 168.045Z" fill="black"/>
<path d="M70.3098 168.045C70.5713 166.478 70.5713 164.879 70.3098 163.312C70.0465 164.879 70.0465 166.478 70.3098 168.045Z" fill="black"/>
<path d="M75.658 168.045C75.9214 166.478 75.9214 164.879 75.658 163.312C75.3966 164.879 75.3966 166.478 75.658 168.045Z" fill="black"/>
<path d="M77.1082 168.045C77.3696 166.478 77.3696 164.879 77.1082 163.312C76.8448 164.879 76.8448 166.478 77.1082 168.045Z" fill="black"/>
<path d="M83.0892 168.045C83.3525 166.478 83.3525 164.879 83.0892 163.312C82.8277 164.879 82.8277 166.478 83.0892 168.045Z" fill="black"/>
<path d="M84.4705 168.045C84.7339 166.478 84.7339 164.879 84.4705 163.312C84.2091 164.879 84.2091 166.478 84.4705 168.045Z" fill="black"/>
<path d="M87.0125 168.045C87.2739 166.478 87.2739 164.879 87.0125 163.312C86.7471 164.878 86.7471 166.478 87.0125 168.045Z" fill="black"/>
<path d="M81.9329 168.045C82.1963 166.478 82.1963 164.879 81.9329 163.312C81.6715 164.879 81.6715 166.478 81.9329 168.045Z" fill="black"/>
<path d="M72.0652 168.045C72.3286 166.478 72.3286 164.879 72.0652 163.312C71.8038 164.879 71.8038 166.478 72.0652 168.045Z" fill="black"/>
<path d="M79.0086 168.045C79.272 166.478 79.272 164.879 79.0086 163.312C78.7471 164.879 78.7471 166.478 79.0086 168.045Z" fill="black"/>
<path d="M80.009 168.045C80.2705 166.478 80.2705 164.879 80.009 163.312C79.7457 164.879 79.7457 166.478 80.009 168.045Z" fill="black"/>
<path d="M90.3186 168.045C90.582 166.478 90.582 164.879 90.3186 163.312C90.0553 164.879 90.0553 166.478 90.3186 168.045Z" fill="black"/>
<path d="M91.8147 168.045C92.0781 166.478 92.0781 164.879 91.8147 163.312C91.5533 164.879 91.5533 166.478 91.8147 168.045Z" fill="black"/>
<path d="M88.1888 168.045C88.4521 166.478 88.4521 164.879 88.1888 163.312C87.9273 164.879 87.9273 166.478 88.1888 168.045Z" fill="black"/>
<path d="M74.5051 168.045C74.7666 166.478 74.7666 164.879 74.5051 163.312C74.2418 164.879 74.2418 166.478 74.5051 168.045Z" fill="black"/>
</g>
<path opacity="0.1" d="M93.0169 168.587V167.331L66.2368 166.484V168.587H93.0169Z" fill="black"/>
<path d="M90.7839 174.508H64V168.588H90.7839V174.508Z" fill="#FFC727"/>
<g opacity="0.1">
<path d="M89.5808 169.229C89.3175 170.796 89.3175 172.395 89.5808 173.962C89.8423 172.395 89.8423 170.796 89.5808 169.229Z" fill="black"/>
<path d="M87.5852 169.229C87.3238 170.796 87.3238 172.395 87.5852 173.962C87.8486 172.395 87.8486 170.796 87.5852 169.229Z" fill="black"/>
<path d="M86.6116 169.229C86.3482 170.796 86.3482 172.395 86.6116 173.962C86.873 172.395 86.873 170.796 86.6116 169.229Z" fill="black"/>
<path d="M81.2639 169.229C81.0006 170.796 81.0006 172.395 81.2639 173.962C81.5254 172.395 81.5254 170.796 81.2639 169.229Z" fill="black"/>
<path d="M79.8138 169.229C79.5523 170.796 79.5523 172.395 79.8138 173.962C80.0771 172.395 80.0771 170.796 79.8138 169.229Z" fill="black"/>
<path d="M73.8323 169.229C73.5689 170.796 73.5689 172.395 73.8323 173.962C74.0937 172.395 74.0937 170.796 73.8323 169.229Z" fill="black"/>
<path d="M72.4467 169.229C72.1844 170.798 72.1844 172.4 72.4467 173.97C72.7101 172.403 72.7101 170.803 72.4467 169.237V169.229Z" fill="black"/>
<path d="M69.909 169.229C69.6475 170.796 69.6475 172.395 69.909 173.962C70.1723 172.395 70.1723 170.796 69.909 169.229Z" fill="black"/>
<path d="M74.9885 169.229C74.7252 170.796 74.7252 172.395 74.9885 173.962C75.25 172.395 75.25 170.796 74.9885 169.229Z" fill="black"/>
<path d="M84.844 169.229C84.5806 170.796 84.5806 172.395 84.844 173.962C85.1055 172.395 85.1055 170.796 84.844 169.229Z" fill="black"/>
<path d="M77.9133 169.229C77.65 170.796 77.65 172.395 77.9133 173.962C78.1748 172.395 78.1748 170.796 77.9133 169.229Z" fill="black"/>
<path d="M76.9129 169.229C76.6514 170.796 76.6514 172.395 76.9129 173.962C77.1762 172.395 77.1762 170.796 76.9129 169.229Z" fill="black"/>
<path d="M66.5994 169.229C66.338 170.796 66.338 172.395 66.5994 173.962C66.8628 172.395 66.8628 170.796 66.5994 169.229Z" fill="black"/>
<path d="M65.1028 169.229C64.8414 170.796 64.8414 172.395 65.1028 173.962C65.3681 172.395 65.3681 170.795 65.1028 169.229Z" fill="black"/>
<path d="M68.7322 169.229C68.4688 170.796 68.4688 172.395 68.7322 173.962C68.9936 172.395 68.9936 170.796 68.7322 169.229Z" fill="black"/>
<path d="M82.4168 169.229C82.1553 170.796 82.1553 172.395 82.4168 173.962C82.6802 172.395 82.6802 170.796 82.4168 169.229Z" fill="black"/>
</g>
<path opacity="0.1" d="M90.7839 174.503V173.247L64 172.404V174.503H90.7839Z" fill="black"/>
<path d="M92.8488 180.374H66.0649V174.454H92.8488V180.374Z" fill="#FFC727"/>
<g opacity="0.1">
<path d="M67.1668 179.832C67.4302 178.265 67.4302 176.666 67.1668 175.099C66.9053 176.666 66.9053 178.265 67.1668 179.832Z" fill="black"/>
<path d="M69.1633 179.833C69.4248 178.266 69.4248 176.667 69.1633 175.1C68.9 176.667 68.9 178.266 69.1633 179.833Z" fill="black"/>
<path d="M70.156 179.832C70.4158 178.271 70.4158 176.676 70.156 175.115C69.8946 176.681 69.8946 178.281 70.156 179.848V179.832Z" fill="black"/>
<path d="M75.4998 179.832C75.7615 178.271 75.7615 176.676 75.4998 175.115C75.2383 176.681 75.2383 178.281 75.4998 179.848V179.832Z" fill="black"/>
<path d="M76.9348 179.833C77.1963 178.266 77.1963 176.667 76.9348 175.1C76.6715 176.667 76.6715 178.266 76.9348 179.833Z" fill="black"/>
<path d="M82.9158 179.833C83.1792 178.266 83.1792 176.667 82.9158 175.1C82.6544 176.667 82.6544 178.266 82.9158 179.833Z" fill="black"/>
<path d="M84.302 179.833C84.5635 178.266 84.5635 176.667 84.302 175.1C84.0367 176.666 84.0367 178.266 84.302 179.833Z" fill="black"/>
<path d="M86.8396 179.833C87.1011 178.266 87.1011 176.667 86.8396 175.1C86.5762 176.667 86.5762 178.266 86.8396 179.833Z" fill="black"/>
<path d="M81.7596 179.833C82.0229 178.266 82.0229 176.667 81.7596 175.1C81.4981 176.667 81.4981 178.266 81.7596 179.833Z" fill="black"/>
<path d="M71.9031 179.833C72.1665 178.266 72.1665 176.667 71.9031 175.1C71.6417 176.667 71.6417 178.266 71.9031 179.833Z" fill="black"/>
<path d="M78.8352 179.833C79.0986 178.266 79.0986 176.667 78.8352 175.1C78.5738 176.667 78.5738 178.266 78.8352 179.833Z" fill="black"/>
<path d="M79.8357 179.833C80.0972 178.266 80.0972 176.667 79.8357 175.1C79.5723 176.667 79.5723 178.266 79.8357 179.833Z" fill="black"/>
<path d="M90.1492 179.833C90.4106 178.266 90.4106 176.667 90.1492 175.1C89.8858 176.667 89.8858 178.266 90.1492 179.833Z" fill="black"/>
<path d="M91.6414 179.833C91.9048 178.266 91.9048 176.667 91.6414 175.1C91.3799 176.667 91.3799 178.266 91.6414 179.833Z" fill="black"/>
<path d="M88.0154 179.833C88.2788 178.266 88.2788 176.667 88.0154 175.1C87.754 176.667 87.754 178.266 88.0154 179.833Z" fill="black"/>
<path d="M74.3318 179.833C74.5933 178.266 74.5933 176.667 74.3318 175.1C74.0684 176.667 74.0684 178.266 74.3318 179.833Z" fill="black"/>
</g>
<path opacity="0.1" d="M92.845 180.374V179.118L66.0649 178.271V180.374H92.845Z" fill="black"/>
<path d="M253.228 173.556H219.986V180.903H253.228V173.556Z" fill="#FFC727"/>
<g opacity="0.1">
<path d="M221.355 174.228C221.679 176.172 221.679 178.157 221.355 180.102C221.028 178.157 221.028 176.172 221.355 174.228Z" fill="black"/>
<path d="M223.813 174.228C224.14 176.172 224.14 178.157 223.813 180.102C223.489 178.157 223.489 176.172 223.813 174.228Z" fill="black"/>
<path d="M225.041 174.228C225.365 176.172 225.365 178.157 225.041 180.102C224.714 178.157 224.714 176.172 225.041 174.228Z" fill="black"/>
<path d="M231.677 174.228C232.004 176.172 232.004 178.157 231.677 180.102C231.353 178.157 231.353 176.172 231.677 174.228Z" fill="black"/>
<path d="M233.473 174.228C233.8 176.172 233.8 178.157 233.473 180.102C233.149 178.157 233.149 176.172 233.473 174.228Z" fill="black"/>
<path d="M240.901 174.228C241.228 176.172 241.228 178.157 240.901 180.102C240.577 178.157 240.577 176.172 240.901 174.228Z" fill="black"/>
<path d="M242.616 174.228C242.943 176.172 242.943 178.157 242.616 180.102C242.291 178.157 242.291 176.172 242.616 174.228Z" fill="black"/>
<path d="M245.766 174.228C246.093 176.172 246.093 178.157 245.766 180.102C245.442 178.157 245.442 176.172 245.766 174.228Z" fill="black"/>
<path d="M239.446 174.228C239.773 176.172 239.773 178.157 239.446 180.102C239.122 178.157 239.122 176.172 239.446 174.228Z" fill="black"/>
<path d="M227.234 174.228C227.559 176.172 227.559 178.157 227.234 180.102C226.908 178.157 226.908 176.172 227.234 174.228Z" fill="black"/>
<path d="M235.837 174.228C236.164 176.172 236.164 178.157 235.837 180.102C235.513 178.157 235.513 176.172 235.837 174.228Z" fill="black"/>
<path d="M237.077 174.228C237.404 176.172 237.404 178.157 237.077 180.102C236.753 178.157 236.753 176.172 237.077 174.228Z" fill="black"/>
<path d="M249.869 174.228C250.196 176.172 250.196 178.157 249.869 180.102C249.544 178.157 249.544 176.172 249.869 174.228Z" fill="black"/>
<path d="M251.731 174.228C252.058 176.172 252.058 178.157 251.731 180.102C251.406 178.157 251.406 176.172 251.731 174.228Z" fill="black"/>
<path d="M247.23 174.228C247.557 176.172 247.557 178.157 247.23 180.102C246.906 178.157 246.906 176.172 247.23 174.228Z" fill="black"/>
<path d="M230.242 174.228C230.569 176.172 230.569 178.157 230.242 180.102C229.917 178.157 229.917 176.172 230.242 174.228Z" fill="black"/>
</g>
<path opacity="0.1" d="M253.223 173.556V175.114L219.986 176.166V173.556H253.223Z" fill="black"/>
<path d="M249.727 166.208H216.485V173.555H249.727V166.208Z" fill="#FFC727"/>
<g opacity="0.1">
<path d="M217.855 166.875C218.182 168.819 218.182 170.805 217.855 172.749C217.53 170.805 217.53 168.82 217.855 166.875Z" fill="black"/>
<path d="M220.333 166.875C220.657 168.82 220.657 170.805 220.333 172.749C220.006 170.805 220.006 168.819 220.333 166.875Z" fill="black"/>
<path d="M221.54 166.875C221.867 168.819 221.867 170.805 221.54 172.749C221.216 170.805 221.216 168.82 221.54 166.875Z" fill="black"/>
<path d="M228.182 166.875C228.506 168.82 228.506 170.805 228.182 172.749C227.855 170.805 227.855 168.819 228.182 166.875Z" fill="black"/>
<path d="M229.973 166.875C230.297 168.82 230.297 170.805 229.973 172.749C229.646 170.805 229.646 168.819 229.973 166.875Z" fill="black"/>
<path d="M237.401 166.875C237.727 168.819 237.727 170.805 237.401 172.749C237.076 170.805 237.076 168.82 237.401 166.875Z" fill="black"/>
<path d="M239.121 166.875C239.445 168.82 239.445 170.805 239.121 172.749C238.794 170.805 238.794 168.819 239.121 166.875Z" fill="black"/>
<path d="M242.289 166.875C242.614 168.82 242.614 170.805 242.289 172.749C241.962 170.805 241.962 168.819 242.289 166.875Z" fill="black"/>
<path d="M235.97 166.875C236.295 168.82 236.295 170.805 235.97 172.749C235.643 170.805 235.643 168.819 235.97 166.875Z" fill="black"/>
<path d="M223.734 166.875C224.061 168.819 224.061 170.805 223.734 172.749C223.41 170.805 223.41 168.82 223.734 166.875Z" fill="black"/>
<path d="M232.341 166.875C232.668 168.819 232.668 170.805 232.341 172.749C232.014 170.805 232.014 168.819 232.341 166.875Z" fill="black"/>
<path d="M233.578 166.875C233.902 168.82 233.902 170.805 233.578 172.749C233.251 170.805 233.251 168.819 233.578 166.875Z" fill="black"/>
<path d="M246.377 166.875C246.702 168.82 246.702 170.805 246.377 172.749C246.051 170.805 246.051 168.819 246.377 166.875Z" fill="black"/>
<path d="M248.234 166.875C248.559 168.82 248.559 170.805 248.234 172.749C247.908 170.805 247.908 168.819 248.234 166.875Z" fill="black"/>
<path d="M243.71 166.875C244.037 168.819 244.037 170.805 243.71 172.749C243.386 170.805 243.386 168.82 243.71 166.875Z" fill="black"/>
<path d="M226.747 166.875C227.071 168.82 227.071 170.805 226.747 172.749C226.42 170.805 226.42 168.819 226.747 166.875Z" fill="black"/>
</g>
<path opacity="0.1" d="M249.727 166.212V167.77L216.485 168.817V166.212H249.727Z" fill="black"/>
<path d="M256.089 151.578H222.848V158.926H256.089V151.578Z" fill="#FFC727"/>
<g opacity="0.1">
<path d="M224.217 152.252C224.541 154.198 224.541 156.185 224.217 158.131C223.893 156.185 223.893 154.198 224.217 152.252Z" fill="black"/>
<path d="M226.695 152.252C227.019 154.198 227.019 156.185 226.695 158.131C226.368 156.185 226.368 154.198 226.695 152.252Z" fill="black"/>
<path d="M227.902 152.252C228.227 154.198 228.227 156.185 227.902 158.131C227.576 156.185 227.576 154.198 227.902 152.252Z" fill="black"/>
<path d="M234.54 152.252C234.867 154.198 234.867 156.185 234.54 158.131C234.215 156.185 234.215 154.198 234.54 152.252Z" fill="black"/>
<path d="M236.335 152.252C236.664 154.198 236.664 156.185 236.335 158.131C236.011 156.185 236.011 154.198 236.335 152.252Z" fill="black"/>
<path d="M243.763 152.252C244.09 154.198 244.09 156.185 243.763 158.131C243.438 156.185 243.438 154.198 243.763 152.252Z" fill="black"/>
<path d="M245.478 152.252C245.805 154.198 245.805 156.185 245.478 158.131C245.153 156.185 245.153 154.198 245.478 152.252Z" fill="black"/>
<path d="M248.629 152.252C248.955 154.198 248.955 156.185 248.629 158.131C248.304 156.185 248.304 154.198 248.629 152.252Z" fill="black"/>
<path d="M242.327 152.252C242.654 154.198 242.654 156.185 242.327 158.131C242.003 156.185 242.003 154.198 242.327 152.252Z" fill="black"/>
<path d="M230.096 152.252C230.423 154.198 230.423 156.185 230.096 158.131C229.772 156.185 229.772 154.198 230.096 152.252Z" fill="black"/>
<path d="M238.699 152.252C239.026 154.198 239.026 156.185 238.699 158.131C238.374 156.185 238.374 154.198 238.699 152.252Z" fill="black"/>
<path d="M239.921 152.252C240.245 154.198 240.245 156.185 239.921 158.131C239.594 156.185 239.594 154.198 239.921 152.252Z" fill="black"/>
<path d="M252.736 152.252C253.062 154.198 253.062 156.185 252.736 158.131C252.411 156.185 252.411 154.198 252.736 152.252Z" fill="black"/>
<path d="M254.607 152.252C254.934 154.198 254.934 156.185 254.607 158.131C254.282 156.185 254.282 154.198 254.607 152.252Z" fill="black"/>
<path d="M250.092 152.252C250.419 154.198 250.419 156.185 250.092 158.131C249.768 156.185 249.768 154.198 250.092 152.252Z" fill="black"/>
<path d="M233.104 152.252C233.431 154.198 233.431 156.185 233.104 158.131C232.779 156.185 232.779 154.198 233.104 152.252Z" fill="black"/>
</g>
<path opacity="0.1" d="M256.084 151.578V153.141L222.848 154.188V151.578H256.084Z" fill="black"/>
<path d="M255.251 144.236H222.009V151.584H255.251V144.236Z" fill="#FFC727"/>
<g opacity="0.1">
<path d="M253.754 150.769C253.429 148.824 253.429 146.839 253.754 144.895C254.08 146.839 254.08 148.824 253.754 150.769Z" fill="black"/>
<path d="M251.29 150.769C250.963 148.824 250.963 146.839 251.29 144.895C251.614 146.839 251.614 148.824 251.29 150.769Z" fill="black"/>
<path d="M250.068 150.769C249.744 148.824 249.744 146.839 250.068 144.895C250.395 146.839 250.395 148.824 250.068 150.769Z" fill="black"/>
<path d="M243.431 150.769C243.104 148.824 243.104 146.839 243.431 144.895C243.755 146.839 243.755 148.824 243.431 150.769Z" fill="black"/>
<path d="M241.635 150.769C241.308 148.824 241.308 146.839 241.635 144.895C241.96 146.839 241.96 148.824 241.635 150.769Z" fill="black"/>
<path d="M234.207 150.769C233.883 148.824 233.883 146.839 234.207 144.895C234.534 146.839 234.534 148.824 234.207 150.769Z" fill="black"/>
<path d="M232.493 150.769C232.166 148.824 232.166 146.839 232.493 144.895C232.817 146.839 232.817 148.824 232.493 150.769Z" fill="black"/>
<path d="M229.342 150.769C229.015 148.824 229.015 146.839 229.342 144.895C229.667 146.839 229.667 148.824 229.342 150.769Z" fill="black"/>
<path d="M235.657 150.769C235.33 148.824 235.33 146.839 235.657 144.895C235.982 146.839 235.982 148.824 235.657 150.769Z" fill="black"/>
<path d="M247.874 150.769C247.55 148.824 247.55 146.839 247.874 144.895C248.201 146.839 248.201 148.824 247.874 150.769Z" fill="black"/>
<path d="M239.272 150.769C238.945 148.824 238.945 146.839 239.272 144.895C239.596 146.839 239.596 148.824 239.272 150.769Z" fill="black"/>
<path d="M238.026 150.769C237.699 148.824 237.699 146.839 238.026 144.895C238.35 146.839 238.35 148.824 238.026 150.769Z" fill="black"/>
<path d="M225.235 150.769C224.908 148.824 224.908 146.839 225.235 144.895C225.559 146.839 225.559 148.824 225.235 150.769Z" fill="black"/>
<path d="M223.378 150.769C223.051 148.824 223.051 146.839 223.378 144.895C223.702 146.839 223.702 148.824 223.378 150.769Z" fill="black"/>
<path d="M227.879 150.769C227.554 148.824 227.554 146.839 227.879 144.895C228.203 146.839 228.203 148.824 227.879 150.769Z" fill="black"/>
<path d="M244.867 150.769C244.54 148.824 244.54 146.839 244.867 144.895C245.191 146.839 245.191 148.824 244.867 150.769Z" fill="black"/>
</g>
<path opacity="0.1" d="M255.246 144.236V145.795L222.009 146.842V144.236H255.246Z" fill="black"/>
<path d="M250.243 136.889H217.002V144.236H250.243V136.889Z" fill="#FFC727"/>
<g opacity="0.1">
<path d="M218.371 137.562C218.695 139.508 218.695 141.494 218.371 143.44C218.044 141.494 218.044 139.508 218.371 137.562Z" fill="black"/>
<path d="M220.843 137.562C221.17 139.508 221.17 141.494 220.843 143.44C220.519 141.494 220.519 139.508 220.843 137.562Z" fill="black"/>
<path d="M222.056 137.562C222.381 139.508 222.381 141.494 222.056 143.44C221.729 141.494 221.729 139.508 222.056 137.562Z" fill="black"/>
<path d="M228.693 137.562C229.02 139.508 229.02 141.494 228.693 143.44C228.369 141.494 228.369 139.508 228.693 137.562Z" fill="black"/>
<path d="M230.489 137.562C230.816 139.508 230.816 141.494 230.489 143.44C230.164 141.494 230.164 139.508 230.489 137.562Z" fill="black"/>
<path d="M237.917 137.562C238.241 139.508 238.241 141.494 237.917 143.44C237.59 141.494 237.59 139.508 237.917 137.562Z" fill="black"/>
<path d="M239.632 137.562C239.958 139.508 239.958 141.494 239.632 143.44C239.307 141.494 239.307 139.508 239.632 137.562Z" fill="black"/>
<path d="M242.763 137.562C243.09 139.508 243.09 141.494 242.763 143.44C242.438 141.494 242.438 139.508 242.763 137.562Z" fill="black"/>
<path d="M236.481 137.562C236.808 139.508 236.808 141.494 236.481 143.44C236.156 141.494 236.156 139.508 236.481 137.562Z" fill="black"/>
<path d="M224.25 137.562C224.575 139.508 224.575 141.494 224.25 143.44C223.923 141.494 223.923 139.508 224.25 137.562Z" fill="black"/>
<path d="M232.853 137.562C233.177 139.508 233.177 141.494 232.853 143.44C232.528 141.494 232.528 139.508 232.853 137.562Z" fill="black"/>
<path d="M234.089 137.562C234.415 139.508 234.415 141.494 234.089 143.44C233.764 141.494 233.764 139.508 234.089 137.562Z" fill="black"/>
<path d="M246.889 137.562C247.216 139.508 247.216 141.494 246.889 143.44C246.564 141.494 246.564 139.508 246.889 137.562Z" fill="black"/>
<path d="M248.746 137.562C249.073 139.508 249.073 141.494 248.746 143.44C248.422 141.494 248.422 139.508 248.746 137.562Z" fill="black"/>
<path d="M244.246 137.562C244.57 139.508 244.57 141.494 244.246 143.44C243.921 141.494 243.921 139.508 244.246 137.562Z" fill="black"/>
<path d="M227.258 137.562C227.584 139.508 227.584 141.494 227.258 143.44C226.933 141.494 226.933 139.508 227.258 137.562Z" fill="black"/>
</g>
<path opacity="0.1" d="M250.239 136.889V138.452L216.998 139.499V136.889H250.239Z" fill="black"/>
<path d="M253.228 158.926H219.986V166.273H253.228V158.926Z" fill="#FFC727"/>
<g opacity="0.1">
<path d="M251.731 165.454C251.406 163.51 251.406 161.525 251.731 159.58C252.058 161.525 252.058 163.51 251.731 165.454Z" fill="black"/>
<path d="M249.257 165.454C248.93 163.51 248.93 161.525 249.257 159.58C249.582 161.525 249.582 163.51 249.257 165.454Z" fill="black"/>
<path d="M248.045 165.454C247.72 163.51 247.72 161.525 248.045 159.58C248.371 161.525 248.371 163.51 248.045 165.454Z" fill="black"/>
<path d="M241.408 165.454C241.081 163.51 241.081 161.525 241.408 159.58C241.732 161.525 241.732 163.51 241.408 165.454Z" fill="black"/>
<path d="M239.612 165.454C239.285 163.51 239.285 161.525 239.612 159.58C239.937 161.525 239.937 163.51 239.612 165.454Z" fill="black"/>
<path d="M232.184 165.454C231.86 163.51 231.86 161.525 232.184 159.58C232.511 161.525 232.511 163.51 232.184 165.454Z" fill="black"/>
<path d="M230.469 165.454C230.142 163.51 230.142 161.525 230.469 159.58C230.794 161.525 230.794 163.51 230.469 165.454Z" fill="black"/>
<path d="M227.319 165.454C226.992 163.51 226.992 161.525 227.319 159.58C227.643 161.525 227.643 163.51 227.319 165.454Z" fill="black"/>
<path d="M233.62 165.454C233.295 163.51 233.295 161.525 233.62 159.58C233.944 161.525 233.944 163.51 233.62 165.454Z" fill="black"/>
<path d="M245.851 165.454C245.527 163.51 245.527 161.525 245.851 159.58C246.178 161.525 246.178 163.51 245.851 165.454Z" fill="black"/>
<path d="M237.248 165.454C236.924 163.51 236.924 161.525 237.248 159.58C237.573 161.525 237.573 163.51 237.248 165.454Z" fill="black"/>
<path d="M236.013 165.454C235.686 163.51 235.686 161.525 236.013 159.58C236.337 161.525 236.337 163.51 236.013 165.454Z" fill="black"/>
<path d="M223.212 165.454C222.885 163.51 222.885 161.525 223.212 159.58C223.536 161.525 223.536 163.51 223.212 165.454Z" fill="black"/>
<path d="M221.355 165.454C221.028 163.51 221.028 161.525 221.355 159.58C221.679 161.525 221.679 163.51 221.355 165.454Z" fill="black"/>
<path d="M225.856 165.454C225.531 163.51 225.531 161.525 225.856 159.58C226.183 161.525 226.183 163.51 225.856 165.454Z" fill="black"/>
<path d="M242.844 165.454C242.517 163.51 242.517 161.525 242.844 159.58C243.168 161.525 243.168 163.51 242.844 165.454Z" fill="black"/>
</g>
<path opacity="0.1" d="M253.223 158.926V160.484L219.986 161.536V158.926H253.223Z" fill="black"/>
<path d="M217.371 148.158C239.252 152.085 233.478 184.502 211.554 180.571C189.63 176.639 195.452 144.226 217.371 148.158Z" fill="#FFC727"/>
<path opacity="0.1" d="M217.371 148.158C239.252 152.085 233.478 184.502 211.554 180.571C189.63 176.639 195.452 144.226 217.371 148.158Z" fill="black"/>
<path d="M215.315 147.794C236.159 151.536 230.389 183.949 209.498 180.201C188.607 176.454 194.443 144.042 215.315 147.794Z" fill="#FFC727"/>
<path opacity="0.1" d="M199.18 164.758C199.294 170.533 202.657 176.127 209.995 177.444C227.329 180.557 232.128 153.654 214.823 150.546L214.481 150.494C230.711 153.744 226.059 179.202 209.531 176.236C202.79 175.028 199.54 170.04 199.18 164.758Z" fill="black"/>
<g opacity="0.1">
<path d="M214.211 153.909C214.352 153.946 214.472 154.037 214.547 154.162C214.621 154.287 214.643 154.436 214.609 154.577L214.386 155.463C215.804 155.937 217.047 156.822 217.958 158.007C218.036 158.082 218.094 158.176 218.126 158.28C218.159 158.383 218.164 158.493 218.143 158.599C218.102 158.748 218.004 158.875 217.87 158.952C217.736 159.029 217.577 159.051 217.428 159.011C217.353 158.996 217.282 158.965 217.219 158.921C217.156 158.877 217.103 158.821 217.063 158.756C216.317 157.72 215.282 156.928 214.088 156.477L212.534 162.702C215.736 164.26 216.845 165.88 216.3 168.06C215.713 170.428 213.316 171.594 210.516 170.987L210.085 172.721C210.05 172.863 209.959 172.985 209.834 173.061C209.709 173.136 209.559 173.159 209.417 173.124C209.275 173.089 209.153 172.998 209.077 172.873C209.002 172.748 208.979 172.598 209.014 172.456L209.455 170.698C207.626 170.095 206.053 168.895 204.988 167.292C204.925 167.221 204.881 167.137 204.859 167.045C204.837 166.953 204.837 166.858 204.86 166.766C204.903 166.622 204.998 166.5 205.127 166.423C205.256 166.346 205.409 166.319 205.556 166.349C205.63 166.366 205.7 166.397 205.762 166.441C205.824 166.485 205.876 166.541 205.916 166.605C206.801 168.048 208.154 169.143 209.748 169.708L211.331 163.37C208.176 161.806 207.1 160.238 207.659 158.017C208.218 155.795 210.601 154.544 213.344 155.174L213.557 154.326C213.591 154.186 213.678 154.064 213.8 153.986C213.922 153.908 214.069 153.881 214.211 153.909ZM211.61 162.238L213.126 156.164C210.956 155.691 209.213 156.605 208.815 158.206C208.436 159.722 208.915 160.831 211.61 162.238ZM212.25 163.839L210.72 169.997C212.956 170.504 214.723 169.576 215.144 167.884C215.528 166.331 214.983 165.203 212.25 163.839Z" fill="black"/>
</g>
</svg>
