<svg width="108" height="108" viewBox="0 0 108 108" fill="none" xmlns="http://www.w3.org/2000/svg">
    <path d="M36 94.5H90C92.3869 94.5 94.6761 93.5518 96.364 91.864C98.0518 90.1761 99 87.8869 99 85.5V76.5H45V85.5C45 87.8869 44.0518 90.1761 42.364 91.864C40.6761 93.5518 38.3869 94.5 36 94.5ZM36 94.5C33.6131 94.5 31.3239 93.5518 29.636 91.864C27.9482 90.1761 27 87.8869 27 85.5V22.5C27 20.1131 26.0518 17.8239 24.364 16.136C22.6761 14.4482 20.3869 13.5 18 13.5C15.6131 13.5 13.3239 14.4482 11.636 16.136C9.94821 17.8239 9 20.1131 9 22.5V36H27" stroke="#E4E4E4" stroke-width="3.5" stroke-linecap="round" stroke-linejoin="round"/>
    <path d="M85.5 76.5V22.5C85.5 20.1131 84.5518 17.8239 82.864 16.136C81.1761 14.4482 78.8869 13.5 76.5 13.5H18" stroke="#E4E4E4" stroke-width="3.5" stroke-linecap="round" stroke-linejoin="round"/>
    <path d="M67.5 36H45" stroke="#E4E4E4" stroke-width="3.5" stroke-linecap="round" stroke-linejoin="round"/>
    <path d="M67.5 54H45" stroke="#E4E4E4" stroke-width="3.5" stroke-linecap="round" stroke-linejoin="round"/>
</svg>
