<svg width="15" height="15" viewBox="0 0 15 15" fill="none" xmlns="http://www.w3.org/2000/svg">
    <g clip-path="url(#clip0_200_3432)">
        <path d="M6.1749 6.1748C5.99068 6.34646 5.84292 6.55346 5.74044 6.78346C5.63796 7.01346 5.58286 7.26174 5.57842 7.5135C5.57397 7.76526 5.62029 8.01533 5.71459 8.2488C5.80889 8.48227 5.94925 8.69435 6.1273 8.8724C6.30535 9.05045 6.51743 9.19081 6.7509 9.28511C6.98437 9.37941 7.23445 9.42573 7.4862 9.42128C7.73796 9.41684 7.98624 9.36174 8.21624 9.25926C8.44624 9.15678 8.65324 9.00902 8.8249 8.8248" stroke="#D3D3D3" stroke-linecap="round" stroke-linejoin="round"/>
        <path d="M6.70703 3.175C6.97035 3.14219 7.23543 3.1255 7.50078 3.125C11.8758 3.125 13.7508 7.5 13.7508 7.5C13.4714 8.0982 13.1209 8.66058 12.707 9.175" stroke="#D3D3D3" stroke-linecap="round" stroke-linejoin="round"/>
        <path d="M4.13125 4.13086C2.88828 4.9775 1.89367 6.1404 1.25 7.49961C1.25 7.49961 3.125 11.8746 7.5 11.8746C8.69744 11.8778 9.86924 11.5278 10.8687 10.8684" stroke="#D3D3D3" stroke-linecap="round" stroke-linejoin="round"/>
        <path d="M1.25 1.25L13.75 13.75" stroke="#D3D3D3" stroke-linecap="round" stroke-linejoin="round"/>
    </g>
    <defs>
        <clipPath id="clip0_200_3432">
            <rect width="15" height="15" fill="white"/>
        </clipPath>
    </defs>
</svg>
