<svg width="192" height="192" viewBox="0 0 192 192" fill="none" xmlns="http://www.w3.org/2000/svg">
    <path d="M70.6515 170.403H20.6777V120.588H70.6515V170.403ZM63.7025 127.509H27.6209V163.482H63.7083L63.7025 127.509Z" fill="white"/>
    <path d="M56.508 156.305H34.8213V134.687H56.508V156.305Z" fill="white"/>
    <path d="M121.354 170.403V120.588H171.327V170.403H121.354ZM164.379 127.509H128.292V163.482H164.379V127.509Z" fill="white"/>
    <path d="M157.179 156.305H135.492V134.687H157.179V156.305Z" fill="white"/>
    <path d="M20.6777 20.8754H70.6515V70.6904H20.6777V20.8754ZM27.6267 63.7693H63.7083V27.7931H27.6209L27.6267 63.7693Z" fill="white"/>
    <path d="M56.508 56.5918H34.8213V34.974H56.508V56.5918Z" fill="white"/>
    <path d="M34.8213 113.489H20.6777V106.335H34.8213V113.489Z" fill="white"/>
    <path d="M63.5796 105.994H70.7903V99.1435H56.5078V98.1645V91.988V84.8556V77.7012V77.6977H63.5796V77.7012H78.0659V84.8556H63.5796V91.988H78.0659V84.859H85.1377V91.988V98.1645V99.1435H77.8621V113.173H70.7903V113.149H63.5796V105.994Z" fill="white"/>
    <path d="M106.182 91.9893V84.8337H99.1103V77.7013H92.0385V70.5423H85.1382V63.433H78.0664V77.6978L85.1382 77.7013V84.8557H92.2099V91.9893H106.182Z" fill="white"/>
    <path d="M120.783 56.591V63.4325V63.7466V70.5869H113.711V63.7466H92.2094V56.591H99.1955V49.0118H92.2094V56.591H85.1376V49.1584H77.8887V42.0029H85.1376V34.9732H77.8887V20.8746H85.1376H91.8608H92.2094V34.9732H99.1955V42.1392H106.267V56.591H120.783Z" fill="white"/>
    <path d="M113.339 34.9737V27.8194H134.883V20.665H156.624V27.8194H141.912V34.9737V42.1396H134.84V34.9737H113.339Z" fill="white"/>
    <path d="M113.339 27.8193H99.2812V20.665H113.339V27.8193Z" fill="white"/>
    <path d="M120.922 99.1436H106.182V91.9892H120.922V99.1436Z" fill="white"/>
    <path d="M163.164 91.9833V84.9225H170.206V77.7554H163.134V84.9225H156.062V77.7554H148.991V84.9225H141.969V99.1389L155.984 99.1516V106.107H148.737V113.262H163.057V106.107H163.055V99.1389H170.421V91.9833H163.164Z" fill="white"/>
    <path d="M99.1104 77.6981V70.5437H106.182V77.6796H113.254V84.834H106.182V77.6981H99.1104Z" fill="white"/>
    <path d="M113.339 42.1396H106.268V34.9737H113.339V42.1396Z" fill="white"/>
    <path d="M156.063 42.1484H148.991V34.9825H156.063V42.1484Z" fill="white"/>
    <path d="M127.868 84.834H120.796V77.6796H127.868V84.834Z" fill="white"/>
    <path d="M120.922 99.1437H127.994V106.098H142.27V113.254H120.922V106.098V99.1437Z" fill="white"/>
    <path d="M27.7495 99.1738H20.6777V77.698H27.7495V99.1738Z" fill="white"/>
    <path d="M84.8993 113.149H85.1379V99.1437H92.2097V106.513H99.2814V113.149H109.802V113.173H113.749V141.846H106.678V134.413H99.2814V127.364H106.678V120.198H99.2814V127.364H92.2097V120.198H84.9341V141.732H92.0058V170.403H84.9341V163.235H77.8623V148.899H84.9341V141.846H77.8623V113.173H84.8993V113.149Z" fill="white"/>
    <path d="M163.135 63.514V56.0329H156.063V63.514H148.988V77.7558H141.97V84.9229H134.898V77.6796H127.871V56.5929H120.783V49.435H127.199V42.1375H134.843V49.435H141.915V56.6079V56.5986H148.98V49.4408H156.052V42.1444H163.123V27.8969H170.195V63.514H163.135ZM141.913 63.7565H134.939V70.6349H141.917L141.913 63.7565Z" fill="white"/>
    <path d="M163.134 77.7559H156.062V63.5141H163.134V77.7559Z" fill="white"/>
    <path d="M148.992 49.4453H141.917V42.1478H148.992V49.4453Z" fill="white"/>
    <path d="M113.693 163.354V170.403H106.677H101.274H99.2812V155.945H106.677V163.354H113.693Z" fill="white"/>
    <path d="M106.677 148.896H99.2812V141.846H106.677V148.896Z" fill="white"/>
    <path d="M114.074 155.944H106.678V148.895H114.074V155.944Z" fill="white"/>
    <path d="M48.9643 84.8594H41.8926V77.6981H48.9643V84.8594Z" fill="white"/>
    <path d="M48.9648 91.6726V113.148H41.8931V106.335H34.8213V84.8588H41.8931V91.6726H48.9648Z" fill="white"/>
    <path d="M2.94922 153.787C2.16704 153.787 1.41689 154.098 0.863808 154.651C0.310721 155.204 0 155.954 0 156.736L0 188.119C0 188.901 0.310721 189.651 0.863808 190.205C1.41689 190.758 2.16704 191.068 2.94922 191.068H34.3323C35.1145 191.068 35.8647 190.758 36.4177 190.205C36.9708 189.651 37.2816 188.901 37.2816 188.119C37.2816 187.337 36.9708 186.587 36.4177 186.034C35.8647 185.481 35.1145 185.17 34.3323 185.17H5.89845V156.736C5.89845 155.954 5.58773 155.204 5.03464 154.651C4.48155 154.098 3.73141 153.787 2.94922 153.787Z" fill="white"/>
    <path d="M189.05 153.787C188.268 153.787 187.517 154.098 186.964 154.651C186.411 155.204 186.1 155.954 186.1 156.736V185.17H157.668C156.886 185.17 156.136 185.481 155.583 186.034C155.029 186.587 154.719 187.337 154.719 188.119C154.719 188.901 155.029 189.651 155.583 190.205C156.136 190.758 156.886 191.068 157.668 191.068H189.05C189.832 191.068 190.582 190.758 191.136 190.205C191.689 189.652 192 188.901 192 188.119V156.736C192 155.954 191.689 155.204 191.136 154.651C190.582 154.097 189.832 153.787 189.05 153.787Z" fill="white"/>
    <path d="M34.3323 -0.000305176H2.94922C2.56193 -0.000305176 2.17842 0.0759697 1.8206 0.22419C1.46279 0.372406 1.13767 0.589661 0.863808 0.863529C0.589947 1.1374 0.372709 1.46252 0.224496 1.82035C0.0762839 2.17818 0 2.5617 0 2.94901L0 34.3319C0 35.1141 0.310721 35.8643 0.863808 36.4174C1.41689 36.9705 2.16704 37.2812 2.94922 37.2812C3.73141 37.2812 4.48155 36.9705 5.03464 36.4174C5.58773 35.8643 5.89845 35.1141 5.89845 34.3319V5.89833H34.3323C35.1145 5.89833 35.8647 5.5876 36.4177 5.03449C36.9708 4.48139 37.2816 3.73121 37.2816 2.94901C37.2816 2.16679 36.9708 1.41663 36.4177 0.863529C35.8647 0.310425 35.1145 -0.000305176 34.3323 -0.000305176Z" fill="white"/>
    <path d="M189.048 -0.000305176H157.668C156.886 -0.000305176 156.136 0.309917 155.583 0.862114C155.029 1.41431 154.719 2.16324 154.719 2.94417C154.719 3.72509 155.029 4.47404 155.583 5.02624C156.136 5.57844 156.886 5.88866 157.668 5.88866H186.1V34.2756C186.092 34.6674 186.163 35.0569 186.307 35.4212C186.452 35.7855 186.668 36.1173 186.943 36.3972C187.217 36.6771 187.545 36.8994 187.907 37.0512C188.269 37.2031 188.657 37.2812 189.05 37.2812C189.442 37.2812 189.831 37.2031 190.193 37.0512C190.555 36.8994 190.883 36.6771 191.157 36.3972C191.432 36.1173 191.648 35.7855 191.793 35.4212C191.937 35.0569 192.008 34.6674 192 34.2756V2.94417C192 2.55733 191.923 2.17432 191.775 1.81699C191.626 1.45967 191.409 1.13503 191.135 0.861607C190.861 0.588188 190.535 0.371338 190.177 0.22345C189.819 0.0755615 189.436 -0.000465393 189.048 -0.000305176Z" fill="white"/>
</svg>
