<svg width="20" height="20" viewBox="0 0 20 20" fill="none" xmlns="http://www.w3.org/2000/svg">
<mask id="path-1-inside-1_153_4665" fill="white">
<path fill-rule="evenodd" clip-rule="evenodd" d="M7.6115 0.852924C8.08006 0.697463 8.58628 0.697463 9.05484 0.852924C9.29817 0.933757 9.50734 1.06126 9.71317 1.21542C9.91067 1.36209 10.1357 1.55459 10.4032 1.78376L10.419 1.79792C10.874 2.18792 11.0023 2.28792 11.1298 2.34209C11.2932 2.41126 11.4715 2.43709 11.649 2.41709C11.7865 2.40292 11.9373 2.34376 12.4857 2.10042L14.7457 1.09542C14.8408 1.05307 14.945 1.03516 15.0489 1.04334C15.1527 1.05151 15.2528 1.0855 15.3402 1.14221C15.4275 1.19893 15.4993 1.27658 15.549 1.3681C15.5988 1.45962 15.6248 1.56211 15.6248 1.66626V9.37459H15.6915C16.1373 9.37459 16.5082 9.37459 16.8123 9.39959C17.129 9.42459 17.4257 9.48126 17.7065 9.62459C18.1382 9.84376 18.489 10.1946 18.7082 10.6254C18.8515 10.9071 18.9082 11.2038 18.9332 11.5204C18.9582 11.8246 18.9582 12.1954 18.9582 12.6413V16.6663C18.9582 17.274 18.7167 17.8569 18.287 18.2867C17.8572 18.7165 17.2743 18.9579 16.6665 18.9579H6.97234C6.06234 18.9579 5.34067 18.9579 4.75984 18.9104C4.16484 18.8621 3.66234 18.7604 3.20317 18.5271C2.45829 18.1476 1.85268 17.542 1.47317 16.7971C1.239 16.3371 1.13734 15.8346 1.089 15.2396C1.0415 14.6588 1.0415 13.9371 1.0415 13.0271V1.66626C1.04153 1.56211 1.06758 1.45962 1.11729 1.3681C1.167 1.27658 1.2388 1.19893 1.32615 1.14221C1.4135 1.0855 1.51364 1.05151 1.61747 1.04334C1.7213 1.03516 1.82552 1.05307 1.92067 1.09542L4.18067 2.09959C4.729 2.34376 4.87984 2.40292 5.01734 2.41792C5.19403 2.43736 5.37275 2.41125 5.5365 2.34209C5.66484 2.28792 5.7915 2.18792 6.24734 1.79792L6.264 1.78376C6.48727 1.58696 6.71684 1.39741 6.95234 1.21542C7.159 1.06209 7.36817 0.933757 7.6115 0.852924ZM16.6665 17.7079C17.2415 17.7079 17.7082 17.2413 17.7082 16.6663V12.6663C17.7082 12.1896 17.7082 11.8688 17.6873 11.6229C17.6682 11.3829 17.6332 11.2688 17.5948 11.1929C17.4948 10.9969 17.3352 10.8376 17.139 10.7379C17.064 10.6996 16.9498 10.6646 16.7098 10.6454C16.464 10.6254 16.1432 10.6246 15.6665 10.6246H15.6248V16.6663C15.6248 17.2413 16.0915 17.7079 16.6665 17.7079ZM14.6248 17.7079H6.99984C6.0565 17.7079 5.38567 17.7079 4.8615 17.6646C4.34484 17.6229 4.024 17.5421 3.76984 17.4129C3.26036 17.1533 2.84614 16.7391 2.5865 16.2296C2.45734 15.9754 2.37734 15.6546 2.33484 15.1379C2.29234 14.6129 2.2915 13.9438 2.2915 12.9996V2.62792L3.67317 3.24209L3.75067 3.27626C4.184 3.46959 4.524 3.62126 4.88067 3.65959C5.26949 3.70245 5.6628 3.64508 6.02317 3.49292C6.354 3.35376 6.6365 3.11126 6.9965 2.80126L7.06067 2.74709C7.34817 2.50042 7.54067 2.33626 7.69817 2.21876C7.85067 2.10542 7.93817 2.06126 8.00567 2.03959C8.21858 1.96898 8.4486 1.96898 8.6615 2.03959C8.72817 2.06126 8.81567 2.10626 8.96817 2.21876C9.1265 2.33542 9.31817 2.50042 9.60567 2.74709L9.66984 2.80126C10.0298 3.11126 10.3123 3.35376 10.6432 3.49292C11.0033 3.64494 11.3963 3.70231 11.7848 3.65959C12.1423 3.62126 12.4823 3.46959 12.9157 3.27626L12.9932 3.24209L14.3748 2.62792V16.6663C14.3748 17.0413 14.4648 17.3954 14.6248 17.7079ZM5.20817 7.49959C5.20817 7.33383 5.27402 7.17486 5.39123 7.05765C5.50844 6.94044 5.66741 6.87459 5.83317 6.87459H9.1665C9.33226 6.87459 9.49123 6.94044 9.60845 7.05765C9.72566 7.17486 9.7915 7.33383 9.7915 7.49959C9.7915 7.66535 9.72566 7.82432 9.60845 7.94153C9.49123 8.05874 9.33226 8.12459 9.1665 8.12459H5.83317C5.66741 8.12459 5.50844 8.05874 5.39123 7.94153C5.27402 7.82432 5.20817 7.66535 5.20817 7.49959ZM7.70817 10.8329C7.70817 10.6672 7.77402 10.5082 7.89123 10.391C8.00844 10.2738 8.16741 10.2079 8.33317 10.2079H10.8332C10.9989 10.2079 11.1579 10.2738 11.2751 10.391C11.3923 10.5082 11.4582 10.6672 11.4582 10.8329C11.4582 10.9987 11.3923 11.1577 11.2751 11.2749C11.1579 11.3921 10.9989 11.4579 10.8332 11.4579H8.33317C8.16741 11.4579 8.00844 11.3921 7.89123 11.2749C7.77402 11.1577 7.70817 10.9987 7.70817 10.8329ZM8.33317 13.5413C8.16741 13.5413 8.00844 13.6071 7.89123 13.7243C7.77402 13.8415 7.70817 14.0005 7.70817 14.1663C7.70817 14.332 7.77402 14.491 7.89123 14.6082C8.00844 14.7254 8.16741 14.7913 8.33317 14.7913H10.8332C10.9989 14.7913 11.1579 14.7254 11.2751 14.6082C11.3923 14.491 11.4582 14.332 11.4582 14.1663C11.4582 14.0005 11.3923 13.8415 11.2751 13.7243C11.1579 13.6071 10.9989 13.5413 10.8332 13.5413H8.33317ZM6.6665 10.8329C6.6665 11.0539 6.57871 11.2659 6.42243 11.4222C6.26615 11.5785 6.05418 11.6663 5.83317 11.6663C5.61216 11.6663 5.4002 11.5785 5.24392 11.4222C5.08763 11.2659 4.99984 11.0539 4.99984 10.8329C4.99984 10.6119 5.08763 10.3999 5.24392 10.2437C5.4002 10.0874 5.61216 9.99959 5.83317 9.99959C6.05418 9.99959 6.26615 10.0874 6.42243 10.2437C6.57871 10.3999 6.6665 10.6119 6.6665 10.8329ZM5.83317 14.9996C6.05418 14.9996 6.26615 14.9118 6.42243 14.7555C6.57871 14.5992 6.6665 14.3873 6.6665 14.1663C6.6665 13.9452 6.57871 13.7333 6.42243 13.577C6.26615 13.4207 6.05418 13.3329 5.83317 13.3329C5.61216 13.3329 5.4002 13.4207 5.24392 13.577C5.08763 13.7333 4.99984 13.9452 4.99984 14.1663C4.99984 14.3873 5.08763 14.5992 5.24392 14.7555C5.4002 14.9118 5.61216 14.9996 5.83317 14.9996Z"/>
</mask>
<path fill-rule="evenodd" clip-rule="evenodd" d="M7.6115 0.852924C8.08006 0.697463 8.58628 0.697463 9.05484 0.852924C9.29817 0.933757 9.50734 1.06126 9.71317 1.21542C9.91067 1.36209 10.1357 1.55459 10.4032 1.78376L10.419 1.79792C10.874 2.18792 11.0023 2.28792 11.1298 2.34209C11.2932 2.41126 11.4715 2.43709 11.649 2.41709C11.7865 2.40292 11.9373 2.34376 12.4857 2.10042L14.7457 1.09542C14.8408 1.05307 14.945 1.03516 15.0489 1.04334C15.1527 1.05151 15.2528 1.0855 15.3402 1.14221C15.4275 1.19893 15.4993 1.27658 15.549 1.3681C15.5988 1.45962 15.6248 1.56211 15.6248 1.66626V9.37459H15.6915C16.1373 9.37459 16.5082 9.37459 16.8123 9.39959C17.129 9.42459 17.4257 9.48126 17.7065 9.62459C18.1382 9.84376 18.489 10.1946 18.7082 10.6254C18.8515 10.9071 18.9082 11.2038 18.9332 11.5204C18.9582 11.8246 18.9582 12.1954 18.9582 12.6413V16.6663C18.9582 17.274 18.7167 17.8569 18.287 18.2867C17.8572 18.7165 17.2743 18.9579 16.6665 18.9579H6.97234C6.06234 18.9579 5.34067 18.9579 4.75984 18.9104C4.16484 18.8621 3.66234 18.7604 3.20317 18.5271C2.45829 18.1476 1.85268 17.542 1.47317 16.7971C1.239 16.3371 1.13734 15.8346 1.089 15.2396C1.0415 14.6588 1.0415 13.9371 1.0415 13.0271V1.66626C1.04153 1.56211 1.06758 1.45962 1.11729 1.3681C1.167 1.27658 1.2388 1.19893 1.32615 1.14221C1.4135 1.0855 1.51364 1.05151 1.61747 1.04334C1.7213 1.03516 1.82552 1.05307 1.92067 1.09542L4.18067 2.09959C4.729 2.34376 4.87984 2.40292 5.01734 2.41792C5.19403 2.43736 5.37275 2.41125 5.5365 2.34209C5.66484 2.28792 5.7915 2.18792 6.24734 1.79792L6.264 1.78376C6.48727 1.58696 6.71684 1.39741 6.95234 1.21542C7.159 1.06209 7.36817 0.933757 7.6115 0.852924ZM16.6665 17.7079C17.2415 17.7079 17.7082 17.2413 17.7082 16.6663V12.6663C17.7082 12.1896 17.7082 11.8688 17.6873 11.6229C17.6682 11.3829 17.6332 11.2688 17.5948 11.1929C17.4948 10.9969 17.3352 10.8376 17.139 10.7379C17.064 10.6996 16.9498 10.6646 16.7098 10.6454C16.464 10.6254 16.1432 10.6246 15.6665 10.6246H15.6248V16.6663C15.6248 17.2413 16.0915 17.7079 16.6665 17.7079ZM14.6248 17.7079H6.99984C6.0565 17.7079 5.38567 17.7079 4.8615 17.6646C4.34484 17.6229 4.024 17.5421 3.76984 17.4129C3.26036 17.1533 2.84614 16.7391 2.5865 16.2296C2.45734 15.9754 2.37734 15.6546 2.33484 15.1379C2.29234 14.6129 2.2915 13.9438 2.2915 12.9996V2.62792L3.67317 3.24209L3.75067 3.27626C4.184 3.46959 4.524 3.62126 4.88067 3.65959C5.26949 3.70245 5.6628 3.64508 6.02317 3.49292C6.354 3.35376 6.6365 3.11126 6.9965 2.80126L7.06067 2.74709C7.34817 2.50042 7.54067 2.33626 7.69817 2.21876C7.85067 2.10542 7.93817 2.06126 8.00567 2.03959C8.21858 1.96898 8.4486 1.96898 8.6615 2.03959C8.72817 2.06126 8.81567 2.10626 8.96817 2.21876C9.1265 2.33542 9.31817 2.50042 9.60567 2.74709L9.66984 2.80126C10.0298 3.11126 10.3123 3.35376 10.6432 3.49292C11.0033 3.64494 11.3963 3.70231 11.7848 3.65959C12.1423 3.62126 12.4823 3.46959 12.9157 3.27626L12.9932 3.24209L14.3748 2.62792V16.6663C14.3748 17.0413 14.4648 17.3954 14.6248 17.7079ZM5.20817 7.49959C5.20817 7.33383 5.27402 7.17486 5.39123 7.05765C5.50844 6.94044 5.66741 6.87459 5.83317 6.87459H9.1665C9.33226 6.87459 9.49123 6.94044 9.60845 7.05765C9.72566 7.17486 9.7915 7.33383 9.7915 7.49959C9.7915 7.66535 9.72566 7.82432 9.60845 7.94153C9.49123 8.05874 9.33226 8.12459 9.1665 8.12459H5.83317C5.66741 8.12459 5.50844 8.05874 5.39123 7.94153C5.27402 7.82432 5.20817 7.66535 5.20817 7.49959ZM7.70817 10.8329C7.70817 10.6672 7.77402 10.5082 7.89123 10.391C8.00844 10.2738 8.16741 10.2079 8.33317 10.2079H10.8332C10.9989 10.2079 11.1579 10.2738 11.2751 10.391C11.3923 10.5082 11.4582 10.6672 11.4582 10.8329C11.4582 10.9987 11.3923 11.1577 11.2751 11.2749C11.1579 11.3921 10.9989 11.4579 10.8332 11.4579H8.33317C8.16741 11.4579 8.00844 11.3921 7.89123 11.2749C7.77402 11.1577 7.70817 10.9987 7.70817 10.8329ZM8.33317 13.5413C8.16741 13.5413 8.00844 13.6071 7.89123 13.7243C7.77402 13.8415 7.70817 14.0005 7.70817 14.1663C7.70817 14.332 7.77402 14.491 7.89123 14.6082C8.00844 14.7254 8.16741 14.7913 8.33317 14.7913H10.8332C10.9989 14.7913 11.1579 14.7254 11.2751 14.6082C11.3923 14.491 11.4582 14.332 11.4582 14.1663C11.4582 14.0005 11.3923 13.8415 11.2751 13.7243C11.1579 13.6071 10.9989 13.5413 10.8332 13.5413H8.33317ZM6.6665 10.8329C6.6665 11.0539 6.57871 11.2659 6.42243 11.4222C6.26615 11.5785 6.05418 11.6663 5.83317 11.6663C5.61216 11.6663 5.4002 11.5785 5.24392 11.4222C5.08763 11.2659 4.99984 11.0539 4.99984 10.8329C4.99984 10.6119 5.08763 10.3999 5.24392 10.2437C5.4002 10.0874 5.61216 9.99959 5.83317 9.99959C6.05418 9.99959 6.26615 10.0874 6.42243 10.2437C6.57871 10.3999 6.6665 10.6119 6.6665 10.8329ZM5.83317 14.9996C6.05418 14.9996 6.26615 14.9118 6.42243 14.7555C6.57871 14.5992 6.6665 14.3873 6.6665 14.1663C6.6665 13.9452 6.57871 13.7333 6.42243 13.577C6.26615 13.4207 6.05418 13.3329 5.83317 13.3329C5.61216 13.3329 5.4002 13.4207 5.24392 13.577C5.08763 13.7333 4.99984 13.9452 4.99984 14.1663C4.99984 14.3873 5.08763 14.5992 5.24392 14.7555C5.4002 14.9118 5.61216 14.9996 5.83317 14.9996Z" fill="#F24D4D" stroke="#FEEDED" stroke-width="0.3" mask="url(#path-1-inside-1_153_4665)"/>
</svg>
