<svg width="15" height="15" viewBox="0 0 15 15" fill="none" xmlns="http://www.w3.org/2000/svg">
<path d="M1.875 4.375V3.125C1.875 2.79348 2.0067 2.47554 2.24112 2.24112C2.47554 2.0067 2.79348 1.875 3.125 1.875H4.375" stroke="#F24D4D" stroke-linecap="round" stroke-linejoin="round"/>
<path d="M10.625 1.875H11.875C12.2065 1.875 12.5245 2.0067 12.7589 2.24112C12.9933 2.47554 13.125 2.79348 13.125 3.125V4.375" stroke="#F24D4D" stroke-linecap="round" stroke-linejoin="round"/>
<path d="M13.125 10.625V11.875C13.125 12.2065 12.9933 12.5245 12.7589 12.7589C12.5245 12.9933 12.2065 13.125 11.875 13.125H10.625" stroke="#F24D4D" stroke-linecap="round" stroke-linejoin="round"/>
<path d="M4.375 13.125H3.125C2.79348 13.125 2.47554 12.9933 2.24112 12.7589C2.0067 12.5245 1.875 12.2065 1.875 11.875V10.625" stroke="#F24D4D" stroke-linecap="round" stroke-linejoin="round"/>
<path d="M4.375 7.5H10.625" stroke="#F24D4D" stroke-linecap="round" stroke-linejoin="round"/>
</svg>
