<svg width="40" height="40" viewBox="0 0 40 40" fill="none" xmlns="http://www.w3.org/2000/svg">
    <rect width="40" height="40" rx="10" fill="#F24D4D"/>
    <path d="M19.6925 11.75H19.3075C18.8434 11.75 18.3983 11.9344 18.0701 12.2626C17.7419 12.5908 17.5575 13.0359 17.5575 13.5V13.6575C17.5572 13.9644 17.4762 14.2658 17.3226 14.5315C17.169 14.7972 16.9483 15.0178 16.6825 15.1712L16.3063 15.39C16.0402 15.5436 15.7384 15.6245 15.4313 15.6245C15.1241 15.6245 14.8223 15.5436 14.5563 15.39L14.425 15.32C14.0234 15.0884 13.5464 15.0255 13.0985 15.1453C12.6506 15.265 12.2686 15.5576 12.0363 15.9587L11.8438 16.2913C11.6121 16.6928 11.5493 17.1699 11.669 17.6177C11.7888 18.0656 12.0813 18.4476 12.4825 18.68L12.6138 18.7675C12.8782 18.9202 13.0982 19.1395 13.2517 19.4035C13.4052 19.6675 13.4869 19.9671 13.4888 20.2725V20.7188C13.49 21.0271 13.4097 21.3303 13.256 21.5977C13.1024 21.8651 12.8808 22.0871 12.6138 22.2412L12.4825 22.32C12.0813 22.5524 11.7888 22.9344 11.669 23.3823C11.5493 23.8301 11.6121 24.3072 11.8438 24.7087L12.0363 25.0413C12.2686 25.4424 12.6506 25.735 13.0985 25.8547C13.5464 25.9745 14.0234 25.9116 14.425 25.68L14.5563 25.61C14.8223 25.4564 15.1241 25.3755 15.4313 25.3755C15.7384 25.3755 16.0402 25.4564 16.3063 25.61L16.6825 25.8288C16.9483 25.9822 17.169 26.2028 17.3226 26.4685C17.4762 26.7342 17.5572 27.0356 17.5575 27.3425V27.5C17.5575 27.9641 17.7419 28.4092 18.0701 28.7374C18.3983 29.0656 18.8434 29.25 19.3075 29.25H19.6925C20.1566 29.25 20.6017 29.0656 20.9299 28.7374C21.2581 28.4092 21.4425 27.9641 21.4425 27.5V27.3425C21.4428 27.0356 21.5238 26.7342 21.6774 26.4685C21.831 26.2028 22.0517 25.9822 22.3175 25.8288L22.6938 25.61C22.9598 25.4564 23.2616 25.3755 23.5688 25.3755C23.8759 25.3755 24.1777 25.4564 24.4438 25.61L24.575 25.68C24.9766 25.9116 25.4536 25.9745 25.9015 25.8547C26.3494 25.735 26.7314 25.4424 26.9638 25.0413L27.1563 24.7C27.3879 24.2984 27.4507 23.8214 27.331 23.3735C27.2112 22.9256 26.9187 22.5436 26.5175 22.3112L26.3863 22.2412C26.1192 22.0871 25.8976 21.8651 25.744 21.5977C25.5903 21.3303 25.51 21.0271 25.5113 20.7188V20.2812C25.51 19.9729 25.5903 19.6697 25.744 19.4023C25.8976 19.1349 26.1192 18.9129 26.3863 18.7588L26.5175 18.68C26.9187 18.4476 27.2112 18.0656 27.331 17.6177C27.4507 17.1699 27.3879 16.6928 27.1563 16.2913L26.9638 15.9587C26.7314 15.5576 26.3494 15.265 25.9015 15.1453C25.4536 15.0255 24.9766 15.0884 24.575 15.32L24.4438 15.39C24.1777 15.5436 23.8759 15.6245 23.5688 15.6245C23.2616 15.6245 22.9598 15.5436 22.6938 15.39L22.3175 15.1712C22.0517 15.0178 21.831 14.7972 21.6774 14.5315C21.5238 14.2658 21.4428 13.9644 21.4425 13.6575V13.5C21.4425 13.0359 21.2581 12.5908 20.9299 12.2626C20.6017 11.9344 20.1566 11.75 19.6925 11.75Z" stroke="white" stroke-width="1.5" stroke-linecap="round" stroke-linejoin="round"/>
    <path d="M19.5 23.125C20.9497 23.125 22.125 21.9497 22.125 20.5C22.125 19.0503 20.9497 17.875 19.5 17.875C18.0503 17.875 16.875 19.0503 16.875 20.5C16.875 21.9497 18.0503 23.125 19.5 23.125Z" stroke="white" stroke-width="1.5" stroke-linecap="round" stroke-linejoin="round"/>
</svg>
