<svg width="21" height="16" viewBox="0 0 21 16" fill="none" xmlns="http://www.w3.org/2000/svg">
<g clip-path="url(#clip0_99_1131)">
<path d="M20.606 9.77672C20.5092 10.2019 20.441 10.6348 20.3096 11.0495C20.0837 11.774 19.6779 12.4002 19.1501 12.9408C18.6003 13.503 18.0505 14.0657 17.4798 14.6057C16.4901 15.5444 15.2905 15.9906 13.9352 15.9945C11.0396 16.0022 8.14249 16.0022 5.24393 15.9945C4.19436 15.9945 3.53954 15.1193 3.81114 14.1038C4.05471 13.1943 4.71227 12.6261 5.65738 12.4842C6.80317 12.3119 7.94731 12.1274 9.09255 11.9474C9.15578 11.9375 9.21791 11.9204 9.30368 11.901C9.2355 11.8292 9.18272 11.7707 9.12774 11.7149C7.103 9.68211 5.07771 7.64909 3.05187 5.61589C2.70329 5.2669 2.48282 4.8649 2.42894 4.36184C2.33492 3.48826 3.07881 2.55339 3.95189 2.45841C4.58362 2.38939 5.10978 2.58376 5.55292 3.03325C6.02465 3.51146 6.50078 3.98635 6.97526 4.46235C7.02199 4.50873 7.07093 4.55291 7.13635 4.61475C7.34858 4.03052 7.72409 3.62687 8.30193 3.43581C8.87978 3.24474 9.42353 3.34745 9.942 3.69644C10.152 3.10448 10.5264 2.69033 11.1142 2.49596C11.7019 2.30159 12.2363 2.40761 12.7515 2.75605C12.8812 2.40982 13.0555 2.10721 13.3431 1.87639C14.0815 1.28057 15.1195 1.31204 15.7633 2.01002C16.9905 3.33825 18.2021 4.68028 19.3981 6.03612C20.0743 6.80147 20.4427 7.71977 20.5664 8.73472C20.5741 8.79988 20.5922 8.86338 20.606 8.92799V9.77672ZM9.79135 15.0541C11.1461 15.0541 12.5008 15.0508 13.8555 15.0541C15.02 15.058 16.0432 14.6935 16.8877 13.879C17.4485 13.3379 18.0093 12.7939 18.5338 12.2185C20.049 10.5553 20.049 8.16264 18.5525 6.47567C18.1016 5.9682 17.6414 5.46845 17.1856 4.9654C16.5002 4.20852 15.8141 3.45163 15.1272 2.69475C14.7929 2.32754 14.2816 2.2933 13.9209 2.6075C13.5602 2.92171 13.5289 3.43912 13.8406 3.82235C13.8895 3.87773 13.9344 3.9366 13.9748 3.9985C14.0218 4.06898 14.047 4.15192 14.047 4.23677C14.047 4.32162 14.0218 4.40456 13.9748 4.47505C13.8786 4.63353 13.7318 4.72519 13.5548 4.68764C13.42 4.65759 13.2953 4.5929 13.193 4.49989C12.8884 4.21606 12.6019 3.91291 12.3067 3.61637C12.0642 3.37506 11.7756 3.27843 11.4424 3.3723C10.8222 3.54845 10.6111 4.29227 11.0509 4.78041C11.3522 5.11173 11.6849 5.41986 11.9977 5.744C12.2176 5.97096 12.2281 6.25424 12.0384 6.4453C11.8487 6.63636 11.5722 6.62807 11.339 6.4083C11.2071 6.2835 11.0823 6.15153 10.9542 6.02176C10.4704 5.53582 9.98983 5.04657 9.50215 4.56505C9.11729 4.18735 8.59113 4.18238 8.2486 4.54186C7.90608 4.90134 7.92642 5.40771 8.29974 5.78707C8.88253 6.38234 9.47411 6.96989 10.0613 7.56461C10.1288 7.62961 10.188 7.70268 10.2378 7.78217C10.2845 7.85721 10.3065 7.94513 10.3007 8.03344C10.2949 8.12176 10.2615 8.20599 10.2054 8.27418C10.0921 8.42825 9.93045 8.50887 9.75011 8.44536C9.61391 8.3948 9.49029 8.3151 9.3878 8.21178C7.90406 6.72784 6.42417 5.24205 4.94814 3.75442C4.8795 3.68142 4.80602 3.61316 4.72822 3.55011C4.60992 3.4596 4.47001 3.4019 4.32252 3.38282C4.17502 3.36373 4.02512 3.38392 3.88785 3.44137C3.75057 3.49881 3.63074 3.59149 3.54037 3.71011C3.45 3.82873 3.39227 3.96912 3.37295 4.11722C3.32732 4.45793 3.47412 4.71139 3.70283 4.94221C5.98561 7.23126 8.26748 9.52123 10.5484 11.8121C10.7051 11.9701 10.8123 12.1374 10.7442 12.3676C10.676 12.5979 10.4902 12.6807 10.2719 12.7144C9.6429 12.8123 9.01411 12.911 8.3855 13.0104C7.45909 13.1573 6.53157 13.2959 5.6079 13.4588C5.08779 13.5505 4.73481 13.974 4.69193 14.4969C4.66664 14.8023 4.82443 15.0044 5.12297 15.0431C5.20293 15.0518 5.28337 15.0553 5.36379 15.0535L9.79135 15.0541Z" fill="#F24D4D"/>
<path d="M0 4.32091C0.0280399 2.20488 1.4053 0.517356 3.36095 0.0905051C5.22313 -0.316466 7.21396 0.681911 8.01448 2.42521C8.14863 2.71622 8.081 2.97465 7.83744 3.10497C7.59388 3.23529 7.33657 3.14583 7.18592 2.85537C6.94066 2.35974 6.58578 1.92702 6.14845 1.59028C4.55017 0.386484 2.19206 0.943654 1.29973 2.73665C0.494823 4.3568 1.09301 6.26521 2.67919 7.12774C2.75561 7.16916 2.83313 7.20947 2.90516 7.25806C3.13608 7.41434 3.20425 7.66338 3.0822 7.88923C2.96014 8.11508 2.70283 8.18907 2.45432 8.07366C1.83622 7.78835 1.29683 7.35578 0.882983 6.81354C0.326013 6.10154 0.0159502 5.22624 0 4.32091Z" fill="#F24D4D"/>
</g>
<defs>
<clipPath id="clip0_99_1131">
<rect width="20.6061" height="16" fill="white"/>
</clipPath>
</defs>
</svg>
