<svg width="198" height="186" viewBox="0 0 198 186" fill="none" xmlns="http://www.w3.org/2000/svg">
<path d="M1.84759 89.3173L77.0635 180.691L121.198 144.361L45.9822 52.9873L1.84759 89.3173Z" fill="#36BC6C"/>
<g opacity="0.3">
<path d="M66.3422 111.687L68.0235 110.301L69.0459 111.533L67.3707 112.913C68.4978 114.459 69.2183 116.288 69.1567 117.63L67.0813 118.203C67.0188 116.785 66.5554 115.414 65.7449 114.249L62.7333 116.713C63.7002 118.714 64.6363 120.956 62.5424 122.68C61.0027 123.912 58.7487 123.912 56.587 121.769L54.8873 123.167L53.8711 121.935L55.5401 120.556C54.6972 119.453 54.1426 118.157 53.9265 116.786L55.9527 116.171C56.1311 117.279 56.538 118.338 57.1475 119.281L60.1898 116.774C59.2229 114.773 58.2498 112.512 60.3438 110.788C61.8957 109.482 64.1498 109.519 66.3422 111.687ZM60.9104 118.228L58.2375 120.432C59.2783 121.368 60.196 121.375 60.8549 120.826C61.5139 120.278 61.3723 119.311 60.9104 118.228ZM62.0805 112.562C61.3476 113.178 61.5447 114.12 62.0312 115.235L64.6979 113.042C63.6263 112.075 62.7333 112.032 62.0805 112.562Z" fill="white"/>
</g>
<path opacity="0.3" d="M112.119 138.427L50.0771 63.0456C49.4099 63.5961 48.6406 64.0096 47.8134 64.2623C46.9862 64.5151 46.1172 64.6022 45.2562 64.5187C44.3953 64.4352 43.5593 64.1827 42.796 63.7756C42.0328 63.3685 41.3574 62.8149 40.8084 62.1465L11.863 85.9802C12.9636 87.3267 13.4867 89.0538 13.3183 90.7846C13.1498 92.5154 12.3034 94.1092 10.9639 95.2181L73.0179 170.63C74.3643 169.53 76.0914 169.006 77.8222 169.175C79.553 169.343 81.1468 170.19 82.2557 171.529L111.201 147.696C110.652 147.027 110.241 146.257 109.99 145.429C109.739 144.601 109.654 143.732 109.739 142.871C109.825 142.01 110.079 141.175 110.487 140.412C110.895 139.65 111.45 138.975 112.119 138.427ZM24.365 101.919C24.2118 102.045 24.0352 102.139 23.8455 102.197C23.6558 102.254 23.4565 102.274 23.2592 102.254C23.0619 102.235 22.8703 102.177 22.6955 102.083C22.5206 101.99 22.366 101.863 22.2403 101.709L18.0524 96.6223C17.9265 96.4691 17.8321 96.2925 17.7745 96.1028C17.7169 95.9131 17.6973 95.7139 17.7167 95.5165C17.7362 95.3192 17.7943 95.1276 17.8878 94.9528C17.9814 94.778 18.1084 94.6233 18.2618 94.4976C18.415 94.3717 18.5915 94.2773 18.7813 94.2197C18.971 94.1621 19.1702 94.1424 19.3676 94.1619C19.5649 94.1813 19.7564 94.2395 19.9313 94.333C20.1061 94.4265 20.2608 94.5536 20.3865 94.707L24.5744 99.794C24.7002 99.9472 24.7947 100.124 24.8523 100.313C24.9099 100.503 24.9295 100.702 24.91 100.9C24.8906 101.097 24.8325 101.289 24.7389 101.463C24.6454 101.638 24.5183 101.793 24.365 101.919ZM69.5506 126.596C67.621 128.185 65.2635 129.166 62.7764 129.415C60.2892 129.664 57.7841 129.17 55.5777 127.995C53.3714 126.821 51.563 125.018 50.3812 122.815C49.1995 120.613 48.6975 118.109 48.9387 115.621C49.1799 113.133 50.1535 110.773 51.7364 108.838C53.3192 106.904 55.4402 105.482 57.8312 104.753C60.2221 104.024 62.7755 104.02 65.1685 104.742C67.5615 105.464 69.6866 106.88 71.275 108.81C73.405 111.396 74.4217 114.721 74.1018 118.056C73.7819 121.391 72.1517 124.462 69.569 126.596H69.5506ZM104.778 139.184C104.625 139.31 104.448 139.405 104.258 139.462C104.069 139.52 103.869 139.539 103.672 139.52C103.475 139.501 103.283 139.442 103.108 139.349C102.933 139.255 102.779 139.128 102.653 138.975L98.4652 133.888C98.339 133.735 98.2442 133.559 98.1861 133.369C98.128 133.18 98.1079 132.981 98.1267 132.783C98.1456 132.586 98.2032 132.395 98.2961 132.219C98.389 132.044 98.5155 131.889 98.6684 131.763C98.8213 131.637 98.9975 131.542 99.187 131.484C99.3765 131.426 99.5755 131.406 99.7728 131.425C99.9701 131.444 100.162 131.501 100.337 131.594C100.512 131.687 100.667 131.814 100.793 131.966L104.981 137.06C105.236 137.367 105.36 137.762 105.326 138.16C105.291 138.558 105.101 138.926 104.796 139.184H104.778Z" fill="white"/>
<path opacity="0.1" d="M117.028 139.289L68.2392 169.947L52.5286 150.868L10.5947 82.1192L22.5054 72.327L53.1629 61.6973L117.028 139.289Z" fill="black"/>
<path d="M7.13162 66.1684L66.4316 168.59L115.902 139.947L56.6022 37.5259L7.13162 66.1684Z" fill="#36BC6C"/>
<g opacity="0.3">
<path d="M67.0934 98.7597L68.9903 97.6634L69.7909 99.0491L67.9433 100.133C68.7994 101.845 69.1751 103.76 68.941 105.06L66.7917 105.288C66.9647 103.879 66.7318 102.449 66.1204 101.168L62.7455 103.12C63.3613 105.263 63.9279 107.622 61.5815 108.983C59.8632 109.981 57.6338 109.599 55.8602 107.135L53.951 108.238L53.1504 106.858L54.998 105.768C54.3496 104.528 54.0214 103.146 54.0434 101.747L56.1496 101.451C56.142 102.574 56.3707 103.686 56.8209 104.715L60.2328 102.738C59.6169 100.601 59.0011 98.2177 61.3598 96.8628C63.0719 95.8467 65.289 96.2654 67.0934 98.7597ZM60.67 104.302L57.6646 106.039C58.5453 107.129 59.4506 107.271 60.1897 106.858C60.9287 106.446 60.9533 105.473 60.7008 104.327L60.67 104.302ZM62.7516 98.9013C61.9264 99.3817 61.9695 100.349 62.2713 101.525L65.2582 99.8005C64.359 98.6981 63.4783 98.5072 62.7516 98.926V98.9013Z" fill="white"/>
</g>
<path opacity="0.3" d="M107.9 132.607L58.9823 48.1177C58.2343 48.5508 57.4083 48.8323 56.5515 48.946C55.6946 49.0597 54.8238 49.0034 53.9887 48.7804C53.1536 48.5573 52.3707 48.1718 51.6847 47.646C50.9987 47.1202 50.4231 46.4643 49.9907 45.7158L17.5288 64.5118C17.962 65.2598 18.2434 66.0858 18.3571 66.9427C18.4709 67.7995 18.4146 68.6704 18.1915 69.5054C17.9684 70.3405 17.583 71.1234 17.0571 71.8094C16.5313 72.4954 15.8754 73.071 15.127 73.5034L64.0447 157.999C64.7927 157.566 65.6189 157.284 66.476 157.17C67.333 157.055 68.2042 157.111 69.0397 157.333C69.8753 157.556 70.6588 157.941 71.3456 158.466C72.0323 158.991 72.6089 159.647 73.0424 160.395L105.498 141.605C105.065 140.857 104.783 140.03 104.669 139.173C104.556 138.316 104.612 137.444 104.835 136.609C105.058 135.773 105.443 134.99 105.969 134.303C106.495 133.617 107.151 133.04 107.9 132.607ZM27.2963 82.2979C27.1249 82.3974 26.9355 82.4622 26.739 82.4885C26.5425 82.5149 26.3428 82.5022 26.1512 82.4513C25.9596 82.4004 25.7799 82.3123 25.6224 82.1919C25.4649 82.0715 25.3326 81.9213 25.2332 81.7497L21.9322 76.0469C21.8326 75.8755 21.7678 75.6861 21.7415 75.4896C21.7152 75.2931 21.7278 75.0933 21.7787 74.9017C21.8296 74.7101 21.9178 74.5304 22.0382 74.3729C22.1586 74.2154 22.3088 74.0832 22.4803 73.9838C22.6518 73.8842 22.8411 73.8194 23.0376 73.7931C23.2341 73.7667 23.4339 73.7794 23.6255 73.8303C23.8171 73.8812 23.9968 73.9693 24.1543 74.0897C24.3118 74.2101 24.444 74.3604 24.5434 74.5319L27.8444 80.2409C27.9439 80.4119 28.0085 80.6008 28.0348 80.7968C28.061 80.9928 28.0483 81.1921 27.9974 81.3832C27.9465 81.5743 27.8584 81.7534 27.7381 81.9104C27.6177 82.0674 27.4676 82.199 27.2963 82.2979ZM67.8507 114.021C65.6879 115.277 63.2011 115.862 60.7052 115.704C58.2093 115.546 55.8164 114.651 53.8296 113.132C51.8427 111.613 50.3512 109.538 49.5439 107.171C48.7367 104.804 48.6498 102.251 49.2945 99.8345C49.9392 97.4181 51.2863 95.2473 53.1654 93.5969C55.0445 91.9466 57.371 90.8908 59.8505 90.5634C62.3299 90.236 64.8507 90.6516 67.0938 91.7577C69.3369 92.8637 71.2013 94.6105 72.4511 96.7767C74.1136 99.6727 74.5629 103.109 73.701 106.335C72.8391 109.561 70.736 112.315 67.8507 113.996V114.021ZM100.553 132.182C100.381 132.282 100.191 132.346 99.9946 132.372C99.7978 132.398 99.5979 132.385 99.4062 132.333C99.2146 132.282 99.035 132.193 98.8777 132.072C98.7205 131.951 98.5886 131.8 98.4897 131.628L95.1887 125.901C95.0812 125.729 95.0094 125.537 94.9775 125.337C94.9457 125.137 94.9545 124.933 95.0034 124.736C95.0523 124.539 95.1403 124.355 95.2622 124.193C95.3841 124.031 95.5373 123.895 95.7128 123.794C95.8882 123.692 96.0823 123.627 96.2834 123.603C96.4845 123.578 96.6885 123.594 96.8833 123.65C97.0781 123.706 97.2596 123.8 97.4171 123.928C97.5746 124.055 97.7048 124.213 97.7999 124.392L101.101 130.095C101.204 130.267 101.272 130.459 101.301 130.658C101.329 130.857 101.317 131.059 101.266 131.254C101.215 131.448 101.126 131.631 101.003 131.79C100.881 131.95 100.728 132.083 100.553 132.182Z" fill="white"/>
<path opacity="0.1" d="M115.352 139.006L61.8032 160.592L49.8863 140.016L21.3535 57.934L32.6792 51.3751L62.1604 47.1318L115.352 139.006Z" fill="black"/>
<path d="M20.1146 45.5942L58.665 157.489L112.711 138.869L74.161 26.9739L20.1146 45.5942Z" fill="#36BC6C"/>
<g opacity="0.3">
<path d="M72.7225 89.0726L74.7857 88.3643L75.3091 89.8732L73.2583 90.5814C73.7695 92.429 73.788 94.3813 73.2583 95.6253L71.1151 95.4405C71.5504 94.0886 71.5953 92.6413 71.2445 91.265L67.5493 92.5398C67.7587 94.7569 67.8449 97.1834 65.283 98.0826C63.4046 98.7292 61.2922 97.9286 60.0235 95.1511L57.9727 95.847L57.4492 94.3381L59.4939 93.6299C59.0967 92.2873 59.0417 90.8668 59.3337 89.4975L61.4523 89.6145C61.2325 90.7156 61.2451 91.8504 61.4893 92.9463L65.2152 91.6592C65.0058 89.4421 64.8826 86.991 67.4446 86.1164C69.323 85.4698 71.4292 86.295 72.7225 89.0726ZM65.3322 93.3097L62.0497 94.4367C62.7087 95.6684 63.5585 96.001 64.3715 95.7238C65.1844 95.4467 65.4 94.4983 65.3445 93.322L65.3322 93.3097ZM68.4115 88.3828C67.5124 88.6969 67.3645 89.6515 67.4323 90.8462L70.6963 89.7254C70.0435 88.506 69.2183 88.1488 68.4238 88.4197L68.4115 88.3828Z" fill="white"/>
</g>
<path opacity="0.3" d="M106.274 130.138L74.4773 37.8332C73.6597 38.1148 72.7946 38.2326 71.9314 38.1798C71.0682 38.127 70.2239 37.9046 69.4467 37.5255C68.6694 37.1463 67.9745 36.6177 67.4016 35.9699C66.8288 35.3221 66.3891 34.5678 66.1078 33.75L30.6466 45.9625C30.9283 46.7801 31.046 47.6453 30.9932 48.5084C30.9404 49.3716 30.7181 50.2159 30.3389 50.9931C29.9598 51.7704 29.4312 52.4653 28.7834 53.0382C28.1356 53.6111 27.3812 54.0507 26.5635 54.332L58.3603 146.643C59.1779 146.362 60.043 146.244 60.9062 146.297C61.7694 146.349 62.6137 146.572 63.3909 146.951C64.1682 147.33 64.8631 147.859 65.436 148.506C66.0089 149.154 66.4485 149.909 66.7298 150.726L102.191 138.508C101.909 137.69 101.792 136.825 101.844 135.962C101.897 135.099 102.12 134.254 102.499 133.477C102.878 132.7 103.406 132.005 104.054 131.432C104.702 130.859 105.456 130.419 106.274 130.138ZM36.8237 65.2758C36.4447 65.4055 36.0298 65.3798 35.6697 65.2044C35.3097 65.029 35.0337 64.7181 34.9022 64.3397L32.759 58.1134C32.6294 57.7344 32.6551 57.3195 32.8305 56.9594C33.0059 56.5994 33.3168 56.3234 33.6951 56.1919C34.0733 56.0625 34.4873 56.0883 34.8464 56.2638C35.2055 56.4393 35.4803 56.7501 35.6105 57.128L37.7598 63.3605C37.8893 63.7387 37.8634 64.1527 37.6879 64.5118C37.5124 64.8709 37.2016 65.1457 36.8237 65.2758ZM70.5543 104.186C68.191 105 65.6394 105.095 63.2222 104.459C60.8049 103.822 58.6306 102.484 56.9743 100.612C55.3179 98.7397 54.2539 96.4186 53.9167 93.9419C53.5796 91.4651 53.9845 88.9441 55.0802 86.6975C56.176 84.4509 57.9133 82.5797 60.0725 81.3205C62.2318 80.0614 64.7159 79.4708 67.2108 79.6235C69.7057 79.7762 72.0993 80.6654 74.0888 82.1785C76.0784 83.6916 77.5745 85.7607 78.388 88.1242C78.9289 89.6932 79.1554 91.3533 79.0544 93.0098C78.9534 94.6663 78.5269 96.2867 77.7994 97.7783C77.0719 99.27 76.0576 100.604 74.8145 101.703C73.5713 102.802 72.1237 103.646 70.5543 104.186ZM99.1671 128.284C98.7882 128.414 98.3733 128.388 98.0132 128.213C97.6531 128.038 97.3771 127.727 97.2456 127.348L95.084 121.097C95.0096 120.908 94.9743 120.705 94.9803 120.502C94.9863 120.298 95.0334 120.098 95.1188 119.913C95.2043 119.728 95.3263 119.562 95.4774 119.426C95.6286 119.289 95.8058 119.185 95.9984 119.119C96.191 119.053 96.395 119.026 96.5981 119.041C96.8012 119.056 96.9992 119.112 97.1802 119.205C97.3612 119.298 97.5214 119.427 97.6512 119.584C97.781 119.741 97.8777 119.923 97.9354 120.118L100.079 126.351C100.147 126.538 100.178 126.738 100.168 126.938C100.158 127.138 100.109 127.334 100.022 127.514C99.9354 127.694 99.8134 127.855 99.6634 127.988C99.5134 128.12 99.3383 128.221 99.1486 128.284H99.1671Z" fill="white"/>
<path opacity="0.1" d="M76.9408 139.362C84.3273 135.41 87.1113 126.218 83.159 118.831C79.2067 111.445 70.0148 108.661 62.6283 112.613C55.2418 116.566 52.4579 125.757 56.4102 133.144C60.3625 140.53 69.5544 143.314 76.9408 139.362Z" fill="black"/>
<path opacity="0.1" d="M108.824 154.556L85.5079 173.752C84.0172 172.255 82.8557 170.464 82.0977 168.492C81.3398 166.52 81.0021 164.411 81.1064 162.301C81.2106 160.191 81.7545 158.126 82.7032 156.238C83.6518 154.35 84.9843 152.682 86.6153 151.339C88.2463 149.996 90.1398 149.009 92.1745 148.44C94.2092 147.872 96.3403 147.735 98.4311 148.038C100.522 148.34 102.526 149.077 104.316 150.199C106.106 151.322 107.641 152.806 108.824 154.556Z" fill="black"/>
<path d="M183.542 49.147C185.512 53.6305 187.729 59.0008 190.187 62.8437C189.955 62.6978 189.69 62.6111 189.417 62.5912C188.85 62.5912 188.801 62.776 188.887 62.7205C189.836 62.1047 190.569 61.0023 191.351 59.8999C192.71 57.8632 193.963 55.7583 195.107 53.5935C195.283 53.2627 195.577 53.0102 195.93 52.886C196.283 52.7619 196.67 52.7753 197.014 52.9235C197.358 53.0718 197.633 53.344 197.786 53.6861C197.938 54.0282 197.956 54.4151 197.836 54.7698C196.973 57.2264 195.944 59.6215 194.756 61.9384C193.525 64.3526 190.895 68.8422 187.495 66.7051C185.746 65.3749 184.767 63.4411 183.652 61.7783C181.632 58.4711 179.822 55.1147 178.073 51.6597C176.355 47.9646 181.768 45.4149 183.517 49.147H183.542Z" fill="#EBC0BB"/>
<path d="M181.798 47.1211C184.483 47.2874 188.973 55.7431 188.973 55.7431L180.745 61.8401C180.745 61.8401 179.279 49.3628 179.279 49.3443C179.279 49.3259 181.798 47.1211 181.798 47.1211Z" fill="#263238"/>
<path opacity="0.7" d="M188.973 55.7613L184.877 58.7975L182.026 60.8976L180.732 61.8583C180.732 61.8583 179.846 54.3202 179.458 50.9576C179.341 49.9907 179.267 49.3687 179.267 49.3625C179.267 49.3564 181.785 47.127 181.785 47.127C184.003 47.2624 187.458 53.0762 188.591 55.09C188.837 55.5088 188.973 55.7613 188.973 55.7613Z" fill="white"/>
<path d="M188.966 54.8623L190.124 56.1802L182.611 61.8585L181.317 59.6783L188.966 54.8623Z" fill="#263238"/>
<path opacity="0.8" d="M190.118 56.1802L185.142 59.9431L182.611 61.8585L182.038 60.8977L181.317 59.6783L184.489 57.6768L188.603 55.0902L188.966 54.8623L190.118 56.1802Z" fill="white"/>
<path d="M190.137 53.0647C190.121 53.1211 190.118 53.1803 190.127 53.2381C190.137 53.2959 190.159 53.3509 190.192 53.3994C190.224 53.448 190.267 53.4889 190.317 53.5193C190.367 53.5498 190.423 53.569 190.481 53.5758L195.014 54.1917C195.14 54.2077 195.268 54.1772 195.374 54.1058C195.479 54.0344 195.555 53.927 195.587 53.8037L197.829 45.0092C197.845 44.949 197.85 44.886 197.842 44.824C197.833 44.762 197.813 44.7023 197.781 44.6483C197.75 44.5943 197.708 44.5472 197.658 44.5098C197.608 44.4724 197.551 44.4453 197.49 44.4303L192.957 43.8145C192.825 43.8175 192.698 43.8628 192.594 43.9437C192.489 44.0247 192.414 44.137 192.378 44.264L190.137 53.0647Z" fill="#263238"/>
<path opacity="0.5" d="M192.89 44.2755L190.648 53.1562C190.626 53.207 190.617 53.2623 190.621 53.3174C190.625 53.3726 190.642 53.426 190.671 53.4731C190.7 53.5202 190.74 53.5596 190.788 53.588C190.835 53.6165 190.889 53.6331 190.944 53.6365L194.787 54.16C195.045 54.197 195.532 54.1169 195.6 53.8706L197.866 44.9529C197.934 44.7004 197.521 44.4418 197.25 44.4048L193.407 43.8752C193.286 43.8611 193.164 43.8952 193.067 43.97C192.97 44.0448 192.907 44.1544 192.89 44.2755Z" fill="white"/>
<path d="M197.958 54.4739L197.392 49.3623L194.072 53.2176C194.072 53.2176 193.358 56.5186 196.357 56.2969L197.958 54.4739Z" fill="#EEC1BB"/>
<path d="M194.165 48.4023L193.068 52.1591L194.072 53.2184L197.392 49.3631L194.165 48.4023Z" fill="#EEC1BB"/>
<path opacity="0.1" d="M186.54 58.8964L182.642 61.8587L182.069 60.898L180.776 61.8587C180.776 61.8587 179.889 54.3206 179.501 50.958C180.215 51.5554 185.832 52.4053 186.54 58.8964Z" fill="black"/>
<path d="M164.043 140.115L165.693 143.269C165.693 143.269 167.11 142.517 169.358 141.285C170.004 140.934 170.719 140.546 171.483 140.115C173.613 138.945 176.169 137.523 178.873 135.995L180.64 134.979C190.008 129.615 197.687 124.466 197.687 121.652C197.687 116.934 194.269 107.961 189.441 98.9821C186.214 92.9836 183.529 88.1553 183.529 88.1553L172.061 95.1761C172.061 95.1761 175.966 100.399 179.969 106.151C184.637 112.857 189.435 120.272 188.339 121.011C187.501 121.572 183.233 124.91 178.516 128.642L177.66 129.313C175.116 131.327 172.486 133.409 170.22 135.213L168.372 136.66L164.043 140.115Z" fill="#EEC1BB"/>
<path opacity="0.2" d="M172.055 95.1761C172.055 95.1761 175.959 100.399 179.962 106.151L189.416 98.9821C186.189 92.9836 183.504 88.1553 183.504 88.1553L172.055 95.1761Z" fill="black"/>
<path opacity="0.2" d="M168.385 136.66L169.358 141.285C172.178 139.746 176.305 137.467 180.634 134.979C179.901 132.749 179.058 130.237 178.509 128.642C174.987 131.419 171.205 134.425 168.385 136.66Z" fill="black"/>
<path d="M158.986 101.009L161.197 107.746L161.647 109.132L165.016 119.386L165.397 120.562L167.627 127.337L170.213 135.22L171.408 138.866C171.408 139.278 171.451 139.697 171.482 140.097C172.615 157.514 181.687 180.276 181.687 180.276L184.926 179.395C183.775 165.717 181.317 149.773 178.866 135.977C178.46 133.686 178.059 131.451 177.635 129.295C177.407 128.063 177.185 126.9 176.969 125.748C176.501 123.284 176.058 120.981 175.621 118.826C175.417 117.803 175.22 116.824 175.036 115.869C174.561 113.517 174.13 111.423 173.748 109.625C173.367 107.826 173.065 106.342 172.819 105.203C172.461 103.546 172.264 102.622 172.264 102.622L158.986 101.009Z" fill="#EEC1BB"/>
<path d="M167.947 136.735C168.366 136.735 168.113 141.908 168.113 141.908C168.113 141.908 164.929 145.135 164.252 148.233C163.574 151.331 161.696 149.631 161.641 146.182C161.585 142.733 161.548 140.104 161.511 137.653C161.474 135.201 163.587 136.698 167.947 136.735Z" fill="#263238"/>
<path d="M166.833 144.648C166.915 143.9 167.123 143.171 167.448 142.492L167.485 142.449H167.516C167.533 142.441 167.55 142.438 167.569 142.438C167.587 142.438 167.605 142.441 167.621 142.449C167.67 142.449 168.883 142.88 169.185 143.576C169.234 143.681 169.259 143.796 169.259 143.912C169.259 144.028 169.234 144.142 169.185 144.247C169.081 144.482 168.933 144.599 168.76 144.592C168.489 144.592 168.212 144.217 167.978 143.798C168.052 144.187 168.013 144.588 167.867 144.956C167.833 145.025 167.785 145.086 167.725 145.135C167.666 145.183 167.597 145.219 167.522 145.239C167.43 145.279 167.328 145.29 167.23 145.269C167.131 145.248 167.042 145.196 166.974 145.122C166.872 144.986 166.821 144.818 166.833 144.648ZM167.553 142.967C167.239 143.73 166.968 144.685 167.171 144.925C167.171 144.925 167.245 145.005 167.448 144.956C167.525 144.928 167.589 144.874 167.627 144.802C167.769 144.195 167.744 143.56 167.553 142.967ZM168.988 143.866C168.986 143.795 168.97 143.726 168.939 143.662C168.669 143.258 168.276 142.951 167.818 142.788C168.12 143.552 168.532 144.284 168.766 144.297C168.834 144.297 168.902 144.18 168.933 144.106C168.966 144.036 168.985 143.961 168.988 143.884V143.866Z" fill="#003FA4"/>
<path d="M180.794 178.829C180.794 178.41 185.967 178.736 185.967 178.736C185.967 178.736 189.145 181.97 192.231 182.696C195.316 183.423 193.592 185.271 190.143 185.271H181.583C179.131 185.271 180.659 183.183 180.794 178.829Z" fill="#263238"/>
<path d="M188.653 180.06C187.908 179.968 187.185 179.747 186.515 179.407L186.466 179.37V179.339C186.454 179.306 186.454 179.268 186.466 179.235C186.466 179.185 186.922 178.003 187.624 177.689C187.728 177.64 187.842 177.615 187.957 177.615C188.071 177.615 188.185 177.64 188.289 177.689C188.523 177.8 188.64 177.947 188.628 178.12C188.628 178.391 188.246 178.668 187.827 178.89C188.218 178.822 188.619 178.867 188.985 179.019C189.053 179.054 189.112 179.103 189.16 179.162C189.208 179.222 189.243 179.29 189.262 179.364C189.299 179.459 189.306 179.562 189.283 179.661C189.26 179.76 189.208 179.85 189.133 179.918C188.995 180.022 188.824 180.072 188.653 180.06ZM186.984 179.315C187.747 179.641 188.696 179.931 188.936 179.727C188.936 179.727 189.022 179.653 188.973 179.45C188.962 179.412 188.944 179.376 188.918 179.345C188.893 179.314 188.861 179.289 188.825 179.272C188.449 179.056 187.569 179.192 186.984 179.315ZM187.913 177.898C187.841 177.897 187.77 177.912 187.704 177.941C187.297 178.206 186.986 178.595 186.817 179.05C187.581 178.76 188.32 178.354 188.332 178.126C188.332 178.052 188.221 177.984 188.148 177.954C188.074 177.919 187.995 177.9 187.913 177.898Z" fill="#003FA4"/>
<path opacity="0.7" d="M177.1 104.742L177.851 105.444L188.998 97.8808L187.569 94.4443C187.589 95.6555 187.413 96.8619 187.046 98.0163C186.424 99.4513 179.04 103.645 177.1 104.742Z" fill="white"/>
<path opacity="0.2" d="M158.986 101.009L161.197 107.746C167.288 109.194 171.23 109.662 173.767 109.643C173.397 107.851 173.083 106.361 172.837 105.221C172.48 103.565 172.283 102.641 172.283 102.641L158.986 101.009Z" fill="black"/>
<path d="M188.967 97.8855L177.813 105.448L177.099 104.746L174.568 102.357V108.337L159.171 105.578C156.837 95.2434 157.133 87.5883 158.143 82.3289C158.611 79.6805 159.45 77.1116 160.637 74.6984L160.834 72.7461L181.663 74.9078L181.866 76.2688L182.87 83.0001L187.556 94.4551L188.967 97.8855Z" fill="#003FA4"/>
<path opacity="0.2" d="M174.537 102.357V95.7061C174.537 95.7061 177.512 100.682 177.068 104.741L174.537 102.357Z" fill="black"/>
<path d="M176.563 104.741L188.462 96.1064L189.472 97.7631L177.493 106.151L176.563 104.741Z" fill="#003FA4"/>
<path opacity="0.7" d="M176.563 104.741L188.462 96.1064L189.472 97.7631L177.493 106.151L176.563 104.741Z" fill="white"/>
<path d="M158.494 104.223L174.851 107.111V108.718L158.987 106.15L158.494 104.223Z" fill="#003FA4"/>
<path opacity="0.7" d="M158.494 104.223L174.851 107.111V108.718L158.987 106.15L158.494 104.223Z" fill="white"/>
<path opacity="0.2" d="M165.028 75.2658C165.028 75.2658 163.495 80.9071 158.118 82.3297C158.586 79.6814 159.426 77.1125 160.612 74.6992L165.028 75.2658Z" fill="black"/>
<path opacity="0.2" d="M182.87 82.9882C180.88 81.0667 180.308 76.2568 180.308 76.2568H181.866L182.87 82.9882Z" fill="black"/>
<path opacity="0.2" d="M175.184 75.9184C175.184 76.0916 175.115 76.2576 174.992 76.38C174.87 76.5025 174.704 76.5712 174.531 76.5712C174.358 76.5712 174.192 76.5025 174.069 76.38C173.947 76.2576 173.878 76.0916 173.878 75.9184C173.878 75.7453 173.947 75.5793 174.069 75.4568C174.192 75.3344 174.358 75.2656 174.531 75.2656C174.704 75.2656 174.87 75.3344 174.992 75.4568C175.115 75.5793 175.184 75.7453 175.184 75.9184Z" fill="black"/>
<path d="M161.05 73.4795C156.234 72.3833 160.988 72.451 159.424 50.6927C159.322 49.5918 159.41 48.4816 159.683 47.4102C159.931 46.5622 160.472 45.8297 161.209 45.3427C161.947 44.8557 162.833 44.6456 163.71 44.7497C164.548 44.8421 165.293 44.9283 165.459 44.9344C165.909 44.9344 166.371 44.9652 166.833 44.996C169.972 45.1233 173.099 45.4773 176.188 46.0553C176.951 46.2093 177.733 46.394 178.497 46.5726C178.743 46.6342 181.576 47.0715 181.798 47.1331C181.798 47.1331 185.038 52.1646 184.742 55.8105C184.576 57.8429 183.886 59.3394 183.83 64.217C183.707 75.3025 186.023 74.9637 181.213 75.3025L161.05 73.4795Z" fill="#263238"/>
<path opacity="0.7" d="M183.831 64.2048C183.708 75.2903 186.023 74.9577 181.213 75.2903L161.05 73.4981C157.084 72.6051 159.609 72.4881 159.744 60.2941C159.744 58.2002 159.744 55.7552 159.572 52.9038C159.529 52.2017 159.48 51.4688 159.424 50.7175C159.322 49.6186 159.41 48.5104 159.683 47.4411C159.929 46.5913 160.469 45.8567 161.207 45.3683C161.945 44.8799 162.832 44.6694 163.711 44.7745C164.548 44.8668 165.293 44.9531 165.46 44.9531C165.903 44.9531 166.371 44.99 166.833 45.0208C169.972 45.1526 173.098 45.5045 176.188 46.0739C176.952 46.2402 177.728 46.4126 178.504 46.5974C178.75 46.659 181.583 47.0962 181.798 47.164C181.798 47.164 185.038 52.1894 184.748 55.8291C184.576 57.8307 183.874 59.3272 183.831 64.2048Z" fill="white"/>
<path opacity="0.1" d="M171.23 59.9863C171.23 59.9863 166.955 64.6237 159.744 60.2695C159.744 58.1756 159.744 55.7307 159.571 52.8792C162.361 51.8804 165.253 51.1906 168.193 50.8223L171.23 59.9863Z" fill="black"/>
<path d="M180.468 50.2736L184.957 47.7178L186.54 51.9487C186.54 51.9487 183.652 54.1781 181.077 52.6262L180.468 50.2736Z" fill="#EEC1BB"/>
<path d="M188.634 47.6201L189.052 51.0566L186.54 51.9619L184.957 47.731L188.634 47.6201Z" fill="#EEC1BB"/>
<path d="M165.656 48.1001C166.852 52.8653 168.738 57.4299 171.254 61.6491L171.384 61.8646C171.252 61.6706 171.085 61.5034 170.891 61.3719C170.67 61.2064 170.414 61.0951 170.142 61.047C169.87 60.9988 169.591 61.0152 169.327 61.0948C171.26 60.0786 172.788 58.2557 174.401 56.6975C176.317 54.7083 178.238 52.6267 180.129 50.5389C180.38 50.2775 180.717 50.116 181.078 50.0842C181.438 50.0525 181.799 50.1527 182.091 50.3663C182.384 50.5799 182.589 50.8924 182.669 51.2458C182.748 51.5992 182.697 51.9695 182.525 52.288C180.388 56.1112 177.866 59.7059 174.999 63.0163C173.985 64.2367 172.742 65.2472 171.341 65.9909C170.541 66.3834 169.623 66.4613 168.769 66.2093C167.915 65.9572 167.186 65.3935 166.728 64.6298C163.346 60.0124 160.972 54.7352 159.762 49.141C159.147 45.181 164.831 44.1278 165.656 48.057V48.1001Z" fill="#EBC0BB"/>
<path d="M163.229 44.732C159.965 44.344 157.97 48.1438 158.998 56.8706H169.203C169.203 56.8706 168.6 45.3478 163.229 44.732Z" fill="#263238"/>
<path opacity="0.7" d="M163.229 44.732C159.965 44.344 157.97 48.1438 158.998 56.8706H169.203C169.203 56.8706 168.6 45.3478 163.229 44.732Z" fill="white"/>
<path d="M158.481 54.8623L169.548 56.1802L169.585 57.6706H158.728L158.481 54.8623Z" fill="#263238"/>
<path opacity="0.8" d="M158.481 54.8623L169.548 56.1802L169.585 57.6706H158.728L158.481 54.8623Z" fill="white"/>
<path d="M171.488 19.8261C171.488 19.8261 173.834 18.1324 177.8 19.4319C181.767 20.7314 185.887 25.0054 184.07 31.1332C182.253 37.261 182.481 41.1717 182.481 41.1717C182.481 41.1717 168.846 38.9115 165.933 36.2449C163.02 33.5782 163.482 18.2495 171.488 19.8261Z" fill="#263238"/>
<path d="M168.674 34.5205C169.148 37.5998 169.53 43.2534 167.344 45.0455C170.105 46.6439 172.955 48.0833 175.88 49.3566C177.918 47.0409 176.705 46.0925 176.705 46.0925C173.379 44.9039 173.558 42.3973 174.241 40.1125L168.674 34.5205Z" fill="#EEC1BB"/>
<path opacity="0.2" d="M170.94 36.8057L174.229 40.1128C174.064 40.6497 173.947 41.1999 173.878 41.7572C172.603 41.4246 170.897 39.8049 170.799 38.4377C170.745 37.8896 170.793 37.3363 170.94 36.8057Z" fill="black"/>
<path d="M169.339 26.6305C168.354 31.5081 167.83 33.5527 169.536 36.7737C172.098 41.6266 178.158 42.0639 180.535 37.6543C182.685 33.682 183.941 26.3656 179.877 22.9723C179.028 22.214 177.993 21.6963 176.877 21.4729C175.762 21.2494 174.607 21.3284 173.532 21.7015C172.457 22.0747 171.501 22.7284 170.764 23.5951C170.027 24.4617 169.535 25.5097 169.339 26.6305Z" fill="#EEC1BB"/>
<path d="M174.82 29.7413C174.722 30.1478 174.82 30.5419 175.098 30.622C175.375 30.702 175.64 30.4434 175.713 30.0061C175.787 29.5689 175.713 29.2055 175.436 29.1193C175.159 29.0331 174.925 29.3348 174.82 29.7413Z" fill="#263238"/>
<path d="M179.797 31.1831C179.698 31.5895 179.797 31.9837 180.074 32.0699C180.351 32.1561 180.61 31.8851 180.69 31.454C180.77 31.0229 180.69 30.6534 180.413 30.5734C180.136 30.4933 179.896 30.7704 179.797 31.1831Z" fill="#263238"/>
<path d="M180.32 30.5664H181.318C181.318 30.5664 180.653 31.1823 180.32 30.5664Z" fill="#263238"/>
<path d="M178.072 31.583C178.186 32.6226 178.435 33.6431 178.811 34.6192C178.572 34.7032 178.318 34.7313 178.067 34.7014C177.816 34.6715 177.575 34.5844 177.363 34.4468L178.072 31.583Z" fill="#D4827D"/>
<path d="M174.764 35.229C174.962 35.3343 175.168 35.4229 175.38 35.4938C175.395 35.4995 175.41 35.5019 175.426 35.5008C175.441 35.4998 175.457 35.4952 175.47 35.4875C175.484 35.4799 175.495 35.4693 175.504 35.4565C175.513 35.4437 175.519 35.4291 175.522 35.4137C175.532 35.3827 175.529 35.3491 175.514 35.3203C175.499 35.2914 175.473 35.2697 175.442 35.2598C174.946 35.1012 174.491 34.8336 174.112 34.4766C173.733 34.1196 173.438 33.6823 173.249 33.1966C173.246 33.181 173.239 33.1662 173.23 33.1533C173.22 33.1403 173.208 33.1295 173.194 33.1214C173.18 33.1133 173.165 33.1082 173.149 33.1063C173.133 33.1044 173.117 33.1058 173.102 33.1104C173.072 33.1216 173.047 33.1438 173.034 33.1725C173.02 33.2012 173.018 33.2342 173.028 33.2644C173.343 34.112 173.962 34.8122 174.764 35.229Z" fill="#263238"/>
<path d="M174.728 26.9633C174.757 26.977 174.788 26.9841 174.82 26.9841C174.852 26.9841 174.884 26.977 174.913 26.9633C175.175 26.8279 175.468 26.7598 175.763 26.7652C176.059 26.7705 176.349 26.8492 176.606 26.9941C176.632 27.0118 176.661 27.024 176.691 27.0298C176.721 27.0357 176.753 27.0351 176.783 27.0282C176.813 27.0212 176.841 27.008 176.866 26.9894C176.891 26.9708 176.911 26.9472 176.927 26.9202C176.959 26.8626 176.968 26.7947 176.952 26.7306C176.936 26.6665 176.896 26.6109 176.84 26.5753C176.517 26.3853 176.152 26.2796 175.777 26.2677C175.403 26.2559 175.031 26.3384 174.697 26.5076C174.641 26.5399 174.6 26.5924 174.582 26.6543C174.563 26.7161 174.569 26.7826 174.599 26.8401C174.624 26.8963 174.671 26.9404 174.728 26.9633Z" fill="#263238"/>
<path d="M182.482 29.1569C182.509 29.1691 182.539 29.1755 182.568 29.1755C182.598 29.1755 182.627 29.1691 182.655 29.1569C182.685 29.1479 182.713 29.1327 182.737 29.1125C182.762 29.0922 182.782 29.0672 182.796 29.039C182.811 29.0108 182.819 28.9799 182.821 28.9483C182.823 28.9167 182.819 28.885 182.808 28.8551C182.717 28.4729 182.539 28.117 182.286 27.8156C182.034 27.5142 181.715 27.2756 181.355 27.1184C181.326 27.108 181.295 27.1038 181.264 27.1061C181.234 27.1083 181.204 27.1169 181.176 27.1314C181.149 27.1459 181.125 27.1659 181.106 27.1902C181.087 27.2145 181.073 27.2425 181.066 27.2724C181.048 27.3353 181.054 27.4026 181.084 27.4609C181.114 27.5192 181.164 27.5641 181.226 27.5865C181.507 27.7181 181.755 27.9117 181.952 28.1527C182.148 28.3937 182.287 28.6759 182.359 28.9783C182.365 29.0152 182.38 29.0503 182.401 29.0811C182.422 29.112 182.45 29.1378 182.482 29.1569Z" fill="#263238"/>
<path d="M175.344 29.1377H176.348C176.348 29.1377 175.676 29.7659 175.344 29.1377Z" fill="#263238"/>
<path d="M170.472 30.2217C170.472 30.2217 174.069 28.0169 174.506 22.5727C174.506 22.5727 180.504 22.3818 182.611 27.6966C182.611 27.6966 181.859 20.0538 173.299 19.7336C164.738 19.4133 167.097 28.8237 167.756 29.8029C168.415 30.7821 170.472 30.2217 170.472 30.2217Z" fill="#263238"/>
<path d="M166.746 30.0743C166.987 31.0968 167.622 31.9826 168.514 32.5377C169.678 33.2275 170.583 32.1436 170.528 30.7579C170.485 29.5262 169.826 27.6416 168.526 27.5246C167.227 27.4076 166.438 28.7687 166.746 30.0743Z" fill="#EEC1BB"/>
<path d="M68.3412 174.076H28.334V182.919H68.3412V174.076Z" fill="#FFC727"/>
<g opacity="0.1">
<path d="M29.9806 174.886C30.3711 177.226 30.3711 179.615 29.9806 181.956C29.5872 179.615 29.5872 177.226 29.9806 174.886Z" fill="black"/>
<path d="M32.9384 174.886C33.3318 177.226 33.3318 179.615 32.9384 181.956C32.5479 179.615 32.5479 177.226 32.9384 174.886Z" fill="black"/>
<path d="M34.4161 174.886C34.8067 177.226 34.8067 179.615 34.4161 181.956C34.0227 179.615 34.0227 177.226 34.4161 174.886Z" fill="black"/>
<path d="M42.4042 174.886C42.7976 177.226 42.7976 179.615 42.4042 181.956C42.0137 179.615 42.0137 177.226 42.4042 174.886Z" fill="black"/>
<path d="M44.5654 174.886C44.9587 177.226 44.9587 179.615 44.5654 181.956C44.1748 179.615 44.1748 177.226 44.5654 174.886Z" fill="black"/>
<path d="M53.5048 174.886C53.8982 177.226 53.8982 179.615 53.5048 181.956C53.1143 179.615 53.1143 177.226 53.5048 174.886Z" fill="black"/>
<path d="M55.5693 174.886C55.9627 177.226 55.9627 179.615 55.5693 181.956C55.1787 179.615 55.1787 177.226 55.5693 174.886Z" fill="black"/>
<path d="M59.3603 174.886C59.7537 177.226 59.7537 179.615 59.3603 181.956C58.9698 179.615 58.9698 177.226 59.3603 174.886Z" fill="black"/>
<path d="M51.7548 174.886C52.1482 177.226 52.1482 179.615 51.7548 181.956C51.3643 179.615 51.3643 177.226 51.7548 174.886Z" fill="black"/>
<path d="M37.0568 174.886C37.4473 177.226 37.4473 179.615 37.0568 181.956C36.6634 179.615 36.6634 177.226 37.0568 174.886Z" fill="black"/>
<path d="M47.4101 174.886C47.8035 177.226 47.8035 179.615 47.4101 181.956C47.0196 179.615 47.0196 177.226 47.4101 174.886Z" fill="black"/>
<path d="M48.9032 174.886C49.2966 177.226 49.2966 179.615 48.9032 181.956C48.5127 179.615 48.5127 177.226 48.9032 174.886Z" fill="black"/>
<path d="M64.2978 174.886C64.6912 177.226 64.6912 179.615 64.2978 181.956C63.9073 179.615 63.9073 177.226 64.2978 174.886Z" fill="black"/>
<path d="M66.539 174.886C66.9324 177.226 66.9324 179.615 66.539 181.956C66.1485 179.615 66.1485 177.226 66.539 174.886Z" fill="black"/>
<path d="M61.122 174.886C61.5154 177.226 61.5154 179.615 61.122 181.956C60.7315 179.615 60.7315 177.226 61.122 174.886Z" fill="black"/>
<path d="M40.6767 174.886C41.0701 177.226 41.0701 179.615 40.6767 181.956C40.2862 179.615 40.2862 177.226 40.6767 174.886Z" fill="black"/>
</g>
<path opacity="0.1" d="M68.3355 174.076V175.952L28.334 177.218V174.076H68.3355Z" fill="black"/>
<path d="M64.1273 165.233H24.1201V174.076H64.1273V165.233Z" fill="#FFC727"/>
<g opacity="0.1">
<path d="M25.7685 166.036C26.1619 168.376 26.1619 170.766 25.7685 173.106C25.378 170.766 25.378 168.377 25.7685 166.036Z" fill="black"/>
<path d="M28.7511 166.036C29.1416 168.377 29.1416 170.766 28.7511 173.106C28.3577 170.766 28.3577 168.376 28.7511 166.036Z" fill="black"/>
<path d="M30.204 166.036C30.5974 168.376 30.5974 170.766 30.204 173.106C29.8135 170.766 29.8135 168.377 30.204 166.036Z" fill="black"/>
<path d="M38.1974 166.036C38.5879 168.377 38.5879 170.766 38.1974 173.106C37.804 170.766 37.804 168.376 38.1974 166.036Z" fill="black"/>
<path d="M40.3527 166.036C40.7432 168.377 40.7432 170.766 40.3527 173.106C39.9593 170.766 39.9593 168.376 40.3527 166.036Z" fill="black"/>
<path d="M49.2929 166.036C49.6863 168.376 49.6863 170.766 49.2929 173.106C48.9024 170.766 48.9024 168.377 49.2929 166.036Z" fill="black"/>
<path d="M51.3634 166.036C51.7539 168.377 51.7539 170.766 51.3634 173.106C50.97 170.766 50.97 168.376 51.3634 166.036Z" fill="black"/>
<path d="M55.1759 166.036C55.5664 168.377 55.5664 170.766 55.1759 173.106C54.7825 170.766 54.7825 168.376 55.1759 166.036Z" fill="black"/>
<path d="M47.5714 166.036C47.9619 168.377 47.9619 170.766 47.5714 173.106C47.178 170.766 47.178 168.376 47.5714 166.036Z" fill="black"/>
<path d="M32.8447 166.036C33.238 168.376 33.238 170.766 32.8447 173.106C32.4541 170.766 32.4541 168.377 32.8447 166.036Z" fill="black"/>
<path d="M43.2032 166.036C43.5966 168.376 43.5966 170.766 43.2032 173.106C42.8099 170.766 42.8099 168.376 43.2032 166.036Z" fill="black"/>
<path d="M44.6915 166.036C45.0821 168.377 45.0821 170.766 44.6915 173.106C44.2981 170.766 44.2981 168.376 44.6915 166.036Z" fill="black"/>
<path d="M60.0968 166.036C60.4873 168.377 60.4873 170.766 60.0968 173.106C59.7034 170.766 59.7034 168.376 60.0968 166.036Z" fill="black"/>
<path d="M62.3312 166.036C62.7217 168.377 62.7217 170.766 62.3312 173.106C61.9378 170.766 61.9378 168.376 62.3312 166.036Z" fill="black"/>
<path d="M56.8866 166.036C57.28 168.376 57.28 170.766 56.8866 173.106C56.4961 170.766 56.4961 168.377 56.8866 166.036Z" fill="black"/>
<path d="M36.4698 166.036C36.8604 168.377 36.8604 170.766 36.4698 173.106C36.0765 170.766 36.0765 168.376 36.4698 166.036Z" fill="black"/>
</g>
<path opacity="0.1" d="M64.1273 165.238V167.114L24.1201 168.374V165.238H64.1273Z" fill="black"/>
<path d="M71.7846 147.626H31.7773V156.469H71.7846V147.626Z" fill="#FFC727"/>
<g opacity="0.1">
<path d="M33.4257 148.438C33.8162 150.78 33.8162 153.171 33.4257 155.513C33.0352 153.171 33.0352 150.78 33.4257 148.438Z" fill="black"/>
<path d="M36.4073 148.438C36.7979 150.78 36.7979 153.171 36.4073 155.513C36.014 153.171 36.014 150.78 36.4073 148.438Z" fill="black"/>
<path d="M37.8614 148.438C38.252 150.78 38.252 153.171 37.8614 155.513C37.4681 153.171 37.4681 150.78 37.8614 148.438Z" fill="black"/>
<path d="M45.8495 148.438C46.2429 150.78 46.2429 153.171 45.8495 155.513C45.459 153.171 45.459 150.78 45.8495 148.438Z" fill="black"/>
<path d="M48.0107 148.438C48.407 150.779 48.407 153.171 48.0107 155.513C47.6201 153.171 47.6201 150.78 48.0107 148.438Z" fill="black"/>
<path d="M56.9501 148.438C57.3435 150.78 57.3435 153.171 56.9501 155.513C56.5596 153.171 56.5596 150.78 56.9501 148.438Z" fill="black"/>
<path d="M59.0136 148.438C59.407 150.78 59.407 153.171 59.0136 155.513C58.6231 153.171 58.6231 150.78 59.0136 148.438Z" fill="black"/>
<path d="M62.8056 148.438C63.199 150.78 63.199 153.171 62.8056 155.513C62.4151 153.171 62.4151 150.78 62.8056 148.438Z" fill="black"/>
<path d="M55.2216 148.438C55.615 150.78 55.615 153.171 55.2216 155.513C54.8311 153.171 54.8311 150.78 55.2216 148.438Z" fill="black"/>
<path d="M40.5019 148.438C40.8953 150.78 40.8953 153.171 40.5019 155.513C40.1114 153.171 40.1114 150.78 40.5019 148.438Z" fill="black"/>
<path d="M50.8554 148.438C51.2488 150.78 51.2488 153.171 50.8554 155.513C50.4649 153.171 50.4649 150.78 50.8554 148.438Z" fill="black"/>
<path d="M52.3263 148.438C52.7168 150.78 52.7168 153.171 52.3263 155.513C51.9329 153.171 51.9329 150.78 52.3263 148.438Z" fill="black"/>
<path d="M67.749 148.438C68.1423 150.78 68.1423 153.171 67.749 155.513C67.3584 153.171 67.3584 150.78 67.749 148.438Z" fill="black"/>
<path d="M70.0009 148.438C70.3943 150.78 70.3943 153.171 70.0009 155.513C69.6104 153.171 69.6104 150.78 70.0009 148.438Z" fill="black"/>
<path d="M64.5673 148.438C64.9607 150.78 64.9607 153.171 64.5673 155.513C64.1768 153.171 64.1768 150.78 64.5673 148.438Z" fill="black"/>
<path d="M44.121 148.438C44.5144 150.78 44.5144 153.171 44.121 155.513C43.7305 153.171 43.7305 150.78 44.121 148.438Z" fill="black"/>
</g>
<path opacity="0.1" d="M71.7789 147.626V149.507L31.7773 150.767V147.626H71.7789Z" fill="black"/>
<path d="M70.7758 138.79H30.7686V147.633H70.7758V138.79Z" fill="#FFC727"/>
<g opacity="0.1">
<path d="M68.9745 146.651C68.584 144.31 68.584 141.921 68.9745 139.581C69.3679 141.921 69.3679 144.311 68.9745 146.651Z" fill="black"/>
<path d="M66.0089 146.651C65.6155 144.311 65.6155 141.921 66.0089 139.581C66.3994 141.921 66.3994 144.31 66.0089 146.651Z" fill="black"/>
<path d="M64.538 146.651C64.1475 144.31 64.1475 141.921 64.538 139.581C64.9314 141.921 64.9314 144.311 64.538 146.651Z" fill="black"/>
<path d="M56.5499 146.651C56.1565 144.311 56.1565 141.921 56.5499 139.581C56.9405 141.921 56.9405 144.31 56.5499 146.651Z" fill="black"/>
<path d="M54.3898 146.651C53.9964 144.311 53.9964 141.921 54.3898 139.581C54.7803 141.921 54.7803 144.31 54.3898 146.651Z" fill="black"/>
<path d="M45.4501 146.651C45.0596 144.31 45.0596 141.921 45.4501 139.581C45.8435 141.921 45.8435 144.311 45.4501 146.651Z" fill="black"/>
<path d="M43.3859 146.651C42.9925 144.311 42.9925 141.921 43.3859 139.581C43.7764 141.921 43.7764 144.31 43.3859 146.651Z" fill="black"/>
<path d="M39.5939 146.651C39.2005 144.311 39.2005 141.921 39.5939 139.581C39.9844 141.921 39.9844 144.31 39.5939 146.651Z" fill="black"/>
<path d="M47.1945 146.651C46.8011 144.311 46.8011 141.921 47.1945 139.581C47.585 141.921 47.585 144.31 47.1945 146.651Z" fill="black"/>
<path d="M61.8984 146.651C61.5078 144.31 61.5078 141.921 61.8984 139.581C62.2918 141.921 62.2918 144.311 61.8984 146.651Z" fill="black"/>
<path d="M51.545 146.651C51.1517 144.311 51.1517 141.921 51.545 139.581C51.9356 141.921 51.9356 144.31 51.545 146.651Z" fill="black"/>
<path d="M50.045 146.651C49.6517 144.311 49.6517 141.921 50.045 139.581C50.4356 141.921 50.4356 144.31 50.045 146.651Z" fill="black"/>
<path d="M34.6505 146.651C34.2571 144.311 34.2571 141.921 34.6505 139.581C35.041 141.921 35.041 144.31 34.6505 146.651Z" fill="black"/>
<path d="M32.4161 146.651C32.0227 144.311 32.0227 141.921 32.4161 139.581C32.8067 141.921 32.8067 144.31 32.4161 146.651Z" fill="black"/>
<path d="M37.8329 146.651C37.4424 144.31 37.4424 141.921 37.8329 139.581C38.2235 141.921 38.2235 144.31 37.8329 146.651Z" fill="black"/>
<path d="M58.2784 146.651C57.8851 144.311 57.8851 141.921 58.2784 139.581C58.669 141.921 58.669 144.31 58.2784 146.651Z" fill="black"/>
</g>
<path opacity="0.1" d="M70.7701 138.79V140.666L30.7686 141.926V138.79H70.7701Z" fill="black"/>
<path d="M64.7484 129.946H24.7412V138.789H64.7484V129.946Z" fill="#FFC727"/>
<g opacity="0.1">
<path d="M26.3888 130.757C26.7793 133.099 26.7793 135.49 26.3888 137.832C25.9954 135.49 25.9954 133.099 26.3888 130.757Z" fill="black"/>
<path d="M29.3652 130.757C29.7586 133.099 29.7586 135.49 29.3652 137.832C28.9746 135.49 28.9746 133.099 29.3652 130.757Z" fill="black"/>
<path d="M30.8243 130.757C31.2149 133.099 31.2149 135.49 30.8243 137.832C30.4309 135.49 30.4309 133.099 30.8243 130.757Z" fill="black"/>
<path d="M38.8124 130.757C39.2058 133.099 39.2058 135.49 38.8124 137.832C38.4219 135.49 38.4219 133.099 38.8124 130.757Z" fill="black"/>
<path d="M40.9736 130.757C41.367 133.099 41.367 135.49 40.9736 137.832C40.583 135.49 40.583 133.099 40.9736 130.757Z" fill="black"/>
<path d="M49.9132 130.757C50.3037 133.099 50.3037 135.49 49.9132 137.832C49.5198 135.49 49.5198 133.099 49.9132 130.757Z" fill="black"/>
<path d="M51.9765 130.757C52.3699 133.099 52.3699 135.49 51.9765 137.832C51.586 135.49 51.586 133.099 51.9765 130.757Z" fill="black"/>
<path d="M55.746 130.757C56.1394 133.099 56.1394 135.49 55.746 137.832C55.3555 135.49 55.3555 133.099 55.746 130.757Z" fill="black"/>
<path d="M48.1855 130.757C48.5789 133.099 48.5789 135.49 48.1855 137.832C47.7949 135.49 47.7949 133.099 48.1855 130.757Z" fill="black"/>
<path d="M33.465 130.757C33.8555 133.099 33.8555 135.49 33.465 137.832C33.0716 135.49 33.0716 133.099 33.465 130.757Z" fill="black"/>
<path d="M43.8183 130.757C44.2088 133.099 44.2088 135.49 43.8183 137.832C43.4278 135.49 43.4278 133.099 43.8183 130.757Z" fill="black"/>
<path d="M45.3056 130.757C45.699 133.099 45.699 135.49 45.3056 137.832C44.9151 135.49 44.9151 133.099 45.3056 130.757Z" fill="black"/>
<path d="M60.7109 130.757C61.1043 133.099 61.1043 135.49 60.7109 137.832C60.3203 135.49 60.3203 133.099 60.7109 130.757Z" fill="black"/>
<path d="M62.9472 130.757C63.3406 133.099 63.3406 135.49 62.9472 137.832C62.5567 135.49 62.5567 133.099 62.9472 130.757Z" fill="black"/>
<path d="M57.5302 130.757C57.9207 133.099 57.9207 135.49 57.5302 137.832C57.1397 135.49 57.1397 133.099 57.5302 130.757Z" fill="black"/>
<path d="M37.0849 130.757C37.4783 133.099 37.4783 135.49 37.0849 137.832C36.6944 135.49 36.6944 133.099 37.0849 130.757Z" fill="black"/>
</g>
<path opacity="0.1" d="M64.7436 129.946V131.828L24.7363 133.088V129.946H64.7436Z" fill="black"/>
<path d="M68.3412 156.47H28.334V165.313H68.3412V156.47Z" fill="#FFC727"/>
<g opacity="0.1">
<path d="M66.539 164.327C66.1485 161.986 66.1485 159.597 66.539 157.257C66.9324 159.597 66.9324 161.986 66.539 164.327Z" fill="black"/>
<path d="M63.5616 164.327C63.1683 161.986 63.1683 159.597 63.5616 157.257C63.9522 159.597 63.9522 161.986 63.5616 164.327Z" fill="black"/>
<path d="M62.1025 164.327C61.7119 161.986 61.7119 159.597 62.1025 157.257C62.4959 159.597 62.4959 161.986 62.1025 164.327Z" fill="black"/>
<path d="M54.1154 164.327C53.722 161.986 53.722 159.597 54.1154 157.257C54.5059 159.597 54.5059 161.986 54.1154 164.327Z" fill="black"/>
<path d="M51.9542 164.327C51.5608 161.986 51.5608 159.597 51.9542 157.257C52.3448 159.597 52.3448 161.986 51.9542 164.327Z" fill="black"/>
<path d="M43.0146 164.327C42.624 161.986 42.624 159.597 43.0146 157.257C43.408 159.597 43.408 161.986 43.0146 164.327Z" fill="black"/>
<path d="M40.9493 164.327C40.5559 161.986 40.5559 159.597 40.9493 157.257C41.3399 159.597 41.3399 161.986 40.9493 164.327Z" fill="black"/>
<path d="M37.1583 164.327C36.7649 161.986 36.7649 159.597 37.1583 157.257C37.5489 159.597 37.5489 161.986 37.1583 164.327Z" fill="black"/>
<path d="M44.7421 164.327C44.3516 161.986 44.3516 159.597 44.7421 157.257C45.1326 159.597 45.1326 161.986 44.7421 164.327Z" fill="black"/>
<path d="M59.4628 164.327C59.0723 161.986 59.0723 159.597 59.4628 157.257C59.8562 159.597 59.8562 161.986 59.4628 164.327Z" fill="black"/>
<path d="M49.1083 164.327C48.7178 161.986 48.7178 159.597 49.1083 157.257C49.4989 159.597 49.4989 161.986 49.1083 164.327Z" fill="black"/>
<path d="M47.6222 164.327C47.2288 161.986 47.2288 159.597 47.6222 157.257C48.0127 159.597 48.0127 161.986 47.6222 164.327Z" fill="black"/>
<path d="M32.215 164.327C31.8216 161.986 31.8216 159.597 32.215 157.257C32.6055 159.597 32.6055 161.986 32.215 164.327Z" fill="black"/>
<path d="M29.9806 164.327C29.5872 161.986 29.5872 159.597 29.9806 157.257C30.3711 159.597 30.3711 161.986 29.9806 164.327Z" fill="black"/>
<path d="M35.3974 164.327C35.0069 161.986 35.0069 159.597 35.3974 157.257C35.7908 159.597 35.7908 161.986 35.3974 164.327Z" fill="black"/>
<path d="M55.8429 164.327C55.4495 161.986 55.4495 159.597 55.8429 157.257C56.2334 159.597 56.2334 161.986 55.8429 164.327Z" fill="black"/>
</g>
<path opacity="0.1" d="M68.3355 156.47V158.346L28.334 159.611V156.47H68.3355Z" fill="black"/>
<path d="M25.1858 143.511C51.5209 148.237 44.5708 187.252 18.1844 182.52C-8.20205 177.788 -1.19494 138.778 25.1858 143.511Z" fill="#FFC727"/>
<path opacity="0.1" d="M25.1858 143.511C51.5209 148.237 44.5708 187.252 18.1844 182.52C-8.20205 177.788 -1.19494 138.778 25.1858 143.511Z" fill="black"/>
<path d="M22.712 143.071C47.7985 147.575 40.8541 186.585 15.7106 182.075C-9.43286 177.565 -2.40865 138.556 22.712 143.071Z" fill="#FFC727"/>
<path opacity="0.1" d="M3.29199 163.488C3.42883 170.439 7.47686 177.172 16.3084 178.757C37.1701 182.503 42.9457 150.124 22.1182 146.384L21.7077 146.321C41.241 150.232 35.6421 180.872 15.7497 177.303C7.63652 175.849 3.7253 169.846 3.29199 163.488Z" fill="black"/>
<g opacity="0.1">
<path d="M21.382 150.431C21.5513 150.476 21.6964 150.585 21.786 150.735C21.8756 150.885 21.9025 151.065 21.8609 151.235L21.5929 152.301C23.2988 152.871 24.7957 153.937 25.8919 155.363C25.9859 155.453 26.0556 155.566 26.0944 155.691C26.1333 155.815 26.1401 155.948 26.1142 156.076C26.0648 156.255 25.9467 156.408 25.7856 156.5C25.6244 156.593 25.4332 156.619 25.2533 156.572C25.163 156.553 25.0775 156.516 25.0021 156.463C24.9266 156.41 24.8627 156.342 24.8143 156.264C23.9161 155.018 22.6708 154.064 21.2337 153.521L19.3637 161.013C23.2179 162.889 24.552 164.839 23.8963 167.461C23.1894 170.312 20.3044 171.715 16.9348 170.985L16.416 173.072C16.3737 173.243 16.2652 173.39 16.1144 173.481C15.9636 173.571 15.783 173.599 15.6121 173.556C15.4412 173.514 15.2942 173.406 15.2033 173.255C15.1124 173.104 15.0851 172.923 15.1275 172.752L15.6577 170.637C13.4573 169.911 11.5642 168.467 10.2812 166.538C10.2063 166.453 10.1531 166.351 10.1263 166.24C10.0995 166.13 10.0998 166.015 10.1273 165.905C10.1791 165.732 10.2939 165.584 10.449 165.492C10.6041 165.399 10.7883 165.367 10.9654 165.403C11.0545 165.423 11.1388 165.461 11.2132 165.513C11.2876 165.566 11.3507 165.634 11.3987 165.711C12.4637 167.447 14.0917 168.765 16.0112 169.446L17.9155 161.817C14.1183 159.936 12.8241 158.048 13.4968 155.374C14.1696 152.7 17.0375 151.195 20.3386 151.953L20.5952 150.933C20.636 150.764 20.7408 150.617 20.8875 150.523C21.0342 150.43 21.2114 150.397 21.382 150.431ZM18.2519 160.454L20.0763 153.145C17.4651 152.575 15.3669 153.675 14.888 155.602C14.4319 157.427 15.0077 158.761 18.2519 160.454ZM19.0216 162.381L17.18 169.793C19.8711 170.403 21.9977 169.286 22.5052 167.251C22.967 165.38 22.3113 164.024 19.0216 162.381Z" fill="black"/>
</g>
<path d="M65.4736 15.6113V175.168C65.1682 175.167 64.8661 175.105 64.5846 174.986C64.3031 174.868 64.0478 174.695 63.8333 174.477C63.6187 174.26 63.4492 174.002 63.3344 173.719C63.2195 173.436 63.1617 173.133 63.1641 172.828V17.9331C63.1641 17.3195 63.407 16.7308 63.8398 16.2957C64.2726 15.8606 64.86 15.6146 65.4736 15.6113Z" fill="#263238"/>
<path d="M64.7101 12.5762H63.115C62.6626 12.5762 62.2959 12.9429 62.2959 13.3953V21.5308C62.2959 21.9831 62.6626 22.3499 63.115 22.3499H64.7101C65.1624 22.3499 65.5292 21.9831 65.5292 21.5308V13.3953C65.5292 12.9429 65.1624 12.5762 64.7101 12.5762Z" fill="#263238"/>
<g opacity="0.4">
<path d="M65.5353 13.4005V21.5359C65.5337 21.7521 65.4467 21.9589 65.2933 22.1112C65.1398 22.2634 64.9324 22.3489 64.7162 22.3489H63.115C62.8988 22.3489 62.6914 22.2634 62.538 22.1112C62.3845 21.9589 62.2975 21.7521 62.2959 21.5359V13.4005C62.2959 13.1826 62.382 12.9737 62.5354 12.8191C62.6889 12.6645 62.8972 12.5768 63.115 12.5752H64.7162C64.934 12.5768 65.1424 12.6645 65.2958 12.8191C65.4492 12.9737 65.5353 13.1826 65.5353 13.4005Z" fill="white"/>
</g>
<g opacity="0.2">
<path d="M64.359 13.4005V21.5359C64.3574 21.7521 64.2704 21.9589 64.117 22.1112C63.9635 22.2634 63.7561 22.3489 63.5399 22.3489H63.115C62.8988 22.3489 62.6914 22.2634 62.538 22.1112C62.3845 21.9589 62.2975 21.7521 62.2959 21.5359V13.4005C62.2959 13.1826 62.382 12.9737 62.5354 12.8191C62.6889 12.6645 62.8972 12.5768 63.115 12.5752H63.5399C63.7577 12.5768 63.9661 12.6645 64.1195 12.8191C64.2729 12.9737 64.359 13.1826 64.359 13.4005Z" fill="white"/>
</g>
<path d="M63.0661 21.112H61.3171C60.9381 21.1128 60.5626 21.0389 60.2122 20.8944C59.8618 20.7499 59.5434 20.5377 59.2751 20.27C59.0068 20.0023 58.7939 19.6843 58.6487 19.3342C58.5035 18.9841 58.4287 18.6088 58.4287 18.2298V16.6039C58.4303 15.8389 58.7354 15.1058 59.2769 14.5655C59.8184 14.0251 60.5521 13.7217 61.3171 13.7217H63.0969C63.1605 13.7217 63.2235 13.7343 63.2822 13.7588C63.3409 13.7834 63.3941 13.8193 63.4388 13.8645C63.4835 13.9098 63.5187 13.9635 63.5425 14.0225C63.5663 14.0815 63.5781 14.1446 63.5773 14.2082V14.9965C63.5781 15.0601 63.5663 15.1232 63.5425 15.1822C63.5187 15.2412 63.4835 15.2949 63.4388 15.3402C63.3941 15.3854 63.3409 15.4214 63.2822 15.4459C63.2235 15.4704 63.1605 15.483 63.0969 15.483H61.3171C61.0193 15.483 60.7335 15.6009 60.5223 15.811C60.3112 16.021 60.1917 16.3061 60.1901 16.6039V18.2482C60.1901 18.396 60.2193 18.5422 60.276 18.6786C60.3327 18.815 60.4158 18.9388 60.5205 19.043C60.6253 19.1472 60.7496 19.2296 60.8863 19.2856C61.023 19.3415 61.1694 19.3699 61.3171 19.3691H63.0969C63.2249 19.3707 63.3471 19.4227 63.437 19.5138C63.5269 19.6048 63.5773 19.7277 63.5773 19.8556V20.6501C63.575 20.7143 63.5598 20.7774 63.5326 20.8356C63.5055 20.8938 63.467 20.946 63.4193 20.989C63.3716 21.0321 63.3158 21.0652 63.2552 21.0863C63.1945 21.1074 63.1302 21.1162 63.0661 21.112Z" fill="#263238"/>
<g opacity="0.6">
<path d="M63.0661 21.112H61.3171C60.9381 21.1128 60.5626 21.0389 60.2122 20.8944C59.8618 20.7499 59.5434 20.5377 59.2751 20.27C59.0068 20.0023 58.7939 19.6843 58.6487 19.3342C58.5035 18.9841 58.4287 18.6088 58.4287 18.2298V16.6039C58.4303 15.8389 58.7354 15.1058 59.2769 14.5655C59.8184 14.0251 60.5521 13.7217 61.3171 13.7217H63.0969C63.1605 13.7217 63.2235 13.7343 63.2822 13.7588C63.3409 13.7834 63.3941 13.8193 63.4388 13.8645C63.4835 13.9098 63.5187 13.9635 63.5425 14.0225C63.5663 14.0815 63.5781 14.1446 63.5773 14.2082V14.9965C63.5781 15.0601 63.5663 15.1232 63.5425 15.1822C63.5187 15.2412 63.4835 15.2949 63.4388 15.3402C63.3941 15.3854 63.3409 15.4214 63.2822 15.4459C63.2235 15.4704 63.1605 15.483 63.0969 15.483H61.3171C61.0193 15.483 60.7335 15.6009 60.5223 15.811C60.3112 16.021 60.1917 16.3061 60.1901 16.6039V18.2482C60.1901 18.396 60.2193 18.5422 60.276 18.6786C60.3327 18.815 60.4158 18.9388 60.5205 19.043C60.6253 19.1472 60.7496 19.2296 60.8863 19.2856C61.023 19.3415 61.1694 19.3699 61.3171 19.3691H63.0969C63.2249 19.3707 63.3471 19.4227 63.437 19.5138C63.5269 19.6048 63.5773 19.7277 63.5773 19.8556V20.6501C63.575 20.7143 63.5598 20.7774 63.5326 20.8356C63.5055 20.8938 63.467 20.946 63.4193 20.989C63.3716 21.0321 63.3158 21.0652 63.2552 21.0863C63.1945 21.1074 63.1302 21.1162 63.0661 21.112Z" fill="white"/>
</g>
<path d="M60.2451 168.229L63.9095 169.54V172.065L60.2451 172.786V168.229Z" fill="#263238"/>
<path d="M60.2451 161.071L63.9095 162.389V164.908L60.2451 165.635V161.071Z" fill="#263238"/>
<path d="M60.2451 153.922L63.9095 155.234V157.753L60.2451 158.479V153.922Z" fill="#263238"/>
<path d="M60.2451 146.766L63.9095 148.077V150.602L60.2451 151.323V146.766Z" fill="#263238"/>
<path d="M60.2451 139.61L63.9095 140.928V143.447L60.2451 144.174V139.61Z" fill="#263238"/>
<path d="M60.2451 132.459L63.9095 133.771V136.296L60.2451 137.016V132.459Z" fill="#263238"/>
<path d="M60.2451 125.303L63.9095 126.621V129.14L60.2451 129.866V125.303Z" fill="#263238"/>
<path d="M60.2451 118.152L63.9095 119.464V121.983L60.2451 122.71V118.152Z" fill="#263238"/>
<path d="M60.2451 110.997L63.9095 112.309V114.834L60.2451 115.554V110.997Z" fill="#263238"/>
<path d="M60.2451 103.84L63.9095 105.158V107.677L60.2451 108.403V103.84Z" fill="#263238"/>
<path d="M60.2451 96.6904L63.9095 98.0022V100.527L60.2451 101.248V96.6904Z" fill="#263238"/>
<path d="M60.2451 89.5342L63.9095 90.8521V93.371L60.2451 94.0915V89.5342Z" fill="#263238"/>
<path d="M60.2451 82.3779L63.9095 83.6959V86.2147L60.2451 86.9414V82.3779Z" fill="#263238"/>
<path d="M60.2451 75.2275L63.9095 76.5393V79.0643L60.2451 79.7849V75.2275Z" fill="#263238"/>
<path d="M60.2451 68.0713L63.9095 69.3892V71.9081L60.2451 72.6348V68.0713Z" fill="#263238"/>
<path d="M60.2451 60.9209L63.9095 62.2327V64.7515L60.2451 65.4783V60.9209Z" fill="#263238"/>
<path d="M60.2451 53.7646L63.9095 55.0826V57.6014L60.2451 58.322V53.7646Z" fill="#263238"/>
<path d="M60.2451 46.6074L63.9095 47.9254V50.4442L60.2451 51.1709V46.6074Z" fill="#263238"/>
<path d="M60.2451 39.458L63.9095 40.7698V43.2948L60.2451 44.0154V39.458Z" fill="#263238"/>
<path d="M60.2451 32.3027L63.9095 33.6207V36.1395L60.2451 36.8601V32.3027Z" fill="#263238"/>
<path d="M60.2451 25.1514L63.9095 26.4631V28.982L60.2451 29.7087V25.1514Z" fill="#263238"/>
<path d="M60.9162 0H56.4204C56.1002 0 55.9031 0.387992 55.9955 0.837569L59.2411 17.2625C59.3211 17.6752 59.6168 17.9954 59.9062 17.9954H62.8808C63.1703 17.9954 63.3673 17.6752 63.3242 17.2625L61.5937 0.837569C61.5444 0.387992 61.2365 0 60.9162 0ZM61.1256 15.3595C61.1512 15.5243 61.1299 15.6929 61.064 15.8461C60.9619 15.7005 60.8926 15.5345 60.8608 15.3595L60.676 14.1278C60.6502 13.9611 60.6716 13.7904 60.7376 13.6351C60.8405 13.7825 60.9099 13.9507 60.9408 14.1278L61.1256 15.3595ZM58.8962 1.51501C59.2103 1.51501 59.512 1.87221 59.5798 2.30947L59.7646 3.5104C59.8323 3.94766 59.6291 4.30486 59.3211 4.30486C59.007 4.30486 58.7053 3.94766 58.6375 3.5104L58.4528 2.30947C58.385 1.87221 58.5883 1.51501 58.8962 1.51501Z" fill="#263238"/>
<path opacity="0.4" d="M60.9162 0H56.4204C56.1002 0 55.9031 0.387992 55.9955 0.837569L59.2411 17.2625C59.3211 17.6752 59.6168 17.9954 59.9062 17.9954H62.8808C63.1703 17.9954 63.3673 17.6752 63.3242 17.2625L61.5937 0.837569C61.5444 0.387992 61.2365 0 60.9162 0ZM61.1256 15.3595C61.1512 15.5243 61.1299 15.6929 61.064 15.8461C60.9619 15.7005 60.8926 15.5345 60.8608 15.3595L60.676 14.1278C60.6502 13.9611 60.6716 13.7904 60.7376 13.6351C60.8405 13.7825 60.9099 13.9507 60.9408 14.1278L61.1256 15.3595ZM58.8962 1.51501C59.2103 1.51501 59.512 1.87221 59.5798 2.30947L59.7646 3.5104C59.8323 3.94766 59.6291 4.30486 59.3211 4.30486C59.007 4.30486 58.7053 3.94766 58.6375 3.5104L58.4528 2.30947C58.385 1.87221 58.5883 1.51501 58.8962 1.51501Z" fill="white"/>
<path opacity="0.2" d="M59.2411 17.2625C59.3211 17.6752 59.6168 17.9954 59.9062 17.9954H62.0309C62.3265 17.9954 62.5174 17.6752 62.4743 17.2625L60.7438 0.837569C60.7007 0.387992 60.3866 0 60.0663 0H56.4204C56.1002 0 55.9031 0.387992 55.9955 0.837569L59.2411 17.2625ZM61.1256 15.3595C61.1872 15.7906 60.9963 16.1417 60.6883 16.1417C60.3804 16.1417 60.0725 15.7906 60.0171 15.3595L59.8323 14.1278C59.7646 13.6905 59.9616 13.3395 60.2634 13.3395C60.5652 13.3395 60.8793 13.6905 60.9408 14.1278L61.1256 15.3595ZM58.0463 1.51501H58.8962C59.2103 1.51501 59.512 1.87221 59.5798 2.30947L59.7646 3.5104C59.8323 3.94766 59.6291 4.30486 59.3211 4.30486H58.4713C58.1572 4.30486 57.8554 3.94766 57.7876 3.5104L57.6029 2.30947C57.5351 1.87221 57.7384 1.51501 58.0463 1.51501Z" fill="white"/>
<path d="M63.0652 19.35H61.3162C61.1685 19.3509 61.0221 19.3225 60.8854 19.2665C60.7487 19.2105 60.6244 19.1281 60.5196 19.0239C60.4149 18.9198 60.3318 18.7959 60.2751 18.6596C60.2184 18.5232 60.1892 18.3769 60.1892 18.2292V16.6033C60.1899 16.3581 60.271 16.12 60.4201 15.9253C60.5692 15.7306 60.7779 15.5902 61.0144 15.5256V14.9836L60.922 14.7619C60.922 14.7619 60.922 14.7619 60.922 14.7311V14.7003C60.922 14.6449 60.8235 13.9798 60.8235 13.9243C60.8205 13.8874 60.8205 13.8504 60.8235 13.8135C60.161 13.9289 59.5601 14.2733 59.1257 14.7866C58.6912 15.2998 58.4507 15.9493 58.4463 16.6218V18.2477C58.4463 18.6267 58.521 19.002 58.6663 19.3521C58.8115 19.7022 59.0244 20.0202 59.2927 20.2879C59.5609 20.5556 59.8794 20.7678 60.2298 20.9123C60.5802 21.0567 60.9557 21.1307 61.3347 21.1299H63.1145C63.2419 21.1299 63.3641 21.0793 63.4542 20.9892C63.5443 20.8991 63.5949 20.7769 63.5949 20.6495V19.8551C63.5978 19.7858 63.5859 19.7168 63.5599 19.6525C63.534 19.5883 63.4947 19.5303 63.4445 19.4825C63.3944 19.4347 63.3346 19.3981 63.2692 19.3753C63.2038 19.3525 63.1342 19.3438 63.0652 19.35Z" fill="#263238"/>
<g opacity="0.6">
<path d="M63.0652 19.351H61.3162C61.1685 19.3518 61.0221 19.3234 60.8854 19.2675C60.7487 19.2115 60.6244 19.1291 60.5196 19.0249C60.4149 18.9208 60.3318 18.7969 60.2751 18.6605C60.2184 18.5241 60.1892 18.3779 60.1892 18.2302V16.6043C60.1899 16.3591 60.271 16.1209 60.4201 15.9263C60.5692 15.7316 60.7779 15.5912 61.0144 15.5265V14.9846L60.922 14.7629C60.922 14.7629 60.922 14.7629 60.922 14.7321V14.7013C60.922 14.6459 60.8235 13.9807 60.8235 13.9253C60.8205 13.8884 60.8205 13.8513 60.8235 13.8145C60.161 13.9299 59.5601 14.2743 59.1257 14.7875C58.6912 15.3008 58.4507 15.9503 58.4463 16.6228V18.2486C58.4463 18.6277 58.521 19.003 58.6663 19.353C58.8115 19.7031 59.0244 20.0211 59.2927 20.2889C59.5609 20.5566 59.8794 20.7688 60.2298 20.9132C60.5802 21.0577 60.9557 21.1317 61.3347 21.1309H63.1145C63.2419 21.1309 63.3641 21.0802 63.4542 20.9902C63.5443 20.9001 63.5949 20.7779 63.5949 20.6505V19.856C63.5978 19.7868 63.5859 19.7178 63.5599 19.6535C63.534 19.5893 63.4947 19.5313 63.4445 19.4835C63.3944 19.4357 63.3346 19.3991 63.2692 19.3763C63.2038 19.3534 63.1342 19.3448 63.0652 19.351Z" fill="white"/>
</g>
<path d="M157.483 8.17188H70.8189C67.5604 8.17188 64.9189 10.8134 64.9189 14.0718V179.368C64.9189 182.627 67.5604 185.268 70.8189 185.268H157.483C160.741 185.268 163.383 182.627 163.383 179.368V14.0718C163.383 10.8134 160.741 8.17188 157.483 8.17188Z" fill="#263238"/>
<path opacity="0.3" d="M157.483 8.17188H70.8189C67.5604 8.17188 64.9189 10.8134 64.9189 14.0718V179.368C64.9189 182.627 67.5604 185.268 70.8189 185.268H157.483C160.741 185.268 163.383 182.627 163.383 179.368V14.0718C163.383 10.8134 160.741 8.17188 157.483 8.17188Z" fill="white"/>
<path d="M160.058 14.1036V179.018C160.057 179.339 159.992 179.657 159.867 179.953C159.743 180.249 159.56 180.517 159.331 180.741C159.102 180.966 158.83 181.143 158.532 181.261C158.234 181.38 157.915 181.438 157.594 181.433H70.4315C70.1409 181.437 69.8523 181.382 69.5832 181.272C69.3141 181.163 69.0699 181 68.8652 180.793C68.6605 180.587 68.4996 180.341 68.392 180.071C68.2844 179.801 68.2324 179.512 68.2391 179.222V13.9373C68.2173 13.4241 68.3993 12.9231 68.7454 12.5436C69.0915 12.164 69.5736 11.9367 70.0866 11.9111H91.8819C92.1883 11.9163 92.4863 12.0129 92.7375 12.1884C92.9888 12.364 93.1819 12.6105 93.2922 12.8965L94.1914 15.1136C94.3017 15.3956 94.4937 15.6383 94.7427 15.8105C94.9918 15.9828 95.2866 16.0768 95.5894 16.0805H132.756C133.059 16.079 133.354 15.9874 133.604 15.8173C133.854 15.6473 134.048 15.4066 134.161 15.1259L135.06 12.8965C135.17 12.612 135.363 12.3665 135.613 12.1912C135.863 12.0158 136.159 11.9184 136.464 11.9111H157.951C158.517 11.9364 159.051 12.1781 159.443 12.5863C159.835 12.9944 160.055 13.5377 160.058 14.1036Z" fill="#263238"/>
<path opacity="0.6" d="M114.132 12.0891C114.132 12.3328 114.06 12.5709 113.925 12.7734C113.789 12.976 113.597 13.1339 113.372 13.2271C113.147 13.3203 112.899 13.3447 112.66 13.2972C112.421 13.2497 112.202 13.1324 112.03 12.9601C111.857 12.7878 111.74 12.5684 111.693 12.3294C111.645 12.0905 111.669 11.8429 111.763 11.6178C111.856 11.3927 112.014 11.2004 112.216 11.065C112.419 10.9297 112.657 10.8574 112.901 10.8574C113.225 10.8652 113.534 10.9975 113.763 11.2268C113.992 11.4562 114.125 11.7649 114.132 12.0891Z" fill="white"/>
<path opacity="0.6" d="M116.683 12.09C116.683 12.2496 116.636 12.4055 116.547 12.5382C116.458 12.6709 116.332 12.7743 116.185 12.8354C116.037 12.8964 115.875 12.9124 115.719 12.8813C115.562 12.8501 115.418 12.7733 115.306 12.6605C115.193 12.5477 115.116 12.4039 115.085 12.2474C115.054 12.0909 115.07 11.9287 115.131 11.7813C115.192 11.6338 115.295 11.5078 115.428 11.4192C115.561 11.3305 115.717 11.2832 115.876 11.2832C115.982 11.2824 116.088 11.3027 116.186 11.343C116.284 11.3832 116.373 11.4426 116.448 11.5177C116.523 11.5928 116.583 11.682 116.623 11.7803C116.663 11.8785 116.684 11.9838 116.683 12.09Z" fill="white"/>
<path d="M158.733 22.4424H69.5625V173.741H158.733V22.4424Z" fill="#003FA4"/>
<path opacity="0.6" d="M158.733 22.4424H69.5625V173.741H158.733V22.4424Z" fill="white"/>
<path d="M153.887 139.855H74.4099C73.0698 139.855 71.9834 140.942 71.9834 142.282V155.843C71.9834 157.183 73.0698 158.27 74.4099 158.27H153.887C155.227 158.27 156.313 157.183 156.313 155.843V142.282C156.313 140.942 155.227 139.855 153.887 139.855Z" fill="#003FA4"/>
<path d="M153.887 113.282H74.4099C73.0698 113.282 71.9834 114.369 71.9834 115.709V134.295C71.9834 135.635 73.0698 136.722 74.4099 136.722H153.887C155.227 136.722 156.313 135.635 156.313 134.295V115.709C156.313 114.369 155.227 113.282 153.887 113.282Z" fill="white"/>
<path d="M153.887 46.0479H74.4099C73.0698 46.0479 71.9834 47.1342 71.9834 48.4743V108.348C71.9834 109.688 73.0698 110.775 74.4099 110.775H153.887C155.227 110.775 156.313 109.688 156.313 108.348V48.4743C156.313 47.1342 155.227 46.0479 153.887 46.0479Z" fill="white"/>
<path d="M153.887 25.3242H74.4099C73.0698 25.3242 71.9834 26.4106 71.9834 27.7507V41.3119C71.9834 42.652 73.0698 43.7384 74.4099 43.7384H153.887C155.227 43.7384 156.313 42.652 156.313 41.3119V27.7507C156.313 26.4106 155.227 25.3242 153.887 25.3242Z" fill="#003FA4"/>
<g opacity="0.5">
<path d="M114.785 124.619L115.586 125.062L115.315 125.536L114.496 125.062V125.967H113.96V125.068L113.153 125.536L112.87 125.062L113.677 124.619L112.87 124.169L113.153 123.689L113.96 124.163V123.264H114.496V124.175L115.315 123.695L115.586 124.175L114.785 124.619Z" fill="black"/>
<path d="M117.859 124.619L118.659 125.062L118.382 125.536L117.569 125.062V125.967H117.033V125.068L116.22 125.536L115.943 125.062L116.75 124.619L115.943 124.169L116.22 123.689L117.033 124.163V123.264H117.569V124.175L118.382 123.695L118.659 124.175L117.859 124.619Z" fill="black"/>
<path d="M120.925 124.618L121.732 125.062L121.455 125.536L120.636 125.062V125.967H120.1V125.068L119.287 125.536L119.004 125.062L119.817 124.618L119.022 124.175L119.306 123.694L120.119 124.169V123.27H120.654V124.175L121.473 123.694L121.751 124.175L120.925 124.618Z" fill="black"/>
<path d="M123.999 124.619L124.8 125.062L124.529 125.536L123.71 125.062V125.967H123.174V125.068L122.367 125.536L122.084 125.062L122.891 124.619L122.084 124.169L122.367 123.689L123.174 124.163V123.264H123.71V124.175L124.529 123.695L124.8 124.175L123.999 124.619Z" fill="black"/>
<path d="M128.87 124.618L129.676 125.062L129.399 125.536L128.58 125.062V125.967H128.044V125.068L127.232 125.536L126.948 125.062L127.761 124.618L126.967 124.175L127.25 123.694L128.063 124.169V123.27H128.599V124.175L129.418 123.694L129.695 124.175L128.87 124.618Z" fill="black"/>
<path d="M131.943 124.619L132.743 125.062L132.472 125.536L131.653 125.062V125.967H131.117V125.068L130.311 125.536L130.027 125.062L130.834 124.619L130.027 124.169L130.311 123.689L131.117 124.163V123.264H131.653V124.175L132.472 123.695L132.743 124.175L131.943 124.619Z" fill="black"/>
<path d="M135.01 124.619L135.817 125.062L135.54 125.536L134.721 125.062V125.967H134.185V125.068L133.372 125.536L133.089 125.062L133.902 124.619L133.089 124.169L133.372 123.689L134.185 124.163V123.264H134.721V124.169L135.54 123.689L135.817 124.169L135.01 124.619Z" fill="black"/>
<path d="M138.083 124.619L138.89 125.062L138.613 125.536L137.794 125.062V125.967H137.258V125.068L136.451 125.536L136.168 125.062L136.981 124.619L136.168 124.169L136.451 123.689L137.258 124.163V123.264H137.794V124.175L138.613 123.695L138.89 124.175L138.083 124.619Z" fill="black"/>
<path d="M142.955 124.619L143.762 125.062L143.485 125.536L142.672 125.062V125.967H142.136V125.068L141.323 125.536L141.04 125.062L141.853 124.619L141.04 124.169L141.323 123.689L142.136 124.163V123.264H142.672V124.175L143.485 123.695L143.762 124.175L142.955 124.619Z" fill="black"/>
<path d="M146.028 124.619L146.834 125.062L146.557 125.536L145.738 125.062V125.967H145.202V125.068L144.396 125.536L144.112 125.062L144.925 124.619L144.112 124.169L144.396 123.689L145.202 124.163V123.264H145.738V124.175L146.557 123.695L146.834 124.175L146.028 124.619Z" fill="black"/>
<path d="M149.102 124.619L149.902 125.062L149.631 125.536L148.812 125.062V125.967H148.277V125.068L147.47 125.536L147.187 125.062L147.993 124.619L147.187 124.169L147.47 123.689L148.277 124.163V123.264H148.812V124.175L149.631 123.695L149.902 124.175L149.102 124.619Z" fill="black"/>
</g>
<path d="M91.8506 119.643H79.8844C79.0001 119.643 78.2832 120.359 78.2832 121.244V128.092C78.2832 128.976 79.0001 129.693 79.8844 129.693H91.8506C92.7349 129.693 93.4518 128.976 93.4518 128.092V121.244C93.4518 120.359 92.7349 119.643 91.8506 119.643Z" fill="#F24D4D"/>
<g opacity="0.5">
<path d="M93.4518 125.063H78.2832V127.57H93.4518V125.063Z" fill="black"/>
</g>
<g opacity="0.5">
<path d="M92.2328 123.271C92.234 123.421 92.1906 123.568 92.1081 123.693C92.0256 123.819 91.9077 123.917 91.7694 123.975C91.6311 124.033 91.4786 124.049 91.3313 124.021C91.1839 123.992 91.0484 123.921 90.9418 123.815C90.8353 123.709 90.7625 123.574 90.7328 123.427C90.7031 123.28 90.7177 123.127 90.7748 122.989C90.832 122.85 90.9291 122.731 91.0538 122.648C91.1785 122.564 91.3252 122.52 91.4753 122.52C91.6751 122.52 91.8668 122.598 92.0087 122.739C92.1506 122.88 92.2311 123.071 92.2328 123.271Z" fill="black"/>
</g>
<path d="M91.2474 123.271C91.2486 123.421 91.2052 123.568 91.1228 123.693C91.0403 123.819 90.9224 123.917 90.7841 123.975C90.6458 124.033 90.4933 124.049 90.3459 124.021C90.1986 123.992 90.063 123.921 89.9565 123.815C89.8499 123.709 89.7772 123.574 89.7474 123.427C89.7177 123.28 89.7323 123.127 89.7895 122.989C89.8466 122.85 89.9437 122.731 90.0684 122.648C90.1931 122.564 90.3398 122.52 90.4899 122.52C90.6897 122.52 90.8815 122.598 91.0234 122.739C91.1653 122.88 91.2458 123.071 91.2474 123.271Z" fill="white"/>
<path d="M150.382 32.1855H144.303C144.211 32.2141 144.114 32.2206 144.018 32.2046C143.923 32.1886 143.833 32.1504 143.756 32.0932C143.678 32.0359 143.615 31.9612 143.571 31.8751C143.528 31.789 143.505 31.6938 143.505 31.5973C143.505 31.5008 143.528 31.4056 143.571 31.3195C143.615 31.2334 143.678 31.1587 143.756 31.1014C143.833 31.0442 143.923 31.006 144.018 30.99C144.114 30.974 144.211 30.9805 144.303 31.0092H150.382C150.474 30.9805 150.572 30.974 150.667 30.99C150.762 31.006 150.852 31.0442 150.93 31.1014C151.008 31.1587 151.071 31.2334 151.114 31.3195C151.158 31.4056 151.18 31.5008 151.18 31.5973C151.18 31.6938 151.158 31.789 151.114 31.8751C151.071 31.9612 151.008 32.0359 150.93 32.0932C150.852 32.1504 150.762 32.1886 150.667 32.2046C150.572 32.2206 150.474 32.2141 150.382 32.1855Z" fill="white"/>
<path d="M150.382 38.0535H144.303C144.211 38.0839 144.112 38.0919 144.016 38.0769C143.92 38.0619 143.829 38.0244 143.75 37.9673C143.671 37.9102 143.607 37.8352 143.562 37.7485C143.518 37.6617 143.495 37.5658 143.495 37.4684C143.495 37.371 143.518 37.2751 143.562 37.1883C143.607 37.1016 143.671 37.0266 143.75 36.9695C143.829 36.9124 143.92 36.8749 144.016 36.8599C144.112 36.8449 144.211 36.8529 144.303 36.8833H150.382C150.474 36.8529 150.573 36.8449 150.669 36.8599C150.765 36.8749 150.856 36.9124 150.935 36.9695C151.014 37.0266 151.078 37.1016 151.123 37.1883C151.167 37.2751 151.19 37.371 151.19 37.4684C151.19 37.5658 151.167 37.6617 151.123 37.7485C151.078 37.8352 151.014 37.9102 150.935 37.9673C150.856 38.0244 150.765 38.0619 150.669 38.0769C150.573 38.0919 150.474 38.0839 150.382 38.0535Z" fill="white"/>
<path d="M150.382 35.1229H144.303C144.211 35.1516 144.114 35.1581 144.018 35.1421C143.923 35.1261 143.833 35.0879 143.756 35.0307C143.678 34.9734 143.615 34.8987 143.571 34.8126C143.528 34.7265 143.505 34.6313 143.505 34.5348C143.505 34.4383 143.528 34.3431 143.571 34.257C143.615 34.1709 143.678 34.0962 143.756 34.0389C143.833 33.9817 143.923 33.9435 144.018 33.9275C144.114 33.9115 144.211 33.918 144.303 33.9467H150.382C150.474 33.918 150.572 33.9115 150.667 33.9275C150.762 33.9435 150.852 33.9817 150.93 34.0389C151.008 34.0962 151.071 34.1709 151.114 34.257C151.158 34.3431 151.18 34.4383 151.18 34.5348C151.18 34.6313 151.158 34.7265 151.114 34.8126C151.071 34.8987 151.008 34.9734 150.93 35.0307C150.852 35.0879 150.762 35.1261 150.667 35.1421C150.572 35.1581 150.474 35.1516 150.382 35.1229Z" fill="white"/>
<g opacity="0.3">
<path d="M105.381 84.681H79.4538C79.2529 84.694 79.0515 84.6656 78.862 84.5977C78.6725 84.5298 78.4989 84.4237 78.352 84.286C78.2052 84.1484 78.0881 83.982 78.008 83.7973C77.928 83.6126 77.8867 83.4134 77.8867 83.2121C77.8867 83.0108 77.928 82.8117 78.008 82.6269C78.0881 82.4422 78.2052 82.2759 78.352 82.1382C78.4989 82.0006 78.6725 81.8945 78.862 81.8266C79.0515 81.7586 79.2529 81.7303 79.4538 81.7433H105.381C105.755 81.7675 106.105 81.9327 106.36 82.2055C106.616 82.4783 106.758 82.8382 106.758 83.2121C106.758 83.586 106.616 83.9459 106.36 84.2187C106.105 84.4915 105.755 84.6568 105.381 84.681Z" fill="black"/>
<path d="M116.541 92.9017H79.4538C79.2529 92.9147 79.0515 92.8863 78.862 92.8184C78.6725 92.7505 78.4989 92.6444 78.352 92.5067C78.2052 92.3691 78.0881 92.2027 78.008 92.018C77.928 91.8333 77.8867 91.6341 77.8867 91.4328C77.8867 91.2315 77.928 91.0324 78.008 90.8476C78.0881 90.6629 78.2052 90.4966 78.352 90.3589C78.4989 90.2213 78.6725 90.1152 78.862 90.0473C79.0515 89.9793 79.2529 89.951 79.4538 89.964H116.541C116.914 89.9882 117.264 90.1534 117.52 90.4262C117.775 90.699 117.918 91.0589 117.918 91.4328C117.918 91.8067 117.775 92.1666 117.52 92.4394C117.264 92.7122 116.914 92.8775 116.541 92.9017Z" fill="black"/>
<path d="M148.843 92.9017H138.773C138.4 92.8775 138.05 92.7122 137.794 92.4394C137.539 92.1666 137.396 91.8067 137.396 91.4328C137.396 91.0589 137.539 90.699 137.794 90.4262C138.05 90.1534 138.4 89.9882 138.773 89.964H148.843C149.043 89.951 149.245 89.9793 149.434 90.0473C149.624 90.1152 149.797 90.2213 149.944 90.3589C150.091 90.4966 150.208 90.6629 150.288 90.8476C150.368 91.0324 150.41 91.2315 150.41 91.4328C150.41 91.6341 150.368 91.8333 150.288 92.018C150.208 92.2027 150.091 92.3691 149.944 92.5067C149.797 92.6444 149.624 92.7505 149.434 92.8184C149.245 92.8863 149.043 92.9147 148.843 92.9017Z" fill="black"/>
<path d="M96.5747 98.7777H79.4538C79.2529 98.7907 79.0515 98.7623 78.862 98.6944C78.6725 98.6265 78.4989 98.5204 78.352 98.3827C78.2052 98.2451 78.0881 98.0787 78.008 97.894C77.928 97.7093 77.8867 97.5101 77.8867 97.3088C77.8867 97.1075 77.928 96.9084 78.008 96.7236C78.0881 96.5389 78.2052 96.3726 78.352 96.2349C78.4989 96.0973 78.6725 95.9912 78.862 95.9232C79.0515 95.8553 79.2529 95.827 79.4538 95.84H96.5747C96.9478 95.8642 97.2977 96.0294 97.5534 96.3022C97.8091 96.575 97.9514 96.9349 97.9514 97.3088C97.9514 97.6827 97.8091 98.0426 97.5534 98.3154C97.2977 98.5882 96.9478 98.7535 96.5747 98.7777Z" fill="black"/>
<path d="M148.842 98.7777H134.678C134.304 98.7535 133.954 98.5882 133.699 98.3154C133.443 98.0426 133.301 97.6827 133.301 97.3088C133.301 96.9349 133.443 96.575 133.699 96.3022C133.954 96.0294 134.304 95.8642 134.678 95.84H148.842C149.043 95.827 149.245 95.8553 149.434 95.9232C149.624 95.9912 149.797 96.0973 149.944 96.2349C150.091 96.3726 150.208 96.5389 150.288 96.7236C150.368 96.9084 150.409 97.1075 150.409 97.3088C150.409 97.5101 150.368 97.7093 150.288 97.894C150.208 98.0787 150.091 98.2451 149.944 98.3827C149.797 98.5204 149.624 98.6265 149.434 98.6944C149.245 98.7623 149.043 98.7907 148.842 98.7777Z" fill="black"/>
<path d="M113.049 104.646H79.4843C79.0956 104.646 78.7227 104.492 78.4479 104.217C78.173 103.942 78.0186 103.569 78.0186 103.181C78.0186 102.792 78.173 102.419 78.4479 102.144C78.7227 101.869 79.0956 101.715 79.4843 101.715H113.049C113.437 101.715 113.81 101.869 114.085 102.144C114.36 102.419 114.514 102.792 114.514 103.181C114.514 103.569 114.36 103.942 114.085 104.217C113.81 104.492 113.437 104.646 113.049 104.646Z" fill="black"/>
<path d="M148.842 104.646H140.534C140.145 104.646 139.773 104.492 139.498 104.217C139.223 103.942 139.068 103.569 139.068 103.181C139.068 102.792 139.223 102.419 139.498 102.144C139.773 101.869 140.145 101.715 140.534 101.715H148.842C149.231 101.715 149.604 101.869 149.878 102.144C150.153 102.419 150.308 102.792 150.308 103.181C150.308 103.569 150.153 103.942 149.878 104.217C149.604 104.492 149.231 104.646 148.842 104.646Z" fill="black"/>
</g>
<path d="M141.231 148.237C141.231 149.284 140.467 149.919 139.217 149.919H137.886V151.477H137.369V146.55H139.217C140.467 146.544 141.231 147.178 141.231 148.237ZM140.707 148.237C140.707 147.449 140.19 147.006 139.198 147.006H137.886V149.469H139.198C140.19 149.463 140.707 149.013 140.707 148.237Z" fill="black"/>
<path d="M138.182 151.772H137.067V146.229H139.211C140.633 146.229 141.52 146.987 141.52 148.213C141.52 149.438 140.633 150.189 139.211 150.189H138.176L138.182 151.772ZM138.182 149.167H139.198C140.005 149.167 140.43 148.853 140.43 148.237C140.43 147.621 140.017 147.289 139.198 147.289H138.182V149.167Z" fill="white"/>
<path d="M145.202 150.159H142.456L141.84 151.477H141.298L143.552 146.55H144.069L146.323 151.477H145.775L145.202 150.159ZM145.011 149.74L143.841 147.086L142.653 149.74H145.011Z" fill="black"/>
<path d="M146.798 151.772H145.603L144.987 150.454H142.616L142 151.772H140.812L143.337 146.229H144.23L146.798 151.772ZM143.103 149.444H144.562L143.842 147.806L143.103 149.444Z" fill="white"/>
<path d="M148.559 149.771V151.477H148.048V149.771L146.071 146.544H146.632L148.319 149.315L150.013 146.544H150.536L148.559 149.771Z" fill="black"/>
<path d="M148.855 151.773H147.753V149.858L145.548 146.255H146.798L148.319 148.749L149.847 146.255H151.06L148.855 149.858V151.773Z" fill="white"/>
<path d="M87.2695 152.271H80.766C80.6942 152.272 80.6246 152.247 80.5685 152.202C80.5125 152.158 80.4735 152.095 80.4581 152.025L78.9677 145.774C78.9551 145.727 78.9536 145.679 78.9634 145.631C78.9731 145.584 78.9938 145.54 79.0238 145.502C79.0537 145.465 79.0921 145.434 79.1358 145.414C79.1796 145.394 79.2275 145.384 79.2756 145.386H88.7598C88.8071 145.385 88.8539 145.395 88.8967 145.416C88.9394 145.436 88.9769 145.466 89.0062 145.503C89.0365 145.54 89.0579 145.584 89.0686 145.631C89.0793 145.678 89.079 145.727 89.0678 145.774L87.5774 152.025C87.5619 152.095 87.5229 152.158 87.4669 152.202C87.4109 152.247 87.3412 152.272 87.2695 152.271ZM81.0185 151.655H87.017L88.3534 146.045H79.6821L81.0185 151.655Z" fill="white"/>
<path d="M84.0175 152.271C83.9326 152.271 83.8511 152.237 83.7911 152.177C83.731 152.117 83.6973 152.035 83.6973 151.951V145.73C83.7164 145.663 83.7568 145.605 83.8123 145.563C83.8679 145.521 83.9356 145.498 84.0052 145.498C84.0748 145.498 84.1425 145.521 84.1981 145.563C84.2536 145.605 84.294 145.663 84.3131 145.73V151.951C84.3134 152.031 84.283 152.109 84.2282 152.169C84.1734 152.228 84.0981 152.265 84.0175 152.271Z" fill="white"/>
<path d="M85.779 152.259H85.742C85.658 152.249 85.5811 152.207 85.5281 152.141C85.475 152.076 85.4501 151.992 85.4587 151.908L86.1916 145.669C86.2174 145.603 86.2644 145.547 86.3254 145.51C86.3863 145.474 86.4576 145.459 86.5282 145.467C86.5987 145.476 86.6644 145.507 86.715 145.557C86.7655 145.607 86.7981 145.672 86.8074 145.743L86.0746 151.981C86.0648 152.055 86.03 152.122 85.9762 152.173C85.9223 152.223 85.8526 152.254 85.779 152.259Z" fill="white"/>
<path d="M82.2564 152.26C82.1786 152.259 82.1037 152.229 82.0459 152.177C81.9881 152.125 81.9513 152.054 81.9423 151.976L81.2094 145.731C81.2043 145.69 81.2074 145.648 81.2186 145.608C81.2298 145.568 81.2488 145.531 81.2746 145.498C81.3004 145.465 81.3324 145.438 81.3688 145.418C81.4052 145.398 81.4452 145.385 81.4866 145.38C81.5707 145.37 81.6555 145.393 81.7224 145.445C81.7894 145.497 81.833 145.573 81.8438 145.658L82.5767 151.89C82.5853 151.974 82.5604 152.058 82.5073 152.124C82.4542 152.19 82.3773 152.232 82.2934 152.241L82.2564 152.26Z" fill="white"/>
<path d="M88.2538 148.144H79.7919C79.7249 148.125 79.6661 148.085 79.6241 148.029C79.5822 147.974 79.5596 147.906 79.5596 147.836C79.5596 147.767 79.5822 147.699 79.6241 147.643C79.6661 147.588 79.7249 147.547 79.7919 147.528H88.2661C88.333 147.547 88.3919 147.588 88.4338 147.643C88.4757 147.699 88.4984 147.767 88.4984 147.836C88.4984 147.906 88.4757 147.974 88.4338 148.029C88.3919 148.085 88.333 148.125 88.2661 148.144H88.2538Z" fill="white"/>
<path d="M87.7374 150.306H80.2978C80.2129 150.306 80.1314 150.273 80.0713 150.213C80.0113 150.153 79.9775 150.071 79.9775 149.986C79.9775 149.901 80.0113 149.82 80.0713 149.76C80.1314 149.7 80.2129 149.666 80.2978 149.666H87.7374C87.8218 149.668 87.9023 149.702 87.9621 149.762C88.0218 149.821 88.056 149.902 88.0576 149.986C88.0576 150.071 88.0239 150.153 87.9638 150.213C87.9038 150.273 87.8223 150.306 87.7374 150.306Z" fill="white"/>
<path d="M81.0238 154.544C80.8155 154.544 80.6119 154.482 80.4387 154.366C80.2656 154.251 80.1306 154.086 80.0509 153.894C79.9712 153.701 79.9503 153.489 79.9909 153.285C80.0316 153.081 80.1319 152.893 80.2792 152.746C80.4264 152.599 80.6141 152.498 80.8184 152.458C81.0227 152.417 81.2344 152.438 81.4268 152.518C81.6193 152.597 81.7837 152.732 81.8995 152.906C82.0152 153.079 82.0769 153.282 82.0769 153.491C82.0753 153.769 81.9639 154.036 81.7667 154.233C81.5696 154.431 81.3026 154.542 81.0238 154.544ZM81.0238 153.078C80.9144 153.078 80.8094 153.121 80.7321 153.199C80.6547 153.276 80.6112 153.381 80.6112 153.491C80.6112 153.6 80.6547 153.705 80.7321 153.782C80.8094 153.86 80.9144 153.903 81.0238 153.903C81.1333 153.903 81.2382 153.86 81.3156 153.782C81.393 153.705 81.4364 153.6 81.4364 153.491C81.4364 153.381 81.393 153.276 81.3156 153.199C81.2382 153.121 81.1333 153.078 81.0238 153.078Z" fill="white"/>
<path d="M86.9857 154.544C86.7774 154.544 86.5738 154.482 86.4007 154.366C86.2275 154.251 86.0925 154.086 86.0128 153.894C85.9331 153.701 85.9122 153.489 85.9529 153.285C85.9935 153.081 86.0938 152.893 86.2411 152.746C86.3883 152.599 86.576 152.498 86.7803 152.458C86.9846 152.417 87.1963 152.438 87.3887 152.518C87.5812 152.597 87.7457 152.732 87.8614 152.906C87.9771 153.079 88.0389 153.282 88.0389 153.491C88.0372 153.769 87.9258 154.036 87.7286 154.233C87.5315 154.431 87.2645 154.542 86.9857 154.544ZM86.9857 153.078C86.8757 153.078 86.7701 153.121 86.6918 153.198C86.6134 153.276 86.5686 153.381 86.567 153.491C86.5685 153.601 86.6132 153.707 86.6914 153.785C86.7696 153.863 86.8752 153.908 86.9857 153.909C87.0957 153.908 87.2007 153.863 87.2779 153.785C87.3551 153.706 87.3984 153.601 87.3984 153.491C87.3984 153.381 87.3549 153.276 87.2775 153.199C87.2001 153.121 87.0952 153.078 86.9857 153.078Z" fill="white"/>
<path d="M79.2754 146.02C79.2407 146.026 79.2054 146.026 79.1707 146.02L77.6557 145.497C77.6156 145.484 77.5786 145.463 77.5469 145.435C77.5152 145.407 77.4893 145.373 77.4709 145.336C77.4525 145.298 77.442 145.256 77.4398 145.214C77.4377 145.172 77.4441 145.13 77.4586 145.09C77.4866 145.011 77.545 144.945 77.6212 144.908C77.6973 144.871 77.785 144.866 77.8651 144.893L79.3801 145.417C79.459 145.446 79.5236 145.505 79.5603 145.581C79.597 145.656 79.6031 145.743 79.5772 145.823C79.5539 145.884 79.5123 145.935 79.4581 145.971C79.404 146.006 79.34 146.023 79.2754 146.02Z" fill="white"/>
<path d="M123.032 73.4599C127.938 68.5536 127.938 60.5988 123.032 55.6924C118.126 50.786 110.171 50.7861 105.265 55.6924C100.358 60.5988 100.358 68.5536 105.265 73.4599C110.171 78.3663 118.126 78.3663 123.032 73.4599Z" fill="#003FA4"/>
<path d="M116.479 67.7133C116.021 67.7105 115.569 67.6076 115.155 67.4121C114.741 67.2165 114.374 66.9329 114.081 66.581C113.788 66.2291 113.575 65.8175 113.457 65.3748C113.34 64.9322 113.32 64.4692 113.4 64.0182C113.561 63.2767 113.976 62.6147 114.573 62.146C115.17 61.6773 115.912 61.4312 116.67 61.45H120.144C120.163 61.45 120.182 61.4422 120.196 61.4284C120.21 61.4145 120.217 61.3957 120.217 61.3761V59.5285C120.217 59.3195 120.134 59.119 119.987 58.9711C119.839 58.8233 119.638 58.7402 119.429 58.7402H108.122C108.019 58.7402 107.917 58.7607 107.821 58.8004C107.726 58.84 107.639 58.8982 107.567 58.9715C107.494 59.0448 107.437 59.1317 107.398 59.2273C107.359 59.3229 107.339 59.4253 107.34 59.5285V69.6656C107.34 69.8736 107.422 70.0732 107.569 70.2208C107.715 70.3685 107.914 70.4523 108.122 70.4539H119.392C119.601 70.4539 119.802 70.3708 119.95 70.223C120.097 70.0752 120.181 69.8747 120.181 69.6656V67.818C120.179 67.7989 120.171 67.7809 120.157 67.7673C120.144 67.7538 120.126 67.7455 120.107 67.7441L116.479 67.7133Z" fill="white"/>
<path d="M120.149 62.4483H116.454C116.174 62.4483 115.897 62.5034 115.639 62.6105C115.38 62.7176 115.145 62.8745 114.947 63.0724C114.749 63.2703 114.593 63.5052 114.485 63.7637C114.378 64.0222 114.323 64.2993 114.323 64.5791C114.323 64.859 114.378 65.1361 114.485 65.3946C114.593 65.6531 114.749 65.888 114.947 66.0859C115.145 66.2838 115.38 66.4407 115.639 66.5478C115.897 66.6549 116.174 66.71 116.454 66.71H120.149C120.358 66.71 120.559 66.627 120.707 66.4791C120.855 66.3313 120.938 66.1308 120.938 65.9217V63.2058C120.931 63.0016 120.845 62.808 120.698 62.6664C120.55 62.5249 120.354 62.4466 120.149 62.4483ZM116.608 65.3736C116.449 65.3736 116.294 65.3265 116.163 65.2382C116.031 65.15 115.928 65.0246 115.868 64.8779C115.807 64.7313 115.792 64.57 115.823 64.4145C115.855 64.259 115.932 64.1164 116.044 64.0047C116.157 63.893 116.3 63.8172 116.456 63.787C116.611 63.7568 116.773 63.7735 116.919 63.8351C117.065 63.8966 117.19 64.0002 117.277 64.1327C117.364 64.2651 117.41 64.4205 117.409 64.5791C117.409 64.684 117.388 64.7878 117.348 64.8846C117.307 64.9814 117.248 65.0692 117.174 65.1431C117.099 65.2169 117.011 65.2753 116.914 65.3149C116.817 65.3545 116.713 65.3744 116.608 65.3736Z" fill="white"/>
<path opacity="0.6" d="M78.3639 18.5312H79.4971V17.0224H78.3639V18.5312Z" fill="white"/>
<path opacity="0.6" d="M76.5094 18.5312H77.6426V16.5174H76.5094V18.5312Z" fill="white"/>
<path opacity="0.6" d="M74.6627 18.5312H75.7959V16.0124H74.6627V18.5312Z" fill="white"/>
<path opacity="0.6" d="M72.8151 18.5312H73.9482V15.5074H72.8151V18.5312Z" fill="white"/>
<path opacity="0.6" d="M149.662 16.4678H148.99V17.9766H149.662V16.4678Z" fill="white"/>
<path opacity="0.6" d="M150.123 18.5312H155.481V15.9138H150.123V18.5312Z" fill="white"/>
<path opacity="0.1" d="M155.157 11.4736C147.033 33.9771 120.607 95.7786 68.0926 120.986V13.5244C68.0708 13.0112 68.2528 12.5103 68.5989 12.1307C68.945 11.7511 69.4271 11.5238 69.9401 11.4983H91.7354C92.0419 11.5035 92.3398 11.6 92.591 11.7756C92.8423 11.9511 93.0354 12.1977 93.1457 12.4836L94.0449 14.7007C94.1552 14.9827 94.3472 15.2254 94.5962 15.3977C94.8453 15.5699 95.1401 15.6639 95.4429 15.6676H132.61C132.912 15.6661 133.208 15.5745 133.458 15.4045C133.708 15.2345 133.902 14.9937 134.014 14.713L134.913 12.4836C135.024 12.1991 135.216 11.9537 135.466 11.7783C135.716 11.6029 136.012 11.5055 136.317 11.4983L155.157 11.4736Z" fill="white"/>
<path opacity="0.1" d="M160.057 92.7676V179.049C160.057 179.37 159.992 179.688 159.867 179.984C159.743 180.28 159.56 180.548 159.331 180.772C159.102 180.997 158.83 181.174 158.532 181.292C158.234 181.411 157.915 181.469 157.594 181.464H70.4313C70.1407 181.468 69.8521 181.413 69.583 181.304C69.3139 181.194 69.0697 181.031 68.865 180.824C68.6603 180.618 68.4994 180.372 68.3918 180.102C68.2842 179.832 68.2322 179.543 68.2388 179.253V140.004C92.4975 108.072 134.185 96.7583 160.057 92.7676Z" fill="white"/>
</svg>
