<svg width="300" height="316" viewBox="0 0 300 316" fill="none" xmlns="http://www.w3.org/2000/svg">
    <path d="M88.4821 153.75C94.0138 147.664 93.3868 137.576 87.0818 131.218C80.7768 124.86 71.1813 124.641 65.6497 130.727C60.118 136.814 60.745 146.902 67.05 153.26C73.355 159.617 82.9505 159.837 88.4821 153.75Z" fill="#003FA4"/>
    <g opacity="0.8">
        <path d="M88.4821 153.75C94.0138 147.664 93.3868 137.576 87.0818 131.218C80.7768 124.86 71.1813 124.641 65.6497 130.727C60.118 136.814 60.745 146.902 67.05 153.26C73.355 159.617 82.9505 159.837 88.4821 153.75Z" fill="white"/>
    </g>
    <path d="M70.0141 132.24C69.8881 132.24 69.7654 132.198 69.6632 132.12C69.5611 132.043 69.4847 131.933 69.4449 131.808C69.405 131.682 69.4038 131.546 69.4414 131.419C69.4789 131.293 69.5533 131.182 69.6541 131.102C71.6744 129.575 74.1096 128.777 76.5961 128.827C76.7552 128.827 76.9078 128.894 77.0203 129.012C77.1329 129.131 77.1961 129.291 77.1961 129.459C77.1961 129.627 77.1329 129.787 77.0203 129.906C76.9078 130.024 76.7552 130.091 76.5961 130.091C74.3691 130.039 72.1861 130.749 70.3741 132.113C70.2702 132.195 70.1439 132.24 70.0141 132.24Z" fill="#003FA4"/>
    <path d="M72.8522 153.98C72.7537 153.98 72.6569 153.954 72.5702 153.905C70.7314 152.869 69.1359 151.413 67.9005 149.644C66.665 147.874 65.821 145.836 65.4302 143.679C65.049 141.813 65.0665 139.88 65.4816 138.022C65.8967 136.164 66.6989 134.426 67.8302 132.935C67.932 132.806 68.0784 132.725 68.237 132.709C68.3957 132.694 68.5537 132.745 68.6762 132.853C68.7987 132.96 68.8758 133.114 68.8904 133.281C68.905 133.448 68.856 133.615 68.7542 133.744C67.7323 135.094 67.0087 136.667 66.6361 138.348C66.2635 140.029 66.2513 141.777 66.6002 143.464C66.9597 145.436 67.7321 147.299 68.8614 148.917C69.9907 150.535 71.4483 151.868 73.1282 152.818C73.2455 152.884 73.3384 152.99 73.3922 153.119C73.446 153.247 73.4576 153.391 73.4253 153.527C73.393 153.663 73.3185 153.784 73.2136 153.871C73.1088 153.958 72.9795 154.005 72.8462 154.006L72.8522 153.98Z" fill="#003FA4"/>
    <path d="M78.8582 155.63C77.5152 155.624 76.1813 155.398 74.9042 154.96C74.829 154.934 74.7593 154.893 74.6991 154.839C74.6389 154.785 74.5895 154.719 74.5535 154.645C74.5176 154.57 74.4959 154.489 74.4897 154.406C74.4834 154.323 74.4928 154.24 74.5172 154.161C74.5417 154.081 74.5807 154.008 74.632 153.944C74.6834 153.881 74.7461 153.829 74.8166 153.791C74.8871 153.753 74.9639 153.73 75.0428 153.724C75.1217 153.717 75.201 153.727 75.2762 153.753C78.9662 155.017 82.6502 154.309 85.3802 151.857C86.7652 150.569 87.8119 148.928 88.4193 147.09C89.0267 145.252 89.1745 143.281 88.8482 141.366C88.8228 141.198 88.8616 141.027 88.9561 140.889C89.0506 140.752 89.1931 140.659 89.3522 140.633C89.5114 140.606 89.6741 140.647 89.8046 140.746C89.9351 140.846 90.0228 140.996 90.0482 141.163C90.412 143.292 90.2467 145.483 89.5686 147.524C88.8905 149.565 87.7225 151.386 86.1782 152.811C84.1436 154.655 81.542 155.657 78.8582 155.63Z" fill="#003FA4"/>
    <path d="M88.9502 139.748C88.823 139.747 88.6991 139.704 88.5967 139.624C88.4942 139.545 88.4184 139.433 88.3802 139.305C87.8284 137.511 86.9247 135.858 85.7278 134.455C84.5309 133.051 83.0674 131.928 81.4322 131.159C81.2858 131.092 81.1707 130.966 81.1122 130.81C81.0537 130.653 81.0566 130.479 81.1202 130.325C81.1839 130.17 81.3031 130.049 81.4516 129.987C81.6001 129.926 81.7658 129.929 81.9122 129.996C83.703 130.839 85.3056 132.069 86.6162 133.607C87.9268 135.144 88.9162 136.954 89.5202 138.92C89.5694 139.079 89.5567 139.252 89.4847 139.402C89.4127 139.551 89.2873 139.664 89.1362 139.716C89.0758 139.735 89.0133 139.746 88.9502 139.748Z" fill="#003FA4"/>
    <path d="M79.494 130.445C79.4482 130.451 79.4017 130.451 79.356 130.445C78.453 130.223 77.5291 130.111 76.602 130.11C76.4428 130.11 76.2902 130.043 76.1777 129.925C76.0652 129.806 76.002 129.645 76.002 129.478C76.002 129.31 76.0652 129.149 76.1777 129.031C76.2902 128.912 76.4428 128.846 76.602 128.846C77.6122 128.849 78.6187 128.974 79.602 129.219C79.7611 129.238 79.9064 129.323 80.006 129.455C80.1056 129.587 80.1512 129.756 80.1329 129.923C80.1147 130.091 80.0339 130.244 79.9084 130.349C79.783 130.454 79.6231 130.502 79.464 130.483L79.494 130.445Z" fill="#003FA4"/>
    <path d="M68.9101 145.543C68.7875 145.544 68.6677 145.505 68.5669 145.431C68.466 145.358 68.389 145.253 68.3461 145.132C67.7836 143.603 67.5858 141.952 67.7699 140.323C67.954 138.695 68.5144 137.139 69.4021 135.791C70.2411 134.515 71.3649 133.475 72.6747 132.763C73.9845 132.051 75.4403 131.689 76.9141 131.709C77.0732 131.709 77.2258 131.775 77.3383 131.894C77.4508 132.012 77.5141 132.173 77.5141 132.341C77.5141 132.508 77.4508 132.669 77.3383 132.788C77.2258 132.906 77.0732 132.973 76.9141 132.973C75.6335 132.957 74.3688 133.271 73.2299 133.888C72.0911 134.505 71.1127 135.406 70.3801 136.512C69.6017 137.698 69.112 139.068 68.954 140.501C68.796 141.934 68.9746 143.385 69.4741 144.728C69.5284 144.885 69.5217 145.058 69.4554 145.209C69.389 145.361 69.2685 145.479 69.1201 145.537C69.0509 145.551 68.9799 145.553 68.9101 145.543Z" fill="#003FA4"/>
    <path d="M78.4262 152.761C76.6278 152.697 74.8704 152.177 73.3035 151.246C71.7366 150.314 70.4065 148.997 69.4262 147.408C69.3534 147.268 69.3333 147.104 69.37 146.95C69.4067 146.795 69.4974 146.661 69.6241 146.574C69.7508 146.487 69.904 146.453 70.0531 146.48C70.2022 146.507 70.3361 146.592 70.4282 146.719C71.2995 148.133 72.4811 149.305 73.8732 150.137C75.2653 150.968 76.8269 151.435 78.4262 151.497C78.5853 151.497 78.7379 151.563 78.8505 151.682C78.963 151.8 79.0262 151.961 79.0262 152.129C79.0262 152.296 78.963 152.457 78.8505 152.575C78.7379 152.694 78.5853 152.761 78.4262 152.761Z" fill="#003FA4"/>
    <path d="M80.6699 152.489C80.5328 152.493 80.3985 152.448 80.2894 152.361C80.1802 152.273 80.1027 152.149 80.0699 152.009C80.0318 151.846 80.0566 151.674 80.1387 151.531C80.2208 151.388 80.3536 151.284 80.5079 151.244C85.3739 149.98 86.6339 145.487 86.2319 142.036C85.7099 137.536 82.3379 132.979 76.8959 132.973C76.7368 132.973 76.5842 132.906 76.4716 132.788C76.3591 132.669 76.2959 132.509 76.2959 132.341C76.2959 132.173 76.3591 132.013 76.4716 131.894C76.5842 131.776 76.7368 131.709 76.8959 131.709C83.0339 131.709 86.8379 136.828 87.4259 141.884C88.0259 147.098 85.4279 151.257 80.7959 152.47C80.7547 152.481 80.7124 152.488 80.6699 152.489Z" fill="#003FA4"/>
    <path d="M74.4601 136.461C74.3464 136.46 74.2352 136.425 74.1396 136.36C74.044 136.296 73.9679 136.203 73.9201 136.095C73.8525 135.943 73.8449 135.769 73.8989 135.612C73.9529 135.454 74.0641 135.325 74.2081 135.254C75.128 134.826 76.1244 134.61 77.1301 134.622C77.2893 134.622 77.4419 134.689 77.5544 134.807C77.6669 134.926 77.7301 135.086 77.7301 135.254C77.7301 135.422 77.6669 135.582 77.5544 135.701C77.4419 135.819 77.2893 135.886 77.1301 135.886C76.302 135.887 75.4837 136.074 74.7301 136.436C74.6432 136.466 74.5508 136.475 74.4601 136.461Z" fill="#003FA4"/>
    <path d="M78.3179 149.816C76.7983 149.79 75.3175 149.306 74.051 148.421C72.7845 147.536 71.7853 146.288 71.1719 144.823C69.9299 141.973 70.2959 138.996 72.1499 136.847C72.2574 136.724 72.4069 136.651 72.5654 136.644C72.724 136.637 72.8788 136.696 72.9959 136.809C73.1125 136.923 73.1818 137.08 73.1886 137.247C73.1953 137.414 73.139 137.577 73.0319 137.7C72.2863 138.589 71.8139 139.694 71.6768 140.871C71.5396 142.047 71.7443 143.24 72.2639 144.292C72.7941 145.569 73.6689 146.653 74.7793 147.41C75.8898 148.168 77.187 148.565 78.5099 148.552C79.5106 148.544 80.4878 148.232 81.3236 147.652C82.1594 147.072 82.818 146.25 83.2199 145.284C83.6718 144.145 83.8079 142.895 83.6125 141.678C83.4171 140.461 82.8982 139.327 82.1159 138.408C82.0646 138.345 82.0257 138.272 82.0013 138.193C81.9769 138.114 81.9675 138.031 81.9736 137.948C81.9798 137.865 82.0013 137.785 82.037 137.711C82.0728 137.637 82.122 137.571 82.1819 137.517C82.2417 137.463 82.3111 137.422 82.386 137.396C82.461 137.371 82.54 137.361 82.6185 137.367C82.6971 137.374 82.7737 137.396 82.8439 137.434C82.9141 137.472 82.9766 137.523 83.0279 137.587C83.9592 138.687 84.5749 140.043 84.8033 141.498C85.0316 142.952 84.8633 144.445 84.3179 145.803C83.8255 146.987 83.0189 147.996 81.9949 148.709C80.971 149.423 79.7733 149.809 78.5459 149.822L78.3179 149.816Z" fill="#003FA4"/>
    <path d="M80.8438 137.018C80.7306 137.018 80.6197 136.983 80.5258 136.917C79.5127 136.23 78.3346 135.861 77.1298 135.855C76.9707 135.855 76.818 135.788 76.7055 135.67C76.593 135.551 76.5298 135.39 76.5298 135.223C76.5298 135.055 76.593 134.894 76.7055 134.776C76.818 134.657 76.9707 134.591 77.1298 134.591C78.5629 134.596 79.9643 135.035 81.1678 135.855C81.2765 135.929 81.3595 136.038 81.4046 136.165C81.4497 136.293 81.4544 136.433 81.418 136.564C81.3815 136.694 81.3059 136.809 81.2025 136.891C81.099 136.973 80.9732 137.017 80.8438 137.018Z" fill="#003FA4"/>
    <path d="M78.0001 146.965C77.2991 146.96 76.6076 146.794 75.9742 146.477C75.3409 146.16 74.7811 145.701 74.3341 145.132C73.7575 144.437 73.3829 143.582 73.2552 142.669C73.1276 141.755 73.2522 140.822 73.6141 139.982C73.9372 139.218 74.466 138.572 75.1348 138.123C75.8036 137.673 76.5829 137.441 77.3761 137.454C77.5353 137.454 77.6879 137.52 77.8004 137.639C77.9129 137.757 77.9761 137.918 77.9761 138.086C77.9761 138.253 77.9129 138.414 77.8004 138.533C77.6879 138.651 77.5353 138.718 77.3761 138.718C76.8151 138.707 76.2633 138.869 75.7888 139.185C75.3144 139.5 74.938 139.955 74.7061 140.494C74.4423 141.114 74.3535 141.802 74.4503 142.474C74.5471 143.146 74.8255 143.775 75.2521 144.286C75.6769 144.834 76.2408 145.244 76.8781 145.467C77.5155 145.691 78.2 145.72 78.8521 145.55C79.3827 145.424 79.8678 145.14 80.2496 144.732C80.6315 144.324 80.8941 143.81 81.0061 143.249C81.0406 143.086 81.1351 142.944 81.2689 142.854C81.4027 142.763 81.565 142.733 81.7201 142.769C81.7974 142.786 81.8707 142.819 81.9358 142.866C82.0009 142.914 82.0566 142.974 82.0995 143.044C82.1424 143.114 82.1718 143.192 82.186 143.274C82.2002 143.355 82.1989 143.439 82.1821 143.521C82.0232 144.312 81.653 145.038 81.1152 145.615C80.5773 146.192 79.8941 146.594 79.1461 146.776C78.7727 146.887 78.3879 146.95 78.0001 146.965Z" fill="#003FA4"/>
    <path d="M81.492 141.96C81.3597 141.966 81.229 141.926 81.1205 141.846C81.012 141.766 80.9316 141.651 80.892 141.517C80.6526 140.726 80.1846 140.032 79.5533 139.534C78.922 139.035 78.1588 138.757 77.37 138.737C77.2109 138.737 77.0583 138.67 76.9458 138.552C76.8332 138.433 76.77 138.272 76.77 138.105C76.77 137.937 76.8332 137.776 76.9458 137.658C77.0583 137.539 77.2109 137.473 77.37 137.473C78.4132 137.497 79.4233 137.863 80.2598 138.52C81.0964 139.177 81.7179 140.092 82.038 141.138C82.0623 141.218 82.0714 141.301 82.0649 141.384C82.0584 141.467 82.0364 141.548 82.0002 141.622C81.9639 141.696 81.9141 141.762 81.8537 141.815C81.7933 141.869 81.7234 141.909 81.648 141.935C81.5973 141.95 81.5449 141.959 81.492 141.96Z" fill="#003FA4"/>
    <path d="M78.1619 144.336C78.0028 144.336 77.8502 144.27 77.7377 144.151C77.6252 144.033 77.5619 143.872 77.5619 143.704C77.5619 143.537 77.6252 143.376 77.7377 143.257C77.8502 143.139 78.0028 143.072 78.1619 143.072C78.2439 143.072 78.3249 143.055 78.4002 143.021C78.4754 142.987 78.5432 142.937 78.5995 142.874C78.6557 142.811 78.6991 142.737 78.727 142.656C78.755 142.575 78.7669 142.489 78.7619 142.402C78.7651 142.279 78.7451 142.157 78.7029 142.042C78.6608 141.927 78.5974 141.822 78.5164 141.734C78.4355 141.645 78.3386 141.574 78.2314 141.525C78.1242 141.476 78.0088 141.45 77.8919 141.448C77.8039 141.451 77.7172 141.471 77.6369 141.509C77.5566 141.547 77.4842 141.602 77.4239 141.669C77.3625 141.746 77.316 141.834 77.2871 141.93C77.2583 142.025 77.2477 142.126 77.2559 142.225C77.2607 142.308 77.2498 142.392 77.2241 142.47C77.1983 142.549 77.158 142.621 77.1057 142.683C77.0533 142.746 76.9898 142.796 76.9188 142.833C76.8478 142.869 76.7707 142.89 76.6919 142.895C76.6131 142.9 76.5342 142.889 76.4596 142.862C76.385 142.835 76.3162 142.792 76.2571 142.737C76.1981 142.682 76.1499 142.615 76.1154 142.54C76.0809 142.465 76.0607 142.384 76.0559 142.301C76.0346 142.036 76.0649 141.769 76.1451 141.517C76.2253 141.264 76.3536 141.032 76.5222 140.834C76.6907 140.635 76.896 140.475 77.1254 140.364C77.3547 140.252 77.6033 140.191 77.8559 140.184C78.1306 140.185 78.4024 140.243 78.6555 140.355C78.9087 140.468 79.1382 140.632 79.3307 140.838C79.5233 141.044 79.675 141.289 79.7772 141.557C79.8793 141.826 79.9299 142.113 79.9259 142.402C79.9307 142.655 79.8877 142.905 79.7994 143.14C79.7111 143.374 79.5793 143.588 79.4116 143.768C79.244 143.948 79.044 144.091 78.8232 144.188C78.6024 144.286 78.3654 144.336 78.1259 144.336H78.1619Z" fill="#003FA4"/>
    <path d="M93.6002 142.231C94.3322 151.035 88.1462 158.17 79.8002 158.17H79.1522C87.1082 157.741 92.8862 150.776 92.1782 142.25C91.7693 138.077 89.9725 134.191 87.1056 131.278C84.2387 128.366 80.4863 126.616 76.5122 126.337C76.7222 126.337 76.9382 126.337 77.1542 126.337C85.5242 126.299 92.8922 133.434 93.6002 142.231Z" fill="#003FA4"/>
    <g opacity="0.4">
        <path d="M93.6002 142.231C94.3322 151.035 88.1462 158.17 79.8002 158.17H79.1522C87.1082 157.741 92.8862 150.776 92.1782 142.25C91.7693 138.077 89.9725 134.191 87.1056 131.278C84.2387 128.366 80.4863 126.616 76.5122 126.337C76.7222 126.337 76.9382 126.337 77.1542 126.337C85.5242 126.299 92.8922 133.434 93.6002 142.231Z" fill="#809FD2"/>
    </g>
    <path d="M105.852 64.5529C105.867 64.7415 105.891 64.9293 105.924 65.1153C106.151 66.333 106.744 67.4413 107.616 68.2753C108.605 69.2501 109.904 69.7982 111.258 69.8111H161.952C162.544 69.8237 163.132 69.7122 163.683 69.4831C164.233 69.254 164.735 68.9119 165.159 68.4767C165.582 68.0415 165.92 67.5219 166.151 66.9481C166.382 66.3743 166.503 65.7577 166.506 65.1343C166.515 64.9469 166.515 64.7592 166.506 64.5718C166.365 63.1568 165.738 61.8446 164.744 60.8812C163.75 59.9179 162.457 59.3695 161.106 59.3389H110.4C109.765 59.3253 109.133 59.4544 108.549 59.7175C107.964 59.9806 107.439 60.3717 107.009 60.8648C106.579 61.3579 106.253 61.9418 106.054 62.5777C105.854 63.2136 105.786 63.8868 105.852 64.5529Z" fill="#003FA4"/>
    <path opacity="0.8" d="M105.852 64.5529C105.867 64.7415 105.891 64.9293 105.924 65.1153C106.151 66.333 106.744 67.4413 107.616 68.2753C108.605 69.2501 109.904 69.7982 111.258 69.8111H161.952C162.544 69.8237 163.132 69.7122 163.683 69.4831C164.233 69.254 164.735 68.9119 165.159 68.4767C165.582 68.0415 165.92 67.5219 166.151 66.9481C166.382 66.3743 166.503 65.7577 166.506 65.1343C166.515 64.9469 166.515 64.7592 166.506 64.5718C166.365 63.1568 165.738 61.8446 164.744 60.8812C163.75 59.9179 162.457 59.3695 161.106 59.3389H110.4C109.765 59.3253 109.133 59.4544 108.549 59.7175C107.964 59.9806 107.439 60.3717 107.009 60.8648C106.579 61.3579 106.253 61.9418 106.054 62.5777C105.854 63.2136 105.786 63.8868 105.852 64.5529Z" fill="white"/>
    <path d="M166.506 65.0963C166.507 65.2656 166.495 65.4346 166.47 65.6019C166.292 64.2189 165.649 62.9489 164.658 62.0216C163.668 61.0943 162.395 60.5709 161.07 60.5459L107.172 60.6723C107.6 60.2345 108.105 59.8897 108.659 59.6577C109.212 59.4256 109.804 59.3108 110.4 59.3198H161.094C162.445 59.3505 163.738 59.8989 164.733 60.8622C165.727 61.8256 166.353 63.1377 166.494 64.5528C166.507 64.7337 166.511 64.915 166.506 65.0963Z" fill="#003FA4"/>
    <path opacity="0.5" d="M166.506 65.0963C166.507 65.2656 166.495 65.4346 166.47 65.6019C166.292 64.2189 165.649 62.9489 164.658 62.0216C163.668 61.0943 162.395 60.5709 161.07 60.5459L107.172 60.6723C107.6 60.2345 108.105 59.8897 108.659 59.6577C109.212 59.4256 109.804 59.3108 110.4 59.3198H161.094C162.445 59.3505 163.738 59.8989 164.733 60.8622C165.727 61.8256 166.353 63.1377 166.494 64.5528C166.507 64.7337 166.511 64.915 166.506 65.0963Z" fill="white"/>
    <path d="M157.8 61.8475L158.016 64.3755L160.272 63.4907L160.806 64.7547L158.502 65.5637L160.158 67.7062L159.12 68.5088L157.506 66.2842L156.306 68.5088L155.172 67.7062L156.45 65.5637L154.05 64.7547L154.374 63.4907L156.804 64.3439L156.588 61.8159L157.8 61.8475Z" fill="#003FA4"/>
    <path d="M143.91 61.8476L144.126 64.3756L146.382 63.4908L146.922 64.7548L144.6 65.5827L146.256 67.7252L145.224 68.5278L143.61 66.3032L142.41 68.5278L141.27 67.7252L142.554 65.5827L140.154 64.7738L140.478 63.5098L142.908 64.363L142.698 61.835L143.91 61.8476Z" fill="#003FA4"/>
    <path d="M130.05 61.8476L130.26 64.3756L132.516 63.4908L133.056 64.7548L130.746 65.5638L132.402 67.7062L131.4 68.5278L129.786 66.3032L128.586 68.5278L127.452 67.7252L128.73 65.5827L126.33 64.7738L126.66 63.5098L129.06 64.363L128.85 61.835L130.05 61.8476Z" fill="#003FA4"/>
    <path d="M116.184 61.8475L116.394 64.3755L118.656 63.4907L119.19 64.7547L116.88 65.5637L118.542 67.7062L117.504 68.5088L115.89 66.2842L114.69 68.5088L113.556 67.7062L114.834 65.5637L112.434 64.7547L112.758 63.4907L115.158 64.3439L114.948 61.8159L116.184 61.8475Z" fill="#003FA4"/>
    <path d="M149.79 56.8423H147.426V57.4743H149.79V56.8423Z" fill="#003FA4"/>
    <path d="M159.948 56.8423H152.238V57.4743H159.948V56.8423Z" fill="#003FA4"/>
    <path opacity="0.8" d="M238.674 80.4159L236.22 109.968C236.125 110.911 235.707 111.786 235.045 112.428C234.382 113.07 233.52 113.436 232.62 113.457H213.138C212.716 113.459 212.299 113.368 211.913 113.189C211.527 113.01 211.181 112.748 210.898 112.418C210.615 112.089 210.401 111.701 210.27 111.279C210.139 110.856 210.094 110.41 210.138 109.968L212.592 80.4096C212.683 79.4648 213.099 78.588 213.763 77.9451C214.426 77.3021 215.29 76.9378 216.192 76.9209H235.674C236.096 76.9184 236.514 77.0098 236.9 77.1892C237.287 77.3685 237.633 77.6317 237.916 77.9616C238.199 78.2915 238.413 78.6806 238.544 79.1035C238.674 79.5265 238.719 79.9737 238.674 80.4159Z" fill="#003FA4"/>
    <path opacity="0.8" d="M238.674 80.4159L236.22 109.968C236.125 110.911 235.707 111.786 235.045 112.428C234.382 113.07 233.52 113.436 232.62 113.457H213.138C212.716 113.459 212.299 113.368 211.913 113.189C211.527 113.01 211.181 112.748 210.898 112.418C210.615 112.089 210.401 111.701 210.27 111.279C210.139 110.856 210.094 110.41 210.138 109.968L212.592 80.4096C212.683 79.4648 213.099 78.588 213.763 77.9451C214.426 77.3021 215.29 76.9378 216.192 76.9209H235.674C236.096 76.9184 236.514 77.0098 236.9 77.1892C237.287 77.3685 237.633 77.6317 237.916 77.9616C238.199 78.2915 238.413 78.6806 238.544 79.1035C238.674 79.5265 238.719 79.9737 238.674 80.4159Z" fill="white"/>
    <path d="M214.368 85.1814H214.314C214.155 85.1669 214.009 85.0869 213.907 84.959C213.804 84.831 213.754 84.6656 213.768 84.4988L213.996 81.7939C214.009 81.6363 214.078 81.4898 214.189 81.3833C214.301 81.2768 214.446 81.2181 214.596 81.2188H217.308C217.467 81.2188 217.619 81.2853 217.732 81.4039C217.845 81.5224 217.908 81.6831 217.908 81.8508C217.908 82.0184 217.845 82.1791 217.732 82.2976C217.619 82.4162 217.467 82.4828 217.308 82.4828H215.148L214.968 84.6063C214.954 84.7638 214.885 84.9103 214.774 85.0168C214.663 85.1233 214.518 85.182 214.368 85.1814Z" fill="#003FA4"/>
    <path d="M236.184 85.1814H236.13C235.971 85.1669 235.825 85.0869 235.723 84.959C235.62 84.831 235.57 84.6656 235.584 84.4988L235.752 82.4828H233.7C233.54 82.4828 233.388 82.4162 233.275 82.2976C233.163 82.1791 233.1 82.0184 233.1 81.8508C233.1 81.6831 233.163 81.5224 233.275 81.4039C233.388 81.2853 233.54 81.2188 233.7 81.2188H236.4C236.483 81.2184 236.566 81.2364 236.642 81.2717C236.719 81.3069 236.788 81.3586 236.844 81.4235C236.901 81.4883 236.944 81.5649 236.97 81.6483C236.997 81.7316 237.007 81.82 237 81.9076L236.772 84.6063C236.758 84.7617 236.691 84.9064 236.582 85.0126C236.474 85.1188 236.332 85.1789 236.184 85.1814Z" fill="#003FA4"/>
    <path d="M215.4 105.576H212.688C212.606 105.576 212.524 105.558 212.449 105.523C212.374 105.488 212.306 105.437 212.25 105.374C212.194 105.309 212.151 105.233 212.124 105.151C212.097 105.068 212.087 104.981 212.094 104.893L212.316 102.188C212.329 102.021 212.406 101.866 212.528 101.757C212.65 101.649 212.808 101.596 212.967 101.61C213.126 101.624 213.273 101.705 213.376 101.833C213.479 101.962 213.529 102.128 213.516 102.296L213.348 104.312H215.4C215.559 104.312 215.712 104.379 215.824 104.497C215.937 104.616 216 104.776 216 104.944C216 105.112 215.937 105.272 215.824 105.391C215.712 105.509 215.559 105.576 215.4 105.576Z" fill="#003FA4"/>
    <path d="M234.486 105.576H231.78C231.621 105.576 231.468 105.509 231.355 105.391C231.243 105.272 231.18 105.111 231.18 104.944C231.18 104.776 231.243 104.615 231.355 104.497C231.468 104.378 231.621 104.312 231.78 104.312H233.94L234.114 102.188C234.127 102.021 234.203 101.867 234.325 101.76C234.446 101.652 234.603 101.599 234.762 101.613C234.92 101.628 235.066 101.708 235.169 101.835C235.271 101.963 235.321 102.129 235.308 102.296L235.086 105.001C235.072 105.158 235.003 105.305 234.892 105.411C234.781 105.518 234.636 105.576 234.486 105.576Z" fill="#003FA4"/>
    <path d="M232.421 95.386C233.775 89.8532 231.45 84.4381 227.227 83.2911C223.005 82.1441 218.483 85.6995 217.129 91.2324C215.774 96.7652 218.099 102.18 222.322 103.327C226.545 104.474 231.066 100.919 232.421 95.386Z" fill="white"/>
    <path d="M227.13 109.039H219.36L220.038 100.855H227.808L227.13 109.039Z" fill="white"/>
    <path d="M236.22 109.968C236.125 110.912 235.707 111.786 235.045 112.428C234.382 113.07 233.52 113.436 232.62 113.457H213.138C212.716 113.459 212.299 113.368 211.913 113.189C211.527 113.01 211.181 112.748 210.898 112.419C210.615 112.089 210.401 111.701 210.27 111.279C210.139 110.857 210.094 110.41 210.138 109.968C210.138 109.968 219.09 106.985 220.194 106.985H227.112L236.22 109.968Z" fill="white"/>
    <path d="M239.805 89.0527L238.897 100.661L239.495 100.713L240.403 89.1046L239.805 89.0527Z" fill="#003FA4"/>
    <path d="M240.437 83.7404L240.258 86.0205L240.856 86.0724L241.035 83.7923L240.437 83.7404Z" fill="#003FA4"/>
    <path d="M219.528 154.252H217.164V154.884H219.528V154.252Z" fill="#003FA4"/>
    <path d="M229.686 154.252H221.976V154.884H229.686V154.252Z" fill="#003FA4"/>
    <path d="M243.798 143.464L242.304 161.476C242.227 162.272 241.875 163.01 241.316 163.552C240.756 164.093 240.028 164.4 239.268 164.415C238.911 164.421 238.556 164.348 238.228 164.199C237.899 164.05 237.605 163.829 237.364 163.551C237.122 163.273 236.94 162.945 236.829 162.587C236.718 162.229 236.68 161.85 236.718 161.476L238.2 143.464C238.338 142.12 238.203 140.761 237.805 139.477C237.406 138.193 236.753 137.012 235.888 136.014C235.023 135.016 233.967 134.223 232.789 133.688C231.611 133.153 230.339 132.887 229.056 132.909H222.96C220.234 132.964 217.62 134.067 215.613 136.011C213.606 137.956 212.344 140.607 212.064 143.464L211.464 150.82H205.884L206.484 143.464C207.234 134.401 214.848 127.032 223.446 127.032H229.566C231.563 126.997 233.544 127.41 235.378 128.244C237.211 129.077 238.856 130.312 240.202 131.866C241.548 133.42 242.564 135.258 243.185 137.257C243.805 139.257 244.014 141.373 243.798 143.464Z" fill="#003FA4"/>
    <g opacity="0.5">
        <path d="M243.798 143.464L242.304 161.476C242.227 162.272 241.875 163.01 241.316 163.552C240.756 164.093 240.028 164.4 239.268 164.415C238.911 164.421 238.556 164.348 238.228 164.199C237.899 164.05 237.605 163.829 237.364 163.551C237.122 163.273 236.94 162.945 236.829 162.587C236.718 162.229 236.68 161.85 236.718 161.476L238.2 143.464C238.338 142.12 238.203 140.761 237.805 139.477C237.406 138.193 236.753 137.012 235.888 136.014C235.023 135.016 233.967 134.223 232.789 133.688C231.611 133.153 230.339 132.887 229.056 132.909H222.96C220.234 132.964 217.62 134.067 215.613 136.011C213.606 137.956 212.344 140.607 212.064 143.464L211.464 150.82H205.884L206.484 143.464C207.234 134.401 214.848 127.032 223.446 127.032H229.566C231.563 126.997 233.544 127.41 235.378 128.244C237.211 129.077 238.856 130.312 240.202 131.866C241.548 133.42 242.564 135.258 243.185 137.257C243.805 139.257 244.014 141.373 243.798 143.464Z" fill="white"/>
    </g>
    <path d="M244.2 160.818L241.29 195.92C241.185 197.008 240.704 198.018 239.938 198.757C239.173 199.497 238.177 199.915 237.138 199.933H203.814C203.326 199.942 202.842 199.842 202.393 199.639C201.945 199.435 201.543 199.134 201.213 198.754C200.884 198.375 200.636 197.925 200.484 197.437C200.332 196.948 200.281 196.431 200.334 195.92L203.25 160.818C203.317 160.118 203.54 159.445 203.901 158.853C204.262 158.261 204.75 157.767 205.326 157.412C205.952 157.008 206.669 156.79 207.402 156.78H240.72C241.401 156.776 242.069 156.975 242.646 157.355C243.185 157.723 243.616 158.242 243.891 158.854C244.165 159.466 244.272 160.146 244.2 160.818Z" fill="#003FA4"/>
    <path d="M209.55 176.151L218.208 190.188L246.762 160.111C246.806 160.055 246.83 159.985 246.829 159.912C246.828 159.839 246.802 159.77 246.757 159.715C246.711 159.661 246.648 159.626 246.58 159.616C246.511 159.606 246.442 159.623 246.384 159.662L219.174 182.13L214.032 173.402L209.55 176.151Z" fill="white"/>
    <path d="M73.1999 108.267H51.4919C50.4874 108.248 49.5245 107.842 48.7849 107.126C48.0453 106.41 47.5804 105.433 47.4779 104.381L45.5999 81.5276C45.5477 81.0327 45.5964 80.5318 45.7426 80.0583C45.8889 79.5848 46.1293 79.1497 46.4478 78.7818C46.7664 78.414 47.1558 78.1219 47.59 77.9251C48.0242 77.7284 48.4933 77.6314 48.9659 77.6408H70.6499C71.6505 77.6647 72.6083 78.073 73.3432 78.7888C74.078 79.5046 74.5392 80.4786 74.6399 81.5276L76.5359 104.368C76.5895 104.861 76.5429 105.361 76.3993 105.834C76.2557 106.306 76.0182 106.741 75.7028 107.11C75.3873 107.479 75.001 107.773 74.5695 107.972C74.138 108.172 73.6711 108.272 73.1999 108.267Z" fill="#003FA4"/>
    <path opacity="0.8" d="M73.1999 108.267H51.4919C50.4874 108.248 49.5245 107.842 48.7849 107.126C48.0453 106.41 47.5804 105.433 47.4779 104.381L45.5999 81.5276C45.5477 81.0327 45.5964 80.5318 45.7426 80.0583C45.8889 79.5848 46.1293 79.1497 46.4478 78.7818C46.7664 78.414 47.1558 78.1219 47.59 77.9251C48.0242 77.7284 48.4933 77.6314 48.9659 77.6408H70.6499C71.6505 77.6647 72.6083 78.073 73.3432 78.7888C74.078 79.5046 74.5392 80.4786 74.6399 81.5276L76.5359 104.368C76.5895 104.861 76.5429 105.361 76.3993 105.834C76.2557 106.306 76.0182 106.741 75.7028 107.11C75.3873 107.479 75.001 107.773 74.5695 107.972C74.138 108.172 73.6711 108.272 73.1999 108.267Z" fill="white"/>
    <path d="M47.4902 95.261C47.4902 95.261 55.2002 83.9545 60.8762 84.2453C66.5522 84.536 75.9842 94.9893 75.9842 94.9893C75.9842 94.9893 62.0822 102.681 47.4902 95.261Z" fill="white"/>
    <path d="M47.736 95.432L47.25 95.0654C47.562 94.6041 54.912 83.9106 60.66 83.9106H60.894C66.63 84.2014 75.81 94.326 76.2 94.7558L75.768 95.1918C75.672 95.0907 66.36 84.8207 60.864 84.5426H60.66C55.2 84.5553 47.808 95.3372 47.736 95.432Z" fill="#263238"/>
    <path d="M46.692 95.6593C45.528 95.6593 44.016 95.2042 43.482 93.4725C43.4574 93.3929 43.4638 93.3063 43.4998 93.2316C43.5358 93.157 43.5985 93.1004 43.674 93.0744C43.7114 93.0607 43.751 93.055 43.7905 93.0578C43.83 93.0606 43.8686 93.0718 43.9039 93.0907C43.9392 93.1096 43.9705 93.1358 43.996 93.1677C44.0214 93.1997 44.0405 93.2367 44.052 93.2766C44.742 95.5139 47.322 94.9767 47.43 94.9514C47.5078 94.9363 47.5882 94.9536 47.6542 94.9995C47.7202 95.0455 47.7667 95.1166 47.784 95.1979C47.7919 95.2386 47.7921 95.2805 47.7846 95.3212C47.7771 95.362 47.7621 95.4008 47.7404 95.4354C47.7186 95.47 47.6906 95.4998 47.658 95.523C47.6253 95.5463 47.5886 95.5625 47.55 95.5708C47.2674 95.6297 46.9801 95.6593 46.692 95.6593Z" fill="#263238"/>
    <path d="M51.2698 90.8054C51.2029 90.8068 51.1374 90.7845 51.0838 90.7422C50.9938 90.6664 48.8638 88.9347 48.3238 87.1714C48.2992 87.0918 48.3056 87.0051 48.3416 86.9305C48.3776 86.8558 48.4403 86.7993 48.5158 86.7732C48.5914 86.749 48.673 86.7565 48.7435 86.7942C48.8139 86.8319 48.8678 86.8969 48.8938 86.9755C49.3798 88.5491 51.4258 90.2239 51.4498 90.2366C51.5125 90.2878 51.5534 90.3631 51.5636 90.446C51.5737 90.529 51.5522 90.6127 51.5038 90.679C51.4765 90.7174 51.4412 90.7487 51.4007 90.7706C51.3601 90.7925 51.3154 90.8044 51.2698 90.8054Z" fill="#263238"/>
    <path d="M55.6739 86.5015C55.5953 86.4967 55.5214 86.4609 55.4669 86.4011C55.4123 86.3413 55.3813 86.262 55.3799 86.1792C55.0295 84.8026 54.5946 83.4515 54.0779 82.1344C53.9279 81.7172 53.8199 81.4139 53.7959 81.338C53.784 81.2978 53.7798 81.2554 53.7836 81.2135C53.7874 81.1715 53.7992 81.1308 53.8182 81.0937C53.8372 81.0566 53.8631 81.0238 53.8943 80.9974C53.9255 80.971 53.9614 80.9515 53.9999 80.9399C54.0377 80.9283 54.0773 80.9246 54.1165 80.9291C54.1557 80.9336 54.1936 80.9462 54.2281 80.9662C54.2627 80.9861 54.2932 81.0131 54.3178 81.0454C54.3425 81.0778 54.3609 81.1149 54.3719 81.1548C54.3719 81.2306 54.4979 81.5087 54.6359 81.9068C55.4759 84.2263 55.9919 85.7494 55.9799 86.1918C55.9799 86.2336 55.9719 86.2749 55.9564 86.3133C55.9409 86.3517 55.9182 86.3864 55.8896 86.4154C55.861 86.4443 55.8272 86.4668 55.7901 86.4816C55.753 86.4964 55.7135 86.5032 55.6739 86.5015Z" fill="#263238"/>
    <path d="M60.876 84.5616C60.8012 84.5591 60.7298 84.5283 60.6747 84.475C60.6196 84.4216 60.5846 84.3492 60.576 84.2709L60.156 79.2149C60.1488 79.131 60.1736 79.0477 60.2248 78.9831C60.276 78.9185 60.3494 78.878 60.429 78.8704C60.5086 78.8629 60.5877 78.8889 60.649 78.9429C60.7104 78.9968 60.7488 79.0742 60.756 79.158L61.176 84.2519C61.1811 84.3344 61.156 84.4158 61.1057 84.4794C61.0555 84.5429 60.984 84.5836 60.906 84.5932L60.876 84.5616Z" fill="#263238"/>
    <path d="M76.8841 95.3117C76.5906 95.3132 76.2975 95.2879 76.0081 95.2359C75.9695 95.2276 75.9328 95.2114 75.9002 95.1881C75.8675 95.1649 75.8395 95.1351 75.8178 95.1005C75.7961 95.0659 75.781 95.0271 75.7735 94.9863C75.766 94.9456 75.7662 94.9037 75.7741 94.863C75.7805 94.8222 75.7948 94.7832 75.816 94.7484C75.8372 94.7136 75.865 94.6837 75.8976 94.6606C75.9302 94.6375 75.9669 94.6217 76.0055 94.6141C76.0442 94.6065 76.0838 94.6074 76.1221 94.6165C76.1221 94.6165 77.5921 94.9136 78.4921 94.2436C78.6847 94.0961 78.8452 93.907 78.9632 93.6891C79.0811 93.4712 79.1537 93.2294 79.1761 92.9796C79.1821 92.9382 79.1957 92.8983 79.2162 92.8623C79.2367 92.8264 79.2638 92.795 79.2958 92.7701C79.3279 92.7451 79.3642 92.7271 79.4029 92.717C79.4416 92.7068 79.4817 92.7048 79.5211 92.7111C79.5605 92.7173 79.5984 92.7316 79.6325 92.7532C79.6666 92.7749 79.6964 92.8034 79.7201 92.8371C79.7438 92.8709 79.7609 92.9092 79.7705 92.9499C79.7801 92.9906 79.7821 93.033 79.7761 93.0745C79.7399 93.407 79.6379 93.7279 79.4766 94.0163C79.3154 94.3048 79.0986 94.5545 78.8401 94.7493C78.2571 95.1407 77.5751 95.3368 76.8841 95.3117Z" fill="#263238"/>
    <path d="M71.4958 90.4705C71.4536 90.4708 71.4118 90.4613 71.3734 90.4428C71.3351 90.4242 71.3011 90.397 71.2738 90.363C71.2457 90.3336 71.2234 90.2987 71.2081 90.2602C71.1929 90.2217 71.1851 90.1804 71.1851 90.1387C71.1851 90.0969 71.1929 90.0556 71.2081 90.0171C71.2234 89.9786 71.2457 89.9437 71.2738 89.9143C71.2738 89.9143 73.0738 88.2458 73.2658 86.6911C73.2791 86.6088 73.3222 86.5352 73.3859 86.4857C73.4497 86.4362 73.5293 86.4147 73.6078 86.4257C73.6468 86.4318 73.6843 86.4461 73.7181 86.4675C73.7519 86.489 73.7814 86.5172 73.8048 86.5507C73.8282 86.5842 73.8451 86.6222 73.8545 86.6625C73.864 86.7029 73.8658 86.7448 73.8598 86.7859C73.6078 88.5681 71.7478 90.3125 71.6698 90.3883C71.6229 90.4366 71.5612 90.4657 71.4958 90.4705Z" fill="#263238"/>
    <path d="M66.4262 86.7987H66.3722C66.294 86.7833 66.2246 86.7364 66.1787 86.668C66.1328 86.5995 66.1139 86.515 66.1262 86.4322C66.1262 86.3943 66.7862 82.3305 66.9062 81.4963C66.9121 81.4548 66.9257 81.4149 66.9463 81.3789C66.9668 81.343 66.9939 81.3116 67.0259 81.2867C67.058 81.2618 67.0943 81.2437 67.133 81.2336C67.1717 81.2234 67.2118 81.2214 67.2512 81.2277C67.2906 81.2339 67.3285 81.2482 67.3626 81.2699C67.3967 81.2915 67.4265 81.32 67.4502 81.3537C67.4739 81.3875 67.491 81.4258 67.5006 81.4665C67.5102 81.5072 67.5121 81.5496 67.5062 81.5911C67.3862 82.4316 66.7322 86.5017 66.7262 86.5396C66.7134 86.6132 66.6763 86.6797 66.6213 86.7271C66.5664 86.7746 66.4973 86.8 66.4262 86.7987Z" fill="#263238"/>
    <path d="M66.6023 96.5853C69.0862 93.8521 68.8023 89.3197 65.9682 86.4619C63.134 83.6041 58.8229 83.5031 56.3389 86.2362C53.855 88.9694 54.1388 93.5018 56.973 96.3596C59.8071 99.2174 64.1183 99.3184 66.6023 96.5853Z" fill="#003FA4"/>
    <path opacity="0.3" d="M64.2842 91.4057C64.2932 91.2458 64.2932 91.0854 64.2842 90.9254C64.2036 90.1014 63.8392 89.3371 63.2599 88.777C62.6806 88.2168 61.9265 87.8997 61.1402 87.8855C60.7706 87.8787 60.4039 87.9549 60.0645 88.1089C59.7251 88.263 59.4206 88.4913 59.1715 88.7789C58.9223 89.0665 58.7341 89.4066 58.6194 89.7767C58.5047 90.1468 58.4661 90.5384 58.5062 90.9254C58.5161 91.0884 58.5443 91.2497 58.5902 91.4057H54.6782C54.5826 90.4944 54.6724 89.5721 54.9418 88.7002C55.2111 87.8283 55.6538 87.0269 56.2402 86.3494C56.8267 85.6718 57.5435 85.1337 58.3429 84.7709C59.1423 84.4081 60.0059 84.2288 60.8762 84.2452C62.7268 84.2812 64.5008 85.0293 65.8637 86.3484C67.2266 87.6675 68.084 89.4664 68.2742 91.4057H64.2842Z" fill="black"/>
    <path opacity="0.7" d="M64.2779 90.9256C64.2868 91.0856 64.2868 91.2459 64.2779 91.4059C64.2347 92.1094 63.9355 92.7682 63.4426 93.2451C62.9496 93.7219 62.301 93.98 61.6319 93.9655C60.9265 93.9516 60.2452 93.6934 59.6932 93.2307C59.1411 92.7681 58.7492 92.1268 58.5779 91.4059C58.532 91.2499 58.5038 91.0886 58.4939 90.9256C58.4538 90.5386 58.4924 90.147 58.6071 89.7769C58.7218 89.4068 58.91 89.0667 59.1592 88.7791C59.4083 88.4915 59.7127 88.2631 60.0522 88.1091C60.3916 87.9551 60.7583 87.8789 61.1279 87.8857C61.9152 87.8983 62.6707 88.2148 63.2513 88.7751C63.8319 89.3354 64.1972 90.1006 64.2779 90.9256Z" fill="black"/>
    <path opacity="0.7" d="M65.844 87.9427C65.8763 88.2582 65.8447 88.5773 65.751 88.8789C65.6573 89.1805 65.5038 89.4577 65.3006 89.692C65.0975 89.9263 64.8494 90.1124 64.5727 90.2379C64.296 90.3635 63.9972 90.4256 63.696 90.4202C63.0563 90.4068 62.4434 90.1475 61.9726 89.6912C61.5019 89.2349 61.2057 88.6131 61.14 87.9427C61.1066 87.6271 61.1376 87.3075 61.2309 87.0055C61.3242 86.7034 61.4777 86.4259 61.681 86.1913C61.8844 85.9568 62.1329 85.7707 62.41 85.6455C62.6872 85.5203 62.9865 85.4589 63.288 85.4653C63.928 85.4773 64.5416 85.7361 65.0127 86.1927C65.4837 86.6493 65.7795 87.2719 65.844 87.9427Z" fill="white"/>
    <path d="M56.5559 74.8159H54.1919V75.4479H56.5559V74.8159Z" fill="#003FA4"/>
    <path d="M66.7139 74.8159H59.0039V75.4479H66.7139V74.8159Z" fill="#003FA4"/>
    <path d="M165.6 121.123L165.804 121.382L166.08 121.717C166.278 121.938 166.47 122.172 166.68 122.387C167.094 122.842 167.544 123.284 168 123.733C168.911 124.618 169.866 125.452 170.862 126.23C171.876 127.026 172.944 127.753 174.012 128.473C174.612 128.814 175.104 129.175 175.668 129.503L176.97 130.262C177.159 130.35 177.372 130.363 177.57 130.3C177.99 130.167 180.402 127.652 181.17 126.716C182.874 124.662 185.454 121.957 186.846 119.657L188.4 121.913C187.418 124.731 186.114 127.414 184.518 129.901C183.66 131.246 182.63 132.461 181.458 133.51C180.754 134.135 179.96 134.636 179.106 134.995C178.023 135.451 176.834 135.545 175.698 135.267C175.404 135.192 175.117 135.09 174.84 134.964L174.3 134.717L173.328 134.25C172.674 133.946 172.044 133.58 171.408 133.245C170.136 132.53 168.902 131.743 167.712 130.887C166.512 130.018 165.36 129.077 164.262 128.069C163.692 127.544 163.182 127.013 162.66 126.438C162.402 126.154 162.138 125.857 161.886 125.547L161.514 125.067C161.376 124.89 161.274 124.757 161.088 124.485L165.6 121.123Z" fill="#FFB573"/>
    <path d="M186.6 120.004L189.384 113.735L192.042 118.753C192.042 118.753 190.296 121.913 188.4 121.913L186.6 120.004Z" fill="#FFB573"/>
    <path d="M192.54 111.131L195.348 114.936L192.066 118.746L189.408 113.735L192.54 111.131Z" fill="#FFB573"/>
    <path d="M191.562 120.478H195.984C196.109 120.477 196.229 120.428 196.321 120.339C196.413 120.25 196.47 120.129 196.482 119.998L197.4 108.83C197.407 108.757 197.399 108.684 197.377 108.614C197.355 108.545 197.319 108.481 197.272 108.426C197.225 108.372 197.168 108.329 197.104 108.3C197.04 108.27 196.972 108.255 196.902 108.255H192.486C192.36 108.256 192.24 108.307 192.147 108.397C192.055 108.487 191.998 108.61 191.988 108.742L191.058 119.903C191.052 119.976 191.061 120.05 191.084 120.12C191.106 120.19 191.142 120.253 191.19 120.307C191.237 120.362 191.295 120.405 191.359 120.434C191.423 120.463 191.492 120.479 191.562 120.478Z" fill="#003FA4"/>
    <path opacity="0.3" d="M191.61 119.36H196.038L196.866 109.38H192.438L191.61 119.36Z" fill="white"/>
    <path d="M191.322 117.944L192.108 117.521C192.508 117.306 192.877 117.034 193.206 116.712L193.35 116.162C193.266 116.015 193.139 115.901 192.989 115.836C192.839 115.772 192.673 115.759 192.516 115.802L191.862 115.991L188.616 116.25L188.538 117.691L189.486 119.233H189.81C190.167 119.247 190.517 119.123 190.795 118.887C191.072 118.65 191.26 118.315 191.322 117.944Z" fill="#FFB573"/>
    <path d="M159.936 115.024C162.186 114.594 178.056 129.086 178.056 129.086L173.352 136.354C173.352 136.354 156 123.626 156.552 120.554C157.086 117.325 156.66 115.656 159.936 115.024Z" fill="#BBBBBB"/>
    <path opacity="0.2" d="M161.94 119.657L161.766 127.241C163.566 128.713 170.07 133.965 170.07 133.965L161.94 119.657Z" fill="black"/>
    <path d="M149.358 265.636L154.68 266.186L156.372 253.186L151.044 252.636L149.358 265.636Z" fill="#FFB573"/>
    <path d="M96.9597 189.354L95.5977 194.814L107.112 200.041L109.5 194.498L96.9597 189.354Z" fill="#FFB573"/>
    <path d="M158.49 267.336C158.948 267.395 159.411 267.288 159.804 267.033C159.888 266.955 159.954 266.857 159.996 266.747C160.038 266.637 160.054 266.518 160.044 266.401C160.043 266.327 160.024 266.254 159.989 266.191C159.953 266.128 159.901 266.076 159.84 266.04C159.198 265.636 157.026 266.723 156.78 266.843C156.756 266.855 156.737 266.874 156.724 266.897C156.711 266.921 156.705 266.949 156.708 266.976C156.711 267.004 156.723 267.03 156.741 267.05C156.759 267.071 156.783 267.084 156.81 267.09C157.361 267.225 157.924 267.308 158.49 267.336ZM159.456 266.205C159.539 266.198 159.623 266.218 159.696 266.262C159.721 266.275 159.742 266.296 159.757 266.322C159.772 266.348 159.78 266.377 159.78 266.407C159.786 266.486 159.775 266.565 159.747 266.639C159.718 266.713 159.674 266.778 159.618 266.83C159.288 267.127 158.418 267.153 157.218 266.913C157.925 266.54 158.688 266.299 159.474 266.198L159.456 266.205Z" fill="#003FA4"/>
    <path d="M156.834 267.064H156.882C157.53 266.78 158.832 265.604 158.748 264.96C158.724 264.848 158.665 264.748 158.58 264.676C158.495 264.605 158.389 264.567 158.28 264.568C158.155 264.543 158.026 264.548 157.903 264.58C157.78 264.613 157.665 264.674 157.566 264.757C156.876 265.32 156.714 266.843 156.702 266.9C156.696 266.923 156.696 266.947 156.701 266.97C156.706 266.993 156.717 267.015 156.732 267.033C156.746 267.045 156.762 267.054 156.78 267.06C156.797 267.065 156.816 267.067 156.834 267.064ZM158.16 264.808H158.232C158.466 264.846 158.478 264.941 158.478 264.972C158.532 265.358 157.644 266.293 156.978 266.666C157.042 266.026 157.298 265.423 157.71 264.947C157.843 264.846 158.009 264.803 158.172 264.827L158.16 264.808Z" fill="#003FA4"/>
    <path d="M154.416 263.923L149.616 264.138C149.512 264.139 149.413 264.18 149.336 264.254C149.26 264.327 149.212 264.428 149.202 264.536L148.05 271.596C148.043 271.716 148.059 271.836 148.097 271.949C148.135 272.063 148.194 272.167 148.271 272.257C148.347 272.346 148.439 272.418 148.543 272.47C148.646 272.521 148.758 272.551 148.872 272.556H148.968C151.062 272.443 152.07 272.278 154.722 272.183C156.348 272.127 161.322 272.746 163.542 272.215C165.762 271.684 165.342 269.365 164.388 269.384C161.304 269.447 157.746 267.33 155.988 264.852C155.682 264.644 154.752 263.904 154.416 263.923Z" fill="#3365B6"/>
    <path d="M98.0458 195.529L100.494 191.149C100.549 191.056 100.569 190.945 100.551 190.837C100.532 190.729 100.475 190.633 100.392 190.567L95.3998 185.72C95.2142 185.582 94.9849 185.526 94.7607 185.564C94.5365 185.602 94.3352 185.73 94.1998 185.922L94.1458 186.011C93.1018 187.907 92.6878 188.905 91.3258 191.3C90.4858 192.773 87.2818 196.862 86.5258 199.093C85.7698 201.324 87.8218 202.253 88.3258 201.381C89.9518 198.613 93.5698 196.616 96.5098 196.375C96.7918 196.262 97.8778 195.838 98.0458 195.529Z" fill="#3365B6"/>
    <path opacity="0.2" d="M156.372 253.186L155.502 259.891L150.174 259.341L151.038 252.642L156.372 253.186Z" fill="black"/>
    <path opacity="0.2" d="M113.04 195.851L110.58 201.697L103.164 198.246L105.054 192.678L113.04 195.851Z" fill="black"/>
    <path d="M163.338 121.692C166.38 127.14 162.66 131.734 159.552 148.015L139.5 148.072C139.824 139.299 139.788 132.208 136.236 114.948C136.143 114.523 136.144 114.081 136.236 113.656C136.329 113.231 136.511 112.833 136.771 112.493C137.03 112.153 137.358 111.878 137.732 111.691C138.106 111.503 138.515 111.407 138.93 111.409C140.586 111.409 142.668 111.466 144.786 111.694C148.126 111.981 151.444 112.511 154.716 113.28C156.49 113.731 158.234 114.305 159.936 114.999C160.968 115.366 162.21 118.323 163.338 121.692Z" fill="#BBBBBB"/>
    <path d="M160.296 149.114C160.296 149.114 171.558 183.413 171.288 199.908C171.132 209.357 170.454 226.964 167.748 239.345C165.54 249.457 156.54 255.904 156.54 255.904L149.34 255.455C149.34 255.455 145.44 240.034 146.118 233.897C147.468 221.681 151.47 212.504 150.984 201.286C150.216 182.92 145.056 148.83 145.056 148.83L160.296 149.114Z" fill="#003FA4"/>
    <path d="M147.894 257.433L158.064 258.065L158.988 254.848L147.624 253.742L147.894 257.433Z" fill="#3365B6"/>
    <path opacity="0.2" d="M149.178 218.407C149.178 218.407 149.178 218.344 149.238 218.35C155.628 218.982 160.038 209.293 158.988 196.028L155.598 162.216L149.178 218.407Z" fill="black"/>
    <path d="M155.244 148.83C155.244 148.83 164.196 209.142 145.584 215.929C135.762 219.848 127.5 215.601 117.714 211.038C112.056 208.402 104.988 201.267 104.988 201.267L107.706 193.474C112.594 192.082 117.709 191.81 122.706 192.678C132.246 194.233 132.648 197.102 136.038 194.934C143.166 176.379 130.902 161.71 139.236 148.798L155.244 148.83Z" fill="#003FA4"/>
    <path d="M108.24 191.996L104.604 202.101L107.28 204.256L111.6 192.229L108.24 191.996Z" fill="#3365B6"/>
    <path d="M106.74 137.498C105.834 138.908 101.238 137.953 101.238 137.953L100.26 131.956L105.906 134.338L106.74 137.498Z" fill="#FFB573"/>
    <path d="M101.4 131.646L102.276 137.878L98.8855 138.408C98.7018 138.426 98.5184 138.371 98.3709 138.254C98.2235 138.138 98.1225 137.967 98.0875 137.776L96.7855 133.352C96.7634 133.249 96.7797 133.142 96.8311 133.051C96.8825 132.96 96.965 132.894 97.0615 132.866L101.4 131.646Z" fill="#FFB573"/>
    <path d="M99.8815 134.471L101.814 134.831L103.644 133.384L102.936 132.853C102.456 132.493 102.118 131.96 101.988 131.355C101.851 130.721 101.769 130.076 101.742 129.427V129.212C101.718 129.022 101.637 128.845 101.509 128.708C101.381 128.571 101.214 128.482 101.034 128.454L100.554 128.827C100.254 129.516 100.47 130.319 100.434 130.856L100.356 131.898L99.5815 132.252L99.8815 134.471Z" fill="#FFB573"/>
    <path d="M137.202 113.76L125.85 130.192L105 134.528V138.13C105 138.13 124.596 139.66 129 136.961C133.404 134.262 140.79 117.894 140.79 117.894L137.202 113.76Z" fill="#FFB573"/>
    <path d="M137.07 82.1602C132.306 80.4791 126.78 83.5948 124.602 88.3601C122.424 93.1254 123.186 98.9714 125.64 103.585C126.378 104.982 127.26 106.296 127.866 107.756C128.539 109.203 128.687 110.86 128.28 112.414C127.788 113.924 127.284 114.891 125.508 114.651C125.508 114.651 125.508 113.615 126.186 113.741C126.186 113.741 124.746 114.582 124.182 114.032C124.836 115.094 126.582 114.708 127.14 113.583C127.974 111.908 126.438 109.64 124.638 109.658C122.838 109.677 121.374 111.599 121.434 113.488C121.509 114.434 121.828 115.339 122.357 116.107C122.886 116.874 123.604 117.475 124.434 117.843C123.948 117.927 123.448 117.84 123.014 117.594C122.58 117.348 122.235 116.958 122.034 116.484C122.85 118.734 125.514 119.726 127.764 119.284C130.014 118.841 131.916 117.325 133.68 115.789C136.08 113.716 138.534 111.093 138.48 107.851C138.426 105.43 136.95 103.351 135.708 101.31C134.466 99.2684 133.38 96.7783 134.172 94.5094C134.838 92.5818 136.65 91.419 138.246 90.2434C139.398 89.4029 141.738 87.5258 141.462 85.7499C141.18 84.0562 138.42 82.6342 137.07 82.1602Z" fill="#564F52"/>
    <path d="M126.336 138.408L123.192 129.642L123.912 129.705C124.494 129.757 125.079 129.63 125.595 129.341C126.111 129.052 126.537 128.612 126.822 128.075C129.222 123.575 135.42 112.155 137.166 111.586C139.656 110.809 142.218 112.907 143.166 116.01C143.88 118.291 136.566 128.075 133.194 133.636C130.2 138.56 126.336 138.408 126.336 138.408Z" fill="#BBBBBB"/>
    <path d="M95.67 198.41V198.48C95.7142 198.601 95.7869 198.709 95.8813 198.793C95.9757 198.877 96.0888 198.934 96.21 198.96C96.2828 198.984 96.3602 198.988 96.4348 198.971C96.5094 198.955 96.5787 198.918 96.636 198.865C97.14 198.379 96.816 196.337 96.786 196.135C96.7827 196.109 96.7716 196.084 96.7544 196.065C96.7372 196.046 96.7147 196.033 96.69 196.028C96.6667 196.024 96.643 196.027 96.621 196.036C96.5991 196.045 96.5795 196.059 96.564 196.078C96.156 196.685 95.508 197.766 95.67 198.41ZM96.594 196.514C96.702 197.323 96.75 198.41 96.468 198.676C96.4386 198.693 96.4056 198.702 96.372 198.702C96.3384 198.702 96.3054 198.693 96.276 198.676C96.1954 198.66 96.1199 198.622 96.0569 198.567C95.9939 198.512 95.9454 198.44 95.916 198.36C95.808 198.018 96.036 197.323 96.594 196.502V196.514Z" fill="#003FA4"/>
    <path d="M96.5997 196.401C96.7557 197.083 97.3677 198.246 97.9077 198.385C98.0061 198.406 98.1084 198.391 98.1977 198.343C98.2871 198.295 98.3583 198.216 98.3997 198.12C98.4467 198.029 98.4743 197.93 98.4805 197.827C98.4867 197.724 98.4714 197.621 98.4357 197.526C98.1897 196.742 96.7737 196.097 96.7137 196.066C96.6944 196.055 96.6727 196.049 96.6507 196.049C96.6287 196.049 96.607 196.055 96.5877 196.066C96.5701 196.081 96.5564 196.1 96.548 196.122C96.5396 196.144 96.5367 196.168 96.5397 196.192C96.5545 196.263 96.5745 196.333 96.5997 196.401ZM98.2317 197.665C98.244 197.72 98.2455 197.778 98.2362 197.835C98.2269 197.891 98.2071 197.945 98.1777 197.993C98.0997 198.145 98.0217 198.145 97.9617 198.132C97.5957 198.056 97.0377 197.102 96.8577 196.439C97.3197 196.685 98.0577 197.146 98.2137 197.627C98.2096 197.639 98.2096 197.652 98.2137 197.665H98.2317Z" fill="#003FA4"/>
    <path d="M139.428 147.003L138.87 149.057C138.798 149.215 138.972 149.38 139.224 149.373H159.924C160.122 149.373 160.284 149.266 160.296 149.14L160.488 147.086C160.488 146.946 160.332 146.82 160.116 146.826H139.776C139.708 146.821 139.64 146.834 139.579 146.865C139.518 146.897 139.466 146.944 139.428 147.003Z" fill="#003FA4"/>
    <path opacity="0.5" d="M139.428 147.003L138.87 149.057C138.798 149.215 138.972 149.38 139.224 149.373H159.924C160.122 149.373 160.284 149.266 160.296 149.14L160.488 147.086C160.488 146.946 160.332 146.82 160.116 146.826H139.776C139.708 146.821 139.64 146.834 139.579 146.865C139.518 146.897 139.466 146.944 139.428 147.003Z" fill="white"/>
    <path d="M143.4 149.563H142.8C142.686 149.563 142.59 149.5 142.602 149.424L142.872 146.75C142.872 146.675 142.986 146.611 143.106 146.611H143.706C143.82 146.611 143.91 146.675 143.904 146.757L143.634 149.424C143.598 149.5 143.49 149.569 143.4 149.563Z" fill="#003FA4"/>
    <path d="M158.322 149.563H157.722C157.614 149.563 157.518 149.5 157.53 149.424L157.8 146.757C157.8 146.675 157.908 146.611 158.022 146.611H158.622C158.736 146.611 158.832 146.675 158.82 146.75L158.55 149.417C158.538 149.5 158.442 149.563 158.322 149.563Z" fill="#003FA4"/>
    <path d="M151.476 149.551H150.876C150.762 149.551 150.666 149.487 150.678 149.412L150.948 146.744C150.948 146.662 151.062 146.599 151.176 146.599H151.776C151.89 146.599 151.98 146.662 151.974 146.738L151.698 149.405C151.698 149.487 151.596 149.551 151.476 149.551Z" fill="#003FA4"/>
    <path d="M145.722 100.191C146.358 103.635 146.982 109.854 144.762 111.725C144.762 111.725 145.65 115.258 151.584 116.199C158.136 117.236 154.698 113.305 154.698 113.305C151.128 111.82 151.218 109.102 151.83 106.599L145.722 100.191Z" fill="#FFB573"/>
    <path d="M144.786 111.694C147.952 111.905 151.099 112.366 154.2 113.071L158.688 114.481C159.486 116.175 158.178 119.657 154.422 120.32C154.422 120.32 144.96 121.692 142.17 111.428L144.786 111.694Z" fill="#FFB573"/>
    <path opacity="0.2" d="M148.2 102.814L151.8 106.606C151.648 107.193 151.55 107.794 151.506 108.401C150.138 107.977 147.942 106.391 147.792 104.874C147.794 104.165 147.932 103.464 148.2 102.814Z" fill="black"/>
    <path d="M141.714 95.8431C143.322 101.19 143.886 103.49 147.18 105.595C152.088 108.755 157.98 105.519 157.92 99.7805C157.872 94.6107 155.262 86.736 149.688 85.8765C148.462 85.683 147.211 85.8231 146.051 86.2833C144.892 86.7435 143.864 87.5086 143.064 88.5057C142.265 89.5028 141.721 90.6988 141.485 91.9798C141.249 93.2608 141.327 94.5842 141.714 95.8241V95.8431Z" fill="#FFB573"/>
    <path d="M153.828 95.0088C154.395 95.9472 155.084 96.798 155.874 97.5368C155.689 97.7475 155.463 97.9132 155.211 98.0224C154.959 98.1315 154.688 98.1815 154.416 98.1688L153.828 95.0088Z" fill="#ED893E"/>
    <path d="M153.258 101.025C153.461 101.002 153.661 100.959 153.858 100.899C153.873 100.895 153.887 100.888 153.9 100.879C153.913 100.869 153.924 100.857 153.932 100.843C153.941 100.829 153.946 100.813 153.949 100.796C153.952 100.78 153.951 100.763 153.948 100.747C153.939 100.714 153.919 100.686 153.891 100.668C153.863 100.65 153.829 100.645 153.798 100.652C153.285 100.801 152.747 100.821 152.226 100.712C151.705 100.602 151.216 100.365 150.798 100.02C150.773 99.9945 150.739 99.98 150.705 99.98C150.67 99.98 150.636 99.9945 150.612 100.02C150.6 100.033 150.59 100.047 150.584 100.064C150.577 100.08 150.574 100.097 150.574 100.115C150.574 100.133 150.577 100.15 150.584 100.167C150.59 100.183 150.6 100.198 150.612 100.21C150.98 100.522 151.404 100.755 151.858 100.895C152.312 101.035 152.787 101.079 153.258 101.025Z" fill="#263238"/>
    <path d="M139.968 85.1683C139.307 85.6187 138.758 86.2298 138.367 86.9502C137.977 87.6705 137.756 88.4791 137.724 89.3079C137.697 89.6248 137.744 89.9439 137.862 90.2369C137.921 90.3819 138.015 90.5079 138.135 90.6022C138.255 90.6965 138.397 90.7558 138.546 90.7741C139.002 90.7741 139.338 90.3444 139.59 89.9399L140.754 88.0439C141.233 87.428 141.636 86.7505 141.954 86.0278C142.344 84.7828 140.682 84.688 139.968 85.1683Z" fill="#003FA4"/>
    <path d="M140.538 86.4262C137.352 90.3066 135.924 101.044 145.26 104.04C146.82 102.738 144.3 100.368 143.232 97.3724C142.53 95.4132 146.088 91.7539 147.474 90.2498C148.86 88.7456 150.138 86.5778 152.094 86.9254C152.59 87.1003 153.125 87.1157 153.63 86.9697C155.184 86.2302 154.428 85.2506 153.63 84.5681C152.406 83.6139 150.949 83.0482 149.43 82.9375C147.791 82.7342 146.13 82.9445 144.584 83.5512C143.038 84.1578 141.651 85.1433 140.538 86.4262Z" fill="#564F52"/>
    <path d="M150.9 85.1245C154.65 88.4172 149.7 88.4994 147.078 90.585C144.564 92.5884 146.328 95.8685 142.074 97.3916C138.6 98.4597 137.796 97.815 136.836 97.1072C138.026 96.8903 139.114 96.2651 139.931 95.3289C140.748 94.3927 141.248 93.198 141.354 91.9311C141.648 89.5295 146.616 81.3072 150.9 85.1245Z" fill="#564F52"/>
    <path d="M141.15 100.336C141.737 101.228 142.633 101.841 143.646 102.043C144.99 102.289 145.506 100.994 145.044 99.7296C144.606 98.592 143.388 97.0942 142.086 97.4165C141.638 97.5385 141.254 97.8426 141.019 98.262C140.784 98.6815 140.717 99.182 140.832 99.6538C140.893 99.9016 141.001 100.134 141.15 100.336Z" fill="#FFB573"/>
    <path d="M150.258 85.4594C150.984 87.406 153.078 87.1469 154.626 89.1819C155.58 90.4459 157.452 86.5465 154.902 85.0107C152.352 83.475 149.118 82.4132 150.258 85.4594Z" fill="#564F52"/>
    <path d="M148.05 93.675C148.103 93.6811 148.157 93.669 148.203 93.6406C148.25 93.6122 148.286 93.5689 148.308 93.517C148.8 92.3668 150.276 92.0761 150.288 92.0761C150.354 92.0608 150.412 92.0196 150.449 91.9608C150.487 91.9021 150.503 91.8302 150.492 91.7601C150.479 91.6915 150.441 91.6312 150.385 91.5921C150.33 91.5531 150.263 91.5385 150.198 91.5515C150.12 91.5515 148.44 91.9244 147.84 93.3148C147.813 93.3795 147.811 93.4526 147.835 93.5186C147.858 93.5847 147.905 93.6385 147.966 93.6687H148.05V93.675Z" fill="#263238"/>
    <path d="M155.85 91.3492C155.894 91.3526 155.938 91.3432 155.977 91.322C156.016 91.3008 156.049 91.2687 156.072 91.2292C156.091 91.2007 156.104 91.1686 156.111 91.1345C156.119 91.1005 156.119 91.0653 156.113 91.0311C156.107 90.9969 156.094 90.9643 156.076 90.9354C156.057 90.9064 156.034 90.8817 156.006 90.8626C155.674 90.6201 155.291 90.4654 154.89 90.4115C154.489 90.3576 154.081 90.4061 153.702 90.5529C153.67 90.5659 153.642 90.5857 153.618 90.6109C153.594 90.6361 153.575 90.6663 153.562 90.6995C153.55 90.7327 153.544 90.7683 153.546 90.804C153.547 90.8397 153.555 90.8747 153.57 90.9068C153.596 90.9712 153.646 91.022 153.708 91.0481C153.769 91.0741 153.839 91.0733 153.9 91.0459C154.198 90.936 154.517 90.9028 154.83 90.949C155.143 90.9951 155.442 91.1194 155.7 91.3113C155.747 91.3352 155.798 91.3482 155.85 91.3492Z" fill="#263238"/>
    <path d="M180.516 125.945L177 128.05L173.346 136.329C173.346 136.329 176.874 138.693 179.658 136.778C182.442 134.863 180.516 125.945 180.516 125.945Z" fill="#003FA4"/>
    <path opacity="0.5" d="M180.516 125.945L177 128.05L173.346 136.329C173.346 136.329 176.874 138.693 179.658 136.778C182.442 134.863 180.516 125.945 180.516 125.945Z" fill="#BBBBBB"/>
    <path d="M119.034 128.505L123.192 129.769L127.134 138.358C127.134 138.358 123.966 141.448 120.534 138.497C117.966 136.26 119.034 128.505 119.034 128.505Z" fill="#003FA4"/>
    <g opacity="0.5">
        <path d="M119.034 128.505L123.192 129.769L127.134 138.358C127.134 138.358 123.966 141.448 120.534 138.497C117.966 136.26 119.034 128.505 119.034 128.505Z" fill="#BBBBBB"/>
    </g>
    <path d="M155.61 93.492C155.898 93.4352 156.21 93.7764 156.276 94.2441C156.342 94.7118 156.18 95.1416 155.892 95.1921C155.604 95.2427 155.292 94.9077 155.226 94.44C155.16 93.9724 155.322 93.5363 155.61 93.492Z" fill="#263238"/>
    <path d="M156.498 93.0308L155.484 93.5553C156.096 94.0104 156.498 93.0308 156.498 93.0308Z" fill="#263238"/>
    <path d="M150.6 94.579C150.888 94.5221 151.2 94.8634 151.266 95.331C151.332 95.7987 151.17 96.2285 150.882 96.279C150.594 96.3296 150.282 95.9946 150.216 95.527C150.15 95.0593 150.3 94.6358 150.6 94.579Z" fill="#263238"/>
    <path d="M151.476 94.1177L150.462 94.6422C151.074 95.0973 151.476 94.1177 151.476 94.1177Z" fill="#263238"/>
    <path d="M125.196 118.76C124.631 118.763 124.071 118.651 123.546 118.431C121.686 117.628 120.822 115.593 121.146 112.838C121.156 112.755 121.198 112.68 121.261 112.629C121.324 112.578 121.403 112.555 121.482 112.566C121.521 112.571 121.559 112.584 121.594 112.604C121.628 112.624 121.658 112.652 121.682 112.685C121.706 112.718 121.724 112.756 121.734 112.796C121.744 112.837 121.746 112.879 121.74 112.92C121.428 115.366 122.16 117.161 123.75 117.843C124.673 118.176 125.672 118.192 126.604 117.89C127.536 117.588 128.354 116.983 128.94 116.162C130.446 114.051 129.954 111.055 127.608 107.946C121.464 99.8248 121.872 95.5082 122.742 92.0954C124.002 87.1406 127.692 81.4652 138.132 82.5586C138.211 82.567 138.285 82.6083 138.335 82.6735C138.386 82.7387 138.41 82.8224 138.402 82.9062C138.394 82.99 138.355 83.067 138.293 83.1204C138.231 83.1737 138.151 83.199 138.072 83.1906C128.058 82.1415 124.518 87.5514 123.318 92.2661C122.454 95.6789 122.118 99.6668 128.076 107.56C131.676 112.319 130.218 115.435 129.42 116.548C128.921 117.229 128.281 117.782 127.549 118.165C126.818 118.548 126.013 118.751 125.196 118.76Z" fill="#564F52"/>
</svg>
