<svg width="20" height="20" viewBox="0 0 20 20" fill="none" xmlns="http://www.w3.org/2000/svg">
    <path d="M16.6667 4.1665H3.33332C2.41285 4.1665 1.66666 4.9127 1.66666 5.83317V14.1665C1.66666 15.087 2.41285 15.8332 3.33332 15.8332H16.6667C17.5871 15.8332 18.3333 15.087 18.3333 14.1665V5.83317C18.3333 4.9127 17.5871 4.1665 16.6667 4.1665Z" stroke="#142445" stroke-width="1.25" stroke-linecap="round" stroke-linejoin="round"/>
    <path d="M1.66666 8.3335H18.3333" stroke="#142445" stroke-width="1.25" stroke-linecap="round" stroke-linejoin="round"/>
    <rect x="14" y="10" width="6" height="7" fill="#F2F3F4"/>
    <path d="M18.8333 13.375H15.9167C15.6865 13.375 15.5 13.5615 15.5 13.7917V15.25C15.5 15.4801 15.6865 15.6667 15.9167 15.6667H18.8333C19.0635 15.6667 19.25 15.4801 19.25 15.25V13.7917C19.25 13.5615 19.0635 13.375 18.8333 13.375Z" stroke="#142445" stroke-width="0.85" stroke-linecap="round" stroke-linejoin="round"/>
    <path d="M16.3333 13.375V12.5417C16.3333 12.2654 16.4431 12.0004 16.6384 11.8051C16.8338 11.6097 17.0987 11.5 17.375 11.5C17.6513 11.5 17.9162 11.6097 18.1116 11.8051C18.3069 12.0004 18.4167 12.2654 18.4167 12.5417V13.375" stroke="#142445" stroke-width="0.85" stroke-linecap="round" stroke-linejoin="round"/>
</svg>
