<svg width="15" height="15" viewBox="0 0 15 15" fill="none" xmlns="http://www.w3.org/2000/svg">
<path d="M13.125 7.5V4.375H3.125C2.79348 4.375 2.47554 4.2433 2.24112 4.00888C2.0067 3.77446 1.875 3.45652 1.875 3.125C1.875 2.79348 2.0067 2.47554 2.24112 2.24112C2.47554 2.0067 2.79348 1.875 3.125 1.875H11.875V4.375" stroke="#F24D4D" stroke-linecap="round" stroke-linejoin="round"/>
<path d="M1.875 3.125V11.875C1.875 12.2065 2.0067 12.5245 2.24112 12.7589C2.47554 12.9933 2.79348 13.125 3.125 13.125H13.125V10" stroke="#F24D4D" stroke-linecap="round" stroke-linejoin="round"/>
<path d="M11.25 7.5C10.9185 7.5 10.6005 7.6317 10.3661 7.86612C10.1317 8.10054 10 8.41848 10 8.75C10 9.08152 10.1317 9.39946 10.3661 9.63388C10.6005 9.8683 10.9185 10 11.25 10H13.75V7.5H11.25Z" stroke="#F24D4D" stroke-linecap="round" stroke-linejoin="round"/>
</svg>
